<?xml version="1.0" encoding="utf-8"?>
<svg id="Layer_1" data-name="Layer 1" version="1.1" viewBox="0 0 45 45" xmlns="http://www.w3.org/2000/svg">
  <defs>
    <style>
      .cls-1 {
        fill: #fff;
        stroke-width: 0px;
      }
    </style>
  </defs>
  <g id="wWNF6p" style="" transform="matrix(0.057567, 0, 0, 0.057567, -8.899287, -8.837236)">
    <g>
      <path class="cls-1" d="M490.72,536.47c5.34,0,9.06,0,12.78,0,119.11,0,238.22-.02,357.33-.02,20.85,0,32.91,11.41,33.21,32.28.34,24.16.34,48.34,0,72.5-.28,19.47-12.22,30.92-31.54,30.95-33.95.06-67.9.02-101.85.02-3.08,0-6.15,0-9.11,0,0,28.34.01,55.59,0,82.83-.02,23.98-9.27,33.82-33.34,35.55-1.66.12-3.29.47-4.63.67,0,28.39.06,56.24-.02,84.09-.06,20.94-11.71,32.79-32.43,32.79-142.42.05-284.83.06-427.25.02-21.84,0-33.26-11.74-33.29-33.82-.02-22.73-.01-45.46-.01-68.19,0-21.98,10.08-32.7,32.1-34.19,1.97-.13,3.92-.47,5.85-.71,0-25.84,0-51.34,0-76.84-.01-26.91,3.37-31.85,28.31-41.3,0-29.27-.01-58.55,0-87.83.03-54.66.07-109.33.1-163.99,0-10.77-4.18-12.84-14.1-8.17-8.34,3.93-10.72,9.23-9.45,18.45,3.25,23.61,5.62,47.36,7.83,71.1,1.53,16.44-16.58,34.61-33.06,33.91-11.8-.5-20.85-8.36-24.05-21.19-8.4-33.72-16.74-67.45-25.03-101.19-3.48-14.16-.57-22.85,11.41-30.45,28.88-18.33,58-36.29,87.11-54.26,3.12-1.93,6.79-2.98,11.15-4.84-19.69-20.04-28.66-43.46-22.86-71.25,3.67-17.55,12.97-31.77,26.98-42.92,28.02-22.3,69.49-20.65,95.84,3.81,31,28.78,31.29,65.98.21,110.98,16.03,0,31.45.29,46.83-.28,2.6-.1,5.8-3.48,7.45-6.13,6.09-9.75,11.57-19.88,17.43-29.77,8.71-14.71,22.83-18.44,37.53-10.05,2.25,1.28,4.45,2.64,6.68,3.94,17.33,10.13,20.8,22.91,10.78,40.47-9.69,16.98-19.85,33.69-29.18,50.87-6.37,11.73-15.72,16.77-28.77,16.59-19.27-.27-38.55-.11-57.83-.16-10.05-.02-11.99,1.88-12.11,12.06-.14,12.54,1.75,15.05,11.94,15.1,17.84.09,35.68-.02,53.51.05,17.7.08,27.51,9.99,27.54,27.93.07,33.09.03,66.17.03,99.26,0,3.38,0,6.75,0,11.31ZM305.62,521.21h.06c0,40.28-.06,80.55.11,120.83.02,3.49,1.14,9.72,2.59,9.98,7.15,1.27,14.74,1.86,21.82.63,1.98-.34,3.89-7.67,3.91-11.8.25-56.1.14-112.2.19-168.3.01-19.4,9.69-28.97,29.29-29.05,17.26-.07,34.52-.08,51.78-.01,18.68.07,28.63,10.12,28.69,28.93.06,17.55-.06,35.1.04,52.65.05,9.96,1.51,11.26,11.7,11.42,1.44.02,2.88.03,4.32.02,11.37-.07,12.51-1.09,12.53-12.28.06-32.51.05-65.02,0-97.53-.01-9.74-1.89-11.68-11.51-11.73-18.41-.1-36.82.05-55.24-.06-14.11-.08-24.15-8.62-25.81-22.64-3-25.35,4.63-42.31,34.94-40.71,17.5.92,35.09-.01,52.64.3,6.14.11,10.16-1.69,13.27-7.26,9.53-17.06,19.58-33.83,29.31-50.78,4.83-8.4,4.1-10.67-4.48-15.82-1.97-1.18-4.11-2.12-5.97-3.45-6.28-4.46-10.41-2.35-13.87,3.86-5.59,10.04-11.68,19.81-17.25,29.87-5.72,10.34-14.17,15.06-26.03,15.01-45.17-.18-90.33-.11-135.5.04-3.88.01-8.38.3-11.52,2.21-28,17.03-55.74,34.49-83.61,51.74-5.05,3.13-6.65,6.68-5.02,12.91,8.37,31.94,16.23,64.01,24.23,96.05,3.41,13.65,8.24,15.48,18.15,5.71,2.68-2.64,3.96-8.16,3.61-12.16-1.98-22.9-4.4-45.77-7.16-68.59-2.46-20.32,12.18-37.9,33-38.89,15.69-.74,26.66,10.48,26.73,28.07.17,40.28.05,80.55.05,120.83ZM785.73,554.98h-276.4v98.52h276.4v-98.52ZM366.44,771.39h277.12c0-3.32,0-6.14,0-8.95,0-26.75-.29-53.51.19-80.25.14-7.94-2.1-10.17-10.09-10.14-81.69.28-163.38.16-245.08.17q-22.14,0-22.14,21.88c0,25.54,0,51.09,0,77.3ZM328.44,889.41c3.41.3,5.38.63,7.35.63,87.12.03,174.24-.05,261.37.17,7.17.02,8.66-2.68,8.6-9.11-.26-26.45-.1-52.9-.1-79.36q0-11.24-11.38-11.24c-83.67,0-167.34.02-251.02.02-2.3,0-4.61.18-6.9-.02-5.73-.49-8.29,1.46-8.02,7.75.46,10.62.1,21.27.09,31.91,0,19.5,0,39,0,59.23ZM400.55,653.61c0-28.78-.08-56.93.03-85.08.06-14.3,6.37-24.55,19.74-30.6,2.52-1.14,5.2-5.2,5.26-7.98.45-18.97.08-37.96.27-56.94.07-7.25-2.8-10.49-10.22-10.39-16.39.23-32.78.05-49.18.06-13.86.01-14.2.34-14.21,13.86-.01,54.64,0,109.28,0,163.92,0,4.23,0,8.46,0,13.13h48.3ZM348.09,193.43c-31.58.27-56.14,25.32-55.76,56.87.37,30.72,25.71,55.16,56.94,54.92,30.32-.22,55.55-25.51,55.58-55.69.04-31.17-25.46-56.37-56.77-56.1ZM661.79,771.88c20.02,0,39.18.14,58.34-.06,10.11-.1,13.26-3.39,13.31-13.63.13-24.12.13-48.24.01-72.36-.05-9.69-3.83-13.45-13.67-13.55-16.94-.18-33.88.05-50.82-.14-4.98-.06-7.28,1.34-7.25,6.81.18,30.43.09,60.86.09,92.93ZM623.83,839.93c0,14.35.16,28.71-.08,43.06-.09,5.11,1.46,7.21,6.84,7.15,17.51-.22,35.02.1,52.53-.13,7.92-.1,12.14-4.48,12.18-12.44.15-24.97.15-49.95,0-74.93-.05-8.49-3.58-11.97-12.2-12.07-17.22-.2-34.45.13-51.67-.13-6.11-.09-7.87,2.28-7.72,8.16.35,13.77.11,27.56.12,41.34ZM348.24,771.74c0-32.02.1-62.97-.24-93.91-.02-1.89-3.51-5.32-5.44-5.36-18.07-.38-36.16-.39-54.23-.03-6.97.14-11.34,4.49-11.39,11.56-.21,25.54-.19,51.09,0,76.63.05,6.67,3.89,10.96,10.73,11.04,19.77.22,39.55.08,60.59.08ZM310.19,890.07c0-32.54.09-63.76-.28-94.98-.02-1.54-4.15-4.28-6.4-4.33-17.5-.36-35.02-.35-52.52-.11-8.69.12-12.16,3.92-12.21,13.04-.13,24.4-.13,48.8,0,73.19.05,9.12,3.88,12.85,13.29,13.11,9.18.25,18.37.08,27.55.08,9.95,0,19.9,0,30.57,0ZM490.26,605.07h-.03c0-14.35-.05-28.71.03-43.06.03-4.53-.6-7.6-6.48-7.5-17.5.31-35.01.08-52.51.18-8.11.04-12.03,4.43-12.06,12.42-.08,24.97-.25,49.95-.14,74.92.04,8.3,3.89,11.9,12.33,11.98,16.94.14,33.88-.24,50.81.19,6.77.17,8.27-2.6,8.14-8.64-.31-13.49-.1-26.99-.1-40.48ZM804.41,603.88c0,14.1.21,28.2-.1,42.29-.13,5.94,1.91,8.11,7.93,8,16.68-.3,33.37-.04,50.05-.14,9.75-.06,13.02-3.1,13.09-12.92.18-24.45.18-48.91-.02-73.36-.08-9.72-3.5-12.95-13.1-13.03-16.68-.14-33.38.2-50.05-.21-6.21-.15-8,2.19-7.91,7.94.22,13.81.07,27.62.1,41.42Z" style=""/>
      <path class="cls-1" d="M740.61,262.59c6.46-6.29,12.93-12.58,19.39-18.88,9.4-9.15,11.72-9.17,21.06.15,12.21,12.18,24.28,24.51,36.59,36.59,6.05,5.94,5.85,11.45-.26,16.9-7.25,6.45-14.65,12.74-21.99,19.09.71,1.29,1.42,2.58,2.14,3.86,3.99.32,7.97.94,11.96.91,34.42-.25,29.88-.83,30.02,30.41.05,11.5.05,23,.02,34.51-.03,11.32-2.79,14.15-14.28,14.32-9.1.14-18.2.03-29.91.03,3.24,4.08,4.72,6.28,6.53,8.15,5.61,5.78,11.41,11.36,17.01,17.14,4.26,4.4,4.69,9.2.22,13.7-13.78,13.87-27.65,27.64-41.52,41.42-4.75,4.71-9.73,4.53-14.44.08-5.64-5.33-11.01-10.95-16.57-16.36-1.96-1.91-4.13-3.59-7.86-6.79-.51,4.34-.99,6.65-1.02,8.98-.11,8.05-.07,16.1-.08,24.15,0,6.13-2.8,10.14-9.13,10.2-20.13.19-40.26.23-60.38,0-6.94-.08-9.14-4.93-9.13-11.16,0-9.99,0-19.98,0-32.1-3.56,2.23-5.77,3.16-7.38,4.7-6.01,5.77-11.81,11.77-17.73,17.64-4.94,4.9-9.89,5.17-14.99.08-13.41-13.42-26.91-26.76-40.33-40.17-5.63-5.63-4.95-10.95.7-16.32,7.05-6.71,13.82-13.72,22.23-22.12-4.35-.95-7.05-1.96-9.78-2.04-8.04-.24-16.1-.09-24.15-.11-6.71-.02-10.22-3.58-10.27-10.1-.14-19.26-.11-38.53-.04-57.8.03-7.61,4.54-10.73,11.65-10.77,9.96-.05,19.93-.01,29.89-.01.5-.84.99-1.67,1.49-2.51-4.16-4.31-8.26-8.67-12.49-12.92-16.49-16.57-19-15.62.07-33.89,10.17-9.74,19.91-19.94,29.92-29.85,6.82-6.75,10.51-6.77,17.45-.04,7.09,6.87,14.04,13.89,21.04,20.85.93-.37,1.86-.74,2.79-1.11,0-9.02-.04-18.04,0-27.06.06-12.19,2.53-14.84,14.52-14.94,16.96-.13,33.93-.15,50.9,0,10.59.09,13.23,2.88,13.31,13.43.07,9.58.02,19.17.02,28.76.94.34,1.88.69,2.81,1.03ZM768.65,258.55c-5.98,6.53-11.46,13.71-18.21,19.36-3.01,2.52-8.59,2.62-12.99,2.59-2.92-.02-5.74-2.54-8.76-3.38-6.62-1.83-9.22-6.17-9.12-12.77.13-8.56.03-17.12.03-26.89-13.26,0-25.55-.21-37.82.26-1.57.06-4.13,3.64-4.28,5.73-.54,7.44.63,15.09-.59,22.36-.67,3.96-4.42,7.79-7.6,10.81-2.13,2.02-5.81,2.31-8.62,3.74-6.04,3.06-10.98,1.89-15.39-3.12-5.66-6.42-11.49-12.7-16.59-18.32-11.11,11.12-20.74,20.75-31.52,31.53,5.99,5.51,12.35,11.31,18.65,17.17,4.52,4.21,5.8,8.98,2.69,14.72-1.49,2.76-2.65,5.75-3.55,8.77-1.76,5.94-5.7,8.11-11.67,7.92-6.9-.22-13.81.16-20.71-.1-5.15-.19-7.38,1.71-7.15,7,.27,6.32-.04,12.65.07,18.98.33,19.11-2.6,16.25,16.44,16.42,19.81.17,19.61.12,26.62,16.99,2.61,6.29,1.65,10.96-3.35,15.32-6.48,5.63-12.78,11.47-18.93,17.01,11.1,11.22,20.71,20.94,31.41,31.76,6.14-6.5,12.31-12.85,18.28-19.39,4.3-4.71,8.97-5.69,14.63-2.62,2.51,1.36,5.22,2.43,7.95,3.28,6.45,2.02,9.04,6.23,8.76,12.97-.35,8.51-.09,17.04-.09,25.85h42.21c0-8.87.45-17.17-.1-25.4-.87-12.9,10.12-12.75,17.44-16.73,6.24-3.39,10.77-.86,15.15,3.83,5.77,6.19,11.97,11.99,17.55,17.52,10.43-10.41,19.95-19.91,30.63-30.58-6.41-6-13.1-12.22-19.74-18.49-4-3.78-5.13-8.07-2.44-13.22,1.45-2.79,2.68-5.75,3.56-8.76,1.92-6.53,6.31-9.21,12.87-9.15,6.9.06,13.81-.13,20.71,0,4.34.08,6.19-1.63,6.11-6.12-.2-10.06-.22-20.14.03-30.2.11-4.6-1.86-6.15-6.13-6.07-6.9.12-13.82-.2-20.71.11-6.66.29-11.06-2.05-12.89-8.76-.67-2.47-1.72-4.91-2.97-7.15-3.55-6.32-2.09-11.45,3.13-16.06,6.39-5.65,12.65-11.45,18.94-17.17-11.06-10.92-20.62-20.37-31.94-31.56Z" style=""/>
      <path class="cls-1" d="M713.73,581.1c9.75,0,19.5,0,29.25,0,5.98,0,10.22,2.37,10.29,8.87.07,6.56-4.43,9.09-10.19,9.14-19.78.18-39.57.16-59.36.07-5.91-.03-10.36-2.97-10.39-9.11-.04-6.15,4.17-9,10.29-8.98,10.04.04,20.07.01,30.11,0Z" style=""/>
      <path class="cls-1" d="M581.81,581.09c9.75,0,19.51.07,29.26-.03,6.12-.06,10.36,2.61,10.46,8.79.1,6.19-4.21,9.24-10.17,9.28-19.79.13-39.59.16-59.38.02-5.71-.04-10.42-2.41-10.38-8.97.04-6.9,4.59-9.21,10.95-9.15,9.75.1,19.51.03,29.26.03v.03Z" style=""/>
      <path class="cls-1" d="M713.66,610.41c9.75.01,19.49,0,29.24.02,5.93,0,10.28,2.25,10.32,8.81.04,6.47-4.34,9.17-10.14,9.22-19.77.18-39.55.15-59.33.05-5.9-.03-10.31-2.93-10.41-9.09-.11-6.97,4.91-9.02,11.08-9.01,9.74.01,19.49,0,29.23.01Z" style=""/>
      <path class="cls-1" d="M582.24,610.45c9.74,0,19.49.01,29.23,0,5.69,0,9.76,2.67,10.08,8.34.35,6.26-4.11,9.54-9.84,9.62-20.05.27-40.12.22-60.17-.03-5.69-.07-10.21-2.74-9.95-9.35.26-6.54,4.68-8.61,10.57-8.61,10.03.01,20.06,0,30.09,0v.03Z" style=""/>
      <path class="cls-1" d="M438.69,716.84c-9.47,0-18.93.02-28.4,0-6.25,0-11.19-2.52-11.11-9.2.08-6.65,5-9.03,11.28-9.01,19.22.05,38.44.03,57.66.02,6.24,0,11.09,2.19,11,9.14-.09,6.88-4.94,9.07-11.17,9.05-9.75-.03-19.51,0-29.26,0Z" style=""/>
      <path class="cls-1" d="M570.53,698.66c10.04,0,20.07,0,30.11,0,6.02,0,10.35,2.69,10.52,8.86.17,6.25-4.19,9.21-10.12,9.25-20.07.12-40.14.13-60.22,0-5.6-.04-9.46-2.97-9.56-8.85-.11-6.43,4.07-9.14,10.02-9.22,9.75-.13,19.5-.04,29.25-.03Z" style=""/>
      <path class="cls-1" d="M438.48,746.16c-9.46,0-18.93,0-28.39,0-6.37,0-10.99-2.77-10.84-9.43.14-6.14,4.59-8.77,10.61-8.76,19.5.03,39,0,58.5.02,6.27,0,11,2.34,10.73,9.35-.27,6.91-5.15,8.89-11.36,8.83-9.75-.08-19.5-.02-29.25-.01Z" style=""/>
      <path class="cls-1" d="M571.88,728.03c9.17,0,18.35.08,27.52-.03,6.59-.07,11.85,2.17,11.74,9.39-.1,6.73-5.25,8.84-11.43,8.82-19.21-.06-38.42-.05-57.62-.08-6.28,0-10.93-2.43-10.78-9.34.14-6.38,4.53-8.79,10.48-8.8,10.03-.02,20.07,0,30.1,0v.05Z" style=""/>
      <path class="cls-1" d="M401.13,834.43c-9.76,0-19.52-.1-29.27.03-6.49.08-11.01-2.69-10.9-9.28.1-6.14,4.73-8.85,10.63-8.87,19.8-.06,39.6-.12,59.4.03,5.96.04,10.07,3.04,9.91,9.43-.16,6.51-4.56,8.7-10.5,8.69-9.76-.03-19.51,0-29.27-.01Z" style=""/>
      <path class="cls-1" d="M400.81,863.75c-9.76,0-19.51-.09-29.27.03-6.14.08-10.39-2.69-10.59-8.75-.2-6.13,4.14-9.36,10.08-9.4,19.8-.14,39.6-.11,59.4.04,6.21.05,10.83,2.75,10.46,9.73-.35,6.51-4.97,8.44-10.81,8.43-9.76-.02-19.51,0-29.27,0v-.08Z" style=""/>
      <path class="cls-1" d="M533.46,863.74c-10.03.01-20.05.05-30.08,0-6.02-.03-10.14-2.72-10.12-9.09.02-5.94,4.18-8.83,9.59-8.89,20.34-.22,40.68-.21,61.01,0,5.59.06,9.48,3.42,9.3,9.14-.17,5.56-3.81,8.79-9.62,8.82-10.03.06-20.05.02-30.08.03Z" style=""/>
      <path class="cls-1" d="M532.71,834.37c-9.74,0-19.49,0-29.23,0-6.05,0-10.19-2.56-10.21-8.96-.02-6.46,4.43-9.04,10.25-9.08,19.77-.12,39.55-.11,59.32.01,5.88.04,10.35,2.88,10.31,9.12-.04,6.18-4.27,8.96-10.35,8.94-10.03-.03-20.06,0-30.09,0v-.03Z" style=""/>
      <path class="cls-1" d="M698.32,294.51c37.04-.05,66.88,29.81,66.7,66.74-.17,35.84-30.14,65.64-66.1,65.75-36.68.11-67-29.48-67.17-65.55-.18-36.92,29.63-66.89,66.58-66.94ZM698.5,312.22c-26.87.04-48.51,21.25-48.75,47.79-.25,27.03,21.44,48.85,48.53,48.81,27.29-.03,48.74-21.46,48.66-48.6-.08-26.59-21.72-48.04-48.44-48Z" style=""/>
    </g>
  </g>
</svg>