<svg viewBox="0 0 408 452" fill="none" xmlns="http://www.w3.org/2000/svg">
<path d="M322.009 75.4189H0.298828V451.129H322.009V75.4189Z" fill="#FFE53C"/>
<path d="M312.798 62.985C312.798 62.985 316.017 86.312 343.579 100.878C372.965 116.409 352.079 163.123 300.952 164.702C245.415 166.417 215.089 116.402 256.644 53.719L312.798 62.985Z" fill="#3A1616"/>
<path d="M295.597 135.654L295.306 95.386H270.706L270.183 136.118L295.597 135.654Z" fill="#D6906E"/>
<path d="M298.423 107.185C299.723 103.622 289.902 123.701 279.701 122.393C270.954 121.271 269.479 105.523 269.479 105.523C269.479 105.523 273.528 111.516 282.762 111.529C293.059 111.544 298.423 107.185 298.423 107.185Z" fill="#3A1616"/>
<path d="M313.084 73.1809C309.954 91.1329 299.519 106.24 282.784 106.24C266.049 106.24 254.548 91.3069 252.484 73.1809C250.144 52.6149 266.048 40.4709 282.784 40.4709C299.52 40.4709 316.297 54.7459 313.084 73.1809Z" fill="#3A1616"/>
<path d="M308.973 82.54C309.703 81.5097 310.772 80.7688 311.993 80.4465C313.215 80.1243 314.51 80.2413 315.654 80.777C320.154 82.483 318.118 93.41 311.368 94.803C310.61 94.9373 309.831 94.9061 309.086 94.7114C308.341 94.5167 307.647 94.1631 307.052 93.675C307.052 93.675 308.712 85.603 308.973 82.54Z" fill="#D6906E"/>
<path d="M314.761 84.6311C314.761 84.6311 310.991 83.3741 308.317 88.9241" stroke="#161311" stroke-width="1.024" stroke-linecap="round" stroke-linejoin="round"/>
<path d="M257.305 82.54C256.574 81.5099 255.505 80.769 254.284 80.4468C253.063 80.1246 251.767 80.2414 250.624 80.777C246.124 82.483 248.16 93.41 254.909 94.803C255.667 94.9373 256.445 94.9061 257.191 94.7114C257.936 94.5167 258.63 94.1631 259.226 93.675C259.226 93.675 257.566 85.603 257.305 82.54Z" fill="#D6906E"/>
<path d="M251.516 84.6311C251.516 84.6311 255.285 83.3741 257.96 88.9241" stroke="#161311" stroke-width="1.024" stroke-linecap="round" stroke-linejoin="round"/>
<path d="M309.398 73.1239C309.398 80.1239 308.677 93.2969 304.138 101.992C299.876 110.157 292.289 114.304 283.044 114.309C273.934 114.309 265.592 108.109 261.945 101.1C256.427 90.4999 256.691 73.2549 256.691 73.2549C256.691 73.2549 256.691 48.2389 282.76 48.2389C310.214 48.2379 309.398 73.1239 309.398 73.1239Z" fill="#D6906E"/>
<path d="M288.908 71.921L303.208 75.614C303.208 75.614 302.558 71.603 296.708 70.145C290.858 68.687 288.908 71.921 288.908 71.921Z" fill="#1A1A1A"/>
<path d="M279.822 71.921L265.522 75.614C265.522 75.614 266.172 71.603 272.022 70.145C277.872 68.687 279.822 71.921 279.822 71.921Z" fill="#1A1A1A"/>
<path d="M285.189 83.756L285.833 88.865H282.125" stroke="#161311" stroke-width="1.024" stroke-linecap="round" stroke-linejoin="round"/>
<path d="M272.996 93.204H293.826C293.826 93.204 293.226 100.864 283.464 100.882C274.463 100.893 272.996 93.204 272.996 93.204Z" fill="white"/>
<path d="M291.869 80.126C291.869 80.126 295.822 78.111 299.169 80.126" stroke="#161311" stroke-width="1.024" stroke-linecap="round" stroke-linejoin="round"/>
<path d="M269.123 80.126C269.123 80.126 273.076 78.111 276.423 80.126" stroke="#161311" stroke-width="1.024" stroke-linecap="round" stroke-linejoin="round"/>
<path d="M257.305 82.5409C257.305 82.5409 264.246 68.7809 259.397 56.5409C259.397 56.5409 254.567 56.6149 254.737 75.7089L257.305 82.5409Z" fill="#3A1616"/>
<path d="M308.969 82.5409C308.969 82.5409 302.048 67.9189 306.876 56.5409C306.876 56.5409 311.707 56.6149 311.536 75.7089L308.969 82.5409Z" fill="#3A1616"/>
<path d="M252.258 67.1749C252.258 67.1749 289.858 64.9469 300.758 49.7109C300.758 49.7109 297.198 40.2269 280.449 42.8549C263.7 45.4829 252.258 67.1749 252.258 67.1749Z" fill="#3A1616"/>
<path d="M285.349 45.799C285.349 45.799 295.987 67.899 311.199 67.156C311.199 67.158 302.846 46.012 285.349 45.799Z" fill="#3A1616"/>
<path d="M307.108 422.547C307.108 422.547 295.955 353.413 289.393 334.565C288.793 332.856 286.815 333.079 286.42 334.877C284.839 342.061 282.756 363.229 283.686 425.532L283.664 450.999H239.864L233.006 389.71C232.655 385.01 218.595 308.194 253.925 248.961H322.486C322.486 248.961 350.205 308.512 354.028 381.352C354.879 397.559 355.182 422.311 356.948 450.999H311.968L307.108 422.547Z" fill="#0B2747"/>
<path d="M308.317 324.288L285.815 333.482" stroke="#1E123B" stroke-width="1.992" stroke-miterlimit="10"/>
<path d="M340.596 142.738C340.596 142.738 354.956 144.779 365.464 180.747L337.165 196.971L320.465 174.007L340.596 142.738Z" fill="#DA005A"/>
<path d="M337.169 196.967C337.169 196.967 355.956 226.43 360.415 231.729C365.026 237.209 372.015 239.924 378.084 236.129C380.723 234.478 382.662 231.912 383.529 228.922C384.396 225.932 384.131 222.728 382.784 219.921L363.278 181.84L337.169 196.967Z" fill="#D6906E"/>
<path d="M382.538 142.789L360.044 215.998L384.035 226.43L398.461 143.878L382.538 142.789Z" fill="#D6906E"/>
<path d="M384.087 146.432L380.575 143.046C377.998 140.565 376.401 137.238 376.075 133.676L375.175 123.747C375.175 123.747 374.605 118.52 385.006 119.833C395.407 121.146 396.02 121.211 395.898 124.298C395.898 124.298 393.998 128.581 387.29 129.449L384.087 146.432Z" fill="#D6906E"/>
<path d="M397.249 147.954C397.249 147.954 407.519 142.265 407.996 124.276C408.022 123.255 407.788 122.244 407.316 121.338C406.844 120.432 406.148 119.662 405.296 119.099C402.631 117.346 394.953 112.935 390.835 115.754L383.625 125.061L384.089 146.434L397.249 147.954Z" fill="#D6906E"/>
<path d="M382.12 121.921L376.387 92.9449C376.223 92.1153 376.392 91.2544 376.857 90.5483C377.323 89.8421 378.047 89.3474 378.874 89.1709V89.1709C379.701 88.9942 380.563 89.1495 381.276 89.6031C381.989 90.0568 382.495 90.7726 382.684 91.5959L387.744 113.511L390.175 113.976L398.575 91.8009C398.715 91.4314 398.929 91.0941 399.202 90.8091C399.476 90.5242 399.805 90.2975 400.168 90.1428C400.532 89.9882 400.923 89.9086 401.318 89.9089C401.713 89.9093 402.104 89.9896 402.467 90.1449V90.1449C403.115 90.4225 403.642 90.9245 403.95 91.5587C404.258 92.1929 404.327 92.9169 404.144 93.5979L395.898 124.298L382.12 121.921Z" fill="#D6906E"/>
<path d="M381.669 119.625C381.669 119.625 395.783 118.277 395.899 124.298C395.899 124.298 396.199 128.804 387.291 129.449C388.943 129.984 390.387 131.02 391.424 132.412C392.461 133.805 393.038 135.486 393.077 137.222" stroke="#BF704F" stroke-width="0.996" stroke-miterlimit="10"/>
<path d="M367.819 190.696L361.845 210.137" stroke="#BF704F" stroke-width="0.996" stroke-miterlimit="10"/>
<path d="M244.15 184.748C244.15 184.748 221.803 263.343 213.245 329.211L198.845 326.481C198.845 326.481 201.045 229.967 215.568 170.263L244.15 184.748Z" fill="#D6906E"/>
<path d="M198.963 323.177C198.963 323.177 177.294 355.177 203.3 369.555C204.133 370.015 205.1 370.174 206.037 370.004C206.974 369.835 207.824 369.347 208.444 368.624L208.613 368.424C209.278 367.626 209.619 366.607 209.568 365.57C209.517 364.532 209.077 363.552 208.336 362.824C204.641 359.079 199.673 351.319 207.592 341.182C207.592 341.182 211.748 342.243 211.052 350.495C211.007 350.993 211.071 351.495 211.242 351.966C211.412 352.436 211.683 352.864 212.037 353.218C212.39 353.572 212.817 353.844 213.287 354.015C213.757 354.186 214.259 354.251 214.758 354.207V354.207C215.462 354.139 216.129 353.854 216.664 353.391C217.2 352.928 217.579 352.31 217.748 351.622C219.111 346.183 221.367 332.691 212.671 325.444L198.963 323.177Z" fill="#D6906E"/>
<path d="M230.384 149.298C230.384 149.298 209.826 156.045 206.216 188.445L239.623 201.113L247.148 180.564L230.384 149.298Z" fill="#DD4C88"/>
<path d="M250.119 141.796L230.058 149.381L253.929 239.671H322.491L340.591 142.741L316.829 137.221L250.119 141.796Z" fill="#DA005A"/>
<path d="M322.492 239.668H253.93V248.96H322.492V239.668Z" fill="#D6906E"/>
<path d="M242.012 194.59L234.809 167.696" stroke="#C12D71" stroke-width="1.992" stroke-miterlimit="10"/>
<path d="M276.506 131.267L250.117 141.79C250.117 141.79 253.186 152.178 284.154 152.178C311.134 152.178 316.823 137.218 316.823 137.218L291.191 131.267H276.506Z" fill="#D6906E"/>
<path d="M103.612 264.563L74.9121 451H130.543L151.871 327.788L156.779 327.409L156.853 451H212.312L209.486 264.563H103.612Z" fill="#0F9B2C"/>
<path d="M166.17 326.542H134.499" stroke="#006415" stroke-width="1.992" stroke-miterlimit="10"/>
<path d="M78.0416 161.54L25.6966 148.154C20.6835 146.746 16.4227 143.428 13.8292 138.912C11.2356 134.397 10.5163 129.045 11.8256 124.005V124.005C12.4918 121.441 13.6636 119.035 15.2723 116.93C16.8809 114.825 18.894 113.062 21.1933 111.746C23.4925 110.43 26.0317 109.586 28.6615 109.265C31.2914 108.943 33.959 109.15 36.5076 109.874L88.9176 124.754L78.0416 161.54Z" fill="#FFD2CC"/>
<path d="M72.2751 115.236L123.405 121.953L108.782 174.14L59.9541 163.975L72.2751 115.236Z" fill="#0B2747"/>
<path d="M47.8649 50.248C46.5559 42.048 49.7359 31.559 49.7359 31.559L48.5779 13.148C48.4678 12.3056 48.6721 11.4523 49.1518 10.7512C49.6315 10.0501 50.3529 9.55047 51.1779 9.34797V9.34797C52.0616 9.13158 52.995 9.27282 53.7752 9.74098C54.5553 10.2091 55.1191 10.9664 55.3439 11.848L56.8779 23.743L58.5059 23.713L60.7199 4.60797C60.7604 4.0593 60.9157 3.52526 61.1758 3.04044C61.4359 2.55562 61.7949 2.13084 62.2296 1.79362C62.6643 1.4564 63.165 1.21426 63.6993 1.08288C64.2335 0.951502 64.7894 0.933814 65.3309 1.03097V1.03097C66.2548 1.19726 67.0886 1.68902 67.6811 2.41714C68.2737 3.14526 68.5858 4.06155 68.5609 4.99997L67.1039 25.682L68.7769 26.009L74.6349 5.39997C74.7844 4.83321 75.0472 4.30262 75.4074 3.84024C75.7677 3.37785 76.2179 2.99328 76.7309 2.70972C77.2439 2.42616 77.8091 2.24951 78.3922 2.19043C78.9754 2.13135 79.5645 2.19107 80.1239 2.36598C81.1702 2.69405 82.0535 3.40609 82.5961 4.35893C83.1388 5.31176 83.3005 6.43471 83.0489 7.50197L76.9969 31.102L79.1209 31.677L87.0669 15.1C87.2849 14.6467 87.5954 14.244 87.9783 13.9178C88.3612 13.5917 88.8082 13.3493 89.2904 13.2062C89.7726 13.0632 90.2794 13.0226 90.7783 13.0871C91.2771 13.1517 91.757 13.3199 92.1869 13.581C92.8956 14.0105 93.4344 14.6713 93.7124 15.4519C93.9904 16.2326 93.9906 17.0852 93.7129 17.866L85.6569 39.922L92.3259 39.753C93.0629 39.7557 93.7912 39.9125 94.464 40.2134C95.1368 40.5143 95.7392 40.9526 96.2326 41.5001C96.7259 42.0476 97.0994 42.6922 97.3288 43.3926C97.5583 44.093 97.6387 44.8337 97.5649 45.567C97.4569 46.6378 97.0246 47.6501 96.326 48.4687C95.6273 49.2872 94.6954 49.8731 93.6549 50.148L84.8779 52.272C80.7835 57.5498 75.3394 61.6236 69.1209 64.063C69.1209 64.063 48.8619 56.508 47.8649 50.248Z" fill="#FFD2CC"/>
<path d="M85.6571 39.9219C85.6571 39.9219 72.9301 39.174 65.3721 46.344" stroke="#D8857D" stroke-width="0.996" stroke-miterlimit="10"/>
<path d="M12.5176 121.838L47.8636 50.2479L70.1716 59.6359L47.6956 138.394L12.5176 121.838Z" fill="#FFD2CC"/>
<path d="M54.3859 114.951L50.9229 127.084" stroke="#D8857D" stroke-width="0.996" stroke-miterlimit="10"/>
<path d="M169.103 119.122L210.951 127.782L209.491 264.562H103.609L100.291 124.031L140.128 120.586L169.103 119.122Z" fill="#0B2747"/>
<path d="M241.301 162.534L271.489 217.203C274.029 221.802 274.664 227.215 273.255 232.277C271.847 237.34 268.509 241.647 263.958 244.274V244.274C259.459 246.87 254.129 247.62 249.089 246.367C244.048 245.114 239.691 241.955 236.932 237.554L205.593 187.554L241.301 162.534Z" fill="#FFD2CC"/>
<path d="M250.667 170.146L207.359 197.937L200.409 164.744C193.08 152.911 183.766 138.632 195.483 131.119C198.305 129.309 201.456 128.074 204.756 127.485C208.056 126.895 211.44 126.962 214.714 127.682C217.988 128.402 221.087 129.761 223.835 131.681C226.583 133.601 228.925 136.044 230.728 138.871L250.667 170.146Z" fill="#0B2747"/>
<path d="M256.645 246.779L177.39 244.611L171.937 219L261.511 207.67L256.645 246.779Z" fill="#FFD2CC"/>
<path d="M221.37 212.725L242.011 210.136" stroke="#D8857D" stroke-width="0.996" stroke-miterlimit="10"/>
<path d="M177.2 220.049C177.2 220.049 167.06 206.335 155.128 219.997L159.873 229.417L177.2 220.049Z" fill="#FFD2CC"/>
<path d="M165.269 205.515L168.402 224.695L144.221 227.386L140.383 208.964C140.285 208.494 140.286 208.009 140.386 207.54C140.485 207.07 140.681 206.627 140.961 206.237C141.241 205.847 141.599 205.52 142.012 205.276C142.425 205.031 142.884 204.875 143.36 204.818L161.434 202.633C162.322 202.526 163.216 202.766 163.931 203.303C164.646 203.84 165.125 204.633 165.269 205.515V205.515Z" fill="#1A1A1A"/>
<path d="M172.094 218.413L143.483 219.124C141.889 219.165 140.374 219.827 139.261 220.97C138.148 222.113 137.526 223.645 137.527 225.24V225.24C137.527 226.39 137.851 227.516 138.463 228.49C139.074 229.463 139.947 230.245 140.982 230.745L142.512 231.485C142.512 231.485 139.589 253.149 156.783 255.728C173.977 258.307 183.605 244.728 183.605 244.728L172.094 218.413Z" fill="#FFD2CC"/>
<path d="M138.54 120.642L138.929 77.442H170.298L170.998 119.516L138.54 120.642Z" fill="#FFD2CC"/>
<path d="M172.88 90.0559C174.512 86.3259 161.989 110.718 149.203 109.348C138.239 108.173 137.786 88.3149 137.786 88.3149C137.786 88.3149 141.677 94.5879 153.249 94.6019C166.157 94.6179 172.88 90.0559 172.88 90.0559Z" fill="#DBA9A2"/>
<path d="M122.231 53.618C125.588 72.878 136.783 89.085 154.731 89.085C172.679 89.085 185.024 73.064 187.236 53.618C189.746 31.555 172.684 16.9 154.731 16.9C136.778 16.9 118.783 33.842 122.231 53.618Z" fill="#2F1118"/>
<path d="M126.641 63.659C126.641 63.659 124.3 59.936 119.473 61.767C114.646 63.598 116.83 75.321 124.073 76.815C124.886 76.9592 125.721 76.9257 126.52 76.7168C127.32 76.508 128.064 76.1287 128.703 75.605C128.703 75.605 126.922 66.945 126.641 63.659Z" fill="#FFD2CC"/>
<path d="M120.43 65.903C120.43 65.903 124.474 64.554 127.344 70.509Z" fill="#FFD2CC"/>
<path d="M120.43 65.903C120.43 65.903 124.474 64.554 127.344 70.509" stroke="#161311" stroke-width="1.098" stroke-linecap="round" stroke-linejoin="round"/>
<path d="M182.073 63.659C182.073 63.659 184.413 59.936 189.24 61.767C194.067 63.598 191.884 75.321 184.64 76.815C183.826 76.9592 182.991 76.9257 182.192 76.7168C181.393 76.508 180.648 76.1287 180.009 75.605C180.009 75.605 181.793 66.945 182.073 63.659Z" fill="#FFD2CC"/>
<path d="M188.282 65.903C188.282 65.903 184.239 64.554 181.368 70.509Z" fill="#FFD2CC"/>
<path d="M188.282 65.903C188.282 65.903 184.239 64.554 181.368 70.509" stroke="#161311" stroke-width="1.098" stroke-linecap="round" stroke-linejoin="round"/>
<path d="M126.185 53.557C126.185 61.07 126.96 76.787 131.83 86.117C136.402 94.877 143.964 99.59 153.878 99.87C161.79 100.095 173.183 92.679 177.099 85.159C183.018 73.791 182.735 53.697 182.735 53.697C182.735 53.697 182.735 26.858 154.766 26.858C125.31 26.858 126.185 53.557 126.185 53.557Z" fill="#FFD2CC"/>
<path d="M164.234 62.658C164.235 63.0853 164.361 63.503 164.599 63.8582C164.837 64.2134 165.174 64.4902 165.569 64.6537C165.964 64.8171 166.398 64.8598 166.817 64.7764C167.236 64.693 167.621 64.4872 167.923 64.185C168.226 63.8829 168.431 63.4979 168.515 63.0788C168.598 62.6597 168.556 62.2253 168.392 61.8305C168.229 61.4356 167.952 61.0981 167.597 60.8606C167.241 60.6231 166.824 60.4962 166.396 60.496C165.823 60.496 165.273 60.7238 164.868 61.1292C164.462 61.5347 164.234 62.0846 164.234 62.658V62.658Z" fill="#1A1A1A"/>
<path d="M141.896 62.658C141.897 63.0853 142.024 63.503 142.261 63.8582C142.499 64.2134 142.836 64.4902 143.231 64.6537C143.626 64.8171 144.06 64.8598 144.479 64.7764C144.898 64.693 145.283 64.4872 145.586 64.185C145.888 63.8829 146.093 63.4979 146.177 63.0788C146.26 62.6597 146.218 62.2253 146.054 61.8305C145.891 61.4356 145.614 61.0981 145.259 60.8606C144.903 60.6231 144.486 60.4962 144.058 60.496C143.775 60.4958 143.493 60.5517 143.231 60.6603C142.969 60.7689 142.73 60.9281 142.529 61.1289C142.329 61.3297 142.169 61.5681 142.061 61.8305C141.952 62.0928 141.896 62.374 141.896 62.658V62.658Z" fill="#1A1A1A"/>
<path d="M160.544 53.8539L175.884 57.8159C175.884 57.8159 175.184 53.5159 168.912 51.9489C162.64 50.3819 160.544 53.8539 160.544 53.8539Z" fill="#1A1A1A"/>
<path d="M150.796 53.8539L135.456 57.8159C135.456 57.8159 136.156 53.5159 142.429 51.9489C148.702 50.3819 150.796 53.8539 150.796 53.8539Z" fill="#1A1A1A"/>
<path d="M157.243 68.136V73.617H153.265" stroke="#161311" stroke-width="1.098" stroke-linecap="round" stroke-linejoin="round"/>
<path d="M142.718 78.236H166.2C166.2 78.236 165.545 84.409 155.069 84.427C145.413 84.446 142.718 78.236 142.718 78.236Z" fill="white"/>
<path d="M182.074 63.659C182.074 63.659 171.602 47.592 179.828 35.769C179.828 35.769 185.011 35.848 184.828 56.331L182.074 63.659Z" fill="#2F1118"/>
<path d="M126.646 63.659C126.646 63.659 137.118 47.592 128.892 35.769C128.892 35.769 123.71 35.848 123.892 56.331L126.646 63.659Z" fill="#2F1118"/>
<path d="M182.62 34.996C182.62 34.996 169.098 50.296 141.24 47.296C116.364 44.62 114.208 27.176 120.131 20.281C128.595 10.427 147.264 14.09 157.243 25.091L182.62 34.996Z" fill="#2F1118"/>
<path d="M147.96 115.007L125.796 122.407C125.796 122.407 129.972 131.916 153.86 131.916C174.672 131.916 179.628 120.966 179.628 120.966L159.287 115.007H147.96Z" fill="#FFD2CC"/>
</svg>
