<svg viewBox="0 0 58 54" xmlns="http://www.w3.org/2000/svg">
<g clip-path="url(#clip0_105_11)">
<path d="M2.68793 23.299C3.39986 23.3021 4.08173 23.5864 4.58514 24.0898C5.08856 24.5932 5.37277 25.2751 5.37593 25.987V31.887L7.44293 33.954C7.66313 33.4747 8.00926 33.0642 8.44443 32.7662C8.8796 32.4683 9.38749 32.294 9.91393 32.262C10.3004 32.2408 10.6871 32.2993 11.0499 32.434L15.0649 33.923H19.7799C21.678 33.9399 23.4918 34.7094 24.8231 36.0626C26.1543 37.4157 26.894 39.2418 26.8799 41.14V52.871C26.8799 53.1097 26.7851 53.3386 26.6163 53.5074C26.4475 53.6762 26.2186 53.771 25.9799 53.771H13.4409C13.2022 53.771 12.9733 53.6762 12.8045 53.5074C12.6358 53.3386 12.5409 53.1097 12.5409 52.871V49.287C12.5409 49.0483 12.6358 48.8194 12.8045 48.6506C12.9733 48.4818 13.2022 48.387 13.4409 48.387H14.3409V46.287L8.61093 43.832C8.50651 43.7872 8.4115 43.7231 8.33093 43.643L0.26593 35.579C0.0981985 35.4109 0.00366731 35.1834 0.00292969 34.946V25.986C0.00608685 25.274 0.290301 24.5922 0.793716 24.0887C1.29713 23.5853 1.979 23.3011 2.69093 23.298L2.68793 23.299ZM2.68793 25.091C2.5691 25.0887 2.45103 25.1104 2.34079 25.1548C2.23055 25.1992 2.13042 25.2654 2.04639 25.3494C1.96235 25.4335 1.89614 25.5336 1.85173 25.6439C1.80732 25.7541 1.78561 25.8721 1.78792 25.991V34.58L9.46793 42.259L15.5829 44.879C15.7439 44.9485 15.881 45.0635 15.9774 45.2099C16.0739 45.3563 16.1255 45.5277 16.1259 45.703V48.391H25.0869V41.137C25.0986 40.431 24.97 39.7297 24.7087 39.0738C24.4474 38.4179 24.0586 37.8203 23.5647 37.3157C23.0708 36.8112 22.4817 36.4096 21.8315 36.1343C21.1813 35.859 20.483 35.7155 19.7769 35.712H14.9009C14.7948 35.7118 14.6895 35.6928 14.5899 35.6559L10.4249 34.111C10.2889 34.0584 10.1435 34.0343 9.99783 34.0402C9.85213 34.0462 9.7092 34.082 9.57791 34.1454C9.44663 34.2089 9.32979 34.2987 9.23466 34.4092C9.13954 34.5198 9.06816 34.6487 9.02493 34.788C8.94553 35.0906 8.97797 35.4118 9.11629 35.6925C9.25461 35.9732 9.48953 36.1946 9.77792 36.316L17.1229 39.111C17.2432 39.1449 17.3552 39.2035 17.4516 39.283C17.548 39.3626 17.6268 39.4613 17.6829 39.573C17.7391 39.6847 17.7713 39.8068 17.7777 39.9316C17.784 40.0565 17.7643 40.1813 17.7197 40.298C17.6752 40.4148 17.6068 40.521 17.5189 40.6099C17.431 40.6988 17.3256 40.7684 17.2094 40.8143C17.0931 40.8602 16.9686 40.8814 16.8437 40.8765C16.7188 40.8716 16.5963 40.8408 16.4839 40.7859L9.13893 37.991C8.45123 37.7229 7.88318 37.2159 7.53893 36.563C6.30492 35.363 5.07592 34.114 3.85092 32.89C3.68319 32.7219 3.58866 32.4944 3.58792 32.257V25.985C3.59023 25.8662 3.56854 25.7481 3.52412 25.6378C3.47971 25.5276 3.41351 25.4275 3.32947 25.3434C3.24543 25.2594 3.14529 25.1932 3.03505 25.1488C2.92481 25.1044 2.80675 25.0827 2.68793 25.085V25.091ZM25.0879 50.179H14.3369V51.9709H25.0899L25.0879 50.179Z" />
<path d="M54.6609 23.299C53.949 23.3021 53.2671 23.5864 52.7637 24.0898C52.2603 24.5932 51.9761 25.2751 51.9729 25.987V31.887L49.9059 33.954C49.6857 33.4747 49.3396 33.0642 48.9044 32.7662C48.4693 32.4683 47.9614 32.294 47.435 32.262C47.0485 32.2407 46.6618 32.2993 46.299 32.434L42.284 33.923H37.569C35.6708 33.9399 33.857 34.7094 32.5258 36.0626C31.1946 37.4157 30.4548 39.2418 30.4689 41.14V52.871C30.4689 53.1097 30.5638 53.3386 30.7326 53.5074C30.9013 53.6762 31.1302 53.771 31.3689 53.771H43.914C44.1527 53.771 44.3816 53.6762 44.5503 53.5074C44.7191 53.3386 44.8139 53.1097 44.8139 52.871V49.287C44.8139 49.0483 44.7191 48.8194 44.5503 48.6506C44.3816 48.4818 44.1527 48.387 43.914 48.387H43.0139V46.287L48.7439 43.832C48.8484 43.7872 48.9434 43.7231 49.024 43.643L57.0889 35.579C57.2567 35.4109 57.3512 35.1834 57.3519 34.946V25.986C57.3488 25.274 57.0646 24.5922 56.5612 24.0887C56.0577 23.5853 55.3759 23.3011 54.664 23.298L54.6609 23.299ZM54.6609 25.091C54.7798 25.0887 54.8978 25.1104 55.0081 25.1548C55.1183 25.1992 55.2185 25.2654 55.3025 25.3494C55.3865 25.4335 55.4527 25.5336 55.4971 25.6439C55.5416 25.7541 55.5633 25.8721 55.5609 25.991V34.58L47.881 42.259L41.7659 44.879C41.605 44.9485 41.4679 45.0635 41.3714 45.2099C41.275 45.3563 41.2234 45.5277 41.2229 45.703V48.391H32.2619V41.137C32.2503 40.431 32.3789 39.7297 32.6402 39.0738C32.9015 38.4179 33.2903 37.8203 33.7842 37.3157C34.2781 36.8112 34.8672 36.4096 35.5174 36.1343C36.1676 35.859 36.8659 35.7155 37.5719 35.712H42.448C42.5544 35.7119 42.6601 35.6929 42.7599 35.6559L46.9249 34.111C47.061 34.0584 47.2063 34.0343 47.352 34.0402C47.4977 34.0462 47.6407 34.082 47.772 34.1454C47.9032 34.2089 48.0201 34.2987 48.1152 34.4092C48.2103 34.5198 48.2817 34.6487 48.325 34.788C48.4044 35.0906 48.3719 35.4118 48.2336 35.6925C48.0953 35.9732 47.8603 36.1946 47.5719 36.316L40.2269 39.111C40.1066 39.1449 39.9947 39.2035 39.8983 39.283C39.8019 39.3626 39.7231 39.4613 39.6669 39.573C39.6108 39.6847 39.5785 39.8068 39.5722 39.9316C39.5659 40.0565 39.5856 40.1813 39.6302 40.298C39.6747 40.4148 39.7431 40.521 39.831 40.6099C39.9188 40.6988 40.0243 40.7684 40.1405 40.8143C40.2568 40.8602 40.3813 40.8814 40.5062 40.8765C40.6311 40.8716 40.7536 40.8408 40.866 40.7859L48.211 37.991C48.8987 37.7229 49.4668 37.216 49.8109 36.563C51.0449 35.363 52.2739 34.114 53.4989 32.89C53.6669 32.7217 53.7615 32.4938 53.7619 32.256V25.9839C53.7596 25.8651 53.7813 25.7471 53.8257 25.6368C53.8702 25.5266 53.9364 25.4264 54.0204 25.3424C54.1044 25.2584 54.2046 25.1922 54.3148 25.1478C54.4251 25.1034 54.5431 25.0817 54.662 25.084L54.6609 25.091ZM32.261 50.179H43.0139V51.9709H32.2589L32.261 50.179Z" />
<path d="M32.2589 0.000976562C30.8342 0.00467222 29.4689 0.572255 28.4615 1.57965C27.4542 2.58705 26.8866 3.95229 26.8829 5.37695V25.089C26.8829 26.0397 26.5052 26.9514 25.833 27.6236C25.1608 28.2958 24.249 28.6735 23.2984 28.6735C22.3477 28.6735 21.436 28.2958 20.7637 27.6236C20.0915 26.9514 19.7139 26.0397 19.7139 25.089C19.6928 24.866 19.5893 24.6588 19.4236 24.5081C19.2579 24.3573 19.0419 24.2737 18.8179 24.2737C18.5938 24.2737 18.3779 24.3573 18.2122 24.5081C18.0465 24.6588 17.943 24.866 17.9219 25.089C17.9411 26.5022 18.5161 27.851 19.5223 28.8436C20.5285 29.8361 21.885 30.3926 23.2984 30.3926C24.7117 30.3926 26.0683 29.8361 27.0745 28.8436C28.0807 27.851 28.6556 26.5022 28.6749 25.089V5.37695C28.6749 4.42628 29.0525 3.51457 29.7247 2.84235C30.397 2.17012 31.3087 1.79248 32.2594 1.79248C33.21 1.79248 34.1218 2.17012 34.794 2.84235C35.4662 3.51457 35.8439 4.42628 35.8439 5.37695C35.865 5.59998 35.9685 5.80712 36.1342 5.95789C36.2999 6.10865 36.5158 6.1922 36.7399 6.1922C36.9639 6.1922 37.1799 6.10865 37.3456 5.95789C37.5112 5.80712 37.6148 5.59998 37.6359 5.37695C37.6322 3.95211 37.0645 2.58671 36.0568 1.57928C35.0492 0.571861 33.6837 0.00440831 32.2589 0.000976562Z" />
<path d="M23.2979 0.000976562C21.8731 0.00440831 20.5075 0.571861 19.4999 1.57928C18.4923 2.58671 17.9246 3.95211 17.9209 5.37695C17.942 5.59998 18.0455 5.80712 18.2112 5.95789C18.3769 6.10865 18.5929 6.1922 18.8169 6.1922C19.0409 6.1922 19.2569 6.10865 19.4226 5.95789C19.5883 5.80712 19.6918 5.59998 19.7129 5.37695C19.7129 4.42628 20.0905 3.51457 20.7628 2.84235C21.435 2.17012 22.3467 1.79248 23.2974 1.79248C24.2481 1.79248 25.1598 2.17012 25.832 2.84235C26.5043 3.51457 26.8829 4.42628 26.8829 5.37695C26.904 5.59998 27.0065 5.80712 27.1722 5.95789C27.3379 6.10865 27.5539 6.1922 27.7779 6.1922C28.0019 6.1922 28.2179 6.10865 28.3836 5.95789C28.5493 5.80712 28.6538 5.59998 28.6749 5.37695C28.6712 3.95229 28.1026 2.58705 27.0952 1.57965C26.0878 0.572255 24.7226 0.00467222 23.2979 0.000976562ZM27.7639 24.179C27.5262 24.1837 27.3001 24.2823 27.1349 24.4531C26.9696 24.624 26.8787 24.8533 26.8819 25.0909C26.9012 26.5042 27.4761 27.853 28.4823 28.8456C29.4885 29.8381 30.845 30.3947 32.2584 30.3947C33.6718 30.3947 35.0283 29.8381 36.0345 28.8456C37.0407 27.853 37.6156 26.5042 37.6349 25.0909C37.6138 24.8679 37.5103 24.6608 37.3446 24.51C37.1789 24.3592 36.9629 24.2758 36.7389 24.2758C36.5149 24.2758 36.2989 24.3592 36.1332 24.51C35.9675 24.6608 35.864 24.8679 35.8429 25.0909C35.8429 26.0416 35.4653 26.9534 34.793 27.6256C34.1208 28.2978 33.2091 28.6755 32.2584 28.6755C31.3077 28.6755 30.396 28.2978 29.7238 27.6256C29.0515 26.9534 28.6739 26.0416 28.6739 25.0909C28.6752 24.9711 28.6526 24.8522 28.6074 24.7411C28.5621 24.6301 28.4951 24.5293 28.4104 24.4445C28.3256 24.3597 28.2247 24.2928 28.1137 24.2475C28.0027 24.2022 27.8838 24.1796 27.7639 24.181V24.179Z" />
<path d="M15.0509 10.871C14.849 10.8779 14.6553 10.9525 14.5009 11.0829C14.3679 11.1919 14.2409 11.3099 14.1189 11.4309C13.4939 12.0562 13.0327 12.8259 12.7762 13.672C12.5197 14.518 12.4758 15.4143 12.6484 16.2814C12.821 17.1484 13.2048 17.9595 13.7657 18.6429C14.3267 19.3262 15.0475 19.8606 15.8644 20.1988C16.6812 20.537 17.5689 20.6686 18.4487 20.5818C19.3285 20.495 20.1733 20.1926 20.9083 19.7013C21.6434 19.21 22.2459 18.545 22.6625 17.7652C23.0792 16.9855 23.2971 16.115 23.2969 15.2309C23.3087 15.1062 23.2943 14.9803 23.2547 14.8614C23.215 14.7425 23.151 14.6332 23.0666 14.5404C22.9823 14.4477 22.8795 14.3737 22.7648 14.323C22.6502 14.2724 22.5263 14.2461 22.4009 14.2461C22.2756 14.2461 22.1516 14.2724 22.037 14.323C21.9224 14.3737 21.8196 14.4477 21.7352 14.5404C21.6509 14.6332 21.5868 14.7425 21.5472 14.8614C21.5075 14.9803 21.4931 15.1062 21.5049 15.2309C21.5048 15.8203 21.3594 16.4005 21.0816 16.9202C20.8038 17.4399 20.402 17.8831 19.912 18.2105C19.422 18.5379 18.8588 18.7394 18.2723 18.7972C17.6858 18.855 17.0941 18.7672 16.5496 18.5417C16.0052 18.3162 15.5247 17.96 15.1508 17.5045C14.7768 17.049 14.521 16.5083 14.4059 15.9303C14.2908 15.3524 14.3201 14.7549 14.491 14.1909C14.6619 13.6269 14.9693 13.1138 15.3859 12.6969C15.4669 12.6159 15.5509 12.5369 15.6399 12.4639C15.784 12.345 15.8875 12.1842 15.9361 12.0039C15.9847 11.8235 15.976 11.6326 15.9111 11.4574C15.8463 11.2822 15.7285 11.1315 15.5742 11.0262C15.4199 10.921 15.2367 10.8664 15.0499 10.8699L15.0509 10.871Z" />
<path d="M15.2189 17.922C14.9825 17.9267 14.7574 18.0243 14.5923 18.1937C14.4273 18.363 14.3355 18.5905 14.3369 18.827V19.721C14.3043 21.1063 14.8212 22.4481 15.7748 23.4535C16.7283 24.4589 18.0409 25.0461 19.4259 25.087C20.106 25.0833 20.7782 24.94 21.4007 24.666C22.0232 24.392 22.5829 23.9931 23.0449 23.494C23.1383 23.4109 23.2134 23.3093 23.2654 23.1956C23.3173 23.0818 23.3451 22.9586 23.3467 22.8336C23.3484 22.7085 23.324 22.5846 23.2752 22.4695C23.2263 22.3545 23.154 22.2508 23.0628 22.1653C22.9717 22.0797 22.8637 22.0141 22.7458 21.9725C22.6279 21.931 22.5026 21.9145 22.3779 21.9241C22.2533 21.9336 22.132 21.9691 22.0218 22.0281C21.9116 22.0872 21.8149 22.1685 21.7379 22.267C21.4446 22.5889 21.0877 22.8464 20.6897 23.0232C20.2917 23.2 19.8614 23.2922 19.4259 23.294C18.9743 23.277 18.5305 23.171 18.12 22.9821C17.7095 22.7931 17.3403 22.525 17.0337 22.193C16.7271 21.861 16.4891 21.4717 16.3333 21.0475C16.1775 20.6233 16.107 20.1725 16.1259 19.721V18.827C16.127 18.7073 16.1042 18.5886 16.0588 18.4778C16.0134 18.367 15.9464 18.2664 15.8616 18.1818C15.7769 18.0973 15.6761 18.0305 15.5652 17.9853C15.4544 17.9402 15.3356 17.9177 15.2159 17.919L15.2189 17.922Z" />
<path d="M19.714 5.37793C18.6507 5.37781 17.6113 5.69302 16.7272 6.28375C15.8431 6.87448 15.1541 7.71414 14.7473 8.69653C14.3405 9.67893 14.2342 10.7599 14.4419 11.8027C14.6496 12.8455 15.1619 13.8033 15.914 14.5549C15.9938 14.6517 16.093 14.7306 16.2051 14.7868C16.3173 14.843 16.4399 14.8751 16.5652 14.881C16.6905 14.887 16.8156 14.8668 16.9326 14.8215C17.0496 14.7763 17.1558 14.7072 17.2445 14.6185C17.3332 14.5298 17.4024 14.4235 17.4476 14.3065C17.4928 14.1895 17.5131 14.0644 17.5071 13.9391C17.5011 13.8139 17.469 13.6912 17.4129 13.579C17.3567 13.4669 17.2777 13.3677 17.181 13.2879C16.8402 12.9569 16.5686 12.5615 16.382 12.1246C16.1954 11.6877 16.0975 11.2181 16.094 10.743C16.0906 10.268 16.1816 9.79699 16.3618 9.35742C16.542 8.91786 16.8077 8.51854 17.1437 8.18262C17.4796 7.84669 17.879 7.58089 18.3185 7.4007C18.7581 7.2205 19.2291 7.12946 19.7041 7.13293C20.1792 7.13641 20.6488 7.2343 21.0857 7.4209C21.5226 7.6075 21.918 7.87911 22.249 8.21991C22.4216 8.36239 22.6412 8.43542 22.8648 8.42474C23.0884 8.41407 23.2999 8.32045 23.4582 8.16217C23.6165 8.00389 23.7101 7.79232 23.7208 7.56873C23.7315 7.34513 23.6585 7.12553 23.516 6.95288C23.0171 6.45355 22.4248 6.05748 21.7727 5.78723C21.1207 5.51698 20.4218 5.3779 19.716 5.37793H19.714Z" />
<path d="M20.5949 11.65C20.3585 11.6547 20.1334 11.7523 19.9684 11.9216C19.8033 12.091 19.7115 12.3185 19.7129 12.5549C19.7171 13.5013 20.0953 14.4077 20.765 15.0764C21.4346 15.7451 22.3415 16.122 23.2879 16.1249H24.1819C24.3067 16.1367 24.4325 16.1224 24.5514 16.0827C24.6703 16.043 24.7796 15.979 24.8723 15.8946C24.965 15.8103 25.0391 15.7075 25.0898 15.5928C25.1405 15.4782 25.1667 15.3543 25.1667 15.2289C25.1667 15.1036 25.1405 14.9796 25.0898 14.865C25.0391 14.7504 24.965 14.6476 24.8723 14.5632C24.7796 14.4789 24.6703 14.4148 24.5514 14.3752C24.4325 14.3355 24.3067 14.3211 24.1819 14.3329H23.2879C23.0536 14.3349 22.8212 14.2903 22.6043 14.2017C22.3874 14.113 22.1903 13.9821 22.0245 13.8165C21.8586 13.651 21.7274 13.4541 21.6384 13.2373C21.5493 13.0205 21.5043 12.7883 21.5059 12.554C21.507 12.4342 21.4841 12.3155 21.4388 12.2047C21.3934 12.0939 21.3264 11.9934 21.2416 11.9088C21.1569 11.8243 21.0561 11.7574 20.9453 11.7123C20.8344 11.6671 20.7156 11.6446 20.5959 11.6459L20.5949 11.65Z" />
<path d="M40.4801 10.87C40.2955 10.8716 40.1158 10.93 39.9655 11.0372C39.8152 11.1444 39.7015 11.2953 39.6398 11.4693C39.5781 11.6433 39.5715 11.8321 39.6207 12.01C39.67 12.1879 39.7727 12.3464 39.9151 12.464C40.0041 12.537 40.0891 12.616 40.1701 12.697C40.6717 13.1981 41.0134 13.8367 41.1519 14.532C41.2905 15.2273 41.2196 15.9481 40.9483 16.6031C40.677 17.2581 40.2175 17.8179 39.6279 18.2117C39.0383 18.6054 38.3451 18.8154 37.6361 18.815C37.5113 18.8032 37.3855 18.8176 37.2666 18.8572C37.1477 18.8969 37.0384 18.9609 36.9457 19.0453C36.853 19.1296 36.7789 19.2325 36.7282 19.3471C36.6775 19.4617 36.6514 19.5857 36.6514 19.711C36.6514 19.8363 36.6775 19.9603 36.7282 20.075C36.7789 20.1896 36.853 20.2924 36.9457 20.3767C37.0384 20.4611 37.1477 20.5251 37.2666 20.5648C37.3855 20.6044 37.5113 20.6188 37.6361 20.607C38.6994 20.6066 39.7387 20.2909 40.6226 19.6999C41.5065 19.1089 42.1953 18.2692 42.602 17.2867C43.0087 16.3043 43.115 15.2234 42.9075 14.1806C42.7 13.1378 42.1879 12.1798 41.4361 11.428C41.3148 11.3066 41.1875 11.191 41.0541 11.081C40.8933 10.9458 40.6902 10.8712 40.4801 10.87Z" />
<path d="M40.31 17.923C40.0744 17.9277 39.8501 18.0246 39.6852 18.1929C39.5203 18.3611 39.4279 18.5873 39.4279 18.8229V19.717C39.4468 20.1685 39.3764 20.6192 39.2206 21.0435C39.0648 21.4677 38.8268 21.857 38.5201 22.189C38.2135 22.5209 37.8444 22.7891 37.4339 22.978C37.0233 23.167 36.5796 23.273 36.128 23.29C35.6925 23.2881 35.2621 23.1959 34.8642 23.0191C34.4662 22.8423 34.1093 22.5848 33.8159 22.2629C33.6481 22.1136 33.4304 22.0325 33.2057 22.0356C32.9811 22.0386 32.7657 22.1256 32.6019 22.2794C32.4381 22.4331 32.3377 22.6426 32.3205 22.8666C32.3033 23.0907 32.3705 23.3129 32.509 23.4899C32.971 23.989 33.5306 24.388 34.1531 24.662C34.7757 24.9361 35.4478 25.0793 36.128 25.0829C37.513 25.0421 38.8256 24.4549 39.7791 23.4495C40.7326 22.4441 41.2495 21.1022 41.217 19.717V18.8229C41.218 18.7032 41.1952 18.5845 41.1498 18.4737C41.1044 18.363 41.0374 18.2623 40.9527 18.1778C40.8679 18.0932 40.7672 18.0265 40.6563 17.9813C40.5454 17.9362 40.4267 17.9136 40.307 17.915L40.31 17.923Z" />
<path d="M35.8478 5.37793C35.1421 5.37752 34.4433 5.51622 33.7913 5.78613C33.1392 6.05604 32.5468 6.45187 32.0479 6.95093C31.9511 7.03076 31.8721 7.12992 31.816 7.24207C31.7598 7.35421 31.7277 7.47683 31.7217 7.60211C31.7157 7.72739 31.736 7.85256 31.7812 7.96954C31.8265 8.08653 31.8956 8.19275 31.9843 8.28143C32.073 8.37012 32.1792 8.43928 32.2962 8.4845C32.4132 8.52972 32.5384 8.54999 32.6636 8.54401C32.7889 8.53802 32.9116 8.50593 33.0237 8.44977C33.1358 8.39361 33.235 8.31463 33.3149 8.2179C33.6478 7.88513 34.0429 7.62121 34.4778 7.44116C34.9128 7.26112 35.3788 7.16849 35.8496 7.16858C36.3203 7.16867 36.7863 7.2615 37.2212 7.44171C37.656 7.62193 38.0511 7.88603 38.3839 8.21893C38.7166 8.55184 38.9806 8.94699 39.1606 9.3819C39.3406 9.8168 39.4333 10.2829 39.4332 10.7536C39.4331 11.2243 39.3403 11.6904 39.1601 12.1252C38.9799 12.5601 38.7157 12.9551 38.3828 13.2879C38.2861 13.3677 38.2071 13.4669 38.151 13.579C38.0948 13.6912 38.0627 13.8139 38.0567 13.9391C38.0508 14.0644 38.071 14.1895 38.1162 14.3065C38.1614 14.4235 38.2306 14.5298 38.3193 14.6185C38.408 14.7072 38.5142 14.7763 38.6312 14.8215C38.7482 14.8668 38.8734 14.887 38.9986 14.881C39.1239 14.8751 39.2466 14.843 39.3587 14.7868C39.4709 14.7306 39.57 14.6517 39.6498 14.5549C40.402 13.8033 40.9143 12.8455 41.1219 11.8027C41.3296 10.7599 41.2233 9.67893 40.8165 8.69653C40.4098 7.71414 39.7207 6.87448 38.8366 6.28375C37.9526 5.69302 36.9131 5.37781 35.8498 5.37793H35.8478Z" />
<path d="M36.7151 8.96195C36.4778 8.96616 36.2518 9.06393 36.0862 9.23398C35.9206 9.40404 35.8289 9.63264 35.8311 9.86997C35.905 10.7355 35.6355 11.5953 35.0807 12.2636C34.5259 12.932 33.7304 13.3553 32.8661 13.4419C32.4809 13.4416 32.1011 13.3523 31.7561 13.1809C31.6492 13.1156 31.5298 13.0733 31.4056 13.0567C31.2814 13.0402 31.1551 13.0498 31.0348 13.0849C30.9145 13.12 30.8028 13.1798 30.707 13.2605C30.6111 13.3412 30.5332 13.441 30.4782 13.5536C30.4231 13.6662 30.3922 13.789 30.3874 13.9142C30.3826 14.0394 30.4039 14.1643 30.4502 14.2808C30.4964 14.3973 30.5664 14.5028 30.6558 14.5907C30.7451 14.6785 30.8518 14.7467 30.9691 14.7909C31.5603 15.0817 32.2102 15.2333 32.8691 15.2339C35.5621 15.2339 37.6261 12.756 37.6261 9.86997C37.6272 9.75043 37.6044 9.63186 37.5592 9.52122C37.5139 9.41057 37.4471 9.31003 37.3625 9.2255C37.278 9.14097 37.1775 9.07416 37.0668 9.02891C36.9562 8.98365 36.8376 8.96088 36.7181 8.96195H36.7151Z" />
<path d="M27.779 7.16996C27.5417 7.17417 27.3157 7.27193 27.1502 7.44199C26.9846 7.61205 26.8929 7.84059 26.8951 8.07792C26.8995 9.02449 27.2779 9.93096 27.9477 10.5998C28.6175 11.2687 29.5245 11.6458 30.471 11.649H31.3641C31.4888 11.6608 31.6147 11.6464 31.7336 11.6067C31.8525 11.5671 31.9618 11.503 32.0545 11.4186C32.1472 11.3343 32.2213 11.2315 32.2719 11.1169C32.3226 11.0022 32.3488 10.8783 32.3488 10.753C32.3488 10.6276 32.3226 10.5036 32.2719 10.389C32.2213 10.2744 32.1472 10.1716 32.0545 10.0873C31.9618 10.0029 31.8525 9.93887 31.7336 9.89921C31.6147 9.85955 31.4888 9.84517 31.3641 9.85697H30.471C30.2367 9.85896 30.0043 9.81433 29.7873 9.72568C29.5703 9.63704 29.3732 9.50609 29.2073 9.34055C29.0413 9.17501 28.91 8.97815 28.8209 8.76139C28.7317 8.54463 28.6866 8.31229 28.6881 8.07792C28.6891 7.95838 28.6664 7.83987 28.6211 7.72922C28.5758 7.61858 28.509 7.51804 28.4245 7.43351C28.3399 7.34898 28.2394 7.28217 28.1288 7.23691C28.0181 7.19166 27.8996 7.16889 27.7801 7.16996H27.779Z" />
<path d="M33.1511 13.442C32.9141 13.4467 32.6886 13.5447 32.5235 13.7147C32.3583 13.8847 32.2669 14.113 32.2691 14.35C32.273 15.2965 32.6509 16.203 33.3204 16.8721C33.9898 17.5411 34.8966 17.9185 35.8431 17.9219C35.9679 17.9337 36.0937 17.9194 36.2126 17.8797C36.3315 17.84 36.4408 17.776 36.5335 17.6916C36.6262 17.6073 36.7003 17.5045 36.751 17.3899C36.8017 17.2753 36.8278 17.1513 36.8278 17.0259C36.8278 16.9006 36.8017 16.7767 36.751 16.662C36.7003 16.5474 36.6262 16.4446 36.5335 16.3603C36.4408 16.2759 36.3315 16.2118 36.2126 16.1722C36.0937 16.1325 35.9679 16.1181 35.8431 16.1299C35.6087 16.1319 35.3762 16.0873 35.1592 15.9985C34.9423 15.9098 34.7451 15.7788 34.5793 15.6132C34.4134 15.4475 34.2822 15.2505 34.1932 15.0336C34.1043 14.8168 34.0594 14.5844 34.0611 14.35C34.0622 14.2303 34.0393 14.1115 33.9939 14.0007C33.9486 13.8899 33.8816 13.7893 33.7968 13.7048C33.7121 13.6202 33.6113 13.5534 33.5004 13.5083C33.3896 13.4632 33.2708 13.4406 33.1511 13.442Z" />
<path d="M30.471 17.86C29.5244 17.8626 28.6173 18.2394 27.9474 18.9081C27.2775 19.5769 26.8992 20.4834 26.895 21.43C26.9161 21.653 27.0196 21.8601 27.1853 22.0109C27.351 22.1617 27.567 22.2452 27.791 22.2452C28.015 22.2452 28.231 22.1617 28.3967 22.0109C28.5624 21.8601 28.6659 21.653 28.687 21.43C28.6855 21.1956 28.7307 20.9633 28.8198 20.7466C28.909 20.5299 29.0403 20.3331 29.2063 20.1676C29.3722 20.0022 29.5694 19.8714 29.7863 19.7829C30.0033 19.6943 30.2357 19.6498 30.47 19.652H31.362C31.4868 19.6638 31.6127 19.6494 31.7316 19.6097C31.8504 19.5701 31.9598 19.506 32.0525 19.4216C32.1452 19.3373 32.2192 19.2345 32.2699 19.1198C32.3206 19.0052 32.3468 18.8813 32.3468 18.756C32.3468 18.6306 32.3206 18.5066 32.2699 18.392C32.2192 18.2774 32.1452 18.1746 32.0525 18.0902C31.9598 18.0059 31.8504 17.9419 31.7316 17.9022C31.6127 17.8625 31.4868 17.8482 31.362 17.86H30.471Z" />
</g>
<defs>
<clipPath id="clip0_105_11">
<rect width="58" height="54"/>
</clipPath>
</defs>
</svg>
