<svg viewBox="0 0 50 50" xmlns="http://www.w3.org/2000/svg">
<path d="M24.5381 49.9968C23.4601 49.9744 22.4243 49.8894 21.3916 49.7384C19.4549 49.4554 17.5756 48.9516 15.7536 48.2272C14.6833 47.8017 13.6163 47.2884 12.6229 46.7213C11.6769 46.1811 10.8002 45.6039 9.93865 44.9539C7.94671 43.4511 6.18279 41.6485 4.72357 39.6245C3.39522 37.7821 2.32464 35.7693 1.54007 33.6393C1.37575 33.1932 1.19416 32.6496 1.0579 32.1959C0.0839565 28.9532 -0.22186 25.5509 0.158544 22.1902C0.402873 20.0317 0.921277 17.9373 1.71643 15.8962C2.06358 15.0051 2.50136 14.0563 2.96381 13.1927C3.80805 11.6162 4.83061 10.1202 5.99591 8.75677C7.68038 6.78585 9.66741 5.08436 11.8739 3.72348C13.2095 2.89968 14.6177 2.20418 16.0833 1.64448C19.2527 0.434095 22.653 -0.120066 26.0406 0.0217019C29.2043 0.154095 32.3004 0.881641 35.1929 2.17235C35.5382 2.32643 35.9978 2.54479 36.2705 2.68426C36.4933 2.79819 36.5633 2.83441 36.6753 2.89354C38.378 3.79289 39.9769 4.89002 41.4252 6.15269C43.6089 8.05657 45.4413 10.3192 46.8489 12.8496C47.1471 13.3857 47.4655 14.0142 47.7213 14.5719C48.6867 16.6763 49.3532 18.8954 49.7069 21.1833C49.9775 22.9335 50.0612 24.7123 49.956 26.4804C49.7318 30.2501 48.6605 33.9115 46.8174 37.2069C45.9362 38.7825 44.881 40.2654 43.6815 41.6136C42.6872 42.7312 41.5817 43.7701 40.4182 44.6799C38.8284 45.9232 37.1337 46.9497 35.3005 47.7797C33.6982 48.5051 31.9993 49.0658 30.2815 49.436C28.8352 49.7476 27.3952 49.9285 25.924 49.9832C25.5369 49.9976 24.8853 50.004 24.5381 49.9968ZM22.3672 47.8997C22.3672 47.897 22.3758 47.9074 21.7504 47.1598C20.5845 45.7661 20.6285 45.8191 20.4245 45.5653C18.7947 43.5376 17.4019 41.3003 16.2974 38.936C15.6255 37.4975 15.0645 36.027 14.6069 34.5046C14.5725 34.3898 14.5029 34.1507 14.4524 33.973C14.402 33.7954 14.3453 33.5961 14.3265 33.5301L14.2924 33.4101H8.96405C4.70308 33.4101 3.63616 33.4113 3.63805 33.4158C3.64907 33.4418 4.25309 34.748 4.29401 34.8342C4.42523 35.1108 4.6527 35.5581 4.81516 35.8591C5.65882 37.422 6.68644 38.8893 7.86697 40.2166C8.33211 40.7395 8.84911 41.2692 9.36437 41.7506C9.81413 42.1709 10.3194 42.6048 10.8041 42.987C12.2822 44.1526 13.877 45.1224 15.5877 45.896C16.719 46.4076 17.9029 46.8306 19.1041 47.1524C19.4385 47.2419 19.7156 47.3096 20.0954 47.3946C20.3363 47.4485 20.3949 47.4617 21.423 47.6915C21.8103 47.7781 22.1787 47.8606 22.2416 47.875C22.3626 47.9026 22.3672 47.9035 22.3672 47.8997ZM27.9648 47.8302C28.1313 47.793 28.3614 47.7416 28.4762 47.716C28.5909 47.6903 29.0099 47.5966 29.4074 47.5078C30.2493 47.3195 30.4437 47.2733 30.869 47.1598C34.2842 46.2483 37.444 44.5625 40.0998 42.2352C40.7392 41.6748 41.38 41.0463 41.9478 40.4228C43.2235 39.0216 44.3186 37.4734 45.214 35.8053C45.3582 35.5367 45.5878 35.0837 45.7061 34.8342C45.747 34.7479 46.3511 33.4417 46.3621 33.4158C46.364 33.4113 45.2969 33.4101 41.0354 33.4101C38.1045 33.4101 35.7064 33.4125 35.7064 33.4125C35.7064 33.4179 35.4696 34.2481 35.4301 34.3812C34.7085 36.812 33.7152 39.1368 32.4578 41.3379C31.6042 42.832 30.6263 44.2674 29.5489 45.6076C29.3701 45.8301 29.3657 45.8353 28.4767 46.9012C28.0213 47.4472 27.6479 47.896 27.647 47.8985C27.646 47.9011 27.649 47.9019 27.6537 47.9005C27.6583 47.899 27.7983 47.8674 27.9648 47.8302ZM25.1346 47.0832C25.2808 47.0626 25.4216 47.0068 25.5504 46.9183C25.6099 46.8775 25.6211 46.8669 25.8366 46.65C27.3224 45.1539 28.684 43.4543 29.8442 41.6474C31.1997 39.5364 32.3002 37.2462 33.0989 34.8746C33.1447 34.7388 33.5635 33.4454 33.5698 33.4202L33.5724 33.4101H25.0005C20.286 33.4101 16.4287 33.4128 16.4287 33.4128C16.4287 33.4199 16.8451 34.7077 16.9057 34.888C17.6892 37.2199 18.7741 39.4866 20.1097 41.5823C21.2572 43.383 22.6279 45.1049 24.1032 46.5991C24.1909 46.6879 24.2865 46.7852 24.3156 46.8153C24.3601 46.8613 24.3801 46.8778 24.441 46.9187C24.5695 47.0049 24.6762 47.0496 24.8188 47.0767C24.917 47.0954 25.0315 47.0978 25.1346 47.0832ZM13.8138 31.3362C13.8138 31.3362 13.7715 31.0763 13.7198 30.7609C13.6193 30.1475 13.5983 30.0147 13.56 29.7479C13.3623 28.3733 13.2549 27.0514 13.2257 25.6353C13.2198 25.3485 13.2228 24.3681 13.2302 24.1323C13.2662 22.9941 13.3297 22.1137 13.4485 21.1048C13.5192 20.5044 13.573 20.1351 13.7238 19.2153C13.7733 18.9136 13.8138 18.6647 13.8138 18.6647C13.8138 18.6647 11.3702 18.663 8.38358 18.6636L2.9534 18.6648L2.88671 18.9227C2.78769 19.3056 2.71216 19.6047 2.67945 19.7435C2.36064 21.0958 2.16743 22.4603 2.0983 23.8475C2.07788 24.2574 2.07359 24.4576 2.07359 25.0002C2.07359 25.5059 2.07603 25.6418 2.09168 26.0072C2.15484 27.4825 2.36224 28.9498 2.71106 30.3893C2.73966 30.5073 2.94673 31.3157 2.95261 31.3323C2.9542 31.3368 4.04456 31.3379 8.38418 31.3379C11.3704 31.3379 13.8138 31.3362 13.8138 31.3362ZM34.0693 31.3336C34.0693 31.3312 34.1025 31.1491 34.1431 30.9288C34.244 30.381 34.2631 30.2729 34.3067 30.0035C34.6389 27.9504 34.7657 25.8972 34.6881 23.8251C34.6421 22.5959 34.5214 21.3552 34.3291 20.1359C34.2773 19.8077 34.2475 19.6364 34.1455 19.0834C34.1036 18.8559 34.0693 18.6661 34.0693 18.6661C34.0693 18.6661 29.9883 18.6625 25.0004 18.6625C16.3671 18.6625 15.9313 18.6629 15.9291 18.6704C15.9247 18.6853 15.7652 19.5577 15.7382 19.7143C15.5095 21.0425 15.3656 22.4103 15.3119 23.7668C15.2929 24.2477 15.288 24.5712 15.2908 25.1639C15.2931 25.6538 15.2951 25.7694 15.3074 26.1126C15.3588 27.5459 15.5144 29.0258 15.7585 30.4028C15.7782 30.5139 15.9253 31.314 15.9286 31.3279L15.931 31.3379H25.0001C30.8091 31.3379 34.0693 31.3364 34.0693 31.3336ZM47.1088 31.0935C47.3417 30.1875 47.4367 29.7694 47.5496 29.1536C47.822 27.6673 47.9496 26.1429 47.9251 24.6672C47.9198 24.3491 47.9171 24.2519 47.9064 24.0045C47.8559 22.8291 47.7143 21.6581 47.4827 20.4992C47.38 19.9855 47.3114 19.6936 47.1045 18.889L47.0469 18.6648L41.6167 18.6636L36.1866 18.6625L36.1889 18.6748C36.1975 18.722 36.3708 19.7858 36.3903 19.9117C36.7137 21.9988 36.8363 24.1072 36.7582 26.2404C36.7102 27.5513 36.5746 28.9408 36.3702 30.2166C36.3427 30.388 36.1912 31.3118 36.1883 31.3256L36.1856 31.3379L41.6161 31.3368L47.0466 31.3357L47.1088 31.0935ZM14.4117 16.1698C14.6742 15.248 14.8707 14.6306 15.1428 13.8722C16.3769 10.4334 18.1854 7.21289 20.4812 4.36567C20.659 4.14515 20.5823 4.23737 21.9135 2.64344C22.1627 2.345 22.3656 2.09972 22.3656 2.09972C22.3656 2.09972 22.1657 2.14301 21.9229 2.19729C21.2995 2.33663 20.8047 2.44725 20.3062 2.5587C19.8381 2.66335 19.6948 2.69676 19.4518 2.7578C16.7297 3.44161 14.1502 4.62153 11.8492 6.2354C10.9788 6.8459 10.1337 7.53097 9.36437 8.24984C9.00026 8.59005 8.57406 9.01618 8.24265 9.37137C6.89351 10.8173 5.73455 12.4322 4.80166 14.166C4.64818 14.4513 4.41902 14.9028 4.294 15.1662C4.25298 15.2527 3.64888 16.559 3.63805 16.5847C3.63615 16.5892 4.70304 16.5903 8.96382 16.5903H14.292L14.4117 16.1698ZM33.5702 16.5847C33.569 16.5816 33.4809 16.3066 33.3743 15.9736C33.1596 15.3024 33.1338 15.223 33.051 14.9801C32.2888 12.7444 31.2702 10.6033 30.0109 8.58993C28.8398 6.71749 27.4487 4.94891 25.9173 3.38564C25.8556 3.32268 25.7668 3.23177 25.7199 3.18361C25.6731 3.13545 25.6176 3.08172 25.5966 3.0642C25.5307 3.00912 25.45 2.96012 25.3671 2.92474C25.2788 2.88709 25.2124 2.86847 25.1322 2.85888C25.0073 2.84395 24.9102 2.85346 24.7779 2.89361C24.6496 2.9325 24.5489 2.98837 24.435 3.08384C24.3186 3.18127 23.7943 3.71991 23.4165 4.1302C21.1058 6.63914 19.2336 9.50414 17.8694 12.6189C17.6497 13.1206 17.3994 13.7377 17.2292 14.1974C17.008 14.795 16.9365 15.0046 16.6414 15.9198C16.5316 16.2602 16.438 16.5503 16.4333 16.5645L16.4248 16.5903H24.9986C31.8808 16.5903 33.572 16.5892 33.5702 16.5847ZM46.3528 16.5668C46.3115 16.4742 45.7419 15.243 45.6924 15.1393C44.9953 13.6786 44.1082 12.2425 43.11 10.959C42.5215 10.2024 41.9385 9.53966 41.266 8.86284C40.7233 8.31655 40.2274 7.86182 39.6557 7.38613C38.1348 6.12051 36.4682 5.06271 34.6726 4.22333C33.3674 3.6132 31.9973 3.12439 30.5954 2.76873C30.3328 2.7021 30.1636 2.66241 29.7163 2.56254C29.3663 2.48437 29.0975 2.4243 28.3304 2.25282C28.2144 2.2269 28.0109 2.18136 27.8781 2.15162C27.7454 2.12188 27.6343 2.09998 27.6343 2.09998C27.6343 2.09998 27.662 2.13833 27.6988 2.18224C27.7356 2.22615 27.9 2.42254 28.064 2.61866C28.228 2.81477 28.5741 3.22854 28.833 3.53814C29.446 4.27092 29.5708 4.42367 29.8721 4.8105C31.6137 7.04595 33.0534 9.49086 34.1635 12.0983C34.621 13.1727 35.0271 14.2903 35.365 15.4045C35.434 15.6322 35.4693 15.7534 35.5859 16.1642C35.645 16.3727 35.6965 16.5538 35.7002 16.5668L35.7071 16.5903H41.0352H46.3634L46.3528 16.5668Z" />
</svg>
