<svg id="Capa_1" enable-background="new 0 0 512 512" viewBox="0 0 512 512" xmlns="http://www.w3.org/2000/svg"><g><path  d="m467 0h-422c-24.813 0-45 20.187-45 45v422c0 24.813 20.187 45 45 45h422c24.813 0 45-20.187 45-45v-422c0-24.813-20.187-45-45-45zm15 45v196h-211v-211h196c8.271 0 15 6.729 15 15zm-437-15h196v211h-211v-196c0-8.271 6.729-15 15-15zm-15 437v-196h211v211h-196c-8.271 0-15-6.729-15-15zm437 15h-196v-211h211v196c0 8.271-6.729 15-15 15z"/><path  d="m91 151h30v30c0 8.284 6.716 15 15 15s15-6.716 15-15v-30h30c8.284 0 15-6.716 15-15s-6.716-15-15-15h-30v-30c0-8.284-6.716-15-15-15s-15 6.716-15 15v30h-30c-8.284 0-15 6.716-15 15s6.716 15 15 15z"/><path  d="m157.213 376 21.213-21.213c5.858-5.858 5.858-15.355 0-21.213-5.857-5.857-15.355-5.857-21.213 0l-21.213 21.213-21.213-21.213c-5.857-5.857-15.355-5.857-21.213 0-5.858 5.858-5.858 15.355 0 21.213l21.213 21.213-21.213 21.213c-5.858 5.858-5.858 15.355 0 21.213s15.355 5.858 21.213 0l21.213-21.213 21.213 21.213c5.858 5.858 15.355 5.858 21.213 0s5.858-15.355 0-21.213z"/><path  d="m421 331h-90c-8.284 0-15 6.716-15 15s6.716 15 15 15h90c8.284 0 15-6.716 15-15s-6.716-15-15-15z"/><path  d="m421 391h-90c-8.284 0-15 6.716-15 15s6.716 15 15 15h90c8.284 0 15-6.716 15-15s-6.716-15-15-15z"/><path d="m331 151h90c8.284 0 15-6.716 15-15s-6.716-15-15-15h-90c-8.284 0-15 6.716-15 15s6.716 15 15 15z"/></g></svg>