<svg viewBox="0 0 48 48" xmlns="http://www.w3.org/2000/svg">
<path d="M42.08 25.48C42.08 25.48 41.4901 26.06 40.59 26.83C50.5201 36.91 46.07 41.5 32.32 36.83C32.9068 34.5109 33.318 32.1509 33.55 29.77C37.55 26.96 42.34 22.69 42.83 21.77C43.5 22.0067 44.2323 21.9979 44.8964 21.7452C45.5605 21.4925 46.1134 21.0123 46.4565 20.3901C46.7997 19.7678 46.9108 19.044 46.7701 18.3475C46.6295 17.651 46.2461 17.027 45.6884 16.5867C45.1307 16.1464 44.4348 15.9184 43.7247 15.9432C43.0145 15.968 42.3363 16.2441 41.8107 16.7223C41.2851 17.2004 40.9462 17.8497 40.8546 18.5543C40.7629 19.2589 40.9243 19.9732 41.3101 20.57C40.8501 20.98 40.62 21.34 39.16 22.68C35.1934 19.2393 30.8489 16.2602 26.21 13.8C27.5 13.18 29.01 12.52 30.47 11.98C31.24 15.13 30.33 13.68 33.24 15.7C30.88 -0.77002 21.64 -5.52002 16.54 7.42998C17.16 7.63998 17.8 7.84998 18.44 8.08998C22.09 -1.16002 26.98 0.70998 29.98 10.09C27.9359 10.8548 25.9332 11.726 23.98 12.7C1.85005 1.54998 -7.78995 9.99998 7.30005 24.08C6.84005 24.52 5.40005 25.94 5.14005 26.31C4.50126 25.9981 3.77248 25.9232 3.08361 26.0986C2.39474 26.274 1.79054 26.6884 1.37869 27.2677C0.966848 27.8471 0.774121 28.5539 0.834863 29.2622C0.895605 29.9705 1.20587 30.6341 1.71035 31.1349C2.21484 31.6357 2.88077 31.9411 3.58945 31.9967C4.29813 32.0522 5.00351 31.8543 5.57986 31.4382C6.15622 31.0222 6.56611 30.4149 6.73647 29.7248C6.90682 29.0347 6.82658 28.3065 6.51005 27.67C6.56573 27.6332 6.61916 27.5931 6.67005 27.55C7.31005 26.86 8.04005 26.14 8.79005 25.43C11.12 27.5 11.98 27.92 11.98 28C11.91 26.88 11.9 26.78 11.87 25.37C11.72 25.22 11.36 24.98 10.31 24.06C3.33005 18.2 -2.46995 9.54998 6.74005 9.54998C9.66833 9.6747 12.561 10.2411 15.32 11.23C14.9238 12.8019 14.6133 14.3943 14.39 16C17.39 14 16.39 15.43 17.22 11.95C22.3022 13.9081 27.1437 16.4413 31.65 19.5C31.8284 21.7119 31.8752 23.9325 31.79 26.15C32.49 25.65 33.1701 25.15 33.7901 24.64C33.7901 23.85 33.7901 21.87 33.7201 20.98C34.8601 21.78 36.1201 22.78 37.6301 24.08C33.4506 27.6522 28.8698 30.7262 23.98 33.24C21.2183 31.8188 18.5466 30.2291 15.98 28.48C15.7548 25.561 15.7548 22.629 15.98 19.71C17.63 18.56 19.89 17.17 21.82 16.09C20.7701 15.6 20.5 15.45 19.62 15.09C16.355 16.9654 13.2451 19.0989 10.32 21.47C11.32 22.4 11.32 22.38 11.83 22.82C11.93 22.82 11.83 22.72 13.89 21.23C13.6507 25.8437 13.9866 30.4693 14.89 35C15.52 34.79 16.15 34.56 16.8 34.31C16.66 33.5 16.49 32.8 16.2701 31.1C18.2101 32.37 20.43 33.66 21.76 34.36C13.2801 38.38 -0.559951 41.74 2.40005 33.79C1.74988 33.6011 1.14678 33.2774 0.630049 32.84C-1.11995 37.2 0.770049 40.62 6.76005 40.62C9.8861 40.5034 12.9756 39.9064 15.92 38.85C19.75 50.85 27.8001 51.24 31.7701 38.76C47.44 44.15 53.41 37.15 42.08 25.48ZM17.82 38.19C19.9199 37.3964 21.9762 36.4918 23.98 35.48C25.18 36.08 26.7701 36.82 27.98 37.34C28.15 36.83 28.3 36.29 28.46 35.67C28.62 35.05 28.88 35.67 26.16 34.33C27.87 33.42 29.88 32.22 31.33 31.27C29.46 45.6 22.29 52.22 17.82 38.19Z"/>
<path d="M34.3103 10.7299C40.3103 8.97992 47.7103 8.43992 45.5803 14.3199C46.2214 14.5585 46.8068 14.926 47.3003 15.3999C48.8003 11.7199 47.7003 8.77992 44.0203 7.85992C41.5303 7.22992 37.9203 7.59992 33.7603 8.85992C34.4503 10.9399 34.2103 10.7299 34.3103 10.7299Z" />
</svg>
