<svg viewBox="0 0 30 21" xmlns="http://www.w3.org/2000/svg">
<path d="M1.87696 8.92013C1.65946 8.87717 1.43477 8.88841 1.22266 8.9529C1.01055 9.0174 0.817535 9.13317 0.660769 9.28994C0.504003 9.44671 0.388293 9.63966 0.323794 9.85177C0.259295 10.0639 0.247999 10.2886 0.290957 10.5061C0.34316 10.7673 0.471468 11.0073 0.659732 11.1957C0.847995 11.3841 1.08785 11.5126 1.349 11.5651C1.56663 11.608 1.79144 11.5967 2.00366 11.5322C2.21589 11.4676 2.409 11.3518 2.56586 11.195C2.72272 11.0381 2.83853 10.8451 2.90308 10.6328C2.96763 10.4206 2.97892 10.1957 2.93598 9.97811C2.8834 9.71701 2.75483 9.47727 2.56641 9.28903C2.37799 9.10078 2.13811 8.97245 1.87696 8.92013Z" />
<path d="M6.31085 8.92034C6.09328 8.87719 5.86844 8.88827 5.65619 8.95269C5.44394 9.0171 5.25082 9.13281 5.09393 9.2896C4.93704 9.44639 4.8212 9.63946 4.75665 9.85167C4.69211 10.0639 4.68086 10.2887 4.72388 10.5063C4.7761 10.7678 4.90451 11.008 5.09296 11.1966C5.2814 11.3852 5.52142 11.5139 5.78284 11.5663C6.00051 11.6095 6.22552 11.5984 6.43787 11.5339C6.65021 11.4695 6.84339 11.3537 7.00031 11.1968C7.15722 11.0398 7.273 10.8466 7.33746 10.6343C7.40193 10.4219 7.41308 10.197 7.36987 9.9793C7.31772 9.7179 7.18933 9.47783 7.00085 9.28936C6.81238 9.10088 6.57225 8.97249 6.31085 8.92034Z" />
<path d="M29.0131 9.4754L19.8341 0.296387C19.7406 0.202745 19.6295 0.128444 19.5073 0.0777588C19.385 0.0270738 19.2539 0.000976563 19.1216 0.000976562C18.9892 0.000976563 18.8582 0.0270738 18.736 0.0777588C18.6137 0.128444 18.5026 0.202745 18.4091 0.296387C18.2202 0.485402 18.1141 0.741702 18.1141 1.00891C18.1141 1.27612 18.2202 1.53236 18.4091 1.72137L25.7221 9.03442H10.0891C9.75529 9.03469 9.43521 9.16739 9.19916 9.40344C8.96311 9.63949 8.83034 9.95957 8.83008 10.2934C8.83008 10.6273 8.96274 10.9475 9.19885 11.1837C9.43496 11.4198 9.7552 11.5524 10.0891 11.5524H25.7211L18.4091 18.8664C18.2202 19.0554 18.1141 19.3117 18.1141 19.5789C18.1141 19.8461 18.2202 20.1024 18.4091 20.2914C18.5981 20.4803 18.8544 20.5864 19.1216 20.5864C19.3888 20.5864 19.6451 20.4803 19.8341 20.2914L29.0131 11.1114C29.1206 11.004 29.2059 10.8765 29.2641 10.7361C29.3223 10.5958 29.3522 10.4453 29.3522 10.2934C29.3522 10.1414 29.3223 9.99101 29.2641 9.85065C29.2059 9.71029 29.1206 9.58277 29.0131 9.4754Z" />
</svg>
