<svg width="30" height="21" viewBox="0 0 30 21" fill="none" xmlns="http://www.w3.org/2000/svg">
<path d="M27.4747 8.91915C27.6922 8.87619 27.917 8.88743 28.1291 8.95193C28.3412 9.01643 28.5341 9.1322 28.6909 9.28896C28.8477 9.44573 28.9634 9.63868 29.0279 9.85079C29.0924 10.0629 29.1037 10.2877 29.0607 10.5052C29.0085 10.7664 28.8802 11.0063 28.6919 11.1947C28.5037 11.3832 28.2639 11.5117 28.0027 11.5641C27.7851 11.6071 27.5602 11.5958 27.348 11.5312C27.1358 11.4667 26.9427 11.3508 26.7859 11.194C26.629 11.0371 26.5132 10.8441 26.4486 10.6319C26.384 10.4196 26.3728 10.1948 26.4157 9.97714C26.4683 9.71603 26.5968 9.47629 26.7853 9.28805C26.9737 9.09981 27.2136 8.97148 27.4747 8.91915Z" fill="#BEBEBE"/>
<path d="M23.0397 8.91936C23.2572 8.87621 23.4821 8.88729 23.6943 8.95171C23.9066 9.01612 24.0997 9.13183 24.2566 9.28862C24.4135 9.44542 24.5293 9.63849 24.5939 9.8507C24.6584 10.0629 24.6697 10.2878 24.6267 10.5054C24.5744 10.7668 24.446 11.007 24.2576 11.1956C24.0691 11.3842 23.8291 11.5129 23.5677 11.5654C23.35 11.6086 23.125 11.5974 22.9127 11.5329C22.7003 11.4685 22.5071 11.3527 22.3502 11.1958C22.1933 11.0389 22.0775 10.8456 22.0131 10.6333C21.9486 10.4209 21.9375 10.196 21.9807 9.97832C22.0328 9.71693 22.1613 9.47685 22.3497 9.28838C22.5382 9.0999 22.7783 8.97151 23.0397 8.91936Z" fill="#BEBEBE"/>
<path d="M0.338623 9.47443L9.51764 0.29541C9.61116 0.201769 9.72223 0.127467 9.84448 0.0767822C9.96674 0.0260973 10.0978 0 10.2302 0C10.3625 0 10.4935 0.0260973 10.6158 0.0767822C10.738 0.127467 10.8491 0.201769 10.9426 0.29541C11.1315 0.484425 11.2376 0.740726 11.2376 1.00793C11.2376 1.27514 11.1315 1.53138 10.9426 1.7204L3.62964 9.03345H19.2626C19.5965 9.03371 19.9165 9.16642 20.1526 9.40247C20.3886 9.63852 20.5214 9.95859 20.5217 10.2924C20.5217 10.6263 20.389 10.9466 20.1529 11.1827C19.9168 11.4188 19.5965 11.5514 19.2626 11.5514H3.63068L10.9426 18.8644C11.1315 19.0535 11.2376 19.3097 11.2376 19.5769C11.2376 19.8441 11.1315 20.1004 10.9426 20.2894C10.7536 20.4783 10.4974 20.5844 10.2302 20.5844C9.96295 20.5844 9.70665 20.4783 9.51764 20.2894L0.338623 11.1094C0.231253 11.0021 0.146122 10.8746 0.0880127 10.7344C0.0299033 10.5941 0 10.4438 0 10.2919C0 10.1401 0.0299033 9.98976 0.0880127 9.84949C0.146122 9.70922 0.231253 9.58177 0.338623 9.47443Z" fill="#BEBEBE"/>
</svg>
