<svg viewBox="-3 0 487 487.02355" xmlns="http://www.w3.org/2000/svg"><path  d="m407.1875 160.773438c33.117188.027343 62.277344-21.804688 71.574219-53.589844 9.292969-31.785156-3.507813-65.890625-31.421875-83.710938-27.914063-17.816406-64.238282-15.070312-89.15625 6.746094-24.917969 21.8125-32.445313 57.457031-18.476563 87.480469l-49.433593 32.96875c-31.605469-36.148438-84.351563-44.921875-125.957032-20.957031l-23.765625-32.429688c17.785157-27.652344 11.367188-64.328125-14.75-84.300781-26.121093-19.972657-63.199219-16.550781-85.222656 7.859375-22.027344 24.414062-21.625 61.644531.917969 85.578125 22.546875 23.9375 59.6875 26.558593 85.371094 6.03125l21.199218 28.929687c-22.207031 19.46875-34.742187 47.707032-34.28125 77.234375.457032 29.527344 13.863282 57.363281 36.667969 76.128907l-60.257813 72.910156c-25.453124-16.480469-59.28125-10.75-77.886718 13.191406-18.609375 23.9375-15.8125 58.132812 6.441406 78.730469 22.25 20.597656 56.558594 20.753906 78.992188.355469 22.4375-20.394532 25.542968-54.5625 7.152343-78.667969l62.253907-75.328125c37.183593 19.859375 82.800781 14.421875 114.273437-13.621094l61.320313 66.089844c-26.605469 31.496094-24.179688 78.242187 5.546874 106.808594 29.726563 28.570312 76.53125 29.144531 106.945313 1.308593 30.417969-27.832031 33.988281-74.503906 8.160156-106.640625-25.828125-32.136718-72.175781-38.691406-105.902343-14.976562l-62.46875-67.328125c24.25-32.167969 26.964843-75.703125 6.898437-110.636719l48.601563-32.410156c14.113281 16.648437 34.835937 26.246094 56.664062 26.246094zm-319.625-140.53125c15.519531-.003907 29.839844 8.355468 37.464844 21.871093 7.625 13.519531 7.371094 30.097657-.664063 43.378907-3.199219-5.191407-7.601562-9.539063-12.835937-12.667969 7.847656-11.9375 5.679687-27.839844-5.082032-37.242188-10.757812-9.40625-26.808593-9.421875-37.589843-.042969-10.78125 9.378907-12.984375 25.277344-5.160157 37.234376-5.277343 3.128906-9.714843 7.496093-12.933593 12.71875-8.035157-13.28125-8.289063-29.859376-.664063-43.378907 7.625-13.515625 21.945313-21.875 37.464844-21.871093zm.0625 45.5c-4.75 0-8.601562-3.851563-8.601562-8.597657 0-4.75 3.851562-8.601562 8.601562-8.601562s8.601562 3.851562 8.601562 8.601562c.046876 4.699219-3.722656 8.546875-8.421874 8.597657-.058594 0-.121094 0-.179688 0zm-21.75 34.628906c2.152344-7.597656 9.078125-12.84375 16.972656-12.859375h9.425782c7.894531.015625 14.824218 5.261719 16.972656 12.859375-13.390625 7.851562-29.980469 7.851562-43.371094 0zm-7.355469 277.898437c13.582031-.007812 26.15625 7.175781 33.046875 18.882813 6.890625 11.707031 7.074219 26.1875.472656 38.058594-2.742187-4.0625-6.300781-7.515626-10.445312-10.140626 6.894531-11.304687 4.558594-25.941406-5.507812-34.542968-10.070313-8.597656-24.894532-8.613282-34.980469-.039063-10.089844 8.578125-12.457031 23.210938-5.585938 34.53125-4.179687 2.628907-7.765625 6.101563-10.527343 10.191407-6.597657-11.871094-6.417969-26.351563.472656-38.058594 6.894531-11.707032 19.46875-18.890625 33.050781-18.882813zm.054688 39.742188c-3.84375 0-6.964844-3.117188-6.964844-6.964844s3.117187-6.964844 6.964844-6.964844c3.847656 0 6.964843 3.117188 6.964843 6.964844.042969 3.804687-3.007812 6.921875-6.8125 6.964844zm-18.792969 31.992187c2.0625-6.234375 7.871094-10.457031 14.4375-10.492187h8.601562c6.5625.035156 12.375 4.257812 14.433594 10.488281-11.632812 6.542969-25.835937 6.542969-37.46875 0zm129.65625-165.976562c2.4375-18.589844 18.273438-32.5 37.023438-32.515625h16.140624c18.75.015625 34.585938 13.925781 37.019532 32.515625-27.246094 18.394531-62.933594 18.394531-90.183594 0zm45.203125-55.597656c-12.066406 0-21.851563-9.78125-21.851563-21.847657 0-12.066406 9.785157-21.847656 21.851563-21.847656s21.847656 9.78125 21.847656 21.847656c-.015625 12.058594-9.789062 21.832031-21.847656 21.84375zm156.617187 229.527343c2.347657-11.945312 12.863282-20.53125 25.035157-20.445312h12.101562c12.171875-.085938 22.6875 8.5 25.039063 20.445312-18.964844 12.082031-43.214844 12.082031-62.179688 0zm31.167969-43.191406c-7.664062 0-13.878906-6.214844-13.878906-13.882813 0-7.664062 6.214844-13.878906 13.882813-13.878906 7.664062 0 13.878906 6.214844 13.878906 13.882813 0 7.664062-6.214844 13.878906-13.882813 13.878906zm57.976563-6.039063c.011718 12.222657-3.859375 24.128907-11.046875 34.011719-4.363281-8.964843-11.535157-16.261719-20.425781-20.78125 11.039062-13.859375 9.539062-33.878906-3.441407-45.9375-12.980469-12.054687-33.058593-12.078125-46.066406-.050781-13.003906 12.03125-14.550781 32.046875-3.542969 45.929688-8.941406 4.511718-16.15625 11.832031-20.542968 20.839843-14.730469-20.363281-14.6875-47.894531.117187-68.207031 14.800781-20.3125 40.992187-28.789062 64.886719-21.003906 23.898437 7.785156 40.070312 30.066406 40.0625 55.199218zm-184.027344-139.832031c-5.578125-14.957031-17.109375-26.929687-31.84375-33.066406 16.089844-16.421875 15.921875-42.75-.378906-58.960937-16.300782-16.214844-42.628906-16.242188-58.964844-.0625-16.332031 16.179687-16.554688 42.503906-.5 58.960937-14.804688 6.117187-26.398438 18.121094-32 33.128906-27.511719-32.761719-24.699219-81.300781 6.417969-110.664062 31.117187-29.367188 79.734375-29.367188 110.851562 0 31.117188 29.363281 33.933594 77.902343 6.417969 110.664062zm101.972656-136.507812c2.285156-10.957031 11.917969-18.824219 23.109375-18.875h11.457031c11.195313.050781 20.828126 7.917969 23.113282 18.875-17.632813 11.070312-40.046875 11.070312-57.679688 0zm28.917969-40.859375c-6.964844 0-12.613281-5.644532-12.613281-12.609375 0-6.964844 5.644531-12.609375 12.609375-12.613281 6.960937 0 12.609375 5.644531 12.609375 12.609374.003906 6.964844-5.640625 12.609376-12.605469 12.613282zm-.078125-59.613282c20.292969-.015624 38.90625 11.265626 48.277344 29.265626 9.371094 17.996093 7.945312 39.714843-3.699219 56.332031-4.113281-8.039063-10.605469-14.613281-18.59375-18.828125 10.25-13.414063 8.570313-32.433594-3.875-43.839844-12.449219-11.40625-31.542969-11.425781-44.011719-.046875-12.472656 11.378906-14.195312 30.394531-3.972656 43.832031-8.039062 4.210938-14.570312 10.808594-18.703125 18.882813-11.644531-16.617188-13.074219-38.335938-3.699219-56.332031 9.371094-18 27.984375-29.28125 48.277344-29.265626zm0 0"/></svg>