<svg viewBox="0 0 511 511.99936" xmlns="http://www.w3.org/2000/svg"><path d="m15.5 120.023438h75.992188v164.988281c0 3.894531 1.515624 7.632812 4.222656 10.429687l19.738281 20.398438-19.566406 19.5625c-2.8125 2.8125-4.394531 6.628906-4.394531 10.609375v105.992187c0 33.082032 26.914062 59.996094 59.996093 59.996094h300.980469c33.082031 0 59.996094-26.914062 59.996094-59.996094v-44.996094c0-8.285156-6.714844-15-14.996094-15h-46v-136.992187c0-3.976563-1.578125-7.792969-4.390625-10.605469l-6.753906-6.753906c5.894531-14.101562 10.988281-40.695312 11.988281-95.3125 1.34375-73.605469 56.308594-117.257812 56.746094-117.789062 9.019531-10.957032-1.003906-27.492188-15.113282-24.105469-8.203124 1.835937-36.023437 8.28125-60.679687 16.542969-11.09375-10.769532-26.042969-16.960938-41.792969-16.960938h-329.976562c-32.894532 0-60.996094 26.582031-60.996094 59.996094v44.996094c0 8.285156 6.714844 15 15 15zm466.96875 331.980468c0 16.539063-13.457031 29.996094-30 29.996094h-249.035156c5.121094-8.828125 8.050781-19.078125 8.050781-29.996094v-30h23.789063l25.601562 25.605469c5.859375 5.855469 15.355469 5.855469 21.214844 0l25.605468-25.605469h174.773438zm-121.660156-190.078125c1.578125-17.828125 7.917968-47.863281 29.082031-90.199219 9.683594-19.367187 21.90625-38.175781 34.777344-55.476562-1.402344 8.453125-2.195313 16.992188-2.351563 25.542969-1.382812 75.675781-11.066406 87.191406-11.453125 87.617187-12.644531 12.648438-34.183593 24.65625-50.054687 32.515625zm2.25-103.613281c-15.398438 30.796875-23.816406 56.046875-28.257813 75.871094-5.722656-17.375-8.933593-39.777344-3.636719-66.101563.007813-.035156.011719-.074219.019532-.113281 12.597656-62.328125 64.582031-107.40625 114.605468-123.5-26.761718 28.511719-60.460937 69.308594-82.730468 113.84375zm36.980468-127.023438c-.824218.523438-1.609374 1.046876-2.335937 1.570313-1.574219 1.136719-3.449219 2.433594-5.621094 3.929687-14.484375 10.015626-38.21875 26.429688-58.265625 53.238282h-167.328125c-8.28125 0-15 6.714844-15 14.996094 0 8.285156 6.71875 14.988281 15 14.988281h149.203125c-4.339844 9.132812-8.105468 19.121093-11.058594 30.011719h-138.144531c-8.28125 0-15 6.714843-15 14.996093 0 8.285157 6.71875 14.988281 15 14.988281h132.644531c-.984374 10.628907-.863281 20.65625.050782 30.011719h-102.695313c-8.285156 0-15 6.714844-15 14.996094 0 8.285156 6.714844 15 15 15h108.660157c7.640624 25.09375 19.890624 42.558594 26.328124 50.550781v40.445313h-14.996093c-8.285157 0-15 6.714843-15 14.996093 0 8.285157 6.714843 15 15 15h59.996093c8.28125 0 14.996094-6.714843 14.996094-15 0-8.28125-6.714844-14.996093-14.996094-14.996093h-15v-36.183594c13.679688-6.21875 39.601563-18.960937 59.28125-34.3125l.714844.710937v130.78125h-119.992187c-3.976563 0-7.792969 1.578126-10.605469 4.390626l-19.394531 19.394531-19.390625-19.394531c-2.8125-2.8125-6.628906-4.390626-10.605469-4.390626h-44.996094c-8.285156 0-15 6.714844-15 14.996094v45c0 16.539063-13.457031 29.996094-30 29.996094-16.539062 0-29.996093-13.457031-29.996093-29.996094 0-10.425781 0-86.992187 0-99.78125l25.605468-25.605468c5.789063-5.789063 5.863282-15.152344.171875-21.039063l-25.777343-26.636719c0-23.75 0-196.785156 0-218.914062 0-10.925782-2.949219-21.167969-8.070313-30h278.050781c2.941406.003906 5.820313.441406 8.566406 1.261718zm-369.542968 28.738282c0-16.261719 14.195312-29.996094 31-29.996094 16.539062 0 29.996094 13.457031 29.996094 29.996094v30h-60.996094zm0 0"/></svg>