<svg viewBox="-1 0 512 512" xmlns="http://www.w3.org/2000/svg"><path d="m475 61h-25v-46c0-8.285156-6.714844-15-15-15h-360c-8.285156 0-15 6.714844-15 15v46h-25c-19.300781 0-35 15.699219-35 35v320c0 19.300781 15.699219 35 35 35h140.625c-4.324219 13.445312-11.671875 25.832031-21.230469 35.394531-9.414062 9.414063-2.75 25.605469 10.605469 25.605469h180c13.3125 0 20.050781-16.164062 10.605469-25.605469-9.558594-9.5625-16.90625-21.949219-21.230469-35.394531h140.625c19.300781 0 35-15.699219 35-35v-320c0-19.300781-15.699219-35-35-35zm0 30c2.710938 0 5 2.289062 5 5v265h-30v-270zm-55-61v331h-330v-331zm-385 61h25v270h-30v-265c0-2.710938 2.289062-5 5-5zm280.160156 391h-120.320312c5.34375-9.640625 9.371094-20.089844 11.9375-31h96.445312c2.566406 10.910156 6.59375 21.359375 11.9375 31zm159.839844-61h-440c-2.710938 0-5-2.289062-5-5v-25h450v25c0 2.710938-2.289062 5-5 5zm0 0"/><path  d="m255.011719 270.652344c57.875 0 104.960937-46.988282 104.960937-104.746094 0-57.753906-47.085937-104.742188-104.960937-104.742188s-104.957031 46.988282-104.957031 104.742188c0 57.757812 47.082031 104.746094 104.957031 104.746094zm-73.441407-89.746094h25.15625c1.054688 17.75 3.976563 34.375 8.507813 48.308594-17.042969-10.6875-29.5-28.003906-33.664063-48.308594zm73.441407-89.535156c1.945312 1.296875 6.695312 6.617187 11.144531 20.136718 3.664062 11.140626 6.097656 24.769532 7.085938 39.398438h-36.460938c.992188-14.628906 3.421875-28.261719 7.089844-39.398438 4.449218-13.519531 9.195312-18.839843 11.140625-20.136718zm18.234375 89.535156c-.992188 14.628906-3.425782 28.265625-7.089844 39.402344-4.449219 13.519531-9.195312 18.839844-11.140625 20.136718-1.945313-1.296874-6.695313-6.617187-11.144531-20.136718-3.667969-11.136719-6.097656-24.769532-7.089844-39.402344zm21.546875 48.308594c4.53125-13.929688 7.453125-30.558594 8.507812-48.308594h25.152344c-4.164063 20.304688-16.617187 37.621094-33.660156 48.308594zm33.660156-78.308594h-25.152344c-1.054687-17.746094-3.980469-34.375-8.507812-48.304688 17.042969 10.683594 29.496093 28.003907 33.660156 48.304688zm-113.21875-48.304688c-4.53125 13.929688-7.453125 30.558594-8.507813 48.308594h-25.15625c4.164063-20.304687 16.621094-37.625 33.664063-48.308594zm0 0"/><path d="m135 331h240c8.285156 0 15-6.714844 15-15s-6.714844-15-15-15h-240c-8.285156 0-15 6.714844-15 15s6.714844 15 15 15zm0 0"/></svg>