<svg id="Capa_1" enable-background="new 0 0 512 512"  viewBox="0 0 512 512" xmlns="http://www.w3.org/2000/svg"><g><path  d="m151 421c0-17.284-7.356-32.875-19.09-43.833l.006-.083c1.063-14.686 1.924-30.168 2.578-46.143 30.713 5.786 52.476 17.431 64.796 34.728 15.886 22.302 11.655 48.495 9.98 55.991-5.584 24.991 9.215 50.308 34.285 55.124 14.49 2.783 28.95 4.173 43.314 4.173 50.36 0 100.864-17.212 142.556-51.648 52.459-43.33 82.557-106.497 82.574-173.304.036-126.622-110.09-229.925-225.096-225.796-62.835 2.257-119.305 33.211-158.24 67.283-.498-4.643-1.019-9.164-1.564-13.548-2.856-22.982-6.23-41.2-10.028-54.149-2.614-8.916-8.738-29.795-26.071-29.795s-23.457 20.879-26.071 29.795c-3.798 12.949-7.171 31.167-10.028 54.149-5.74 46.185-8.901 107.289-8.901 172.056 0 42.314 1.412 84.184 4.084 121.083l.006.084c-11.734 10.958-19.09 26.549-19.09 43.833v31c0 16.262-14.196 30-31 30v30h61c49.55 0 90-41.067 90-91zm136.979-360.81c96.651-3.468 194.052 84.771 194.021 195.806-.016 57.831-26.142 112.57-71.679 150.183-45.002 37.17-103.726 52.165-161.106 41.144-8.352-1.604-12.552-10.684-10.666-19.121 3.023-13.532 7.632-48.412-14.823-79.938-17.618-24.735-47.273-40.72-88.256-47.619.348-14.693.527-45.763.527-46.323 5.845 6.811 13.587 11.714 22.444 14.087 24.021 6.437 48.706-7.907 55.114-31.82 6.422-23.968-7.853-48.691-31.82-55.113-18-4.823-35.97 1.971-46.646 15.164-.667-21.309-1.694-41.749-3.054-60.855 33.943-35.861 91.33-73.274 155.944-75.595zm-132.379 160.869c2.146-8.008 10.362-12.753 18.371-10.607 7.989 2.141 12.748 10.382 10.607 18.371-2.141 7.99-10.386 12.748-18.372 10.607-8.007-2.145-12.752-10.361-10.606-18.371zm-72.406-120.617c2.591-24.144 5.363-40.509 7.806-51.524 2.443 11.015 5.215 27.38 7.806 51.524 4.639 43.231 7.194 98.476 7.194 155.558 0 5.01-.021 10.012-.061 15h-29.878c-.04-4.988-.061-9.99-.061-15 0-57.082 2.555-112.327 7.194-155.558zm-6.649 200.548h28.91c-.514 21.183-1.389 41.784-2.604 61.191-3.833-.771-7.795-1.181-11.851-1.181s-8.018.41-11.851 1.181c-1.214-19.407-2.089-40.007-2.604-61.191zm-15.545 151.01v-31c0-16.542 13.458-30 30-30s30 13.458 30 30c0 33.635-26.916 61-60 61h-8.256c5.386-9.041 8.256-19.314 8.256-30z"/><path  d="m402.673 202.967c17.586-17.585 17.59-46.051 0-63.64-17.544-17.545-46.094-17.546-63.64 0-17.586 17.585-17.59 46.051 0 63.64 17.545 17.545 46.094 17.546 63.64 0zm-42.427-42.426c5.849-5.848 15.364-5.849 21.214 0 5.863 5.863 5.863 15.35 0 21.213-5.851 5.849-15.365 5.848-21.214 0-5.862-5.863-5.863-15.351 0-21.213z"/><path  d="m266.588 183.556c23.967-6.422 38.243-31.146 31.821-55.113-6.424-23.967-31.148-38.242-55.114-31.82-23.967 6.422-38.242 31.146-31.82 55.114 6.437 24.022 31.087 38.256 55.113 31.819zm-15.528-57.956c8.006-2.145 16.235 2.636 18.372 10.606 2.141 7.989-2.618 16.231-10.607 18.371-8.007 2.145-16.225-2.597-18.371-10.606-2.142-7.989 2.616-16.23 10.606-18.371z"/><path  d="m273.591 383.559c6.414 23.932 31.112 38.251 55.115 31.819 23.967-6.422 38.241-31.146 31.819-55.113-6.437-24.019-31.082-38.258-55.114-31.82-23.967 6.422-38.242 31.146-31.82 55.114zm39.586-26.137c8.022-2.15 16.23 2.614 18.37 10.606 2.141 7.99-2.617 16.231-10.606 18.372-7.99 2.141-16.23-2.619-18.371-10.606-2.141-7.99 2.617-16.231 10.607-18.372z"/><path  d="m358.444 275.412c-6.422 23.968 7.853 48.691 31.82 55.114 24.004 6.432 48.671-7.778 55.113-31.82 6.436-24.022-7.794-48.676-31.819-55.113-24.021-6.44-48.675 7.793-55.114 31.819zm57.955 15.529c-2.143 8.006-10.362 12.753-18.37 10.607-7.989-2.141-12.747-10.382-10.606-18.372 2.14-7.991 10.346-12.756 18.37-10.606 7.988 2.14 12.747 10.381 10.606 18.371z"/></g></svg>