<svg id="Layer_1" enable-background="new 0 0 511.816 511.816" viewBox="0 0 511.816 511.816" xmlns="http://www.w3.org/2000/svg"><g><path  d="m447.478 267.888c-4.778-5.482-9.923-10.961-15.388-16.419 5.186-5.727 10.052-11.459 14.551-17.176 34.176-43.426 44.243-82.153 28.346-109.047-7.896-13.358-21.233-22.509-39.642-27.198-23.759-6.054-55.426-4.164-91.212 4.6-2.151-7.416-4.474-14.563-6.973-21.387-19.042-51.987-46.709-80.845-77.902-81.256-31.142-.427-59.607 27.706-80.004 79.174-3.722 9.392-7.123 19.408-10.198 29.938-12.919-2.82-25.367-4.839-37.175-6.007-1.052-3.107-2.433-6.151-4.166-9.083-6.56-11.097-17.038-18.958-29.502-22.133-12.435-3.168-25.358-1.289-36.388 5.292-17.015 10.154-25.506 29.29-23.052 47.847-3.267 3.469-6.017 7.277-8.19 11.412-14.535 27.66-2.546 65.832 33.756 107.483 4.778 5.482 9.924 10.961 15.388 16.419-5.186 5.727-10.053 11.46-14.551 17.176-34.176 43.426-44.243 82.153-28.346 109.047 7.896 13.358 21.233 22.509 39.642 27.198 9.301 2.37 19.811 3.522 31.308 3.522 17.869 0 38.127-2.802 59.901-8.133 2.152 7.42 4.476 14.571 6.976 21.398 19.042 51.987 46.709 80.845 77.903 81.256.227.003.449.004.675.004 30.928 0 59.081-28.084 79.329-79.179 3.728-9.408 7.134-19.442 10.213-29.991 8.522 1.874 16.833 3.401 24.88 4.564 1.109 4.077 2.761 8.073 5.011 11.878 6.56 11.098 17.037 18.958 29.501 22.133 3.946 1.005 7.941 1.502 11.909 1.502 8.538 0 16.95-2.302 24.479-6.794 14.644-8.739 22.963-24.133 23.436-40.083 8.432-5.443 14.994-12.395 19.24-20.476 14.535-27.658 2.547-65.829-33.755-107.481zm-370.281-164.94c2.819-1.682 5.966-2.543 9.16-2.543 1.482 0 2.975.186 4.449.561 4.677 1.191 8.613 4.149 11.083 8.328 5.114 8.652 2.282 19.863-6.313 24.992-4.127 2.463-8.959 3.167-13.609 1.982-4.677-1.191-8.613-4.149-11.083-8.328-5.113-8.652-2.282-19.863 6.313-24.992zm6.681 281.748c-50.175-12.456-12.948-69.442 17.875-103.991 14.982 12.877 31.657 25.473 49.647 37.502 1.908 21.674 4.946 42.457 9.045 61.873-31.269 7.647-58.152 9.308-76.567 4.616zm65.363-104.578c-9.325-6.834-18.156-13.803-26.433-20.852 8.326-7.846 17.276-15.632 26.768-23.295-.558 13.253-.735 29.29-.335 44.147zm3.266-84.183c-18.945 13.842-36.365 28.294-51.803 42.973-4.882-4.89-9.48-9.793-13.75-14.692-24.13-27.685-35.561-52.809-31.666-68.835 5.511 4.7 12.055 8.119 19.274 9.958 3.946 1.005 7.94 1.502 11.909 1.502 8.537 0 16.95-2.302 24.479-6.794 10.482-6.255 17.721-15.923 21.168-26.761 9.436 1.049 19.328 2.69 29.57 4.888-3.972 18.245-7.051 37.627-9.181 57.761zm175.555-22.516c-11.656-6.779-25.174-14.127-38.766-20.82 11.216-4.699 22.312-8.874 33.198-12.487 2.198 10.679 4.06 21.809 5.568 33.307zm-120.92-83.187c41.959-102.023 83.965-59.633 108.158 20.678-20.104 6.555-41.099 14.988-62.412 25.139-18.584-7.723-36.974-14.257-54.776-19.475 2.74-9.265 5.753-18.072 9.03-26.342zm-16.394 55.395c8.738 2.586 17.641 5.51 26.662 8.769-9.623 5.372-20.961 12.069-31.75 18.936 1.466-9.503 3.162-18.757 5.088-27.705zm-6.994 192.77c11.667 6.783 25.154 14.121 38.768 20.819-11.217 4.699-22.313 8.875-33.2 12.488-2.198-10.679-4.06-21.809-5.568-33.307zm120.92 83.187c-41.961 102.028-83.969 59.627-108.16-20.684 20.121-6.56 41.133-15.006 62.463-25.167 18.513 7.667 36.917 14.198 54.748 19.431-2.745 9.294-5.765 18.127-9.051 26.42zm16.414-55.489c-8.726-2.584-17.61-5.499-26.593-8.734 9.603-5.357 20.899-12.024 31.662-18.877-1.462 9.47-3.152 18.692-5.069 27.611zm11.658-109.17c-.189 14.428-.87 28.634-2.01 42.495-21.808 15.198-47.837 30.839-72.625 43.33-25.533-11.247-53.536-26.134-77.929-41.589-1.766-27.831-1.529-59.774.897-88.766 21.819-15.206 47.862-30.853 72.662-43.349 25.403 11.234 53.552 26.179 77.892 41.608.939 15.067 1.319 30.547 1.113 46.271zm71.226-132.425c78.552-.315 47.229 60.546 6.091 106.61-14.982-12.877-31.657-25.473-49.647-37.502-1.908-21.673-4.946-42.455-9.045-61.87 19.589-4.79 37.46-7.238 52.601-7.238zm-41.397 107.198c9.324 6.834 18.156 13.803 26.433 20.852-8.326 7.846-17.276 15.632-26.768 23.295.558-13.254.735-29.29.335-44.147zm60.609 178.47c-21.865 11.493-37.668-19.133-18.379-31.338 21.629-11.665 37.777 19.4 18.379 31.338zm31.493-48.752c-.716 1.363-1.591 2.606-2.563 3.75-23.981-31.2-70.675-20.923-82.898 11.959-6.195-.953-12.563-2.138-19.074-3.547 3.965-18.226 7.039-37.586 9.167-57.697 18.945-13.842 36.365-28.294 51.803-42.973 31.106 30.25 54.234 69.435 43.565 88.508z"/><path  d="m269.393 202.609c-14.182-3.613-28.919-1.47-41.496 6.035-25.942 15.481-34.521 49.269-19.122 75.318 7.482 12.658 19.433 21.624 33.648 25.246 4.5 1.146 9.055 1.713 13.58 1.713 9.736 0 19.33-2.625 27.916-7.749 25.942-15.481 34.521-49.269 19.122-75.318-7.482-12.658-19.432-21.624-33.648-25.245zm-.847 74.802c-5.676 3.387-12.323 4.355-18.717 2.726-6.428-1.638-11.836-5.7-15.229-11.44-7.016-11.869-3.126-27.251 8.67-34.291 3.876-2.313 8.205-3.498 12.597-3.498 2.04 0 4.093.255 6.12.772 6.428 1.638 11.836 5.7 15.229 11.44 7.016 11.869 3.126 27.251-8.67 34.291z"/></g></svg>