<svg viewBox="0 -41 512 512" xmlns="http://www.w3.org/2000/svg"><path  d="m407 0h-302c-57.898438 0-105 47.101562-105 105v168.945312c0 57.898438 47.101562 105 105 105h15.582031l36.519531 46.332032c2.847657 3.609375 7.1875 5.714844 11.78125 5.714844s8.9375-2.105469 11.78125-5.714844l36.519532-46.332032h189.816406c57.898438 0 105-47.101562 105-105v-168.945312c0-57.898438-47.101562-105-105-105zm-124.757812 230.734375v118.210937h-52.484376v-118.210937c0-8.285156-6.714843-15-15-15h-184.757812v-52.484375h184.757812c8.285157 0 15-6.714844 15-15v-118.25h52.484376v118.25c0 8.285156 6.714843 15 15 15h184.757812v52.484375h-184.757812c-8.285157 0-15 6.714844-15 15zm30-200.734375h82.039062l-82.039062 82.039062zm-112.484376 82.039062-82.039062-82.039062h82.039062zm112.484376 154.910157 81.996093 81.996093h-81.996093zm169.757812-161.949219v28.25h-148.546875l98.851563-98.847656c28.9375 10.40625 49.695312 38.117187 49.695312 70.597656zm-402.304688-70.597656 98.851563 98.847656h-148.546875v-28.25c0-32.480469 20.757812-60.191406 49.695312-70.597656zm-49.695312 239.542968v-28.210937h148.546875l-98.820313 98.820313c-28.957031-10.398438-49.726562-38.117188-49.726562-70.609376zm168.128906 80.714844-29.246094 37.101563-29.242187-37.101563c-2.847656-3.609375-7.1875-5.714844-11.78125-5.714844h-10.097656l81.996093-81.996093v85.984375c-.578124.53125-1.136718 1.097656-1.628906 1.726562zm234.144532-10.105468-98.820313-98.820313h148.546875v28.210937c0 32.492188-20.769531 60.210938-49.726562 70.609376zm0 0"/></svg>