<svg id="Layer_1" enable-background="new 0 0 512.014 512.014" viewBox="0 0 512.014 512.014" xmlns="http://www.w3.org/2000/svg"><path  d="m391.222 333.813c40.874-40.873 63.383-95.217 63.383-153.021s-22.51-112.147-63.383-153.021l-27.772-27.771-21.213 21.213 17.166 17.166-19.996 19.996c-28.409-23.541-63.795-36.354-101.16-36.354-42.481 0-82.408 16.555-112.427 46.616-29.557 29.599-45.835 69.469-45.835 112.265 0 37.646 12.601 73.024 35.752 101.142l-19.949 19.949-17.165-17.166-21.213 21.213 27.772 27.772c37.328 37.328 85.893 59.329 138.066 62.867v27.514h-85.924l-30.379 87.82h262.605l-30.379-87.82h-85.924v-27.52c52.138-3.555 100.669-25.553 137.975-62.86zm-63.794 148.201h-178.362l9.623-27.82h159.115zm97.177-301.222c0 49.791-19.389 96.601-54.596 131.808s-82.018 54.596-131.808 54.596c-44.757 0-87.099-15.675-120.777-44.415l19.494-19.494c28.437 23.63 63.889 36.495 101.328 36.495 42.481 0 82.409-16.555 112.427-46.616 29.557-29.599 45.835-69.469 45.835-112.265 0-37.722-12.653-73.166-35.893-101.311l19.575-19.575c28.74 33.678 44.415 76.021 44.415 120.777zm-282.367 86.071c-20.977-23.535-31.687-53.678-32.137-83.966l19.776-5.312c1.787-.479 3.726-.214 5.317.73l38.007 22.536c1.932 1.145 3.19 3.165 3.365 5.404l1.801 22.966c.218 2.786-1.247 5.411-3.732 6.688-13.62 6.994-24.795 17.688-32.397 30.954zm129.231 38.612 5.851-19.205c1.302-4.275 4.125-7.904 7.95-10.217l36.547-22.109c6.076-3.676 13.782-3.451 19.634.573l1.673 1.151c-4.037 5.745-8.591 11.207-13.679 16.302-16.314 16.337-36.24 27.747-57.976 33.505zm43.533-228.137-22.363 22.363c-8.291 8.291-12.772 19.765-12.296 31.48l.211 5.197c.257 6.321-4.281 11.693-10.557 12.495l-10.79 1.378c-3.804.483-7.517-.809-10.193-3.552s-3.88-6.489-3.301-10.277c1.816-11.894-1.554-24.021-9.247-33.271s-19.001-14.777-31.027-15.162l-34.829-1.113c-4.246-.136-6.002-3.175-6.56-4.475-.553-1.288-1.527-4.603 1.203-7.75 21.313-14.709 46.54-22.631 72.994-22.631 28.025.001 54.679 8.884 76.755 25.318zm-176.132 21.549c6.495 10.801 17.877 17.562 30.782 17.974l34.829 1.113c3.507.112 6.674 1.66 8.917 4.358 2.244 2.698 3.188 6.094 2.658 9.563-2.013 13.182 2.174 26.215 11.487 35.758 8.026 8.225 18.735 12.707 30.008 12.707 1.808 0 3.63-.115 5.458-.349l10.79-1.378c21.834-2.789 37.625-21.478 36.73-43.472l-.211-5.197c-.137-3.367 1.151-6.665 3.534-9.048l22.98-22.98c30.613 36.639 37.464 87.95 20.547 131.157-15.406-9.998-35.316-10.357-51.091-.814l-36.546 22.109c-10.16 6.146-17.66 15.785-21.12 27.143l-9.825 32.249c-.184.001-.367.007-.55.007-26.451 0-51.676-7.921-72.988-22.627l2.681-4.822c4.715-8.481 11.769-15.307 20.401-19.74 13.276-6.819 21.102-20.839 19.935-35.719l-1.801-22.966c-.938-11.957-7.656-22.748-17.973-28.864l-38.007-22.535c-8.502-5.041-18.854-6.464-28.4-3.898l-8.605 2.311c4.33-18.766 12.789-36.661 25.38-52.04z"/></svg>