<?xml version="1.0" encoding="iso-8859-1"?>
<!-- Generator: Adobe Illustrator 19.0.0, SVG Export Plug-In . SVG Version: 6.00 Build 0)  -->
<svg version="1.1" id="Capa_1" xmlns="http://www.w3.org/2000/svg" xmlns:xlink="http://www.w3.org/1999/xlink" x="0px" y="0px"
	 viewBox="0 0 512.002 512.002" style="enable-background:new 0 0 512.002 512.002;" xml:space="preserve">
<g>
	<g>
		<path  d="M202.413,189.687l-21.333-96c-1.085-4.879-5.412-8.351-10.411-8.352h-21.333c-4.998,0.001-9.326,3.473-10.411,8.352
			l-21.333,96c-0.171,0.76-0.256,1.536-0.256,2.315v10.667h21.333v-9.493l19.2-86.507h4.267l19.2,86.507v9.493h21.333v-10.667
			C202.67,191.223,202.584,190.446,202.413,189.687z"/>
	</g>
</g>
<g>
	<g>
		<rect  x="128.002" y="149.335" width="64" height="21.333"/>
	</g>
</g>
<g>
	<g>
		<path  d="M288.973,140.257c6.178-6.018,9.665-14.274,9.672-22.898c0.013-17.673-14.303-32.011-31.976-32.024h-32
			c-5.891,0-10.667,4.776-10.667,10.667v96c0,5.891,4.776,10.667,10.667,10.667h26.667c9.264-0.005,18.195-3.454,25.058-9.676
			C301.668,179.142,302.823,155.532,288.973,140.257z M261.336,181.335h-16v-32h16c8.837,0,16,7.163,16,16
			S270.172,181.335,261.336,181.335z M266.669,128.001h-5.333h-16v-21.333h21.333c5.891,0,10.667,4.776,10.667,10.667
			C277.336,123.226,272.56,128.001,266.669,128.001z"/>
	</g>
</g>
<g>
	<g>
		<path  d="M362.669,181.335c-11.782,0-21.333-9.551-21.333-21.333v-32c0-11.782,9.551-21.333,21.333-21.333
			s21.333,9.551,21.333,21.333h21.333c0-23.564-19.103-42.667-42.667-42.667s-42.667,19.103-42.667,42.667v32
			c0,23.564,19.103,42.667,42.667,42.667s42.667-19.103,42.667-42.667h-21.333C384.002,171.783,374.451,181.335,362.669,181.335z"/>
	</g>
</g>
<g>
	<g>
		<rect  x="416.002" y="181.335" width="21.333" height="21.333"/>
	</g>
</g>
<g>
	<g>
		<rect  x="448.002" y="181.335" width="21.333" height="21.333"/>
	</g>
</g>
<g>
	<g>
		<rect  x="53.336" y="85.335" width="21.333" height="21.333"/>
	</g>
</g>
<g>
	<g>
		<rect  x="85.336" y="85.335" width="21.333" height="21.333"/>
	</g>
</g>
<g>
	<g>
		<rect  x="160.002" y="42.668" width="192" height="21.333"/>
	</g>
</g>
<g>
	<g>
		<rect  x="160.002" y="224.001" width="192" height="21.333"/>
	</g>
</g>
<g>
	<g>
		<path  d="M96.002,384.001c-17.673,0-32,14.327-32,32s14.327,32,32,32s32-14.327,32-32S113.676,384.001,96.002,384.001z
			 M96.002,426.668c-5.891,0-10.667-4.776-10.667-10.667c0-5.891,4.776-10.667,10.667-10.667s10.667,4.776,10.667,10.667
			C106.669,421.892,101.894,426.668,96.002,426.668z"/>
	</g>
</g>
<g>
	<g>
		
			<rect  x="20.956" y="442.672" transform="matrix(0.7071 -0.7071 0.7071 0.7071 -303.3756 174.2647)" width="75.424" height="21.333"/>
	</g>
</g>
<g>
	<g>
		<path  d="M167.544,376.46l-32-32c-2.375-2.376-5.73-3.495-9.056-3.019l-74.667,10.667c-3.778,0.541-6.979,3.059-8.395,6.603
			L0.76,465.377c-1.581,3.962-0.649,8.484,2.368,11.499l32,32c2,2.001,4.713,3.125,7.541,3.125c1.359,0.001,2.705-0.256,3.968-0.757
			l106.667-42.667c3.54-1.419,6.053-4.619,6.592-8.395l10.667-74.667C171.038,382.19,169.92,378.835,167.544,376.46z
			 M139.65,451.052l-94.411,37.76l-22.059-22.048l37.771-94.411l63.275-9.035l24.459,24.459L139.65,451.052z"/>
	</g>
</g>
<g>
	<g>
		<path  d="M437.336,0.001H74.669C33.451,0.048,0.049,33.45,0.002,74.668v138.667c0.047,41.218,33.449,74.62,74.667,74.667h80.619
			c-3.552,3.595-6.795,6.912-9.248,9.451l-4.267,4.341c-25.312,25.291-24.597,48.352-24.437,50.891
			c0.167,2.598,1.279,5.045,3.125,6.88l32,32c1.833,1.834,4.271,2.937,6.859,3.104c0.256,0,0.725,0,1.387,0
			c19.078-1.317,36.867-10.106,49.504-24.459c11.445-13.494,22.207-27.552,32.245-42.123c8.64-11.808,18.613-25.44,29.547-40.085
			h165.333c41.218-0.047,74.62-33.449,74.667-74.667V74.668C511.955,33.45,478.554,0.048,437.336,0.001z M490.669,213.335
			c-0.035,29.441-23.893,53.298-53.333,53.333H266.669c-3.357,0-6.519,1.581-8.533,4.267
			c-12.256,16.341-23.392,31.552-32.896,44.555c-13.941,19.051-25.984,35.499-30.112,39.637c-8.202,9.07-19.044,15.338-30.997,17.92
			l-25.141-25.141c2.607-11.943,8.857-22.781,17.888-31.019l4.448-4.555c6.624-6.784,18.933-19.424,27.275-27.189
			c2.167-2.017,3.398-4.844,3.399-7.805c0.002-5.891-4.772-10.668-10.663-10.67H74.669c-29.441-0.035-53.298-23.893-53.333-53.333
			V74.668c0.035-29.441,23.893-53.298,53.333-53.333h362.667c29.441,0.035,53.298,23.893,53.333,53.333V213.335z"/>
	</g>
</g>
<g>
	<g>
		<rect  x="138.669" y="490.668" width="330.667" height="21.333"/>
	</g>
</g>
<g>
	<g>
		<rect  x="192.002" y="448.001" width="213.333" height="21.333"/>
	</g>
</g>
<g>
	<g>
		<rect  x="490.669" y="490.668" width="21.333" height="21.333"/>
	</g>
</g>
<g>
	<g>
		<rect  x="426.669" y="448.001" width="21.333" height="21.333"/>
	</g>
</g>
<g>
	<g>
		<rect  x="469.336" y="448.001" width="21.333" height="21.333"/>
	</g>
</g>
<g>
</g>
<g>
</g>
<g>
</g>
<g>
</g>
<g>
</g>
<g>
</g>
<g>
</g>
<g>
</g>
<g>
</g>
<g>
</g>
<g>
</g>
<g>
</g>
<g>
</g>
<g>
</g>
<g>
</g>
</svg>
