<svg viewBox="0 -41 512 512" xmlns="http://www.w3.org/2000/svg"><path  d="m407 0h-302c-57.898438 0-105 47.101562-105 105v168.945312c0 57.898438 47.101562 105 105 105h15.582031l36.519531 46.332032c2.847657 3.609375 7.1875 5.714844 11.78125 5.714844s8.9375-2.105469 11.78125-5.714844l36.519532-46.332032h189.816406c57.898438 0 105-47.101562 105-105v-168.945312c0-57.898438-47.101562-105-105-105zm74 147.957031v83.074219h-450v-83.074219zm-376-117.957031h302c41.355469 0 75 33.644531 75 75v12.957031h-452v-12.957031c0-41.355469 33.644531-75 75-75zm302 318.945312h-197.09375c-4.59375 0-8.933594 2.105469-11.777344 5.714844l-29.246094 37.101563-29.242187-37.101563c-2.847656-3.609375-7.1875-5.714844-11.78125-5.714844h-22.859375c-41.355469 0-75-33.644531-75-75v-12.914062h452v12.914062c0 41.355469-33.644531 75-75 75zm0 0"/></svg>