<svg id="Layer_1" enable-background="new 0 0 512 512" viewBox="0 0 512 512" xmlns="http://www.w3.org/2000/svg"><path  d="m362.66 59.067c-12.01 0-23.693 1.427-34.89 4.121-30.525-23.723-68.306-36.872-107.267-37.182-47.559-.365-92.381 17.863-126.15 51.365-33.813 33.545-52.434 78.268-52.434 125.929 0 11.784-2.916 23.519-8.433 33.935l-29.997 56.629c-4.87 9.159-4.629 19.972.645 28.926 5.276 8.958 14.621 14.415 24.998 14.597l12.739.002v45.334c0 27.108 22.034 49.162 49.116 49.162h31.923v13.257c0 22.529 18.313 40.857 40.822 40.857h140.299c22.509 0 40.822-18.328 40.822-40.857v-29.358c0-19.503 1.998-39.006 5.949-58.148 3.913.309 7.867.467 11.858.467 82.347 0 149.34-67.074 149.34-149.519 0-82.443-66.994-149.517-149.34-149.517zm-47.806 356.718v29.358c0 5.986-4.855 10.857-10.823 10.857h-140.299c-5.968 0-10.823-4.871-10.823-10.857v-16.927c0-14.519-11.804-26.331-26.315-26.331h-35.607c-10.541 0-19.117-8.596-19.117-19.162v-49.004c0-14.519-11.804-26.331-26.315-26.331h-15.283l29.722-56.112c7.801-14.726 11.924-31.316 11.924-47.978 0-39.603 15.471-76.761 43.563-104.631 28.049-27.827 65.242-42.95 104.783-42.664 25.892.206 51.149 7.23 73.187 20.11-47.595 25.026-80.132 75.016-80.132 132.471 0 68.077 45.678 125.673 107.96 143.681-4.266 20.914-6.425 42.215-6.425 63.52zm47.806-87.68c-65.804 0-119.34-53.616-119.34-119.519s53.535-119.519 119.34-119.519 119.341 53.616 119.341 119.519-53.536 119.519-119.341 119.519z"/><path  d="m365.506 114.705c-15.573-.779-30.816 5.068-41.817 16.071-5.858 5.858-5.858 15.355 0 21.213 5.857 5.858 15.355 5.858 21.212 0 5.088-5.088 11.876-7.697 19.087-7.322 12.432.63 22.852 10.837 23.721 23.239.781 11.144-5.667 21.311-16.046 25.299-14.358 5.518-24.004 19.742-24.004 35.396 0 8.284 6.716 15 15 15s15-6.716 15-15c0-3.326 1.915-6.297 4.767-7.393 22.77-8.75 36.919-31.014 35.209-55.4-1.942-27.727-24.353-49.696-52.129-51.103z"/><path  d="m362.66 256.94c-8.284 0-15 6.716-15 15v15.599c0 8.284 6.716 15 15 15s15-6.716 15-15v-15.599c-.001-8.284-6.716-15-15-15z"/></svg>