<svg id="Capa_1" enable-background="new 0 0 512 512" viewBox="0 0 512 512" xmlns="http://www.w3.org/2000/svg"><g><path  d="m326.654 256c20.26-17.776 40.125-37.44 56.864-59.99 33.216-44.746 49.362-94.137 49.362-150.994.001-24.822-20.193-45.016-45.015-45.016s-45.015 20.194-45.015 45.016c0 5.21-.197 10.252-.579 15.141h-60.733c-8.284 0-15 6.716-15 15s6.716 15 15 15h55.626c-2.931 10.829-6.933 20.854-11.865 30.281h-138.597c-4.932-9.428-8.934-19.453-11.865-30.281h51.023c8.284 0 15-6.716 15-15s-6.716-15-15-15h-56.13c-.383-4.889-.579-9.931-.579-15.141-.001-24.822-20.195-45.016-45.016-45.016s-45.016 20.194-45.016 45.016c0 56.857 16.146 106.248 49.362 150.994 16.74 22.551 36.604 42.214 56.864 59.99-20.26 17.776-40.125 37.44-56.864 59.99-33.216 44.746-49.362 94.137-49.362 150.994 0 24.821 20.194 45.016 45.016 45.016s45.016-20.194 45.016-45.016c0-5.21.197-10.252.579-15.141h172.54c.383 4.889.579 9.931.579 15.141 0 24.821 20.194 45.016 45.016 45.016s45.016-20.194 45.016-45.016c0-56.857-16.146-106.248-49.362-150.994-16.74-22.55-36.604-42.214-56.865-59.99zm-21.43-105.562c-13.725 16.744-30.523 32.054-49.224 47.621-18.701-15.568-35.499-30.877-49.224-47.621zm-196.105-105.422c0-8.279 6.736-15.016 15.016-15.016s15.016 6.736 15.016 15.016c0 11.165.799 21.688 2.297 31.658.053.529.135 1.049.242 1.56 9.787 61.722 46.798 101.936 90.616 139.072-1.469 1.177-2.944 2.356-4.428 3.544-6.33 5.064-12.821 10.259-19.379 15.614-53.423-46.009-99.38-100.06-99.38-191.448zm30.031 421.968c0 8.279-6.736 15.016-15.016 15.016s-15.016-6.736-15.016-15.016c0-112.709 69.9-168.629 137.501-222.71 64.916-51.931 126.231-100.983 126.231-199.258 0-8.279 6.736-15.016 15.016-15.016s15.016 6.736 15.016 15.016c0 112.709-69.9 168.629-137.501 222.71-64.916 51.931-126.231 100.983-126.231 199.258zm166.074-105.422h-98.448c13.725-16.744 30.523-32.054 49.224-47.621 18.701 15.568 35.499 30.877 49.224 47.621zm-130.387 60.282c2.931-10.829 6.933-20.854 11.865-30.281h138.596c4.932 9.428 8.934 19.453 11.865 30.281zm213.028 60.156c-8.279 0-15.016-6.736-15.016-15.016 0-81.271-41.932-128.878-93.156-172.29 1.469-1.177 2.944-2.356 4.428-3.544 6.33-5.064 12.821-10.259 19.379-15.614 53.423 46.009 99.379 100.06 99.379 191.448.002 8.28-6.734 15.016-15.014 15.016z"/></g></svg>