<?xml version="1.0" encoding="iso-8859-1"?>
<!-- Generator: Adobe Illustrator 19.0.0, SVG Export Plug-In . SVG Version: 6.00 Build 0)  -->
<svg version="1.1" id="Capa_1" xmlns="http://www.w3.org/2000/svg" xmlns:xlink="http://www.w3.org/1999/xlink" x="0px" y="0px"
	 viewBox="0 0 512 512" style="enable-background:new 0 0 512 512;" xml:space="preserve">
<g>
	<g>
		<circle cx="407" cy="377" r="15"/>
	</g>
</g>
<g>
	<g>
		<circle cx="105" cy="377" r="15"/>
	</g>
</g>
<g>
	<g>
		<path  d="M467,152H240V87.42c17.459-6.192,30-22.865,30-42.42c0-24.813-20.187-45-45-45H105C80.187,0,60,20.187,60,45
			c0,19.555,12.541,36.228,30,42.42v112.571C34.737,228.197,0,285.115,0,347c0,90.981,74.019,165,165,165
			c25.275,0,50.182-5.803,72.696-16.852C250.611,505.674,267.078,512,285,512h122c41.355,0,75-33.645,75-75V239.43
			c17.461-6.191,30-22.873,30-42.43C512,172.187,491.813,152,467,152z M111.005,223.227c5.463-2.387,8.995-7.783,8.995-13.745V90h15
			c8.284,0,15-6.716,15-15s-6.716-15-15-15h-30c-8.271,0-15-6.729-15-15s6.729-15,15-15h120c8.271,0,15,6.729,15,15s-6.729,15-15,15
			h-30c-8.284,0-15,6.716-15,15s6.716,15,15,15h15v64.58c-17.459,6.192-30,22.865-30,42.42c0,19.556,12.539,36.239,30,42.43v63.922
			c-16.721,5.495-34.24,1.186-49.143-12.405c-32.962-30.061-77.254-30.061-110.215,0c-2.355,2.148-5.221,4.153-10.09,3.726
			C53.746,263.296,78.597,237.386,111.005,223.227z M165,482c-74.439,0-135-60.561-135-135c0-7.922,0.71-15.728,2.048-23.357
			c17.697,3.843,30.525-2.975,38.809-10.53c21.521-19.628,48.261-19.629,69.784,0C159.63,330.43,184.262,339.27,210,334.282
			c0,9.703,0,88.039,0,102.718c0,12.267,2.979,23.845,8.224,34.079C201.5,478.245,183.375,482,165,482z M452,437
			c0,24.813-20.187,45-45,45H285c-24.813,0-45-20.187-45-45c0-12.888,0-93.838,0-105.51c20.491,4.182,44.669,0.187,60.749-13.711
			c24.089,20.82,67.321,20.083,91.557-0.388c15.623,13.82,39.256,18.12,59.694,14.405V437z M467,212h-30c-8.284,0-15,6.716-15,15
			s6.716,15,15,15h15v58.941c-21.817,6.929-44.251-4.088-44.251-13.941c0-8.284-6.716-15-15-15s-15,6.716-15,15
			c0,6.47-13.438,16.067-32,16.067c-16.896,0-30-8.637-30-16.067c0-8.284-6.716-15-15-15s-15,6.716-15,15
			c0,10.251-23.929,21.339-45.749,13.424V242h15c8.284,0,15-6.716,15-15s-6.716-15-15-15h-30c-8.271,0-15-6.729-15-15
			s6.729-15,15-15h242c8.271,0,15,6.729,15,15S475.271,212,467,212z"/>
	</g>
</g>
<g>
	<g>
		<path  d="M315,362c-24.813,0-45,20.187-45,45s20.187,45,45,45s45-20.187,45-45S339.813,362,315,362z M315,422
			c-8.271,0-15-6.729-15-15s6.729-15,15-15s15,6.729,15,15S323.271,422,315,422z"/>
	</g>
</g>
<g>
</g>
<g>
</g>
<g>
</g>
<g>
</g>
<g>
</g>
<g>
</g>
<g>
</g>
<g>
</g>
<g>
</g>
<g>
</g>
<g>
</g>
<g>
</g>
<g>
</g>
<g>
</g>
<g>
</g>
</svg>
