<svg viewBox="0 0 113 85" xmlns="http://www.w3.org/2000/svg">
<path d="M102.244 84.615H10.577C7.7718 84.615 5.0815 83.5006 3.09793 81.5171C1.11436 79.5335 0 76.8432 0 74.038L0 10.577C0 7.7718 1.11436 5.0815 3.09793 3.09793C5.0815 1.11436 7.7718 0 10.577 0H102.244C105.049 0.0002652 107.739 1.11474 109.722 3.09829C111.706 5.08183 112.82 7.77198 112.82 10.577V74.038C112.82 76.843 111.706 79.5332 109.722 81.5167C107.739 83.5003 105.049 84.6147 102.244 84.615ZM24.679 12.34C22.2384 12.34 19.8526 13.0637 17.8233 14.4197C15.794 15.7756 14.2123 17.7028 13.2783 19.9577C12.3443 22.2125 12.1 24.6937 12.5761 27.0874C13.0523 29.4811 14.2275 31.6799 15.9533 33.4057C17.6791 35.1315 19.8779 36.3067 22.2716 36.7829C24.6653 37.259 27.1465 37.0147 29.4013 36.0807C31.6562 35.1467 33.5834 33.565 34.9393 31.5357C36.2953 29.5064 37.019 27.1206 37.019 24.68C37.019 23.0595 36.6998 21.4548 36.0797 19.9577C35.4595 18.4605 34.5506 17.1002 33.4047 15.9543C32.2588 14.8084 30.8985 13.8995 29.4013 13.2793C27.9042 12.6592 26.2995 12.34 24.679 12.34ZM14.1 70.513H98.718V45.833L79.434 26.549C79.1885 26.3034 78.8969 26.1085 78.5761 25.9756C78.2552 25.8426 77.9113 25.7742 77.564 25.7742C77.2167 25.7742 76.8728 25.8426 76.5519 25.9756C76.2311 26.1085 75.9395 26.3034 75.694 26.549L45.833 56.41L33.6 44.177C33.3545 43.9314 33.0629 43.7365 32.7421 43.6036C32.4212 43.4706 32.0773 43.4022 31.73 43.4022C31.3827 43.4022 31.0388 43.4706 30.7179 43.6036C30.3971 43.7365 30.1055 43.9314 29.86 44.177L14.1 59.936V70.513Z" fill="#C4C4C4"/>
</svg>
