<svg xmlns="http://www.w3.org/2000/svg" width="73.659" height="67.899" viewBox="0 0 73.659 67.899"><defs><style>.a{fill:#da005a;}</style></defs><path class="a" d="M153.682,63.2A1.307,1.307,0,0,0,153,64.326V76.261a1.307,1.307,0,0,0,.682,1.128,1.545,1.545,0,0,0,1.4.058L168.03,71.48a1.282,1.282,0,0,0,0-2.372L155.082,63.14A1.545,1.545,0,0,0,153.682,63.2Zm2.195,3.274,8.292,3.822-8.292,3.822Z" transform="translate(-130.989 -54.645)"/><path class="a" d="M68.755,196.609a1.386,1.386,0,0,0,1.439-1.326v-2.652H98.966a1.331,1.331,0,1,0,0-2.652H70.193v-2.652a1.443,1.443,0,0,0-2.877,0v2.652H64.439a1.331,1.331,0,1,0,0,2.652h2.877v2.652A1.386,1.386,0,0,0,68.755,196.609Z" transform="translate(-53.936 -161.334)"/><path class="a" d="M67.9,28.645H55.532V5.3A5.55,5.55,0,0,0,49.777,0H34.24A1.386,1.386,0,0,0,32.8,1.326,1.386,1.386,0,0,0,34.24,2.652H49.777A2.775,2.775,0,0,1,52.655,5.3V37.928a2.775,2.775,0,0,1-2.877,2.652H19.134a1.5,1.5,0,0,0-1.017.388l-6.176,5.693V41.906A1.386,1.386,0,0,0,10.5,40.58H5.755a2.775,2.775,0,0,1-2.877-2.652V5.3A2.775,2.775,0,0,1,5.755,2.652H21.292a1.386,1.386,0,0,0,1.439-1.326A1.386,1.386,0,0,0,21.292,0H5.755A5.55,5.55,0,0,0,0,5.3V37.928a5.55,5.55,0,0,0,5.755,5.3H9.064v6.631a1.33,1.33,0,0,0,.888,1.225,1.529,1.529,0,0,0,1.568-.288l8.211-7.568h7.029v11.4a5.55,5.55,0,0,0,5.755,5.3H53.929l8.211,7.568a1.529,1.529,0,0,0,1.568.288,1.33,1.33,0,0,0,.888-1.225V59.942H67.9a5.55,5.55,0,0,0,5.755-5.3V33.95a5.55,5.55,0,0,0-5.755-5.3Zm2.877,25.993A2.775,2.775,0,0,1,67.9,57.29H63.157a1.386,1.386,0,0,0-1.439,1.326v4.755l-6.176-5.693a1.5,1.5,0,0,0-1.017-.388H32.514a2.775,2.775,0,0,1-2.877-2.652v-11.4H49.777a5.55,5.55,0,0,0,5.755-5.3V31.3H67.9a2.775,2.775,0,0,1,2.877,2.652Z"/><ellipse class="a" cx="1.158" cy="1.067" rx="1.158" ry="1.067" transform="translate(26.623 0.144)"/></svg>