<svg xmlns="http://www.w3.org/2000/svg" width="16.968" height="17.199" viewBox="0 0 16.968 17.199"><path class="linkedin" d="M16.968,20.1v6.654H13.331V20.548c0-1.56-.526-2.624-1.842-2.624a2.006,2.006,0,0,0-1.866,1.411,2.789,2.789,0,0,0-.121.941v6.481H5.864s.049-10.515,0-11.6H9.5V16.8c-.007.012-.017.026-.024.037H9.5V16.8a3.586,3.586,0,0,1,3.278-1.918C15.173,14.879,16.968,16.538,16.968,20.1ZM2.059,9.558a1.949,1.949,0,0,0-2.059,2,1.938,1.938,0,0,0,2.01,2.006h.024a1.95,1.95,0,0,0,2.058-2.006A1.942,1.942,0,0,0,2.059,9.558ZM.216,26.757H3.853v-11.6H.216Z" transform="translate(0 -9.558)"/></svg>