<svg width="72" height="72" viewBox="0 0 72 72" xmlns="http://www.w3.org/2000/svg">
<path d="M36.153 0.19104C29.0687 0.19104 22.1434 2.29179 16.253 6.22763C10.3626 10.1635 5.77162 15.7576 3.06056 22.3027C0.349504 28.8478 -0.359832 36.0498 1.02225 42.998C2.40434 49.9462 5.81577 56.3285 10.8251 61.3379C15.8345 66.3473 22.2169 69.7587 29.1651 71.1408C36.1133 72.5229 43.3153 71.8135 49.8603 69.1025C56.4054 66.3914 61.9996 61.8004 65.9354 55.91C69.8713 50.0196 71.972 43.0944 71.972 36.01C71.9675 26.5116 68.1923 17.4035 61.4759 10.6872C54.7595 3.97077 45.6514 0.195545 36.153 0.19104ZM28.989 52.129V19.892L50.481 36.01L28.989 52.129Z" fill="white" fill-opacity="0.31"/>
</svg>
