<svg xmlns="http://www.w3.org/2000/svg" viewBox="0 0 513.2 390.1"><path d="M0 24.7v340.6a24.7 24.7 0 0024.7 24.8h463.8a24.7 24.7 0 0024.7-24.8V24.7A24.7 24.7 0 00488.5 0H24.7A24.7 24.7 0 000 24.7zm0 0" fill="#666"/><path d="M3.8 24.4v341.3a21.4 21.4 0 0021.5 21.5h462.6a21.4 21.4 0 0021.5-21.5V24.4a21.4 21.4 0 00-21.5-21.5H25.3A21.4 21.4 0 003.8 24.4zm0 0"/><path fill="#fff" d="M473.4 30.3v329.5H39.9V30.3z"/><path d="M22.6 198.5A3.5 3.5 0 1019 195a3.5 3.5 0 003.5 3.5zm0 0" fill="#4d4d4d"/><path d="M3.8 24.4A21.4 21.4 0 0125.3 2.9h136l-25.2 27.4H39.8v104.3l-36 39zm0 0" fill="#3f3f3f"/></svg>