<svg xmlns="http://www.w3.org/2000/svg" width="21.169" height="17.199" viewBox="0 0 21.169 17.199"><path class="twitter" d="M21.169,50.036a9.048,9.048,0,0,1-2.5.685,4.315,4.315,0,0,0,1.909-2.4,8.673,8.673,0,0,1-2.752,1.05,4.339,4.339,0,0,0-7.507,2.968,4.468,4.468,0,0,0,.1.99,12.284,12.284,0,0,1-8.945-4.539,4.341,4.341,0,0,0,1.334,5.8,4.286,4.286,0,0,1-1.961-.535V54.1a4.36,4.36,0,0,0,3.477,4.264,4.331,4.331,0,0,1-1.138.143,3.837,3.837,0,0,1-.822-.074,4.381,4.381,0,0,0,4.055,3.023,8.72,8.72,0,0,1-5.381,1.851A8.128,8.128,0,0,1,0,63.252,12.218,12.218,0,0,0,6.657,65.2,12.267,12.267,0,0,0,19.009,52.85c0-.192-.007-.377-.016-.561A8.658,8.658,0,0,0,21.169,50.036Z" transform="translate(0 -48)"/></svg>