<?xml version="1.0" standalone="no"?>
<!DOCTYPE svg PUBLIC "-//W3C//DTD SVG 20010904//EN"
 "http://www.w3.org/TR/2001/REC-SVG-20010904/DTD/svg10.dtd">
<svg version="1.0" xmlns="http://www.w3.org/2000/svg"
 width="512.000000pt" height="512.000000pt" viewBox="0 0 512.000000 512.000000"
 preserveAspectRatio="xMidYMid meet">

<g transform="translate(0.000000,512.000000) scale(0.100000,-0.100000)"
fill="#000000" stroke="none">
<path d="M4120 4601 l-193 -200 -189 182 c-104 100 -193 183 -197 185 -4 1
-78 -71 -164 -161 l-156 -164 77 -74 c42 -40 130 -125 195 -187 l118 -114
-191 -198 -190 -198 166 -158 166 -158 191 198 190 197 46 -44 c82 -79 285
-271 323 -306 l38 -35 25 24 c19 18 28 21 37 12 20 -20 32 -13 13 8 -17 19
-15 23 109 151 70 72 126 134 124 138 -2 4 -92 92 -201 196 l-198 189 64 65
c254 264 317 331 317 339 0 9 -314 312 -323 312 -3 0 -92 -90 -197 -199z"/>
<path d="M2180 4145 c-501 -58 -906 -197 -1251 -426 -92 -62 -156 -115 -250
-209 -172 -172 -265 -319 -325 -515 l-28 -90 -6 -615 c-7 -684 -5 -709 55
-876 106 -297 384 -587 735 -768 310 -159 670 -267 1036 -311 152 -19 618 -21
771 -5 341 37 660 123 959 259 233 105 395 213 549 366 190 187 291 349 352
565 l25 85 -2 620 c-1 646 -3 675 -47 810 -16 52 -80 186 -114 242 -21 34 -90
73 -129 73 l-24 0 27 28 c41 43 32 51 -10 9 -21 -20 -58 -47 -82 -59 -61 -33
-83 -76 -78 -153 3 -46 11 -72 36 -111 75 -119 115 -329 87 -463 -35 -165 -96
-270 -246 -421 -137 -138 -234 -205 -420 -290 -451 -207 -782 -282 -1250 -282
-458 0 -817 78 -1217 267 -347 164 -606 433 -667 695 -20 84 -20 226 0 304 89
352 495 676 1049 840 340 100 664 133 1105 111 142 -7 146 -6 179 16 53 37 74
72 78 131 5 73 -24 124 -92 158 -50 25 -51 25 -370 27 -217 1 -357 -3 -435
-12z m-1333 -2363 c109 -83 177 -125 306 -189 281 -140 582 -234 927 -288 140
-23 642 -32 818 -16 509 48 1050 242 1381 495 44 34 107 85 140 114 l61 54 0
-120 c0 -268 -66 -420 -269 -622 -135 -135 -238 -206 -425 -296 -333 -158
-657 -241 -1045 -264 -496 -31 -973 58 -1398 260 -213 101 -371 218 -499 368
-150 175 -203 323 -204 561 l0 123 64 -60 c36 -33 100 -87 143 -120z"/>
<path d="M2472 3660 c-39 -24 -72 -75 -72 -112 0 -26 -3 -28 -43 -28 -174 0
-361 -149 -418 -331 -24 -76 -25 -214 -3 -290 54 -185 245 -339 420 -339 l44
0 0 -160 0 -160 -187 0 c-210 0 -233 -6 -273 -72 -27 -45 -27 -131 0 -176 40
-66 63 -72 273 -72 l187 0 0 -27 c0 -73 73 -133 160 -133 87 0 160 60 160 133
0 25 3 27 43 27 174 0 361 149 418 331 26 82 26 216 0 298 -57 182 -244 331
-418 331 l-43 0 0 160 0 160 188 0 c209 0 232 6 272 72 27 45 27 131 0 176
-40 66 -63 72 -272 72 l-188 0 0 28 c0 72 -73 132 -160 132 -37 0 -66 -6 -88
-20z m-72 -620 c0 -149 0 -150 -22 -150 -64 0 -128 76 -128 150 0 74 64 150
128 150 22 0 22 -1 22 -150z m398 -510 c96 -59 96 -201 0 -260 -18 -11 -43
-20 -55 -20 -23 0 -23 1 -23 150 0 149 0 150 23 150 12 0 37 -9 55 -20z"/>
</g>
</svg>
