<?xml version="1.0" standalone="no"?>
<!DOCTYPE svg PUBLIC "-//W3C//DTD SVG 20010904//EN"
 "http://www.w3.org/TR/2001/REC-SVG-20010904/DTD/svg10.dtd">
<svg version="1.0" xmlns="http://www.w3.org/2000/svg"
 width="512.000000pt" height="512.000000pt" viewBox="0 0 512.000000 512.000000"
 preserveAspectRatio="xMidYMid meet">

<g transform="translate(0.000000,512.000000) scale(0.100000,-0.100000)"
fill="#000000" stroke="none">
<path d="M2283 4940 c-807 -101 -1512 -601 -1868 -1325 -110 -224 -174 -420
-221 -680 -27 -145 -27 -605 -1 -750 124 -685 483 -1241 1042 -1617 839 -562
1952 -532 2763 76 196 147 414 377 550 578 56 83 152 250 156 270 1 7 12 33
25 57 84 161 177 480 206 706 31 241 18 577 -31 800 -116 523 -399 996 -799
1332 -265 223 -598 398 -920 484 -221 58 -318 71 -585 74 -135 2 -278 0 -317
-5z m503 -1115 c168 -30 346 -101 493 -199 74 -49 99 -84 107 -148 4 -33 0
-53 -18 -87 -32 -62 -66 -84 -135 -89 -54 -3 -62 -1 -121 37 -188 122 -347
172 -552 172 -269 0 -499 -98 -686 -292 -81 -85 -118 -136 -166 -234 -35 -69
-83 -203 -77 -210 2 -1 37 35 78 82 91 104 119 123 187 123 56 0 102 -24 137
-72 28 -38 33 -114 10 -158 -31 -59 -490 -576 -528 -594 -42 -20 -108 -20
-150 0 -38 18 -497 535 -528 594 -23 44 -18 120 10 158 35 48 81 72 137 72 70
0 96 -18 206 -144 l94 -107 17 88 c33 162 102 324 202 473 64 96 231 263 327
327 152 102 334 178 496 207 109 20 349 20 460 1z m965 -868 c39 -26 492 -537
516 -581 21 -39 14 -133 -12 -168 -46 -62 -140 -85 -210 -52 -18 8 -73 61
-121 117 -88 100 -89 101 -95 71 -73 -311 -171 -498 -363 -690 -250 -250 -550
-374 -907 -374 -155 0 -266 16 -396 59 -153 50 -344 157 -436 243 -71 67 -72
165 -3 235 74 74 142 70 261 -18 332 -244 778 -255 1115 -26 66 45 186 163
235 232 53 75 106 180 133 265 21 67 33 115 28 108 -2 -1 -43 -48 -90 -103
-105 -121 -131 -138 -207 -133 -94 7 -151 65 -152 157 0 25 7 60 16 76 26 50
486 569 520 587 47 25 126 23 168 -5z"/>
</g>
</svg>
