<svg xmlns="http://www.w3.org/2000/svg" viewBox="0 0 500 500"><g id="freepik--background-complete--inject-250"><g style="opacity:0.4"><path d="M28,240.16a60.34,60.34,0,0,0,1.69,23.39c2.14,7.46,6.1,14.41,11.74,19.09a30.85,30.85,0,0,0,4.41,3.11,27.71,27.71,0,0,0,4.81,2.12,27.21,27.21,0,0,0,10.09,1.35c6.79-.37,13.32-2.93,19.26-6.63.35-.23.77-.47,1.08-.69l.85-.64c.56-.46,1.12-.9,1.66-1.41a28,28,0,0,0,3.12-3.28,52.55,52.55,0,0,0,5.51-8.13,149.14,149.14,0,0,0,9-19.68c5.4-14,10.15-29,15.49-44.11q2-5.67,4.16-11.39c1.41-3.82,2.94-7.64,4.53-11.48a169.14,169.14,0,0,1,11.41-23.16c1.2-2,2.49-3.92,4-5.89.74-1,1.55-2,2.41-2.94s1.76-1.85,2.68-2.71a51.72,51.72,0,0,1,11.86-8.16c8.19-4.18,16.34-6.44,24.2-8.77s15.57-4.4,23-7.17a103.09,103.09,0,0,0,20.83-10.31,67.42,67.42,0,0,0,16.61-15.26c4.55-6,8.14-12.58,9.75-19.27a33.79,33.79,0,0,0,1-9.75,22.93,22.93,0,0,0-2.15-8.49A19,19,0,0,0,239.45,50a25.73,25.73,0,0,0-7.87-1.24,35.29,35.29,0,0,0-8.47,1c-.72.17-1.44.38-2.16.59l-2.56.77c-1.69.54-3.38,1.1-5,1.72-3.32,1.23-6.58,2.6-9.82,4.16-6.47,3.1-12.93,7-20.1,11.18A180.86,180.86,0,0,1,159.93,80a140.81,140.81,0,0,1-26.08,7.49c-1.1.23-2.2.38-3.3.57l-3,.48c-1.63.27-3.29.59-4.94,1a100.13,100.13,0,0,0-9.81,2.69c-12.9,4.24-24.51,11-33.35,20.45a79.85,79.85,0,0,0-11.71,16,84.21,84.21,0,0,0-4.55,9.4,103.57,103.57,0,0,0-3.66,10.22c-1,3.53-2,7.16-2.71,10.89-.37,1.74-.75,4-1.14,6.1s-.87,4.2-1.37,6.27a181.18,181.18,0,0,1-7.62,24.13c-3,7.77-6.5,15.23-10,22.55-1.76,3.66-3.51,7.3-5.13,11A43.13,43.13,0,0,0,28,240.16Zm-3.1-.33a33.52,33.52,0,0,1,1.38-6.22c.6-2,1.31-3.91,2-5.82,1.4-3.82,2.86-7.58,4.15-11.38s2.48-7.61,3.48-11.46,1.77-7.74,2.41-11.62A118.34,118.34,0,0,0,39.59,170c-.07-1.93-.22-3.86-.36-5.78s-.39-3.69-.57-6a119.63,119.63,0,0,1-.39-13.16,95.59,95.59,0,0,1,4.46-26.92A83.59,83.59,0,0,1,55.9,92.91,93.07,93.07,0,0,1,76.82,73.17a105.66,105.66,0,0,1,25.24-12.71,112.18,112.18,0,0,1,13.47-3.79c2.28-.5,4.59-.91,6.94-1.26l5.68-.83a124.79,124.79,0,0,0,20.59-4.91,160.43,160.43,0,0,0,20.34-8.53c7-3.4,14.71-7.32,23.06-10.58A132.2,132.2,0,0,1,205,26.27c2.18-.6,4.38-1.13,6.58-1.62l3.31-.67c1.25-.23,2.5-.43,3.77-.59a54.87,54.87,0,0,1,15.61.17,46.59,46.59,0,0,1,15.33,5.14,41.18,41.18,0,0,1,12.6,10.64,38.59,38.59,0,0,1,7.14,14.59,41.39,41.39,0,0,1,.82,15.37,50,50,0,0,1-3.9,13.85A77.11,77.11,0,0,1,251,105a94.53,94.53,0,0,1-9.6,8.66,110.67,110.67,0,0,1-10.54,7.24c-14.53,8.78-30.45,13.8-45,20.16-7.28,3.13-14.29,6.68-19.8,11.07a34.19,34.19,0,0,0-6.75,7.15c-.43.64-.83,1.28-1.2,1.93s-.7,1.29-1.05,2c-.68,1.42-1.34,3-2,4.64-1.24,3.29-2.33,6.88-3.34,10.55s-2,7.43-3,11.23l-2.91,11.53c-1,3.87-2,7.77-3.06,11.68-4.32,15.61-9.34,31.45-17,46.92a113.55,113.55,0,0,1-14.5,22.48c-1.53,1.76-3.12,3.5-4.87,5.18a52.9,52.9,0,0,1-5.56,4.79,49,49,0,0,1-6.42,4.14A38.19,38.19,0,0,1,90.87,298l-1.84.72c-.59.22-1.11.37-1.67.56a64.58,64.58,0,0,1-13.65,2.86,48.8,48.8,0,0,1-14.11-.63,40.43,40.43,0,0,1-13.1-5,36.35,36.35,0,0,1-5.57-4,38.17,38.17,0,0,1-4.71-4.81,52,52,0,0,1-10.45-23.22A83.75,83.75,0,0,1,24.9,239.83Z" style="fill:#ebebeb"></path><path d="M336,440.15a105,105,0,0,0-26.5,7.85c-8.53,3.64-16.74,8-25,12.48-4.16,2.2-8.31,4.49-12.61,6.62a129.23,129.23,0,0,1-13.44,6,63.78,63.78,0,0,1-15.35,3.76,40.12,40.12,0,0,1-17.85-2c-1.51-.55-3-1.27-4.45-1.94s-2.8-1.62-4.19-2.48-2.58-1.92-3.83-2.93-2.31-2.14-3.45-3.24a62.3,62.3,0,0,1-10.52-14.57,71.9,71.9,0,0,1-6.14-16.52,100.33,100.33,0,0,1-2.45-16.42,209.65,209.65,0,0,1,.56-30.39l1.13-14.11c.19-2.3.32-4.57.47-6.83l.2-3.37.13-3.32a125.68,125.68,0,0,0-.19-12.92,71.18,71.18,0,0,0-1.77-12.11,72.34,72.34,0,0,0-4.28-12.13c-1.81-4.12-3.89-8.28-6.14-12.44-4.5-8.36-9.6-16.69-14.58-25.31l-3.69-6.52c-1.2-2.22-2.39-4.44-3.52-6.73a100.35,100.35,0,0,1-6-14.3,50.87,50.87,0,0,1-2.69-15.88,36.48,36.48,0,0,1,3.73-15.88,41.25,41.25,0,0,1,4.22-6.73l2.47-3c.84-1,1.72-1.81,2.58-2.72a81.39,81.39,0,0,1,11.49-9.59,78,78,0,0,1,13.27-7.13c1.17-.45,2.32-1,3.52-1.39l3.59-1.22c2.42-.69,4.86-1.38,7.34-1.88a102.57,102.57,0,0,1,30.28-1.69,131.63,131.63,0,0,1,15.07,2.11c5,.93,9.9,2.23,14.77,3.65,2.41.76,4.86,1.46,7.23,2.32l3.59,1.25,3.55,1.35q7.08,2.75,13.92,6c2.28,1.1,4.53,2.23,6.79,3.36s4.46,2.37,6.66,3.6,4.4,2.47,6.55,3.78,4.32,2.6,6.42,4l12.13,7.85c2,1.28,4,2.48,6,3.73l3,1.85,3,1.79a455.36,455.36,0,0,0,49.41,25.52c8.52,3.78,17.13,7.41,26.24,11.52,4.54,2,9.21,4.33,14,7a94.06,94.06,0,0,1,14.47,10,73.49,73.49,0,0,1,12.65,13.87,85.08,85.08,0,0,1,8.63,15.69c1.2,2.64,2.11,5.24,3.07,7.86.46,1.3.85,2.59,1.27,3.88s.84,2.57,1.18,4l1.08,4.09.52,2.05.4,2.13a73,73,0,0,1,1.27,8.58c.14,1.46.28,2.92.38,4.38V363c0,.74-.12,1.5-.18,2.25l-.46,4.49c-.22,1.49-.57,3-.87,4.45l-.47,2.21c-.18.73-.43,1.46-.65,2.18-.45,1.44-.89,2.89-1.38,4.3s-1.19,2.77-1.8,4.13a57.49,57.49,0,0,1-9.67,14.46l-1.4,1.58c-.49.5-1,1-1.5,1.45-1,.95-2,1.91-3,2.81-2.14,1.67-4.2,3.45-6.44,4.86a91.94,91.94,0,0,1-13.53,7.55,131.08,131.08,0,0,1-14,5.29,232,232,0,0,1-28.15,6.86c-2.35.41-4.69.89-7,1.24s-4.67.83-7,1.16-4.69.71-7,1.06l-7,1Zm-.52-3.06c9.27-1.34,18.47-3,27.54-5.2l3.4-.81,3.38-.9c2.25-.57,4.48-1.26,6.7-1.93,4.46-1.3,8.84-2.82,13.16-4.44a151.67,151.67,0,0,0,24.68-11.75,114.27,114.27,0,0,0,11-7.42,78.44,78.44,0,0,0,9.34-8.56c1.47-1.45,2.62-3.1,3.9-4.62l1.67-2.41c.27-.4.56-.79.82-1.2l.69-1.24A39.34,39.34,0,0,0,446,376.53c.2-.87.4-1.72.64-2.56l.39-2.62c.06-.44.15-.86.19-1.3l.05-1.34c0-.9.12-1.77.13-2.66l-.1-2.72c0-.45,0-.89-.05-1.35l-.17-1.39-.3-2.76-.55-2.82A80.37,80.37,0,0,0,443,343.55c-.28-.95-.69-2-1.08-3s-.76-2-1.17-3c-.85-1.89-1.64-3.85-2.55-5.6a56.69,56.69,0,0,0-5.82-9.61,42.94,42.94,0,0,0-7.16-7.35c-5.39-4.38-12.8-8.21-21.15-12.15-4.15-2-8.47-3.94-12.86-6s-8.82-4.19-13.24-6.35a422.5,422.5,0,0,1-51.52-30.23l-3.09-2.09-3-2.15c-2-1.44-4.07-2.85-6.07-4.32l-11.68-8.62c-3.72-2.73-7.5-5.37-11.29-8l-5.74-3.81c-1.93-1.22-3.86-2.46-5.81-3.67-3.91-2.34-7.82-4.72-11.83-6.84l-3-1.63-3-1.55c-2-1.06-4.06-2-6.11-2.95a139,139,0,0,0-25.27-8.88,95.16,95.16,0,0,0-13-2.11,68.35,68.35,0,0,0-13,0A58.76,58.76,0,0,0,180,211.33a59.66,59.66,0,0,0-10.41,7.82c-.77.77-1.6,1.51-2.34,2.29l-2.08,2.36a32.7,32.7,0,0,0-3.33,5.17,24.54,24.54,0,0,0-2.73,11.72,36.43,36.43,0,0,0,2.66,12.52,78.4,78.4,0,0,0,6.2,12.17c2.46,3.94,5.16,7.82,8.05,11.62,5.73,7.63,12,15.08,18.16,23,3.07,4,6.08,8.12,8.94,12.54a95.55,95.55,0,0,1,7.82,14.39c4.54,10.75,6.29,21.63,7,32.09,1.37,20.88-1.3,40.09-.91,57.31.18,8.59,1.12,16.52,3.62,23.54a44.52,44.52,0,0,0,5.05,10,23.71,23.71,0,0,0,6.84,7,23.46,23.46,0,0,0,9.88,3.38,48.82,48.82,0,0,0,12.43-.28,117.12,117.12,0,0,0,13.21-2.67c4.42-1.21,8.88-2.54,13.3-4,8.88-2.9,17.7-6.21,26.66-9.15A166.85,166.85,0,0,1,335.52,437.09Z" style="fill:#ebebeb"></path><path d="M293.15,89a68.75,68.75,0,0,1,9.1-1.64c1.46-.19,2.88-.3,4.31-.43s2.83-.16,4.22-.19c2.78-.1,5.49,0,8.2.06,10.74.43,21,2.07,31.14,3.64l3.59.54,1.59.23,1.63.13c1.09.1,2.22.07,3.34.1s2.28-.1,3.45-.19,2.32-.21,3.51-.4,2.35-.35,3.55-.59c2.36-.48,4.78-1,7.16-1.66,9.64-2.54,19.17-6.32,29.81-8.75a54.56,54.56,0,0,1,17.17-1.3,39.47,39.47,0,0,1,13.47,3.82c.71.35,1.44.68,2.13,1l2,1.19A55,55,0,0,1,450,90.14c1.18,1,2.3,2.26,3.44,3.43s2.05,2.49,3.07,3.76,1.78,2.63,2.66,4c.45.68.8,1.37,1.16,2l1.1,2.08.54,1.06.45,1.06.88,2.14a38.48,38.48,0,0,1,1.56,4.32A70.67,70.67,0,0,1,468,131.49a84.46,84.46,0,0,1-.94,17.16A83.52,83.52,0,0,1,462.64,165c-.51,1.31-1.05,2.61-1.6,3.89s-1.2,2.55-1.81,3.8-1.27,2.5-2,3.72-1.36,2.43-2.13,3.62a102.83,102.83,0,0,1-9.95,13.37,101.27,101.27,0,0,1-11.7,11.47A85.63,85.63,0,0,1,420.36,214a54.3,54.3,0,0,1-14.7,5.65,35.11,35.11,0,0,1-16-.38,59.56,59.56,0,0,1-15-6.35,158.74,158.74,0,0,1-26-19.47c-4-3.6-7.75-7.35-11.31-11.2a8.34,8.34,0,0,0-1.11-1l-.93-.81c-.72-.49-1.27-1-2-1.5l-1-.72c-.37-.23-.75-.44-1.1-.68-.69-.48-1.55-.88-2.27-1.35a98,98,0,0,0-11-5.14l-6.58-2.59-3.52-1.37-3.67-1.52c-2.49-1-5.11-2.27-7.77-3.59a75,75,0,0,1-8.24-4.91,52.45,52.45,0,0,1-8.24-7,43.51,43.51,0,0,1-6.87-9.56l-.72-1.32-.61-1.35c-.39-.91-.8-1.82-1.16-2.74a46.32,46.32,0,0,1-1.62-5.54l-.57-2.76-.35-2.68a45.48,45.48,0,0,1-.34-5.26c0-.46,0-.81,0-1.34,0-.71,0-1.4.09-2.09a24.09,24.09,0,0,1,.63-4.32c.07-.35.16-.72.25-1.08l.35-1.1c.24-.72.51-1.44.78-2.15a28.78,28.78,0,0,1,2.13-4c.41-.61.83-1.2,1.27-1.78.22-.29.44-.59.66-.85l.69-.77c.45-.49.92-1,1.41-1.46s.93-.84,1.42-1.26,1-.79,1.45-1.15l1.41-1c.47-.3,1-.64,1.42-.9l1.37-.76A47.56,47.56,0,0,1,293.15,89Z" style="fill:#ebebeb"></path><path d="M146.71,354a50.4,50.4,0,0,1,.71,10.09c-.09,6.46-1.55,12.37-3.14,18.14a116.67,116.67,0,0,1-6.05,16.8,74.27,74.27,0,0,1-9.35,15.3,70,70,0,0,1-13.41,13,44.23,44.23,0,0,1-18.92,7.53,42.28,42.28,0,0,1-10.9.22,34.83,34.83,0,0,1-10.15-2.73,35.58,35.58,0,0,1-8-4.94,69.86,69.86,0,0,1-6.16-5.78,25.1,25.1,0,0,1-2.69-3.53A28,28,0,0,1,56.79,414a45.49,45.49,0,0,1-2-9,76.72,76.72,0,0,1-.21-19.1,43.19,43.19,0,0,1,5.81-17.24A43.74,43.74,0,0,1,72.21,356c4.73-3.44,10.29-5.91,15.72-8.16s10.87-4.25,15.94-6.65,10-5.06,16.18-7a28.36,28.36,0,0,1,5.06-1.09,20.46,20.46,0,0,1,6,.09,15.88,15.88,0,0,1,7.25,3.53,19.78,19.78,0,0,1,1.46,1.43c.43.49.86,1,1.27,1.52A24.38,24.38,0,0,1,143,342.7a29.65,29.65,0,0,1,1.4,3c.35.93.74,2,1,2.85l.41,1.41.33,1.37C146.4,352.25,146.55,353.11,146.71,354Z" style="fill:#ebebeb"></path></g></g><g id="freepik--Stars--inject-250"><polygon points="261.27 417.59 265.51 418.38 266.46 422.85 267.4 418.38 271.65 417.59 267.42 416.56 266.46 412.34 265.49 416.56 261.27 417.59" style="fill:#455a64"></polygon><polygon points="166.35 260.51 170.59 261.3 171.54 265.77 172.49 261.3 176.73 260.51 172.51 259.48 171.54 255.25 170.58 259.48 166.35 260.51" style="fill:#455a64"></polygon><polygon points="427.77 258.67 432.01 259.45 432.96 263.92 433.91 259.45 438.15 258.66 433.93 257.63 432.96 253.41 431.99 257.63 427.77 258.67" style="fill:#455a64"></polygon><polygon points="447.91 378.39 450.28 378.83 450.81 381.33 451.34 378.83 453.71 378.39 451.35 377.82 450.81 375.46 450.27 377.82 447.91 378.39" style="fill:#455a64"></polygon><polygon points="415.44 88.18 417.81 88.62 418.34 91.12 418.87 88.62 421.25 88.18 418.88 87.6 418.34 85.24 417.8 87.6 415.44 88.18" style="fill:#455a64"></polygon><polygon points="462.16 162.51 464.53 162.95 465.06 165.45 465.59 162.95 467.96 162.51 465.6 161.94 465.06 159.57 464.52 161.94 462.16 162.51" style="fill:#455a64"></polygon><polygon points="100.1 196.03 102.47 196.47 103 198.97 103.53 196.47 105.91 196.03 103.55 195.45 103 193.09 102.47 195.45 100.1 196.03" style="fill:#455a64"></polygon><polygon points="63.01 400.68 65.38 401.12 65.91 403.62 66.44 401.12 68.81 400.68 66.45 400.1 65.91 397.74 65.37 400.1 63.01 400.68" style="fill:#455a64"></polygon><polygon points="109.62 405.19 111.99 405.63 112.52 408.13 113.05 405.63 115.42 405.19 113.06 404.61 112.52 402.25 111.98 404.61 109.62 405.19" style="fill:#455a64"></polygon><polygon points="193.14 98.31 195.51 98.75 196.04 101.25 196.57 98.75 198.94 98.31 196.58 97.74 196.04 95.38 195.5 97.74 193.14 98.31" style="fill:#455a64"></polygon><polygon points="333.52 168.39 335.89 168.83 336.42 171.33 336.95 168.83 339.32 168.39 336.96 167.81 336.42 165.45 335.88 167.81 333.52 168.39" style="fill:#455a64"></polygon><polygon points="145.11 356.36 147.48 356.8 148.01 359.3 148.54 356.8 150.91 356.36 148.55 355.79 148.01 353.42 147.47 355.79 145.11 356.36" style="fill:#455a64"></polygon><path d="M75.45,433a.69.69,0,0,1,0,1.37A.69.69,0,0,1,75.45,433Z" style="fill:#455a64"></path><path d="M385,350a.69.69,0,0,1,0,1.38A.69.69,0,0,1,385,350Z" style="fill:#455a64"></path><path d="M391.47,251.72a.69.69,0,0,1,0,1.38A.69.69,0,0,1,391.47,251.72Z" style="fill:#455a64"></path><path d="M343.4,201.05a.69.69,0,0,1,0,1.37A.69.69,0,0,1,343.4,201.05Z" style="fill:#455a64"></path><path d="M131.2,443a.69.69,0,0,1,0,1.37A.69.69,0,0,1,131.2,443Z" style="fill:#455a64"></path><path d="M103,403.13a.69.69,0,0,1,0,1.38A.69.69,0,0,1,103,403.13Z" style="fill:#455a64"></path><path d="M173.85,384.89a.69.69,0,0,1,0,1.37A.69.69,0,0,1,173.85,384.89Z" style="fill:#455a64"></path><path d="M304,403.13a.69.69,0,0,1,0,1.38A.69.69,0,0,1,304,403.13Z" style="fill:#455a64"></path><path d="M432.3,364.79a.69.69,0,0,1,0,1.37A.69.69,0,0,1,432.3,364.79Z" style="fill:#455a64"></path><path d="M388.92,283a.69.69,0,0,1,0,1.37A.69.69,0,0,1,388.92,283Z" style="fill:#455a64"></path><path d="M272.19,401.77a.49.49,0,0,1,0,1A.49.49,0,0,1,272.19,401.77Z" style="fill:#455a64"></path><path d="M122,100.19a.49.49,0,0,1,0,1A.49.49,0,0,1,122,100.19Z" style="fill:#455a64"></path><path d="M310.65,345a.49.49,0,0,1,0,1A.49.49,0,0,1,310.65,345Z" style="fill:#455a64"></path><path d="M123.19,407.64a.49.49,0,0,1,0,1A.49.49,0,0,1,123.19,407.64Z" style="fill:#455a64"></path><path d="M247.53,290.34a.49.49,0,0,1,0,1A.49.49,0,0,1,247.53,290.34Z" style="fill:#455a64"></path><path d="M352.69,295.92a1.32,1.32,0,0,1,0,2.63A1.32,1.32,0,0,1,352.69,295.92Z" style="fill:#455a64"></path><polygon points="167.99 114.3 172.24 115.08 173.18 119.56 174.13 115.08 178.37 114.3 174.15 113.27 173.18 109.04 172.22 113.27 167.99 114.3" style="fill:#455a64"></polygon><polygon points="210.5 63.63 214.74 64.41 215.69 68.89 216.64 64.41 220.88 63.63 216.65 62.59 215.69 58.37 214.72 62.59 210.5 63.63" style="fill:#455a64"></polygon><polygon points="37.33 257.43 41.57 258.22 42.52 262.69 43.47 258.22 47.71 257.43 43.48 256.4 42.52 252.18 41.55 256.4 37.33 257.43" style="fill:#455a64"></polygon><polygon points="433.57 53.19 437.81 53.97 438.76 58.44 439.71 53.97 443.95 53.19 439.73 52.15 438.76 47.93 437.8 52.15 433.57 53.19" style="fill:#455a64"></polygon><polygon points="260.65 45.59 263.03 46.03 263.56 48.53 264.09 46.03 266.46 45.59 264.1 45.01 263.56 42.65 263.02 45.01 260.65 45.59" style="fill:#455a64"></polygon><polygon points="57.21 157.81 59.58 158.25 60.11 160.75 60.64 158.25 63.01 157.81 60.65 157.23 60.11 154.87 59.57 157.23 57.21 157.81" style="fill:#455a64"></polygon><path d="M86.07,133.86a.69.69,0,0,1,0,1.37A.69.69,0,0,1,86.07,133.86Z" style="fill:#455a64"></path><path d="M52.75,379.38a.69.69,0,0,1,0,1.38A.69.69,0,0,1,52.75,379.38Z" style="fill:#455a64"></path><path d="M90.19,356.36a.69.69,0,0,1,0,1.38A.69.69,0,0,1,90.19,356.36Z" style="fill:#455a64"></path><path d="M34.47,182.32a.69.69,0,0,1,0,1.38A.69.69,0,0,1,34.47,182.32Z" style="fill:#455a64"></path><path d="M90.19,79a.69.69,0,0,1,0,1.38A.69.69,0,0,1,90.19,79Z" style="fill:#455a64"></path><path d="M423.53,183a.69.69,0,0,1,0,1.38A.69.69,0,0,1,423.53,183Z" style="fill:#455a64"></path><path d="M152.58,289.5a.49.49,0,0,1,0,1A.49.49,0,0,1,152.58,289.5Z" style="fill:#455a64"></path><path d="M152.11,414.75a.49.49,0,0,1,0,1A.49.49,0,0,1,152.11,414.75Z" style="fill:#455a64"></path><polygon points="400.5 129 402.87 129.44 403.4 131.94 403.93 129.44 406.3 129 403.94 128.42 403.4 126.06 402.86 128.42 400.5 129" style="fill:#455a64"></polygon><path d="M393.89,131.36a.69.69,0,0,1,0,1.38A.69.69,0,0,1,393.89,131.36Z" style="fill:#455a64"></path><path d="M323.68,62.65a.49.49,0,0,1,0,1A.49.49,0,0,1,323.68,62.65Z" style="fill:#455a64"></path><path d="M220.26,459.87a.49.49,0,0,1,0,1A.49.49,0,0,1,220.26,459.87Z" style="fill:#455a64"></path><path d="M443,143a.49.49,0,0,1,0,1A.49.49,0,0,1,443,143Z" style="fill:#455a64"></path><path d="M345.17,119.07a.49.49,0,0,1,0,1A.49.49,0,0,1,345.17,119.07Z" style="fill:#455a64"></path><path d="M346.58,44.62a.49.49,0,0,1,0,1A.49.49,0,0,1,346.58,44.62Z" style="fill:#455a64"></path><path d="M210.36,272.23a1.32,1.32,0,0,1,0,2.63A1.32,1.32,0,0,1,210.36,272.23Z" style="fill:#455a64"></path><path d="M390.19,204.79a1.32,1.32,0,0,1,0,2.64A1.32,1.32,0,0,1,390.19,204.79Z" style="fill:#455a64"></path><path d="M92.42,206.11a1.32,1.32,0,0,1,0,2.64A1.32,1.32,0,0,1,92.42,206.11Z" style="fill:#455a64"></path><path d="M455,214.06a1.32,1.32,0,0,1,0,2.63A1.32,1.32,0,0,1,455,214.06Z" style="fill:#455a64"></path><path d="M74.06,334.68a1.32,1.32,0,0,1,0,2.64A1.32,1.32,0,0,1,74.06,334.68Z" style="fill:#455a64"></path><polygon points="140.52 77.41 142.89 77.85 143.42 80.35 143.95 77.85 146.32 77.41 143.96 76.83 143.42 74.47 142.88 76.83 140.52 77.41" style="fill:#455a64"></polygon><polygon points="269.8 325.91 272.17 326.34 272.7 328.84 273.23 326.34 275.6 325.9 273.24 325.33 272.7 322.97 272.16 325.33 269.8 325.91" style="fill:#455a64"></polygon><path d="M346.35,440.15a.69.69,0,0,1,0,1.38A.69.69,0,0,1,346.35,440.15Z" style="fill:#455a64"></path><path d="M300.79,433.67a.69.69,0,0,1,0,1.38A.69.69,0,0,1,300.79,433.67Z" style="fill:#455a64"></path><polygon points="315.45 250 317.82 250.44 318.35 252.94 318.88 250.44 321.25 250 318.89 249.42 318.35 247.06 317.81 249.42 315.45 250" style="fill:#455a64"></polygon><polygon points="396.72 392.49 399.09 392.93 399.62 395.42 400.15 392.93 402.52 392.49 400.16 391.91 399.62 389.55 399.08 391.91 396.72 392.49" style="fill:#455a64"></polygon><polygon points="402.3 452.39 404.67 452.83 405.2 455.33 405.73 452.83 408.1 452.39 405.74 451.81 405.2 449.45 404.66 451.81 402.3 452.39" style="fill:#455a64"></polygon><path d="M325.46,118.18a.69.69,0,0,1,0,1.38A.69.69,0,0,1,325.46,118.18Z" style="fill:#455a64"></path><path d="M402.52,424a.49.49,0,0,1,0,1A.49.49,0,0,1,402.52,424Z" style="fill:#455a64"></path><polygon points="60.11 272.23 62.48 272.67 63.01 275.17 63.54 272.67 65.91 272.23 63.55 271.65 63.01 269.29 62.47 271.65 60.11 272.23" style="fill:#455a64"></polygon><path d="M32.7,323.11a.69.69,0,0,1,0,1.37A.69.69,0,0,1,32.7,323.11Z" style="fill:#455a64"></path><path d="M202.51,214.69a.69.69,0,0,1,0,1.37A.69.69,0,0,1,202.51,214.69Z" style="fill:#455a64"></path><path d="M152.11,138.61a.49.49,0,0,1,0,1A.49.49,0,0,1,152.11,138.61Z" style="fill:#455a64"></path><path d="M72.79,53.19a1.32,1.32,0,0,1,0,2.63A1.32,1.32,0,0,1,72.79,53.19Z" style="fill:#455a64"></path><path d="M385.17,82.61a1.32,1.32,0,0,1,0,2.63A1.32,1.32,0,0,1,385.17,82.61Z" style="fill:#455a64"></path></g><g id="freepik--astronaut-helmet--inject-250"><path d="M418.9,359.68v38.39c0,24.71-110.24,41.19-168.91,41.19S81.1,422.78,81.1,398.07V359.68c0-9.37,11.89-32.56,168.89-32.56S418.9,350.31,418.9,359.68Z" style="fill:#FFC727"></path><path d="M417.34,359.53c-1.3,19.57-62.33,30-78.92,33.05a575.81,575.81,0,0,1-88.42,8,575.69,575.69,0,0,1-88.42-8c-21.78-4-44-8.13-64.08-17.75-6.12-3.28-14.27-7.59-14.84-15.31,1.12,12.16,25.93,18.92,36,21.88,28.46,7.71,57.89,11.39,87.2,14.11,44.09,4.18,88.48,1.41,132.19-5.21,16.59-2.75,77.48-11.92,79.29-30.78Z" style="opacity:0.2"></path><path d="M388,400c0,3.91-2.68,7.07-6,7.07s-6-3.16-6-7.07,2.69-7.08,6-7.08S388,396,388,400Z" style="opacity:0.2"></path><path d="M385.51,400c0,3.57-2.13,6.47-4.76,6.47S376,403.52,376,400s2.14-6.47,4.77-6.47S385.51,396.38,385.51,400Z" style="fill:#263238"></path><ellipse cx="132.41" cy="406.42" rx="7.15" ry="7.07" style="opacity:0.2"></ellipse><ellipse cx="133.88" cy="406.42" rx="5.67" ry="6.47" style="fill:#263238"></ellipse><path d="M408.67,392.87c0,3.91-2.68,7.08-6,7.08s-6-3.17-6-7.08,2.69-7.07,6-7.07S408.67,389,408.67,392.87Z" style="opacity:0.2"></path><path d="M406.19,392.87c0,3.58-2.13,6.47-4.76,6.47s-4.76-2.89-4.76-6.47,2.13-6.46,4.76-6.46S406.19,389.3,406.19,392.87Z" style="fill:#263238"></path><path d="M118.36,396.34v12.42s-25-6.18-37.26-16.24V379.26C88.35,385.36,103.35,393.39,118.36,396.34Z" style="opacity:0.2"></path><path d="M118.36,396.34v9.85c-7.38-1.75-26.47-6.93-35.7-15.54V380.51C90.36,386.4,104.36,393.58,118.36,396.34Z" style="fill:#263238"></path><path d="M129.94,416.46C140.69,417.79,145,409.17,141,400a12.27,12.27,0,0,1,3,6.2,11.8,11.8,0,0,1,.13,2.72,9.62,9.62,0,0,1-14.23,7.59Z" style="opacity:0.2"></path><path d="M96.48,346.76c-3,2.65-6.7,5.79-7,10-.18,9.75,23.17,15.63,31,18,16.6,4.61,33.72,7.75,50.53,11.57-20.31-1.67-65-7.89-79.63-21.75-7.1-7.11-1.93-13.59,5.13-17.79Z" style="fill:#fff"></path><path d="M413.35,209.23H86.66c0-87.23,88-148.49,163.34-148.49S413.35,122,413.35,209.23Z" style="fill:#FFC727"></path><g style="opacity:0.5"><path d="M139.32,127.41c27.54-17.34,61.08-23.87,93.32-22.61-32.06,2.94-63.94,9-93.32,22.61Z" style="fill:#fff"></path><path d="M100.33,160c6.3-12.59,19.22-23,32-28.51-1.34,1.26-2.75,2.37-4.12,3.54-9.66,8-19.16,16-27.89,25Z" style="fill:#fff"></path></g><g style="opacity:0.5"><path d="M190.87,92.66c0,1.65-2.24,3-5,3s-5-1.33-5-3,2.25-3,5-3S190.87,91,190.87,92.66Z" style="fill:#fff"></path><path d="M220.58,83.12c.31,4.19-5.16,8-12.22,8.53S195.33,89.2,195,85s5.16-8,12.22-8.53S220.27,78.93,220.58,83.12Z" style="fill:#fff"></path></g><path d="M413.35,209.23H86.66c8-80.41,114.45-100.85,163.34-100.85S405.29,128.82,413.35,209.23Z" style="opacity:0.1"></path><path d="M396.8,209.23V353.29c-39.16,24.84-81.2,37.26-146.8,37.26s-107.64-12.42-146.81-37.26V209.23Z" style="fill:#FFC727"></path><path d="M396.8,263v90.31c-39.17,24.84-81.2,37.26-146.81,37.26s-107.63-12.42-146.8-37.26V293.82c.2-.23.32-.35.32-.35s9,47.89,14.85,54C129.94,359.53,186,385.8,244.9,385.8c83.1,0,120.85-24.51,137.09-37.4C394.51,338.45,396.53,286.26,396.8,263Z" style="opacity:0.1"></path><path d="M378.16,169.53c-24-44.07-96.36-52.67-128.17-52.67s-104.16,8.6-128.17,52.67-17.91,144.71,9,167.28S221.26,365.47,250,365.47s92.35-6.09,119.22-28.66S402.16,213.58,378.16,169.53ZM250,354.13c-118.6,0-138.84-54.54-138.84-97.45s14.1-73.06,35.82-88.23c25.61-17.88,67-3,103-3s77.41-14.89,103,3c21.72,15.17,35.82,45.34,35.82,88.23S368.6,354.13,250,354.13Z" style="fill:#FFC727"></path><path d="M378.16,169.53c-24-44.07-96.36-52.67-128.17-52.67s-104.17,8.6-128.16,52.67-17.92,144.71,9,167.28S221.26,365.48,250,365.48s92.35-6.1,119.22-28.67S402.17,213.59,378.16,169.53ZM250,354.13c-118.6,0-138.84-54.54-138.84-97.44s14.1-73.07,35.82-88.24c25.62-17.88,67-3,103-3s77.41-14.89,103,3c21.72,15.17,35.82,45.34,35.82,88.24S368.6,354.13,250,354.13Z" style="opacity:0.30000000000000004"></path><path d="M369.21,336.81c-18.37,15.42-53.89,23.16-83.72,26.5,71.59-14.43,48.34-22.12,47.49-22.4,46-18.81,55.87-54.34,55.87-84.23,0-42.89-14.1-73.06-35.82-88.23-25.62-17.88-67-3-103-3-4.47,0-9-.22-13.63-.6,28.05.69,80.05-8.61,80.05-19.14s-27.22-23.49-54.06-28.48c35.35,2,94.55,13.26,115.8,52.29C402.16,213.58,396.08,314.24,369.21,336.81Z" style="opacity:0.1"></path><g style="opacity:0.5"><path d="M145.6,158.94c.21,1.25-1.33,2.56-3.44,2.93s-4-.37-4.22-1.62,1.32-2.57,3.44-2.93S145.38,157.68,145.6,158.94Z" style="fill:#fff"></path><path d="M167,147.77c.78,3.16-2.89,6.79-8.21,8.11s-10.27-.17-11.06-3.33,2.9-6.79,8.22-8.11S166.25,144.61,167,147.77Z" style="fill:#fff"></path></g><path d="M388.85,256.69c0,42.9-20.25,97.44-138.85,97.44s-138.84-54.54-138.84-97.44,14.1-73.07,35.82-88.24c25.62-17.88,67-3,103-3s77.41-14.89,103,3C374.75,183.62,388.85,213.79,388.85,256.69Z" style="fill:#263238"></path><path d="M388.19,269.6c-.07.69-.15,1.39-.24,2.08-2.39,19.13-10.14,39-29.32,54.43-11.66,9.39-27.54,17.14-49,22.09a246.36,246.36,0,0,1-45.22,5.64q-6.94.29-14.39.29-8.59,0-16.5-.38l-.7,0h-.11s0,0,0,0c-.52-.88-1-1.76-1.53-2.66a89.57,89.57,0,0,1-4.76-10.14c-.54-1.37-1-2.75-1.52-4.13-.16-.44-.3-.88-.44-1.32s-.28-.88-.41-1.33c-.27-.89-.53-1.78-.76-2.66-.1-.33-.18-.65-.26-1-.27-1-.51-2-.73-3.06l-.27-1.27a.32.32,0,0,1,0-.14c-.15-.74-.29-1.48-.42-2.23s-.26-1.49-.36-2.25a.45.45,0,0,1,0-.16c-.09-.52-.15-1-.21-1.54s-.13-1.08-.2-1.62c-.18-1.68-.33-3.38-.41-5.06,0-.67-.06-1.35-.08-2l0-1.13c0-.48,0-1,0-1.47,0-.71,0-1.42,0-2.12,0-.51,0-1,.05-1.52,0-.26,0-.51,0-.76.06-1.21.14-2.41.26-3.61l.09-1c.06-.6.14-1.19.21-1.78s.18-1.42.29-2.14c.2-1.42.45-2.84.73-4.26a88.46,88.46,0,0,1,117.94-65.72l2,.77c.4.15.78.32,1.16.49s.89.36,1.33.55l.57.26c.66.29,1.3.59,1.94.9a.65.65,0,0,1,.17.08c.51.24,1,.48,1.51.74l1,.5c.67.35,1.33.71,2,1.07s1.44.8,2.14,1.22c.09,0,.18.1.27.15l2,1.24,2.16,1.41,1,.66c2.1,1.44,4.13,3,6.11,4.62.38.31.75.63,1.12.95s.76.65,1.12,1,.75.65,1.11,1l.15.14a88.33,88.33,0,0,1,17.6,22.51C386.94,267.13,387.58,268.36,388.19,269.6Z" style="fill:#dbdbdb"></path><path d="M226.38,340.92c4-4.16,12.21-11.86,26.14-19.38,16.86-9.11,63.73-21.36,84.83-34.25,29.69-18.11,32.19-35.24,31.32-43.91a88.45,88.45,0,0,0-28.82-17.71c-1.48,9.1-7.53,37.58-57.47,59.86-25.78,11.47-51.68,7.28-60.47,5.86A87.94,87.94,0,0,0,226.38,340.92Z" style="fill:#c7c7c7"></path><path d="M233.26,353.66l.24.09-.7,0c.14,0,.3,0,.45-.06Z" style="fill:#c7c7c7"></path><path d="M388,271.68c-2.39,19.13-10.14,39-29.32,54.43a105.91,105.91,0,0,0-21.94,7.17,202.08,202.08,0,0,0-27.08,14.92,246.36,246.36,0,0,1-45.22,5.64c8-2.26,17.46-6.34,28.32-13.19s23.07-16.45,36.78-29.76C363.34,278,381.22,272.43,388,271.68Z" style="fill:#c7c7c7"></path><path d="M312.91,257.33c1.89,3.45,7.48,4,12.49,1.26s7.54-7.77,5.65-11.22-7.49-4-12.5-1.25S311,253.89,312.91,257.33Z" style="fill:#a6a6a6"></path><path d="M338.42,261.33c1.06,1.94,4.36,2.18,7.37.53s4.58-4.57,3.51-6.51-4.37-2.17-7.37-.52S337.35,259.39,338.42,261.33Z" style="fill:#a6a6a6"></path><polygon points="201.33 327.2 205.53 327.98 206.47 332.4 207.41 327.98 211.6 327.2 207.42 326.18 206.47 322 205.51 326.18 201.33 327.2" style="fill:#fff"></polygon><polygon points="165.24 311.82 167.59 312.26 168.11 314.73 168.64 312.26 170.98 311.82 168.65 311.25 168.11 308.92 167.58 311.25 165.24 311.82" style="fill:#fff"></polygon><polygon points="267.74 191.61 270.08 192.05 270.61 194.52 271.13 192.05 273.48 191.61 271.14 191.04 270.61 188.71 270.07 191.04 267.74 191.61" style="fill:#fff"></polygon><polygon points="374.52 244.27 376.87 244.7 377.39 247.18 377.91 244.7 380.26 244.27 377.92 243.7 377.39 241.36 376.86 243.7 374.52 244.27" style="fill:#fff"></polygon><path d="M312.28,201.94a.68.68,0,0,1,0,1.36A.68.68,0,0,1,312.28,201.94Z" style="fill:#fff"></path><path d="M197.34,193.47a.48.48,0,0,1,0,1A.48.48,0,0,1,197.34,193.47Z" style="fill:#fff"></path><polygon points="242.87 207.43 247.06 208.2 248 212.63 248.94 208.2 253.13 207.43 248.96 206.4 248 202.23 247.04 206.4 242.87 207.43" style="fill:#fff"></polygon><polygon points="348 227.14 352.2 227.91 353.13 232.34 354.07 227.91 358.27 227.13 354.09 226.11 353.13 221.94 352.18 226.11 348 227.14" style="fill:#fff"></polygon><polygon points="133.28 250.47 135.63 250.9 136.15 253.37 136.67 250.9 139.02 250.46 136.68 249.89 136.15 247.56 135.62 249.89 133.28 250.47" style="fill:#fff"></polygon><path d="M161.83,226.77a.68.68,0,0,1,0,1.36A.68.68,0,0,1,161.83,226.77Z" style="fill:#fff"></path><path d="M118.75,226.09a.68.68,0,0,1,0,1.36A.68.68,0,0,1,118.75,226.09Z" style="fill:#fff"></path><path d="M165.9,172.48a.68.68,0,0,1,0,1.36A.68.68,0,0,1,165.9,172.48Z" style="fill:#fff"></path><path d="M349.31,187.4a1.31,1.31,0,0,1,0,2.61A1.31,1.31,0,0,1,349.31,187.4Z" style="fill:#fff"></path><path d="M168.11,298.24a1.31,1.31,0,0,1,0,2.61A1.31,1.31,0,0,1,168.11,298.24Z" style="fill:#fff"></path><polygon points="215.69 170.94 218.03 171.37 218.56 173.84 219.08 171.37 221.43 170.94 219.09 170.37 218.56 168.03 218.02 170.37 215.69 170.94" style="fill:#fff"></polygon><polygon points="215.69 272.18 218.03 272.62 218.56 275.09 219.08 272.62 221.43 272.18 219.09 271.61 218.56 269.28 218.02 271.61 215.69 272.18" style="fill:#fff"></polygon><path d="M147.44,285.72a.68.68,0,0,1,0,1.36A.68.68,0,0,1,147.44,285.72Z" style="fill:#fff"></path><path d="M227.15,231.47a.48.48,0,0,1,0,1A.48.48,0,0,1,227.15,231.47Z" style="fill:#fff"></path><g style="opacity:0.1"><path d="M290.42,161.85A1225.36,1225.36,0,0,1,121,301.31c-7.51-14.52-9.79-30.22-9.79-44.62q0-5.66.32-11a1198.92,1198.92,0,0,0,105.8-82.88c11,1.37,22.09,2.66,32.72,2.66C263.11,165.46,276.92,163.49,290.42,161.85Z" style="fill:#fff"></path><path d="M376.05,306.6c-6.2,9.94-15.13,19.14-27.82,26.75Q362.41,320.1,376.05,306.6Z" style="fill:#fff"></path><path d="M371.63,188A1263.13,1263.13,0,0,1,192.86,348.75,161.31,161.31,0,0,1,171,342.44,1252.2,1252.2,0,0,0,360.61,174.65,74.29,74.29,0,0,1,371.63,188Z" style="fill:#fff"></path><path d="M384,216.75A1281,1281,0,0,1,235.35,353.83h0c-1.61-.07-3.2-.14-4.78-.23A1277.36,1277.36,0,0,0,383.07,213.36C383.42,214.47,383.74,215.6,384,216.75Z" style="fill:#fff"></path><path d="M305.94,160.21A1228.67,1228.67,0,0,1,126.3,310.14c-.6-.85-1.18-1.71-1.72-2.57A1227.08,1227.08,0,0,0,301.39,160.62C302.92,160.46,304.43,160.33,305.94,160.21Z" style="fill:#fff"></path></g><rect x="89.76" y="209.23" width="13.43" height="66.51" style="fill:#FFC727"></rect><polygon points="93.35 209.23 103.2 209.23 103.2 275.74 99.44 275.74 93.35 209.23" style="opacity:0.1"></polygon><rect x="79.91" y="289.5" width="9.85" height="38.43" style="fill:#FFC727"></rect><polygon points="82.54 289.5 89.76 289.5 89.76 327.94 87 327.94 82.54 289.5" style="opacity:0.1"></polygon><rect x="78.48" y="209.23" width="11.28" height="66.51" style="fill:#FFC727"></rect><polygon points="89.76 275.74 86.65 275.74 82.78 209.23 89.76 209.23 89.76 275.74" style="opacity:0.1"></polygon><rect x="89.76" y="275.73" width="13.43" height="65.97" style="fill:#37474f"></rect><polygon points="103.2 341.71 99.49 341.71 94.88 275.74 103.2 275.74 103.2 341.71" style="opacity:0.1"></polygon><path d="M78.15,235h.33a0,0,0,0,1,0,0v33.49a0,0,0,0,1,0,0h-.33a4.32,4.32,0,0,1-4.32-4.32V239.31A4.32,4.32,0,0,1,78.15,235Z" style="fill:#FFC727"></path><path d="M78.48,235v33.49a3.9,3.9,0,0,1-1-.11L76.2,235.59A4.54,4.54,0,0,1,78.48,235Z" style="opacity:0.1"></path><path d="M77.67,300.85h2.24a0,0,0,0,1,0,0v15.74a0,0,0,0,1,0,0H77.67a3.84,3.84,0,0,1-3.84-3.84v-8.05A3.84,3.84,0,0,1,77.67,300.85Z" style="fill:#455a64"></path><rect x="396.8" y="209.23" width="13.43" height="66.51" transform="translate(807.04 484.96) rotate(180)" style="fill:#FFC727"></rect><polygon points="406.65 209.23 396.8 209.23 396.8 275.74 400.56 275.74 406.65 209.23" style="opacity:0.1"></polygon><rect x="410.24" y="289.5" width="9.85" height="38.43" transform="translate(830.32 617.44) rotate(180)" style="fill:#FFC727"></rect><polygon points="417.46 289.5 410.24 289.5 410.24 327.94 413 327.94 417.46 289.5" style="opacity:0.1"></polygon><rect x="410.24" y="209.23" width="11.28" height="66.51" transform="translate(831.76 484.96) rotate(180)" style="fill:#FFC727"></rect><polygon points="410.24 275.74 413.35 275.74 417.22 209.23 410.24 209.23 410.24 275.74" style="opacity:0.1"></polygon><rect x="396.8" y="275.73" width="13.43" height="65.97" transform="translate(807.04 617.44) rotate(180)" style="fill:#37474f"></rect><polygon points="396.8 341.71 400.51 341.71 405.12 275.74 396.8 275.74 396.8 341.71" style="opacity:0.1"></polygon><path d="M425.84,235h.33a0,0,0,0,1,0,0v33.49a0,0,0,0,1,0,0h-.33a4.32,4.32,0,0,1-4.32-4.32V239.31a4.32,4.32,0,0,1,4.32-4.32Z" transform="translate(847.7 503.47) rotate(180)" style="fill:#FFC727"></path><path d="M421.52,235v33.49a3.9,3.9,0,0,0,1-.11l1.31-32.78A4.54,4.54,0,0,0,421.52,235Z" style="opacity:0.1"></path><path d="M423.93,300.85h2.24a0,0,0,0,1,0,0v15.74a0,0,0,0,1,0,0h-2.24a3.84,3.84,0,0,1-3.84-3.84v-8.05A3.84,3.84,0,0,1,423.93,300.85Z" transform="translate(846.26 617.44) rotate(180)" style="fill:#455a64"></path></g></svg>
