<svg xmlns="http://www.w3.org/2000/svg" viewBox="0 0 750 500"><g id="freepik--background-complete--inject-217"><rect x="38.34" y="265.07" width="97.32" height="34.91" style="fill:#fafafa"></rect><rect x="142.27" y="265.07" width="97.32" height="34.91" style="fill:#fafafa"></rect><rect x="246.2" y="265.07" width="97.32" height="34.91" style="fill:#fafafa"></rect><rect x="350.14" y="265.07" width="97.32" height="34.91" style="fill:#fafafa"></rect><rect x="454.07" y="265.07" width="97.32" height="34.91" style="fill:#fafafa"></rect><rect x="558" y="265.07" width="97.32" height="34.91" style="fill:#fafafa"></rect><rect x="83.47" y="305.77" width="97.32" height="34.91" style="fill:#fafafa"></rect><rect x="187.31" y="305.77" width="97.32" height="34.91" style="fill:#fafafa"></rect><rect x="291.15" y="305.77" width="97.32" height="34.91" style="fill:#fafafa"></rect><rect x="394.98" y="305.77" width="97.32" height="34.91" style="fill:#fafafa"></rect><rect x="498.82" y="305.77" width="97.32" height="34.91" style="fill:#fafafa"></rect><rect x="602.66" y="305.77" width="97.32" height="34.91" style="fill:#fafafa"></rect><rect x="38.34" y="305.71" width="39.2" height="34.91" style="fill:#fafafa"></rect><rect x="662.46" y="265.07" width="39.2" height="34.91" style="fill:#fafafa"></rect><path d="M78.74,404.33l.58,51.7a5.38,5.38,0,0,0,5.38,5.19h0a5.39,5.39,0,0,0,5.4-5.54V404.45Z" style="fill:#ebebeb"></path><path d="M78.74,404.33H90.23v.12c0,5.91,0,13.83.07,23.08,0,4.63,0,9.6,0,14.82v12.13a19,19,0,0,1,0,2.12A5.62,5.62,0,0,1,87,461a5.76,5.76,0,0,1-3.4.37,5.65,5.65,0,0,1-4.41-4.61,10,10,0,0,1-.08-1.62c0-.53,0-1.06,0-1.59q0-1.57,0-3.12,0-3.09-.06-6c-.06-7.85-.12-14.93-.16-20.89s-.07-10.69-.09-14v-4.78c0-.22,0-.32,0-.32a1.55,1.55,0,0,1,0,.36c0,.25,0,.58,0,1,0,.91,0,2.2.08,3.85,0,3.35.13,8.15.23,14.07s.19,13,.3,20.81c0,1.95,0,4,.07,6,0,1,0,2.06,0,3.11,0,.52,0,1,0,1.57a11.4,11.4,0,0,0,.08,1.56,5.15,5.15,0,0,0,7.18,3.89,5.19,5.19,0,0,0,3-4,19.76,19.76,0,0,0,.05-2.05v-4.13c0-2.72,0-5.4,0-8,0-5.21,0-10.18,0-14.82,0-9.25,0-17.17.07-23.08l.13.13-8.33-.16-2.24-.06H79Z" style="fill:#e0e0e0"></path><path d="M80.2,430.84l.06,24.62a4.57,4.57,0,0,0,4.55,4.4h0a4.57,4.57,0,0,0,4.57-4.69l-.18-24.23Z" style="fill:#f5f5f5"></path><rect x="75.39" y="400.63" width="18.05" height="11.09" rx="2.19" style="fill:#ebebeb"></rect><path d="M76.68,411.58a65.28,65.28,0,0,1,0-10.95,65.28,65.28,0,0,1,0,10.95Z" style="fill:#e0e0e0"></path><path d="M79.22,411.58a65.28,65.28,0,0,1,0-10.95,65.28,65.28,0,0,1,0,10.95Z" style="fill:#e0e0e0"></path><path d="M81.76,411.58a65.28,65.28,0,0,1,0-10.95,65.28,65.28,0,0,1,0,10.95Z" style="fill:#e0e0e0"></path><path d="M84.3,411.58a65.28,65.28,0,0,1,0-10.95,65.28,65.28,0,0,1,0,10.95Z" style="fill:#e0e0e0"></path><path d="M86.84,411.58a65.28,65.28,0,0,1,0-10.95,65.28,65.28,0,0,1,0,10.95Z" style="fill:#e0e0e0"></path><path d="M89.38,411.58a65.28,65.28,0,0,1,0-10.95,65.28,65.28,0,0,1,0,10.95Z" style="fill:#e0e0e0"></path><path d="M91.92,411.58a65.28,65.28,0,0,1,0-10.95,65.28,65.28,0,0,1,0,10.95Z" style="fill:#e0e0e0"></path><path d="M104.55,404.33l.58,51.7a5.38,5.38,0,0,0,5.37,5.19h0a5.38,5.38,0,0,0,5.4-5.54V404.45Z" style="fill:#ebebeb"></path><path d="M104.55,404.33H116v.12c0,5.91,0,13.83.07,23.08,0,4.63,0,9.6,0,14.82q0,3.91,0,8v4.12a16.89,16.89,0,0,1-.06,2.12,5.44,5.44,0,0,1-.71,2.06,5.61,5.61,0,0,1-2.58,2.31,5.73,5.73,0,0,1-3.39.37,5.67,5.67,0,0,1-4.42-4.61,11.26,11.26,0,0,1-.08-1.62c0-.53,0-1.06,0-1.59q0-1.57,0-3.12,0-3.09-.06-6c-.06-7.85-.12-14.93-.17-20.89s-.06-10.69-.08-14c0-1.63,0-2.91,0-3.8,0-.41,0-.73,0-1a1.5,1.5,0,0,1,0-.32s0,.13,0,.36,0,.58,0,1c0,.91,0,2.2.07,3.85.06,3.35.14,8.15.24,14.07s.18,13,.29,20.81c0,1.95,0,4,.08,6,0,1,0,2.06,0,3.11,0,.52,0,1,0,1.57a8.91,8.91,0,0,0,.08,1.56,5.16,5.16,0,0,0,9.55,1.77,5.12,5.12,0,0,0,.65-1.89,19.72,19.72,0,0,0,.06-2.05V442.35c0-5.21,0-10.18,0-14.82,0-9.25.06-17.17.08-23.08l.12.13-8.33-.16-2.23-.06h-.58Z" style="fill:#e0e0e0"></path><path d="M106,430.84l.06,24.62a4.56,4.56,0,0,0,4.55,4.4h0a4.56,4.56,0,0,0,4.56-4.69L115,430.94Z" style="fill:#f5f5f5"></path><rect x="101.2" y="400.63" width="18.05" height="11.09" rx="2.19" style="fill:#ebebeb"></rect><path d="M102.49,411.58a65.28,65.28,0,0,1,0-10.95,68.24,68.24,0,0,1,0,10.95Z" style="fill:#e0e0e0"></path><path d="M105,411.58a65.28,65.28,0,0,1,0-10.95,68.24,68.24,0,0,1,0,10.95Z" style="fill:#e0e0e0"></path><path d="M107.57,411.58a65.28,65.28,0,0,1,0-10.95,68.24,68.24,0,0,1,0,10.95Z" style="fill:#e0e0e0"></path><path d="M110.1,411.58a68.24,68.24,0,0,1,0-10.95,65.28,65.28,0,0,1,0,10.95Z" style="fill:#e0e0e0"></path><path d="M112.64,411.58a68.24,68.24,0,0,1,0-10.95,65.28,65.28,0,0,1,0,10.95Z" style="fill:#e0e0e0"></path><path d="M115.18,411.58a68.24,68.24,0,0,1,0-10.95,65.28,65.28,0,0,1,0,10.95Z" style="fill:#e0e0e0"></path><path d="M117.72,411.58a68.24,68.24,0,0,1,0-10.95,65.28,65.28,0,0,1,0,10.95Z" style="fill:#e0e0e0"></path><path d="M130.35,404.33l.58,51.7a5.39,5.39,0,0,0,5.38,5.19h0a5.39,5.39,0,0,0,5.4-5.54V404.45Z" style="fill:#ebebeb"></path><path d="M130.35,404.33h11.49v.12c0,5.91,0,13.83.07,23.08,0,4.63,0,9.6,0,14.82v12.13c0,.69,0,1.39-.06,2.12a5.62,5.62,0,0,1-3.29,4.37,5.76,5.76,0,0,1-3.4.37,5.66,5.66,0,0,1-4.41-4.61,11.26,11.26,0,0,1-.08-1.62c0-.53,0-1.06,0-1.59l0-3.12q0-3.09-.06-6c-.06-7.85-.12-14.93-.16-20.89s-.07-10.69-.09-14v-4.78c0-.22,0-.32,0-.32a1.55,1.55,0,0,1,0,.36c0,.25,0,.58,0,1,0,.91,0,2.2.08,3.85.05,3.35.13,8.15.23,14.07s.19,13,.3,20.81c0,1.95.05,4,.08,6,0,1,0,2.06,0,3.11,0,.52,0,1,0,1.57a11.4,11.4,0,0,0,.08,1.56,5.16,5.16,0,0,0,9.55,1.77,5.14,5.14,0,0,0,.66-1.89,19.76,19.76,0,0,0,0-2.05v-4.13c0-2.72,0-5.4,0-8,0-5.21,0-10.18,0-14.82,0-9.25.05-17.17.07-23.08l.13.13-8.33-.16-2.24-.06h-.58Z" style="fill:#e0e0e0"></path><path d="M131.81,430.84l.06,24.62a4.57,4.57,0,0,0,4.55,4.4h0a4.57,4.57,0,0,0,4.57-4.69l-.18-24.23Z" style="fill:#f5f5f5"></path><rect x="127" y="400.63" width="18.05" height="11.09" rx="2.19" style="fill:#ebebeb"></rect><path d="M128.29,411.58a65.28,65.28,0,0,1,0-10.95,65.28,65.28,0,0,1,0,10.95Z" style="fill:#e0e0e0"></path><path d="M130.83,411.58a65.28,65.28,0,0,1,0-10.95,65.28,65.28,0,0,1,0,10.95Z" style="fill:#e0e0e0"></path><path d="M133.37,411.58a65.28,65.28,0,0,1,0-10.95,65.28,65.28,0,0,1,0,10.95Z" style="fill:#e0e0e0"></path><path d="M135.91,411.58a65.28,65.28,0,0,1,0-10.95,65.28,65.28,0,0,1,0,10.95Z" style="fill:#e0e0e0"></path><path d="M138.45,411.58a65.28,65.28,0,0,1,0-10.95,65.28,65.28,0,0,1,0,10.95Z" style="fill:#e0e0e0"></path><path d="M141,411.58a65.28,65.28,0,0,1,0-10.95,65.28,65.28,0,0,1,0,10.95Z" style="fill:#e0e0e0"></path><path d="M143.53,411.58a65.28,65.28,0,0,1,0-10.95,65.28,65.28,0,0,1,0,10.95Z" style="fill:#e0e0e0"></path><rect x="64.34" y="417.82" width="96.35" height="2.56" rx="1.21" style="fill:#e0e0e0"></rect><rect x="64.34" y="460.9" width="91.53" height="3.53" style="fill:#e0e0e0"></rect><rect x="69.12" y="418.61" width="3.99" height="44.05" style="fill:#e0e0e0"></rect><rect x="148.24" y="418.61" width="3.99" height="44.05" style="fill:#e0e0e0"></rect><polygon points="626.92 321.67 639.3 323.11 641.26 325.6 640.25 333.34 637.65 335.33 625.75 333.16 626.92 321.67" style="fill:#e0e0e0"></polygon><path d="M639.18,323a74.28,74.28,0,0,1-1.68,11.86,36.8,36.8,0,0,1,.6-6A35.67,35.67,0,0,1,639.18,323Z" style="fill:#ebebeb"></path><path d="M635.6,334.93a75.83,75.83,0,0,1,1.9-12,36.38,36.38,0,0,1-.71,6A37.7,37.7,0,0,1,635.6,334.93Z" style="fill:#ebebeb"></path><path d="M615,341.09c0,.71,7.92,12,7.92,12h7.24l2.78-2,1.23-7-8.65-11.22Z" style="fill:#e0e0e0"></path><path d="M634.17,344.06a12.09,12.09,0,0,1-1.7,1.29c-1.07.76-2.52,1.85-4.07,3.11-3.11,2.54-5.46,4.8-5.56,4.7a8.79,8.79,0,0,1,1.42-1.61c.93-.94,2.27-2.18,3.83-3.46a40.51,40.51,0,0,1,4.19-3A7.88,7.88,0,0,1,634.17,344.06Z" style="fill:#ebebeb"></path><path d="M633.33,343a72,72,0,0,0-6,4,55.81,55.81,0,0,0-5.15,5,7,7,0,0,1,1.19-1.77,23.65,23.65,0,0,1,3.66-3.63,25.93,25.93,0,0,1,4.3-2.84A6.92,6.92,0,0,1,633.33,343Z" style="fill:#ebebeb"></path><rect x="600.96" y="340.04" width="13.29" height="18.12" style="fill:#e0e0e0"></rect><path d="M614.43,356.12a87.77,87.77,0,0,1-13.24,0,91.42,91.42,0,0,1,13.24,0Z" style="fill:#ebebeb"></path><path d="M614.52,354.49a87.77,87.77,0,0,1-13.24,0,91.42,91.42,0,0,1,13.24,0Z" style="fill:#ebebeb"></path><path d="M594.39,335a18.26,18.26,0,0,0,33.2-13.19l-7,4.58Z" style="fill:#ebebeb"></path><path d="M560.7,408.45h17.88V391h37.61a4.44,4.44,0,0,0,4.44-4.44h0a4.44,4.44,0,0,0-4.44-4.44H594.25v-6h39.57a4.31,4.31,0,0,0,4.31-4.31h0a4.31,4.31,0,0,0-4.31-4.31H568.4v6.79h-7.31Z" style="fill:#e0e0e0"></path><path d="M568.4,367.45c0,13.75,0,27.26,0,41" style="fill:#263238"></path><path d="M568.35,408.45c-.13,0-.23-9.18-.22-20.5s.13-20.5.27-20.5.23,9.18.22,20.5S568.48,408.45,568.35,408.45Z" style="fill:#ebebeb"></path><path d="M578.52,368.05c.14,0,.25,5.18.25,11.57s-.11,11.56-.25,11.56-.24-5.17-.24-11.56S578.39,368.05,578.52,368.05Z" style="fill:#ebebeb"></path><path d="M638.13,443.21A22.4,22.4,0,0,0,620,427.54H560.51l-1.31,16.71Z" style="fill:#ebebeb"></path><path d="M529.27,403.77v-67.5a4.7,4.7,0,0,1,3.62-4.57l55.91-15.91.54-22.13,33.42-.56,10.34-9.49,16.32,18.63h0l-21.65,23.6-66.36,20.59-1.1,96.78H638a3.42,3.42,0,0,1,3.42,3.42v12.65H529.27Z" style="fill:#f5f5f5"></path><rect x="595.26" y="361.57" width="36.09" height="5.88" rx="2.84" style="fill:#e0e0e0"></rect><path d="M628.51,367.45s.28,0,.78-.16a2.82,2.82,0,0,0,1.66-1.42,3,3,0,0,0,.28-1.57,2.72,2.72,0,0,0-2.63-2.57h-2.55l-27.95.07a2.6,2.6,0,0,0-2.56,2.22,3,3,0,0,0,.25,1.78,2.64,2.64,0,0,0,1.28,1.19,4.19,4.19,0,0,0,1.79.22h5.51l12.56,0,8.47.08,2.31,0a5.06,5.06,0,0,1,.8.05,5.06,5.06,0,0,1-.8.05l-2.31.05-8.47.07-12.56.05h-5.51a4.59,4.59,0,0,1-2-.25,3.13,3.13,0,0,1-1.51-1.41,3.45,3.45,0,0,1-.31-2.07,3.07,3.07,0,0,1,3-2.63l27.95.07,2.56,0a3,3,0,0,1,2.1,1,2.88,2.88,0,0,1,.75,1.89,3.17,3.17,0,0,1-.34,1.66,2.86,2.86,0,0,1-1.8,1.42A2,2,0,0,1,628.51,367.45Z" style="fill:#e0e0e0"></path><circle cx="544.79" cy="403.19" r="17.33" transform="translate(-117.11 257.43) rotate(-24.09)" style="fill:#e0e0e0"></circle><path d="M554.42,403.76a22.82,22.82,0,0,0-.39-2.33,9.62,9.62,0,0,0-3.52-5.19,9.42,9.42,0,0,0-8.92-1.31,9.45,9.45,0,0,0-4.36,3.28,9.36,9.36,0,0,0,0,11.09,9,9,0,0,0,2,2,9,9,0,0,0,2.38,1.29,9.5,9.5,0,0,0,4.94.42,9.34,9.34,0,0,0,4-1.74,9.62,9.62,0,0,0,3.52-5.19,23.49,23.49,0,0,0,.39-2.32,7.46,7.46,0,0,1-.21,2.37,9.74,9.74,0,0,1-7.6,7.28,9.83,9.83,0,0,1-5.17-.4,10,10,0,0,1-4.59-3.42,9.81,9.81,0,0,1,0-11.66,9,9,0,0,1,2.09-2.09,9.14,9.14,0,0,1,2.5-1.33,9.69,9.69,0,0,1,9.28,1.46,9.6,9.6,0,0,1,3.49,5.41A7.52,7.52,0,0,1,554.42,403.76Z" style="fill:#ebebeb"></path><polygon points="627.82 286.12 647.69 307.72 654.62 300.62 634.9 279.59 627.82 286.12" style="fill:#e0e0e0"></polygon><path d="M658.08,266.93,649,275.58a1.55,1.55,0,0,0-.06,2.18l7.72,8.18a1.53,1.53,0,0,0,2.21,0l9.19-9.06a1.55,1.55,0,0,0,0-2.2L660.24,267A1.55,1.55,0,0,0,658.08,266.93Z" style="fill:#e0e0e0"></path><path d="M649.75,277.42c-.22.32-10.16,10-10.16,10l7.88,8.06,10-9.93Z" style="fill:#e0e0e0"></path><rect x="517.31" y="459.28" width="134.1" height="5.12" style="fill:#e0e0e0"></rect><rect x="589.34" y="413.38" width="30.64" height="14.15" style="fill:#f5f5f5"></rect><path d="M592.66,427.54a101.91,101.91,0,0,1,0-14,97.85,97.85,0,0,1,0,14Z" style="fill:#e0e0e0"></path><path d="M597.79,427.54a101.91,101.91,0,0,1,0-14,101.91,101.91,0,0,1,0,14Z" style="fill:#e0e0e0"></path><path d="M602.91,427.54a101.91,101.91,0,0,1,0-14,97.85,97.85,0,0,1,0,14Z" style="fill:#e0e0e0"></path><path d="M608,427.54a101.91,101.91,0,0,1,0-14,101.91,101.91,0,0,1,0,14Z" style="fill:#e0e0e0"></path><path d="M613.17,427.54a97.85,97.85,0,0,1,0-14,101.91,101.91,0,0,1,0,14Z" style="fill:#e0e0e0"></path><path d="M618.29,427.54a101.91,101.91,0,0,1,0-14,101.91,101.91,0,0,1,0,14Z" style="fill:#e0e0e0"></path></g><g id="freepik--Table--inject-217"><path d="M690.42,464.75c0,.15-143.47.26-320.4.26s-320.44-.11-320.44-.26S193,464.49,370,464.49,690.42,464.61,690.42,464.75Z" style="fill:#263238"></path></g><g id="freepik--Plants--inject-217"><path d="M260,444.06a16.87,16.87,0,0,0,9.9-18.68,18.23,18.23,0,0,0-8.79,6.69c-2,3.17-3.17,8.86-1.11,12" style="fill:#455a64"></path><path d="M281.29,447.49H238.66a2.37,2.37,0,0,0-2.37,2.38h0a2.37,2.37,0,0,0,2.37,2.37h.6V463a2.16,2.16,0,0,0,2.16,2.16h36.79a2.45,2.45,0,0,0,2.45-2.44V452.24h.63a2.37,2.37,0,0,0,2.37-2.37h0A2.37,2.37,0,0,0,281.29,447.49Z" style="fill:#fafafa"></path><path d="M281.29,447.49a1.77,1.77,0,0,1,.53,0,2.35,2.35,0,0,1,1.34.78,2.46,2.46,0,0,1,.43,2.46,2.49,2.49,0,0,1-1.08,1.27,2.34,2.34,0,0,1-.89.3,7.71,7.71,0,0,1-1,0l.12-.13c0,2.6,0,5.81.06,9.52a10.34,10.34,0,0,1,0,1.45,2.63,2.63,0,0,1-2.18,2.09c-.57.06-1.05,0-1.58,0l-6.64,0-15,0H241.85a3.53,3.53,0,0,1-1.14-.11,2.39,2.39,0,0,1-1.62-1.67,6.11,6.11,0,0,1-.09-1.51v-9.86l.26.25a4.16,4.16,0,0,1-1.42-.13,2.57,2.57,0,0,1-1.2-.82,2.63,2.63,0,0,1-.37-2.75,2.6,2.6,0,0,1,2.24-1.54h2.56l9.63,0,16.07.05,10.66.08,2.86,0,.74,0,.26,0a.76.76,0,0,1-.26,0l-.74,0-2.86,0-10.66.08-16.07.06-9.63,0h-2.53a2.12,2.12,0,0,0-1.82,1.25,2.14,2.14,0,0,0,.31,2.22,2.19,2.19,0,0,0,1,.66,3.89,3.89,0,0,0,1.26.1h.25v.26c0,1.82,0,3.68,0,5.57v4.29a6,6,0,0,0,.07,1.37,1.88,1.88,0,0,0,1.27,1.31,3.12,3.12,0,0,0,1,.09h13.53l15,0H277a15.16,15.16,0,0,0,1.52,0,2.24,2.24,0,0,0,1.23-.6,2.27,2.27,0,0,0,.64-1.16,9,9,0,0,0,.05-1.38c0-3.71,0-6.92.06-9.52v-.13h.13a3.08,3.08,0,0,0,1.74-.28,2.25,2.25,0,0,0,1-1.14,2.28,2.28,0,0,0-.34-2.3,2.43,2.43,0,0,0-1.26-.81C281.47,447.5,281.29,447.51,281.29,447.49Z" style="fill:#263238"></path><path d="M281.44,452.16c0,.14-9.49.26-21.19.26s-21.2-.12-21.2-.26,9.49-.27,21.2-.27S281.44,452,281.44,452.16Z" style="fill:#263238"></path><rect x="240.76" y="454.55" width="38.42" height="8.9" rx="1.45" style="fill:#c17560"></rect><path d="M264.37,434.25c.08.06-.63,1-1.54,2.74a27.66,27.66,0,0,0-2.62,7,28,28,0,0,0-.62,7.49c.1,1.93.32,3.11.24,3.13s-.13-.28-.25-.82a17.65,17.65,0,0,1-.36-2.29,24.42,24.42,0,0,1,3.29-14.72,15.81,15.81,0,0,1,1.3-1.92A3.34,3.34,0,0,1,264.37,434.25Z" style="fill:#263238"></path><path d="M252.74,462.8a5,5,0,0,1,.93-1.27l1.1-1.28a1.4,1.4,0,0,0,.39-.75,6.76,6.76,0,0,1,.1-1.09,2.58,2.58,0,0,1,1.46-1.68,15,15,0,0,1,1.67-.39,1.64,1.64,0,0,0,.87-.55c.15-.2.18-.35.22-.34s.08.17-.05.44a1.63,1.63,0,0,1-.92.8c-.47.2-1.07.24-1.6.48a2.11,2.11,0,0,0-1.14,1.37,7.22,7.22,0,0,0-.11,1,1.83,1.83,0,0,1-.53,1c-.45.47-.85.87-1.19,1.21C253.25,462.45,252.79,462.85,252.74,462.8Z" style="fill:#7c4236"></path><path d="M263.77,460.28c-.07,0-.19-.37-.39-1a3.93,3.93,0,0,0-1.19-2,9.36,9.36,0,0,0-1.17-.63,2.46,2.46,0,0,1-.93-.76c-.43-.61-.19-1.12-.14-1.07s0,.42.43.84a2.56,2.56,0,0,0,.85.56,6.57,6.57,0,0,1,1.27.64,3.61,3.61,0,0,1,1.24,2.29C263.85,459.87,263.84,460.27,263.77,460.28Z" style="fill:#7c4236"></path><path d="M265.17,456.49a4.91,4.91,0,0,1-2.36.19,4.84,4.84,0,0,1-2.32-.48,6.74,6.74,0,0,1,2.35,0A6.29,6.29,0,0,1,265.17,456.49Z" style="fill:#7c4236"></path><path d="M257.81,460.39c0,.13-.92-.13-1.51-1s-.52-1.79-.38-1.78.29.75.81,1.49S257.87,460.25,257.81,460.39Z" style="fill:#7c4236"></path><path d="M175.79,398.33l-.1,60.41a6.37,6.37,0,0,0,6.38,6.39H219.9a6.38,6.38,0,0,0,6.38-6.38V398.33a2.56,2.56,0,0,0,1.42-2.83H174.06S173,397.14,175.79,398.33Z" style="fill:#fafafa"></path><path d="M175.79,398.33l-.23-.09a4.43,4.43,0,0,1-.62-.33,2.83,2.83,0,0,1-.86-.82,1.63,1.63,0,0,1-.08-1.63l0,0h0l53.64-.15h.18l0,.18a2.71,2.71,0,0,1-.19,1.76,3,3,0,0,1-1.35,1.33l.14-.21c0,17.19,0,37.39,0,58.93v1.55a6.8,6.8,0,0,1-1.71,4.38,6.93,6.93,0,0,1-5.67,2.2h-37a6.53,6.53,0,0,1-2.66-.55,6.64,6.64,0,0,1-3.58-3.78,7,7,0,0,1-.41-2.56c0-.83,0-1.66,0-2.48,0-1.65,0-3.26,0-4.85,0-6.36.05-12.29.07-17.7.06-10.82.1-19.58.14-25.66,0-3,0-5.38.05-7q0-1.19,0-1.83c0-.41,0-.63,0-.63s0,.2,0,.6,0,1,0,1.8c0,1.61,0,4,0,7,0,6.08,0,14.85,0,25.67v25.12a6.72,6.72,0,0,0,.39,2.4,6.19,6.19,0,0,0,3.34,3.51c1.54.73,3.35.44,5.14.5l22.48,0h11.9a6.35,6.35,0,0,0,5.28-2,6,6,0,0,0,1.38-2.57,11.42,11.42,0,0,0,.2-3c0-21.54,0-41.74,0-58.93v-.14l.14-.07a2.48,2.48,0,0,0,1.12-1.1,2.38,2.38,0,0,0,.17-1.48l.22.18-53.64-.16.05,0a1.52,1.52,0,0,0,0,1.51,3,3,0,0,0,.81.82C175.49,398.2,175.81,398.31,175.79,398.33Z" style="fill:#263238"></path><path d="M200.15,404.32a2.18,2.18,0,0,0-.63-1.84,4.5,4.5,0,0,0-1.71-1.05,9.76,9.76,0,0,0-8.47.8,17.09,17.09,0,0,0,5.06,3.21,5.79,5.79,0,0,0,5.68-.84" style="fill:#455a64"></path><path d="M226.12,398.24c0,.14-11.21.26-25,.26s-25-.12-25-.26,11.2-.26,25-.26S226.12,398.1,226.12,398.24Z" style="fill:#263238"></path><rect x="179.42" y="424.31" width="43.01" height="37.34" rx="4.13" style="fill:#c17560"></rect><path d="M213.21,378.65a18.1,18.1,0,0,0-8.68,10.24,20.89,20.89,0,0,0,13.11-2.2,19.87,19.87,0,0,0,8.93-9.38A18.12,18.12,0,0,0,213.21,378.65Z" style="fill:#455a64"></path><path d="M189.58,362.75c-3.31-3.1-7.36-5.28-11.35-7.42A30.17,30.17,0,0,0,182,375.52c3.55,6,8.17,11.11,14.76,13.41A26.52,26.52,0,0,0,189.58,362.75Z" style="fill:#455a64"></path><path d="M214.83,381.86c0,.09-1.22.5-3.08,1.48a26.74,26.74,0,0,0-3.12,2,28.27,28.27,0,0,0-3.37,3,27.59,27.59,0,0,0-2.78,3.55,26.36,26.36,0,0,0-1.77,3.23c-.87,1.91-1.2,3.19-1.29,3.16a2.81,2.81,0,0,1,.16-.91,17.59,17.59,0,0,1,.79-2.4,22.14,22.14,0,0,1,1.71-3.34,23,23,0,0,1,6.27-6.67,21.81,21.81,0,0,1,3.23-1.9,15.68,15.68,0,0,1,2.35-.94A2.69,2.69,0,0,1,214.83,381.86Z" style="fill:#263238"></path><path d="M202.29,411a11.92,11.92,0,0,1-.35-1.69c-.09-.55-.21-1.22-.37-2s-.32-1.65-.55-2.62c-.41-1.94-1-4.22-1.74-6.74s-1.65-5.25-2.71-8.08-2.22-5.47-3.32-7.85-2.19-4.48-3.17-6.2c-.47-.88-.93-1.65-1.33-2.33s-.74-1.26-1-1.73a10.16,10.16,0,0,1-.86-1.5,11,11,0,0,1,1,1.39c.32.45.69,1,1.11,1.69s.91,1.43,1.4,2.3c1,1.7,2.12,3.81,3.28,6.17s2.29,5,3.38,7.87,2,5.61,2.69,8.13,1.27,4.85,1.63,6.8c.21,1,.35,1.87.47,2.65s.23,1.45.29,2A10.29,10.29,0,0,1,202.29,411Z" style="fill:#263238"></path><path d="M222.5,425.29c-.24-2.29-1.62-4-3.21-5.68a6.44,6.44,0,0,0-6.26-1.95,4.67,4.67,0,0,0-6.47-3.83,7.67,7.67,0,0,0-13.67,2.84,5.93,5.93,0,0,0-7.86,5.51,5.54,5.54,0,0,0-5.49,5.81l42.89,5.63A45.45,45.45,0,0,0,222.5,425.29Z" style="fill:#c17560"></path><path d="M188.69,448l-.54.16a1.56,1.56,0,1,0,.54-.16Z" style="fill:#7c4236"></path><path d="M211.09,429.79l-.54.16a1.57,1.57,0,1,0,.54-.16Z" style="fill:#7c4236"></path><path d="M192.38,446.29l-.21.06a.61.61,0,1,0,.86.72A.64.64,0,0,0,192.38,446.29Z" style="fill:#7c4236"></path><path d="M213,426.61l-.21.07a.61.61,0,1,0,.87.72A.65.65,0,0,0,213,426.61Z" style="fill:#7c4236"></path><path d="M194.47,432.81l-.21.06a.61.61,0,1,0,.86.73A.64.64,0,0,0,194.47,432.81Z" style="fill:#7c4236"></path><path d="M220.43,452.84a1.82,1.82,0,0,0-2-.47c-1,.44-1.3,1.84-2.32,2.23s-1.88-.27-2.84-.44c-2.67-.47-4.74,2.51-7.41,2.94-1.73.28-3.44-.55-5.19-.57-3.1,0-6.06,2.4-9,1.56a10.18,10.18,0,0,1-3.7-2.54,6.17,6.17,0,0,0-4-1.95c-1.51,0-2.83.27-2.72,4.28h0a5.21,5.21,0,0,0,3.37,2.39,15.38,15.38,0,0,0,4.23.27l23.51-.69a14.87,14.87,0,0,0,5.48-.84,5.1,5.1,0,0,0,3.29-4.14A2.8,2.8,0,0,0,220.43,452.84Z" style="fill:#7c4236"></path><path d="M194.75,403c0-.07.46-.16,1.22-.1a7,7,0,0,1,2.81.86,7.28,7.28,0,0,1,2.26,1.89c.46.6.63,1,.57,1.07a16.65,16.65,0,0,0-3.08-2.51A15.92,15.92,0,0,0,194.75,403Z" style="fill:#263238"></path><path d="M177.82,449.65c-.14,0-.26-10.45-.26-23.34s.12-23.35.26-23.35.27,10.45.27,23.35S178,449.65,177.82,449.65Z" style="fill:#263238"></path><path d="M223,432.32a94.5,94.5,0,0,1,0-14,94.5,94.5,0,0,1,0,14Z" style="fill:#263238"></path><path d="M189.59,433a4.11,4.11,0,0,1,0-1.1,18,18,0,0,1,.29-3,8.61,8.61,0,0,1,1.9-4.1,5.6,5.6,0,0,1,2.23-1.57,18.54,18.54,0,0,0,2.64-.85,5.47,5.47,0,0,0,1.71-2.05,7.42,7.42,0,0,1,.81-1.12,5.48,5.48,0,0,1,1-.87,5.69,5.69,0,0,0,1.73-1.47,5.43,5.43,0,0,0,.56-1.9,11.69,11.69,0,0,0,0-2.95c-.07-.7-.22-1.06-.18-1.08s.76,1.49.52,4.08a5.54,5.54,0,0,1-.56,2.07,6,6,0,0,1-1.82,1.65,5.23,5.23,0,0,0-1.68,1.86,5.66,5.66,0,0,1-1.88,2.23,16.51,16.51,0,0,1-2.73.88,5.3,5.3,0,0,0-2,1.41,8.46,8.46,0,0,0-1.9,3.85,29.72,29.72,0,0,0-.45,2.95A4.14,4.14,0,0,1,189.59,433Z" style="fill:#7c4236"></path><path d="M197.22,428.22a4.18,4.18,0,0,1-.8-2.58,4.24,4.24,0,0,1,.42-2.67,20.88,20.88,0,0,1,.1,2.63A23.77,23.77,0,0,1,197.22,428.22Z" style="fill:#7c4236"></path><path d="M206,442.9a4.68,4.68,0,0,1-.43-1,28.27,28.27,0,0,1-.9-2.71,15.41,15.41,0,0,1-.6-4.22c0-1.62.43-3.34.35-5.12a14.42,14.42,0,0,0-1.41-4.84,19,19,0,0,1-1.4-4,7,7,0,0,1,0-2.87,2.49,2.49,0,0,1,.37-1,8.21,8.21,0,0,0,0,3.79,20.77,20.77,0,0,0,1.47,3.9,14,14,0,0,1,1.49,5c.08,1.9-.37,3.61-.39,5.16a16.19,16.19,0,0,0,.48,4.12C205.61,441.46,206.1,442.87,206,442.9Z" style="fill:#7c4236"></path><path d="M209.3,440a18.45,18.45,0,0,1-2.36-3.08,19,19,0,0,1-2.11-3.25A20.3,20.3,0,0,1,209.3,440Z" style="fill:#7c4236"></path><path d="M208,423.86c-.08,0-.3-.5-1-1a16.46,16.46,0,0,1-3-2.1,6.54,6.54,0,0,1-1.65-3.29,2.63,2.63,0,0,1,0-1.51,13.35,13.35,0,0,1,.34,1.43,7.34,7.34,0,0,0,1.67,3,28.83,28.83,0,0,0,2.81,2.17C208,423.2,208.08,423.86,208,423.86Z" style="fill:#7c4236"></path><path d="M549.13,404.9l.11,54.32c0,3.17-2.86,5.74-6.38,5.74H505c-3.52,0-6.38-2.56-6.38-5.73V404.91a2.28,2.28,0,0,1-1.41-2.55h53.64S551.88,403.83,549.13,404.9Z" style="fill:#fafafa"></path><path d="M549.13,404.9s.28-.11.78-.41a2.66,2.66,0,0,0,.82-.7,1.26,1.26,0,0,0,.08-1.4l.06,0c-7.43.07-27.12.13-53.64.16l.22-.17a1.76,1.76,0,0,0,.18,1.32,2.35,2.35,0,0,0,1.1,1l.14.07v.15c0,15.49,0,33.48,0,52.57a15.67,15.67,0,0,0,.13,2.85,5.41,5.41,0,0,0,1.29,2.4,6.54,6.54,0,0,0,5,2h32.42c3.31-.17,6.93.7,9.36-1.5a5.24,5.24,0,0,0,1.93-3.94v-4.59c0-6,0-11.63,0-16.75,0-10.21,0-18.48,0-24.21,0-2.83,0-5,0-6.56,0-.73,0-1.3,0-1.7s0-.57,0-.57,0,.21,0,.6,0,1,0,1.73c0,1.53,0,3.75.06,6.6,0,5.73.08,14,.13,24.19,0,5.1,0,10.69.07,16.69,0,1.5,0,3,0,4.57a5.71,5.71,0,0,1-2.08,4.29,7.1,7.1,0,0,1-4.65,1.63h-5l-21.2,0H505.3a7.08,7.08,0,0,1-5.36-2.13,6.05,6.05,0,0,1-1.42-2.65,15.65,15.65,0,0,1-.14-3c0-19.09,0-37.08,0-52.57l.15.21a2.9,2.9,0,0,1-1.33-1.16,2.3,2.3,0,0,1-.22-1.65l0-.18h.18c26.52,0,46.21.09,53.64.16h0l0,0a1.37,1.37,0,0,1-.11,1.52,2.75,2.75,0,0,1-.86.71,4.49,4.49,0,0,1-.6.28C549.21,404.88,549.14,404.91,549.13,404.9Z" style="fill:#263238"></path><path d="M524.77,411.18a2.21,2.21,0,0,1,.63-1.85,4.61,4.61,0,0,1,1.71-1,9.76,9.76,0,0,1,8.47.8,17.09,17.09,0,0,1-5.06,3.21,5.79,5.79,0,0,1-5.68-.84" style="fill:#455a64"></path><path d="M498.8,405.1c0-.14,11.21-.26,25-.26s25,.12,25,.26-11.21.26-25,.26S498.8,405.24,498.8,405.1Z" style="fill:#263238"></path><rect x="502.49" y="431.17" width="43.01" height="30.86" rx="4.13" transform="translate(1047.99 893.2) rotate(180)" style="fill:#c17560"></rect><path d="M511.71,385.51a18.08,18.08,0,0,1,8.69,10.24,20.87,20.87,0,0,1-13.11-2.2,19.78,19.78,0,0,1-8.93-9.38A18.06,18.06,0,0,1,511.71,385.51Z" style="fill:#455a64"></path><path d="M535.34,369.61c3.31-3.1,7.36-5.28,11.36-7.42a30.29,30.29,0,0,1-3.76,20.19c-3.56,6-8.17,11.11-14.77,13.41A26.54,26.54,0,0,1,535.34,369.61Z" style="fill:#455a64"></path><path d="M510.1,388.72a2.74,2.74,0,0,1,.9.22,15.65,15.65,0,0,1,2.34.94,21.81,21.81,0,0,1,3.23,1.9,25.47,25.47,0,0,1,3.47,3,24.72,24.72,0,0,1,2.8,3.65,22.14,22.14,0,0,1,1.71,3.34,16.29,16.29,0,0,1,.79,2.4,3.54,3.54,0,0,1,.17.91c-.1,0-.43-1.25-1.3-3.16a26.36,26.36,0,0,0-1.77-3.23,27.59,27.59,0,0,0-2.78-3.55,26.71,26.71,0,0,0-3.37-3,25.93,25.93,0,0,0-3.12-2C511.32,389.22,510.07,388.81,510.1,388.72Z" style="fill:#263238"></path><path d="M522.63,417.83a11.87,11.87,0,0,1,.15-1.72c.06-.56.16-1.23.29-2s.27-1.67.47-2.65c.37-1.95.94-4.26,1.64-6.8s1.62-5.28,2.69-8.13,2.24-5.49,3.37-7.87,2.26-4.47,3.28-6.17c.5-.87,1-1.63,1.4-2.3s.79-1.24,1.12-1.69a9.89,9.89,0,0,1,1-1.39,11.51,11.51,0,0,1-.86,1.5c-.3.47-.65,1-1,1.73s-.86,1.45-1.33,2.33c-1,1.72-2,3.83-3.16,6.2s-2.25,5-3.33,7.85-2,5.57-2.71,8.08-1.33,4.8-1.74,6.74c-.23,1-.39,1.85-.54,2.62s-.29,1.44-.38,2A10.36,10.36,0,0,1,522.63,417.83Z" style="fill:#263238"></path><path d="M502.42,432.15c.24-2.29,1.63-4,3.21-5.68a6.46,6.46,0,0,1,6.27-2,4.66,4.66,0,0,1,6.46-3.83A7.67,7.67,0,0,1,532,423.53a5.92,5.92,0,0,1,7.86,5.5,5.55,5.55,0,0,1,5.49,5.82l-42.89,5.63A46.35,46.35,0,0,1,502.42,432.15Z" style="fill:#c17560"></path><path d="M538.26,449.57l.54.16a1.57,1.57,0,1,1-.54-.16Z" style="fill:#7c4236"></path><path d="M513.83,436.65l.54.16a1.56,1.56,0,1,1-.54-.16Z" style="fill:#7c4236"></path><path d="M532.55,446.87l.21.06a.62.62,0,1,1-.21-.06Z" style="fill:#7c4236"></path><path d="M511.9,433.47l.21.07a.61.61,0,1,1-.86.72A.65.65,0,0,1,511.9,433.47Z" style="fill:#7c4236"></path><path d="M530.46,439.67l.21.06a.61.61,0,1,1-.87.72A.64.64,0,0,1,530.46,439.67Z" style="fill:#7c4236"></path><path d="M504.83,453a1.82,1.82,0,0,1,2-.47c1,.44,1.3,1.84,2.32,2.23s1.88-.27,2.84-.44c2.67-.47,4.74,2.51,7.41,2.94,1.73.28,3.44-.55,5.19-.57,3.1-.05,6.06,2.4,9,1.56a10.18,10.18,0,0,0,3.7-2.54,6.15,6.15,0,0,1,4-2c1.52,0,2.84.27,2.72,4.28h0a5.16,5.16,0,0,1-3.36,2.39,15.38,15.38,0,0,1-4.23.27L512.94,460a14.87,14.87,0,0,1-5.48-.84,5.1,5.1,0,0,1-3.29-4.14A2.8,2.8,0,0,1,504.83,453Z" style="fill:#7c4236"></path><path d="M530.17,409.82a16.07,16.07,0,0,0-3.78,1.21,16.65,16.65,0,0,0-3.08,2.51s.12-.47.58-1.07a7.37,7.37,0,0,1,5.06-2.75C529.71,409.66,530.17,409.75,530.17,409.82Z" style="fill:#263238"></path><path d="M547.1,456.51c-.15,0-.26-10.45-.26-23.34s.11-23.35.26-23.35.26,10.45.26,23.35S547.24,456.51,547.1,456.51Z" style="fill:#263238"></path><path d="M502,439.18a94.5,94.5,0,0,1,0-14,94.5,94.5,0,0,1,0,14Z" style="fill:#263238"></path><path d="M535.33,439.9a4.76,4.76,0,0,1-.16-1.09,24.44,24.44,0,0,0-.45-2.95,8.44,8.44,0,0,0-1.89-3.85,5.41,5.41,0,0,0-2.05-1.41,16.42,16.42,0,0,1-2.72-.88,5.85,5.85,0,0,1-1.89-2.23,5.23,5.23,0,0,0-1.68-1.86,6.09,6.09,0,0,1-1.81-1.65,5.39,5.39,0,0,1-.57-2.07c-.24-2.59.44-4.14.52-4.08s-.1.38-.18,1.08a11.69,11.69,0,0,0,0,2.95,5.43,5.43,0,0,0,.56,1.9,5.81,5.81,0,0,0,1.73,1.47,5.88,5.88,0,0,1,1,.87,7.36,7.36,0,0,1,.8,1.12,5.41,5.41,0,0,0,1.72,2,18,18,0,0,0,2.63.85,5.6,5.6,0,0,1,2.23,1.57,8.42,8.42,0,0,1,1.9,4.1,18,18,0,0,1,.29,3A4.11,4.11,0,0,1,535.33,439.9Z" style="fill:#7c4236"></path><path d="M527.71,435.08a19.13,19.13,0,0,1,.28-2.62,20.88,20.88,0,0,1,.1-2.63,6,6,0,0,1-.38,5.25Z" style="fill:#7c4236"></path><path d="M518.91,449.75c-.09,0,.4-1.43,1-3.75a16.16,16.16,0,0,0,.49-4.12c0-1.55-.47-3.27-.4-5.16a14.23,14.23,0,0,1,1.5-5,21.49,21.49,0,0,0,1.47-3.9,8.11,8.11,0,0,0,0-3.79,2.57,2.57,0,0,1,.38,1,7.08,7.08,0,0,1,0,2.87,19,19,0,0,1-1.4,4,14.66,14.66,0,0,0-1.41,4.84c-.07,1.78.35,3.5.36,5.12a15.38,15.38,0,0,1-.61,4.22,28.27,28.27,0,0,1-.9,2.71A3.62,3.62,0,0,1,518.91,449.75Z" style="fill:#7c4236"></path><path d="M515.63,446.87a20.49,20.49,0,0,1,4.46-6.33,18.26,18.26,0,0,1-2.11,3.25A19.39,19.39,0,0,1,515.63,446.87Z" style="fill:#7c4236"></path><path d="M516.9,430.72c-.06,0,.06-.66.8-1.3a31.47,31.47,0,0,0,2.81-2.17,7.31,7.31,0,0,0,1.66-3,13.35,13.35,0,0,1,.34-1.43,2.63,2.63,0,0,1,0,1.51,6.55,6.55,0,0,1-1.64,3.29,15.86,15.86,0,0,1-3,2.09C517.2,430.22,517,430.75,516.9,430.72Z" style="fill:#7c4236"></path></g><g id="freepik--Posters--inject-217"><polygon points="650.34 232.27 516.7 231.94 516.7 45.75 650.34 46.08 650.34 232.27" style="fill:#fafafa"></polygon><path d="M650.34,232.27s0-.31,0-.9,0-1.47,0-2.61c0-2.31,0-5.72,0-10.15,0-8.87,0-21.83-.06-38.23,0-32.77-.07-79.29-.12-134.3l.24.23L516.72,46h0l.26-.26c0,69.68,0,134.15,0,186.19l-.22-.21,97.18.35,26.94.12,7.08,0,2.44,0H614l-97.31-.13h-.21v-.21c0-52,0-116.51,0-186.19v-.26h.28l133.62.35h.23v.24c0,55.07-.08,101.64-.11,134.45,0,16.38-.05,29.32-.07,38.18,0,4.41,0,7.8,0,10.1,0,1.14,0,2,0,2.59S650.34,232.27,650.34,232.27Z" style="fill:#263238"></path><path d="M597.62,96c-2.16,1.79-4.17,5.25-3.65,8,2.61,1.88,6.94,1.12,10,.15a25.77,25.77,0,0,0,14.46-11.73A21.69,21.69,0,0,0,597.62,96Z" style="fill:#455a64"></path><path d="M597.62,96a1.76,1.76,0,0,1,.31-.29c.22-.18.52-.46,1-.77a20.27,20.27,0,0,1,4-2.26A21.67,21.67,0,0,1,609.73,91a21.13,21.13,0,0,1,8.79,1.15l.28.1-.15.26a25.87,25.87,0,0,1-15.39,12.06,18.08,18.08,0,0,1-5.07.76,7.54,7.54,0,0,1-4.33-1.22l-.06,0V104a6.85,6.85,0,0,1,.58-3.81,11.28,11.28,0,0,1,1.49-2.5,9.39,9.39,0,0,1,1.25-1.33,2.48,2.48,0,0,1,.51-.39,21.66,21.66,0,0,0-1.6,1.85,11.66,11.66,0,0,0-1.38,2.48,6.74,6.74,0,0,0-.49,3.64l-.07-.12a7.25,7.25,0,0,0,4.11,1.09,18.47,18.47,0,0,0,4.94-.79,25.63,25.63,0,0,0,10-5.55,25.37,25.37,0,0,0,5.11-6.3l.14.36a21.22,21.22,0,0,0-8.59-1.19A21.8,21.8,0,0,0,603,93,27.5,27.5,0,0,0,597.62,96Z" style="fill:#263238"></path><path d="M574.33,148.64a22.06,22.06,0,0,0-24.87-16,20.61,20.61,0,0,0,24.92,16.56" style="fill:#455a64"></path><path d="M574.38,149.22a4.13,4.13,0,0,1-.65.18,13.57,13.57,0,0,1-1.89.32,20.58,20.58,0,0,1-16.28-5.35,21,21,0,0,1-6.25-11.12l-.11-.54-.05-.26.27,0a22.42,22.42,0,0,1,12.5,1.58,21.92,21.92,0,0,1,11.69,12.21,15.84,15.84,0,0,1,.58,1.8,2.67,2.67,0,0,1,.14.64c-.05,0-.28-.86-.91-2.36a22.67,22.67,0,0,0-3.58-5.84,21.65,21.65,0,0,0-8.11-6,22.32,22.32,0,0,0-12.23-1.5l.22-.3c0,.16.06.34.1.52A20.79,20.79,0,0,0,555.88,144a20.33,20.33,0,0,0,9,4.92,21.47,21.47,0,0,0,7,.58C573.47,149.38,574.37,149.16,574.38,149.22Z" style="fill:#263238"></path><path d="M607.43,127.83l-4.72-4.64s-13.66,15.14-14.71,13,4.73-59.35,4.73-59.35c-3.51-1.71-7.41-1.48-11.56,0L578,121.52S554.94,93.2,550.74,90.05l-2.13,2.59s20.48,21,24.68,37.81,3.16,77.21,3.16,77.21c6.8-4.84,13.46-5.07,19.95,0,0,0-7.35-46.22-6.82-57.51S607.43,127.83,607.43,127.83Z" style="fill:#455a64"></path><path d="M607.43,127.83s-.44.3-1.28.91-2.1,1.52-3.66,2.79a59.73,59.73,0,0,0-5.49,5,32.09,32.09,0,0,0-5.86,8.17,14.21,14.21,0,0,0-1.43,5.74c0,2.1.07,4.3.25,6.59.34,4.59.89,9.55,1.55,14.85,1.32,10.6,3,22.59,5.1,35.71l.09.52-.43-.32a15.8,15.8,0,0,0-9.56-3.66,17.62,17.62,0,0,0-10.13,3.67l-.37.27v-.45c.18-14.77.18-30.8-.42-47.71a246.88,246.88,0,0,0-2-25.91,41.46,41.46,0,0,0-4.24-12.61,93.78,93.78,0,0,0-7.11-11.63c-2.14-3-4.4-6-6.74-8.79s-4.74-5.58-7.24-8.19l-.16-.17.15-.18,2.13-2.58.17-.21.18.17,1,.91,1,1c.64.63,1.24,1.3,1.86,2q1.8,2,3.56,4,3.51,4,6.86,8c4.49,5.31,8.83,10.57,13,15.72l-.43.14c1.13-15.9,2.19-30.85,3.17-44.65v-.14l.14,0a19.27,19.27,0,0,1,5.95-1.2,12.36,12.36,0,0,1,5.77,1.22l.13.07v.14c-2,19.59-3.58,36.53-4.56,50-.12,1.68-.21,3.32-.29,4.9,0,.79-.07,1.56-.08,2.32v1.13c0,.35,0,.79.17,1s.61,0,.9-.19a7.41,7.41,0,0,0,.89-.56c.57-.4,1.11-.84,1.62-1.27,1-.88,2-1.76,2.86-2.61,3.55-3.43,6.25-6.34,8.21-8.47l.05-.05,0,.05c1.61,1.59,2.78,2.77,3.57,3.54s1.11,1.14,1.11,1.14l-1.18-1.13-3.59-3.47h.09c-1.94,2.15-4.62,5.08-8.15,8.54-.89.86-1.83,1.75-2.86,2.63-.51.44-1,.89-1.63,1.3a7.8,7.8,0,0,1-.91.58,3.11,3.11,0,0,1-.53.22.71.71,0,0,1-.63,0c-.34-.38-.23-.79-.28-1.16s0-.75,0-1.14c0-.76,0-1.54.07-2.33.07-1.59.16-3.22.27-4.91.93-13.52,2.51-30.46,4.43-50.06l.12.21a11.92,11.92,0,0,0-5.58-1.17,18.81,18.81,0,0,0-5.81,1.19l.14-.19c-1,13.79-2,28.75-3.12,44.64l0,.62-.39-.48q-6.32-7.73-13-15.7c-2.25-2.66-4.53-5.32-6.87-8-1.16-1.33-2.35-2.65-3.55-4-.62-.64-1.21-1.32-1.85-1.94l-.94-1-1-.87.36,0-2.13,2.58v-.34c2.51,2.62,4.91,5.38,7.26,8.21s4.62,5.78,6.77,8.83A93.35,93.35,0,0,1,570,121.2c.48,1,1,2,1.45,3.08s.85,2.09,1.23,3.15.68,2.15,1,3.24l.66,3.29a243.46,243.46,0,0,1,2,26c.59,16.93.57,33,.37,47.73l-.36-.19a18.09,18.09,0,0,1,10.4-3.74,16.3,16.3,0,0,1,9.82,3.76l-.33.2c-2-13.13-3.74-25.12-5-35.73-.64-5.3-1.17-10.27-1.5-14.86-.17-2.3-.27-4.51-.23-6.63a14.55,14.55,0,0,1,1.48-5.83,31.73,31.73,0,0,1,6-8.19,57.21,57.21,0,0,1,5.54-5c1.58-1.27,2.84-2.17,3.7-2.76S607.43,127.83,607.43,127.83Z" style="fill:#263238"></path><path d="M580.19,205.46s-.31-61.92-2.17-70.31-20.47-36.9-28.49-43.63l.67-.81s7.36,8.08,11.71,13.62c4,5.06,14.88,21.29,16.75,24.08a.61.61,0,0,0,.74.22h0a.63.63,0,0,0,.36-.51l3.18-51.8A17.65,17.65,0,0,1,591,76.2s-4.76,51.93-4.84,57.26c0,1.52,0,2.68,0,3.55a1.93,1.93,0,0,0,2.89,1.63l.32-.2c2.5-1.7,14.23-14.34,14.23-14.34l2.74,2.68s-11.7,9.61-14,12.06c-2.82,3-4.72,5-5,7.86s-.3,9.78.55,20.76,5.33,38.14,5.33,38.14S586.7,202.12,580.19,205.46Z" style="fill:#fff;opacity:0.30000000000000004"></path><path d="M575.9,151a74.33,74.33,0,0,0-5.76-5.31,70.94,70.94,0,0,0-6.61-4.18,7.87,7.87,0,0,1,2.16.83,27.19,27.19,0,0,1,4.77,2.94,27.83,27.83,0,0,1,4.08,3.84A8,8,0,0,1,575.9,151Z" style="fill:#263238"></path><path d="M603.15,97.05c0,.08-1,.59-2.61,1.61a29.3,29.3,0,0,0-9.93,10.62c-.9,1.65-1.34,2.74-1.42,2.7s0-.29.21-.8a19,19,0,0,1,.89-2.08,25.75,25.75,0,0,1,10.06-10.76,18.17,18.17,0,0,1,2-1A2.91,2.91,0,0,1,603.15,97.05Z" style="fill:#263238"></path><path d="M579.69,189.17c-.15,0-.26-6.9-.26-15.42s.11-15.41.26-15.41.26,6.9.26,15.41S579.83,189.17,579.69,189.17Z" style="fill:#263238"></path><path d="M583.37,165.53a47.07,47.07,0,0,1-.61-7.06,49.45,49.45,0,0,1-.09-7.08,46.65,46.65,0,0,1,.61,7.05A49.64,49.64,0,0,1,583.37,165.53Z" style="fill:#263238"></path><path d="M585.21,186.39c-.14,0-.34-6.9-.45-15.41s-.07-15.42.08-15.42.34,6.89.44,15.41S585.35,186.39,585.21,186.39Z" style="fill:#263238"></path><path d="M617.59,77.13a31,31,0,0,1-2.73,5,31.29,31.29,0,0,1-3.16,4.67,30.39,30.39,0,0,1,2.72-5A30.87,30.87,0,0,1,617.59,77.13Z" style="fill:#263238"></path><path d="M631.93,74.68a115.63,115.63,0,0,1-15.5,0,115.63,115.63,0,0,1,15.5,0Z" style="fill:#263238"></path><path d="M615.19,178.5a102.05,102.05,0,0,1-8.92-5,99.35,99.35,0,0,1-8.66-5.46,102.05,102.05,0,0,1,8.92,5A96.59,96.59,0,0,1,615.19,178.5Z" style="fill:#263238"></path><path d="M635.69,176a115.49,115.49,0,0,1-15.49,0,115.49,115.49,0,0,1,15.49,0Z" style="fill:#263238"></path><path d="M631.51,178.52a30.59,30.59,0,0,1-8,0,30.59,30.59,0,0,1,8,0Z" style="fill:#263238"></path><path d="M558.65,150.47a22.45,22.45,0,0,1-2.59,1.89c-1.62,1.12-3.86,2.69-6.28,4.48s-4.59,3.47-6.14,4.69a23.81,23.81,0,0,1-2.57,1.92,17,17,0,0,1,2.33-2.21c1.5-1.29,3.63-3,6.07-4.82s4.71-3.32,6.39-4.37A17.65,17.65,0,0,1,558.65,150.47Z" style="fill:#263238"></path><path d="M551.12,170.15a178.47,178.47,0,0,1-19.26,0,171.87,171.87,0,0,1,19.26,0Z" style="fill:#263238"></path><path d="M552.37,174.75a103.31,103.31,0,0,1-14.65,0,103.31,103.31,0,0,1,14.65,0Z" style="fill:#263238"></path><path d="M562.84,59.19c0,.15-8.06.26-18,.26s-18-.11-18-.26,8.06-.26,18-.26S562.84,59.05,562.84,59.19Z" style="fill:#263238"></path><path d="M588.8,64.64c0,.14-14,.26-31.19.26s-31.19-.12-31.19-.26,14-.26,31.19-.26S588.8,64.49,588.8,64.64Z" style="fill:#263238"></path><rect x="569.5" y="42.67" width="31.05" height="8.73" style="fill:#e0e0e0"></rect><path d="M600.55,51.4s0-.22,0-.62,0-1,0-1.73c0-1.53-.05-3.69-.09-6.38l.17.16c-7.16.06-18.42.1-31,.1l.26-.26h0v4.43c0,1.46,0,2.89,0,4.29l-.25-.26,22.1.12,6.54.07,1.77,0,.64,0a4,4,0,0,1-.58,0l-1.71,0-6.48.08-22.28.11h-.25V51.4c0-1.4,0-2.83,0-4.29V42.68h0c.52-.53.14-.15.26-.26,12.63,0,23.89,0,31,.09h.16v.16c0,2.73-.07,4.92-.09,6.48,0,.7,0,1.26,0,1.69A3.67,3.67,0,0,1,600.55,51.4Z" style="fill:#263238"></path><rect x="60.4" y="43.98" width="234.26" height="191.34" style="fill:#fafafa"></rect><path d="M294.66,235.32c0-1.82-.09-76-.22-191.34l.22.22-234.24,0h0l.26-.26c0,69.2,0,134.54,0,191.34l-.23-.24,234.26.24-234.26.23h-.23v-.23c0-56.8,0-122.14,0-191.34v-.26h.28l234.24,0h.22V44C294.74,159.28,294.66,233.5,294.66,235.32Z" style="fill:#263238"></path><path d="M143.29,164.3c-.1,0-.31.19-.55.49-.46.57-1,1.45-1,1.45h1.56l-3,5.32h1.5l-3.61,5,1.22,1s-3.33,3.55-3.22,5.77,1,.55,1,.55-3.34,6.22-1,10.32,3.14,4.22,3.14,4.22,2.3,2.55,4.74,1.44,2.11-1.78,2.11-1.78-2.89,1.45-4-.11a11.1,11.1,0,0,1-1.4-2.37,16.62,16.62,0,0,1-1.93-4.17c-.55-2.11,0-6.13,0-6.13s1.11,0,1.22-.53.74-3.56.71-4a13.86,13.86,0,0,1,.51-2.32s.23,2.45.89.56,1.67-4.67,1.67-4.67l.33-1.45s.33,1.23.78.9.22-1.57.11-2.23A3.39,3.39,0,0,1,145,170a11.43,11.43,0,0,1,.77-2.22l2.11.11a6.63,6.63,0,0,1,.67-2.9l-3.78-2.32-1.74,1.8" style="fill:#263238"></path><path d="M156.53,176.39c-.1,0-.26.25-.43.59-.32.66-.68,1.64-.68,1.64l1.52-.33-1.81,5.83,1.46-.31-2.48,5.62,1.41.74s-2.51,4.17-1.94,6.32,1.1.33,1.1.33-2,6.78,1.18,10.3,3.95,3.46,3.95,3.46,2.79,2,4.94.42,1.69-2.18,1.69-2.18-2.52,2-3.93.73a11.46,11.46,0,0,1-1.87-2,16.54,16.54,0,0,1-2.76-3.67c-1-1.95-1.28-6-1.28-6s1.09-.21,1.08-.78,0-3.63-.15-4.05a13.92,13.92,0,0,1,0-2.38s.73,2.35,1,.36.65-4.91.65-4.91l0-1.49s.58,1.13,1,.71-.11-1.58-.36-2.2a3.39,3.39,0,0,1-.43-1.49,11.12,11.12,0,0,1,.29-2.33l2.08-.33a6.76,6.76,0,0,1,.05-3l-4.18-1.48-1.33,2.12" style="fill:#263238"></path><path d="M155.42,135.45s-25.81-7.51-39.66-11.38-38.22-5.18-37.93,2.26S97.08,145.79,108,152s45.73,17.32,50,16S155.42,135.45,155.42,135.45Z" style="fill:#f5f5f5"></path><path d="M155.42,135.45l.14.52c.08.37.2.88.35,1.54.3,1.36.72,3.36,1.22,6s1.06,5.77,1.6,9.48c.26,1.86.51,3.84.69,6a33,33,0,0,1,0,6.75,5.76,5.76,0,0,1-.51,1.77,1.64,1.64,0,0,1-.7.73,2.67,2.67,0,0,1-1,.17,19.54,19.54,0,0,1-3.79-.41c-2.55-.46-5.15-1.11-7.83-1.82-5.36-1.44-11-3.21-16.92-5.24a178.39,178.39,0,0,1-18.19-7.23c-1.54-.74-3-1.59-4.53-2.46s-3-1.76-4.47-2.68c-3-1.84-6-3.77-8.93-5.84a89.78,89.78,0,0,1-8.4-6.6,37.1,37.1,0,0,1-3.67-3.75,14.06,14.06,0,0,1-2.69-4.45,4.48,4.48,0,0,1-.11-2.64,4,4,0,0,1,1.63-2,12.88,12.88,0,0,1,4.69-1.76,47.52,47.52,0,0,1,9.59-.68,96.42,96.42,0,0,1,17.6,2c2.73.55,5.3,1.32,7.78,2l7.12,2.07c9,2.63,16.38,4.76,21.46,6.25l5.81,1.71,1.5.45.5.17-.54-.13-1.54-.42-5.86-1.63L126,127.2l-7.1-2c-2.47-.71-5-1.46-7.75-2a97.44,97.44,0,0,0-17.52-2,46.28,46.28,0,0,0-9.48.69,12.56,12.56,0,0,0-4.5,1.68,3.59,3.59,0,0,0-1.44,1.79,4,4,0,0,0,.12,2.34A13.59,13.59,0,0,0,80.93,132a37.23,37.23,0,0,0,3.63,3.7,90.66,90.66,0,0,0,8.35,6.55c2.94,2.07,5.92,4,8.9,5.83,1.49.91,3,1.81,4.46,2.68s3,1.71,4.49,2.44a180.49,180.49,0,0,0,18.13,7.24c5.88,2,11.53,3.81,16.87,5.27,2.67.72,5.27,1.38,7.79,1.85a20.06,20.06,0,0,0,3.71.41c1.34.2,1.66-1.26,1.83-2.34a32.31,32.31,0,0,0,0-6.67c-.16-2.11-.4-4.1-.65-6-.51-3.71-1.05-6.89-1.51-9.48s-.86-4.58-1.12-6c-.13-.66-.23-1.18-.31-1.55S155.42,135.45,155.42,135.45Z" style="fill:#263238"></path><path d="M154.18,144.55a1.19,1.19,0,0,1-.41.09,12,12,0,0,1-1.2.15,38.74,38.74,0,0,1-4.44.09c-1.87-.06-4.1-.22-6.56-.38a53,53,0,0,0-8,0,21.35,21.35,0,0,0-7.59,2.2,39,39,0,0,0-5.55,3.42c-1.51,1.1-2.69,2-3.51,2.69a10,10,0,0,1-1.31,1,9.45,9.45,0,0,1,1.18-1.12c.78-.69,1.93-1.68,3.42-2.82a35.9,35.9,0,0,1,5.55-3.56,21.53,21.53,0,0,1,7.76-2.29,51.21,51.21,0,0,1,8.07.08c2.47.18,4.68.39,6.54.49s3.37.12,4.42.08A12.4,12.4,0,0,1,154.18,144.55Z" style="fill:#e0e0e0"></path><path d="M154.18,147.6c0,.09-1.35.08-3.48.38A25.62,25.62,0,0,0,136,155.39c-1.52,1.54-2.31,2.62-2.39,2.57a3.29,3.29,0,0,1,.5-.81,17.7,17.7,0,0,1,1.62-2,23.48,23.48,0,0,1,15-7.52,18.27,18.27,0,0,1,2.58-.11A3.06,3.06,0,0,1,154.18,147.6Z" style="fill:#e0e0e0"></path><path d="M154.57,155c.11.17-2.33,1.14-4.25,3.54a20.3,20.3,0,0,0-2.06,3.34,6.24,6.24,0,0,1-.83,1.44,4.94,4.94,0,0,1,.49-1.59,14.18,14.18,0,0,1,2-3.51,10.27,10.27,0,0,1,3.1-2.6A4.33,4.33,0,0,1,154.57,155Z" style="fill:#e0e0e0"></path><path d="M95.9,140.84a3.44,3.44,0,0,1,.51-.29c.35-.18.87-.45,1.55-.75a41.66,41.66,0,0,1,5.94-2.12,44.52,44.52,0,0,1,9.25-1.51,45.52,45.52,0,0,1,11.43.8c4,.75,7.74,1.72,11.2,2.27a77.11,77.11,0,0,0,9.27.86c2.65.1,4.8.11,6.29.13l1.71,0a3.56,3.56,0,0,1,.6,0,2.41,2.41,0,0,1-.6.06l-1.71.06c-1.49,0-3.64.09-6.3,0a69.13,69.13,0,0,1-9.33-.76c-3.49-.53-7.25-1.48-11.22-2.23a47.21,47.21,0,0,0-11.32-.84A47.26,47.26,0,0,0,98,140C96.66,140.54,95.92,140.89,95.9,140.84Z" style="fill:#e0e0e0"></path><path d="M86.33,124.23A6.12,6.12,0,0,1,87,124c.44-.17,1.1-.38,2-.63a31.57,31.57,0,0,1,7.52-1,45.49,45.49,0,0,1,11.19,1.29,106.29,106.29,0,0,1,13.13,4.2c9.12,3.53,17.48,6.38,23.59,8.29l7.24,2.22,2,.6a3.3,3.3,0,0,1,.68.24,3.44,3.44,0,0,1-.71-.14l-2-.51c-1.74-.45-4.23-1.14-7.3-2.06-6.14-1.82-14.55-4.62-23.66-8.15A111.08,111.08,0,0,0,107.57,124a47.1,47.1,0,0,0-11.07-1.38,33.54,33.54,0,0,0-7.48.86c-.87.21-1.54.39-2,.53A3,3,0,0,1,86.33,124.23Z" style="fill:#e0e0e0"></path><path d="M153.27,134.83a7.85,7.85,0,0,0-1.69,5.46c.18,3.4,2.48,27.53,2.48,27.53l2.22.29L155,141.38l.46-5.93Z" style="opacity:0.30000000000000004"></path><path d="M209.08,166.13c.09,0,.31.19.54.49.46.58,1,1.46,1,1.46h-1.56l3,5.32h-1.5l3.61,5-1.22,1s3.32,3.55,3.21,5.77-1,.56-1,.56,3.35,6.21,1,10.31-3.14,4.22-3.14,4.22-2.3,2.55-4.74,1.44-2.11-1.77-2.11-1.77,2.88,1.44,4-.11a11.74,11.74,0,0,0,1.41-2.38,16.18,16.18,0,0,0,1.92-4.17c.55-2.11,0-6.13,0-6.13s-1.11,0-1.22-.53-.74-3.55-.7-4a14.94,14.94,0,0,0-.52-2.33s-.22,2.46-.89.56-1.66-4.66-1.66-4.66l-.34-1.45s-.33,1.22-.77.89-.22-1.57-.11-2.22a3.57,3.57,0,0,0,.11-1.55,11.23,11.23,0,0,0-.78-2.22l-2.11.11a6.77,6.77,0,0,0-.66-2.9l3.77-2.31,1.75,1.79" style="fill:#263238"></path><path d="M195.83,178.22c.1,0,.26.25.43.59.33.67.68,1.64.68,1.64l-1.52-.32,1.82,5.83-1.47-.32,2.48,5.63-1.4.74s2.51,4.16,1.93,6.31-1.1.33-1.1.33,2,6.78-1.18,10.3-3.95,3.46-3.95,3.46-2.78,2-4.94.42-1.69-2.18-1.69-2.18,2.52,2,3.93.73a11.26,11.26,0,0,0,1.87-2,16.39,16.39,0,0,0,2.76-3.68c1-1.94,1.29-6,1.29-6s-1.09-.21-1.09-.77,0-3.64.16-4.06a15,15,0,0,0,0-2.38s-.73,2.35-1,.36-.65-4.91-.65-4.91l0-1.49s-.58,1.13-.94.71.11-1.57.35-2.2a3.52,3.52,0,0,0,.44-1.48,11.64,11.64,0,0,0-.3-2.34l-2.08-.33a6.67,6.67,0,0,0,0-3l4.17-1.48,1.33,2.12" style="fill:#263238"></path><path d="M197,137.28s25.8-7.5,39.66-11.37,38.22-5.19,37.93,2.25-19.26,19.46-30.2,25.7-45.72,17.33-50,16S197,137.28,197,137.28Z" style="fill:#f5f5f5"></path><path d="M197,137.28s0,.18-.09.53-.17.89-.3,1.55c-.26,1.39-.64,3.4-1.12,6s-1,5.77-1.51,9.48c-.25,1.86-.49,3.84-.66,5.95a32.41,32.41,0,0,0,0,6.68c.18,1.08.49,2.53,1.84,2.34a19.89,19.89,0,0,0,3.7-.42c2.52-.47,5.12-1.13,7.79-1.85,5.34-1.45,11-3.23,16.88-5.27A180.21,180.21,0,0,0,241.6,155c1.53-.74,3-1.58,4.49-2.45s3-1.76,4.47-2.68c3-1.83,6-3.76,8.89-5.83a87.84,87.84,0,0,0,8.36-6.55,38.26,38.26,0,0,0,3.62-3.7,13.69,13.69,0,0,0,2.6-4.27,4,4,0,0,0,.11-2.34,3.61,3.61,0,0,0-1.43-1.79,12.61,12.61,0,0,0-4.51-1.68,46.21,46.21,0,0,0-9.48-.68,95.76,95.76,0,0,0-17.52,2c-2.71.54-5.27,1.29-7.74,2l-7.1,2-21.48,6.06L199,136.74l-1.54.41-.53.13.49-.16,1.5-.46,5.81-1.71,21.46-6.25,7.12-2.06c2.48-.72,5.06-1.49,7.78-2a96.44,96.44,0,0,1,17.6-2,46.07,46.07,0,0,1,9.59.68A12.73,12.73,0,0,1,273,125a4.11,4.11,0,0,1,1.63,2.05,4.48,4.48,0,0,1-.12,2.64,13.88,13.88,0,0,1-2.69,4.45,38.16,38.16,0,0,1-3.66,3.76,91.53,91.53,0,0,1-8.41,6.59c-2.94,2.07-5.94,4-8.92,5.84q-2.25,1.38-4.48,2.68c-1.49.87-3,1.73-4.52,2.46a174.9,174.9,0,0,1-18.2,7.23c-5.9,2-11.56,3.8-16.92,5.24-2.68.71-5.28,1.36-7.82,1.83a20.52,20.52,0,0,1-3.8.4,2.58,2.58,0,0,1-1-.17,1.59,1.59,0,0,1-.7-.73,5.25,5.25,0,0,1-.51-1.77,32.3,32.3,0,0,1,0-6.75c.18-2.12.43-4.11.7-6,.53-3.71,1.1-6.89,1.6-9.48s.92-4.59,1.22-5.95c.15-.66.26-1.17.35-1.54S197,137.28,197,137.28Z" style="fill:#263238"></path><path d="M198.19,146.38a12.39,12.39,0,0,1,1.62,0c1,0,2.55,0,4.41-.08s4.07-.3,6.54-.49a51.22,51.22,0,0,1,8.07-.08,21.47,21.47,0,0,1,7.76,2.29,35.9,35.9,0,0,1,5.55,3.56c1.49,1.14,2.64,2.13,3.43,2.82a8.39,8.39,0,0,1,1.17,1.13,13.38,13.38,0,0,1-1.3-1c-.83-.64-2-1.59-3.52-2.68a38,38,0,0,0-5.54-3.43,21.68,21.68,0,0,0-7.59-2.2,53.12,53.12,0,0,0-8,0c-2.46.16-4.68.33-6.55.38a39,39,0,0,1-4.44-.08c-.53,0-.93-.12-1.2-.15S198.18,146.4,198.19,146.38Z" style="fill:#e0e0e0"></path><path d="M198.19,149.43a3.13,3.13,0,0,1,.94-.08,18,18,0,0,1,2.58.1,23.48,23.48,0,0,1,15,7.52,18,18,0,0,1,1.63,2,3,3,0,0,1,.49.81c-.07.06-.87-1-2.38-2.56a25.55,25.55,0,0,0-14.74-7.41C199.53,149.52,198.18,149.53,198.19,149.43Z" style="fill:#e0e0e0"></path><path d="M197.79,156.87a3.9,3.9,0,0,1,1.55.61,10.42,10.42,0,0,1,3.11,2.6,14.43,14.43,0,0,1,2,3.51,4.7,4.7,0,0,1,.49,1.59,5.77,5.77,0,0,1-.82-1.44,20.41,20.41,0,0,0-2.07-3.33C200.12,158,197.68,157,197.79,156.87Z" style="fill:#e0e0e0"></path><path d="M256.47,142.68s-.77-.31-2.15-.86a46.26,46.26,0,0,0-6-1.95,45.75,45.75,0,0,0-9.17-1.39,46.59,46.59,0,0,0-11.31.83c-4,.75-7.73,1.7-11.22,2.23a69.13,69.13,0,0,1-9.33.76c-2.67,0-4.82,0-6.31,0l-1.71-.07a2.7,2.7,0,0,1-.59,0,2.08,2.08,0,0,1,.59-.05l1.72,0c1.48,0,3.63,0,6.29-.13a75,75,0,0,0,9.26-.86c3.46-.55,7.2-1.52,11.2-2.27a45.56,45.56,0,0,1,11.44-.8,44.31,44.31,0,0,1,9.24,1.51,39.85,39.85,0,0,1,5.94,2.13c.69.29,1.2.56,1.55.74A2.22,2.22,0,0,1,256.47,142.68Z" style="fill:#e0e0e0"></path><path d="M266,126.07a5.17,5.17,0,0,1-.7-.18c-.45-.15-1.12-.33-2-.54a33.61,33.61,0,0,0-7.48-.86,46.71,46.71,0,0,0-11.08,1.39,111.54,111.54,0,0,0-13.06,4.22c-9.11,3.53-17.52,6.33-23.66,8.15-3.06.92-5.56,1.61-7.29,2.07l-2,.5a3.32,3.32,0,0,1-.71.14,4.88,4.88,0,0,1,.68-.24l2-.6L208,137.9c6.1-1.91,14.47-4.76,23.58-8.28a105.27,105.27,0,0,1,13.13-4.21,45.06,45.06,0,0,1,11.19-1.28,30.66,30.66,0,0,1,7.53,1,19.7,19.7,0,0,1,2,.63A2.79,2.79,0,0,1,266,126.07Z" style="fill:#e0e0e0"></path><path d="M199.09,136.66a7.89,7.89,0,0,1,1.7,5.46c-.19,3.41-2.49,27.54-2.49,27.54l-2.22.29,1.33-26.74-.46-5.93Z" style="opacity:0.30000000000000004"></path><path d="M163.87,98.89s2,4.06,2.85,3.81a12,12,0,0,0,2.29-1.29l2.6.33.32-1.2a3,3,0,0,0-2-.77c-1.07.13-2.28,2.32-2.79,1.64S165.71,97.68,163.87,98.89Z" style="fill:#263238"></path><path d="M188,99.06s-2,4.07-2.86,3.81a11.62,11.62,0,0,1-2.28-1.29l-2.61.34-.32-1.21a3,3,0,0,1,2-.76c1.08.13,2.28,2.31,2.79,1.63S186.13,97.86,188,99.06Z" style="fill:#263238"></path><path d="M180.59,101.75s.7-2.36,0-3.4-1.21-.54-1.21-.54l1-3.42s5.21-3.62,3-4.77-2.77,4.38-6.34,4.19l-.92.06h0l-1-.06c-3.56.19-4.11-5.34-6.33-4.19s3,4.76,3,4.76l1,3.43s-.51-.51-1.21.53,0,3.4,0,3.4-2.28,1.34-2.28,3.3A2,2,0,0,0,171,107.2l5-.75,5.09.76a2,2,0,0,0,1.72-2.16C182.88,103.08,180.59,101.75,180.59,101.75Z" style="fill:#e0e0e0"></path><path d="M180.59,101.75a1.59,1.59,0,0,1,.43.24,6,6,0,0,1,1.07.94A3.44,3.44,0,0,1,183,105a2.52,2.52,0,0,1-.38,1.44,2.23,2.23,0,0,1-1.44.9h0l-5.1-.73h.06l-5,.78h0a2.22,2.22,0,0,1-1.56-1,2.69,2.69,0,0,1-.32-1.87,4.88,4.88,0,0,1,2.35-3l-.11.28a7.34,7.34,0,0,1-.31-2.5,2.27,2.27,0,0,1,.47-1.3,1.63,1.63,0,0,1,.57-.49.78.78,0,0,1,.89.1l-.43.26c-.32-1.09-.67-2.25-1-3.43l.1.14a18.12,18.12,0,0,1-2.5-2.13,5.81,5.81,0,0,1-.93-1.25,1.89,1.89,0,0,1-.21-.83,1.07,1.07,0,0,1,.43-.82,1.76,1.76,0,0,1,.78-.34,2.24,2.24,0,0,1,.45,0,2.5,2.5,0,0,1,.41.16,3.87,3.87,0,0,1,1.09,1.08,14.63,14.63,0,0,0,1.71,2.17,3,3,0,0,0,2.26.92h0l1,.06.23,0v.22h0l-.26-.24.92-.06h0a3,3,0,0,0,1.85-.55,6.38,6.38,0,0,0,1.36-1.43c.4-.52.75-1.08,1.2-1.59a2.46,2.46,0,0,1,.82-.63,1.29,1.29,0,0,1,1.07,0,1.18,1.18,0,0,1,.74.75,1.4,1.4,0,0,1-.15,1,5.55,5.55,0,0,1-1.06,1.39,17.49,17.49,0,0,1-2.39,2l.06-.09c-.4,1.3-.75,2.43-1.05,3.42l-.22-.13a.66.66,0,0,1,.69-.1,1.4,1.4,0,0,1,.48.37,1.9,1.9,0,0,1,.46.93,4.58,4.58,0,0,1,0,1.58,6.54,6.54,0,0,1-.2.94,1,1,0,0,1-.12.31s.1-.43.19-1.27a4.69,4.69,0,0,0-.05-1.52,1.83,1.83,0,0,0-.44-.82c-.21-.25-.58-.44-.81-.23l-.35.31.13-.44c.28-1,.61-2.13,1-3.44l0,0,.05,0a18.61,18.61,0,0,0,2.31-2,5.31,5.31,0,0,0,1-1.3,1.13,1.13,0,0,0,.12-.72.8.8,0,0,0-.51-.47,1.17,1.17,0,0,0-1.4.52c-.41.46-.76,1-1.16,1.57a6.8,6.8,0,0,1-1.46,1.53,3.42,3.42,0,0,1-2.14.66h0l-.92.06-.25,0v-.26h0l.23.23-1-.06h0a3.5,3.5,0,0,1-2.64-1,14.94,14.94,0,0,1-1.77-2.23,3.78,3.78,0,0,0-.93-.94,1,1,0,0,0-1.07.12c-.31.22-.28.61-.07,1a5.13,5.13,0,0,0,.84,1.12A17.16,17.16,0,0,0,172,94.16l.08.06,0,.08,1,3.43.31,1-.73-.78c-.13-.14-.47,0-.7.33a1.77,1.77,0,0,0-.37,1,6.94,6.94,0,0,0,.28,2.32l.05.18-.16.11a4.42,4.42,0,0,0-2.14,2.68,2.32,2.32,0,0,0,.25,1.55,1.77,1.77,0,0,0,1.22.79H171l5-.72h.06l5.09.8h0a1.93,1.93,0,0,0,1.24-.75,2.31,2.31,0,0,0,.37-1.27,3.27,3.27,0,0,0-.8-2A9.11,9.11,0,0,0,180.59,101.75Z" style="fill:#263238"></path><path d="M157.55,127.57s-9.15-6.15-11.34-15.3-1.64-13.93-1.64-13.93A9.68,9.68,0,0,1,147.3,100c1.23,1.09,4.65,1.09,4.65,1.09L151,102.3s.92,8.74,3.1,13.25,3.42,5.33,3.42,5.33Z" style="fill:#263238"></path><path d="M147.72,92.52l-1.22,7.83,2.69,1.06s1.06-5.38,2.93-7.58L151,93.26s1.33-3.18,2.31-3.91l-.89-.49s2.28-2,2-3.51,0-1.22,0-1.22l2.35-3.1.7-3a12.82,12.82,0,0,1,4.35-4.65,9.17,9.17,0,0,0,3.34-2.52l-1.06-.41a2.93,2.93,0,0,1,3.26-1.06,9.59,9.59,0,0,1,2.44,1.14,2.9,2.9,0,0,0-2.6-3.1c-2.86-.48-5.38,2.45-5.38,2.45a4.83,4.83,0,0,0-3.71,2.61c-1.26,2.44-3.3,5.78-3.3,5.78s-2.12.82-2,4.32c0,0-2.6,2-2.52,3.26a16.17,16.17,0,0,1,0,2.2,1.3,1.3,0,0,0-1.31.57,7.08,7.08,0,0,0-.4,2.45l.08,1.63Z" style="fill:#263238"></path><path d="M193.71,127.45s9.15-6.15,11.34-15.3,1.64-13.93,1.64-13.93A9.68,9.68,0,0,0,204,99.86c-1.23,1.09-4.65,1.09-4.65,1.09l.92,1.23s-.92,8.74-3.1,13.25-3.42,5.33-3.42,5.33Z" style="fill:#263238"></path><path d="M203.54,92.4l1.22,7.83-2.69,1.06s-1.06-5.38-2.93-7.58l1.09-.57s-1.33-3.18-2.31-3.91l.89-.49s-2.28-2-2-3.51,0-1.22,0-1.22l-2.35-3.1-.7-3a12.82,12.82,0,0,0-4.35-4.65A9.17,9.17,0,0,1,186,70.73l1.06-.41a2.94,2.94,0,0,0-3.26-1.06,9.87,9.87,0,0,0-2.45,1.14A2.91,2.91,0,0,1,184,67.3c2.85-.48,5.38,2.45,5.38,2.45a4.83,4.83,0,0,1,3.71,2.61c1.26,2.44,3.3,5.78,3.3,5.78s2.12.82,2,4.32c0,0,2.6,2,2.52,3.26a16.17,16.17,0,0,0,0,2.2,1.3,1.3,0,0,1,1.31.57,7.08,7.08,0,0,1,.4,2.45l-.08,1.63Z" style="fill:#263238"></path><path d="M159.65,132.08s-4.07.92-5.24,4.13.56,40.55,5.24,48.43,11.32,10.94,17.56,9.77,13.38-1.75,16.59-9.77c2.73-6.82,5.14-35.67,5.8-44.17a7.37,7.37,0,0,0-1-4.38h0a7.34,7.34,0,0,0-6.16-3.53Z" style="fill:#FF725E"></path><path d="M175.59,149.2a1.58,1.58,0,0,1,.06.48c0,.38,0,.83.09,1.38,0,1.28.13,3,.22,5.08.16,4.29.34,10.22.52,16.76,0,1.64.08,3.24.11,4.78a18.37,18.37,0,0,1-.39,4.49,9.23,9.23,0,0,1-1.81,3.67,11.74,11.74,0,0,1-2.67,2.35,23.57,23.57,0,0,1-4.59,2.24c-.56.22-1,.37-1.3.47a1.37,1.37,0,0,1-.47.12,18.58,18.58,0,0,1,1.7-.77,27.93,27.93,0,0,0,4.45-2.37,9.58,9.58,0,0,0,4.22-5.82c.62-2.72.25-5.88.23-9.15-.18-6.54-.3-12.47-.37-16.76,0-2.08,0-3.8-.05-5.08v-1.39A1.68,1.68,0,0,1,175.59,149.2Z" style="fill:#263238"></path><path d="M189.27,190a7.13,7.13,0,0,1-2.42-.23,16.86,16.86,0,0,1-9.74-6.22,7.19,7.19,0,0,1-1.23-2.09c.07,0,.56.73,1.52,1.86a19.26,19.26,0,0,0,9.54,6.09C188.36,189.76,189.28,189.88,189.27,190Z" style="fill:#263238"></path><path d="M164,184.35a9.54,9.54,0,0,1-.49-1.62c-.28-1.06-.65-2.59-1.07-4.49-.86-3.81-1.88-9.11-2.71-15s-1.3-11.28-1.52-15.17c-.11-1.95-.18-3.53-.2-4.62a10,10,0,0,1,0-1.69,9.4,9.4,0,0,1,.18,1.68c.1,1.18.22,2.73.37,4.6.32,3.88.84,9.24,1.67,15.13s1.79,11.18,2.55,15l.91,4.52A11.59,11.59,0,0,1,164,184.35Z" style="fill:#263238"></path><path d="M165.85,180.69a6.06,6.06,0,0,1-.33-1.28c-.17-.83-.4-2-.67-3.53-.52-3-1.16-7.13-1.72-11.73s-.92-8.77-1.11-11.8c-.1-1.51-.17-2.74-.19-3.59a5.85,5.85,0,0,1,0-1.32,7.18,7.18,0,0,1,.19,1.31c.09.94.21,2.14.35,3.57.3,3,.72,7.18,1.27,11.77s1.13,8.73,1.57,11.73c.2,1.42.37,2.61.5,3.56A6.63,6.63,0,0,1,165.85,180.69Z" style="fill:#263238"></path><path d="M168.52,175.16c-.14,0-.62-5.57-1.07-12.46s-.7-12.48-.56-12.49.63,5.56,1.08,12.46S168.67,175.15,168.52,175.16Z" style="fill:#263238"></path><path d="M170.61,175.59a87.15,87.15,0,0,1-.44-9.77,89.76,89.76,0,0,1,.08-9.77,93.28,93.28,0,0,1,.44,9.77A92.91,92.91,0,0,1,170.61,175.59Z" style="fill:#263238"></path><path d="M187.61,184a9.69,9.69,0,0,1,.29-1.67c.23-1.16.54-2.68.91-4.53.76-3.82,1.72-9.11,2.55-15s1.35-11.24,1.67-15.13c.15-1.87.27-3.42.36-4.6a10.27,10.27,0,0,1,.19-1.68,11.62,11.62,0,0,1,0,1.69c0,1.1-.09,2.67-.2,4.62-.23,3.9-.7,9.27-1.52,15.17s-1.86,11.2-2.71,15c-.42,1.9-.8,3.44-1.08,4.49A11.82,11.82,0,0,1,187.61,184Z" style="fill:#263238"></path><path d="M185.77,180.32a6.09,6.09,0,0,1,.12-1.31c.14-.94.31-2.14.51-3.56.43-3,1-7.14,1.57-11.73s1-8.75,1.26-11.77q.21-2.14.36-3.57a6.38,6.38,0,0,1,.19-1.31,6.84,6.84,0,0,1,0,1.32c0,.85-.09,2.08-.19,3.59-.2,3-.56,7.21-1.12,11.8s-1.19,8.74-1.72,11.73c-.26,1.5-.49,2.7-.67,3.53A6.58,6.58,0,0,1,185.77,180.32Z" style="fill:#263238"></path><path d="M183.09,174.79c-.14,0,.11-5.6.56-12.49s.93-12.47,1.07-12.46-.1,5.6-.55,12.49S183.24,174.8,183.09,174.79Z" style="fill:#263238"></path><path d="M181,175.23a93.15,93.15,0,0,1-.08-9.78,93.5,93.5,0,0,1,.44-9.77,93.06,93.06,0,0,1,.08,9.78A93.72,93.72,0,0,1,181,175.23Z" style="fill:#263238"></path><g style="opacity:0.30000000000000004"><path d="M165.36,191c2.95,1.44,7.58-1.41,9.79-4.32,2.43-3.19,2.56-7.56,2.13-11.56s-.9-12.82-1.4-16.38c0,0-.08,7.46.46,14.56.5,6.53-.5,11.89-3.69,14.06C167.31,191,165.36,191,165.36,191Z"></path></g><g style="opacity:0.30000000000000004"><path d="M159.82,132.57c-.52,2.17,1.43,4.15,3.42,5.16s4.31,1.66,5.69,3.42a13.24,13.24,0,0,1,1.78,4.37A22.12,22.12,0,0,0,173.3,151a4.41,4.41,0,0,0,2.41,2.1c1.5.37,3-.78,3.78-2.11,1.53-2.62,1.38-6.08,3.32-8.42,1.73-2.08,4.66-2.7,6.83-4.32a8.91,8.91,0,0,0,3.51-7.08Z"></path></g><path d="M175.26,105.57s-18.21,5.77-18.24,14.78,3.06,15,9.12,16.8,5.54,3.58,5.54,3.58,2.43,11,4.86,10.36,6-11.25,6-11.25,6.65-2.94,9.46-6.78,2.94-3.58,3.2-7.16-1.15-12.28-6.14-15S177.76,104.66,175.26,105.57Z" style="fill:#263238"></path><path d="M192.46,126.42c-.18-.53.27-1.86,0-2.58a1.41,1.41,0,0,1,0-1.15,6.31,6.31,0,0,1-.62-1.31,1.76,1.76,0,0,0-.36-1.36c-.35-.26.09-.62,0-1.24a4.23,4.23,0,0,0-.95-1.6c-.25-.36-1.62-3.29-1.62-3.29s-1.51-1.6-1.42-2.66.88.62,1.24,1.24a54.23,54.23,0,0,0,3.84,3.87,12,12,0,0,0-2.21-4.42,45.88,45.88,0,0,0-8.07-4.71,20.55,20.55,0,0,0-2.95-1c-.38-.14.06,1.29.95,3.34s.35,1.33.44,3.41,1,2.1,2,3.87,3.11,5.87,3,7.47-3.47,10.22-3.47,10.22-1.24,2.31-2.93,2.31a2,2,0,0,1-1.95-1.69s.08-8.89,0-10.84-.72-10.22-.89-11.82.26-4.8,0-5.78-.72.45-.68.71-.48,3.65-.48,3.65a43.28,43.28,0,0,0,.39,4.71c.3,1.69-.3,5.69-.09,6.57s0,6.94,0,6.94.26,7-.64,7.37a4.79,4.79,0,0,1-3.55-.44c-1.42-.62-.88-2-1.69-2.94s-.34-3.73-.61-5.69a20.1,20.1,0,0,0-1.24-4.26,30.1,30.1,0,0,1,1.85-4.18,52.78,52.78,0,0,0,3.39-7.55c.62-2-.18-2.4,0-2.67a5.72,5.72,0,0,0,1.78-2.13c.44-1.24-1.17-.74-1.17-.74l-2.34,1A41.19,41.19,0,0,0,162,112.3c-3.22,2.54-4.78,5.67-4.69,6a3,3,0,0,1,0,1s.36.36.65.09a7.53,7.53,0,0,1,1.31-.71l1.07-2s1.16-2,1.6-2.58a2.38,2.38,0,0,1,2-1c.31,0-.89,1.65-1.34,2.19s-1.15,1.77-1.42,2.13-.71,1.86-1.52,6.66c-.43,2.6,0,3.87.38,4.49,0,.14.05.3.07.49.54,3.47.8,3,.8,3a6.14,6.14,0,0,0,2.14,2.31c1.24.62.8,0,.71-2.13s-1.07-2.13-1.42-3.84a42.38,42.38,0,0,1-.54-4.69s1.42-3.73,2-5.78a17.17,17.17,0,0,1,2.93-5.51c.71-.62,3.91-3.82,5.06-3.2s-1.24,4.27-1.24,4.27l-1.51,2.58-1.24,1.51L167,118.6a10.08,10.08,0,0,0-1.25,1.51A11.6,11.6,0,0,0,165,122v1.18l.8,1.93,1.25,1.6v1.58c0,.43,1.95,8.28,2.13,8.55a4.27,4.27,0,0,0,1.07.71l.88.8,1.69.36c1.69.35,1.07.62,1.42.71s1.16,1,1.16,1h2l1.77-.35h1.08l1.68-1.25,1.06-1.15.8-1.42,1.25-1.6.89-2.14,1.15-3.37v-2a16.14,16.14,0,0,0,1-1.86c.18-.54.18-.89-.27-3.8s-1.42-2-1.42-2l-.53-.89a9.65,9.65,0,0,0-1.69-1.86l-1-1.87-.89-2.58.45-2.66.53-.27a1,1,0,0,1,1,.09L186,111l.8,1.51,1.25,1.69s-.36-.36.53,1.15,0,0,.36,2.14.35,1.24.35,1.24l.54,1.6.08,1.6L189.8,123l1,.71a.85.85,0,0,1,.18,1.42l-.09,1.42-.18,1.06-.62,1.61-1.42,1.69-.89,1.33s.8.89,1.6.71l1.51-1.69,1.07-1.6.62-1.35A7.1,7.1,0,0,0,192.46,126.42Z" style="fill:#e0e0e0"></path><path d="M175.26,105.57a.76.76,0,0,1,.25-.08,2.54,2.54,0,0,1,.75-.1,10.28,10.28,0,0,1,2.87.55,50.24,50.24,0,0,1,9.79,4.71,10.31,10.31,0,0,1,2.74,2.44,16.07,16.07,0,0,1,2,3.47,23.46,23.46,0,0,1,1.82,8.63c0,.8-.08,1.58-.17,2.39a5.61,5.61,0,0,1-.77,2.38,24.34,24.34,0,0,1-1.44,2c-.5.67-1,1.37-1.56,2a21.21,21.21,0,0,1-4.08,3.38,37.46,37.46,0,0,1-4.79,2.65l.14-.15c-.67,2-1.43,3.91-2.3,5.86-.44,1-.91,1.95-1.45,2.9a13.69,13.69,0,0,1-.91,1.38,3.94,3.94,0,0,1-1.27,1.19,1.19,1.19,0,0,1-1,0,1.93,1.93,0,0,1-.71-.52,6.41,6.41,0,0,1-.91-1.33,20.94,20.94,0,0,1-1.21-2.86,55.1,55.1,0,0,1-1.64-5.78v-.06l0-.07a1.12,1.12,0,0,0-.14-.47,2.49,2.49,0,0,0-.39-.48,4.78,4.78,0,0,0-1-.78,13.71,13.71,0,0,0-2.44-1.1c-.83-.29-1.69-.53-2.54-.87a10.87,10.87,0,0,1-2.33-1.32,11.91,11.91,0,0,1-3.36-3.9,17.48,17.48,0,0,1-1.7-4.59,26.36,26.36,0,0,1-.62-4.57c-.06-.75,0-1.48-.06-2.2a7.55,7.55,0,0,1,.35-2.14,10.1,10.1,0,0,1,2-3.5,18.79,18.79,0,0,1,2.7-2.54,35,35,0,0,1,5.33-3.35c1.64-.85,3.09-1.48,4.29-2s2.13-.82,2.77-1l.73-.23a.8.8,0,0,1,.25-.06l-.24.1-.71.27c-.63.24-1.55.6-2.73,1.11a43,43,0,0,0-9.48,5.41,19.31,19.31,0,0,0-2.63,2.51,10,10,0,0,0-1.93,3.39,11.59,11.59,0,0,0-.25,4.19,26.22,26.22,0,0,0,.64,4.5,13.7,13.7,0,0,0,4.91,8.2,11.06,11.06,0,0,0,2.23,1.26c.79.31,1.65.55,2.52.85a15,15,0,0,1,2.53,1.13,5.84,5.84,0,0,1,1.15.86,1.74,1.74,0,0,1,.66,1.45v-.12a56.5,56.5,0,0,0,1.63,5.72,21.27,21.27,0,0,0,1.18,2.78,6.2,6.2,0,0,0,.82,1.22c.34.36.71.57,1.08.38a6.72,6.72,0,0,0,2-2.36c.53-.93,1-1.89,1.43-2.85.86-1.93,1.62-3.88,2.29-5.81l0-.11.1-.05a37.68,37.68,0,0,0,4.72-2.6,21.34,21.34,0,0,0,4-3.28c.55-.62,1-1.32,1.54-2s1-1.33,1.42-2a5.2,5.2,0,0,0,.72-2.2c.09-.78.15-1.58.17-2.33a23.06,23.06,0,0,0-1.74-8.48,11.72,11.72,0,0,0-4.52-5.78,52.38,52.38,0,0,0-9.67-4.81,10,10,0,0,0-2.82-.63,2.59,2.59,0,0,0-.74,0Z" style="fill:#263238"></path><path d="M174.15,140.37c-.1.24-.58,2.36-.58,2.36v.89l.29,1.53a11,11,0,0,0,.61,2.35,21.38,21.38,0,0,0,1.21,2.68s.07,1.53.45.64a11,11,0,0,0,0-4.34,37.05,37.05,0,0,1-.58-3.95S174.4,139.77,174.15,140.37Z" style="fill:#e0e0e0"></path><path d="M178.8,140.69,177.21,144v5.67c.63-.32.57-.89.79-1.66s.42-1.78.42-1.78a7.88,7.88,0,0,1,.38-1.59,9.59,9.59,0,0,0,.83-1.53c.06-.32.51-1,.51-1.4s.32-.71,0-1" style="fill:#e0e0e0"></path><path d="M244,183.69c-.07.12-4.9-2.73-10.79-6.36s-10.59-6.68-10.51-6.8,4.9,2.72,10.79,6.36S244.1,183.57,244,183.69Z" style="fill:#263238"></path><path d="M272.57,189.16c0,.14-7.21.26-16.1.26s-16.1-.12-16.1-.26,7.21-.26,16.1-.26S272.57,189,272.57,189.16Z" style="fill:#263238"></path><path d="M268.83,193.28c0,.14-4.78.26-10.67.26s-10.68-.12-10.68-.26,4.78-.26,10.68-.26S268.83,193.14,268.83,193.28Z" style="fill:#263238"></path><path d="M232.85,106.74c.07.12-6.42,3.73-14.49,8.05s-14.68,7.73-14.75,7.6,6.42-3.73,14.5-8.06S232.79,106.61,232.85,106.74Z" style="fill:#263238"></path><path d="M264.71,104.91c0,.14-5.87.26-13.11.26s-13.1-.12-13.1-.26,5.86-.26,13.1-.26S264.71,104.77,264.71,104.91Z" style="fill:#263238"></path><path d="M132.5,173.76c.07.12-5.33,3.54-12.08,7.64s-12.27,7.33-12.34,7.2,5.33-3.54,12.07-7.64S132.42,173.63,132.5,173.76Z" style="fill:#263238"></path><path d="M113.43,197.77c0,.15-4.78.26-10.67.26s-10.67-.11-10.67-.26,4.78-.26,10.67-.26S113.43,197.63,113.43,197.77Z" style="fill:#263238"></path><path d="M112.31,202.64a60.4,60.4,0,0,1-7.86.26,60.49,60.49,0,0,1-7.87-.26,60.49,60.49,0,0,1,7.87-.26A60.4,60.4,0,0,1,112.31,202.64Z" style="fill:#263238"></path><path d="M126.16,64.85c0,.14-10.22.26-22.84.26S80.48,65,80.48,64.85s10.23-.26,22.84-.26S126.16,64.7,126.16,64.85Z" style="fill:#263238"></path><path d="M108.94,70.84c0,.14-5.87.26-13.11.26s-13.1-.12-13.1-.26,5.87-.26,13.1-.26S108.94,70.69,108.94,70.84Z" style="fill:#263238"></path><rect x="160.35" y="39.62" width="31.05" height="8.73" style="fill:#e0e0e0"></rect><path d="M191.4,48.35a5.31,5.31,0,0,1,0-.62c0-.44,0-1,0-1.73,0-1.53-.05-3.69-.09-6.38l.16.16c-7.15.06-18.41.1-31,.1.11-.12-.27.26.26-.26h0v8.72l-.26-.26,22.11.12,6.53.07,1.78,0,.63,0a3.75,3.75,0,0,1-.57,0l-1.72,0-6.47.08-22.29.11h-.25v-9h0c.52-.53.15-.15.27-.27,12.63,0,23.89,0,31,.1h.17v.17c0,2.73-.06,4.92-.09,6.48,0,.7,0,1.26,0,1.69A3.67,3.67,0,0,1,191.4,48.35Z" style="fill:#263238"></path></g><g id="freepik--Character--inject-217"><path d="M322.75,247.47a62.11,62.11,0,0,1,8.89-3.65c9.81-2.75,30.26-5,30.26-5l4.34-6.47,59-8.93.82,2.45,7.76,14.05,45.91,26.13L437.54,389.64l32.87,74.87-166,0,3.93-168.92Z" style="fill:#e0e0e0"></path><path d="M337.73,464.75a1.24,1.24,0,0,1,0-.34c0-.26.05-.59.08-1,.09-.91.22-2.21.38-3.86.32-3.35.86-8.2,1.57-14.18,1.42-12,3.67-28.45,6.75-46.57s6.41-34.44,9-46.2c1.3-5.88,2.4-10.62,3.2-13.9.39-1.61.7-2.87.92-3.76.11-.41.19-.73.26-1a1.89,1.89,0,0,1,.1-.33,1.63,1.63,0,0,1,0,.34q-.08.38-.21,1c-.19.9-.47,2.17-.82,3.79-.74,3.28-1.79,8-3,13.93-2.52,11.78-5.79,28.09-8.88,46.21s-5.38,34.58-6.9,46.53c-.75,6-1.34,10.81-1.73,14.15-.2,1.65-.36,2.94-.47,3.85-.06.42-.1.75-.14,1A1.48,1.48,0,0,1,337.73,464.75Z" style="fill:#263238"></path><path d="M323.07,247.47s-11.51,7.3-20,16.66-47.53,43.22-47.53,43.22l-4.39-11.78s-54.56,4-55.56,13.72,17,53.3,24,61.51,29.09,5.29,38.56,0,53.41-44,53.41-44l20.57-62.67Z" style="fill:#e0e0e0"></path><path d="M304.68,282.78c.14,0,.44,26,.66,58s.29,57.95.14,58-.44-25.95-.66-58S304.53,282.78,304.68,282.78Z" style="fill:#263238"></path><path d="M224.35,286.2c-.19-.15-17.35,31.48-15,33.08,2.63,1.83,30-6.11,30.1-7.89l4.18-17.59Z" style="fill:#ffbf9d"></path><path d="M310.21,380.67l31.86,27.07L332.17,440s55.89,12.74,81.05,14.63c30.21,2.27,51.35-3.44,51.35-3.44L453,424.38,313.12,367Z" style="opacity:0.30000000000000004"></path><polygon points="331.93 384.96 374.18 415.25 381.18 374.31 344.87 358.6 331.93 384.96" style="fill:#ffbf9d"></polygon><path d="M446.35,303.64s-18.47,79.44-18.47,81.16-29.63-5.88-29.63-5.88l-37.79-14.3-20.72,64.54L415,447.92s32.2,4.29,45.09-5.58,20.61-33.07,22.76-50.24S496.54,310,494,293.8c-3.29-21.06-16.81-29.67-16.81-29.67" style="fill:#e0e0e0"></path><path d="M477.2,264.13a22,22,0,0,1,3.64,3,42.83,42.83,0,0,1,8.08,10.8A51.15,51.15,0,0,1,492.6,287a43.87,43.87,0,0,1,1.87,11.53c.09,8.42-.87,18-2.09,28.53s-2.9,22.11-4.77,34.53q-1.41,9.33-2.93,19.29c-.49,3.32-1,6.69-1.46,10.12s-1,6.92-1.75,10.39a106.59,106.59,0,0,1-6.71,20.84,70.58,70.58,0,0,1-5.37,10,45.09,45.09,0,0,1-7.47,8.89,25.09,25.09,0,0,1-10.41,5.56,60.66,60.66,0,0,1-11.88,2.07,125.89,125.89,0,0,1-24.66-.56h0l-30.39-7.57-44.87-11.2-.27-.06.08-.26,20.75-64.53.08-.24.23.09,37.78,14.32h0c8.34,2.1,16.34,4.07,24,5.52,1,.18,1.91.34,2.86.47.48.06.95.11,1.42.14a5.29,5.29,0,0,0,.69,0c.22,0,.48-.09.41-.1.15-1,.35-1.9.55-2.81s.39-1.83.59-2.73q1.21-5.41,2.35-10.49c3.12-13.53,5.83-25.27,8.05-34.92s4-17.17,5.22-22.31c.61-2.56,1.07-4.52,1.39-5.85s.5-2,.5-2-.14.69-.44,2-.75,3.3-1.33,5.86c-1.17,5.15-2.9,12.7-5.1,22.34l-8,34.94q-1.12,5.08-2.33,10.5c-.38,1.79-.82,3.66-1.12,5.47a1.21,1.21,0,0,0,0,.14.25.25,0,0,1-.11.15.57.57,0,0,1-.23.12,1.85,1.85,0,0,1-.39.06,6.09,6.09,0,0,1-.74,0c-.48,0-1-.08-1.45-.15-1-.12-1.92-.28-2.88-.46-7.7-1.44-15.69-3.4-24.05-5.49h0l-37.8-14.28.31-.15c-6.46,20.14-13.41,41.81-20.71,64.54l-.18-.32,44.88,11.18,30.38,7.58h0a126.39,126.39,0,0,0,24.55.58,61.37,61.37,0,0,0,11.78-2.05,24.57,24.57,0,0,0,10.23-5.46c5.76-5.2,9.69-12,12.73-18.71a106.43,106.43,0,0,0,6.7-20.75c.79-3.46,1.29-6.92,1.76-10.35s1-6.8,1.47-10.12q1.53-10,3-19.29c1.88-12.42,3.56-24,4.83-34.51s2.22-20.1,2.15-28.48a43.53,43.53,0,0,0-1.81-11.47,51,51,0,0,0-3.63-9.07,43.45,43.45,0,0,0-8-10.82,31.69,31.69,0,0,0-2.62-2.31c-.31-.25-.55-.43-.71-.54Z" style="fill:#263238"></path><path d="M454.13,407.74c-.1.05-.85-1.89-2.66-4.67a38.07,38.07,0,0,0-8.85-9.37,57.72,57.72,0,0,0-11.14-6.58c-1.52-.68-2.75-1.22-3.62-1.56a7.89,7.89,0,0,1-1.32-.6,7.67,7.67,0,0,1,1.39.41c.89.28,2.16.77,3.7,1.41a52.06,52.06,0,0,1,11.31,6.51,35.5,35.5,0,0,1,8.84,9.58c.22.35.42.7.62,1l.49.95a14.46,14.46,0,0,1,.73,1.54A8.12,8.12,0,0,1,454.13,407.74Z" style="fill:#263238"></path><path d="M250.58,296.3a3.17,3.17,0,0,1-.05.68,13,13,0,0,1-.38,1.9,18.57,18.57,0,0,1-3.24,6.34,26,26,0,0,1-8.09,6.78,60.78,60.78,0,0,1-12,4.81,54.88,54.88,0,0,1-12.67,2.63,22.1,22.1,0,0,1-10.4-1.72,18.34,18.34,0,0,1-5.91-4,14.59,14.59,0,0,1-1.25-1.49,3.64,3.64,0,0,1-.37-.57s.57.75,1.76,1.92a19.12,19.12,0,0,0,5.91,3.77A22.18,22.18,0,0,0,214.11,319a56.76,56.76,0,0,0,12.55-2.65,63.53,63.53,0,0,0,11.93-4.74,26,26,0,0,0,8-6.59,19.08,19.08,0,0,0,3.33-6.17C250.44,297.23,250.52,296.29,250.58,296.3Z" style="fill:#263238"></path><path d="M232.46,361.7a3,3,0,0,1,.42-.48l1.25-1.32c1.09-1.13,2.68-2.77,4.58-4.84a84.6,84.6,0,0,0,12.94-17.66,48.29,48.29,0,0,0,4.16-11.28,38.12,38.12,0,0,0,1-9.77,32,32,0,0,0-.85-6.58c-.37-1.52-.64-2.36-.59-2.37a2.61,2.61,0,0,1,.24.59c.12.39.36,1,.55,1.73a29.55,29.55,0,0,1,1,6.61,37.27,37.27,0,0,1-.89,9.89,47.36,47.36,0,0,1-4.17,11.42A79.82,79.82,0,0,1,239,355.31c-1.94,2-3.57,3.64-4.71,4.74L233,361.29A2.9,2.9,0,0,1,232.46,361.7Z" style="fill:#263238"></path><path d="M433.81,239.93s-.05.24-.17.69-.3,1.15-.53,2c-.48,1.8-1.18,4.4-2.08,7.75-1.84,6.74-4.49,16.45-7.76,28.41l0,.16-.16,0-12.84-1.3.22-.29c1.54,4.11,3.17,8.43,4.85,12.93l.07.16-.14.11L371,324.5,360,333l-.32.24-.09-.39c-4.63-20.76-8.89-39.85-12.44-55.79l0-.17.16-.07L359.73,271v.35l-9.49-3.87-.16-.06.07-.15c3.36-8,6-14.41,7.87-18.78.91-2.17,1.62-3.84,2.11-5l.55-1.28.2-.42a4,4,0,0,1-.16.44l-.51,1.3-2,5c-1.8,4.39-4.43,10.78-7.73,18.84l-.09-.21,9.51,3.82.4.16-.39.18-12.46,5.83.11-.24c3.58,15.94,7.87,35,12.54,55.77l-.41-.14,11-8.48L415,290.18l-.08.26c-1.68-4.5-3.29-8.83-4.82-12.94l-.12-.32.34,0,12.84,1.35-.21.14c3.34-11.95,6-21.64,7.92-28.36.95-3.34,1.68-5.94,2.19-7.73.25-.86.44-1.53.58-2S433.81,239.93,433.81,239.93Z" style="fill:#263238"></path><path d="M466.76,264c.05.08-1.41,1.18-3.54,3.19a50.61,50.61,0,0,0-12.59,18.91c-1,2.75-1.48,4.52-1.57,4.49a5.53,5.53,0,0,1,.24-1.26,33.12,33.12,0,0,1,1-3.35A45.72,45.72,0,0,1,463,267c1.11-1,2-1.73,2.71-2.21A6.57,6.57,0,0,1,466.76,264Z" style="fill:#263238"></path><path d="M430.15,253.16c-.16.58-4.91,31.37-4.91,31.37l-8.19-2.71,2.55,9.81-59.78,41.14,55.27-42.41-4.84-12.93,12.84,1.32Z" style="opacity:0.30000000000000004"></path><rect x="398.26" y="316.73" width="14.44" height="49.26" transform="translate(0.56 683.38) rotate(-80.28)" style="fill:#e0e0e0"></rect><path d="M428.54,352.63a.86.86,0,0,1,0-.26c0-.19.06-.43.1-.73.11-.67.26-1.61.44-2.82.41-2.46,1-6,1.7-10.45l.14.19-48.57-8.22.3-.21h0v.09l0,.11,0,.23-.08.46-.16.92c-.1.61-.2,1.22-.31,1.82-.21,1.21-.41,2.42-.62,3.6l-1.2,7-.2-.29,34.61,6,10.18,1.82,2.75.5.71.14.26.06-.23,0-.69-.1-2.71-.43-10.14-1.67-34.83-5.84-.25-.05,0-.25c.39-2.26.79-4.6,1.19-7,.21-1.19.41-2.39.62-3.6.1-.61.21-1.22.31-1.83L382,331l.08-.46,0-.23,0-.12v-.09h0c.61-.43.17-.12.31-.21L431,338.24l.17,0,0,.16c-.81,4.48-1.45,8-1.9,10.52q-.33,1.77-.51,2.76c-.06.29-.1.52-.14.7A1.94,1.94,0,0,1,428.54,352.63Z" style="fill:#263238"></path><g style="opacity:0.30000000000000004"><path d="M455.43,404.05a31,31,0,0,0-27.12-19.36l-1.57.32a36.67,36.67,0,0,1,11.39,5.64c5.37,4.22,10.63,8.21,13.7,14.31a6.37,6.37,0,0,0,1.18,1.87,1.8,1.8,0,0,0,2,.43C456.08,406.69,455.86,405.15,455.43,404.05Z"></path></g><g style="opacity:0.30000000000000004"><path d="M380.29,344.36c7.8,3.27,12.21,5.72,20.47,7.51a78.91,78.91,0,0,0,27.78.76Z"></path></g><path d="M316,307.38l.1,60.4a6.38,6.38,0,0,1-6.38,6.4H271.9a6.38,6.38,0,0,1-6.38-6.38V307.38a2.56,2.56,0,0,1-1.42-2.83h53.64S318.76,306.19,316,307.38Z" style="fill:#fafafa"></path><path d="M316,307.38s.3-.13.82-.48a2.74,2.74,0,0,0,.81-.82,1.5,1.5,0,0,0,.05-1.5l.05,0-53.64.16.22-.18a2.34,2.34,0,0,0,.17,1.47,2.46,2.46,0,0,0,1.12,1.11l.14.07v.14c0,17.18,0,37.39,0,58.93a11.48,11.48,0,0,0,.2,3,6,6,0,0,0,1.38,2.57,6.35,6.35,0,0,0,5.28,2h11.9l22.48,0c1.79-.06,3.6.23,5.14-.5a6.22,6.22,0,0,0,3.34-3.51,6.75,6.75,0,0,0,.39-2.4V342.41c0-10.82,0-19.59.05-25.67,0-3,0-5.35,0-7,0-.78,0-1.38,0-1.8s0-.6,0-.6,0,.22,0,.63,0,1,0,1.83c0,1.62,0,4,.05,7,0,6.07.08,14.84.14,25.66,0,5.41,0,11.34.07,17.7,0,1.59,0,3.2,0,4.85,0,.82,0,1.65,0,2.48a7.08,7.08,0,0,1-.41,2.56,6.68,6.68,0,0,1-3.58,3.78,6.36,6.36,0,0,1-2.66.54H272.64a6.93,6.93,0,0,1-5.67-2.2,6.8,6.8,0,0,1-1.71-4.38v-1.55c0-21.54,0-41.75,0-58.93l.14.21a3,3,0,0,1-1.35-1.33,2.71,2.71,0,0,1-.19-1.76l0-.18h.18l53.64.16h0l0,0a1.64,1.64,0,0,1-.08,1.63,2.83,2.83,0,0,1-.86.82,5,5,0,0,1-.63.33Z" style="fill:#263238"></path><path d="M291.65,313.36a2.2,2.2,0,0,1,.63-1.84,4.48,4.48,0,0,1,1.71-1,9.76,9.76,0,0,1,8.47.8,16.86,16.86,0,0,1-5.06,3.2,5.74,5.74,0,0,1-5.68-.84" style="fill:#455a64"></path><path d="M265.68,307.29c0-.15,11.21-.26,25-.26s25,.11,25,.26-11.2.26-25,.26S265.68,307.43,265.68,307.29Z" style="fill:#263238"></path><rect x="269.37" y="333.36" width="43.01" height="37.34" rx="4.13" transform="translate(581.75 704.06) rotate(180)" style="fill:#c17560"></rect><path d="M278.59,287.69a18.17,18.17,0,0,1,8.68,10.24,20.88,20.88,0,0,1-13.11-2.19,19.87,19.87,0,0,1-8.93-9.38A18.12,18.12,0,0,1,278.59,287.69Z" style="fill:#455a64"></path><path d="M302.22,271.8c3.31-3.1,7.36-5.28,11.35-7.42a30.18,30.18,0,0,1-3.76,20.19c-3.55,6-8.17,11.11-14.76,13.41A26.52,26.52,0,0,1,302.22,271.8Z" style="fill:#455a64"></path><path d="M277,290.91a2.69,2.69,0,0,1,.9.22,16.58,16.58,0,0,1,2.35.93,22,22,0,0,1,3.23,1.91,23,23,0,0,1,6.27,6.67,21.24,21.24,0,0,1,1.71,3.34,17.15,17.15,0,0,1,.79,2.4,2.81,2.81,0,0,1,.16.91c-.09,0-.42-1.25-1.29-3.16a26.42,26.42,0,0,0-1.77-3.24,28.23,28.23,0,0,0-2.78-3.54,27.42,27.42,0,0,0-3.37-3,25.47,25.47,0,0,0-3.12-2C278.19,291.41,276.94,291,277,290.91Z" style="fill:#263238"></path><path d="M289.51,320a10.43,10.43,0,0,1,.15-1.73c.06-.55.15-1.22.29-2s.26-1.67.47-2.65c.36-2,.94-4.26,1.63-6.8s1.63-5.28,2.69-8.13,2.25-5.49,3.38-7.87,2.26-4.47,3.28-6.18c.49-.86,1-1.62,1.4-2.29s.79-1.24,1.11-1.69a11,11,0,0,1,1-1.39,10.16,10.16,0,0,1-.86,1.5c-.29.46-.64,1-1,1.73s-.86,1.45-1.33,2.33c-1,1.72-2,3.83-3.17,6.19s-2.24,5-3.32,7.86-2,5.57-2.71,8.08-1.33,4.8-1.74,6.74c-.23,1-.4,1.84-.55,2.62s-.28,1.44-.37,2A11.9,11.9,0,0,1,289.51,320Z" style="fill:#263238"></path><path d="M269.3,334.34c.24-2.29,1.62-4,3.21-5.68a6.44,6.44,0,0,1,6.26-2,4.68,4.68,0,0,1,6.47-3.84,7.67,7.67,0,0,1,13.67,2.85,5.93,5.93,0,0,1,7.86,5.5,5.55,5.55,0,0,1,5.49,5.82l-42.89,5.63A45.46,45.46,0,0,1,269.3,334.34Z" style="fill:#c17560"></path><path d="M303.11,357l.54.16a1.56,1.56,0,1,1-.54-.16Z" style="fill:#7c4236"></path><path d="M280.71,338.84l.54.16a1.57,1.57,0,1,1-.54-.16Z" style="fill:#7c4236"></path><path d="M299.42,355.33l.21.07a.61.61,0,1,1-.86.72A.65.65,0,0,1,299.42,355.33Z" style="fill:#7c4236"></path><path d="M278.78,335.66l.21.06a.62.62,0,1,1-.21-.06Z" style="fill:#7c4236"></path><path d="M297.33,341.85l.21.07a.61.61,0,1,1-.86.72A.65.65,0,0,1,297.33,341.85Z" style="fill:#7c4236"></path><path d="M271.37,361.89a1.82,1.82,0,0,1,2-.47c1,.44,1.3,1.83,2.32,2.23s1.88-.27,2.84-.44c2.67-.48,4.74,2.51,7.41,2.94,1.73.28,3.44-.55,5.19-.57,3.1-.05,6.06,2.4,9.05,1.56a10.21,10.21,0,0,0,3.7-2.55,6.21,6.21,0,0,1,4-1.94c1.51,0,2.83.26,2.72,4.27h0a5.19,5.19,0,0,1-3.37,2.4,15.38,15.38,0,0,1-4.23.27l-23.51-.69a15.08,15.08,0,0,1-5.48-.84,5.11,5.11,0,0,1-3.29-4.14A2.79,2.79,0,0,1,271.37,361.89Z" style="fill:#7c4236"></path><path d="M297.05,312a15.53,15.53,0,0,0-3.79,1.21,16.78,16.78,0,0,0-3.07,2.51c-.06,0,.11-.47.57-1.07a7.31,7.31,0,0,1,2.26-1.9,7.18,7.18,0,0,1,2.81-.85C296.59,311.85,297.05,311.94,297.05,312Z" style="fill:#263238"></path><path d="M314,358.7c-.14,0-.26-10.45-.26-23.35S313.83,312,314,312s.27,10.46.27,23.35S314.12,358.7,314,358.7Z" style="fill:#263238"></path><path d="M268.84,341.37a48,48,0,0,1-.26-7,48.09,48.09,0,0,1,.26-7,46.46,46.46,0,0,1,.26,7A46.38,46.38,0,0,1,268.84,341.37Z" style="fill:#263238"></path><path d="M302.21,342.09a4.38,4.38,0,0,1-.16-1.09,29.29,29.29,0,0,0-.45-2.95,8.41,8.41,0,0,0-1.9-3.85,5.19,5.19,0,0,0-2-1.41,16.51,16.51,0,0,1-2.73-.88,5.8,5.8,0,0,1-1.88-2.23,5.26,5.26,0,0,0-1.68-1.87,5.85,5.85,0,0,1-1.82-1.64,5.59,5.59,0,0,1-.56-2.08c-.24-2.58.44-4.13.52-4.07s-.11.38-.18,1.08a11.68,11.68,0,0,0,0,2.95,5.32,5.32,0,0,0,.56,1.89,5.57,5.57,0,0,0,1.73,1.48,5.42,5.42,0,0,1,1,.86,8,8,0,0,1,.81,1.13,5.36,5.36,0,0,0,1.71,2,17.37,17.37,0,0,0,2.64.86,5.6,5.6,0,0,1,2.23,1.57A8.61,8.61,0,0,1,302,338a18,18,0,0,1,.29,3A4.73,4.73,0,0,1,302.21,342.09Z" style="fill:#7c4236"></path><path d="M294.58,337.27a23.77,23.77,0,0,1,.28-2.62A20.88,20.88,0,0,1,295,332a6,6,0,0,1-.38,5.25Z" style="fill:#7c4236"></path><path d="M285.79,351.94c-.09,0,.4-1.44,1-3.75a16.19,16.19,0,0,0,.48-4.12c0-1.55-.47-3.27-.39-5.16a14.07,14.07,0,0,1,1.49-5,20.27,20.27,0,0,0,1.47-3.9,8.17,8.17,0,0,0,0-3.78,2.48,2.48,0,0,1,.37,1,7,7,0,0,1,0,2.88,18.37,18.37,0,0,1-1.39,4,14.42,14.42,0,0,0-1.41,4.84c-.08,1.78.35,3.5.35,5.12a15.41,15.41,0,0,1-.6,4.22,28.27,28.27,0,0,1-.9,2.71A4.73,4.73,0,0,1,285.79,351.94Z" style="fill:#7c4236"></path><path d="M282.5,349.05a20.61,20.61,0,0,1,4.47-6.33,18.4,18.4,0,0,1-2.11,3.26A17.61,17.61,0,0,1,282.5,349.05Z" style="fill:#7c4236"></path><path d="M283.78,332.91c-.06,0,.06-.66.79-1.3a28.83,28.83,0,0,0,2.81-2.17,7.34,7.34,0,0,0,1.67-3,14,14,0,0,1,.34-1.44,2.67,2.67,0,0,1,0,1.52,6.58,6.58,0,0,1-1.65,3.29,15.84,15.84,0,0,1-2.95,2.09C284.08,332.41,283.86,332.94,283.78,332.91Z" style="fill:#7c4236"></path><path d="M357.94,364.74l-30.77-17.51-5.84-11.14L307,327.78s-23.87-1.59-24.58,3.36,1.24,6.55,1.24,6.55l-10.61,1.41s-3,4.71,1.77,7,30.25,2.91,30.25,2.91l.08,2.74-30,.93s-5.48,3.36-.18,7.25,24.58,4.77,24.58,4.77l5.48.71-6.54,4.06s-13.61-.35-15.91,2.48-1.38,3.23.39,4.65,13.61,2.9,13.61,2.9L307.54,378l4.07-.53s10.08,5.31,12.2,5.66,18.92,12.73,18.92,12.73l17.68-31.47S359.88,362.26,357.94,364.74Z" style="fill:#455a64"></path><path d="M311.52,336.61a4,4,0,0,1-1.06.13c-.68,0-1.68.1-2.9.15-2.45.1-5.84.21-9.58.3s-7.13.14-9.58.15c-1.23,0-2.22,0-2.91,0s-1,0-1.06,0a2,2,0,0,1,1.06-.2c.69,0,1.67-.09,2.9-.13,2.45-.11,5.84-.22,9.58-.31s7.13-.14,9.58-.15c1.23,0,2.22,0,2.91,0A4.11,4.11,0,0,1,311.52,336.61Z" style="fill:#263238"></path><path d="M315.42,347.59a6.79,6.79,0,0,1-1.81,1.33,21.88,21.88,0,0,1-10.31,3,7.38,7.38,0,0,1-2.23-.14,44.13,44.13,0,0,0,7.43-1.22A43.21,43.21,0,0,0,315.42,347.59Z" style="fill:#263238"></path><path d="M317.15,360.23a6.39,6.39,0,0,1-1.55,1.46,18.84,18.84,0,0,1-4.48,2.54,18.49,18.49,0,0,1-5,1.21,6.1,6.1,0,0,1-2.13,0,35.88,35.88,0,0,0,6.95-1.69A36.53,36.53,0,0,0,317.15,360.23Z" style="fill:#263238"></path><path d="M326.89,358.87s0,.29-.11.81-.29,1.25-.56,2.14a35,35,0,0,1-7.11,12.7c-.63.7-1.15,1.25-1.54,1.6a2.71,2.71,0,0,1-.63.52,26.35,26.35,0,0,1,1.88-2.35,43,43,0,0,0,7.05-12.58A29.68,29.68,0,0,1,326.89,358.87Z" style="fill:#263238"></path><path d="M338.62,365.1a3.34,3.34,0,0,1-.16,1,15.89,15.89,0,0,1-.88,2.61,18.44,18.44,0,0,1-13.74,10.88,16.43,16.43,0,0,1-2.75.26,3.68,3.68,0,0,1-1-.08c0-.09,1.44-.06,3.67-.54a19.26,19.26,0,0,0,13.48-10.67C338.23,366.48,338.52,365.07,338.62,365.1Z" style="fill:#263238"></path><path d="M340.93,394.55a7.1,7.1,0,0,1,.47-1.27c.34-.8.87-1.95,1.56-3.34,1.39-2.79,3.47-6.55,5.89-10.63s4.69-7.72,6.34-10.36l2-3.1a6,6,0,0,1,.78-1.11,6.89,6.89,0,0,1-.61,1.21c-.42.76-1,1.86-1.83,3.2l-6.2,10.43c-2.42,4.07-4.55,7.79-6,10.53-.74,1.36-1.31,2.48-1.7,3.25A6.23,6.23,0,0,1,340.93,394.55Z" style="fill:#263238"></path><path d="M258.81,240.88,270,235s4.62,2.12,3.48,4.72a22.24,22.24,0,0,1-2.31,4.15Z" style="fill:#455a64"></path><path d="M289.25,284.85c-.58-1.4-1.42-3.27-1.08-5.05.06-.34-11.71-28.88-11.92-29l-3.76,2.49c0,.25,12.46,27.88,12.46,27.88,1.43.62,2.46,3.19,3.09,4.56.76,1.64,1.27,2.82,1.27,2.82l1.06-.33.2-.07Z" style="fill:#fff"></path><path d="M289.25,284.85a5,5,0,0,1,.39.82l1,2.4,0,.1-.11,0-1.25.41-.1,0-.05-.1-1.62-3.5a17.88,17.88,0,0,0-1.05-2,4.19,4.19,0,0,0-1.66-1.73l-.07,0,0-.07c-3.14-6.86-7.4-16.18-12-26.49l-.29-.68-.15-.35a3.53,3.53,0,0,1-.15-.46l0-.1.14-.09,3.76-2.48.21-.14.09.15a4.18,4.18,0,0,1,.29.54l.19.44.38.89c.25.59.49,1.17.74,1.75.48,1.16.95,2.3,1.42,3.41l2.64,6.43,4.34,10.78c.6,1.53,1.14,2.9,1.59,4.12l.17.45a2,2,0,0,1,.11.51,4.76,4.76,0,0,0-.07.84,6,6,0,0,0,.18,1.47c.46,1.74.92,2.64.86,2.66a12.23,12.23,0,0,1-1-2.62,6.14,6.14,0,0,1-.23-1.51,4.54,4.54,0,0,1,.06-.89c0-.14-.09-.24-.11-.37l-.18-.44c-.49-1.21-1-2.58-1.66-4.09-1.26-3.05-2.76-6.68-4.45-10.74-.85-2-1.74-4.18-2.67-6.41-.47-1.11-1-2.25-1.43-3.41-.25-.57-.49-1.16-.74-1.74l-.38-.88-.19-.44-.08-.18,0-.08V251h0c.06-.09-.15.17.15-.21l.15.21-3.76,2.48-.14-.21.26,0h0v0l0,.06a.54.54,0,0,0,.05.11l.14.33.29.68c4.58,10.28,8.74,19.62,11.82,26.55l-.1-.1a4.57,4.57,0,0,1,1.81,1.9,19.2,19.2,0,0,1,1,2.08l1.55,3.53-.14-.06,1.26-.39-.07.14-.93-2.44A5,5,0,0,1,289.25,284.85Z" style="fill:#263238"></path><path d="M275.31,243c.44.27,2.69,9.27,2.69,9.27l-6,2.5s-7.74-9.7-6.65-13,2.82-5.37,5.52-4.66S275.31,243,275.31,243Z" style="fill:#FF725E"></path><path d="M233.23,250.67s.8-7.73,5.82-8a51.77,51.77,0,0,1,7-3.71c2.89-1.1,10.26-2.24,10.26-2.24l24.4,8.45s2.43,5.2-5.14,5.14-9.86-1.64-9.86-1.64,8.26,5.7,7.93,8.26-2.06,3-2.06,3,.73,5-2.08,7l-1.66.25s1.23,4.28-3.05,5.5-5.68,0-5.68,0l-3.35,1.93s-1.14,8.57-3.24,12.22l-5.33,5.06-5.08,17.66s-23.32-3.1-25-19.18l11.6-16.9,1.53-7.33S227.41,258.67,233.23,250.67Z" style="fill:#455a64"></path><path d="M267.3,249.81c-.05.07-1.07-.83-2.93-2a16.5,16.5,0,0,0-8-2.43c-3.31-.13-6.34,0-8.53-.06-1.09,0-2-.09-2.59-.16a3.42,3.42,0,0,1-.94-.17c0-.08,1.35,0,3.53,0s5.2-.23,8.55-.09a15.82,15.82,0,0,1,4.68.89,17.12,17.12,0,0,1,3.46,1.75,18.47,18.47,0,0,1,2.07,1.58C267.1,249.53,267.33,249.78,267.3,249.81Z" style="fill:#263238"></path><path d="M271.3,260.22a4.61,4.61,0,0,1-1-.41l-2.69-1.24a51.7,51.7,0,0,0-9.07-3.43,23.23,23.23,0,0,0-9.58-.52,34.59,34.59,0,0,0-3.88,1,3.85,3.85,0,0,1,1-.51,14.07,14.07,0,0,1,2.85-.89,22.18,22.18,0,0,1,9.77.38,45.34,45.34,0,0,1,9.11,3.6c1.11.57,2,1.06,2.61,1.4A4.73,4.73,0,0,1,271.3,260.22Z" style="fill:#263238"></path><path d="M267.3,267.12a27.53,27.53,0,0,1-3.24-1.09,24.85,24.85,0,0,0-8-1.64,23,23,0,0,0-7.94,1.76,29.62,29.62,0,0,1-3.21,1.19,3.1,3.1,0,0,1,.8-.47c.52-.27,1.3-.64,2.27-1.06a20.91,20.91,0,0,1,8.08-1.94,22.44,22.44,0,0,1,8.11,1.81c1,.4,1.77.75,2.3,1A3,3,0,0,1,267.3,267.12Z" style="fill:#263238"></path><path d="M259.37,272.52a15,15,0,0,1-4.22,2.2,15.37,15.37,0,0,1-4.57,1.32,37.18,37.18,0,0,1,4.38-1.8A37.13,37.13,0,0,1,259.37,272.52Z" style="fill:#263238"></path><path d="M242.92,293.8a2.69,2.69,0,0,1-.8-.06,13.23,13.23,0,0,1-2.12-.51,18.43,18.43,0,0,1-10.7-9.13,14.23,14.23,0,0,1-.83-2,2.42,2.42,0,0,1-.18-.78c.09,0,.45,1.05,1.34,2.62a20,20,0,0,0,10.49,8.95C241.82,293.51,242.93,293.7,242.92,293.8Z" style="fill:#263238"></path><path d="M280.75,245.17c-.05.14-5.39-1.59-11.94-3.86S257,237.1,257.05,237s5.39,1.59,11.94,3.86S280.8,245,280.75,245.17Z" style="fill:#263238"></path><path d="M291.11,292.52l-1-1.61c-.19.66-.51,1.35-.65,2a2.9,2.9,0,0,0,.07,1.91,1.34,1.34,0,0,0,1.6.75,1.38,1.38,0,0,0,.7-1.46A3.94,3.94,0,0,0,291.11,292.52Z" style="fill:#fff"></path><path d="M291.11,292.52s.15.1.32.33A2.94,2.94,0,0,1,292,294a1.8,1.8,0,0,1-.05.94,1.37,1.37,0,0,1-.73.85,1.6,1.6,0,0,1-2-1.15,3.76,3.76,0,0,1,.15-2.18c.21-.62.45-1.14.6-1.6l.13-.42.22.37a6.58,6.58,0,0,1,.85,1.72,6.54,6.54,0,0,1-1.18-1.51l.35-.05c-.12.5-.34,1-.51,1.64a3.53,3.53,0,0,0-.11,1.88,1.14,1.14,0,0,0,1.36.86,1.24,1.24,0,0,0,.6-1.29,4,4,0,0,0-.36-1.1C291.14,292.69,291.08,292.54,291.11,292.52Z" style="fill:#263238"></path><path d="M422.56,59.87a13.8,13.8,0,0,1,11.54-4.2c1.71.21,3.59.71,5.07-.18,1.05-.65,1.61-1.85,2.4-2.8a7,7,0,0,1,10.06-.33,8.32,8.32,0,0,0,2,1.94c3.36,1.73,7-4.56,10.35-2.8a7.9,7.9,0,0,0-3.7,3,3.6,3.6,0,0,0,.43,4.42c3.14,2.73,8.24-3.45,11.74-1.19,1.89,1.22,2.16,4.41,4.35,4.92a7.57,7.57,0,0,0,2.58-.2,5.75,5.75,0,0,1,6.14,4.91c.27,2.48-1,5.52.9,7.16,1.16,1,2.91.85,4.43.61a14.9,14.9,0,0,1-1.58,6.58,9,9,0,0,1,3.09,12.12,19.39,19.39,0,0,1,5.24,5.29c1.24,2.17,1.55,5.06.09,7.09a6.24,6.24,0,0,0-.95,1.41,3.41,3.41,0,0,0,0,1.82c.49,2.32,1.52,4.57,1.46,6.94s-1.8,5-4.16,4.78c-.55,0-1.16-.22-1.62.08a1.55,1.55,0,0,0-.56,1.08,16.18,16.18,0,0,0,.37,5.08,6.81,6.81,0,0,1-.74,4.93c-1,1.39-3.31,1.88-4.38.55l2.07,7.91c.41,1.56.74,3.46-.39,4.61-1.49,1.51-4.2.34-5.34-1.44s-1.47-4-2.66-5.77a12.61,12.61,0,0,1-1.44-2.15c-.27-.64-.36-1.4-.89-1.83-1.06-.87-2.69.62-2.54,2s1.25,2.4,2.12,3.47,1.58,2.58.88,3.77c-.33.57-.94,1-1.26,1.53-1.11,2,1.84,4,2.2,6.23.27,1.68-.95,3.2-2.14,4.41-1.47,1.47-4.3,2.67-5.24.82a20.8,20.8,0,0,1-.46-2.11,5.17,5.17,0,0,0-1.64-1.88,10.8,10.8,0,0,1-3.23-5.28c1.76,2.15,3.62,5,2.4,7.48a11.34,11.34,0,0,1-2.29,2.61c-1.57,1.65-2.54,3.8-4.09,5.47s-4.1,2.82-6.1,1.72a5.13,5.13,0,0,1-8.56,5.15,4.34,4.34,0,0,0-1.4-1.24,3.69,3.69,0,0,0-2,.06,11.08,11.08,0,0,1-10.76-4.24l2-.73c-4-.5-8.17-1.06-11.51-3.32s-5.53-6.78-3.81-10.44c.74-1.58,2.16-3.21,1.5-4.83-.45-1.11-1.72-1.62-2.86-2l-14.29-4.94c-2.32-.8-4.75-1.69-6.3-3.58s-1.7-5.15.33-6.52a13.22,13.22,0,0,0-5-5.32c-2.38-1.41-5.15-2-7.59-3.34s-4.68-3.66-4.52-6.42,4-4.92,5.87-2.92c-.4-4.16-7.81-4.37-8.47-8.5-.54-3.35,3.74-5.11,5.94-7.7-.46-1.16-1.66-1.9-2.15-3-1-2.41,1.46-4.84,3.82-6s5.24-2.3,5.8-4.86-1.69-5.56-.31-7.86a3,3,0,0,1,3.89-1c1.87-4.81,10.92-1.25,13.53-5.7a1.6,1.6,0,0,0-.17-2.1c-1-1.31-2.66-2-4-3s-2.45-2.73-1.86-4.3,3.56-1.53,3.53.14a3.69,3.69,0,0,1,5.65,1.38c1.14-1.41,3.41-1.4,5-.48a11.64,11.64,0,0,1,3.58,4" style="fill:#263238"></path><path d="M445.58,112.7c-1.69-6.84-6.92-12.27-12.65-16.37-2.4-1.72-5-3.3-7.95-3.68s-6.22.75-7.63,3.35l.55,4.91c-.39,7.84,5.84,14.24,8.93,21.45,1.34,3.14,2.47,6.92,5.64,8.18a7.38,7.38,0,0,0,5.25-.2C444.3,127.84,447.26,119.53,445.58,112.7Z" style="fill:#FF725E"></path><path d="M447.34,148.84a15.75,15.75,0,0,0-2.28-20.06c2.72-3.73,1.44-9.26-1.64-12.7s-7.51-5.3-11.78-7c-2.77-10.47-15-17.38-25.36-14.37-5.83-7.81-17.55-8.56-26.77-5.42-2.26.76-4.5,1.73-6.88,1.82a39.9,39.9,0,0,1-5.21-.49c-9.56-.86-18.7,6.25-22,15.27a17.34,17.34,0,0,1-1.84,4.2c-1.16,1.65-3,2.66-4.53,4a15.2,15.2,0,0,0-5.32,11.49c0,3.7,1.36,7.56,0,11-.7,1.71-2.05,3.13-2.58,4.91-1.54,5.15,4.32,10.08,3.51,15.4-.17,1.08-.61,2.1-.86,3.17a9.34,9.34,0,0,0,.86,6.52c.82,1.53,2.09,2.9,2.27,4.62a15.28,15.28,0,0,1-.6,3.88c-.5,3.17,6.82,15,9.61,16.58l81.21-2.85a15.19,15.19,0,0,0,11.16-13.58,5.58,5.58,0,0,1,.63-3,6.41,6.41,0,0,1,2.15-1.54c5.1-3,5.42-10.24,4.61-16.13a7.13,7.13,0,0,1-.07-2.48A9.12,9.12,0,0,1,447.34,148.84Z" style="fill:#263238"></path><path d="M424.09,150c-.39-14.38-10.13-30.49-24.71-36.88-9.2-4-16.22-3.76-21-4.1a32.9,32.9,0,0,0-19,4.86c-4.43,1.25-20.16,17-20.29,33.32-.15,18.14.38,40.3,3.27,53.67,5.79,26.89,26.77,29.2,26.77,29.2s0,16,0,16l-1.64,69.66,50.52-58.45,7.74-16.36Z" style="fill:#ffbf9d"></path><path d="M380.74,194.48a5.38,5.38,0,0,0-1.84-3.29,5.46,5.46,0,0,0-6.61-.38c-2,1.39-2.26,3.73-1.88,6.36h0c1.13,1.55,1.95,3.08,3.86,3.24a6.56,6.56,0,0,0,.89,0,5.93,5.93,0,0,0,4-1.59A5.32,5.32,0,0,0,380.74,194.48Z" style="fill:#ff9a6c"></path><path d="M350.09,169.65a3.47,3.47,0,0,0,3.54,3.32,3.34,3.34,0,0,0,3.42-3.33,3.49,3.49,0,0,0-3.54-3.33A3.34,3.34,0,0,0,350.09,169.65Z" style="fill:#263238"></path><path d="M345.94,157.25c.46.43,3-1.67,6.73-1.86s6.59,1.52,7,1c.19-.21-.29-1-1.54-1.81a9.55,9.55,0,0,0-5.61-1.4,9.17,9.17,0,0,0-5.32,2.05C346.07,156.22,345.72,157.06,345.94,157.25Z" style="fill:#263238"></path><path d="M369.47,185.61c0-.22-2.34-.49-6.14-.77-1,0-1.88-.18-2.07-.83s.08-1.73.48-2.86c.77-2.37,1.58-4.84,2.43-7.44,3.35-10.58,5.73-19.25,5.3-19.38s-3.5,8.33-6.85,18.91c-.81,2.61-1.58,5.09-2.31,7.47-.3,1.11-.86,2.37-.29,3.78a2.41,2.41,0,0,0,1.65,1.31,7.07,7.07,0,0,0,1.64.14C367.11,185.93,369.47,185.82,369.47,185.61Z" style="fill:#263238"></path><path d="M369.19,230.05a69.41,69.41,0,0,0,35.92-11.69S396.49,238,369.2,237Z" style="fill:#ff9a6c"></path><path d="M344.94,149.11c.68.88,3.52.11,6.88.2s6.19.83,6.88,0c.31-.42-.11-1.29-1.32-2.14a10.14,10.14,0,0,0-5.53-1.62A10,10,0,0,0,346.3,147C345.07,147.82,344.65,148.68,344.94,149.11Z" style="fill:#263238"></path><path d="M391.83,167.89a3.47,3.47,0,0,1-3.3,3.57,3.33,3.33,0,0,1-3.64-3.08,3.49,3.49,0,0,1,3.29-3.57A3.33,3.33,0,0,1,391.83,167.89Z" style="fill:#263238"></path><path d="M397.24,155.91c-.42.46-3.09-1.45-6.84-1.37s-6.47,2-6.88,1.54c-.2-.2.22-1,1.4-1.92a9.56,9.56,0,0,1,5.5-1.8,9.24,9.24,0,0,1,5.46,1.66C397.05,154.89,397.45,155.7,397.24,155.91Z" style="fill:#263238"></path><path d="M396.6,141.22c-.73.87-3.63,0-7.11.05s-6.41.69-7.11-.19c-.3-.43.15-1.29,1.42-2.12a10.69,10.69,0,0,1,5.75-1.49,10.55,10.55,0,0,1,5.7,1.61C396.5,139.93,396.92,140.8,396.6,141.22Z" style="fill:#263238"></path><path d="M421.13,175.93c-.1-2,2-6.91,3.95-7.34,5.28-1.12,14.91-1.22,15.74,12.31,1.14,18.48-17.66,15.81-17.73,15.28S421.5,182.9,421.13,175.93Z" style="fill:#ffbf9d"></path><path d="M427.78,189.12c.08-.07.34.2.89.42a3.25,3.25,0,0,0,2.42-.1c1.91-.84,3.36-4,3.24-7.38a10.53,10.53,0,0,0-1.18-4.55,3.71,3.71,0,0,0-2.58-2.32,1.63,1.63,0,0,0-1.84,1c-.22.54-.08.9-.17.94s-.42-.29-.32-1.06a2.1,2.1,0,0,1,.66-1.21,2.47,2.47,0,0,1,1.75-.58,4.56,4.56,0,0,1,3.54,2.66,11,11,0,0,1,1.43,5.09c.11,3.73-1.58,7.33-4.2,8.27a3.47,3.47,0,0,1-3-.31C427.84,189.56,427.72,189.15,427.78,189.12Z" style="fill:#ff9a6c"></path><path d="M335.06,147.66c3.61-2.54,5.82-5.84,5.35-10.23,2.51.6,4.86-2.73,6.19-5s3-3.4,2.79-6a3,3,0,0,1,.1-1.51c.34-.73,1.2-1,2-1.29a12.41,12.41,0,0,0,7.69-9,26.28,26.28,0,0,0,12.79,1.41,10,10,0,0,0,16.91-1.66,9,9,0,0,0,6.25,4.1,26.42,26.42,0,0,0,7.69,0,10.62,10.62,0,0,0,7.63,11.63c.67.17,1.44.33,1.78.93a2.66,2.66,0,0,1-.17,2.07,8.36,8.36,0,0,0,6.17,10.33c-2.9,2.51-2.3,7.92,1.09,9.72.69.37,1.59.82,1.53,1.6a1.69,1.69,0,0,1-.36.81c-1.28,1.9-2.54,4-2.59,6.27s1.64,4.77,3.94,4.75a5.9,5.9,0,0,0-2.13,4.18c.05,1.61,1.77,3.15,3.24,2.49.62-.28,9.73-2.59,10.11-3.16,4.85-7.39-2.16-14.88-3.15-23.66s-4.54-17.14-9.35-24.55a42.09,42.09,0,0,0-7-8.56,55.76,55.76,0,0,0-10.58-6.93c-4.83-2.66-9.79-5.3-15.22-6.27-10.11-1.82-20.28,2.37-29.35,7.18a43.12,43.12,0,0,0-9.73,6.46c-3.4,3.21-5.8,7.32-7.87,11.52-3,6.06-5.37,12.55-5.66,19.29" style="fill:#263238"></path><path d="M331.08,141.39a6.89,6.89,0,0,1,.89-2c.36-.64.87-1.38,1.35-2.33a8.55,8.55,0,0,0,.85-3.51,27.05,27.05,0,0,0-.32-4.57,20.3,20.3,0,0,1-.15-5.5,15.53,15.53,0,0,1,2.12-6,14.92,14.92,0,0,1,2.14-2.74,22,22,0,0,1,2.81-2.33,11.31,11.31,0,0,0,2.68-2.58,15.21,15.21,0,0,0,1.57-3.57,24.28,24.28,0,0,1,4.11-7.39A24,24,0,0,1,356,93a21.58,21.58,0,0,1,4.36-1.91,20.42,20.42,0,0,1,4.83-.81,23.19,23.19,0,0,1,2.5.07c.84.08,1.66.22,2.49.32a11.78,11.78,0,0,0,4.94-.26c1.64-.41,3.23-1.1,4.92-1.61a32.08,32.08,0,0,1,5.19-1.2,32.55,32.55,0,0,1,5.42-.34,27.61,27.61,0,0,1,5.48.71,18.26,18.26,0,0,1,9.63,5.66l.74.87-.3-.1A21.49,21.49,0,0,1,431.89,109l-.15-.18a58.58,58.58,0,0,1,6.66,3.08,19.47,19.47,0,0,1,5.54,4.46,12.71,12.71,0,0,1,2.75,6.26,8.74,8.74,0,0,1-1.44,6.34l0-.31a15.33,15.33,0,0,1,4.75,9.27,15.64,15.64,0,0,1-1.44,9.3,15.47,15.47,0,0,1-1.13,1.89c-.42.59-.85,1.14-1.19,1.72a4,4,0,0,0-.56,1.85,11.29,11.29,0,0,0,.15,1.92,30.62,30.62,0,0,1,.18,7,14.66,14.66,0,0,1-1.54,5.43,9.17,9.17,0,0,1-2.72,3.16c-.92.68-1.76,1-2.21,1.33a3.76,3.76,0,0,0-.64.6,2,2,0,0,1,.6-.65c.45-.4,1.28-.71,2.16-1.4a8.86,8.86,0,0,0,2.62-3.13,14.59,14.59,0,0,0,1.46-5.37,30.22,30.22,0,0,0-.23-7,12.58,12.58,0,0,1-.17-2,4.35,4.35,0,0,1,.6-2,20.88,20.88,0,0,1,1.19-1.76,14.79,14.79,0,0,0,1.1-1.85,15.36,15.36,0,0,0,1.35-9.07,14.88,14.88,0,0,0-4.64-9l-.16-.14.12-.17a8.27,8.27,0,0,0,1.34-6,12.28,12.28,0,0,0-2.66-6,19,19,0,0,0-5.4-4.33,58.85,58.85,0,0,0-6.62-3l-.12,0,0-.13a21,21,0,0,0-25-14.16l-.17,0-.13-.16-.71-.84A17.75,17.75,0,0,0,396,88.5a27.92,27.92,0,0,0-5.36-.7,32.45,32.45,0,0,0-10.44,1.5c-1.65.51-3.26,1.19-4.95,1.62a13.1,13.1,0,0,1-2.57.4,15.64,15.64,0,0,1-2.57-.14c-.83-.11-1.66-.24-2.47-.32a19.78,19.78,0,0,0-2.43-.07,18.85,18.85,0,0,0-4.7.77,21.47,21.47,0,0,0-4.27,1.86,24.4,24.4,0,0,0-10.83,13,15.5,15.5,0,0,1-1.63,3.67,11.84,11.84,0,0,1-2.79,2.65,22.58,22.58,0,0,0-2.77,2.28,14.62,14.62,0,0,0-2.1,2.66,15,15,0,0,0-2.12,5.81,20.35,20.35,0,0,0,.1,5.43,27.07,27.07,0,0,1,.28,4.61,8.88,8.88,0,0,1-.92,3.58c-.5,1-1,1.68-1.4,2.31a10.57,10.57,0,0,0-.78,1.45C331.14,141.21,331.09,141.39,331.08,141.39Z" style="fill:#455a64"></path><path d="M397.39,91.05s-.5-.26-1.43-.65a12.36,12.36,0,0,0-4.09-1,11.67,11.67,0,0,0-6,1.2,12.17,12.17,0,0,0-5.28,5.3,11.25,11.25,0,0,0-.81,2.15A2.33,2.33,0,0,0,380,100l.48.6-.75-.17a7.7,7.7,0,0,0-5.69,1,7.41,7.41,0,0,0-3,3.59,8.07,8.07,0,0,0-.56,3.08c0,.74.09,1.15.05,1.15s-.05-.09-.1-.28a6.11,6.11,0,0,1-.14-.86,7.76,7.76,0,0,1,.43-3.22,7.64,7.64,0,0,1,3-3.86,8.08,8.08,0,0,1,6.06-1.11l-.28.43a2.84,2.84,0,0,1-.35-2.4,10.59,10.59,0,0,1,.86-2.27,12.39,12.39,0,0,1,5.54-5.51A11.77,11.77,0,0,1,391.9,89a11.49,11.49,0,0,1,4.15,1.16,7.6,7.6,0,0,1,1,.59C397.29,90.94,397.4,91,397.39,91.05Z" style="fill:#455a64"></path><path d="M428.51,110.72a3,3,0,0,1-.62.69,12.24,12.24,0,0,1-2,1.57,9,9,0,0,1-3.63,1.3,6.66,6.66,0,0,1-4.67-1.15L418,113l-.51.79c-.18.26-.39.5-.59.76a11.21,11.21,0,0,1-4.47,3.12,11.71,11.71,0,0,1-4.38.78,10.18,10.18,0,0,1-3-.51,3.89,3.89,0,0,1-1-.47,16,16,0,0,0,3.94.59,11.72,11.72,0,0,0,4.19-.87,11.07,11.07,0,0,0,4.24-3c.18-.25.38-.48.56-.72l.48-.74.17-.26.23.17a6.28,6.28,0,0,0,4.29,1.11,9.08,9.08,0,0,0,3.49-1.13C427.53,111.61,428.44,110.64,428.51,110.72Z" style="fill:#455a64"></path><path d="M439.17,127.36s0,.12,0,.35a3.58,3.58,0,0,1-.37.91,4.93,4.93,0,0,1-2.87,2.14,9.38,9.38,0,0,1-5.32-.3,29.82,29.82,0,0,1-3-1,5.07,5.07,0,0,1-2.67-2.19l-.13-.29.44.11a21.35,21.35,0,0,1-5.32,3.58,9.55,9.55,0,0,1-5.16.8,6.82,6.82,0,0,1-3.28-1.29,4.22,4.22,0,0,1-.7-.65c-.15-.16-.21-.26-.2-.27s.35.31,1,.75a7.18,7.18,0,0,0,3.2,1.07,9.47,9.47,0,0,0,4.92-.88,21.68,21.68,0,0,0,5.15-3.54l.29-.24.16.35c0,.08.07.16.11.25a4.52,4.52,0,0,0,2.39,1.94c1,.41,2,.71,2.91,1a9.35,9.35,0,0,0,5.06.41,4.93,4.93,0,0,0,2.8-1.87A7.06,7.06,0,0,0,439.17,127.36Z" style="fill:#455a64"></path><path d="M455.54,60.28s-.32,0-.87.2a4.27,4.27,0,0,0-2,1.44,5.8,5.8,0,0,0-1.21,3.61,17,17,0,0,0,1,5l.09.29h-.31a10.53,10.53,0,0,0-6.3,2.29,8.16,8.16,0,0,0-3.16,6.66,7.6,7.6,0,0,0,3,6l.65.45-.79,0a9.59,9.59,0,0,0-6.86,3.45,9.17,9.17,0,0,0-2.06,5.8,10.06,10.06,0,0,0,.83,4c.4.9.71,1.34.68,1.36s-.1-.09-.26-.3a7.43,7.43,0,0,1-.58-1,9.6,9.6,0,0,1,1-10.22,9.92,9.92,0,0,1,7.18-3.7l-.14.49a8.07,8.07,0,0,1-3.26-6.45,8.33,8.33,0,0,1,.88-4,9.49,9.49,0,0,1,2.51-3.05,10.92,10.92,0,0,1,6.62-2.34l-.22.3a17,17,0,0,1-.89-5.15,6,6,0,0,1,1.38-3.77,4.16,4.16,0,0,1,2.17-1.4,2.45,2.45,0,0,1,.67-.09A.64.64,0,0,1,455.54,60.28Z" style="fill:#455a64"></path><path d="M490.64,98.63s-.09.08-.29.2-.49.29-.9.47a13.4,13.4,0,0,1-3.68,1,14.73,14.73,0,0,1-5.85-.39,14.08,14.08,0,0,1-6.45-3.76l.42-.06a11.79,11.79,0,0,1-8,6.15,9,9,0,0,1-9.47-4.42l.48,0a7.36,7.36,0,0,1-2.06,3.25,10,10,0,0,1-2.94,1.88,13.76,13.76,0,0,1-5.6.89,27.65,27.65,0,0,1-3.67-.4,6.77,6.77,0,0,1-1.28-.28,8.89,8.89,0,0,1,1.3.11,34.07,34.07,0,0,0,3.65.25,13.5,13.5,0,0,0,5.43-1,8,8,0,0,0,4.67-4.88l.19-.63.29.59a8.45,8.45,0,0,0,8.91,4.1,11.36,11.36,0,0,0,7.67-5.84l.17-.32.25.26A13.63,13.63,0,0,0,480,99.52a14.52,14.52,0,0,0,5.69.5A17.26,17.26,0,0,0,490.64,98.63Z" style="fill:#455a64"></path><path d="M472.66,126.71s0,.14-.2.34a1.93,1.93,0,0,1-1,.53,8.56,8.56,0,0,1-4.12-.47,10,10,0,0,1-4.91-3.68,10.28,10.28,0,0,1-1.75-7.29v-.06l.42.29a12.06,12.06,0,0,1-7.36,1.41,13.45,13.45,0,0,1-5.75-2.13,15.29,15.29,0,0,1-3.11-2.71,5.84,5.84,0,0,1-.89-1.22,23,23,0,0,0,4.21,3.6,13.66,13.66,0,0,0,5.6,2,11.75,11.75,0,0,0,7-1.39l.48-.27-.06.56v0a9.76,9.76,0,0,0,6.24,10.52,9,9,0,0,0,3.95.62A1.92,1.92,0,0,0,472.66,126.71Z" style="fill:#455a64"></path><path d="M415.14,63.07a15.91,15.91,0,0,0-.54,5.73,12.47,12.47,0,0,0,8,10.42,12.48,12.48,0,0,0,4.29.87h.34l-.08.33a16.43,16.43,0,0,0-.37,6,16.66,16.66,0,0,0,1.3,4.64,11.86,11.86,0,0,0,.85,1.61,1.4,1.4,0,0,0,1,.7.91.91,0,0,0,.74-.27c.12-.13.14-.24.16-.24s0,.12-.09.3a1,1,0,0,1-.81.4,1.59,1.59,0,0,1-1.23-.73,9.87,9.87,0,0,1-.94-1.63,15.94,15.94,0,0,1-1.45-4.72,16.1,16.1,0,0,1,.3-6.2l.26.34a13,13,0,0,1-4.48-.9,12.65,12.65,0,0,1-8.18-10.91,12.42,12.42,0,0,1,.37-4.29,8.83,8.83,0,0,1,.38-1.1C415.06,63.19,415.12,63.06,415.14,63.07Z" style="fill:#455a64"></path><path d="M380.45,189.3c-.52-.11-1.06,3.42-4.45,5.48s-7.09,1.11-7.2,1.6c-.08.21.74.81,2.32,1.09a8.92,8.92,0,0,0,6-1.14,7.69,7.69,0,0,0,3.5-4.63C381,190.25,380.69,189.32,380.45,189.3Z" style="fill:#263238"></path><path d="M369.21,243s4.55,11.12,26.85,10.29c21-.79,29.77-12.36,29.77-12.36l-7.74,16.36L362.65,328Z" style="fill:#FF725E"></path></g></svg>