<svg xmlns="http://www.w3.org/2000/svg" viewBox="0 0 500 500"><g id="freepik--background-complete--inject-144"><path d="M76.89,325.75l-19.08,45.22h-13.53l-19-45.22h13.53l12.52,30.76,12.94-30.76h12.61Z" style="fill:#f5f5f5;"></path><path d="M453.65,364.04h9.81v18.83c-2.52,1.9-5.44,3.36-8.75,4.38s-6.65,1.53-10.01,1.53c-4.82,0-9.15-1.03-13-3.08-3.85-2.06-6.86-4.91-9.05-8.55-2.19-3.65-3.28-7.77-3.28-12.37s1.09-8.72,3.28-12.37c2.19-3.65,5.23-6.5,9.12-8.55,3.89-2.06,8.27-3.08,13.13-3.08,4.07,0,7.76,.69,11.07,2.06,3.32,1.37,6.1,3.36,8.36,5.97l-6.9,6.37c-3.32-3.49-7.32-5.24-12-5.24-2.96,0-5.59,.62-7.89,1.86-2.3,1.24-4.09,2.98-5.37,5.24-1.28,2.25-1.92,4.84-1.92,7.76s.64,5.44,1.92,7.69c1.28,2.25,3.06,4.01,5.34,5.27,2.28,1.26,4.87,1.89,7.79,1.89,3.09,0,5.88-.66,8.36-1.99v-13.59Z" style="fill:#e0e0e0;"></path><g><path d="M389.35,163.93l2.21,.74c1.58,.53,3.29-.33,3.82-1.91l29.38-88.31c.93-2.81-.58-5.84-3.39-6.77h0l-32.03,96.26Z" style="fill:#e0e0e0;"></path><path d="M302.74,337.75l24.73,8.23,69.56-209.04c2.27-6.83-1.42-14.21-8.25-16.48h0c-6.83-2.27-14.21,1.42-16.48,8.25l-69.56,209.04Z" style="fill:#f5f5f5;"></path><polygon points="342.85 217.21 359 251.23 355.31 262.32 338.95 228.92 342.85 217.21" style="fill:#fff;"></polygon><polygon points="336.73 235.59 352.88 269.61 351.12 274.9 334.76 241.51 336.73 235.59" style="fill:#fff;"></polygon><path d="M370.01,129.74l27.65,9.2,22.87-68.72c2.54-7.64-1.59-15.89-9.23-18.43h0c-7.64-2.54-15.89,1.59-18.43,9.23l-22.87,68.72Z" style="fill:#e0e0e0;"></path><path d="M389.8,162.59c-.12-.04,6.64-20.69,15.11-46.12,8.46-25.44,15.42-46.02,15.54-45.98,.12,.04-6.64,20.69-15.11,46.13-8.46,25.43-15.42,46.02-15.54,45.98Z" style="fill:#ebebeb;"></path><path d="M308.15,341.54h9.97c4.44,0,8.05,3.61,8.05,8.05v4.45h-26.06v-4.45c0-4.44,3.61-8.05,8.05-8.05Z" transform="translate(500.45 776.65) rotate(-161.6)" style="fill:#e0e0e0;"></path><path d="M392.19,137.12c.12,.04-15.27,46.61-34.37,104.01-19.11,57.42-34.68,103.92-34.8,103.88-.12-.04,15.27-46.6,34.37-104.02,19.1-57.4,34.68-103.91,34.8-103.87Z" style="fill:#e0e0e0;"></path><path d="M384.13,134.43c.12,.04-15.27,46.61-34.37,104.01-19.1,57.42-34.68,103.92-34.8,103.88-.12-.04,15.27-46.6,34.37-104.02,19.1-57.4,34.68-103.91,34.8-103.87Z" style="fill:#e0e0e0;"></path><path d="M376.06,131.75c.12,.04-15.27,46.61-34.37,104.01-19.11,57.42-34.68,103.92-34.8,103.88-.12-.04,15.27-46.6,34.37-104.02,19.1-57.4,34.68-103.91,34.8-103.87Z" style="fill:#e0e0e0;"></path></g><g><path d="M248.19,463.48h-51.32c-8.68,0-15.72-7.04-15.72-15.72h0c0-8.68,7.04-15.72,15.72-15.72h51.32c2.92,0,5.28,2.36,5.28,5.28v20.88c0,2.92-2.36,5.28-5.28,5.28Z" style="fill:#ebebeb;"></path><path d="M237.8,432.03h126.34c1.15,0,2.09,.94,2.09,2.09v1.04c0,1.15-.94,2.09-2.09,2.09h-126.34v-5.22h0Z" style="fill:#ebebeb;"></path><path d="M237.8,458.26h126.34c1.15,0,2.09,.94,2.09,2.09v1.04c0,1.15-.94,2.09-2.09,2.09h-126.34v-5.22h0Z" style="fill:#ebebeb;"></path><path d="M362.4,458.26h-110.27c-5.8,0-10.5-4.7-10.5-10.5h0c0-5.8,4.7-10.5,10.5-10.5h110.27c-2.96,7-2.96,14,0,21Z" style="fill:#fafafa;"></path><path d="M241.63,463.48h-44.93c-8.59,0-15.55-6.96-15.55-15.55h0c0-8.78,7.11-15.89,15.89-15.89h45.79c-11.38,6.9-10.53,23.41-1.2,31.44Z" style="fill:#e0e0e0;"></path><path d="M349.01,448.73c0,.08-22.63,.15-50.55,.15s-50.55-.07-50.55-.15,22.63-.15,50.55-.15,50.55,.07,50.55,.15Z" style="fill:#e0e0e0;"></path><path d="M359.41,453.4c0,.08-22.63,.15-50.55,.15s-50.55-.07-50.55-.15,22.63-.15,50.55-.15,50.55,.07,50.55,.15Z" style="fill:#e0e0e0;"></path><path d="M356.34,444.4c0,.08-22.63,.15-50.55,.15s-50.55-.07-50.55-.15,22.63-.15,50.55-.15,50.55,.07,50.55,.15Z" style="fill:#e0e0e0;"></path><path d="M236.09,461.27c0,.08-10.59,.15-23.66,.15s-23.66-.07-23.66-.15,10.59-.15,23.66-.15,23.66,.07,23.66,.15Z" style="fill:#ebebeb;"></path><path d="M236.09,434.64c0,.08-10.59,.15-23.66,.15s-23.66-.07-23.66-.15,10.59-.15,23.66-.15,23.66,.07,23.66,.15Z" style="fill:#ebebeb;"></path></g><g><path d="M225.48,415.21h32.42c1.84,0,3.33,1.49,3.33,3.33v13.19c0,1.84-1.49,3.33-3.33,3.33h-32.42c-5.48,0-9.93-4.45-9.93-9.93h0c0-5.48,4.45-9.93,9.93-9.93Z" style="fill:#ebebeb;"></path><path d="M330.82,418.51h-79.48v-3.3h79.48c.91,0,1.65,.74,1.65,1.65h0c0,.91-.74,1.65-1.65,1.65Z" style="fill:#ebebeb;"></path><path d="M330.82,435.07h-79.48v-3.3h79.48c.91,0,1.65,.74,1.65,1.65h0c0,.91-.74,1.65-1.65,1.65Z" style="fill:#ebebeb;"></path><path d="M330.05,431.78h-69.66c-3.66,0-6.63-2.97-6.63-6.63h0c0-3.66,2.97-6.63,6.63-6.63h69.66c-1.87,4.42-1.87,8.84,0,13.27Z" style="fill:#fafafa;"></path><path d="M253.76,435.07h-28.38c-5.43,0-9.82-4.4-9.82-9.82h0c0-5.54,4.49-10.04,10.04-10.04h28.93c-7.19,4.36-6.65,14.79-.76,19.86Z" style="fill:#e0e0e0;"></path><path d="M321.58,425.76c0,.05-14.3,.09-31.93,.09s-31.93-.04-31.93-.09,14.29-.09,31.93-.09,31.93,.04,31.93,.09Z" style="fill:#e0e0e0;"></path><path d="M328.16,428.71c0,.05-14.3,.09-31.93,.09s-31.93-.04-31.93-.09,14.29-.09,31.93-.09,31.93,.04,31.93,.09Z" style="fill:#e0e0e0;"></path><path d="M326.22,423.02c0,.05-14.3,.09-31.93,.09s-31.93-.04-31.93-.09,14.29-.09,31.93-.09,31.93,.04,31.93,.09Z" style="fill:#e0e0e0;"></path><path d="M250.26,433.68c0,.05-6.69,.09-14.95,.09s-14.95-.04-14.95-.09,6.69-.09,14.95-.09,14.95,.04,14.95,.09Z" style="fill:#ebebeb;"></path><path d="M250.26,416.86c0,.05-6.69,.09-14.95,.09s-14.95-.04-14.95-.09,6.69-.09,14.95-.09,14.95,.04,14.95,.09Z" style="fill:#ebebeb;"></path></g><path d="M115.32,82.35c2.05,2.68,3.08,5.99,3.08,9.91,0,5.55-2.16,9.82-6.47,12.81-4.31,2.99-10.6,4.48-18.87,4.48H60.3V46.2h30.95c7.72,0,13.65,1.48,17.78,4.43,4.13,2.96,6.2,6.97,6.2,12.04,0,3.08-.74,5.82-2.22,8.23-1.48,2.41-3.54,4.31-6.2,5.7,3.62,1.15,6.46,3.06,8.51,5.75Zm-40.45-25.11v14.93h14.57c3.62,0,6.36-.63,8.24-1.9,1.87-1.27,2.81-3.14,2.81-5.61s-.94-4.33-2.81-5.57c-1.87-1.24-4.62-1.86-8.24-1.86h-14.57Zm25.84,39.37c1.96-1.27,2.94-3.23,2.94-5.88,0-5.25-3.89-7.87-11.67-7.87h-17.1v15.66h17.1c3.86,0,6.77-.63,8.73-1.9Z" style="fill:#e0e0e0;"></path><path d="M473.83,259.57l-10.51,24.91h-7.45l-10.46-24.91h7.45l6.9,16.95,7.13-16.95h6.95Z" style="fill:#f5f5f5;"></path><path d="M350.43,36c2.07,1.84,3.1,4.61,3.1,8.31v14.21h-6.76v-3.1c-1.36,2.32-3.89,3.47-7.59,3.47-1.91,0-3.57-.32-4.98-.97-1.4-.65-2.48-1.54-3.22-2.69-.74-1.14-1.11-2.44-1.11-3.89,0-2.32,.87-4.14,2.62-5.46,1.74-1.33,4.44-1.99,8.08-1.99h5.74c0-1.57-.48-2.79-1.44-3.63-.96-.85-2.39-1.27-4.31-1.27-1.33,0-2.63,.21-3.91,.62-1.28,.42-2.37,.98-3.26,1.69l-2.59-5.05c1.36-.96,2.99-1.7,4.88-2.22,1.9-.52,3.85-.79,5.86-.79,3.86,0,6.82,.92,8.89,2.75Zm-6.16,17.18c.96-.57,1.64-1.41,2.04-2.52v-2.55h-4.95c-2.96,0-4.45,.97-4.45,2.92,0,.93,.36,1.66,1.09,2.2,.73,.54,1.72,.81,2.99,.81s2.33-.29,3.29-.86Z" style="fill:#ebebeb;"></path><path d="M436.73,126.38h-11.2v-6.6h30.49v6.6h-11.2v28.39h-8.1v-28.39Z" style="fill:#e0e0e0;"></path><path d="M55.85,167.3c2.21,1,3.92,2.42,5.11,4.27,1.19,1.84,1.79,4.02,1.79,6.54s-.6,4.66-1.79,6.52c-1.2,1.86-2.9,3.28-5.11,4.27-2.21,.99-4.82,1.48-7.83,1.48h-6.83v9.35h-7.85v-33.93h14.69c3.01,0,5.61,.5,7.83,1.5Zm-2.88,15.15c1.23-1.02,1.84-2.46,1.84-4.34s-.61-3.37-1.84-4.39c-1.23-1.02-3.02-1.53-5.38-1.53h-6.4v11.78h6.4c2.36,0,4.15-.51,5.38-1.53Z" style="fill:#ebebeb;"></path><path d="M143.47,421.96c1.67,.76,2.96,1.83,3.87,3.23,.9,1.39,1.36,3.04,1.36,4.95s-.45,3.53-1.36,4.93c-.9,1.41-2.19,2.48-3.87,3.23-1.67,.75-3.65,1.12-5.92,1.12h-5.17v7.08h-5.94v-25.67h11.11c2.27,0,4.25,.38,5.92,1.14Zm-2.18,11.46c.93-.77,1.39-1.86,1.39-3.28s-.46-2.55-1.39-3.32c-.93-.77-2.29-1.15-4.07-1.15h-4.84v8.91h4.84c1.78,0,3.14-.38,4.07-1.15Z" style="fill:#e0e0e0;"></path></g><g id="freepik--Floor--inject-144"><path d="M475.5,462.48c0,.14-102.22,.26-228.28,.26s-228.3-.12-228.3-.26,102.2-.26,228.3-.26,228.28,.12,228.28,.26Z" style="fill:#263238;"></path></g><g id="freepik--Clipboard--inject-144"><g><g><g><g><path d="M358.08,405.65l-212.82,3.18c-5.17,.08-9.42-4.05-9.49-9.21l-4.63-309.91c-.08-5.17,4.05-9.42,9.21-9.49l212.82-3.18c5.17-.08,9.42,4.05,9.49,9.21l4.63,309.91c.08,5.17-4.05,9.42-9.21,9.49Z" style="fill:#e0e0e0;"></path><path d="M358.08,405.65s.24-.02,.72-.06c.47-.04,1.18-.16,2.08-.44,.89-.31,1.96-.81,3.03-1.71,1.06-.89,2.11-2.19,2.75-3.91,.34-.85,.52-1.82,.56-2.84,.04-1.02-.02-2.11-.03-3.24-.04-2.27-.08-4.75-.12-7.44-.09-5.38-.19-11.58-.3-18.57-.43-27.94-1.06-68.37-1.84-118.32-.38-24.98-.8-52.34-1.25-81.71-.22-14.69-.45-29.87-.69-45.52-.12-7.82-.24-15.76-.36-23.8-.07-4.02-.13-8.07-.2-12.14-.07-2-.86-3.95-2.15-5.49-1.31-1.52-3.11-2.63-5.09-3.04-.99-.21-2-.21-3.04-.19-1.04,.02-2.07,.03-3.11,.05-2.08,.03-4.16,.06-6.25,.09-4.18,.06-8.38,.13-12.61,.19-8.46,.13-17.01,.26-25.65,.39-17.29,.26-34.94,.53-52.91,.8-35.94,.54-73.15,1.1-111.25,1.67-2.33,.03-4.62,.98-6.28,2.62-1.66,1.62-2.66,3.89-2.73,6.2,.02,4.71,.13,9.45,.19,14.15,.14,9.41,.28,18.76,.42,28.04,.28,18.56,.55,36.85,.82,54.83,.53,35.95,1.05,70.62,1.54,103.65,.49,33.03,.95,64.42,1.38,93.79,.05,3.67,.11,7.31,.16,10.92,.04,1.8,.03,3.61,.1,5.38,.08,1.75,.71,3.46,1.73,4.86,1.02,1.41,2.45,2.5,4.04,3.14,.8,.31,1.65,.51,2.5,.6,.85,.06,1.72,.03,2.59,.02,3.48-.05,6.92-.1,10.33-.15,13.63-.2,26.72-.39,39.21-.57,49.95-.72,90.38-1.3,118.32-1.7,13.97-.19,24.81-.34,32.17-.44,3.67-.05,6.48-.08,8.37-.1,1.88-.02,2.85-.02,2.85-.02,0,0-.97,.03-2.85,.07-1.89,.03-4.69,.08-8.37,.15-7.36,.12-18.2,.3-32.17,.52-27.94,.43-68.36,1.06-118.32,1.84-12.49,.19-25.57,.39-39.21,.6-3.41,.05-6.85,.1-10.33,.16-.87,.01-1.74,.04-2.63-.02-.89-.09-1.76-.3-2.59-.62-1.66-.66-3.14-1.8-4.2-3.26-1.06-1.46-1.71-3.23-1.8-5.05-.07-1.8-.07-3.59-.1-5.39-.05-3.61-.11-7.25-.17-10.92-.45-29.37-.92-60.76-1.42-93.79-.5-33.03-1.02-67.7-1.56-103.65-.27-17.97-.54-36.26-.82-54.83-.14-9.28-.28-18.63-.42-28.04-.06-4.71-.16-9.42-.19-14.17,.07-2.43,1.12-4.81,2.86-6.5,1.73-1.71,4.14-2.72,6.58-2.74,38.11-.57,75.32-1.12,111.26-1.66,17.97-.27,35.62-.53,52.91-.79,8.64-.13,17.2-.25,25.65-.38,4.23-.06,8.43-.12,12.61-.19,2.09-.03,4.17-.06,6.25-.09,1.04-.02,2.08-.03,3.11-.05,1.02-.03,2.1-.02,3.13,.2,2.07,.42,3.95,1.59,5.32,3.17,1.34,1.61,2.17,3.65,2.24,5.73,.07,4.08,.13,8.13,.19,12.15,.12,8.05,.24,15.98,.35,23.8,.23,15.65,.45,30.83,.67,45.52,.43,29.37,.83,56.73,1.19,81.71,.72,49.95,1.3,90.38,1.7,118.32,.1,6.98,.18,13.19,.26,18.57,.04,2.69,.07,5.17,.1,7.44,0,1.14,.06,2.21,.02,3.25-.05,1.03-.24,2-.58,2.86-.65,1.73-1.72,3.04-2.79,3.93-1.09,.89-2.17,1.4-3.06,1.7-.91,.27-1.61,.38-2.09,.41-.48,.03-.72,.04-.72,.04Z" style="fill:#263238;"></path></g><g style="opacity:.3;"><polygon points="157.75 400.48 351.88 396.52 353.54 358.98 347.25 336.44 155.52 369.35 157.75 400.48"></polygon></g></g><g><path d="M358.08,405.65s.24-.02,.72-.06c.47-.04,1.18-.16,2.08-.44,.89-.31,1.96-.81,3.03-1.71,1.06-.89,2.11-2.19,2.75-3.91,.34-.85,.52-1.82,.56-2.84,.04-1.02-.02-2.11-.03-3.24-.04-2.27-.08-4.75-.12-7.44-.09-5.38-.19-11.58-.3-18.57-.43-27.94-1.06-68.37-1.84-118.32-.38-24.98-.8-52.34-1.25-81.71-.22-14.69-.45-29.87-.69-45.52-.12-7.82-.24-15.76-.36-23.8-.07-4.02-.13-8.07-.2-12.14-.07-2-.86-3.95-2.15-5.49-1.31-1.52-3.11-2.63-5.09-3.04-.99-.21-2-.21-3.04-.19-1.04,.02-2.07,.03-3.11,.05-2.08,.03-4.16,.06-6.25,.09-4.18,.06-8.38,.13-12.61,.19-8.46,.13-17.01,.26-25.65,.39-17.29,.26-34.94,.53-52.91,.8-35.94,.54-73.15,1.1-111.25,1.67-2.33,.03-4.62,.98-6.28,2.62-1.66,1.62-2.66,3.89-2.73,6.2,.02,4.71,.13,9.45,.19,14.15,.14,9.41,.28,18.76,.42,28.04,.28,18.56,.55,36.85,.82,54.83,.53,35.95,1.05,70.62,1.54,103.65,.49,33.03,.95,64.42,1.38,93.79,.05,3.67,.11,7.31,.16,10.92,.04,1.8,.03,3.61,.1,5.38,.08,1.75,.71,3.46,1.73,4.86,1.02,1.41,2.45,2.5,4.04,3.14,.8,.31,1.65,.51,2.5,.6,.85,.06,1.72,.03,2.59,.02,3.48-.05,6.92-.1,10.33-.15,13.63-.2,26.72-.39,39.21-.57,49.95-.72,90.38-1.3,118.32-1.7,13.97-.19,24.81-.34,32.17-.44,3.67-.05,6.48-.08,8.37-.1,1.88-.02,2.85-.02,2.85-.02,0,0-.97,.03-2.85,.07-1.89,.03-4.69,.08-8.37,.15-7.36,.12-18.2,.3-32.17,.52-27.94,.43-68.36,1.06-118.32,1.84-12.49,.19-25.57,.39-39.21,.6-3.41,.05-6.85,.1-10.33,.16-.87,.01-1.74,.04-2.63-.02-.89-.09-1.76-.3-2.59-.62-1.66-.66-3.14-1.8-4.2-3.26-1.06-1.46-1.71-3.23-1.8-5.05-.07-1.8-.07-3.59-.1-5.39-.05-3.61-.11-7.25-.17-10.92-.45-29.37-.92-60.76-1.42-93.79-.5-33.03-1.02-67.7-1.56-103.65-.27-17.97-.54-36.26-.82-54.83-.14-9.28-.28-18.63-.42-28.04-.06-4.71-.16-9.42-.19-14.17,.07-2.43,1.12-4.81,2.86-6.5,1.73-1.71,4.14-2.72,6.58-2.74,38.11-.57,75.32-1.12,111.26-1.66,17.97-.27,35.62-.53,52.91-.79,8.64-.13,17.2-.25,25.65-.38,4.23-.06,8.43-.12,12.61-.19,2.09-.03,4.17-.06,6.25-.09,1.04-.02,2.08-.03,3.11-.05,1.02-.03,2.1-.02,3.13,.2,2.07,.42,3.95,1.59,5.32,3.17,1.34,1.61,2.17,3.65,2.24,5.73,.07,4.08,.13,8.13,.19,12.15,.12,8.05,.24,15.98,.35,23.8,.23,15.65,.45,30.83,.67,45.52,.43,29.37,.83,56.73,1.19,81.71,.72,49.95,1.3,90.38,1.7,118.32,.1,6.98,.18,13.19,.26,18.57,.04,2.69,.07,5.17,.1,7.44,0,1.14,.06,2.21,.02,3.25-.05,1.03-.24,2-.58,2.86-.65,1.73-1.72,3.04-2.79,3.93-1.09,.89-2.17,1.4-3.06,1.7-.91,.27-1.61,.38-2.09,.41-.48,.03-.72,.04-.72,.04Z" style="fill:#263238;"></path><g style="opacity:.3;"><polygon points="157.75 400.48 351.88 396.52 353.54 358.98 347.25 336.44 155.52 369.35 157.75 400.48"></polygon></g></g><g><rect x="145.14" y="91.84" width="208.11" height="299.9" transform="translate(-3.59 3.75) rotate(-.86)" style="fill:#fff;"></rect><path d="M355.48,390.17c-.03-1.73-1.92-122.89-4.68-299.86l.2,.19c-63.12,.95-133.73,2.01-208.06,3.13h-.02l.21-.22c1.67,112.61,3.21,216.65,4.44,299.86l-.17-.17c126.56-1.79,206.68-2.92,208.09-2.94-1.41,.02-81.52,1.29-208.09,3.28h-.17v-.17c-1.26-83.22-2.83-187.25-4.53-299.86v-.21h.23c74.34-1.11,144.95-2.16,208.06-3.1h.19v.19c2.53,176.97,4.27,298.14,4.29,299.87Z" style="fill:#263238;"></path></g><g><path d="M204.91,70.36h94.06c3.49,0,6.33,2.83,6.33,6.33v24.62h-106.71v-24.62c0-3.49,2.83-6.33,6.33-6.33Z" transform="translate(-1.26 3.78) rotate(-.86)" style="fill:#263238;"></path><polygon points="265.11 58.52 237.95 58.93 241.48 82.16 261.93 81.85 265.11 58.52" style="fill:#263238;"></polygon><path d="M298.2,69.67c0,.12-20.81,.54-46.49,.92-25.68,.38-46.5,.6-46.5,.47,0-.12,20.81-.53,46.49-.92,25.67-.38,46.49-.59,46.5-.47Z" style="fill:#455a64;"></path></g><g style="opacity:.3;"><polygon points="305.19 78.42 309.8 91.45 309.89 97.87 304.91 97.94 305.19 78.42"></polygon></g></g><path d="M205.32,131.24l-8.52,23.5h-6.55l-5.29-14.59-5.46,14.59h-6.55l-8.47-23.5h6.42l5.55,15.9,5.77-15.9h5.77l5.59,15.9,5.72-15.9h6.03Z" style="fill:#263238;"></path><rect x="212.14" y="146.79" width="125.64" height="3.5" style="fill:#e0e0e0;"></rect><rect x="157.47" y="163.22" width="125.64" height="3.5" style="fill:#e0e0e0;"></rect><rect x="157.47" y="179.12" width="66.28" height="3.5" style="fill:#e0e0e0;"></rect><rect x="231.95" y="179.12" width="51.16" height="3.5" style="fill:#FF725E;"></rect><rect x="157.47" y="195.01" width="25.21" height="3.5" style="fill:#e0e0e0;"></rect><rect x="190.61" y="195.01" width="55.23" height="3.5" style="fill:#e0e0e0;"></rect><rect x="250.65" y="195.01" width="32.46" height="3.5" style="fill:#e0e0e0;"></rect><rect x="157.47" y="225.97" width="25.21" height="3.5" style="fill:#FF725E;"></rect><rect x="190.61" y="225.97" width="89.38" height="3.5" style="fill:#e0e0e0;"></rect><rect x="287.77" y="225.97" width="52.53" height="3.5" style="fill:#e0e0e0;"></rect><rect x="157.47" y="275.95" width="25.21" height="3.5" style="fill:#e0e0e0;"></rect><rect x="190.61" y="275.95" width="89.38" height="3.5" style="fill:#e0e0e0;"></rect><rect x="287.77" y="275.95" width="52.53" height="3.5" style="fill:#FF725E;"></rect><rect x="287.77" y="322.17" width="52.53" height="3.5" style="fill:#e0e0e0;"></rect><rect x="291.39" y="211.1" width="48.91" height="3.5" style="fill:#e0e0e0;"></rect><rect x="157.47" y="211.01" width="125.64" height="3.5" style="fill:#e0e0e0;"></rect><rect x="207.43" y="242.7" width="132.53" height="3.5" style="fill:#e0e0e0;"></rect><rect x="207.43" y="258.59" width="132.53" height="3.5" style="fill:#e0e0e0;"></rect><rect x="252.32" y="290.38" width="30.79" height="3.5" style="fill:#e0e0e0;"></rect><rect x="158.86" y="290.38" width="82.2" height="3.5" style="fill:#e0e0e0;"></rect><rect x="157.47" y="306.28" width="28.21" height="3.5" style="fill:#e0e0e0;"></rect><rect x="248.14" y="338.07" width="65.9" height="3.5" style="fill:#e0e0e0;"></rect><rect x="198.87" y="306.28" width="84.24" height="3.5" style="fill:#e0e0e0;"></rect><rect x="157.47" y="322.17" width="48.45" height="3.5" style="fill:#e0e0e0;"></rect><rect x="213.27" y="322.17" width="67.22" height="3.5" style="fill:#e0e0e0;"></rect><rect x="157.47" y="338.07" width="82.95" height="3.5" style="fill:#FF725E;"></rect><rect x="321.61" y="338.07" width="18.69" height="3.5" style="fill:#e0e0e0;"></rect><rect x="293.71" y="353.96" width="46.58" height="3.5" style="fill:#e0e0e0;"></rect><rect x="157.47" y="353.96" width="125.64" height="3.5" style="fill:#e0e0e0;"></rect><rect x="292.23" y="163.22" width="45.54" height="3.5" style="fill:#e0e0e0;"></rect><path d="M311.62,179.81h-9.78v-5.77h26.65v5.77h-9.78v24.81h-7.08v-24.81Z" style="fill:#263238;"></path><path d="M172.64,266.5c-2.12-1.23-3.78-2.93-4.99-5.09-1.2-2.16-1.8-4.59-1.8-7.3s.6-5.13,1.8-7.29c1.2-2.16,2.86-3.86,4.99-5.09,2.12-1.23,4.51-1.85,7.15-1.85s5.02,.62,7.13,1.85c2.11,1.23,3.77,2.93,4.99,5.09,1.21,2.16,1.82,4.59,1.82,7.29s-.61,5.13-1.82,7.3c-1.21,2.16-2.87,3.86-4.99,5.09-2.11,1.23-4.49,1.85-7.13,1.85s-5.03-.62-7.15-1.85Zm11.23-4.7c1.21-.75,2.16-1.79,2.86-3.13,.69-1.34,1.04-2.86,1.04-4.56s-.35-3.22-1.04-4.56-1.64-2.38-2.86-3.13c-1.21-.75-2.57-1.12-4.08-1.12s-2.86,.37-4.08,1.12c-1.21,.75-2.17,1.79-2.86,3.13s-1.04,2.86-1.04,4.56,.35,3.22,1.04,4.56c.69,1.34,1.64,2.38,2.86,3.13,1.21,.75,2.57,1.12,4.08,1.12s2.86-.37,4.08-1.12Z" style="fill:#263238;"></path><path d="M304.45,313.45c-2.03-2.18-3.04-5.28-3.04-9.32v-15.42h5.89v15.18c0,4.93,1.89,7.39,5.68,7.39,1.84,0,3.25-.6,4.22-1.79,.97-1.19,1.46-3.06,1.46-5.6v-15.18h5.82v15.42c0,4.04-1.01,7.14-3.04,9.32-2.03,2.18-4.86,3.26-8.5,3.26s-6.47-1.09-8.5-3.26Z" style="fill:#263238;"></path><path d="M284.4,285.06s1.52-.01,4.22,.49c1.33,.29,3.01,.74,4.58,1.97,.77,.61,1.49,1.42,2.02,2.41,.52,.99,.82,2.23,.59,3.48-.23,1.25-.97,2.44-2.02,3.32-1.03,.9-2.31,1.55-3.66,2.07-1.36,.53-2.81,.88-4.29,1.29-1.49,.37-3.03,.73-4.62,1.03-6.35,1.2-13.55,1.79-20.99,.82-1.86-.22-3.68-.58-5.46-.97-1.77-.45-3.53-.83-5.17-1.58-1.63-.72-3.12-1.99-3.69-3.7-.29-.84-.32-1.78-.04-2.62,.26-.84,.8-1.55,1.41-2.12,1.24-1.13,2.72-1.81,4.14-2.38,1.42-.59,2.83-1.08,4.2-1.52,2.74-.88,5.37-1.48,7.78-1.89,4.84-.83,8.82-.87,11.55-.77,1.37,.05,2.43,.14,3.14,.22,.33,.04,.6,.07,.81,.1,.18,.02,.28,.04,.28,.05,0,0-.1,0-.28,0-.21-.01-.48-.03-.82-.04-.72-.05-1.78-.1-3.14-.12-2.72-.04-6.69,.06-11.48,.93-2.39,.43-5,1.04-7.72,1.94-1.36,.45-2.75,.94-4.16,1.54-1.41,.57-2.84,1.24-3.99,2.3-.56,.53-1.05,1.17-1.27,1.92-.24,.74-.22,1.55,.04,2.31,.52,1.54,1.87,2.71,3.43,3.4,1.56,.71,3.33,1.1,5.07,1.54,1.76,.39,3.56,.74,5.41,.96,7.37,.96,14.51,.4,20.83-.77,1.58-.3,3.11-.64,4.6-1.01,1.47-.39,2.92-.73,4.24-1.24,1.32-.51,2.56-1.13,3.55-1.98,1-.83,1.69-1.92,1.92-3.08,.23-1.16-.04-2.31-.52-3.26-.49-.95-1.17-1.74-1.91-2.34-1.49-1.2-3.14-1.69-4.44-2-1.33-.3-2.38-.42-3.09-.52l-.81-.11c-.18-.03-.28-.05-.27-.05Z" style="fill:#FF725E;"></path><path d="M196.71,186.25s1.09,.3,2.66,1.54c.77,.62,1.65,1.5,2.42,2.69,.77,1.18,1.46,2.69,1.74,4.46,.3,1.77,.11,3.8-.65,5.77-.78,1.96-2.1,3.87-3.91,5.39-.89,.78-1.92,1.45-3.02,2.01-1.1,.57-2.31,.99-3.58,1.24-2.53,.51-5.29,.31-7.87-.59-2.59-.89-4.87-2.47-6.49-4.49-1.63-2.02-2.53-4.45-2.8-6.81-.29-2.36,.11-4.66,.95-6.6,.85-1.94,2.2-3.47,3.64-4.53,2.93-2.12,6.01-2.49,7.96-2.28,.99,.1,1.74,.3,2.23,.47,.49,.19,.74,.29,.73,.31-.02,.08-1.02-.44-2.98-.57-1.92-.14-4.91,.28-7.72,2.38-1.38,1.04-2.66,2.52-3.46,4.4-.78,1.87-1.16,4.09-.87,6.37,.27,2.27,1.15,4.61,2.72,6.54,1.56,1.94,3.77,3.45,6.27,4.32,2.5,.86,5.16,1.06,7.61,.58,1.22-.24,2.39-.63,3.46-1.18,1.07-.54,2.07-1.18,2.93-1.93,1.77-1.46,3.05-3.31,3.82-5.19,.74-1.9,.95-3.84,.68-5.55-.25-1.72-.89-3.2-1.62-4.36-.73-1.18-1.56-2.05-2.3-2.69-1.5-1.27-2.56-1.64-2.53-1.69Z" style="fill:#FF725E;"></path><path d="M295.67,137.91s.14-.03,.43-.06c.31-.03,.72-.07,1.25-.12,1.1-.09,2.73-.19,4.83-.23,4.2-.05,10.33,.18,17.7,1.75,3.68,.77,7.66,1.89,11.8,3.46,1.03,.38,2.1,.79,3.11,1.39,1,.59,1.95,1.42,2.49,2.54,.56,1.08,.68,2.52,0,3.65-.66,1.14-1.84,1.81-3,2.27-1.19,.47-2.43,.7-3.67,.98-1.24,.29-2.5,.54-3.78,.79-2.56,.49-5.18,.94-7.86,1.3-5.36,.75-10.96,1.19-16.69,1.31-5.74,.11-11.35-.12-16.74-.66-2.69-.25-5.35-.58-7.88-1.3-1.26-.36-2.48-.83-3.63-1.43-1.14-.6-2.25-1.38-2.88-2.57-.31-.58-.44-1.28-.34-1.93,.1-.66,.41-1.26,.83-1.75,.84-.97,1.95-1.55,3.05-2.02,2.22-.85,4.4-1.53,6.54-2.11,4.27-1.16,8.35-1.88,12.09-2.28,7.5-.79,13.62-.35,17.78,.19,4.17,.55,6.42,1.15,6.42,1.15,0,0-.15,0-.43-.05-.3-.05-.71-.12-1.24-.21-.54-.1-1.22-.22-2.02-.32-.8-.12-1.72-.26-2.76-.36-4.16-.47-10.26-.86-17.71-.02-3.72,.42-7.77,1.16-12.01,2.33-2.12,.58-4.3,1.29-6.47,2.12-1.05,.45-2.11,1.03-2.87,1.9-.77,.85-.99,2.13-.42,3.16,.55,1.03,1.59,1.79,2.68,2.35,1.11,.58,2.3,1.03,3.54,1.39,2.48,.7,5.11,1.02,7.79,1.27,5.37,.53,10.96,.75,16.68,.65,5.72-.12,11.29-.56,16.63-1.29,2.67-.35,5.28-.8,7.83-1.28,1.27-.25,2.53-.5,3.77-.78,1.24-.28,2.47-.51,3.6-.95,1.12-.43,2.19-1.07,2.77-2.06,.59-.98,.5-2.22,0-3.21-.49-1.02-1.35-1.79-2.31-2.36-.96-.57-2-.98-3.03-1.37-4.11-1.58-8.07-2.71-11.73-3.51-7.33-1.61-13.43-1.9-17.62-1.91-2.1,0-3.73,.07-4.83,.13-.53,.03-.95,.05-1.26,.07-.28,.01-.43,.01-.43,0Z" style="fill:#FF725E;"></path><path d="M300.19,125.75s-.4,.14-1.19,.23c-.79,.09-1.99,.1-3.47-.28-1.46-.38-3.23-1.18-4.74-2.76-.75-.78-1.45-1.76-1.78-2.98-.34-1.2-.12-2.7,.88-3.74,.49-.52,1.22-.85,1.97-.86,.76-.02,1.5,.27,2.13,.72,.62,.45,1.13,1.11,1.39,1.88,.27,.76,.32,1.59,.21,2.4-.46,3.27-3.16,6.19-6.64,7.26-1.74,.54-3.7,.57-5.52-.02-1.82-.58-3.5-1.73-4.74-3.28-.62-.78-1.13-1.66-1.48-2.61-.34-.95-.56-2-.36-3.06,.19-1.05,.86-2.06,1.9-2.51,.52-.22,1.12-.26,1.66-.11,.55,.15,1.03,.49,1.4,.89,.74,.82,1.13,1.86,1.27,2.91,.11,1.06-.03,2.11-.35,3.09-.61,1.98-1.92,3.64-3.5,4.84-1.6,1.17-3.53,1.87-5.46,1.84-1.93-.02-3.76-.79-5.17-1.93-2.86-2.28-4.21-6.02-3.45-9.22,.41-1.57,1.34-3.03,2.79-3.67,.72-.31,1.54-.34,2.25-.06,.71,.26,1.27,.78,1.66,1.36,.81,1.17,.9,2.64,.56,3.82-.33,1.21-.97,2.21-1.63,3.06-1.35,1.69-2.85,2.84-4.14,3.63-1.3,.78-2.4,1.21-3.16,1.45-.38,.12-.67,.2-.87,.24-.2,.05-.3,.07-.3,.06,0-.02,.4-.13,1.14-.4,.74-.28,1.82-.73,3.09-1.53,1.26-.8,2.71-1.96,4.01-3.63,.64-.84,1.24-1.82,1.54-2.96,.31-1.13,.21-2.46-.54-3.53-.36-.52-.87-.98-1.49-1.21-.62-.23-1.33-.2-1.96,.07-1.27,.57-2.17,1.94-2.53,3.41-.7,3,.6,6.58,3.33,8.74,1.35,1.08,3.07,1.8,4.88,1.81,1.81,.03,3.63-.64,5.15-1.75,1.5-1.13,2.74-2.72,3.31-4.58,.3-.92,.43-1.92,.32-2.87-.12-.95-.49-1.91-1.14-2.62-.62-.73-1.63-1.02-2.47-.66-.84,.36-1.44,1.22-1.59,2.13-.17,.92,.01,1.89,.34,2.79,.33,.9,.81,1.73,1.4,2.47,1.18,1.47,2.77,2.56,4.5,3.12,1.73,.57,3.57,.55,5.23,.04,3.32-1,5.91-3.8,6.35-6.86,.24-1.51-.25-3.08-1.41-3.89-.56-.41-1.23-.67-1.89-.66-.66,0-1.28,.28-1.72,.74-.9,.92-1.13,2.28-.82,3.4,.29,1.14,.95,2.1,1.67,2.86,1.44,1.55,3.16,2.36,4.58,2.76,1.44,.4,2.62,.42,3.4,.37,.79-.05,1.19-.15,1.2-.12Z" style="fill:#FF725E;"></path><path d="M306.35,122.03s.27-.03,.76,.01c.24,.02,.54,.05,.88,.13,.34,.08,.73,.14,1.14,.29,.84,.24,1.8,.67,2.8,1.26,.98,.61,2,1.4,2.92,2.37,.91,.98,1.63,2.05,2.18,3.07,.52,1.03,.89,2.02,1.08,2.87,.13,.42,.16,.82,.22,1.16,.06,.34,.07,.64,.07,.88,.01,.49,0,.75-.04,.76-.1,0-.13-1.07-.61-2.7-.23-.82-.62-1.75-1.15-2.74-.55-.97-1.26-1.99-2.14-2.94-.89-.94-1.86-1.7-2.79-2.32-.95-.59-1.86-1.04-2.66-1.32-1.6-.58-2.67-.68-2.66-.78Z" style="fill:#FF725E;"></path><path d="M312.44,120.98c-.02,.08-.93-.17-2.41-.44-1.48-.27-3.55-.54-5.84-.54h0l.25-.34c.72,2.2,1.35,4.19,1.77,5.64,.43,1.45,.66,2.36,.59,2.38-.07,.02-.42-.85-.94-2.27-.52-1.42-1.2-3.4-1.92-5.6l-.11-.34h.37c2.34,0,4.44,.33,5.92,.7,1.48,.37,2.35,.74,2.33,.8Z" style="fill:#FF725E;"></path></g></g><g id="freepik--Plant--inject-144"><g><g><path d="M194.04,441.64s-3.12-21.65-2.86-34.25c.26-12.6-.02-26.77-.02-26.77h1.44s-.97,25.01,.09,40.09c1.06,15.07,3.84,20.94,3.84,20.94h-2.49" style="fill:#263238;"></path><path d="M203.32,356.25c-.29-.74-.64-1.51-1.31-1.94-.91-.58-2.11-.34-3.12,.02-4.34,1.55-8.19,9.73-9.94,14.03l5.76,19.62c10.4-9.75,12.2-22.54,8.61-31.73Z" style="fill:#455a64;"></path><path d="M201.68,355.11s-.02,.09-.08,.26c-.07,.19-.17,.42-.28,.71-.25,.62-.61,1.51-1.03,2.63-.85,2.23-1.93,5.34-2.9,8.85-.96,3.51-1.62,6.74-2.03,9.09-.21,1.18-.36,2.13-.46,2.79-.05,.31-.09,.56-.12,.76-.03,.17-.05,.26-.06,.26,0,0,0-.09,.01-.27,.02-.2,.05-.45,.08-.77,.07-.66,.2-1.62,.38-2.81,.37-2.36,1.01-5.61,1.97-9.13,.97-3.52,2.08-6.63,2.97-8.85,.44-1.11,.82-2,1.1-2.6,.13-.28,.24-.51,.32-.7,.08-.16,.12-.24,.13-.24Z" style="fill:#263238;"></path><path d="M192.15,392.69c-5.4-3.02-8.58-8.69-8.88-14.92-.21-4.35,1.12-8.63,2.62-12.71,.13-.35,.28-.74,.61-.92,.45-.26,1.02-.03,1.47,.23,3.92,2.26,6.3,6.56,7.57,10.94,.84,2.91,1.28,5.99,.89,9-.39,3.01-2.09,6.29-4.27,8.38" style="fill:#455a64;"></path><path d="M192.15,392.69s-.02-.09-.02-.26c0-.2,0-.45-.01-.75,0-.65-.03-1.6-.08-2.77-.1-2.33-.41-5.55-1-9.06-.6-3.51-1.33-6.66-1.86-8.93-.26-1.11-.48-2.02-.64-2.69-.07-.3-.12-.54-.17-.73-.04-.17-.05-.26-.04-.26,0,0,.04,.08,.09,.25,.06,.19,.12,.43,.21,.72,.18,.63,.42,1.54,.71,2.68,.58,2.27,1.33,5.41,1.93,8.93,.6,3.52,.87,6.75,.94,9.1,.03,1.17,.03,2.12,0,2.77-.01,.31-.02,.55-.03,.75,0,.17-.02,.26-.03,.26Z" style="fill:#263238;"></path><g style="opacity:.3;"><path d="M192.15,392.69c-5.4-3.02-8.58-8.69-8.88-14.92-.21-4.35,1.12-8.63,2.62-12.71,.13-.35,.28-.74,.61-.92,.45-.26,1.02-.03,1.47,.23,3.92,2.26,6.3,6.56,7.57,10.94,.84,2.91,1.28,5.99,.89,9-.39,3.01-2.09,6.29-4.27,8.38"></path></g><path d="M198.24,425.82c5.32,1.18,9.69,4.97,14.82,6.81,3.39,1.22,7.23,1.65,9.94,4.05-.65-1.66-2.19-2.76-3.69-3.71-4.22-2.66-8.73-4.84-13.43-6.48-2.41-.84-5.03-1.55-7.49-.85" style="fill:#455a64;"></path><path d="M190.56,430.6c-6.66-.11-13.66-5.83-20.29-6.18,6.93-2.26,16.86-.41,20.29,6.18" style="fill:#455a64;"></path><path d="M193.16,414.47c3.38-1.23,7.09-1.29,10.64-.73s6.98,1.71,10.39,2.85c-.34-2.33-2.21-4.09-3.97-5.64-1.32-1.17-2.65-2.35-4.17-3.24-1.52-.9-3.25-1.5-5-1.43-2.12,.09-4.13,1.19-5.52,2.81-1.39,1.62-2.14,3.25-2.37,5.37" style="fill:#455a64;"></path><path d="M179.5,407.04c-4.19-3.61-10.54-3.26-16.04-3.14,8.47,4.09,17.59,9.7,24.88,15.67,.22-3.93-3.55-7.97-8.84-12.53Z" style="fill:#455a64;"></path><g style="opacity:.3;"><path d="M179.5,407.04c-4.19-3.61-10.54-3.26-16.04-3.14,8.47,4.09,17.59,9.7,24.88,15.67,.22-3.93-3.55-7.97-8.84-12.53Z"></path></g><path d="M195.04,402.05c2.11-1.42,4.24-2.77,6.44-3.78,2.21-1.01,4.26-2.63,6.39-3.79,2.76-1.51,5.15-3.61,7.69-5.49,2.54-1.87,5.32-3.56,8.42-4.06-2.53-.53-5.17-.24-7.66,.45-2.49,.69-4.86,1.76-7.21,2.84-3.27,1.49-6.59,3.01-9.27,5.43-2.67,2.42-5.09,4.8-4.8,8.41" style="fill:#455a64;"></path><path d="M212.94,430.6s-.08-.02-.21-.09c-.16-.08-.35-.18-.58-.3-.5-.27-1.22-.67-2.13-1.13-.45-.24-.95-.49-1.49-.74-.53-.27-1.11-.53-1.73-.8-1.23-.53-2.6-1.08-4.1-1.44-1.49-.37-2.98-.45-4.27-.11-.65,.16-1.26,.32-1.81,.55-.55,.22-1.04,.49-1.46,.76-.85,.54-1.45,1.12-1.84,1.53-.39,.42-.57,.67-.59,.66,0,0,.03-.07,.12-.2,.08-.13,.22-.3,.4-.52,.37-.44,.96-1.04,1.81-1.61,.43-.29,.92-.56,1.48-.8,.56-.24,1.18-.41,1.83-.58,1.32-.36,2.86-.29,4.37,.09,1.52,.37,2.9,.93,4.13,1.47,.62,.28,1.2,.55,1.73,.82,.54,.26,1.03,.52,1.48,.77,.9,.48,1.61,.9,2.09,1.2,.22,.14,.41,.25,.56,.34,.13,.08,.19,.13,.19,.13Z" style="fill:#263238;"></path><path d="M185.59,427.27s.15,.03,.42,.12c.26,.09,.64,.25,1.08,.48,.9,.45,2.07,1.21,3.18,2.28,1.1,1.07,1.9,2.23,2.38,3.12,.24,.44,.41,.81,.51,1.08,.1,.26,.15,.41,.14,.42-.04,.02-.29-.55-.8-1.41-.51-.85-1.32-1.98-2.4-3.03-1.09-1.05-2.23-1.82-3.09-2.3-.87-.48-1.44-.71-1.42-.75Z" style="fill:#263238;"></path><path d="M170.87,406.7s.1,.02,.28,.08l.8,.29c.35,.13,.78,.29,1.26,.47,.49,.18,1.02,.46,1.63,.73,2.4,1.1,5.59,2.95,8.67,5.58,1.52,1.34,2.89,2.69,4.04,4.02,1.14,1.33,2.11,2.58,2.87,3.67,.76,1.09,1.34,1.99,1.73,2.62,.19,.3,.34,.54,.46,.72,.1,.17,.15,.25,.15,.26,0,0-.07-.08-.19-.23-.12-.16-.29-.39-.49-.7-.42-.61-1.02-1.5-1.79-2.57-.77-1.08-1.75-2.31-2.9-3.62-1.15-1.31-2.52-2.66-4.03-3.99-3.06-2.61-6.21-4.47-8.58-5.61-.6-.28-1.12-.56-1.61-.75-.48-.19-.89-.36-1.24-.51-.32-.14-.58-.24-.78-.33-.18-.08-.27-.12-.27-.13Z" style="fill:#263238;"></path><path d="M203.15,410.69s-.19,0-.53-.07l-.61-.11c-.24-.05-.52-.05-.82-.08-1.2-.09-2.94,.01-4.57,.91-.82,.42-1.52,.99-2.08,1.56-.57,.57-1.01,1.16-1.34,1.67-.67,1.03-.87,1.78-.91,1.76-.01,0,.02-.19,.14-.52,.12-.33,.31-.8,.64-1.33,.32-.54,.75-1.15,1.33-1.74,.57-.59,1.28-1.18,2.13-1.62,1.69-.93,3.49-1,4.7-.87,.31,.04,.59,.06,.83,.12,.22,.06,.43,.11,.61,.16,.33,.09,.51,.14,.51,.16Z" style="fill:#263238;"></path><path d="M209.84,389.72s-.08,.06-.25,.16c-.19,.11-.44,.24-.74,.41-.65,.35-1.57,.87-2.7,1.54-1.12,.68-2.45,1.52-3.86,2.54-1.4,1.02-2.91,2.21-4.31,3.65-.69,.72-1.32,1.48-1.76,2.3-.44,.85-.85,1.66-1.24,2.45-.77,1.57-1.4,3.01-1.85,4.25-.45,1.24-.73,2.28-.9,3-.17,.72-.23,1.13-.26,1.12,0,0,0-.1,.03-.3,.02-.19,.06-.48,.14-.84,.14-.73,.4-1.78,.83-3.03,.44-1.26,1.05-2.72,1.81-4.29,.38-.79,.79-1.61,1.23-2.46,.46-.86,1.1-1.63,1.8-2.36,1.41-1.46,2.93-2.64,4.35-3.66,1.42-1.01,2.76-1.84,3.9-2.5,1.14-.66,2.09-1.15,2.75-1.48,.31-.15,.57-.27,.76-.37,.18-.08,.27-.12,.27-.11Z" style="fill:#263238;"></path><path d="M191.17,410.08s-.06-.2-.13-.57c-.08-.42-.18-.94-.29-1.55-.25-1.31-.64-3.11-1.26-5.05-.61-1.94-1.36-3.62-1.9-4.84-.26-.57-.48-1.06-.65-1.44-.15-.34-.23-.53-.21-.54,.01,0,.12,.17,.3,.5,.18,.33,.43,.81,.72,1.41,.58,1.2,1.36,2.89,1.98,4.84,.62,1.95,.99,3.77,1.2,5.09,.1,.66,.18,1.2,.22,1.57,.04,.37,.06,.58,.04,.58Z" style="fill:#263238;"></path><path d="M190.69,394.78c-.17-2.54-.99-5.01-2.16-7.26-3.23-6.17-9.3-10.75-16.08-12.12,4.96,7.47,9.92,14.95,14.89,22.42l1.92,4c1.31-2.17,1.6-4.5,1.44-7.04Z" style="fill:#455a64;"></path></g><g><rect x="177.43" y="438.96" width="34.61" height="6.2" style="fill:#FF725E;"></rect><polygon points="180.01 443.93 182.96 463.17 205.94 463.17 209.46 443.93 180.01 443.93" style="fill:#FF725E;"></polygon><path d="M212.02,445.17c0,.07-7.81,.12-17.44,.12s-17.44-.06-17.44-.12,7.81-.12,17.44-.12,17.44,.06,17.44,.12Z" style="fill:#263238;"></path></g></g></g><g id="freepik--Character_2--inject-144"><g><g><path d="M472.31,190.19c-6.45-1.11-10.79-7.24-9.68-13.69,1.11-6.45,7.24-10.79,13.69-9.68,6.45,1.11,10.79,7.24,9.68,13.69-1.11,6.45-7.24,10.79-13.69,9.68Z" style="fill:#FF725E;"></path><g><g><path d="M292.16,302.5l23.49-2.67,161.51-109.28-13.68-19.52-160.67,108.95-11.69,20.97c-.37,.67,.28,1.63,1.04,1.55Z" style="fill:#FF725E;"></path><g style="opacity:.7;"><path d="M302.81,279.98c1.01,.5,1.61,1.66,1.12,2.55,1.77-.56,4.05,.3,5.41,2.04,1.36,1.74,1.7,4.22,.8,5.89,1.93,.21,3.91,1.59,4.98,3.49,1.07,1.9,1.21,4.24,.33,5.9l-23.16,2.63c-.81,.09-1.51-.94-1.11-1.66l11.62-20.84Z" style="fill:#fff;"></path></g><path d="M300.52,301.03c.22-1.26,.25-4.54-4.49-7.24-.4-.23-.85-.13-1.05,.23l-3.91,7.02c-.35,.63,.26,1.55,.98,1.47l7.86-.89c.31-.04,.55-.26,.61-.59Z" style="fill:#FF725E;"></path></g><g style="opacity:.3;"><path d="M310.14,290.46l160.65-109.53,6.84,9.35-161.98,109.56-.19,.02s.57-.94,.58-2.37c.01-.96-.2-2.19-.83-3.37-.81-1.53-1.99-2.5-3.02-3.02-1.11-.57-2.05-.62-2.05-.62Z"></path></g><g style="opacity:.3;"><path d="M303.92,282.53l162.38-109.57-1.53-2.54-161.97,109.56s1.49,.67,1.26,2.19c-.02,.12-.09,.23-.15,.36Z"></path></g><path d="M307.9,295.74s.12,0,.21-.18c.08-.16,.08-.54-.25-.81-.31-.26-.8-.41-1.32-.45-.26,0-.54,.04-.75,.22-.21,.17-.37,.47-.3,.81,.06,.35,.32,.67,.62,.92,.31,.26,.68,.44,1.06,.62,.76,.34,1.63,.59,2.5,.58,.42-.01,.86-.14,1.09-.51,.22-.37,.18-.92-.04-1.39-.48-.96-1.49-1.61-2.46-2.02-2.01-.81-4.11-.36-5.16,.94-.25,.33-.33,.79-.2,1.22,.12,.44,.37,.83,.65,1.18,.56,.68,1.19,1.23,1.79,1.67,1.21,.87,2.31,1.26,3.06,1.46,.38,.09,.67,.15,.87,.17,.2,.03,.3,.05,.3,.05,0,0-.42,0-1.18-.16-.76-.18-1.87-.56-3.1-1.43-.61-.43-1.25-.98-1.83-1.68-.28-.35-.55-.76-.68-1.24-.14-.47-.06-.99,.21-1.34,1.09-1.36,3.24-1.81,5.3-.99,.51,.2,1,.49,1.46,.83,.44,.34,.86,.77,1.1,1.29,.24,.51,.29,1.11,.04,1.53-.25,.42-.74,.55-1.18,.56-.9,0-1.77-.26-2.55-.61-.39-.18-.76-.38-1.09-.65-.32-.26-.61-.62-.67-1.01-.07-.39,.11-.72,.34-.9,.24-.19,.53-.23,.8-.22,.54,.05,1.03,.21,1.36,.49,.35,.3,.34,.72,.24,.88-.1,.18-.24,.16-.23,.16Z" style="fill:#fff;"></path><path d="M297.77,289.53s.25,.22,.75,.52c.5,.31,1.27,.63,2.24,.79,.97,.17,2.1,.13,3.33,.01,1.24-.09,2.63-.24,4.13,.17,1.49,.41,2.85,1.3,3.85,2.34,1.02,1.04,1.67,2.23,2.05,3.24,.38,1.02,.5,1.88,.54,2.46,.04,.58,0,.89,0,.89,0,0,0-.08-.01-.23,0-.15-.01-.37-.04-.66-.06-.57-.19-1.42-.58-2.42-.39-.99-1.04-2.15-2.04-3.17-.99-1.01-2.32-1.88-3.78-2.28-1.47-.4-2.85-.26-4.09-.17-1.24,.1-2.39,.13-3.37-.05-.98-.17-1.76-.52-2.26-.84-.5-.32-.73-.58-.73-.58Z" style="fill:#fff;"></path><path d="M300.37,284.15s.13,.74,1,1.43c.85,.67,2.21,1.24,3.7,1.78,1.49,.52,2.87,.82,3.86,.97,.5,.08,.9,.12,1.17,.16,.28,.03,.43,.05,.43,.06,0,.01-.15,.01-.43,0-.28-.01-.68-.04-1.17-.11-.99-.12-2.38-.4-3.88-.93-.75-.26-1.46-.56-2.1-.86-.63-.3-1.2-.62-1.63-.98-.43-.36-.7-.76-.82-1.05-.12-.29-.13-.46-.13-.46Z" style="fill:#fff;"></path><path d="M309.85,285.37s-.31,.07-.85,.08c-.53,0-1.3-.01-2.12-.39-.83-.36-1.44-1.08-1.65-1.66-.12-.29-.16-.53-.17-.69,0-.16,0-.25,.02-.25,.03,0,0,.37,.24,.91,.23,.54,.8,1.2,1.6,1.55,.78,.36,1.53,.4,2.06,.42,.53,.01,.86,0,.86,.03Z" style="fill:#fff;"></path><path d="M295.79,292.45s.04-.01,.12-.01c.08,0,.2,0,.36,0,.16,0,.35,.01,.58,.11,.23,.09,.46,.28,.68,.5,.46,.44,.91,1.06,1.44,1.69,.54,.63,1.18,1.28,1.89,1.91,1.43,1.25,2.84,2.19,3.86,2.87,.44,.29,.84,.55,1.21,.8,.29,.19,.44,.3,.44,.31,0,0-.17-.08-.46-.25-.29-.17-.71-.43-1.23-.75-1.03-.65-2.46-1.58-3.9-2.84-.72-.63-1.36-1.29-1.9-1.93-.54-.64-.97-1.26-1.41-1.7-.42-.48-.88-.62-1.19-.62-.31-.02-.48-.03-.49-.04Z" style="fill:#fff;"></path></g><g><rect x="468.86" y="166.73" width="8.59" height="25.12" rx=".61" ry=".61" transform="translate(-22.22 282.35) rotate(-32.51)" style="fill:#e0e0e0;"></rect><path d="M475.95,191.67s.04,.05,.12,.12c.08,.07,.24,.15,.45,.13,.21-.02,.42-.22,.69-.39,.27-.18,.59-.38,.93-.61,.71-.46,1.57-1.02,2.57-1.67,.5-.32,1.04-.67,1.6-1.04,.14-.09,.29-.18,.43-.28,.15-.1,.29-.17,.36-.3,.07-.13,.08-.29,.03-.43-.06-.13-.19-.3-.28-.45-3.25-5.08-7.72-12.05-12.65-19.76-.11-.18-.36-.26-.55-.17-.2,.11-.47,.29-.7,.44-.48,.3-.95,.61-1.42,.91-.94,.6-1.87,1.19-2.78,1.77-.46,.29-.91,.58-1.36,.86-.19,.1-.27,.31-.22,.5,.01,.05,.03,.09,.06,.13l.1,.17,.21,.33c.56,.88,1.1,1.74,1.63,2.57,2.12,3.35,4.03,6.37,5.64,8.92,1.58,2.53,2.87,4.58,3.78,6.03,.43,.7,.77,1.25,1.01,1.65l.26,.43c.06,.1,.08,.15,.08,.15,0,0-.04-.04-.11-.14l-.28-.42c-.26-.39-.61-.93-1.07-1.61-.93-1.43-2.24-3.47-3.87-5.97-1.63-2.53-3.56-5.54-5.7-8.88-.54-.84-1.08-1.69-1.64-2.57l-.21-.33-.11-.17c-.04-.07-.08-.15-.1-.23-.09-.32,.08-.7,.36-.85,.45-.29,.9-.57,1.35-.86,.91-.58,1.84-1.17,2.78-1.77,.47-.3,.94-.6,1.42-.91,.25-.15,.45-.3,.75-.46,.34-.15,.76-.01,.96,.3,4.9,7.73,9.34,14.72,12.57,19.81,.1,.17,.2,.29,.3,.5,.08,.2,.06,.44-.05,.62-.11,.2-.3,.29-.44,.37-.15,.09-.29,.18-.44,.27-.57,.36-1.11,.7-1.62,1.02-1.01,.63-1.88,1.17-2.6,1.62-.35,.22-.67,.41-.95,.59-.28,.15-.49,.35-.74,.37-.24,.02-.4-.09-.48-.17-.08-.08-.1-.14-.1-.14Z" style="fill:#263238;"></path></g><path d="M471.66,169.27c.05,.08-1.47,1.18-3.39,2.46-1.92,1.28-3.52,2.26-3.57,2.18-.05-.08,1.47-1.18,3.39-2.46,1.92-1.28,3.52-2.26,3.57-2.18Z" style="fill:#263238;"></path><path d="M476.8,176.8c.05,.08-1.51,1.22-3.44,2.64-1.92,1.42-3.48,2.57-3.54,2.5-.06-.07,1.41-1.35,3.34-2.77,1.93-1.42,3.58-2.45,3.63-2.37Z" style="fill:#263238;"></path><path d="M481.95,185.19c.05,.08-1.51,1.22-3.44,2.64-1.92,1.42-3.48,2.57-3.54,2.5-.06-.07,1.41-1.35,3.34-2.77,1.93-1.42,3.58-2.45,3.63-2.37Z" style="fill:#263238;"></path></g><g><path d="M376.48,229.12s-1.06-4.48-2.53-5.31c-.67-.38-1.57,.99-1.36,2.17,.21,1.18,.76,5.3,.76,5.3l3.12-2.16Z" style="fill:#ffbf9d;"></path><g><path d="M354.19,256.84s1.31-4.56,1.64-5.28c.33-.71-.85-4.26-.35-5.12,.5-.86-.34-2.2-1.89-1.26-1.55,.94-2.38,3.81-1.69,5.61,0,0-4.52-4.81-5.36-4.6-.84,.2-1.41,.72-1.48,1.75,0,0-2.19-1.44-2.88,1.46,0,0-1.63-.43-1.87,2.23,0,0-1.16-.3-1.22,1.66-.06,1.95-.42,3.94,1.16,4.83,1.58,.89,9.06,5.99,9.06,5.99l7.38,5.81,8.93-5.62-11.44-7.46Z" style="fill:#ffbf9d;"></path><path d="M347.1,251.36c.08-.08-.46-.8-1.06-1.73-.6-.93-1.04-1.72-1.15-1.68-.1,.04,.19,.93,.82,1.89,.62,.96,1.31,1.59,1.39,1.52Z" style="fill:#ff9a6c;"></path><path d="M343.64,253.77c.1-.04-.13-1.01-.53-2.17-.39-1.16-.8-2.08-.9-2.04-.1,.04,.13,1.01,.53,2.17,.39,1.16,.8,2.08,.9,2.04Z" style="fill:#ff9a6c;"></path><path d="M341.19,254.97c.11-.02,.05-.81-.14-1.75-.18-.95-.42-1.7-.53-1.68-.11,.02-.05,.81,.14,1.75,.18,.95,.42,1.7,.53,1.68Z" style="fill:#ff9a6c;"></path><path d="M348.61,252.83c.11,.02,.29-.42,.79-.67,.48-.27,.95-.19,.99-.29,.02-.05-.09-.15-.31-.2-.22-.05-.56-.03-.87,.14-.31,.17-.51,.43-.59,.65-.08,.22-.05,.36,0,.37Z" style="fill:#ff9a6c;"></path><path d="M346.01,254.77c.1,.04,.36-.34,.84-.57,.47-.24,.93-.21,.96-.32,.05-.1-.51-.34-1.13-.03-.62,.3-.77,.9-.66,.92Z" style="fill:#ff9a6c;"></path><path d="M342.73,256.78c.11,.02,.28-.41,.73-.69,.44-.3,.9-.29,.93-.4,.01-.05-.11-.13-.33-.16-.22-.02-.53,.03-.82,.22-.28,.19-.46,.45-.53,.66-.07,.21-.04,.35,.01,.36Z" style="fill:#ff9a6c;"></path></g><path d="M414.06,178.23c-2.67-.82-5.67-.52-8.11,.84-1.36-1.75-3.7-2.68-5.89-2.34-2.19,.33-4.14,1.92-4.92,4-2.33-.94-5.27,.06-6.54,2.22-1.27,2.16-.72,5.22,1.23,6.8-1.9,.79-3.4,2.49-3.95,4.48-.55,1.99-.13,4.22,1.1,5.87-2.04,.99-2.39,3.75-2.09,5.99,.3,2.24,.95,4.65-.06,6.68-.78,1.57-2.38,2.54-3.48,3.9-1.1,1.36-1.48,3.71,0,4.63-2.53,.34-4.48,3.04-4.02,5.55,.46,2.51,3.25,4.33,5.73,3.75-.83,1.77-.47,3.94,.62,5.56,1.09,1.62,2.82,2.73,4.65,3.39,5.28,1.91,11.69,.11,15.19-4.28l16.74-51.76c-1.25-2.5-3.55-4.44-6.22-5.27Z" style="fill:#263238;"></path><g><path d="M379.53,436.99l1.58,16.44s-17.92,6.69-18.11,10.01l33.87,.09-.02-2.48-1.42-8.46-2.09-16.43-13.81,.82Z" style="fill:#455a64;"></path><path d="M391.31,450.88c.67,.18,1.14,.93,.98,1.61-.15,.68-.92,1.16-1.59,.99-.67-.17-1.26-1.06-1.03-1.71,.23-.66,1.15-1.17,1.77-.84" style="fill:#e0e0e0;"></path><path d="M396.87,463.52l-.02-2.48-32.49,.62s-1.54,.68-1.36,1.76l33.87,.09Z" style="fill:#263238;"></path><path d="M380.55,453.25c0,.17,.85,.24,1.69,.79,.85,.52,1.28,1.25,1.44,1.19,.16-.03-.1-1.04-1.12-1.68-1.02-.65-2.04-.44-2-.29Z" style="fill:#263238;"></path><path d="M376.92,454.76c-.04,.16,.7,.45,1.27,1.16,.6,.7,.74,1.47,.91,1.46,.16,.03,.27-.97-.46-1.84-.73-.88-1.72-.95-1.73-.79Z" style="fill:#263238;"></path><path d="M374.86,459.12c.15,.04,.39-.81-.05-1.74-.43-.93-1.23-1.29-1.3-1.15-.1,.14,.42,.64,.77,1.4,.36,.76,.42,1.47,.58,1.49Z" style="fill:#263238;"></path><path d="M379.35,449.3c.07,.15,.85-.08,1.8-.02,.96,.04,1.7,.36,1.79,.22,.1-.12-.63-.75-1.76-.81-1.13-.07-1.92,.47-1.84,.61Z" style="fill:#263238;"></path></g><g><path d="M421.16,437.45l1.45,16.16s-17.64,6.47-17.85,9.72l33.28,.29v-2.43l-1.35-8.32-1.96-16.15-13.57,.73Z" style="fill:#455a64;"></path><path d="M432.64,451.17c.66,.18,1.11,.93,.96,1.59-.16,.67-.91,1.13-1.57,.96-.66-.17-1.23-1.05-1-1.69,.23-.64,1.14-1.14,1.74-.82" style="fill:#e0e0e0;"></path><path d="M438.03,463.63v-2.43l-31.93,.42s-1.52,.65-1.35,1.72l33.28,.29Z" style="fill:#263238;"></path><path d="M422.06,453.44c0,.17,.84,.24,1.65,.78,.83,.52,1.25,1.24,1.4,1.17,.15-.03-.09-1.03-1.09-1.66-.99-.64-2-.45-1.96-.29Z" style="fill:#263238;"></path><path d="M418.48,454.9c-.04,.16,.68,.45,1.24,1.15,.58,.69,.72,1.45,.89,1.44,.16,.03,.27-.95-.44-1.81-.71-.87-1.69-.94-1.69-.78Z" style="fill:#263238;"></path><path d="M416.44,459.17c.15,.04,.39-.79-.04-1.71-.42-.92-1.2-1.28-1.27-1.14-.09,.14,.41,.63,.75,1.38,.35,.75,.4,1.45,.56,1.46Z" style="fill:#263238;"></path><path d="M420.9,449.55c.07,.15,.83-.07,1.77,0,.94,.05,1.67,.37,1.76,.22,.1-.12-.62-.74-1.72-.8-1.11-.07-1.89,.45-1.81,.59Z" style="fill:#263238;"></path></g><g><path d="M378.8,294.03s-8.03,23.25-8.31,40.55c-.28,17.3-.55,44.81,3.05,75.15,3.6,30.34,5.26,42.54,5.26,42.54h18.27s1.94-19,1.66-36.01c-.28-17.01-1.61-22.4,.03-41.12,1.63-18.72,4.22-29.96,6.94-35.63,0,0,7.54-8.97,8.1-21.26,.55-12.3-3.8-22.87-3.8-22.87l-31.2-1.34Z" style="fill:#263238;"></path><path d="M395.04,326.65c.3,.93,5.73,39.06,9.68,55.87,3.96,16.82,8.36,21.27,9.13,34.94,.89,15.73,5.21,34.8,5.21,34.8h19.46s-2.74-29.08-5.47-51.81c-2.74-22.73-6.69-50.76-6.08-59.17,.61-8.41,2.13-18.79,0-30.57-2.13-11.78-6.73-14.89-6.73-14.89l-16.51-.75-8.69,31.57Z" style="fill:#263238;"></path><path d="M413.35,304.85s.12,.2,.3,.59c.21,.39,.41,1,.66,1.79,.45,1.6,.75,4.01,.64,6.97-.09,2.96-.59,6.47-1.6,10.26-.51,1.89-1.19,3.85-2.12,5.77-.93,1.93-2.23,3.75-3.52,5.58-2.64,3.64-3.95,7.79-4.94,11.54-.96,3.77-1.48,7.25-1.85,10.17-.36,2.93-.57,5.3-.74,6.95-.08,.79-.14,1.42-.19,1.89-.05,.43-.08,.66-.09,.66-.01,0,0-.23,.01-.66,.03-.47,.07-1.1,.11-1.9,.11-1.65,.28-4.03,.61-6.97,.33-2.93,.82-6.43,1.77-10.23,.48-1.9,1.07-3.87,1.84-5.86,.39-.99,.84-1.99,1.36-2.97,.53-.97,1.13-1.92,1.77-2.85,1.3-1.85,2.57-3.63,3.49-5.52,.93-1.89,1.6-3.82,2.12-5.69,1.02-3.75,1.54-7.24,1.67-10.17,.14-2.94-.11-5.32-.51-6.92-.23-.79-.4-1.4-.58-1.8-.16-.4-.24-.62-.23-.62Z" style="fill:#455a64;"></path></g><path d="M374.24,230.68s-3.5-2.23-4.54-1.79c-1.05,.44-1.57,1.4-1.57,1.4,0,0-2.13-.41-1.95,1.94,0,0-1.94,0-1.82,2.29,0,0-1.36-.31-1.07,1.62,.29,1.93,2.37,6.09,2.91,6.7,1.13,1.27,1.82-.25,1.62-.95-.2-.7-1.32-4.56-1.32-4.56,0,0,2.16,5.63,3.41,5.01,.71-.35,.72-1.11,.21-2.74-.36-1.13-.98-3.34-.98-3.34l1.87,3.58c.35,.67,1.34,.63,1.61-.07,.1-.25,.13-.56,.06-.96-.28-1.64-1.17-3.73-1.17-3.73l1.62,2.39c.37,.54,1.13,.65,1.62,.23,.31-.27,.53-.64,.39-1.14-.33-1.23-2.53-4.78-2.53-4.78l1.63-1.1Z" style="fill:#ffbf9d;"></path><path d="M422.03,192.57l.22-2.79-16.6-4.2c-5.15-.86-11.06,3.99-11.7,9.17-.71,5.75-1.35,12.8-.93,17.15,.85,8.75,7.43,10.25,7.43,10.25l-.48,8.6,19.14,1.39,2.91-39.57Z" style="fill:#ffbf9d;"></path><path d="M395.98,202.99c-.06,.59,.39,1.12,1,1.19,.61,.07,1.15-.35,1.2-.93,.06-.59-.39-1.12-1-1.19-.61-.07-1.15,.35-1.21,.93Z" style="fill:#263238;"></path><path d="M395.56,198.53c.13,.15,1.01-.42,2.2-.34,1.19,.06,2.04,.73,2.17,.59,.07-.06-.06-.33-.42-.63-.36-.3-.98-.61-1.73-.65-.74-.04-1.39,.2-1.76,.45-.38,.26-.52,.51-.46,.58Z" style="fill:#263238;"></path><path d="M406.46,203.64c-.06,.59,.39,1.12,1,1.19,.61,.07,1.15-.35,1.21-.93,.06-.59-.39-1.12-1-1.19-.61-.07-1.15,.35-1.21,.93Z" style="fill:#263238;"></path><path d="M407.3,199.46c.13,.15,1.01-.42,2.2-.34,1.19,.06,2.04,.73,2.17,.59,.07-.06-.06-.33-.42-.63-.36-.3-.98-.61-1.73-.65-.74-.04-1.39,.2-1.76,.45-.38,.26-.52,.51-.46,.58Z" style="fill:#263238;"></path><path d="M402.43,208.07c0-.07-.73-.24-1.92-.47-.3-.05-.59-.13-.63-.34-.06-.22,.09-.55,.26-.89,.33-.72,.68-1.48,1.04-2.27,1.45-3.23,2.52-5.9,2.39-5.96-.13-.06-1.41,2.52-2.87,5.75-.35,.8-.69,1.56-1.01,2.29-.14,.34-.36,.72-.23,1.19,.07,.23,.28,.41,.48,.48,.19,.07,.36,.09,.51,.1,1.21,.14,1.96,.19,1.97,.12Z" style="fill:#263238;"></path><path d="M400.45,222.17s6.1,.73,12.08-2.4c0,0-3.29,5.89-12.21,4.56l.12-2.16Z" style="fill:#ff9a6c;"></path><path d="M407.57,195.34c.12,.33,1.31,.17,2.72,.34,1.41,.14,2.54,.55,2.73,.26,.08-.14-.11-.45-.57-.76-.45-.31-1.18-.61-2.02-.71-.84-.09-1.62,.04-2.13,.25-.52,.21-.78,.46-.72,.62Z" style="fill:#263238;"></path><path d="M395.85,195.57c.19,.29,1.03,.06,2.02,.12,.99,.02,1.82,.31,2.03,.04,.09-.13-.02-.41-.37-.7-.34-.28-.93-.53-1.61-.56-.68-.03-1.29,.18-1.65,.43-.37,.25-.5,.53-.42,.67Z" style="fill:#263238;"></path><path d="M393.98,188.51c1.95-2.56,4.79-4.43,7.91-5.22l14.03,1.76,1.19-.02c.26-.88,1.75-1.35,1.75-1.35,1.32-1.01,5.88-1.07,9.07,2.26,1.15,1.2,1.96,4.22,1.99,5.88,0,.63-.66,1.49-.14,1.84,.18,.12,1.7,.09,1.91,.14,3.57,.78,5.8,3.94,5.15,8.67-.03,.24-.12,.48-.08,.71,.06,.37,.36,.65,.62,.93,1.7,1.8,2.11,4.69,.98,6.89-.35,.68-.83,1.31-.95,2.07-.22,1.35,.77,2.55,1.53,3.68,2.29,3.4,2.78,8.33,.09,11.43-.65,.75-1.49,1.42-1.74,2.39-.12,.47-.08,.97-.08,1.45,.02,2.47-1.28,5.23-3.7,5.75-1.34,.29-2.97-.09-3.92,.9-.42,.43-.59,1.03-.85,1.56-1.01,2.04-3.59,3.15-5.77,2.48-2.18-.67-2.9-9.5-2.58-11.76-2.64-.96-4.59-1.13-4.46-3.93,0,0,.41-4.82-.37-7.17-.78-2.35,.79-7.35,1.68-9.78,.89-2.43-.17-8.08-.41-10.33-.04-.39,.03-1.07,.19-1.92h0c.1-.55,.23-1.17,.38-1.83,.05-.61,.56-3.89,.55-4.47-.03-2.12-2.67-.99-4.69-.31-.49,.16-1,.26-1.51,.27-1.66,.05-3.32-.74-4.33-2.05-1.9,2.03-4.97,2.87-7.64,2.09-1.08,1.51-2.18,3.04-3.63,4.22-1.44,1.18-3.29,1.97-5.14,1.77-.06-3.22,1-6.45,2.96-9Z" style="fill:#263238;"></path><path d="M403.29,210.97c.39-.58,1.12-.92,1.85-.88,.51,.03,1.04,.25,1.37,.65,.33,.4,.42,.98,.16,1.39-.29,.46-.95,.6-1.52,.47-.57-.13-1.07-.48-1.54-.82-.13-.1-.27-.19-.35-.33-.09-.14-.11-.32-.02-.44" style="fill:#ff9a6c;"></path><path d="M406.14,208.81c-.19,0-.13,1.27-1.17,2.23-1.04,.96-2.41,.89-2.41,1.06-.01,.08,.31,.23,.89,.22,.56,0,1.37-.23,2.01-.82,.64-.59,.89-1.34,.9-1.86,.02-.53-.14-.84-.22-.83Z" style="fill:#263238;"></path><g><path d="M431.66,232.56l-31.55-4.42s-10.98,14.92-14.44,32.02c-3.46,17.1-7.4,34.18-7.4,34.18l30.75,3.79c3.2,.39,6.44,.35,9.63-.13l3.2-.48-2.63-10.86c4.39-10.97,7.6-20.35,9.51-28.09,4.13-16.8,2.93-26.01,2.93-26.01Z" style="fill:#455a64;"></path><path d="M356.33,256.16l13.98,9.46s8.99-15.81,11.54-21.46c2.56-5.66,6.74-12.81,11.19-14.93,4.45-2.12,11.62-.48,11.62-.48l-4.69,18.86-7.43,16.65s-8.32,16.65-13.25,19.99c-4.93,3.34-10.88,1.31-13.68-.6-2.8-1.91-17.05-17.6-17.05-17.6l7.77-9.88Z" style="fill:#455a64;"></path><path d="M371.82,274.31c-.11,.02-.56-1.81-1.01-4.1-.45-2.28-.73-4.15-.62-4.17,.11-.02,.56,1.81,1.01,4.1,.45,2.28,.73,4.15,.62,4.17Z" style="fill:#263238;"></path><g style="opacity:.3;"><path d="M389.65,269.14c3.18-1.38,6.39-4.11,7.92-7.22,1.52-3.11,2.14-7.73,1.28-11.08-2.86,5.71-6.42,13.37-9.19,18.3Z"></path></g><g style="opacity:.3;"><path d="M430.59,236.34l-20.8-1.86c-.76,1.75,.36,4.05,2.2,4.53-1.12,1.96-1.15,4.5-.09,6.49,1.06,1.99,3.18,3.38,5.43,3.55,.56,.04,1.13,.02,1.66,.21,1.15,.42,1.7,1.68,2.4,2.69,.91,1.33,2.29,2.38,3.88,2.69,1.58,.31,3.35-.2,4.38-1.45,1.02-1.24,1.19-2.95,1.27-4.56,.2-4.1,.1-8.22-.32-12.3Z"></path></g><path d="M418.72,287.15s-.78,.32-2.09,.6c-1.31,.29-3.15,.56-5.21,.65-2.05,.08-3.91-.06-5.24-.24-1.33-.18-2.14-.39-2.13-.44,.01-.06,.83,.04,2.16,.15,1.33,.11,3.17,.2,5.19,.12,2.03-.08,3.85-.31,5.17-.52,1.32-.21,2.13-.38,2.14-.32Z" style="fill:#263238;"></path><path d="M399.05,250.32s-.05,.18-.18,.52c-.12,.34-.35,.82-.62,1.45-.57,1.25-1.42,3.04-2.5,5.24-2.17,4.39-5.23,10.43-8.73,17.04-.89,1.64-1.71,3.28-2.68,4.77-.97,1.49-2.04,2.84-3.26,3.94-1.21,1.11-2.56,1.95-3.93,2.45-1.38,.51-2.76,.65-4,.59-2.49-.16-4.36-.99-5.59-1.56-.62-.3-1.08-.56-1.4-.74-.31-.19-.47-.29-.46-.3,0-.01,.18,.07,.5,.23,.32,.16,.8,.39,1.42,.67,1.25,.53,3.11,1.3,5.54,1.42,1.21,.05,2.54-.11,3.87-.61,1.33-.5,2.63-1.32,3.8-2.41,1.18-1.08,2.24-2.41,3.18-3.88,.94-1.47,1.76-3.11,2.66-4.75,3.5-6.6,6.6-12.62,8.83-16.98,1.09-2.16,1.98-3.91,2.61-5.18,.3-.62,.54-1.09,.69-1.42,.15-.33,.24-.5,.25-.49Z" style="fill:#263238;"></path></g><path d="M435.37,223.52l-17.75-19.75c.65,5.01-1.24,10-3.51,14.52-1.29,2.57-2.73,5.63-1.38,8.16-1.11,1.24-2.23,2.5-2.93,4-.7,1.51-.92,3.32-.19,4.81,.73,1.49,2.58,2.47,4.13,1.87-.73,2.01-.13,4.45,1.47,5.88,1.59,1.43,4.08,1.78,6,.84,.48,2.04,1.59,3.99,3.32,5.17,1.73,1.18,4.14,1.45,5.94,.39s2.72-3.57,1.75-5.42c3.91-.86,6.34-5.07,6.46-9.07,.12-4-1.56-7.81-3.32-11.4Z" style="fill:#263238;"></path><path d="M398.66,190.95s-.09,.05-.29,.12c-.2,.05-.51,.11-.9,.06-.77-.07-1.97-.57-2.69-1.85-.36-.62-.51-1.45-.37-2.29,.14-.84,.57-1.68,1.22-2.37,.64-.69,1.54-1.23,2.55-1.46,1-.24,2.09-.22,3.15,.03,.61,.15,1.2,.36,1.73,.61l-.27,.11c.75-1.83,2.21-3.16,3.72-3.83,1.53-.7,3.09-.71,4.29-.45,1.21,.26,2.09,.76,2.63,1.16,.27,.2,.47,.37,.59,.5,.12,.13,.19,.2,.18,.21-.02,.03-.29-.23-.85-.58-.56-.35-1.43-.8-2.6-1.02-1.16-.22-2.65-.17-4.08,.51-1.43,.66-2.8,1.94-3.49,3.66l-.08,.2-.19-.09c-.51-.24-1.06-.44-1.65-.58-1-.23-2.03-.26-2.96-.04-.94,.21-1.76,.7-2.37,1.33-.61,.63-1.01,1.4-1.16,2.17-.14,.77-.03,1.51,.29,2.1,.63,1.19,1.73,1.72,2.45,1.83,.75,.13,1.17-.08,1.18-.02Z" style="fill:#455a64;"></path><path d="M436.29,203.37s.15-.37,.34-1.05c.18-.68,.36-1.71,.16-2.96-.19-1.24-.8-2.72-2.08-3.83-1.25-1.11-3.12-1.86-5.08-1.65l-.3,.03,.08-.29c.17-.57,.27-1.19,.31-1.82,.11-2.19-.69-4.29-1.93-5.72-1.23-1.47-2.88-2.22-4.27-2.55-1.41-.33-2.61-.24-3.41-.11-.8,.14-1.23,.31-1.24,.27,0-.01,.1-.06,.3-.14,.2-.09,.51-.19,.91-.28,.8-.19,2.03-.33,3.51-.02,1.45,.3,3.18,1.06,4.49,2.59,1.31,1.49,2.16,3.68,2.05,5.98-.03,.67-.15,1.32-.32,1.92l-.21-.26c2.1-.21,4.06,.6,5.36,1.79,1.34,1.19,1.94,2.76,2.11,4.06,.17,1.31-.05,2.37-.28,3.05-.12,.34-.23,.6-.32,.76-.09,.17-.14,.25-.15,.24Z" style="fill:#455a64;"></path><path d="M419.34,237.2s-.09-.04-.25-.15c-.16-.11-.37-.29-.63-.54-.51-.51-1.17-1.36-1.63-2.58-.45-1.21-.66-2.84-.16-4.52,.5-1.66,1.73-3.3,3.49-4.28,.69-.39,1.44-.66,2.18-.8l-.11,.33c-1.18-1.32-1.57-3.06-1.36-4.51,.2-1.48,1.03-2.62,1.85-3.31,.84-.7,1.68-1.01,2.26-1.14,.29-.07,.52-.09,.67-.1,.16,0,.24,0,.24,0,0,.03-.32,.06-.87,.22-.55,.17-1.34,.5-2.12,1.2-.77,.68-1.51,1.77-1.68,3.16-.18,1.36,.21,2.99,1.3,4.2l.24,.26-.35,.07c-.69,.13-1.4,.39-2.05,.76-1.67,.93-2.84,2.47-3.33,4.03-.49,1.58-.33,3.13,.07,4.31,.4,1.19,1.01,2.04,1.47,2.57,.47,.53,.79,.77,.76,.8Z" style="fill:#455a64;"></path><path d="M419.05,193.74l-.55-2.5c-1.88,3.57-2.52,7.78-1.78,11.75,.34,1.84,.96,3.83,.16,5.52-.55,1.16-1.66,1.95-2.31,3.06-.81,1.4-.21,5.11-.42,5.83-.47,1.66-2.08,2.72-2.46,4.73-.38,2.01,.1,4.43,1.9,5.39,3.39-5.59,6.86-11.41,7.66-17.9,.66-5.35-.56-10.75-2.2-15.88Z" style="fill:#263238;"></path><path d="M429.33,207.15s-.1,.02-.29,.02c-.19,0-.47-.03-.82-.09-.7-.12-1.77-.39-2.78-1.25-.49-.43-.95-1.03-1.21-1.76-.27-.73-.33-1.64,.04-2.47,.36-.81,1.11-1.54,2.09-1.74,.49-.09,1.02-.06,1.49,.21,.47,.26,.82,.82,.72,1.41-.05,.29-.22,.56-.46,.73-.24,.17-.52,.23-.78,.25-.52,.02-1.02-.12-1.45-.35-.84-.43-1.56-1.02-2.12-1.68-1.14-1.31-1.63-2.89-1.68-4.18-.06-1.31,.25-2.34,.53-3,.14-.33,.28-.58,.38-.74,.1-.16,.16-.24,.18-.23,.03,.02-.17,.36-.41,1.02-.23,.66-.49,1.67-.4,2.92,.08,1.24,.58,2.72,1.67,3.95,.54,.62,1.22,1.17,2.02,1.57,.38,.2,.82,.32,1.25,.3,.43,0,.8-.25,.86-.64,.06-.39-.17-.8-.53-1-.36-.21-.81-.25-1.22-.17-.83,.16-1.5,.8-1.83,1.51-.34,.72-.3,1.53-.06,2.2,.23,.68,.64,1.24,1.09,1.66,.92,.84,1.94,1.14,2.62,1.31,.69,.16,1.08,.19,1.08,.22Z" style="fill:#455a64;"></path><path d="M437.03,213.61c-.05-.03,.31-.6,.77-1.55,.46-.94,1.03-2.32,1.07-3.92,.03-1.59-.61-2.97-1.29-3.75-.68-.8-1.32-1.04-1.28-1.11,0-.02,.17,.02,.45,.15,.28,.13,.65,.38,1.04,.77,.78,.77,1.51,2.24,1.48,3.94-.04,1.69-.68,3.12-1.22,4.04-.54,.94-.98,1.44-1.02,1.41Z" style="fill:#455a64;"></path></g></g></g><g id="freepik--Character_1--inject-144"><g><g><g><g><g><path d="M105.1,437.56l-.66,17.41s17.47,6.52,17.66,9.75l-33.8-.07-.08-27.16,16.88,.08Z" style="fill:#263238;"></path><path d="M93.99,453.48c-.65,.18-1.11,.91-.96,1.57,.15,.66,.89,1.13,1.55,.96,.66-.17,1.23-1.03,1.01-1.67-.22-.64-1.13-1.14-1.72-.82" style="fill:#e0e0e0;"></path><path d="M88.3,464.65l.1-2.74,32.37,1.09s1.5,.66,1.33,1.72l-33.8-.07Z" style="fill:#455a64;"></path><path d="M104.98,454.8c0,.17-.83,.24-1.64,.77-.83,.51-1.25,1.22-1.4,1.16-.15-.03,.1-1.02,1.09-1.64,.99-.63,1.99-.43,1.95-.28Z" style="fill:#fff;"></path><path d="M108.52,456.27c.04,.16-.68,.44-1.24,1.14-.58,.68-.73,1.43-.89,1.43-.15,.03-.27-.94,.45-1.79,.71-.86,1.68-.93,1.68-.77Z" style="fill:#fff;"></path><path d="M110.53,460.52c-.15,.03-.38-.79,.05-1.69,.42-.91,1.2-1.26,1.27-1.12,.09,.14-.41,.62-.75,1.37-.36,.74-.4,1.43-.57,1.45Z" style="fill:#fff;"></path><path d="M104.69,450.82c-.07,.15-.83-.08-1.76-.02-.93,.04-1.66,.35-1.75,.21-.1-.12,.61-.73,1.71-.79,1.1-.07,1.87,.46,1.79,.59Z" style="fill:#fff;"></path></g><g><path d="M65.91,436.33l-1.83,20.99,3.34,17.02c.24,1.23-.61,2.4-1.85,2.56h0c-.69,.09-1.38-.16-1.86-.68-3.01-3.28-14.03-15.42-13.81-16.95,.25-1.77,.46-22.27,.46-22.27l15.55-.68Z" style="fill:#263238;"></path><path d="M65.57,476.9l-15.58-19.05-.06,.89c-.05,.77,.17,1.53,.63,2.15,1.23,1.66,4.74,6.15,13.08,15.32,.48,.53,1.21,.79,1.92,.68h0Z" style="fill:#455a64;"></path><g style="opacity:.6;"><path d="M54.74,451.35c.5,.4,.62,1.21,.25,1.73-.38,.52-1.2,.65-1.71,.26-.51-.39-.69-1.35-.25-1.83,.43-.47,1.4-.57,1.81-.07" style="fill:#fff;"></path></g><path d="M61.35,467.41c.12,.07,.66-1.01,1.95-1.52,1.27-.55,2.42-.18,2.45-.31,.02-.05-.23-.23-.72-.33-.48-.1-1.2-.08-1.91,.21-.71,.29-1.23,.78-1.5,1.2-.27,.42-.33,.73-.27,.75Z" style="fill:#fff;"></path><path d="M62.67,470.32c.09,.1,.81-.54,1.92-.78,1.1-.27,2.03,0,2.07-.13,.07-.1-.92-.61-2.17-.32-1.26,.28-1.92,1.17-1.82,1.24Z" style="fill:#fff;"></path><path d="M58.8,463.62c.09,.11,1.19-.88,2.88-1.41,1.68-.55,3.15-.39,3.17-.53,.04-.11-1.5-.5-3.31,.09-1.81,.57-2.84,1.79-2.74,1.85Z" style="fill:#fff;"></path><path d="M58.82,457.19c.05,.13,1.24-.28,2.76-.24,1.52,.02,2.69,.48,2.74,.35,.06-.1-1.1-.79-2.73-.82-1.63-.04-2.83,.6-2.77,.7Z" style="fill:#fff;"></path><path d="M59.2,451.01c.06,.13,1.27-.5,2.86-.32,1.6,.14,2.66,.99,2.74,.88,.04-.04-.18-.32-.64-.63-.46-.31-1.2-.62-2.06-.71-.86-.08-1.64,.08-2.15,.29-.52,.21-.78,.45-.75,.49Z" style="fill:#fff;"></path><path d="M62.1,449.51s.09-.28,.08-.79c-.01-.51-.11-1.27-.5-2.12-.2-.41-.41-.92-.98-1.24-.28-.16-.72-.13-.99,.13-.26,.26-.36,.6-.39,.93-.06,1.34,1,2.7,2.49,2.99,1.5,.26,2.92-.51,3.59-1.63,.15-.29,.26-.65,.12-1.02-.14-.37-.56-.54-.86-.51-.63,.05-1.05,.39-1.43,.63-.76,.54-1.25,1.12-1.54,1.54-.29,.42-.39,.69-.37,.71,.07,.06,.6-1,2.09-1.98,.37-.22,.81-.51,1.26-.52,.22,0,.4,.09,.47,.27,.07,.17,0,.44-.12,.66-.57,.91-1.87,1.61-3.13,1.37-1.26-.23-2.19-1.43-2.15-2.51,.01-.26,.1-.51,.25-.66,.15-.14,.36-.17,.54-.08,.4,.19,.64,.65,.85,1.03,.79,1.6,.62,2.79,.71,2.78Z" style="fill:#fff;"></path></g><path d="M121.56,295.03s2.56,9.92,1.63,22.01c-.36,4.68-16.14,134.07-16.14,134.07h-21.31l5.99-121.61-1.74,.38s-11.63,51.87-12.58,60.26c-.85,7.55-10.66,62.38-10.66,62.38l-19.48,.22,6.22-72.53,7.24-69.6,2.72-20.26,58.11,4.67Z" style="fill:#263238;"></path></g><g><path d="M91.67,321.24s.04,.06,.14,.15c.1,.08,.27,.18,.52,.25,.48,.14,1.29,.07,2.02-.48,.77-.54,1.22-1.61,1.38-2.75,.15-1.16,.18-2.4,.26-3.72,.14-2.63,.25-5.02,.31-6.74,.06-1.73,.06-2.8,0-2.8-.06,0-.17,1.06-.3,2.78-.13,1.72-.28,4.1-.43,6.74-.09,1.31-.1,2.58-.23,3.69-.13,1.1-.53,2.07-1.18,2.57-.64,.52-1.36,.63-1.81,.55-.46-.07-.67-.27-.69-.23Z" style="fill:#455a64;"></path><path d="M61.23,309.01s.2,.11,.6,.22c.39,.11,.97,.22,1.7,.29,1.45,.14,3.53,0,5.62-.84,2.09-.84,3.69-2.18,4.64-3.28,.48-.55,.82-1.04,1.03-1.38,.21-.35,.3-.55,.28-.57-.06-.04-.53,.72-1.53,1.75-.98,1.03-2.56,2.28-4.58,3.09-2.02,.81-4.02,.99-5.44,.93-1.43-.05-2.3-.28-2.32-.21Z" style="fill:#455a64;"></path><path d="M113.78,303.32s0,.84,.32,2.14c.33,1.3,1.01,3.05,2.14,4.77,1.14,1.71,2.49,3.02,3.56,3.82,1.07,.81,1.83,1.16,1.85,1.13,.1-.11-2.85-1.79-5.07-5.18-2.27-3.36-2.67-6.72-2.81-6.68Z" style="fill:#455a64;"></path></g></g><g><g><path d="M111.02,165.44c1.93,.12,3.82-1.38,4.13-3.29s-.99-3.94-2.86-4.44c1.13-1.28,1.33-3.3,.47-4.77-.86-1.47-2.71-2.3-4.38-1.94-.16-1.68-1.24-3.24-2.76-3.97-1.52-.73-3.42-.6-4.82,.33-1.94-1.5-4.94-1.41-6.78,.21-1.65-.22-3.39,.74-4.08,2.26-.69,1.51-.28,3.46,.96,4.56" style="fill:#263238;"></path><g><g><path d="M93.37,151.49l.86-.04c8.7-.43,16.26,5.88,17.39,14.52,1.05,8.03,2.11,16.91,2.27,21.24,.33,8.96-8.55,10.8-8.55,10.8l1.29,10.72-21.77,.41-3.86-38.92c-1.26-9.26,3.07-17.71,12.36-18.72Z" style="fill:#ae7461;"></path><path d="M105.41,197.98s-5.7,.63-11.9-2.85c0,0,3.08,6.31,11.97,5.06l-.07-2.21Z" style="fill:#6f4439;"></path><path d="M109.45,174.22c.06,.67-.47,1.28-1.17,1.35-.7,.07-1.32-.41-1.38-1.09-.06-.67,.47-1.28,1.17-1.35,.7-.07,1.32,.41,1.38,1.09Z" style="fill:#263238;"></path><path d="M109.92,170.44c-.15,.17-1.15-.49-2.53-.42-1.38,.05-2.35,.81-2.51,.65-.08-.07,.07-.38,.49-.72,.42-.34,1.14-.69,2-.73,.86-.04,1.59,.24,2.02,.54,.44,.3,.6,.6,.52,.68Z" style="fill:#263238;"></path><path d="M96.72,174.57c.06,.67-.47,1.28-1.17,1.35-.7,.07-1.32-.41-1.38-1.09-.06-.67,.47-1.28,1.17-1.35,.7-.07,1.32,.41,1.38,1.09Z" style="fill:#263238;"></path><path d="M96.4,171.37c-.15,.17-1.16-.49-2.53-.42-1.37,.05-2.35,.81-2.51,.65-.08-.07,.07-.38,.49-.72,.42-.34,1.14-.69,2-.73,.86-.04,1.59,.24,2.02,.54,.44,.3,.6,.6,.52,.68Z" style="fill:#263238;"></path><path d="M101.9,181.32c-.01-.08,.84-.27,2.21-.51,.35-.05,.68-.14,.73-.38,.07-.26-.1-.63-.29-1.03-.37-.83-.76-1.71-1.17-2.62-1.63-3.74-2.83-6.82-2.68-6.88,.15-.06,1.6,2.91,3.23,6.65,.39,.92,.77,1.8,1.13,2.64,.15,.39,.4,.83,.25,1.37-.08,.27-.33,.47-.55,.54-.22,.08-.42,.09-.59,.11-1.39,.14-2.26,.19-2.27,.12Z" style="fill:#263238;"></path><path d="M97.33,166.01c-.16,.36-1.36,.04-2.82,.06-1.45,0-2.66,.33-2.82-.03-.07-.17,.18-.5,.69-.8,.5-.31,1.28-.56,2.16-.57,.87,0,1.64,.24,2.13,.54,.5,.3,.73,.62,.66,.79Z" style="fill:#263238;"></path><path d="M109.7,164.76c-.27,.33-1.43,.06-2.79,.11-1.37,.01-2.51,.34-2.79,.02-.12-.15,.04-.48,.53-.8,.48-.32,1.3-.6,2.24-.62,.94-.02,1.77,.22,2.26,.52,.5,.3,.67,.61,.55,.77Z" style="fill:#263238;"></path><path d="M110.56,161.9s-2.64-5.49-5.41-6.66c-3.35-1.42-4.58,2.24-7.75,1.52-3.16-.72-6.36-2.08-9.43,.49-3.36,2.81-1.63,4.58-1.65,8.57-.07,16.15-2.79,20.85-4,13.31-.13-.83-2.47-1.37-2.99-4.87-.67-4.53-1.12-10.05-.26-13.34,.72-2.77,2.18-4.73,4.86-6.94,4.23-3.49,10.27-3.86,14.39-3.66,4.12,.21,12.26,4.54,12.24,11.58Z" style="fill:#263238;"></path><path d="M82.88,178.85c-.13-1.38-1.37-2.41-2.74-2.21-1.66,.24-3.47,1.28-3.19,4.73,.5,6.11,6.53,4.35,6.53,4.17,0-.12-.36-4.13-.6-6.69Z" style="fill:#ae7461;"></path><path d="M81.96,183.35s-.1,.08-.27,.18c-.17,.09-.47,.17-.79,.08-.67-.18-1.29-1.16-1.41-2.26-.06-.55,.01-1.09,.17-1.55,.15-.46,.41-.8,.73-.88,.32-.1,.56,.07,.65,.24,.1,.16,.07,.29,.1,.3,.02,.01,.12-.11,.05-.36-.04-.12-.12-.26-.27-.36-.16-.11-.38-.15-.6-.11-.47,.07-.86,.54-1.03,1.04-.2,.5-.3,1.11-.23,1.73,.14,1.23,.86,2.33,1.77,2.51,.44,.08,.79-.08,.96-.24,.18-.17,.2-.31,.18-.32Z" style="fill:#6f4439;"></path></g><path d="M82.41,166.98c.82,.5,1.69,1.02,2.65,1.07,.96,.05,2.03-.56,2.15-1.51,.05-.43-.08-.92,.19-1.26,.31-.41,.94-.32,1.45-.29,1.79,.1,3.77-1.97,4.14-3.72,.49,.66,1.49,.81,2.16,.34,.67-.48,.9-.74,1.41-1.38s1.23-1.23,2.05-1.16c.46,.04,.89,.29,1.35,.23,.8-.11,1.15-1.07,1.23-1.88,.08-.8,.13-1.74,.79-2.21,.61-.43,1.44-.24,2.19-.17,.75,.07,1.69-.15,1.85-.88,.08-.38-.1-.78-.33-1.1-1.03-1.45-3.14-2.02-4.75-1.27-.7-1.99-2.67-3.47-4.78-3.59-2.11-.12-4.23,1.14-5.15,3.04-1.35-1.11-3.26-1.51-4.94-1.04-1.68,.47-3.1,1.81-3.68,3.46-1.51-.32-3.18,.34-4.06,1.61-.88,1.26-.93,3.06-.11,4.37-1.07,.68-1.96,1.82-1.92,3.09s1.34,2.47,2.54,2.08c-.44,1.01,.02,2.33,1.01,2.83,.98,.5,2.33,.11,2.89-.84" style="fill:#263238;"></path><path d="M101.46,153.56s0,.04,0,.11c0,.07,0,.19-.02,.33-.04,.29-.14,.71-.39,1.2-.25,.48-.65,1.05-1.29,1.51-.62,.47-1.48,.84-2.47,.84l.1-.14c.22,.51,.2,1.15-.04,1.7-.22,.56-.58,1.06-.97,1.56-.2,.24-.37,.51-.65,.74-.27,.21-.61,.35-.95,.41-.69,.12-1.48-.05-2.01-.61l.23-.08c-.1,1.22-.73,2.48-1.79,3.27-.56,.45-1.27,.74-1.98,.76-.71,.03-1.38-.15-2-.34l.16-.08c-.29,.78-.76,1.45-1.35,1.96-.58,.51-1.37,.83-2.1,.69-1.46-.23-2.48-1.39-2.73-2.51l.14,.06c-.7,.43-1.47,.5-2.09,.41-.63-.08-1.14-.33-1.5-.58-.36-.26-.59-.53-.72-.71-.12-.2-.18-.31-.17-.31,.03-.03,.23,.46,.95,.94,.36,.23,.85,.45,1.46,.52,.6,.07,1.33-.02,1.97-.42l.11-.07,.03,.13c.25,1.05,1.23,2.12,2.58,2.32,.67,.12,1.36-.16,1.91-.65,.55-.48,1-1.13,1.27-1.86l.04-.12,.12,.04c.61,.18,1.26,.35,1.92,.32,.66-.02,1.29-.28,1.83-.71,1-.75,1.6-1.93,1.69-3.09l.02-.29,.2,.21c.45,.48,1.15,.65,1.77,.54,.31-.05,.61-.17,.84-.35,.23-.18,.41-.45,.61-.69,.39-.49,.74-.97,.95-1.49,.22-.52,.24-1.07,.06-1.54l-.06-.14h.15c.94,.02,1.77-.32,2.37-.76,.62-.44,1.02-.97,1.28-1.44,.51-.95,.46-1.6,.51-1.59Z" style="fill:#455a64;"></path></g></g><path d="M101.84,186.05c-.05-.23-1.54,.16-2.93-.83-1.4-.99-1.65-2.63-1.86-2.58-.1,0-.2,.43-.04,1.1,.15,.66,.61,1.57,1.47,2.18,.85,.61,1.81,.71,2.43,.6,.64-.11,.96-.37,.93-.47Z" style="fill:#263238;"></path></g><g><g><path d="M122.43,300.07l1.77-1.89c-2.02-8.28-1.49-19.28-1.55-29.39,3.42,4.28,11.67,5.59,15.11-3.69,3.33-8.98,.82-23.82,.82-23.82,0,0,1.12,2.27-7.01-17.75-1.23-3.03-2.53-5.41-3.76-7.27-.1-.2-.19-.38-.28-.54-3.04-5.68-9.44-8.19-13.41-8.44-.6-.04-2.1,0-4.2,.12l-1.48-.48-1.7-5.05-4.06,4.48-19.37-9.16-1.86,7.16-13.79,6.08h0s-8.48,3.44-8.48,9.14l6.93,45.05-3.39,32.19s16.78,3.53,34.48,4.96c17.7,1.43,25.23-1.69,25.23-1.69Z" style="fill:#FF725E;"></path><path d="M83.31,197.19s2.17,.63,7.73,3.59c5.45,2.91,11.64,5.56,11.64,5.56l-.47,8.75-20.76-10.75" style="fill:#e0e0e0;"></path><polyline points="106.74 201.87 102.68 206.35 106.34 212.87 108.46 207.25" style="fill:#e0e0e0;"></polyline><g style="opacity:.3;"><path d="M102.76,207.32c.18,.13,1.31,10.82,1.31,10.82l-20.66-12.49,18.81,9.44,.55-7.78Z"></path></g></g><path d="M102.62,247.2c-.31-8.17,.98-29.03,.98-29.03l2.69-.43s5.03,20.27,6.91,45.11c.76,10.05,.76,21.7,.76,21.7l-5.41,11.61-5.98-11.54s.43-27.49,.05-37.42Z" style="fill:#FF725E;"></path><path d="M122.57,225.19c-.08,0-.14,10.67-.14,23.83s.06,23.83,.14,23.83,.14-10.67,.14-23.83-.06-23.83-.14-23.83Z" style="fill:#263238;"></path><path d="M102.49,206.27s.4,.69,1.05,1.78c.65,1.1,1.52,2.63,2.35,4.39,.07,.14,.13,.29,.2,.42l.13,.28,.13-.28c.8-1.67,1.37-3.23,1.72-4.37,.18-.57,.31-1.03,.39-1.35,.08-.32,.11-.5,.09-.51-.04-.01-.26,.68-.66,1.8-.4,1.12-1,2.65-1.8,4.31h.26l-.2-.42c-.83-1.77-1.73-3.31-2.43-4.38-.35-.54-.65-.96-.86-1.25-.22-.29-.34-.44-.36-.43Z" style="fill:#263238;"></path><path d="M81.45,204.35s.09,.07,.28,.17c.22,.11,.5,.26,.84,.44,.76,.39,1.81,.94,3.08,1.6,2.6,1.35,6.16,3.28,10.1,5.38,2.4,1.28,4.68,2.46,6.65,3.45l.18,.09v-.2c.03-2.57,.05-4.73,.06-6.29,0-.73,0-1.33,0-1.77,0-.41-.01-.63-.03-.63-.01,0-.03,.22-.05,.63-.02,.45-.04,1.04-.07,1.77-.04,1.56-.1,3.72-.17,6.29l.18-.11c-1.97-1.01-4.23-2.2-6.63-3.48-3.94-2.11-7.52-4-10.14-5.31-1.31-.66-2.38-1.17-3.12-1.52-.35-.16-.64-.29-.86-.39-.2-.09-.3-.13-.31-.12Z" style="fill:#263238;"></path><path d="M120.08,211.09s.28,.57,.7,1.51c.42,.93,.9,2.27,1.18,3.8,.28,1.53,.31,2.95,.25,3.97-.06,1.02-.17,1.65-.12,1.66,.02,0,.06-.15,.13-.43,.07-.28,.14-.7,.19-1.21,.11-1.03,.12-2.48-.17-4.04-.29-1.56-.81-2.91-1.28-3.84-.23-.46-.45-.83-.61-1.06-.16-.24-.26-.37-.27-.36Z" style="fill:#263238;"></path></g></g><g><g><polygon points="143.67 234.36 138.1 229.94 132.05 236.47 128.29 246.83 138.7 246.71 138.76 242.54 143.67 234.36" style="fill:#ae7461;"></polygon><g><path d="M130.68,163.05c1.11-12.14,5.89-24.06,14.46-33.96,10.56-12.19,25.24-19.54,41.32-20.7,16.09-1.15,31.66,4.03,43.86,14.59,25.17,21.8,27.91,60.01,6.11,85.18h0c-10.56,12.19-25.24,19.54-41.32,20.7-16.09,1.15-31.66-4.03-43.86-14.59-15.27-13.23-22.29-32.5-20.57-51.23Zm116.19,10.79c1.6-17.48-4.95-35.45-19.19-47.8-11.38-9.85-25.91-14.69-40.92-13.61-15.01,1.08-28.7,7.93-38.56,19.31-9.85,11.38-14.69,25.91-13.61,40.92,1.08,15.01,7.93,28.7,19.31,38.56,11.37,9.85,25.91,14.69,40.92,13.61,15.01-1.08,28.7-7.93,38.56-19.31,8-9.23,12.46-20.35,13.49-31.68Z" style="fill:#455a64;"></path><path d="M128.9,160.31c1.11-12.14,5.89-24.06,14.46-33.96,10.56-12.19,25.24-19.54,41.32-20.7,16.09-1.15,31.66,4.03,43.86,14.59,25.17,21.8,27.91,60.01,6.11,85.18h0c-10.56,12.19-25.24,19.54-41.32,20.7-16.09,1.15-31.66-4.03-43.86-14.59-15.27-13.23-22.29-32.5-20.57-51.23Zm116.19,10.79c1.6-17.48-4.95-35.45-19.19-47.8-11.38-9.85-25.91-14.69-40.92-13.61-15.01,1.08-28.7,7.93-38.56,19.31-9.85,11.38-14.69,25.91-13.61,40.92,1.08,15.01,7.93,28.7,19.31,38.56,11.37,9.85,25.91,14.69,40.92,13.61,15.01-1.08,28.7-7.93,38.56-19.31,8-9.23,12.46-20.35,13.49-31.68Z" style="fill:#263238;"></path></g><path d="M86.29,289.06l-1.82-1.43c-1.62-1.27-1.14-4.62,.24-6.36l64.16-75.33,8.54,6.69-64.08,75.24c-1.75,2.12-4.95,2.83-7.04,1.19Z" style="fill:#263238;"></path><g><path d="M138.4,224.66c.22-.45,.77-.51,1.14-.44,.37,.07,.69,.3,.99,.55,2.09,1.72,3.46,4.27,3.75,6.96,.12,1.15-.04,2.51-1.02,3.14l-1.24-.55c-.41-.43-1.57-1.09-1.77-1.65-.85-2.35,.76-1.84-1.19-5.85-.19-.39-1-1.46-.66-2.15Z" style="fill:#ae7461;"></path><path d="M139.04,228.05c-.39-.54-.95-1.35-1.45-1.69-.5-.35-1.07-.47-1.56-.26-.78,.34-.72,.94-.52,2.01,.2,1.07,.63,2.13,1.3,3.37,1.09,2.02,2.15,4.38,3.32,6.35l.51-.47c.44,.35,.99,.09,1.21-.4,.22-.49,.18-1.12,.1-1.72-.35-2.58-1.42-5.11-2.91-7.19Z" style="fill:#ae7461;"></path><path d="M138.28,234.39c-.81-1.39-2.01-2.83-3.24-3.88-.43-.37-.99-.7-1.55-.83-.56-.13-1.16,.38-1.38,.9-.2,.5,.08,1.04,.36,1.5,1.75,2.84,3.7,5.57,5.84,8.14l1.53-1.9c.63-1.48-.76-2.53-1.57-3.92Z" style="fill:#ae7461;"></path></g><g><path d="M92.33,259.46l3.62-.4,6.38-6.7,3.49-3.62c.29-.3,.66-.52,1.07-.63l3.73-1.03s.77,1.59-.86,2.72l-1.97,1.29-1.67,2.45,.29,.46s12.66,.63,13.54,1.5c.88,.87,.19,1.81-.14,2.02-.33,.21-.94,.19-.94,.19,0,0,.76,1.41-.93,2.81,0,0,1.57,1.67-.76,2.79,0,0-.55,1.46-1.88,2.03-1.34,.58-8.68,2.22-9.46,2.3-.78,.08-8.93,.95-8.93,.95l-3,2.35-1.58-11.46Z" style="fill:#ae7461;"></path><path d="M119.16,257.69c.02,.1-1.5,.48-3.43,.55-1.43,.06-3.37-.05-3.46-.15,0-.12,1.55-.19,3.45-.24,1.89-.07,3.42-.27,3.44-.15Z" style="fill:#6f4439;"></path><path d="M117.95,260.5c0,.06-.31,.13-.83,.26-.51,.12-1.22,.3-2.03,.43-.81,.14-1.55,.14-2.07,.17-.53,.02-.84,.06-.86,.01-.02-.05,.3-.2,.83-.29,.53-.11,1.26-.15,2.04-.28,.79-.13,1.51-.27,2.04-.32,.53-.05,.87-.03,.87,.02Z" style="fill:#6f4439;"></path><path d="M117.43,263.21c.02,.11-1.46,.47-3.31,.8-.93,.16-1.74,.32-2.26,.6-.53,.26-.75,.59-.8,.55-.04-.01,.11-.42,.66-.79,.54-.38,1.41-.59,2.33-.74,1.85-.34,3.36-.52,3.38-.42Z" style="fill:#6f4439;"></path></g></g><path d="M64.24,213.99s-5.03,1.47-7.72,13.15c-2.17,9.44-6.54,31.73-7.57,40.34-1.09,9.15,3.72,14.42,12.76,14.42,6.83,0,23.02-5.2,30.62-7.67,2.45-.8,4.2-1.18,4.2-1.18l-2.48-18.25-24.24,3.48,4.79-23.27s-2.45-20.29-10.36-21.03Z" style="fill:#FF725E;"></path><path d="M74.3,238.85c-.08,0-.08-1.44-.38-3.73-.14-1.15-.39-2.5-.75-3.98-.38-1.48-.87-3.08-1.52-4.71-.66-1.63-1.42-3.13-2.17-4.45-.77-1.32-1.52-2.47-2.21-3.39-1.37-1.86-2.37-2.89-2.31-2.95,.02-.02,.28,.22,.74,.69,.46,.46,1.09,1.16,1.81,2.08,.73,.91,1.52,2.05,2.32,3.37,.78,1.33,1.55,2.84,2.22,4.49,.66,1.65,1.15,3.28,1.51,4.78,.34,1.5,.56,2.88,.67,4.04,.11,1.16,.15,2.1,.13,2.75,0,.65-.03,1.01-.06,1.01Z" style="fill:#263238;"></path><path d="M141.86,233.76c-.14,.05-.83-1.97-2.07-4.24-.65-1.12-1.33-2.08-1.89-2.7-.28-.31-.54-.52-.74-.61-.2-.09-.33-.06-.34-.1-.01-.02,.12-.12,.39-.07,.26,.05,.58,.26,.91,.55,.66,.59,1.39,1.55,2.06,2.7,.65,1.16,1.07,2.28,1.35,3.1,.27,.82,.39,1.34,.34,1.36Z" style="fill:#6f4439;"></path><path d="M138.75,235.32c-.11,.06-.96-1.36-2.31-2.88-1.33-1.54-2.59-2.61-2.51-2.71,.07-.09,1.48,.85,2.84,2.43,1.38,1.56,2.09,3.12,1.98,3.17Z" style="fill:#6f4439;"></path><path d="M142.16,234.51s.22,.46-.03,1.2c-.13,.36-.37,.77-.78,1.09-.41,.32-.97,.52-1.57,.51-.21,0-.41-.03-.59-.08l.26-.14c-.2,.52-.62,.88-1.05,1.04-.44,.17-.87,.11-1.18-.01-.63-.26-.79-.69-.74-.7,.05-.04,.28,.28,.83,.42,.27,.07,.61,.08,.94-.07,.33-.14,.65-.44,.79-.83l.07-.19,.19,.05c.15,.04,.32,.06,.49,.06,.5,0,.97-.15,1.32-.4,.35-.25,.59-.58,.74-.88,.29-.62,.24-1.08,.31-1.08Z" style="fill:#6f4439;"></path></g><path d="M73.35,242.55s0,.1-.03,.29c-.04,.22-.09,.49-.16,.83-.16,.77-.38,1.82-.65,3.15-.6,2.78-1.45,6.71-2.5,11.52l-.22-.24c6.62-.97,15-2.19,24.23-3.54l.26-.04,.04,.26c.23,1.66,.47,3.42,.71,5.2,.62,4.57,1.21,8.98,1.76,13.05l.03,.22-.21,.06c-9.13,2.45-17.01,4.56-22.66,6.07-2.77,.72-5,1.3-6.58,1.71-.74,.18-1.32,.33-1.76,.44-.4,.09-.61,.14-.62,.12,0-.01,.2-.08,.59-.21,.44-.13,1.01-.3,1.74-.52,1.57-.44,3.78-1.07,6.54-1.85,5.64-1.56,13.5-3.73,22.61-6.25l-.18,.27c-.56-4.07-1.16-8.48-1.78-13.05-.24-1.78-.48-3.54-.7-5.2l.29,.22c-9.23,1.3-17.62,2.48-24.24,3.42l-.29,.04,.06-.28c1.11-4.8,2.02-8.71,2.67-11.48,.32-1.32,.57-2.37,.76-3.13,.09-.33,.16-.6,.21-.81,.05-.18,.08-.28,.09-.27Z" style="fill:#263238;"></path><path d="M61.51,267.95c-.06-.01,.02-.79,.42-1.98,.4-1.19,1.18-2.77,2.42-4.24,1.24-1.47,2.66-2.52,3.75-3.12,1.1-.6,1.85-.81,1.87-.76,.09,.15-2.84,1.32-5.23,4.22-2.43,2.86-3.07,5.95-3.23,5.89Z" style="fill:#263238;"></path><g style="opacity:.3;"><polygon points="64.49 286.32 64.98 281.65 90.05 275.01 85.87 279.92 64.49 286.32"></polygon></g><path d="M140.39,240.52c.12,.08-.61,1.34-1.62,2.82-1.01,1.47-1.93,2.6-2.05,2.52-.12-.08,.61-1.34,1.62-2.82,1.01-1.47,1.93-2.6,2.05-2.52Z" style="fill:#263238;"></path></g></g></svg>
