<svg xmlns="http://www.w3.org/2000/svg" width="186.987" height="70" viewBox="0 0 186.987 70"><defs><style>.a{fill:#3f3e3e;}.b{fill:#ff9324;}</style></defs><g transform="translate(-57.036 -23.81)"><g transform="translate(57.036 23.81)"><path class="a" d="M57.694,29.592l-.006-5.782L63.273,25.3a7.8,7.8,0,0,1,5.363,6.143H62.556v5.022A7.779,7.779,0,0,1,57.694,29.592Zm34.521,6.962a7.766,7.766,0,0,0,5.094-6.962l.006-5.782L91.731,25.3a7.8,7.8,0,0,0-5.363,6.143h5.848ZM64.38,33.4h5.748a6.041,6.041,0,0,1,6.041,6.041v5.612H70.422A6.041,6.041,0,0,1,64.38,39.01Zm2.349,5.7a3.627,3.627,0,0,0,3.491,3.62,3.078,3.078,0,0,1-.107-.769V39.064h2.953a3.078,3.078,0,0,1,.736.1,3.624,3.624,0,0,0-3.615-3.442H66.729Zm14.826,5.956H78.6V39.439A6.041,6.041,0,0,1,84.643,33.4h5.748V39.01a6.041,6.041,0,0,1-6.041,6.041Zm-.585-5.89a3.088,3.088,0,0,1,.736-.1h2.953v2.883a3.078,3.078,0,0,1-.107.769,3.627,3.627,0,0,0,3.491-3.62V35.72H84.585A3.625,3.625,0,0,0,80.97,39.162Zm-.769,8.35H74.571v1.33a2.815,2.815,0,1,0,5.629,0ZM70.165,55.274A23.355,23.355,0,0,0,59.942,62.53c5.177-.713,10.431,1.856,13.615,3.863,1.435-1.642,4.483-1.963,6.366-2.433.342-.085.688-.181,1.036-.283C79.515,60.24,76.389,55.785,70.165,55.274Zm37.258,11.633c-4.7-1.093-9.593,2.291-13.642,4.721,1.507,9.026,7.359,12.079,13.172,12.761a24.693,24.693,0,0,0,2.774-2.987C113.323,76.767,114.809,68.624,107.423,66.907Zm-34.4,3.271a19.692,19.692,0,0,0-15.984,6.947,21.18,21.18,0,0,0,8.987,11.849A28.018,28.018,0,0,0,69.628,91c-.848-10.773,3.723-15.216,6.825-16.968A6.866,6.866,0,0,1,73.02,70.179ZM90.6,73.34a21.5,21.5,0,0,1-7.435,2.067c-5.043,7.758-2.169,14.579.462,18.4a34.4,34.4,0,0,0,11.153-2.248c.855-.326,1.708-.686,2.557-1.062C89.944,83.726,89.917,76.889,90.6,73.34ZM87.987,60.553c4.981-3.127,8.645-7.959,6.579-14.126A14.245,14.245,0,0,0,94,44.994a16.078,16.078,0,0,0-1.932-3.153c-.071-.087-.129-.154-.193-.23C90.521,47.831,85.18,51.533,78.791,53,82.818,53.48,87.072,55.271,87.987,60.553Z" transform="translate(-57.036 -23.81)"/><g transform="translate(46.456 15.703)"><path class="b" d="M121.025,64.646h-3.9V44.517h3.9v3.019a6.289,6.289,0,0,1,2.2-2.314,7.352,7.352,0,0,1,3.9-.86,6.909,6.909,0,0,1,.941.058,5.939,5.939,0,0,1,.661.1v3.6c-.257-.03-.6-.053-1.021-.066s-.926-.03-1.507-.03c-1.917,0-3.255.4-4.027,1.219s-1.139,2.324-1.139,4.536Zm25.339-.008h3.894v-11.6a16.26,16.26,0,0,0-.382-3.725,6.474,6.474,0,0,0-1.367-2.756,6.127,6.127,0,0,0-2.66-1.707,13.2,13.2,0,0,0-4.262-.578q-1.466,0-2.557.043c-.735.038-1.4.1-2,.177s-1.162.154-1.683.235-1.036.169-1.558.273v3.216c.551-.1,1.08-.174,1.58-.24s1.044-.125,1.61-.176,1.2-.089,1.881-.127c.683-.02,1.477-.043,2.388-.043a10.618,10.618,0,0,1,2.484.242,3.231,3.231,0,0,1,1.529.809,3.131,3.131,0,0,1,.808,1.432,9.864,9.864,0,0,1,.295,2.146c-.713.132-1.587.251-2.609.368s-2.367.206-4.02.264a24.285,24.285,0,0,0-3.417.39,7.186,7.186,0,0,0-2.551.976,4.438,4.438,0,0,0-1.609,1.8,6.437,6.437,0,0,0-.559,2.883c0,2.21.683,3.77,2.043,4.7a9.964,9.964,0,0,0,5.652,1.389,10.98,10.98,0,0,0,4.439-.75,6.836,6.836,0,0,0,2.631-2.028Zm0-7.261a4,4,0,0,1-1.485,3.24,7.25,7.25,0,0,1-4.7,1.242,6.538,6.538,0,0,1-3.609-.706,2.762,2.762,0,0,1-.977-2.409,2.425,2.425,0,0,1,1.029-2.36,8.1,8.1,0,0,1,3.359-.66c1.521-.066,2.793-.154,3.778-.272a26.03,26.03,0,0,0,2.609-.413ZM169.826,44.9a19.557,19.557,0,0,0-2.609-.4,38.454,38.454,0,0,0-3.924-.177,13.707,13.707,0,0,0-4.05.581,8.546,8.546,0,0,0-3.212,1.852,8.757,8.757,0,0,0-2.146,3.226,12.546,12.546,0,0,0-.779,4.673,12.391,12.391,0,0,0,.779,4.661,8.373,8.373,0,0,0,2.168,3.161,8.463,8.463,0,0,0,3.292,1.808,14.946,14.946,0,0,0,4.189.559,35.264,35.264,0,0,0,4.064-.191c1.029-.133,1.764-.236,2.227-.295V61.133c-.749.1-1.58.189-2.49.293s-2.161.14-3.756.14A11.384,11.384,0,0,1,161,61.3a4.815,4.815,0,0,1-2.05-1.021,4.928,4.928,0,0,1-1.359-2.1,10.28,10.28,0,0,1-.486-3.438,11.1,11.1,0,0,1,.463-3.505,5.364,5.364,0,0,1,1.287-2.167,4.5,4.5,0,0,1,2.006-1.125,9.991,9.991,0,0,1,2.631-.315c.837,0,1.58.022,2.212.043.632.038,1.191.073,1.683.127s.926.1,1.315.146.758.111,1.124.17Zm19.6,0a19.207,19.207,0,0,0-2.609-.4,38.265,38.265,0,0,0-3.925-.177,13.655,13.655,0,0,0-4.042.581,8.524,8.524,0,0,0-3.219,1.852,8.843,8.843,0,0,0-2.146,3.226,12.711,12.711,0,0,0-.772,4.673,12.555,12.555,0,0,0,.772,4.661,8.195,8.195,0,0,0,5.461,4.968,14.992,14.992,0,0,0,4.2.559,35.359,35.359,0,0,0,4.064-.191c1.029-.133,1.764-.236,2.22-.295V61.133c-.75.1-1.58.189-2.491.293s-2.154.14-3.748.14A11.412,11.412,0,0,1,180.6,61.3a4.819,4.819,0,0,1-2.05-1.021,5,5,0,0,1-1.359-2.1,10.282,10.282,0,0,1-.485-3.438,11.1,11.1,0,0,1,.462-3.505,5.3,5.3,0,0,1,1.294-2.167,4.518,4.518,0,0,1,2-1.125,10.03,10.03,0,0,1,2.632-.315c.844,0,1.58.022,2.211.043.64.038,1.2.073,1.683.127s.925.1,1.315.146.765.111,1.125.17Zm13.223,20.13a13.585,13.585,0,0,0,4.071-.583,8.706,8.706,0,0,0,3.263-1.828,8.535,8.535,0,0,0,2.19-3.211,12.619,12.619,0,0,0,.809-4.757,13.269,13.269,0,0,0-.779-4.777,8.4,8.4,0,0,0-5.438-5.136,13.731,13.731,0,0,0-8.134,0,8.459,8.459,0,0,0-5.461,5.136,12.812,12.812,0,0,0-.8,4.777,12.962,12.962,0,0,0,.779,4.757,8.323,8.323,0,0,0,2.16,3.211,8.8,8.8,0,0,0,3.27,1.828,13.585,13.585,0,0,0,4.071.583m.052-3.066a10.267,10.267,0,0,1-2.756-.338,4.367,4.367,0,0,1-2-1.189,5.242,5.242,0,0,1-1.191-2.242,13.055,13.055,0,0,1-.389-3.52c0-2.814.513-4.77,1.558-5.849a6.249,6.249,0,0,1,4.725-1.631,6.357,6.357,0,0,1,4.755,1.631c1.051,1.079,1.58,3.035,1.58,5.849a12.37,12.37,0,0,1-.418,3.52,5.589,5.589,0,0,1-1.191,2.242,4.223,4.223,0,0,1-1.977,1.189,10.046,10.046,0,0,1-2.7.338m23.424,3.066a13.5,13.5,0,0,0,4.064-.583,8.737,8.737,0,0,0,3.27-1.828,8.534,8.534,0,0,0,2.19-3.211,12.619,12.619,0,0,0,.809-4.757,13.119,13.119,0,0,0-.779-4.777,8.4,8.4,0,0,0-5.438-5.136,13.754,13.754,0,0,0-8.141,0,8.514,8.514,0,0,0-5.454,5.136,12.812,12.812,0,0,0-.8,4.777,13.117,13.117,0,0,0,.771,4.757,8.342,8.342,0,0,0,2.175,3.211,8.715,8.715,0,0,0,3.263,1.828,13.549,13.549,0,0,0,4.071.583m.044-3.066a10.285,10.285,0,0,1-2.749-.338,4.328,4.328,0,0,1-2-1.189,5.327,5.327,0,0,1-1.2-2.242,13.407,13.407,0,0,1-.382-3.52c0-2.814.514-4.77,1.558-5.849a6.262,6.262,0,0,1,4.726-1.631,6.338,6.338,0,0,1,4.747,1.631c1.058,1.079,1.587,3.035,1.587,5.849a12.685,12.685,0,0,1-.411,3.52,5.693,5.693,0,0,1-1.2,2.242,4.2,4.2,0,0,1-1.97,1.189,10.155,10.155,0,0,1-2.711.338m17.13-8.824a14.379,14.379,0,0,1,.22-2.727,3.775,3.775,0,0,1,.809-1.8,3.337,3.337,0,0,1,1.58-1,8.506,8.506,0,0,1,2.557-.316,8.4,8.4,0,0,1,2.513.316,3.3,3.3,0,0,1,1.58,1,4.009,4.009,0,0,1,.83,1.8,13.1,13.1,0,0,1,.243,2.727V64.646h3.9V52.7a14.007,14.007,0,0,0-.544-4.218,6.118,6.118,0,0,0-1.506-2.63,5.421,5.421,0,0,0-2.389-1.337,11.852,11.852,0,0,0-3.219-.4,10.445,10.445,0,0,0-4.182.66,5.436,5.436,0,0,0-2.4,2.17V44.517h-3.9V64.646h3.9Z" transform="translate(-117.122 -44.12)"/></g><g transform="translate(60.973 41.953)"><path class="a" d="M143.626,82.721c-.015-.066-.041-.247-.076-.544-.031-.247-.058-.452-.081-.613a4.287,4.287,0,0,1-.147.578,4.816,4.816,0,0,1-.24.591l-2.217,4.515-2.217-4.608c-.093-.189-.173-.373-.24-.55s-.127-.353-.176-.527a5.38,5.38,0,0,1-.043.558,6.068,6.068,0,0,1-.114.611l-.908,4.174H135.9l2-8.834,2.5,5.349c.039.085.1.226.177.423s.174.44.286.729a9.446,9.446,0,0,1,.382-.926c.046-.1.081-.177.1-.231l2.443-5.344,2.049,8.834h-1.279Z" transform="translate(-135.898 -78.072)"/><path class="a" d="M156.364,86.913l-.96-2.182h-3.358l-.984,2.182h-1.447l4.1-8.811,4.1,8.811Zm-3.809-3.328h2.362l-.869-1.933q-.074-.186-.155-.427c-.054-.159-.108-.338-.162-.534-.046.185-.1.358-.148.517s-.105.308-.159.444Z" transform="translate(-139.01 -78.079)"/><path class="a" d="M163.467,83.22v3.792h-1.29V78.536H164.1a6.011,6.011,0,0,1,1.311.111,2.069,2.069,0,0,1,.8.364,2.013,2.013,0,0,1,.607.794,2.607,2.607,0,0,1,.215,1.065,2.38,2.38,0,0,1-.492,1.6,2.167,2.167,0,0,1-1.453.692L168,87.011h-1.558l-2.819-3.792Zm.087-1.071h.249a2.779,2.779,0,0,0,1.454-.255,1.034,1.034,0,0,0,.359-.9,1.154,1.154,0,0,0-.385-.987,2.542,2.542,0,0,0-1.427-.286h-.249Z" transform="translate(-141.859 -78.177)"/><path class="a" d="M171.685,87.011V78.536h1.378v3.509l3.045-3.509h1.684l-3.357,3.769,3.757,4.706h-1.777l-3.352-4.33v4.33Z" transform="translate(-144.016 -78.177)"/><path class="a" d="M182.114,87.011V78.536h4.729v1.17h-3.352V81.83h3.352v1.21h-3.352v2.739h3.352v1.232Z" transform="translate(-146.382 -78.177)"/><path class="a" d="M193.672,79.706v7.306h-1.378V79.706h-2.251v-1.17h5.871v1.17Z" transform="translate(-148.18 -78.177)"/><path class="a" d="M199.948,87.011V78.536h1.378v8.475Z" transform="translate(-150.427 -78.177)"/><path class="a" d="M205.21,86.913V78.1l5.383,5.182c.147.147.3.3.446.469s.308.353.475.562V78.438h1.273v8.805l-5.493-5.274q-.22-.215-.426-.452c-.137-.158-.268-.324-.391-.5v5.893Z" transform="translate(-151.621 -78.079)"/><path class="a" d="M223.033,82.614h3.358c0,.057,0,.138.006.243q.017.411.017.556a3.683,3.683,0,0,1-1.024,2.779,3.987,3.987,0,0,1-2.889.99,5.248,5.248,0,0,1-1.858-.307,3.928,3.928,0,0,1-1.43-.926,4.22,4.22,0,0,1-.923-1.44,4.872,4.872,0,0,1-.321-1.772,4.692,4.692,0,0,1,.327-1.771,4.1,4.1,0,0,1,.97-1.43,4.181,4.181,0,0,1,1.453-.926,4.965,4.965,0,0,1,1.783-.318,4.236,4.236,0,0,1,1.792.364,4,4,0,0,1,1.409,1.118l-1.007.758a2.792,2.792,0,0,0-.967-.741,2.893,2.893,0,0,0-1.2-.244,3.024,3.024,0,0,0-2.248.883,3.125,3.125,0,0,0-.871,2.3,3.193,3.193,0,0,0,.871,2.33,3.012,3.012,0,0,0,2.26.895,2.869,2.869,0,0,0,1.859-.549,1.831,1.831,0,0,0,.677-1.5v-.121h-2.038Z" transform="translate(-154.515 -78.121)"/><path class="a" d="M237.231,87.011V78.536h1.858a12.086,12.086,0,0,1,2.551.183,3.428,3.428,0,0,1,1.294.611,3.539,3.539,0,0,1,1.114,1.441,5.031,5.031,0,0,1,.38,2.009,4.97,4.97,0,0,1-.38,2,3.6,3.6,0,0,1-1.114,1.439,3.47,3.47,0,0,1-1.264.611,9.759,9.759,0,0,1-2.21.182h-2.228Zm1.378-1.244h1.158a5.972,5.972,0,0,0,1.433-.128,2.09,2.09,0,0,0,.83-.428,2.544,2.544,0,0,0,.721-1.022,4.322,4.322,0,0,0,0-2.843,2.539,2.539,0,0,0-.721-1.021,2.127,2.127,0,0,0-.859-.428,6.951,6.951,0,0,0-1.566-.128h-1Z" transform="translate(-158.885 -78.177)"/><path class="a" d="M249.533,87.011V78.536h1.378v8.475Z" transform="translate(-161.675 -78.177)"/><path class="a" d="M259.381,82.614h3.358c0,.057,0,.138.006.243q.017.411.017.556a3.686,3.686,0,0,1-1.024,2.779,3.988,3.988,0,0,1-2.889.99,5.248,5.248,0,0,1-1.858-.307,3.928,3.928,0,0,1-1.43-.926,4.22,4.22,0,0,1-.923-1.44,4.873,4.873,0,0,1-.321-1.772,4.692,4.692,0,0,1,.327-1.771,4.1,4.1,0,0,1,.97-1.43,4.181,4.181,0,0,1,1.453-.926,4.962,4.962,0,0,1,1.783-.318,4.236,4.236,0,0,1,1.792.364,4,4,0,0,1,1.409,1.118l-1.007.758a2.778,2.778,0,0,0-.967-.741,2.887,2.887,0,0,0-1.2-.244,3.024,3.024,0,0,0-2.248.883,3.126,3.126,0,0,0-.871,2.3,3.193,3.193,0,0,0,.871,2.33,3.012,3.012,0,0,0,2.26.895,2.869,2.869,0,0,0,1.859-.549,1.831,1.831,0,0,0,.677-1.5v-.121h-2.038Z" transform="translate(-162.76 -78.121)"/><path class="a" d="M268.062,87.011V78.536h1.378v8.475Z" transform="translate(-165.879 -78.177)"/><path class="a" d="M275.8,79.706v7.306h-1.379V79.706h-2.251v-1.17h5.871v1.17Z" transform="translate(-166.811 -78.177)"/><path class="a" d="M287.307,86.913l-.961-2.182h-3.358L282,86.913h-1.447l4.1-8.811,4.1,8.811ZM283.5,83.584h2.362l-.868-1.933q-.075-.186-.156-.427c-.054-.159-.108-.338-.162-.534-.046.185-.1.358-.148.517s-.106.308-.16.444Z" transform="translate(-168.713 -78.079)"/><path class="a" d="M293.12,87.011V78.536H294.5v7.243h3.079v1.232Z" transform="translate(-171.563 -78.177)"/></g></g></g></svg>