<svg xmlns="http://www.w3.org/2000/svg" width="579.216" height="505.448" viewBox="0 0 579.216 505.448"><defs><style>.a{fill:#e0e0e0;}.b{opacity:0.1;}.c{fill:#f5f5f5;}.d,.t{fill:#fafafa;}.d,.n,.o{fill-rule:evenodd;}.e{fill:#263238;}.f,.o{fill:#fff;}.g,.n{fill:#ca515b;}.h{opacity:0.3;}.i{fill:#80d4b4;}.j{fill:#da005a;}.k{fill:#ffe53c;}.l{fill:#0b2747;}.m{fill:#ff7600;}.p,.v{opacity:0.4;}.q{fill:#eb996e;}.r{fill:#c46f43;}.s{fill:#455a64;}.u{opacity:0.2;}</style></defs><g transform="translate(-1155.54 -626.367)"><g transform="translate(1639.979 717.131)"><g transform="translate(14.753 14.513)"><path class="a" d="M1562.161,703.832a6.024,6.024,0,0,1,1.885.59,7.934,7.934,0,0,1,3.758,3.8,8.038,8.038,0,0,1,.766,3.673,8.153,8.153,0,0,1-1.263,4.117,8.169,8.169,0,0,1-3.607,3.1,8.14,8.14,0,0,1-9.457-2.12,8.18,8.18,0,0,1-1.938-4.344,8.148,8.148,0,0,1,.617-4.263,8.027,8.027,0,0,1,2.262-2.994,7.944,7.944,0,0,1,5.021-1.833,6.012,6.012,0,0,1,1.956.272c-.009.057-.7-.138-1.952-.093a7.948,7.948,0,0,0-4.817,1.9,7.792,7.792,0,0,0-2.669,6.955,7.785,7.785,0,0,0,1.859,4.1,7.725,7.725,0,0,0,8.938,2,7.793,7.793,0,0,0,3.432-2.917,7.789,7.789,0,0,0,.557-7.428,7.959,7.959,0,0,0-3.542-3.779C1562.85,704,1562.144,703.886,1562.161,703.832Z" transform="translate(-1552.237 -703.56)"/></g><path class="a" d="M1571.585,698.277a1.6,1.6,0,0,1-.017-.279c-.005-.209-.011-.488-.02-.851-.01-.779-.026-1.9-.047-3.36l.058.07-7.262-1.584.13-.063c-.578,1.231-1.221,2.6-1.909,4.063l-.034.073-.082,0a18.188,18.188,0,0,0-4.735.841l-.086.028-.065-.065c-1-.984-2.073-2.051-3.193-3.16l.2.021-6.269,3.993.073-.213c.469,1.309.985,2.751,1.515,4.229l.039.107-.078.084a18.062,18.062,0,0,0-2.754,3.925l-.056.106h-.119l-4.49.016.2-.159c-.507,2.278-1.056,4.735-1.617,7.255l-.117-.239,4.058,1.923.118.055.005.132a18.165,18.165,0,0,0,.825,4.715l.04.128-.095.094-3.168,3.186.03-.278,3.981,6.277-.269-.092,4.233-1.509.131-.047.1.094a17.993,17.993,0,0,0,3.909,2.753h0c.055.091-.122-.2.125.2v1.125l0,1.126q0,1.125,0,2.239l-.178-.222,7.253,1.628-.254.123q.972-2.048,1.928-4.056l.058-.123.136-.005a18.027,18.027,0,0,0,4.716-.817l.128-.04.094.094,3.181,3.172-.271-.03,6.282-3.971-.086.248q-.764-2.154-1.5-4.233l-.042-.118.084-.091a18.035,18.035,0,0,0,2.766-3.914l.056-.106h.12l4.491,0-.185.148c.578-2.551,1.122-4.958,1.642-7.249l.1.2-4.052-1.935-.091-.043,0-.1a18.106,18.106,0,0,0-.81-4.735l-.028-.088.064-.063,3.18-3.174-.017.169-3.95-6.3.121.042-4.242,1.48-.043.015-.031-.03a18.994,18.994,0,0,0-2.884-2.222l-.773-.466a1.708,1.708,0,0,1-.254-.157,2.425,2.425,0,0,1,.273.125c.177.091.445.229.793.434a17.573,17.573,0,0,1,2.945,2.178l-.074-.015,4.222-1.534.077-.028.044.069,4.005,6.26.059.092-.077.077-3.159,3.194.037-.151a18.417,18.417,0,0,1,.852,4.813l-.093-.142,4.061,1.916.127.059-.031.137c-.51,2.294-1.044,4.7-1.612,7.256l-.033.148h-.154l-4.49.018.175-.106a18.4,18.4,0,0,1-2.816,4.009l.043-.209q.743,2.078,1.513,4.231l.057.159-.144.091-6.273,3.984-.147.093-.123-.123q-1.572-1.561-3.186-3.167l.223.055a18.468,18.468,0,0,1-4.832.843l.194-.128q-.953,2.008-1.924,4.058l-.078.164-.176-.04-7.253-1.625-.179-.04v-.183l-.005-2.239,0-1.126V730.76c.247.4.068.111.122.2h0a18.434,18.434,0,0,1-4.007-2.824l.232.047-4.233,1.506-.173.06-.1-.154c-1.367-2.161-2.717-4.291-3.975-6.279l-.1-.152.127-.127,3.172-3.181-.054.223a18.531,18.531,0,0,1-.838-4.831l.125.188-4.055-1.93-.154-.074.037-.166c.569-2.517,1.122-4.973,1.636-7.249l.036-.16h.162l4.49,0-.174.106a18.4,18.4,0,0,1,2.826-4l-.039.193c-.524-1.481-1.035-2.924-1.5-4.236l-.048-.136.122-.077,6.287-3.964.111-.069.092.092c1.114,1.115,2.184,2.188,3.175,3.179l-.151-.036a18.375,18.375,0,0,1,4.813-.822l-.116.077,1.943-4.049.04-.083.089.02,7.243,1.669.058.014v.058c-.013,1.445-.023,2.558-.031,3.331-.007.366-.012.649-.016.861A2.32,2.32,0,0,1,1571.585,698.277Z" transform="translate(-1540.513 -692.027)"/></g><g class="b" transform="translate(1583.708 1009.778)"><path class="a" d="M1627.107,1000.672s-.015-.472-.023-1.37-.013-2.236-.023-3.971c-.012-3.49-.03-8.607-.053-15.176-.025-13.132-.063-32.061-.109-55.3l.206.208-131.032.06h-.01l.268-.268c-.006,26.833-.013,52.47-.019,75.817l-.249-.25,94.249.122,27.068.068,7.217.03,1.866.015c.42.005.643.015.643.015s-.2.01-.613.014l-1.839.015-7.166.031-27.01.067-94.415.122h-.249v-.249c-.006-23.346-.013-48.983-.019-75.817v-.268h.278l131.032.062h.208v.206c-.047,23.292-.084,42.264-.109,55.426-.023,6.55-.04,11.651-.053,15.129-.01,1.719-.018,3.034-.023,3.934C1627.121,1000.229,1627.107,1000.672,1627.107,1000.672Z" transform="translate(-1495.796 -924.587)"/><g transform="translate(0.435 9.181)"><path class="a" d="M1627.067,932.15c0,.149-29.311.268-65.459.268s-65.466-.12-65.466-.268,29.305-.267,65.466-.267S1627.067,932,1627.067,932.15Z" transform="translate(-1496.142 -931.883)"/></g><g transform="translate(11.619 21.95)"><rect class="c" width="40.478" height="40.478"/></g><g transform="translate(63.217 28.359)"><path class="a" d="M1604.624,947.391a2.588,2.588,0,0,1-.6.054l-1.708.049-6.278.086-20.714.079-20.717-.079-6.278-.086-1.707-.049a2.6,2.6,0,0,1-.6-.054,2.489,2.489,0,0,1,.6-.054l1.707-.05,6.278-.086,20.717-.078,20.714.078,6.278.086,1.708.05A2.482,2.482,0,0,1,1604.624,947.391Z" transform="translate(-1546.033 -947.123)"/><g transform="translate(0 9.041)"><path class="a" d="M1605.927,954.576a2.605,2.605,0,0,1-.609.054l-1.744.05-6.419.084-21.175.079-21.177-.079-6.418-.084-1.745-.05a.306.306,0,1,1,0-.108l1.745-.05,6.418-.086,21.177-.078,21.175.078,6.419.086,1.744.05A2.611,2.611,0,0,1,1605.927,954.576Z" transform="translate(-1546.033 -954.308)"/></g><g transform="translate(0 18.083)"><path class="a" d="M1605.927,961.761a2.619,2.619,0,0,1-.609.054l-1.744.05-6.419.086-21.175.078-21.177-.078-6.418-.086-1.745-.05a.306.306,0,1,1,0-.108l1.745-.05,6.418-.086,21.177-.078,21.175.078,6.419.086,1.744.05A2.6,2.6,0,0,1,1605.927,961.761Z" transform="translate(-1546.033 -961.493)"/></g><g transform="translate(0 27.124)"><path class="a" d="M1605.927,968.946a2.614,2.614,0,0,1-.609.054l-1.744.05-6.419.086-21.175.078-21.177-.078-6.418-.086-1.745-.05a2.6,2.6,0,0,1-.608-.054,2.686,2.686,0,0,1,.608-.054l1.745-.05,6.418-.084,21.177-.079,21.175.079,6.419.084,1.744.05A2.7,2.7,0,0,1,1605.927,968.946Z" transform="translate(-1546.033 -968.678)"/></g></g></g><g class="b" transform="translate(1259.076 594.864)"><g transform="translate(76.363 46.597)"><path class="a" d="M1323.885,663.99a10.84,10.84,0,0,1-1.924.127l-5.293.107c-4.492.063-10.75.1-17.814.116h-.35v-.35c0-1.13,0-2.322,0-3.531,0-7.89.039-15.031.1-20.2.045-2.493.083-4.555.112-6.122a13.554,13.554,0,0,1,.137-2.244,13.917,13.917,0,0,1,.137,2.244c.029,1.567.067,3.629.112,6.122.063,5.168.1,12.309.1,20.2,0,1.209,0,2.4,0,3.531l-.35-.35c7.063.011,13.321.054,17.814.116l5.293.107A10.8,10.8,0,0,1,1323.885,663.99Z" transform="translate(-1298.502 -631.894)"/></g><g transform="translate(76.53 31.503)"><path class="a" d="M1298.987,619.9c.194,0,.352,2.049.352,4.575s-.159,4.574-.352,4.574-.352-2.047-.352-4.574S1298.792,619.9,1298.987,619.9Z" transform="translate(-1298.635 -619.899)"/></g><g transform="translate(95.31 38.841)"><path class="a" d="M1319.945,625.74c.138.137-1.178,1.677-2.94,3.438s-3.3,3.077-3.437,2.938,1.178-1.676,2.938-3.437S1319.808,625.6,1319.945,625.74Z" transform="translate(-1313.559 -625.73)"/></g><g transform="translate(108.495 54.678)"><path class="a" d="M1331.747,638.339c.089.177-1.638,1.216-3.752,2.5s-3.836,2.339-3.953,2.178,1.44-1.479,3.586-2.781S1331.663,638.168,1331.747,638.339Z" transform="translate(-1324.036 -638.315)"/></g><g transform="translate(112.233 77.869)"><path class="a" d="M1339.483,657.1c0,.194-2.792.352-6.238.352s-6.238-.159-6.238-.352,2.792-.352,6.238-.352S1339.483,656.9,1339.483,657.1Z" transform="translate(-1327.007 -656.745)"/></g><g transform="translate(26.422 77.037)"><path class="a" d="M1270.6,656.436c0,.194-2.637.352-5.892.352s-5.892-.159-5.892-.352,2.638-.352,5.892-.352S1270.6,656.241,1270.6,656.436Z" transform="translate(-1258.815 -656.084)"/></g><g transform="translate(34.973 94.89)"><path class="a" d="M1274.961,670.281c.127.147-1.866,1.956-4.452,4.038s-4.778,3.647-4.894,3.491,1.876-1.964,4.452-4.039S1274.833,670.135,1274.961,670.281Z" transform="translate(-1265.61 -670.271)"/></g><g transform="translate(53.152 108.438)"><path class="a" d="M1286.32,681.042c.162.118-1.315,2.392-3.029,5.252s-3.035,5.229-3.216,5.14.871-2.615,2.612-5.5S1286.17,680.929,1286.32,681.042Z" transform="translate(-1280.057 -681.038)"/></g><g transform="translate(76.53 113.432)"><path class="a" d="M1298.987,697.483c-.2,0-.352-2.794-.352-6.238s.157-6.239.352-6.239.352,2.794.352,6.239S1299.181,697.483,1298.987,697.483Z" transform="translate(-1298.635 -685.006)"/></g><g transform="translate(94.428 109.453)"><path class="a" d="M1322.2,689.988c-.1.157-2.539-1.247-5.143-3.523s-4.334-4.5-4.193-4.614c.154-.136,2.085,1.85,4.656,4.083S1322.315,689.818,1322.2,689.988Z" transform="translate(-1312.857 -681.844)"/></g><g transform="translate(108.619 96.235)"><path class="a" d="M1331.908,679.111c-.138.138-1.988-1.489-4.131-3.632s-3.771-3.994-3.633-4.131,1.987,1.489,4.131,3.633S1332.045,678.973,1331.908,679.111Z" transform="translate(-1324.135 -671.34)"/></g><g transform="translate(36.948 53.814)"><path class="a" d="M1273.982,644.431c-.137.137-1.769-1.272-3.644-3.147s-3.286-3.508-3.148-3.646,1.771,1.271,3.647,3.147S1274.12,644.292,1273.982,644.431Z" transform="translate(-1267.18 -637.628)"/></g><g transform="translate(52.646 37.56)"><path class="a" d="M1286.333,631.361c-.137.138-1.742-1.237-3.583-3.069s-3.224-3.432-3.087-3.57,1.742,1.237,3.584,3.07S1286.47,631.224,1286.333,631.361Z" transform="translate(-1279.654 -624.712)"/></g></g><g class="b" transform="translate(1571.344 631.883)"><path class="d" d="M1546.943,636.383a36.056,36.056,0,0,1,7.835,5.519l8.371-2.98,7.869,12.419-6.269,6.3a36.084,36.084,0,0,1,1.645,9.443l8.023,3.81-3.219,14.345-8.882.019a35.98,35.98,0,0,1-5.52,7.836l2.98,8.372-12.418,7.867-6.3-6.269a36.032,36.032,0,0,1-9.443,1.642l-3.809,8.025-14.348-3.218-.018-8.883a35.964,35.964,0,0,1-7.836-5.519l-8.372,2.98-7.869-12.419,6.272-6.3a36.09,36.09,0,0,1-1.645-9.443l-8.022-3.81,3.216-14.345,8.883-.019a35.971,35.971,0,0,1,5.521-7.836l-2.981-8.372,12.418-7.867,6.3,6.269a36.039,36.039,0,0,1,9.443-1.643l3.81-8.023,14.344,3.218.021,8.883Zm-12.648,16.88a15.772,15.772,0,1,0,11.937,18.842A15.771,15.771,0,0,0,1534.3,653.262Z" transform="translate(-1485.97 -624.282)"/></g><g class="b" transform="translate(1210.713 748.749)"><path class="c" d="M1199.385,738.587h93.087s-8.232-14.98-32.193-12.8c-22.884,2.083-24.047-7.369-35.682-8.533S1203.265,725.013,1199.385,738.587Z" transform="translate(-1199.385 -717.153)"/></g><g class="b" transform="translate(1412.175 922.075)"><path class="c" d="M1359.482,872.24h75.346s-6.663-12.124-26.057-10.36c-18.523,1.686-19.464-5.965-28.883-6.906S1362.622,861.252,1359.482,872.24Z" transform="translate(-1359.482 -854.891)"/></g><g transform="translate(1155.54 1125.014)"><path class="e" d="M1734.756,1016.49c0,.181-129.673.328-289.594.328-159.978,0-289.622-.147-289.622-.328s129.643-.327,289.622-.327C1605.083,1016.163,1734.756,1016.31,1734.756,1016.49Z" transform="translate(-1155.54 -1016.163)"/></g><g class="b" transform="translate(1520.207 747.887)"><g transform="translate(0.328 0.328)"><rect class="f" width="182.819" height="122.409"/></g><path class="g" d="M1628.48,839.2s-.019-.765-.028-2.226l-.029-6.459c-.016-5.665-.039-13.977-.067-24.617-.034-21.268-.08-51.837-.138-89.105l.262.262-182.8.065h-.014l.327-.327c-.01,43.607-.019,85.077-.028,122.408l-.3-.3,131.71.147,37.629.081,10.009.036,2.583.018c.583.006.887.018.887.018s-.281.012-.852.018l-2.551.018-9.949.036-37.561.081-131.906.148h-.3v-.3c-.008-37.331-.018-78.8-.028-122.408v-.328h.342l182.8.065h.263v.262c-.057,37.336-.1,67.962-.137,89.268-.029,10.617-.052,18.908-.067,24.56-.013,2.8-.023,4.95-.029,6.41C1628.5,838.477,1628.48,839.2,1628.48,839.2Z" transform="translate(-1445.333 -716.468)"/><g transform="translate(0.328 10.924)"><path class="g" d="M1445.594,725.476c0-.18,40.895-.327,91.329-.327,50.453,0,91.339.147,91.339.327s-40.886.328-91.339.328C1486.489,725.8,1445.594,725.657,1445.594,725.476Z" transform="translate(-1445.594 -725.149)"/></g><g transform="translate(4.611 4.276)"><g class="h"><path class="g" d="M1451.926,721.331a1.465,1.465,0,1,1-1.465-1.465A1.466,1.466,0,0,1,1451.926,721.331Z" transform="translate(-1448.997 -719.866)"/></g><g class="h" transform="translate(5.021)"><path class="g" d="M1455.917,721.331a1.465,1.465,0,1,1-1.465-1.465A1.466,1.466,0,0,1,1455.917,721.331Z" transform="translate(-1452.987 -719.866)"/></g><g class="h" transform="translate(9.969)"><path class="g" d="M1459.85,721.331a1.465,1.465,0,1,1-1.465-1.465A1.466,1.466,0,0,1,1459.85,721.331Z" transform="translate(-1456.919 -719.866)"/></g></g><g transform="translate(16.045 24.017)"><rect class="i" width="48.767" height="48.767"/></g><g transform="translate(73.12 37.473)"><path class="g" d="M1588.4,746.576c0,.181-19.019.327-42.476.327s-42.48-.146-42.48-.327,19.016-.328,42.48-.328S1588.4,746.394,1588.4,746.576Z" transform="translate(-1503.44 -746.247)"/></g><g transform="translate(73.12 46.536)"><path class="g" d="M1588.4,753.776c0,.181-19.019.328-42.476.328s-42.48-.147-42.48-.328,19.016-.327,42.48-.327S1588.4,753.6,1588.4,753.776Z" transform="translate(-1503.44 -753.449)"/></g><g transform="translate(73.12 55.599)"><path class="g" d="M1588.4,760.978c0,.181-19.019.327-42.476.327s-42.48-.146-42.48-.327,19.016-.327,42.48-.327S1588.4,760.8,1588.4,760.978Z" transform="translate(-1503.44 -760.651)"/></g><g transform="translate(73.12 64.66)"><path class="g" d="M1553.65,768.18a11.414,11.414,0,0,1-1.973.127l-5.379.1c-4.544.059-10.82.1-17.752.1s-13.21-.036-17.753-.1l-5.381-.1a11.41,11.41,0,0,1-1.972-.127,11.479,11.479,0,0,1,1.972-.128l5.381-.1c4.543-.06,10.82-.1,17.753-.1s13.208.036,17.752.1l5.379.1A11.482,11.482,0,0,1,1553.65,768.18Z" transform="translate(-1503.44 -767.852)"/></g><g class="h" transform="translate(19.097 89.226)"><rect class="g" width="22.918" height="22.918"/></g><g transform="translate(60.659 89.226)"><rect class="i" width="22.918" height="22.918"/></g><g transform="translate(102.222 89.226)"><rect class="i" width="22.918" height="22.918"/></g><g transform="translate(143.785 89.226)"><rect class="i" width="22.918" height="22.918"/></g></g><g class="b" transform="translate(1185.93 792.056)"><g transform="translate(0.258 0.257)"><rect class="f" width="162.861" height="66.152"/></g><path class="g" d="M1342.809,817.977s-.013-.406-.019-1.181-.01-1.93-.019-3.433c-.01-3.018-.025-7.452-.045-13.164-.023-11.418-.057-27.933-.1-48.373l.181.18c-41.429.02-99.1.048-162.85.077h-.011l.258-.257c0,23.165-.008,45.526-.011,66.151l-.247-.247,116.768.116,33.875.069,9.065.03,2.347.016c.53.005.807.015.807.015s-.257.01-.775.015l-2.318.015-9.015.031-33.817.068-116.935.117h-.247v-.247c0-20.625-.007-42.986-.011-66.151v-.258h.27c63.75.029,121.42.057,162.85.077h.182v.181c-.042,20.486-.074,37.039-.1,48.482-.019,5.694-.034,10.115-.044,13.124-.009,1.487-.015,2.624-.02,3.4S1342.809,817.977,1342.809,817.977Z" transform="translate(-1179.69 -751.568)"/><g transform="translate(0.422 8.921)"><path class="g" d="M1180.025,758.915c0-.142,36.4-.258,81.3-.258s81.3.116,81.3.258-36.395.258-81.3.258S1180.025,759.057,1180.025,758.915Z" transform="translate(-1180.025 -758.657)"/></g><g transform="translate(4.875 4.007)"><g class="h"><path class="g" d="M1185.929,755.934a1.182,1.182,0,1,1-1.183-1.182A1.182,1.182,0,0,1,1185.929,755.934Z" transform="translate(-1183.564 -754.752)"/></g><g class="h" transform="translate(4.051)"><path class="g" d="M1189.146,755.934a1.182,1.182,0,1,1-1.182-1.182A1.181,1.181,0,0,1,1189.146,755.934Z" transform="translate(-1186.783 -754.752)"/></g><g class="h" transform="translate(8.042)"><path class="g" d="M1192.318,755.934a1.182,1.182,0,1,1-1.182-1.182A1.181,1.181,0,0,1,1192.318,755.934Z" transform="translate(-1189.955 -754.752)"/></g></g><g transform="translate(14.099 19.931)"><rect class="i" width="39.337" height="39.337"/></g><g transform="translate(61.433 30.215)"><path class="g" d="M1318.928,775.837c0,.142-20.243.258-45.208.258s-45.211-.116-45.211-.258,20.238-.258,45.211-.258S1318.928,775.695,1318.928,775.837Z" transform="translate(-1228.509 -775.579)"/><g transform="translate(0 8.013)"><path class="g" d="M1318.928,782.2c0,.142-20.243.258-45.208.258s-45.211-.116-45.211-.258,20.238-.258,45.211-.258S1318.928,782.063,1318.928,782.2Z" transform="translate(-1228.509 -781.947)"/></g><g transform="translate(0 16.027)"><path class="g" d="M1286.715,788.573a2.614,2.614,0,0,1-.592.053l-1.695.048-6.238.082-20.578.076-20.581-.076-6.236-.082-1.7-.048a2.593,2.593,0,0,1-.59-.053,2.538,2.538,0,0,1,.59-.052l1.7-.048,6.236-.083,20.581-.076,20.578.076,6.238.083,1.695.048A2.558,2.558,0,0,1,1286.715,788.573Z" transform="translate(-1228.509 -788.315)"/></g></g></g><path class="c" d="M1415.41,685.9c-2.731-1.82-6.478-.719-9.208,1.1s-5.062,4.316-8.122,5.505c-5.744,2.232-13.272-.413-17.737,3.836-2.833,2.7-3.122,7.121-5.287,10.379-3.646,5.486-12.4,7.548-13.147,14.092-.437,3.817,2.583,7.477,6.274,8.548s7.75-.059,10.95-2.186c3.738-2.484,6.673-6.316,10.933-7.73,4.353-1.445,9.725-.234,13.159-3.273s2.921-8.629,5.382-12.508c1.311-2.066,3.379-3.506,5.23-5.105s3.614-3.576,3.924-6-.685-6.565-2.352-6.658" transform="translate(53.309 23.281)"/><g transform="translate(1374.429 707.357)"><g transform="translate(23.339 269.16)"><path class="f" d="M1348.078,898.166c.155-.094.664.414,1.139,1.136s.74,1.392.593,1.5-.658-.4-1.14-1.136S1347.923,898.261,1348.078,898.166Z" transform="translate(-1348.034 -898.155)"/></g><g transform="translate(17.95 257.818)"><path class="f" d="M1343.791,889.143c.171-.058.842,1.19,1.5,2.789s1.055,2.957.892,3.036-.834-1.168-1.5-2.787S1343.62,889.2,1343.791,889.143Z" transform="translate(-1343.751 -889.141)"/></g><g transform="translate(14.986 245.587)"><path class="f" d="M1341.482,879.422c.18-.023.581,1.336.9,3.035s.428,3.112.252,3.156-.578-1.316-.9-3.036S1341.3,879.444,1341.482,879.422Z" transform="translate(-1341.396 -879.422)"/></g><g transform="translate(14.256 233.017)"><path class="f" d="M1341.19,869.433c.18.013.307,1.424.283,3.152s-.19,3.136-.371,3.143-.308-1.4-.283-3.152S1341.009,869.42,1341.19,869.433Z" transform="translate(-1340.815 -869.433)"/></g><g transform="translate(15.262 220.603)"><path class="f" d="M1343.018,859.569c.174.049.02,1.458-.345,3.147s-.805,3.036-.984,3.009-.025-1.436.344-3.147S1342.843,859.52,1343.018,859.569Z" transform="translate(-1341.615 -859.568)"/></g><g transform="translate(18.578 208.874)"><path class="f" d="M1346.862,850.251c.16.084-.282,1.431-.989,3.006s-1.417,2.8-1.587,2.74.273-1.411.989-3.008S1346.7,850.167,1346.862,850.251Z" transform="translate(-1344.25 -850.247)"/></g><g transform="translate(24.357 198.382)"><path class="f" d="M1352.609,841.918c.14.116-.583,1.334-1.613,2.722a8.572,8.572,0,0,1-2.129,2.342c-.17-.113.562-1.324,1.6-2.729S1352.47,841.8,1352.609,841.918Z" transform="translate(-1348.843 -841.909)"/></g><g transform="translate(32.227 189.058)"><path class="f" d="M1359.452,834.511c.13.127-.736,1.248-1.933,2.5s-2.275,2.176-2.408,2.054.731-1.243,1.933-2.5S1359.324,834.384,1359.452,834.511Z" transform="translate(-1355.097 -834.5)"/></g><g transform="translate(41.011 180.109)"><path class="f" d="M1366.509,827.4c.131.126-.754,1.232-1.976,2.471s-2.317,2.142-2.444,2.013.756-1.235,1.976-2.471S1366.378,827.275,1366.509,827.4Z" transform="translate(-1362.077 -827.388)"/></g><g transform="translate(49.705 170.624)"><path class="f" d="M1373,819.859c.145.108-.635,1.291-1.743,2.641s-2.115,2.347-2.251,2.226.646-1.3,1.743-2.64S1372.85,819.75,1373,819.859Z" transform="translate(-1368.986 -819.851)"/></g><g transform="translate(57.227 159.827)"><path class="f" d="M1377.874,811.274c.165.069-.249,1.439-1.057,3s-1.677,2.692-1.828,2.6.454-1.365,1.246-2.9S1377.7,811.2,1377.874,811.274Z" transform="translate(-1374.964 -811.271)"/></g><g transform="translate(62.102 147.671)"><path class="f" d="M1379.935,801.61c.176.011.222,1.445-.068,3.177s-.793,3.074-.965,3.028.039-1.436.318-3.136S1379.751,801.6,1379.935,801.61Z" transform="translate(-1378.838 -801.61)"/></g><g transform="translate(62.198 135.163)"><path class="f" d="M1378.982,791.671c.171-.045.664,1.3.931,3.038s.211,3.168.034,3.177-.415-1.374-.681-3.077S1378.8,791.715,1378.982,791.671Z" transform="translate(-1378.914 -791.67)"/></g><g transform="translate(57.299 123.646)"><path class="f" d="M1375.042,782.524c.146-.1,1.071,1,1.9,2.546s1.237,2.922,1.072,2.989-.836-1.165-1.65-2.679S1374.89,782.627,1375.042,782.524Z" transform="translate(-1375.021 -782.518)"/></g><g transform="translate(48.534 114.701)"><path class="f" d="M1368.062,775.43c.1-.149,1.368.521,2.718,1.651s2.235,2.263,2.107,2.383-1.2-.78-2.527-1.88S1367.959,775.584,1368.062,775.43Z" transform="translate(-1368.056 -775.41)"/></g><g transform="translate(37.101 109.549)"><path class="f" d="M1358.971,771.38c.038-.174,1.464,0,3.128.571s2.9,1.3,2.824,1.462-1.407-.288-3.037-.842S1358.93,771.56,1358.971,771.38Z" transform="translate(-1358.97 -771.316)"/></g><g transform="translate(24.599 108.369)"><path class="f" d="M1349.035,771.054c-.032-.174,1.354-.565,3.113-.654s3.179.146,3.166.322-1.414.24-3.131.332S1349.067,771.236,1349.035,771.054Z" transform="translate(-1349.035 -770.378)"/></g><g transform="translate(12.984 110.661)"><path class="f" d="M1339.811,775.209c-.1-.142.977-1.095,2.532-1.928s2.947-1.209,3.008-1.043-1.187.8-2.7,1.62S1339.918,775.36,1339.811,775.209Z" transform="translate(-1339.805 -772.199)"/></g><g transform="translate(4.327 117.74)"><path class="f" d="M1332.948,782.8c-.151-.091.462-1.392,1.545-2.782s2.188-2.309,2.313-2.184-.744,1.227-1.8,2.587S1333.106,782.9,1332.948,782.8Z" transform="translate(-1332.925 -777.825)"/></g><g transform="translate(0 128.362)"><path class="f" d="M1329.6,792.379c-.175-.016-.174-1.46.246-3.174s1.067-3,1.23-2.937-.191,1.422-.594,3.091S1329.781,792.4,1329.6,792.379Z" transform="translate(-1329.487 -786.266)"/></g><g transform="translate(0.013 140.758)"><path class="f" d="M1331.089,802.224c-.165.064-.814-1.221-1.23-2.935s-.429-3.156-.253-3.172.479,1.349.89,3.016S1331.263,802.159,1331.089,802.224Z" transform="translate(-1329.497 -796.117)"/></g><g transform="translate(4.295 152.53)"><path class="f" d="M1336.59,810.589c-.133.117-1.177-.864-2.2-2.292s-1.62-2.732-1.465-2.82.988,1.041,2,2.438S1336.731,810.469,1336.59,810.589Z" transform="translate(-1332.9 -805.472)"/></g><g transform="translate(12.346 162.161)"><path class="f" d="M1344.2,817.1c-.1.147-1.348-.551-2.71-1.652s-2.307-2.173-2.185-2.3,1.251.71,2.6,1.793S1344.309,816.945,1344.2,817.1Z" transform="translate(-1339.298 -813.125)"/></g><g transform="translate(22.543 169.504)"><path class="f" d="M1353.018,821.843c-.072.166-1.4-.342-2.955-1.135s-2.749-1.563-2.658-1.719,1.414.351,2.955,1.135S1353.09,821.677,1353.018,821.843Z" transform="translate(-1347.401 -818.961)"/></g><g transform="translate(34.036 174.585)"><path class="f" d="M1362.633,824.61c-.031.176-1.457.067-3.153-.371s-3-1.021-2.943-1.19,1.433.127,3.107.556S1362.666,824.43,1362.633,824.61Z" transform="translate(-1356.534 -822.998)"/></g><g transform="translate(46.38 176.681)"><path class="f" d="M1372.632,824.826c.02.177-1.38.477-3.136.508s-3.165-.205-3.152-.383,1.417-.238,3.14-.272S1372.612,824.644,1372.632,824.826Z" transform="translate(-1366.344 -824.664)"/></g><g transform="translate(58.86 173.57)"><path class="f" d="M1382.182,822.226c.077.161-1.15.9-2.8,1.495s-3.072.8-3.115.632,1.273-.663,2.893-1.248S1382.1,822.06,1382.182,822.226Z" transform="translate(-1376.261 -822.192)"/></g><g transform="translate(70.279 166.717)"><path class="f" d="M1390.334,816.76c.121.132-.834,1.2-2.227,2.265s-2.669,1.715-2.765,1.564,1-1.032,2.366-2.084S1390.211,816.624,1390.334,816.76Z" transform="translate(-1385.336 -816.745)"/></g><g transform="translate(79.674 157.204)"><path class="f" d="M1396.6,809.192c.151.1-.491,1.374-1.545,2.776s-2.1,2.377-2.235,2.259.676-1.271,1.71-2.653S1396.443,809.093,1396.6,809.192Z" transform="translate(-1392.802 -809.186)"/></g><g transform="translate(86.532 145.892)"><path class="f" d="M1400.639,800.2c.17.053-.12,1.455-.778,3.08s-1.418,2.836-1.578,2.757.326-1.4.97-3S1400.464,800.143,1400.639,800.2Z" transform="translate(-1398.252 -800.197)"/></g><g transform="translate(90.42 133.567)"><path class="f" d="M1402.277,790.4c.179.011.225,1.438-.014,3.174s-.666,3.1-.84,3.06-.04-1.437.193-3.15S1402.095,790.388,1402.277,790.4Z" transform="translate(-1401.341 -790.402)"/></g><g transform="translate(90.868 120.995)"><path class="f" d="M1401.861,780.412c.18-.025.435,1.369.57,3.113s.1,3.161-.083,3.164-.437-1.391-.57-3.113S1401.682,780.436,1401.861,780.412Z" transform="translate(-1401.698 -780.412)"/></g><g transform="translate(88.241 108.711)"><path class="f" d="M1399.668,770.651c.173-.057.682,1.267,1.139,2.955s.683,3.088.507,3.127-.687-1.285-1.14-2.956S1399.5,770.708,1399.668,770.651Z" transform="translate(-1399.61 -770.65)"/></g><g transform="translate(83.45 97.081)"><path class="f" d="M1395.833,761.412c.158-.083.92,1.117,1.676,2.692.706,1.6,1.143,2.951.975,3.019s-.871-1.159-1.569-2.742C1396.165,762.82,1395.671,761.5,1395.833,761.412Z" transform="translate(-1395.802 -761.408)"/></g><g transform="translate(77.265 86.117)"><path class="f" d="M1390.912,752.7c.156-.093,1,1.048,1.876,2.549s1.466,2.791,1.309,2.88-1-1.052-1.875-2.55S1390.757,752.792,1390.912,752.7Z" transform="translate(-1390.887 -752.695)"/></g><g transform="translate(71.015 75.186)"><path class="f" d="M1385.949,744.012c.16-.083.971,1.08,1.811,2.6s1.394,2.821,1.237,2.912-.966-1.071-1.811-2.6S1385.788,744.095,1385.949,744.012Z" transform="translate(-1385.921 -744.008)"/></g><g transform="translate(66.084 63.617)"><path class="f" d="M1382.046,734.816c.174-.052.8,1.217,1.4,2.833s.956,2.987.79,3.06-.794-1.194-1.4-2.833S1381.873,734.868,1382.046,734.816Z" transform="translate(-1382.002 -734.815)"/></g><g transform="translate(63.793 51.244)"><path class="f" d="M1380.375,724.982c.184-.006.375,1.388.559,3.1s.288,3.118.108,3.152-.576-1.34-.76-3.083S1380.2,724.987,1380.375,724.982Z" transform="translate(-1380.182 -724.982)"/></g><g transform="translate(63.971 38.721)"><path class="f" d="M1381.377,715.031c.18.04.021,1.439-.226,3.148s-.5,3.094-.683,3.081-.22-1.441.034-3.176S1381.2,714.992,1381.377,715.031Z" transform="translate(-1380.323 -715.03)"/></g><g transform="translate(66.656 26.846)"><path class="f" d="M1384.928,705.6c.164.083-.34,1.4-1,2.99s-1.25,2.873-1.423,2.815.141-1.451.818-3.068S1384.77,705.515,1384.928,705.6Z" transform="translate(-1382.457 -705.593)"/></g><g transform="translate(72.268 16.42)"><path class="f" d="M1390.792,697.318c.136.123-.695,1.26-1.75,2.625s-1.95,2.451-2.1,2.351.511-1.367,1.587-2.752S1390.66,697.2,1390.792,697.318Z" transform="translate(-1386.917 -697.308)"/></g><g transform="translate(80.594 8.128)"><path class="f" d="M1398.526,690.739c.1.153-.985,1.048-2.35,2.1s-2.511,1.877-2.633,1.74.843-1.189,2.232-2.259S1398.429,690.591,1398.526,690.739Z" transform="translate(-1393.533 -690.719)"/></g><g transform="translate(91.008 2.41)"><path class="f" d="M1407.59,686.218c.06.174-1.214.771-2.8,1.458s-2.894,1.2-2.979,1.038,1.109-.945,2.719-1.64S1407.532,686.049,1407.59,686.218Z" transform="translate(-1401.809 -686.174)"/></g><g transform="translate(102.818)"><path class="f" d="M1414.291,684.4c.026.18-.641.452-1.489.608s-1.567.14-1.607-.038.627-.448,1.489-.607S1414.266,684.226,1414.291,684.4Z" transform="translate(-1411.194 -684.259)"/></g></g><g transform="translate(1443.153 664.426)"><path class="j" d="M1434.062,656.168s14.779-10.543,35.234-3.735c0,0,1.681,16.933-14.722,30.4" transform="translate(-1371.191 -650.143)"/><path class="k" d="M1397.036,686.8c.629.944,16.667,26.732,16.667,26.732l48.164-29.672a16.856,16.856,0,0,0,4.7-24.385h0a16.856,16.856,0,0,0-22.941-3.96Z" transform="translate(-1380.758 -649.495)"/><path class="l" d="M1410.5,703.862,1409.424,722s31.211-15.116,23.422-31.907Z" transform="translate(-1377.557 -639.821)"/><path class="l" d="M1422.688,668.527s-21.161-9.337-38.588,4.357l16.278,10.623Z" transform="translate(-1384.1 -646.197)"/><path class="j" d="M1420.83,679.875l-30.12,18.84s1.036,3.24,1.845,2.97c.678-.227,23.311-13.59,30.65-17.929a2.267,2.267,0,0,0,.593-3.4h0A2.276,2.276,0,0,0,1420.83,679.875Z" transform="translate(-1382.392 -642.551)"/><g transform="translate(54.585 11.45)"><circle class="m" cx="9.643" cy="9.643" r="9.643" transform="matrix(0.229, -0.973, 0.973, 0.229, 0, 18.774)"/><g transform="translate(1.625 1.68)"><path class="e" d="M1448.382,670.493c-.074.005-.034-.859-.425-2.323a9.6,9.6,0,0,0-3.523-5.158,9.39,9.39,0,0,0-8.875-1.292,9.241,9.241,0,0,0-4.325,3.263,9.3,9.3,0,0,0,0,11.02,9.246,9.246,0,0,0,4.326,3.264,9.389,9.389,0,0,0,8.877-1.294,9.62,9.62,0,0,0,3.523-5.157c.39-1.463.35-2.328.424-2.323a2.193,2.193,0,0,1,.035.619,7.619,7.619,0,0,1-.213,1.766,9.6,9.6,0,0,1-3.489,5.464,9.747,9.747,0,0,1-4.145,1.89,9.919,9.919,0,1,1,0-19.478,9.746,9.746,0,0,1,4.145,1.89,9.6,9.6,0,0,1,3.491,5.464,7.629,7.629,0,0,1,.213,1.767A2.193,2.193,0,0,1,1448.382,670.493Z" transform="translate(-1428.769 -660.577)"/></g></g><g transform="translate(70.029 2.312)"><path class="e" d="M1457.286,679.14c-.125.013-.271-1.871-1.009-4.8a36.7,36.7,0,0,0-1.676-5.023,36.284,36.284,0,0,0-7-10.837,36.657,36.657,0,0,0-3.888-3.6c-2.368-1.879-4.026-2.787-3.963-2.9a5.2,5.2,0,0,1,1.2.568,13,13,0,0,1,1.341.793c.506.335,1.1.691,1.7,1.168a32.238,32.238,0,0,1,4.044,3.547,33.958,33.958,0,0,1,7.119,11.025,32.4,32.4,0,0,1,1.569,5.146c.187.742.267,1.433.364,2.032a12.816,12.816,0,0,1,.17,1.549A5.165,5.165,0,0,1,1457.286,679.14Z" transform="translate(-1439.75 -651.981)"/></g><g transform="translate(67.202 3.157)"><path class="e" d="M1455.268,680.355c-.125.013-.276-1.9-1.027-4.885a37.873,37.873,0,0,0-1.7-5.113,37.242,37.242,0,0,0-7.086-11.048,37.646,37.646,0,0,0-3.936-3.68c-2.4-1.928-4.075-2.864-4.012-2.972a5.317,5.317,0,0,1,1.215.589,13.413,13.413,0,0,1,1.358.817c.512.345,1.116.711,1.723,1.2a33.245,33.245,0,0,1,4.092,3.632,34.937,34.937,0,0,1,7.205,11.235,33.324,33.324,0,0,1,1.593,5.234c.191.756.273,1.458.371,2.068a13.448,13.448,0,0,1,.177,1.574A5.341,5.341,0,0,1,1455.268,680.355Z" transform="translate(-1437.504 -652.652)"/></g></g><g transform="translate(1177.236 923.73)"><g transform="translate(47.259 85.974)"><path class="g" d="M1219.382,1010.15c-1.078-4.279,1.746-8.552,4.9-11.632s6.929-5.838,8.585-9.927c2.685-6.624-.824-15.241,3.724-20.755,2.675-3.244,7.446-4.307,9.824-7.776,1.247-1.82,1.66-4.061,2.158-6.21a63.2,63.2,0,0,1,15.883-29.32,54.829,54.829,0,0,1-6.327,28.308c-1.849,3.473-4.113,6.856-4.741,10.74-1.021,6.306,2.465,12.829.88,19.018-1.813,7.077-9.8,11.776-10.222,19.071-.354,6.167,4.992,11.612,4.557,17.773a16.664,16.664,0,0,1-2.786,7.3c-4.816,7.9-11.853,13.324-22.472,13.086l-13.01.381Z" transform="translate(-1210.337 -924.529)"/></g><g transform="translate(47.259 85.974)"><path class="k" d="M1219.382,1010.15c-1.078-4.279,1.746-8.552,4.9-11.632s6.929-5.838,8.585-9.927c2.685-6.624-.824-15.241,3.724-20.755,2.675-3.244,7.446-4.307,9.824-7.776,1.247-1.82,1.66-4.061,2.158-6.21a63.2,63.2,0,0,1,15.883-29.32,54.829,54.829,0,0,1-6.327,28.308c-1.849,3.473-4.113,6.856-4.741,10.74-1.021,6.306,2.465,12.829.88,19.018-1.813,7.077-9.8,11.776-10.222,19.071-.354,6.167,4.992,11.612,4.557,17.773a16.664,16.664,0,0,1-2.786,7.3c-4.816,7.9-11.853,13.324-22.472,13.086l-13.01.381Z" transform="translate(-1210.337 -924.529)"/></g><g transform="translate(0 40.725)"><path class="e" d="M1217.4,1049.824a10.415,10.415,0,0,1-3.581-.1,21.786,21.786,0,0,1-4.221-1.087,17.962,17.962,0,0,1-5.2-2.889,7.281,7.281,0,0,1-2.13-2.874,13.435,13.435,0,0,1-.59-3.89,37.759,37.759,0,0,0-.279-4.209,11.6,11.6,0,0,0-1.567-4.193c-1.519-2.7-4.049-5.267-4.852-8.931-.87-3.6-.209-7.494.418-11.4s1.236-8.149-.234-12.222c-1.371-4.076-4.2-7.764-5.6-12.359-1.394-4.641-.7-9.619-.975-14.534a19.276,19.276,0,0,0-1.655-7.232c-1.039-2.309-2.487-4.489-3.613-6.92-2.281-4.913-2.658-10.47-3.258-15.916q-.438-4.117-.886-8.317a40.715,40.715,0,0,0-1.4-8.328,73.488,73.488,0,0,0-3.065-8.067,26.66,26.66,0,0,1-1.486-4.213,42.333,42.333,0,0,1-.394-4.476,52.665,52.665,0,0,1,.4-9c.371-3,.93-5.974,1.27-8.98.02-.177.042-.355.061-.518l.07-.6.532.271a20.108,20.108,0,0,1,6.969,5.948,31.892,31.892,0,0,1,4.257,7.953c2.141,5.6,2.89,11.462,3.954,17.059,1.037,5.595,2.416,11.1,5.255,15.762,1.412,2.324,3.126,4.448,4.622,6.717a18.4,18.4,0,0,1,3.185,7.432c.739,5.508-2.321,10.324-1.716,15.2a16.859,16.859,0,0,0,2.334,6.765c1.169,2.085,2.547,4.019,3.853,5.965a38.175,38.175,0,0,1,3.458,6.021,19.027,19.027,0,0,1,1.561,6.53c.293,4.389-.354,8.547-.055,12.477a28.721,28.721,0,0,0,3.15,10.71c1.555,3.209,3.29,6.112,4.739,8.927a45.829,45.829,0,0,1,1.949,4.156,20.422,20.422,0,0,1,1.119,4.119,25.958,25.958,0,0,1,.053,7.426,18.689,18.689,0,0,1-3.775,9.447,9.025,9.025,0,0,1-1.058,1.134,5.163,5.163,0,0,1-.858.721c-.487.355-.748.517-.748.517a16.475,16.475,0,0,0,2.533-2.477,18.843,18.843,0,0,0,3.585-9.385,25.838,25.838,0,0,0-.125-7.318,20.152,20.152,0,0,0-1.128-4.023c-.546-1.345-1.226-2.711-1.96-4.1-1.462-2.79-3.215-5.682-4.8-8.912a29.178,29.178,0,0,1-3.261-10.9c-.319-4.013.308-8.186,0-12.472a18.367,18.367,0,0,0-1.533-6.311,37.644,37.644,0,0,0-3.418-5.9c-1.306-1.933-2.7-3.875-3.9-6a17.589,17.589,0,0,1-2.443-7.041c-.6-5.194,2.439-10.042,1.686-15.161a17.653,17.653,0,0,0-3.078-7.11c-1.472-2.226-3.2-4.353-4.648-6.736-2.929-4.8-4.33-10.408-5.378-16.025-1.075-5.63-1.825-11.428-3.927-16.915a31.081,31.081,0,0,0-4.146-7.744,19.263,19.263,0,0,0-6.676-5.7l.6-.329-.063.525c-.344,3.042-.9,6.021-1.27,8.986a51.9,51.9,0,0,0-.4,8.864,42.291,42.291,0,0,0,.375,4.343,26.292,26.292,0,0,0,1.436,4.063,73.8,73.8,0,0,1,3.089,8.157,41.385,41.385,0,0,1,1.417,8.465q.442,4.2.876,8.323c.59,5.47.967,10.937,3.164,15.681,1.085,2.361,2.531,4.548,3.6,6.931a20.02,20.02,0,0,1,1.7,7.5c.254,5.022-.427,9.926.906,14.381,1.324,4.433,4.14,8.14,5.549,12.347,1.511,4.25.851,8.639.208,12.523-.651,3.913-1.3,7.721-.484,11.184.732,3.5,3.191,6.04,4.74,8.82a12.03,12.03,0,0,1,1.589,4.359,37.847,37.847,0,0,1,.249,4.26,13.229,13.229,0,0,0,.534,3.785,6.966,6.966,0,0,0,2,2.748,17.9,17.9,0,0,0,5.079,2.9,22.4,22.4,0,0,0,4.161,1.154,16.686,16.686,0,0,0,2.644.271C1217.093,1049.811,1217.4,1049.824,1217.4,1049.824Z" transform="translate(-1172.781 -888.57)"/><g transform="translate(4.387 7.777)"><path class="e" d="M1176.273,894.75a1.57,1.57,0,0,1,.123.394c.074.312.166.7.281,1.173.249,1.026.546,2.575,1.026,4.51.5,1.929,1.669,4.116,2.661,6.809,1.034,2.671,2.081,5.767,3.04,9.244s1.83,7.333,2.726,11.464c.925,4.125,1.846,8.548,4.092,12.727,1.053,2.119,2.242,4.265,3.182,6.61a30.722,30.722,0,0,1,1.831,7.475,150.963,150.963,0,0,0,2.714,15.752l7.184,30.1c2.264,9.226,4.3,17.54,6.025,24.548,1.674,6.945,3.033,12.589,3.992,16.568l1.044,4.515c.1.478.184.866.251,1.179a1.475,1.475,0,0,1,.058.409,1.505,1.505,0,0,1-.14-.388c-.089-.31-.2-.689-.332-1.16q-.436-1.631-1.2-4.476c-1.021-3.965-2.468-9.585-4.25-16.5-1.769-7-3.868-15.3-6.2-24.505-2.231-9.26-4.681-19.43-7.253-30.108a148.569,148.569,0,0,1-2.709-15.818,30,30,0,0,0-1.762-7.294c-.906-2.285-2.075-4.421-3.131-6.562-2.264-4.258-3.191-8.815-4.078-12.922-.867-4.143-1.688-7.989-2.619-11.456s-1.919-6.56-2.907-9.234c-.941-2.684-2.071-4.9-2.54-6.891-.439-1.982-.678-3.515-.876-4.559-.081-.482-.147-.873-.2-1.189A1.5,1.5,0,0,1,1176.273,894.75Z" transform="translate(-1176.268 -894.75)"/></g></g><g transform="translate(33.478)"><path class="j" d="M1208.235,1058.212c-8.468-5.1-10.82-20.441-7.223-29.649s9.848-17.6,10.86-27.434c.779-7.558-1.654-15.333.15-22.715,2.433-9.961,12.216-17.632,12.162-27.887-.03-5.753-3.273-11.186-2.98-16.931.36-7.048,5.8-12.61,9.19-18.8,5.183-9.476,5.585-20.714,7.4-31.362s5.942-22.039,15.418-27.225c1.344,9.058,3.689,15.268,2.873,27.523-.295,4.4-5.456,12.8-6.206,22.444-.449,5.765-.77,11.539-1.155,17.308-.375,5.615-.771,11.33-2.814,16.574-1.565,4.018-4.066,7.661-5.235,11.811-2.2,7.808.584,16.295-1.2,24.209-1.512,6.7-6.191,12.455-7.179,19.257-1.388,9.556,4.745,19.527,1.525,28.632-1.6,4.518-5.342,8.132-6.425,12.8-.841,3.622.031,7.466-.731,11.105-1.229,5.863-12.452,10.358-18.427,9.961" transform="translate(-1199.385 -856.207)"/><g transform="translate(8.845 8.97)"><path class="e" d="M1249,863.335a2.4,2.4,0,0,1-.04.511c-.051.38-.117.87-.2,1.486-.2,1.306-.433,3.224-.889,5.7-.488,2.493-1.791,5.294-2.838,8.675-1.1,3.371-2.2,7.261-3.181,11.617-1,4.354-1.833,9.173-2.714,14.362-.91,5.149-1.841,10.841-4.448,16.232-1.207,2.709-2.559,5.42-3.579,8.31a37.412,37.412,0,0,0-1.845,9.171,185.287,185.287,0,0,1-2.6,19.779c-2.679,13.393-5.23,26.149-7.552,37.76-2.444,11.565-4.646,21.984-6.5,30.755-1.87,8.708-3.389,15.771-4.452,20.719-.534,2.4-.953,4.285-1.251,5.625-.143.6-.258,1.086-.347,1.459a2.368,2.368,0,0,1-.145.491,2.205,2.205,0,0,1,.062-.508c.068-.377.155-.863.265-1.475.26-1.349.629-3.243,1.1-5.656,1-4.961,2.431-12.044,4.193-20.774,1.8-8.781,3.945-19.212,6.323-30.791,2.3-11.607,4.828-24.361,7.482-37.75a187.3,187.3,0,0,0,2.612-19.714,38.006,38.006,0,0,1,1.906-9.353c1.051-2.952,2.421-5.674,3.629-8.361,2.591-5.312,3.522-10.87,4.469-16.037.91-5.178,1.784-10.013,2.82-14.374,1.019-4.366,2.164-8.262,3.314-11.632,1.1-3.393,2.44-6.17,2.964-8.6.5-2.434.785-4.37,1.04-5.659.117-.61.21-1.1.282-1.472A2.219,2.219,0,0,1,1249,863.335Z" transform="translate(-1206.414 -863.335)"/></g></g></g><g transform="translate(1637.01 904.849)"><g transform="translate(0 22.852)"><rect class="k" width="8.77" height="28.335"/></g><g transform="translate(16.143 11.19)"><rect class="k" width="8.77" height="39.996"/></g><g transform="translate(33.325 5.745)"><rect class="k" width="8.77" height="45.442"/></g><g transform="translate(50.507)"><rect class="k" width="8.77" height="51.187"/></g></g><g transform="translate(1316.678 949.677)"><g transform="translate(14.753 14.514)"><path class="f" d="M1305.242,888.632a6.028,6.028,0,0,1,1.885.59,7.935,7.935,0,0,1,3.756,3.8,8.031,8.031,0,0,1,.766,3.673,8.149,8.149,0,0,1-1.264,4.117,8.15,8.15,0,0,1-3.606,3.1,8.131,8.131,0,0,1-9.455-2.12,8.17,8.17,0,0,1-1.939-4.344,8.176,8.176,0,0,1,.617-4.263,8.033,8.033,0,0,1,2.263-2.992,7.931,7.931,0,0,1,5.021-1.833,6.023,6.023,0,0,1,1.957.272c-.009.055-.7-.138-1.952-.094a7.95,7.95,0,0,0-4.818,1.9,7.784,7.784,0,0,0-2.668,6.955,7.791,7.791,0,0,0,1.857,4.1,7.725,7.725,0,0,0,8.938,2,7.8,7.8,0,0,0,3.432-2.916,7.794,7.794,0,0,0,.559-7.428,7.947,7.947,0,0,0-3.544-3.779C1305.931,888.8,1305.225,888.686,1305.242,888.632Z" transform="translate(-1295.317 -888.36)"/></g><path class="f" d="M1314.665,883.078a1.735,1.735,0,0,1-.018-.279c0-.209-.011-.488-.019-.851-.011-.78-.026-1.9-.047-3.361l.057.072-7.262-1.584.131-.064-1.91,4.065-.034.073-.082,0a18.19,18.19,0,0,0-4.734.839l-.087.028-.066-.064c-.994-.985-2.071-2.051-3.193-3.161l.2.023-6.269,3.992.074-.213c.468,1.31.985,2.752,1.515,4.229l.038.108-.078.084a18.134,18.134,0,0,0-2.755,3.924l-.054.107h-.121l-4.49.016.2-.16c-.508,2.279-1.057,4.736-1.618,7.255l-.116-.239,4.057,1.923.12.057,0,.132a18.068,18.068,0,0,0,.826,4.715l.04.127-.1.1-3.167,3.185.03-.278c1.26,1.988,2.611,4.119,3.98,6.278l-.268-.093,4.232-1.508.131-.046.1.094a18.018,18.018,0,0,0,3.907,2.753h0c.055.091-.122-.2.125.2v1.126l0,1.126q0,1.123,0,2.239l-.179-.223,7.253,1.628-.254.125q.974-2.048,1.928-4.056l.058-.123.136-.005a17.964,17.964,0,0,0,4.717-.818l.128-.04.094.094,3.182,3.172-.271-.029,6.282-3.972-.086.248q-.764-2.156-1.5-4.234l-.042-.117.084-.091a17.989,17.989,0,0,0,2.766-3.914l.057-.107h.12l4.49,0-.185.15c.578-2.551,1.123-4.958,1.642-7.25l.1.2-4.052-1.937-.089-.043,0-.1a18.13,18.13,0,0,0-.812-4.735l-.026-.087.064-.064,3.18-3.172-.019.167c-1.53-2.439-2.834-4.518-3.95-6.3l.121.042-4.242,1.479-.042.015-.033-.03a18.8,18.8,0,0,0-2.884-2.221l-.772-.466a1.934,1.934,0,0,1-.254-.157,2.41,2.41,0,0,1,.273.123c.177.091.446.229.793.434a17.593,17.593,0,0,1,2.945,2.178l-.074-.015,4.223-1.534.075-.028.045.069,4.005,6.262.058.091-.077.078-3.158,3.194.036-.151a18.311,18.311,0,0,1,.852,4.812l-.093-.142,4.061,1.918.127.059-.03.137c-.51,2.294-1.046,4.7-1.613,7.256l-.033.147h-.152l-4.491.018.176-.107a18.424,18.424,0,0,1-2.816,4.009l.043-.208q.742,2.078,1.511,4.231l.057.159-.142.089-6.274,3.984-.147.094-.123-.123q-1.57-1.563-3.186-3.167l.223.054a18.416,18.416,0,0,1-4.832.843l.194-.127q-.951,2.008-1.924,4.057l-.077.164-.177-.039q-3.575-.8-7.253-1.625l-.179-.04v-.183l-.005-2.239,0-1.126v-1.126c.247.4.068.112.122.2h0a18.476,18.476,0,0,1-4.007-2.824l.232.048-4.233,1.506-.171.061-.1-.154-3.975-6.281-.1-.151.126-.127,3.172-3.181-.054.223a18.6,18.6,0,0,1-.838-4.832l.125.188-4.055-1.93-.153-.073.038-.166,1.635-7.251.037-.159h.162l4.491,0-.175.107a18.422,18.422,0,0,1,2.828-4l-.039.191c-.525-1.48-1.036-2.925-1.5-4.236l-.049-.136.122-.077,6.287-3.963.111-.07.092.092c1.114,1.116,2.186,2.188,3.175,3.18l-.151-.038a18.375,18.375,0,0,1,4.815-.822l-.116.077,1.942-4.048.04-.084.091.021,7.242,1.669.058.013v.058c-.014,1.446-.024,2.558-.031,3.331-.006.367-.011.651-.015.862A2.521,2.521,0,0,1,1314.665,883.078Z" transform="translate(-1283.593 -876.826)"/></g><g class="b" transform="translate(1299.977 892.715)"><path class="n" d="M1304.4,838.322a20.2,20.2,0,0,1,4.379,3.084l4.679-1.665,4.4,6.941-3.5,3.52a20.117,20.117,0,0,1,.919,5.278l4.485,2.129-1.8,8.018-4.964.011a20.06,20.06,0,0,1-3.086,4.379l1.666,4.679-6.94,4.4-3.52-3.5a20.135,20.135,0,0,1-5.279.919l-2.129,4.485-8.018-1.8-.01-4.965a20.07,20.07,0,0,1-4.379-3.084l-4.68,1.665-4.4-6.941,3.5-3.52a20.222,20.222,0,0,1-.919-5.276l-4.484-2.13,1.8-8.018,4.964-.01a20.118,20.118,0,0,1,3.086-4.38l-1.666-4.679,6.94-4.4,3.521,3.5a20.167,20.167,0,0,1,5.278-.919l2.129-4.484,8.018,1.8.011,4.964Zm-7.069,9.435a8.815,8.815,0,1,0,6.672,10.53A8.813,8.813,0,0,0,1297.331,847.758Z" transform="translate(-1270.321 -831.56)"/><path class="o" d="M1304.4,838.322a20.2,20.2,0,0,1,4.379,3.084l4.679-1.665,4.4,6.941-3.5,3.52a20.117,20.117,0,0,1,.919,5.278l4.485,2.129-1.8,8.018-4.964.011a20.06,20.06,0,0,1-3.086,4.379l1.666,4.679-6.94,4.4-3.52-3.5a20.135,20.135,0,0,1-5.279.919l-2.129,4.485-8.018-1.8-.01-4.965a20.07,20.07,0,0,1-4.379-3.084l-4.68,1.665-4.4-6.941,3.5-3.52a20.222,20.222,0,0,1-.919-5.276l-4.484-2.13,1.8-8.018,4.964-.01a20.118,20.118,0,0,1,3.086-4.38l-1.666-4.679,6.94-4.4,3.521,3.5a20.167,20.167,0,0,1,5.278-.919l2.129-4.484,8.018,1.8.011,4.964Zm-7.069,9.435a8.815,8.815,0,1,0,6.672,10.53A8.813,8.813,0,0,0,1297.331,847.758Z" transform="translate(-1270.321 -831.56)"/></g><g class="b" transform="translate(1285.224 942.773)"><path class="o" d="M1278.437,875.277a11.755,11.755,0,0,1,2.548,1.8l2.724-.97,2.56,4.041-2.04,2.049a11.74,11.74,0,0,1,.536,3.073l2.61,1.24-1.047,4.667-2.891.006a11.693,11.693,0,0,1-1.8,2.549l.969,2.724-4.039,2.56-2.05-2.04a11.72,11.72,0,0,1-3.072.535l-1.24,2.611-4.669-1.047-.006-2.89a11.754,11.754,0,0,1-2.548-1.8l-2.724.969-2.561-4.041,2.041-2.049a11.713,11.713,0,0,1-.535-3.072l-2.611-1.241,1.047-4.667,2.891-.006a11.723,11.723,0,0,1,1.8-2.549l-.969-2.723,4.039-2.561,2.05,2.041a11.676,11.676,0,0,1,3.072-.535l1.24-2.611,4.667,1.047.007,2.89Zm-4.115,5.492a5.131,5.131,0,1,0,3.883,6.131A5.132,5.132,0,0,0,1274.322,880.769Z" transform="translate(-1258.597 -871.34)"/><g class="p" transform="translate(9.468 9.303)"><path class="o" d="M1272.378,878.859a5.131,5.131,0,1,0,3.883,6.131A5.132,5.132,0,0,0,1272.378,878.859Z" transform="translate(-1266.121 -878.733)"/></g></g><g transform="translate(1345.996 819.076)"><g transform="translate(139.276)"><path class="e" d="M1496.473,849.628a12.288,12.288,0,0,0,8.889-12.263c-.153-2.463-1.069-4.86-.964-7.325.164-3.826,2.7-7.06,4.613-10.379s3.193-7.7.965-10.812c-1.445-2.021-4-2.931-5.746-4.695-1.711-1.725-2.526-4.117-3.442-6.37s-2.106-4.574-4.219-5.777-5.353-.67-6.211,1.606" transform="translate(-1398.764 -768.301)"/><path class="e" d="M1492.419,792.292c3.77-2.392,4.681-7.944,2.637-11.913s-6.377-6.382-10.785-7.093a20.55,20.55,0,0,0-17.705,5.868c-2.432,2.5-4.4,5.773-7.7,6.921-2.9,1.009-6.108.1-9.152.492-4.081.529-7.579,3.43-9.672,6.974s-2.956,7.676-3.44,11.763c-.443,3.75-.736,7.866-3.338,10.6-2.537,2.669-6.546,3.235-9.7,5.134-5.937,3.573-7.861,12.423-3.944,18.138,1.25,1.822,3.042,3.493,3.188,5.7.132,2.013-1.169,3.805-1.778,5.728-1.569,4.952,2.484,10.833,7.669,11.132,2.617.15,5.422-.871,7.769.3,2.331,1.163,3.2,3.974,4.689,6.109a11.21,11.21,0,0,0,13.666,3.53c1.925-.944,3.744-2.5,5.883-2.359s3.817,1.968,5.917,2.373c2.751.532,5.362-1.494,7-3.767s2.775-4.954,4.869-6.817c2.741-2.437,6.591-3.04,10.059-4.234a28.374,28.374,0,0,0,16.024-39.749" transform="translate(-1417.571 -773.04)"/><g transform="translate(32.702 15.981)"><path class="q" d="M1493.986,793.961a6.027,6.027,0,0,1,5.378,6.125h0l-3.6,81.381c-.151,9.612-14.2,15.012-24.49,14.772h0c-10.393-.242-10.728-5.338-10.857-14.483-.217-15.277-.2-21.011-.205-20.924,0,0-13.126-2.21-15.809-19.347-1.334-8.524-.875-22.493-.131-33.911.671-10.277,7.509-22.872,17.748-21.766Z" transform="translate(-1443.558 -785.74)"/><g transform="translate(3.699 26.808)"><g transform="translate(0.789 4.136)"><path class="e" d="M1447.126,812.313a2.2,2.2,0,0,0,2.113,2.221,2.1,2.1,0,0,0,2.27-1.976,2.2,2.2,0,0,0-2.111-2.224A2.1,2.1,0,0,0,1447.126,812.313Z" transform="translate(-1447.125 -810.331)"/></g><path class="e" d="M1446.532,809.344c.272.287,1.939-.941,4.3-.93,2.362-.023,4.095,1.2,4.352.909.127-.127-.15-.646-.9-1.2a6.026,6.026,0,0,0-3.482-1.081,5.781,5.781,0,0,0-3.427,1.1C1446.645,808.7,1446.4,809.215,1446.532,809.344Z" transform="translate(-1446.497 -807.044)"/></g><g transform="translate(26.939 27.3)"><g transform="translate(1.117 3.644)"><path class="e" d="M1465.855,812.313a2.2,2.2,0,0,0,2.113,2.221,2.1,2.1,0,0,0,2.27-1.976,2.2,2.2,0,0,0-2.112-2.224A2.1,2.1,0,0,0,1465.855,812.313Z" transform="translate(-1465.854 -810.331)"/></g><path class="e" d="M1465,809.735c.273.287,1.942-.941,4.3-.929,2.362-.023,4.095,1.2,4.352.909.126-.128-.147-.646-.9-1.2a6.026,6.026,0,0,0-3.482-1.082,5.8,5.8,0,0,0-3.427,1.1C1465.116,809.09,1464.868,809.607,1465,809.735Z" transform="translate(-1464.966 -807.435)"/></g><g transform="translate(12.333 27.419)"><path class="e" d="M1459.38,827.226a15.718,15.718,0,0,0-3.839-.7c-.6-.064-1.175-.185-1.276-.6a3.078,3.078,0,0,1,.408-1.789q.855-2.19,1.8-4.593c2.494-6.54,4.3-11.919,4.037-12.016s-2.5,5.123-4.994,11.663q-.9,2.42-1.721,4.622a3.5,3.5,0,0,0-.318,2.368,1.514,1.514,0,0,0,.991.885,4.025,4.025,0,0,0,1.024.145A15.358,15.358,0,0,0,1459.38,827.226Z" transform="translate(-1453.359 -807.529)"/></g><g transform="translate(16.658 69.023)"><path class="r" d="M1456.8,846.66a43.586,43.586,0,0,0,22.959-6.069s-5.815,12.079-22.959,10.438Z" transform="translate(-1456.796 -840.591)"/></g><g transform="translate(19.104 51.218)"><path class="g" d="M1458.977,828.042a4.261,4.261,0,0,1,3.823-1.574,3.884,3.884,0,0,1,2.683,1.447,2.462,2.462,0,0,1,.181,2.818,2.86,2.86,0,0,1-3.1.778,8.956,8.956,0,0,1-3.017-1.811,2.6,2.6,0,0,1-.673-.7.789.789,0,0,1,.005-.88" transform="translate(-1458.74 -826.442)"/></g><g transform="translate(17.759 48.767)"><path class="e" d="M1465.22,824.494c-.384-.023-.4,2.543-2.6,4.36s-4.932,1.529-4.952,1.887c-.036.161.608.5,1.762.534a6.389,6.389,0,0,0,4.135-1.431,5.565,5.565,0,0,0,2.012-3.656C1465.681,825.117,1465.4,824.48,1465.22,824.494Z" transform="translate(-1457.671 -824.494)"/></g><g transform="translate(25.906 23.696)"><path class="e" d="M1464.157,806.334c.233.643,2.594.344,5.367.683,2.78.286,5.016,1.1,5.385.526.165-.276-.224-.881-1.126-1.505a9.4,9.4,0,0,0-8.192-.922C1464.573,805.524,1464.058,806.028,1464.157,806.334Z" transform="translate(-1464.145 -804.571)"/></g><g transform="translate(4.558 19.827)"><path class="e" d="M1447.24,803.936c.414.539,2.045-.015,4-.038,1.958-.091,3.616.369,4-.191.167-.273-.093-.812-.817-1.321a5.8,5.8,0,0,0-6.448.185C1447.286,803.122,1447.058,803.674,1447.24,803.936Z" transform="translate(-1447.18 -801.496)"/></g></g><path class="e" d="M1475.418,788.476A16.641,16.641,0,0,1,1489,785.933c4.572,1.314,8.359,5.431,8.514,10.087.1,3.028-1.207,6.245.136,8.973,1.278,2.6,4.428,3.654,6.662,5.537a10.223,10.223,0,0,1,2.367,12.361c-1.87,3.435-5.8,5.952-6.133,9.829-.311,3.648,2.765,6.727,3.512,10.314.825,3.958-1.365,8.05-4.5,10.675s-7.1,4.071-10.982,5.466c-3.024,1.088-6.263,2.193-9.4,1.481a9.625,9.625,0,0,1-7.047-8.035,13.1,13.1,0,0,1,3.568-10.343c2.2-2.424,5.286-4.482,5.815-7.682.824-4.982-5.113-9.075-4.746-14.11.188-2.6,2.018-4.745,3.543-6.88s2.853-4.82,1.918-7.257c-1.216-3.166-5.38-3.993-7.894-6.316a7.691,7.691,0,0,1-2.1-7.791,7.932,7.932,0,0,1,6.211-5.3" transform="translate(-1403.535 -769.847)"/><path class="e" d="M1486.935,785.8a11.72,11.72,0,0,1-13.83,11.575c-2.617-.478-5.485-1.8-7.751-.406-2.383,1.467-2.482,5.059-4.6,6.893-3.02,2.622-7.822.162-11.656,1.3-2.961.877-4.811,3.707-6.777,6.089s-4.914,4.645-7.875,3.765a34.815,34.815,0,0,1,1.174-7.9,11.689,11.689,0,0,1,4.487-6.437,43.37,43.37,0,0,0,3.786-2.2c2.458-1.983,3.026-5.437,4.544-8.207a12.849,12.849,0,0,1,9.788-6.493c3.37-.345,6.843.667,10.129-.161,2.429-.613,4.549-2.19,7.009-2.656,4.792-.911,9.247,2.528,12.72,5.951" transform="translate(-1413.21 -771.033)"/><g transform="translate(75.847 18.543)"><path class="s" d="M1507.018,824.956a3.708,3.708,0,0,0,.38-1.976,4.976,4.976,0,0,0-3.449-3.941,25.458,25.458,0,0,0-3.766-1.013,11.042,11.042,0,0,1-4.266-1.758,6.012,6.012,0,0,1-2.22-4.584,48.047,48.047,0,0,1,.264-5.393,12.394,12.394,0,0,0-.135-2.636,5.632,5.632,0,0,0-1.011-2.25,8.6,8.6,0,0,0-4.125-2.366,18.523,18.523,0,0,1-4.2-1.812,14.784,14.784,0,0,1-6.122-7.411,10.2,10.2,0,0,1-.44-1.5,1.709,1.709,0,0,1-.075-.54c.059-.015.229.716.752,1.945a15.281,15.281,0,0,0,3.123,4.656,15.484,15.484,0,0,0,7.155,4.088,9.087,9.087,0,0,1,4.432,2.534,6.251,6.251,0,0,1,1.15,2.527,12.807,12.807,0,0,1,.15,2.793,50.943,50.943,0,0,0-.278,5.32,5.407,5.407,0,0,0,1.95,4.15,10.664,10.664,0,0,0,4.021,1.706,24.557,24.557,0,0,1,3.818,1.114,6.034,6.034,0,0,1,2.655,1.993,4.557,4.557,0,0,1,.871,2.354,2.986,2.986,0,0,1-.311,1.553A1.164,1.164,0,0,1,1507.018,824.956Z" transform="translate(-1477.845 -787.776)"/></g><g transform="translate(2.884 3.567)"><path class="s" d="M1421.081,838.723a1.1,1.1,0,0,1-.281-.131,1.906,1.906,0,0,1-.643-.649,3.463,3.463,0,0,1,.349-3.384,4.524,4.524,0,0,1,1.836-1.755,23.625,23.625,0,0,1,2.755-1.161,8.518,8.518,0,0,0,2.882-1.633,6.175,6.175,0,0,0,1.646-3.25c.29-1.286.374-2.69.607-4.154a9.118,9.118,0,0,1,1.7-4.319c2-2.63,5.265-4.025,7.705-6.491a11.865,11.865,0,0,0,2.677-4.539,31.115,31.115,0,0,0,1.211-5.486c.531-3.762,1.065-7.981,3.6-11.425a8.341,8.341,0,0,1,5.169-3.34,18.105,18.105,0,0,1,5.966.149,21.651,21.651,0,0,0,5.574.326,7.25,7.25,0,0,0,4.555-2.352c2.338-2.521,3.682-5.918,6.556-7.656a10.959,10.959,0,0,1,8.655-1.193,9.6,9.6,0,0,1,5.7,4.43,10.786,10.786,0,0,1,1.48,5.283,9.272,9.272,0,0,1-.549,3.428,5.7,5.7,0,0,1-.5,1.1c-.033-.014.151-.39.38-1.14a9.74,9.74,0,0,0,.418-3.379,10.668,10.668,0,0,0-1.539-5.1,9.241,9.241,0,0,0-5.508-4.17,10.5,10.5,0,0,0-8.24,1.205,12.046,12.046,0,0,0-3.306,3.411,38.154,38.154,0,0,1-3.1,4.2,8.535,8.535,0,0,1-2.188,1.715,8.11,8.11,0,0,1-2.724.842,22.114,22.114,0,0,1-5.742-.31,17.6,17.6,0,0,0-5.752-.146,7.69,7.69,0,0,0-4.773,3.094,15.857,15.857,0,0,0-2.449,5.371,52.9,52.9,0,0,0-1.038,5.757,31.632,31.632,0,0,1-1.255,5.595,12.457,12.457,0,0,1-2.836,4.755c-2.583,2.561-5.821,3.927-7.7,6.4a8.58,8.58,0,0,0-1.633,4.072c-.243,1.428-.341,2.841-.654,4.174a6.582,6.582,0,0,1-1.811,3.449,8.809,8.809,0,0,1-3.039,1.674,24.191,24.191,0,0,0-2.738,1.095,4.287,4.287,0,0,0-1.764,1.612,3.356,3.356,0,0,0-.451,3.189A2.744,2.744,0,0,0,1421.081,838.723Z" transform="translate(-1419.862 -775.875)"/></g></g><g transform="translate(94.029 93.886)"><path class="g" d="M1388.92,932.693l30.392-2.785s18.7-49.261,41.759-61.207l14.935,26.089-31.969,60.068h-62.423Z" transform="translate(-1381.614 -842.21)"/><path class="j" d="M1388.92,932.693l30.392-2.785s18.7-49.261,41.759-61.207l14.935,26.089-31.969,60.068h-62.423Z" transform="translate(-1381.614 -842.21)"/><g transform="translate(19.301 94.883)"><path class="t" d="M1396.966,932.562c-.156-.092.992-2.3,2.561-4.922s2.969-4.68,3.124-4.587-.992,2.3-2.562,4.923S1397.121,932.655,1396.966,932.562Z" transform="translate(-1396.952 -923.05)"/></g><g transform="translate(33.921 95.191)"><path class="t" d="M1415.5,931.9c-.141.113-1.8-1.72-3.713-4.1s-3.344-4.393-3.2-4.506,1.8,1.72,3.714,4.1S1415.637,931.789,1415.5,931.9Z" transform="translate(-1408.57 -923.295)"/></g><g transform="translate(44.257 84.532)"><path class="t" d="M1417.113,922.794c-.181,0-.328-1.783-.328-3.984s.147-3.985.328-3.985.327,1.784.327,3.985S1417.294,922.794,1417.113,922.794Z" transform="translate(-1416.784 -914.825)"/></g><g transform="translate(28.431 106.533)"><path class="t" d="M1409.666,935.894c-.1.152-1.4-.524-2.906-1.508s-2.646-1.906-2.547-2.057,1.4.523,2.905,1.509S1409.765,935.743,1409.666,935.894Z" transform="translate(-1404.207 -932.308)"/></g><g transform="translate(46.523 64.836)"><path class="t" d="M1423.4,899.174c.165.073-.775,2.531-2.1,5.488s-2.533,5.294-2.7,5.22.775-2.531,2.1-5.488S1423.236,899.1,1423.4,899.174Z" transform="translate(-1418.585 -899.173)"/></g><g transform="translate(58.401 44.859)"><path class="t" d="M1433.28,883.315c.109.143-.978,1.151-2.426,2.25s-2.714,1.871-2.822,1.728.977-1.151,2.426-2.25S1433.171,883.17,1433.28,883.315Z" transform="translate(-1428.024 -883.297)"/></g><path class="j" d="M1468.325,950.431,1484,887.125a21.536,21.536,0,0,1,24.723-16.018h0a21.535,21.535,0,0,1,17.46,24.494l-9.6,61.872a30.954,30.954,0,0,1-25.685,25.044l-12.459,1.944Z" transform="translate(-1359.21 -841.677)"/><g transform="translate(127.343 21.618)"><path class="e" d="M1513.98,868.55a14.162,14.162,0,0,0-5.591-2.81,14.929,14.929,0,0,0-6.747.047,18.307,18.307,0,0,0-7.333,3.824c-4.594,3.851-7.095,8.854-8.792,12.36-.84,1.779-1.479,3.243-1.935,4.248a8.661,8.661,0,0,1-.765,1.539,8.553,8.553,0,0,1,.53-1.636c.384-1.036.959-2.529,1.749-4.344a46.968,46.968,0,0,1,3.223-6.179,27.477,27.477,0,0,1,5.572-6.492,18.446,18.446,0,0,1,7.616-3.909,14.9,14.9,0,0,1,6.994.092,11.886,11.886,0,0,1,4.247,2.05,7.994,7.994,0,0,1,.951.862C1513.9,868.416,1514,868.534,1513.98,868.55Z" transform="translate(-1482.81 -864.828)"/></g><g transform="translate(49.098 39.584)"><path class="e" d="M1441.247,879.106a3.117,3.117,0,0,1-.438.588c-.352.423-.8.954-1.342,1.606-1.16,1.4-2.815,3.438-4.7,6.074a64.71,64.71,0,0,0-10.7,22.717c-2.187,9.653-2.294,18.692-2.665,25.166-.156,3.247-.308,5.875-.448,7.689-.076.847-.136,1.538-.185,2.086a3.109,3.109,0,0,1-.109.724,3.035,3.035,0,0,1-.023-.732c.016-.55.038-1.242.062-2.091.06-1.906.141-4.512.24-7.692.254-6.474.283-15.547,2.49-25.3a62.541,62.541,0,0,1,10.965-22.843c1.944-2.616,3.662-4.619,4.884-5.968.605-.68,1.1-1.18,1.436-1.527A3.144,3.144,0,0,1,1441.247,879.106Z" transform="translate(-1420.631 -879.105)"/></g><path class="j" d="M1541.9,887.1c-1.719-11.32-7.972-14.037-14.446-17.562-2.118-1.153-12.324-3.773-20.415-5.745-.773-4.905-2.158-13.68-2.463-15.532-.427-2.6-41.219,3.9-41.736,4.88-.342.648-1.281,10.813-1.875,17.588l-9.766,3.413-12.747,16.208-6.634,9.42a50.751,50.751,0,0,0-8.217,18.087c-1.607,7.217-1.828,14.256-1.828,21.922l-1.97,41.558,85.349,24.136,6.608-42.1,22.02-29.973C1535.663,921.275,1544.019,901.015,1541.9,887.1Z" transform="translate(-1371.746 -847.649)"/><g transform="translate(95.184 4.771)"><path class="e" d="M1459.385,871.055a13.012,13.012,0,0,1-.568-2.884c-.267-1.791-.591-4.271-.91-7.013-.149-1.358-.29-2.651-.423-3.871a27.239,27.239,0,0,1-.225-3.2,3.846,3.846,0,0,1,.608-2.127c.329-.427.612-.544.629-.515.035.042-.182.228-.413.651a4.087,4.087,0,0,0-.361,1.995c.023.872.219,1.937.362,3.127.15,1.218.308,2.51.474,3.866.317,2.743.569,5.231.719,7.035A13.121,13.121,0,0,1,1459.385,871.055Z" transform="translate(-1457.255 -851.441)"/></g><g transform="translate(105.958 3.049)"><path class="e" d="M1468.056,868.837a9.913,9.913,0,0,1-.908-2.639,42.283,42.283,0,0,1-1.233-13.366,9.8,9.8,0,0,1,.409-2.76c.2.016-.167,4.248.326,9.433C1467.113,864.691,1468.252,868.784,1468.056,868.837Z" transform="translate(-1465.816 -850.072)"/></g><g transform="translate(125.266 0.564)"><path class="e" d="M1484.345,866.4c-.216-.023.688-4.252-.233-9.386-.861-5.147-3.136-8.824-2.94-8.918a8.48,8.48,0,0,1,1.495,2.368,23.849,23.849,0,0,1,2.288,13.2A8.456,8.456,0,0,1,1484.345,866.4Z" transform="translate(-1481.16 -848.097)"/></g><g transform="translate(70.482 45.902)"><path class="t" d="M1437.635,894.11c-.147-.1,1.266-2.524,3.344-5.289s4.008-4.8,4.143-4.69-1.559,2.333-3.618,5.084S1437.791,894.212,1437.635,894.11Z" transform="translate(-1437.625 -884.126)"/></g><g transform="translate(83.44 32.045)"><path class="t" d="M1454.2,881.319c-.145.109-1.664-1.637-3.394-3.9s-3.018-4.188-2.873-4.3,1.662,1.636,3.394,3.9S1454.343,881.208,1454.2,881.319Z" transform="translate(-1447.922 -873.114)"/></g><g transform="translate(101.623 30.414)"><path class="t" d="M1470.559,871.827c.118.145-1.768,1.866-4.014,4.062s-4.024,4.029-4.165,3.907,1.431-2.164,3.707-4.377S1470.45,871.69,1470.559,871.827Z" transform="translate(-1462.372 -871.818)"/></g><g transform="translate(98.324 13.15)"><path class="t" d="M1465.594,863.4c-.122.135-1.526-.94-3.137-2.4s-2.82-2.751-2.7-2.885,1.526.94,3.137,2.4S1465.715,863.261,1465.594,863.4Z" transform="translate(-1459.75 -858.099)"/></g><g transform="translate(113.162 9.002)"><path class="t" d="M1480.151,854.857c.038.177-1.859.734-4.236,1.242s-4.335.779-4.373.6,1.857-.732,4.236-1.242S1480.113,854.68,1480.151,854.857Z" transform="translate(-1471.542 -854.803)"/></g><g transform="translate(124.675 28.118)"><path class="t" d="M1481.308,878.8c-.18.01-.427-1.954-.549-4.387s-.077-4.411.1-4.421.427,1.955.55,4.388S1481.489,878.793,1481.308,878.8Z" transform="translate(-1480.69 -869.994)"/></g><g transform="translate(115.056 39.926)"><path class="t" d="M1476.864,889.782c-.17.062-1.156-2.217-2.2-5.09s-1.759-5.253-1.589-5.314,1.158,2.216,2.2,5.09S1477.034,889.72,1476.864,889.782Z" transform="translate(-1473.046 -879.377)"/></g><g transform="translate(97.184 48.885)"><path class="t" d="M1463.1,897.39c-.169.065-1.252-2.319-2.421-5.327s-1.979-5.5-1.811-5.564,1.253,2.319,2.421,5.327S1463.267,897.324,1463.1,897.39Z" transform="translate(-1458.844 -886.497)"/></g><g transform="translate(82.792 59.81)"><path class="t" d="M1449.639,905.858c-.177.037-.81-2.325-1.414-5.274s-.949-5.368-.771-5.4.809,2.324,1.413,5.274S1449.817,905.821,1449.639,905.858Z" transform="translate(-1447.407 -895.179)"/></g><g transform="translate(60.824 61.299)"><path class="t" d="M1434.651,905.978c-.162.079-1.343-2.008-2.636-4.664s-2.21-4.871-2.047-4.95,1.343,2.008,2.636,4.663S1434.814,905.9,1434.651,905.978Z" transform="translate(-1429.949 -896.362)"/></g><g transform="translate(54.592 83.401)"><path class="t" d="M1435.511,913.943c.081.162-2.208,1.456-5.11,2.889s-5.322,2.465-5.4,2.3,2.207-1.456,5.11-2.89S1435.43,913.78,1435.511,913.943Z" transform="translate(-1424.997 -913.926)"/></g><g transform="translate(62.774 93.76)"><path class="t" d="M1434.074,931.6c-.164.064-1.078-1.952-1.777-4.58s-.914-4.83-.74-4.857.678,2.1,1.374,4.689S1434.248,931.532,1434.074,931.6Z" transform="translate(-1431.499 -922.158)"/></g><g transform="translate(53.533 109.971)"><path class="t" d="M1431.937,942.164c-.122.133-1.962-1.351-4.107-3.316s-3.789-3.666-3.667-3.8,1.962,1.35,4.109,3.316S1432.059,942.03,1431.937,942.164Z" transform="translate(-1424.156 -935.04)"/></g><g transform="translate(74.738 107.584)"><path class="t" d="M1453.276,933.172c.048.189-2.843,1.013-6.214,2.5-3.381,1.471-5.947,3.036-6.053,2.873-.1-.135,2.347-1.974,5.79-3.473C1450.233,933.558,1453.243,933.007,1453.276,933.172Z" transform="translate(-1441.007 -933.144)"/></g><g transform="translate(76.385 91.889)"><path class="t" d="M1445.423,929.5c-.17.059-1-1.87-1.847-4.309s-1.4-4.465-1.229-4.524,1,1.869,1.849,4.309S1445.594,929.444,1445.423,929.5Z" transform="translate(-1442.315 -920.671)"/></g><g transform="translate(87.281 83.707)"><path class="t" d="M1458.43,914.172c.152.1-1.389,2.82-3.446,6.08s-3.847,5.828-4,5.732,1.389-2.819,3.445-6.082S1458.276,914.076,1458.43,914.172Z" transform="translate(-1450.975 -914.169)"/></g><g transform="translate(103.841 73.246)"><path class="t" d="M1471.4,917.952c-.137.106-2.168-2.349-4.182-5.714s-3.23-6.308-3.073-6.38,1.633,2.716,3.635,6.043S1471.555,917.84,1471.4,917.952Z" transform="translate(-1464.134 -905.856)"/></g><g transform="translate(111.278 69.116)"><path class="t" d="M1479.686,902.639c.035.171-2.094.722-4.791.852s-4.869-.2-4.851-.372c.015-.187,2.172-.146,4.818-.282S1479.652,902.454,1479.686,902.639Z" transform="translate(-1470.044 -902.574)"/></g><g transform="translate(131.59 50.757)"><path class="t" d="M1498.8,888c.078.164-2.683,1.642-6.167,3.3s-6.371,2.873-6.449,2.709,2.683-1.641,6.167-3.3S1498.727,887.835,1498.8,888Z" transform="translate(-1486.186 -887.984)"/></g><g transform="translate(145.741 28.977)"><path class="t" d="M1497.448,880.762c-.162-.079.825-2.4,2.206-5.187s2.631-4.977,2.793-4.9-.826,2.4-2.207,5.188S1497.611,880.842,1497.448,880.762Z" transform="translate(-1497.431 -870.676)"/></g><g transform="translate(156.935 36.729)"><path class="t" d="M1509.952,888.359c-.181.042-.916-2.557-1.911-5.726s-1.865-5.724-1.692-5.795,1.32,2.4,2.318,5.6S1510.124,888.321,1509.952,888.359Z" transform="translate(-1506.327 -876.837)"/></g><g transform="translate(151.544 60.406)"><path class="t" d="M1513.377,895.678c.062.164-2.367,1.214-5.522,2.018s-5.788,1.06-5.812.887,2.533-.719,5.65-1.521S1513.313,895.5,1513.377,895.678Z" transform="translate(-1502.043 -895.653)"/></g><g transform="translate(137.48 61.464)"><path class="t" d="M1490.906,910.339c-.19-.039.349-3.1.5-6.913.171-3.813-.106-6.91.087-6.932.165-.028.741,3.082.568,6.96C1491.907,907.33,1491.069,910.38,1490.906,910.339Z" transform="translate(-1490.866 -896.493)"/></g><g transform="translate(124.272 80.754)"><path class="t" d="M1488.559,921.682c-.116.127-2.329-1.752-4.6-4.5s-3.722-5.265-3.576-5.356,1.825,2.229,4.08,4.938S1488.69,921.547,1488.559,921.682Z" transform="translate(-1480.37 -911.822)"/></g><g transform="translate(147.145 87.372)"><path class="t" d="M1509.3,917.1c.07.167-2.28,1.307-5.247,2.547s-5.431,2.109-5.5,1.942,2.279-1.307,5.247-2.547S1509.227,916.935,1509.3,917.1Z" transform="translate(-1498.547 -917.082)"/></g><g transform="translate(148.516 102.358)"><path class="t" d="M1499.9,942.833c-.18,0-.3-3.1-.258-6.924s.216-6.921.4-6.919.3,3.1.258,6.925S1500.083,942.836,1499.9,942.833Z" transform="translate(-1499.636 -928.991)"/></g><g transform="translate(129.213 100.633)"><path class="t" d="M1484.341,941.534c-.171-.021.143-3.247,1.117-7.112s2.21-6.861,2.372-6.8c.177.064-.78,3.127-1.737,6.959S1484.528,941.563,1484.341,941.534Z" transform="translate(-1484.297 -927.62)"/></g><g transform="translate(116.26 122.011)"><path class="t" d="M1487.9,944.7c.01.19-3.128.49-6.951,1.126s-6.893,1.352-6.945,1.168c-.049-.164,2.97-1.18,6.838-1.813S1487.894,944.532,1487.9,944.7Z" transform="translate(-1474.004 -944.609)"/></g><g transform="translate(108.555 109.039)"><path class="t" d="M1467.887,942.521c-.13-.126,1.54-2.068,3.731-4.335s4.072-4.005,4.2-3.879-1.54,2.066-3.731,4.335S1468.017,942.647,1467.887,942.521Z" transform="translate(-1467.88 -934.3)"/></g><g transform="translate(91.099 121.036)"><path class="t" d="M1457.486,953.664c-.186.036-.745-2.227-1.7-4.924s-1.925-4.815-1.758-4.9c.15-.084,1.413,1.93,2.377,4.686S1457.656,953.638,1457.486,953.664Z" transform="translate(-1454.008 -943.834)"/></g><g transform="translate(104.791 133.14)"><path class="t" d="M1477.249,958.955c-.073.166-2.9-.929-6.312-2.443s-6.121-2.878-6.046-3.043,2.9.929,6.312,2.444S1477.323,958.79,1477.249,958.955Z" transform="translate(-1464.889 -953.453)"/></g><g transform="translate(77.769 127.36)"><path class="t" d="M1443.448,957.861c-.172-.058.358-2.119,1.183-4.6s1.635-4.453,1.806-4.4-.358,2.118-1.183,4.6S1443.619,957.918,1443.448,957.861Z" transform="translate(-1443.415 -948.859)"/></g><g transform="translate(87.579 139.411)"><path class="t" d="M1467.358,959.775c-.035.19-3.614-.389-8.063-.617-4.45-.245-8.069-.049-8.084-.243-.02-.166,3.615-.659,8.119-.411C1463.833,958.736,1467.4,959.611,1467.358,959.775Z" transform="translate(-1451.211 -958.436)"/></g><g transform="translate(109.081 52.58)"><path class="e" d="M1468.332,940.5a1.564,1.564,0,0,1-.033-.5,4.669,4.669,0,0,1,.2-1.427,3.157,3.157,0,0,1,1.368-1.872,4.394,4.394,0,0,1,3.072-.508l-.258.151c1.379-4.826,3.579-11.876,5.781-19.778,2.062-7.4,3.453-14.21,4.429-19.147l1.153-5.851a14.1,14.1,0,0,1,.5-2.133,13.851,13.851,0,0,1-.247,2.177c-.2,1.394-.518,3.408-.947,5.892a197,197,0,0,1-4.253,19.237c-2.207,7.923-4.486,14.944-5.992,19.731l-.059.187-.2-.038a4.088,4.088,0,0,0-2.8.375,2.946,2.946,0,0,0-1.32,1.654A18.05,18.05,0,0,0,1468.332,940.5Z" transform="translate(-1468.298 -889.433)"/></g><g transform="translate(113.321 99.313)"><path class="e" d="M1495.679,948.4c-.108.05-.882-1.655-2.481-4.194a43.281,43.281,0,0,0-17.119-15.559c-2.68-1.35-4.451-1.958-4.411-2.07a5.035,5.035,0,0,1,1.274.333,28.211,28.211,0,0,1,3.339,1.32,39.2,39.2,0,0,1,17.314,15.735,28.313,28.313,0,0,1,1.631,3.2A5.069,5.069,0,0,1,1495.679,948.4Z" transform="translate(-1471.667 -926.571)"/></g><g class="u" transform="translate(113.676 98.396)"><path d="M1472.3,925.842c4.812.346,8.753.707,13.271,2.4s8.693,4.934,10.354,9.463c.4,1.086.586,2.456-.235,3.269a2.327,2.327,0,0,1-2.385.384,6.285,6.285,0,0,1-2.084-1.432c-2.775-2.566-5.649-4.833-8.513-7.3s-7.024-5.059-10.76-5.63" transform="translate(-1471.95 -925.842)"/></g><g transform="translate(70.983 81.544)"><path class="e" d="M1472,921.275a5.8,5.8,0,0,1-1.312.76,23.078,23.078,0,0,1-3.871,1.46,25.856,25.856,0,0,1-25.339-6.581,22.859,22.859,0,0,1-2.672-3.159,5.835,5.835,0,0,1-.777-1.3c.106-.078,1.251,1.769,3.77,4.127a26.672,26.672,0,0,0,24.9,6.467C1470.043,922.211,1471.944,921.155,1472,921.275Z" transform="translate(-1438.023 -912.45)"/></g><g class="u" transform="translate(71.669 82.518)"><path d="M1438.568,913.224c2.118,4.609,4.607,9.244,8.625,12.338,2.315,1.784,5.025,3.284,7.948,3.332,4.2.069,7.807-2.8,11.013-5.512-10.383,1.625-22.086-3.085-27.586-10.159" transform="translate(-1438.568 -913.224)"/></g><g transform="translate(116.341 1.746)"><path class="e" d="M1475.921,868.143c-.2-.013.041-4.323-.477-9.594-.492-5.276-1.547-9.462-1.353-9.512a10.354,10.354,0,0,1,.873,2.7,48.507,48.507,0,0,1,1.3,13.59A10.411,10.411,0,0,1,1475.921,868.143Z" transform="translate(-1474.067 -849.037)"/></g></g><g transform="translate(0 283.137)"><path class="t" d="M1369.847,998.043s-13.676,2.956-25.886,1.125c-11.447-1.716-37.079.059-37.07,15.147.01,16.828,34.19,12.669,47.526,10s26.614-5.085,26.614-5.085Z" transform="translate(-1306.891 -998.043)"/><g transform="translate(29.559 9.7)"><path class="e" d="M1333.084,1017.609c-.177.04-.916-2.582-1.652-5.855s-1.189-5.961-1.013-6,.916,2.582,1.652,5.858S1333.26,1017.569,1333.084,1017.609Z" transform="translate(-1330.381 -1005.752)"/></g><g transform="translate(35.205 9.68)"><path class="e" d="M1336.589,1017.835c-.18.024-.7-2.664-1.155-6.005s-.684-6.069-.5-6.094.7,2.664,1.154,6.005S1336.768,1017.81,1336.589,1017.835Z" transform="translate(-1334.868 -1005.736)"/></g><g transform="translate(40.077 9.449)"><path class="e" d="M1340.094,1016.124c-.18.021-.612-2.328-.964-5.246s-.492-5.3-.312-5.325.611,2.327.963,5.246S1340.273,1016.1,1340.094,1016.124Z" transform="translate(-1338.74 -1005.552)"/></g><g transform="translate(46.156 8.939)"><path class="e" d="M1345.921,1014.463c-.159.069-1.13-1.894-1.759-4.505s-.676-4.8-.5-4.811.513,2.1,1.139,4.656S1346.1,1014.392,1345.921,1014.463Z" transform="translate(-1343.57 -1005.147)"/></g><g transform="translate(50.003 1.55)"><path class="e" d="M1346.647,1009.829a5.862,5.862,0,0,1,1.787-.118,15.117,15.117,0,0,1,4.8.939,5.372,5.372,0,0,1,1.479.8,2.246,2.246,0,0,1,.926,1.667,2.531,2.531,0,0,1-3.1,2.251,6.37,6.37,0,0,1-3.57-2.542,10.868,10.868,0,0,1-2.02-4.207,10.691,10.691,0,0,1,1.5-8.714,1.737,1.737,0,0,1,1.017-.61,1.375,1.375,0,0,1,1.137.355,3.058,3.058,0,0,1,.856,1.836,9.334,9.334,0,0,1-.18,3.421,9.524,9.524,0,0,1-2.308,4.316,7.56,7.56,0,0,1-1,.885c-.25.175-.386.258-.4.239-.038-.047.477-.428,1.207-1.294a9.82,9.82,0,0,0,2.046-4.248,9.036,9.036,0,0,0,.1-3.24,2.553,2.553,0,0,0-.7-1.482.877.877,0,0,0-1.32.222,10.672,10.672,0,0,0,.568,12.127,5.844,5.844,0,0,0,3.171,2.342,1.977,1.977,0,0,0,2.446-1.643,1.733,1.733,0,0,0-.7-1.288,4.993,4.993,0,0,0-1.325-.756,16.7,16.7,0,0,0-4.65-1.116C1347.285,1009.862,1346.648,1009.882,1346.647,1009.829Z" transform="translate(-1346.627 -999.275)"/></g><g transform="translate(2.15 0.299)"><path class="e" d="M1379.237,1016.947a1.484,1.484,0,0,1-.345.109l-1.025.255-3.965.9c-3.451.759-8.454,1.823-14.67,3.025s-13.645,2.555-21.97,3.69a59.4,59.4,0,0,1-13.2.658,28.419,28.419,0,0,1-6.914-1.323,19.073,19.073,0,0,1-3.318-1.474,10.272,10.272,0,0,1-2.915-2.348l.05.057a6.949,6.949,0,0,1-1.19-1.428,8.9,8.9,0,0,1-.695-7.363,11.765,11.765,0,0,1,4.384-5.732,22.207,22.207,0,0,1,6.233-3.088c1.09-.31,2.152-.685,3.233-.929,1.087-.216,2.148-.506,3.219-.653,8.572-1.354,16.369-.666,22.846-.663,3.248.059,6.181-.029,8.752-.186a58.262,58.262,0,0,0,6.548-.828l2.358-.5,1.7-.483,1.049-.289a1.674,1.674,0,0,1,.365-.078,1.442,1.442,0,0,1-.343.141l-1.032.352-1.689.546-2.357.558a55.008,55.008,0,0,1-6.571.944c-2.581.192-5.529.313-8.782.283-6.492.054-14.284-.578-22.743.8-1.058.15-2.1.439-3.172.656-1.065.244-2.106.617-3.18.924a21.689,21.689,0,0,0-6.051,3.011,11.151,11.151,0,0,0-4.145,5.415,8.264,8.264,0,0,0,.629,6.815,6.293,6.293,0,0,0,1.072,1.289l.021.02.029.036a9.838,9.838,0,0,0,2.7,2.157,18.516,18.516,0,0,0,3.2,1.423,27.873,27.873,0,0,0,6.76,1.3,59.417,59.417,0,0,0,13.069-.615c8.31-1.1,15.739-2.415,21.962-3.546s11.24-2.138,14.7-2.82l3.989-.785c.427-.078.769-.142,1.039-.193A1.44,1.44,0,0,1,1379.237,1016.947Z" transform="translate(-1308.6 -998.28)"/></g><g transform="translate(19.587 3.387)"><path class="e" d="M1325.646,1024.415a22.7,22.7,0,0,1-.331-3.5c-.155-2.157-.412-5.132-.848-8.4s-.974-6.205-1.392-8.327a22.418,22.418,0,0,1-.6-3.459,15.965,15.965,0,0,1,1.052,3.359,77.047,77.047,0,0,1,2.251,16.8A16.019,16.019,0,0,1,1325.646,1024.415Z" transform="translate(-1322.457 -1000.735)"/></g><path class="v" d="M1353.577,998.772l8.667,21.707,6.726-1.245-12.88-21.19Z" transform="translate(-1294.829 -998.043)"/></g><path d="M1478.515,958.751c-1.394.464-90.958-24.633-127.177-34.817a34.4,34.4,0,0,0-28.01,4.238l-.437.283a34.409,34.409,0,0,0-14.816,36.683h0a34.385,34.385,0,0,0,15.532,21.537c23.885,14.633,74.433,45.417,75.978,44.818,2.026-.785,65.153-2.422,65.153-2.422l-75.945-54.617,36.13,23.35,53.592-39.054Z" transform="translate(-1306.817 -734.385)"/><path class="q" d="M1384.632,931.7l19.038-9.848,18.671,11.7,69.9,2.283,10.117,34.031-101.172-23.454s-18.415,1.628-19.794-2.51S1384.632,931.7,1384.632,931.7Z" transform="translate(-1287.708 -734.591)"/><path d="M1431.355,978.247l-9.41,30.9,1.17,9.418h0a48.353,48.353,0,0,0,63.774,4.3h0a47.38,47.38,0,0,0,18.527-37.791l-.141-32.29Z" transform="translate(-1277.164 -726.6)"/><g transform="translate(49.746 215.745)"><path class="s" d="M1394.828,980.592c-.108.145-11.032-7.82-24.4-17.787s-24.115-18.168-24.007-18.314,11.031,7.818,24.4,17.79S1394.935,980.447,1394.828,980.592Z" transform="translate(-1346.423 -944.488)"/></g><g transform="translate(95.853 193.416)"><path class="r" d="M1401.889,926.76c.054.172-4.115,1.662-9.313,3.327s-9.458,2.877-9.512,2.7,4.114-1.662,9.312-3.328S1401.834,926.588,1401.889,926.76Z" transform="translate(-1383.064 -926.744)"/></g><g transform="translate(94.231 199.189)"><path class="r" d="M1403.646,931.376a19.648,19.648,0,0,1-3.243.61c-2,.326-4.766.819-7.782,1.51s-5.717,1.458-7.662,2.04a19.782,19.782,0,0,1-3.184.868,14.222,14.222,0,0,1,3.039-1.307,68.409,68.409,0,0,1,15.527-3.57A14.286,14.286,0,0,1,1403.646,931.376Z" transform="translate(-1381.775 -931.331)"/></g><g transform="translate(93.401 204.533)"><path class="r" d="M1402.222,935.6c.035.177-4.661,1.258-10.489,2.414s-10.583,1.949-10.618,1.772,4.661-1.258,10.49-2.414S1402.186,935.426,1402.222,935.6Z" transform="translate(-1381.115 -935.578)"/></g><g transform="translate(1.075 150.271)"><path class="t" d="M1396.479,893.645l17.562,57.787a1.675,1.675,0,0,0,1.476,1.182l47.857,3.591a1.674,1.674,0,0,1,1.548,1.67v2.987a1.674,1.674,0,0,1-1.705,1.674L1332.4,960.077a1.676,1.676,0,0,1-1.533-1.076l-23.006-60.275a1.673,1.673,0,0,1,1.485-2.269l85.457-4A1.676,1.676,0,0,1,1396.479,893.645Z" transform="translate(-1307.745 -892.458)"/><path class="a" d="M1349.5,913.245a4.124,4.124,0,0,0-2.589,2.938,3.961,3.961,0,0,0,1.691,3.6,4.3,4.3,0,0,0,4.782.179,3.985,3.985,0,0,0,1.305-4.828c-.579-1.6-3.5-2.712-5.19-1.889" transform="translate(-1297.632 -887.159)"/></g><g transform="translate(60.313 192.617)"><path d="M1368.648,1037.818l-13.827-22.746,101.679-79.69a40.852,40.852,0,0,1,22.208-9.1h0a40.858,40.858,0,0,1,44.422,44.091l-1.625,19.44-67.493,21.688Z" transform="translate(-1354.821 -926.109)"/><g transform="translate(13.827 57.701)"><path class="s" d="M1496.2,971.963a1.657,1.657,0,0,1-.269.25l-.83.685c-.778.619-1.861,1.485-3.238,2.583l-2.352,1.856c-.858.682-1.869,1.312-2.913,2.049l-3.377,2.317c-.6.405-1.208.839-1.851,1.255l-2.018,1.214c-2.763,1.65-5.744,3.539-9.126,5.246-1.676.877-3.386,1.833-5.193,2.727l-5.619,2.664c-7.741,3.529-16.41,7.077-25.7,10.238-18.572,6.4-35.743,11.007-48.041,14.734-3.083.907-5.863,1.757-8.3,2.527-2.44.753-4.54,1.4-6.242,1.981l-3.936,1.279-1.029.317a1.484,1.484,0,0,1-.357.087,1.612,1.612,0,0,1,.336-.15l1.008-.379,3.9-1.4c1.69-.617,3.78-1.3,6.21-2.089,2.425-.8,5.2-1.685,8.272-2.62,12.271-3.844,29.421-8.522,47.96-14.91,9.279-3.156,17.933-6.68,25.668-10.168q2.881-1.352,5.615-2.631c1.807-.882,3.516-1.826,5.193-2.69,3.382-1.682,6.369-3.542,9.14-5.162l2.025-1.192c.644-.408,1.254-.833,1.859-1.232l3.4-2.268c1.052-.721,2.071-1.335,2.938-2l2.381-1.807c1.407-1.057,2.514-1.888,3.31-2.484l.871-.634A1.5,1.5,0,0,1,1496.2,971.963Z" transform="translate(-1365.809 -971.962)"/></g><g transform="translate(118.195 68.326)"><path class="s" d="M1477.239,980.416a3.884,3.884,0,0,1-1.026.537c-.676.311-1.671.716-2.917,1.178a74.343,74.343,0,0,1-20.248,4.351c-1.326.089-2.4.13-3.143.125a3.941,3.941,0,0,1-1.156-.069,39.52,39.52,0,0,1,4.257-.517c2.626-.293,6.243-.8,10.183-1.646s7.442-1.87,9.958-2.682A39.231,39.231,0,0,1,1477.239,980.416Z" transform="translate(-1448.748 -980.406)"/></g><g transform="translate(0 13.095)"><path class="s" d="M1452.43,936.516c.111.143-21.651,17.243-48.6,38.19s-48.9,37.819-49.008,37.676,21.646-17.24,48.606-38.193S1452.32,936.374,1452.43,936.516Z" transform="translate(-1354.821 -936.515)"/></g><g transform="translate(25.716 86.405)"><g transform="translate(0.012)"><path class="t" d="M1441.271,1006.028c-4.877-2.6-10.353-1.063-15.019.51-3.107,1.047-6.335,2.7-9.489,1.816-2.281-.642-3.978-2.49-5.721-4.1a35.952,35.952,0,0,0-26.282-9.418,10.7,10.7,0,0,0-7.218,3.263c-4.791,5.189-1.178,11.941,3.1,16.3a47.307,47.307,0,0,0,28.581,13.788c8.921.931,21.187-.3,30.235-4.175,5.577-2.388,8.44-8.967,5.512-14.283A9.152,9.152,0,0,0,1441.271,1006.028Z" transform="translate(-1375.266 -994.773)"/><g transform="translate(0.254 4.153)"><path d="M1441.209,1009.328c-4.878-2.6-10.354-1.063-15.02.51-3.106,1.047-6.334,2.7-9.488,1.816-2.283-.642-3.979-2.49-5.721-4.1a35.954,35.954,0,0,0-26.283-9.418,10.706,10.706,0,0,0-7.218,3.263,8.336,8.336,0,0,0-2.011,3.638,18.978,18.978,0,0,0,5.114,8.514,47.311,47.311,0,0,0,28.583,13.788c8.921.931,21.186-.3,30.234-4.175a11.033,11.033,0,0,0,6.435-7.668,9.329,9.329,0,0,0-.922-2.461A9.15,9.15,0,0,0,1441.209,1009.328Z" transform="translate(-1375.468 -998.073)"/></g></g><g transform="translate(0 3.907)"><path class="e" d="M1445.888,1015.548a8.466,8.466,0,0,0-1.2-2.889,9.443,9.443,0,0,0-2.61-2.552,10.413,10.413,0,0,0-4.484-1.716c-3.622-.425-7.817,1.1-12.479,2.36-2.3.61-4.821,1.543-7.574,1.2a10.064,10.064,0,0,1-3.9-1.349,24.245,24.245,0,0,1-3.35-2.523,36.445,36.445,0,0,0-19.974-9.465,20.931,20.931,0,0,0-5.9-.035,12.913,12.913,0,0,0-4.567,1.593,11.626,11.626,0,0,0-2.8,2.372,28.3,28.3,0,0,0-1.8,2.6,10.107,10.107,0,0,1,1.6-2.761,11.429,11.429,0,0,1,2.8-2.522,13.048,13.048,0,0,1,4.682-1.738,21.02,21.02,0,0,1,6.044-.048,34.856,34.856,0,0,1,6.761,1.506,39.107,39.107,0,0,1,7,3.091,29.058,29.058,0,0,1,3.409,2.219c1.085.852,2.112,1.784,3.166,2.694a24.008,24.008,0,0,0,3.254,2.458,9.436,9.436,0,0,0,3.646,1.273c2.552.336,5-.536,7.336-1.144,4.64-1.214,8.908-2.734,12.694-2.237a10.5,10.5,0,0,1,7.249,4.589,6.769,6.769,0,0,1,.9,2.2A3.17,3.17,0,0,1,1445.888,1015.548Z" transform="translate(-1375.257 -997.877)"/></g><g transform="translate(0 3.907)"><path class="t" d="M1445.888,1015.548a8.466,8.466,0,0,0-1.2-2.889,9.443,9.443,0,0,0-2.61-2.552,10.413,10.413,0,0,0-4.484-1.716c-3.622-.425-7.817,1.1-12.479,2.36-2.3.61-4.821,1.543-7.574,1.2a10.064,10.064,0,0,1-3.9-1.349,24.245,24.245,0,0,1-3.35-2.523,36.445,36.445,0,0,0-19.974-9.465,20.931,20.931,0,0,0-5.9-.035,12.913,12.913,0,0,0-4.567,1.593,11.626,11.626,0,0,0-2.8,2.372,28.3,28.3,0,0,0-1.8,2.6,10.107,10.107,0,0,1,1.6-2.761,11.429,11.429,0,0,1,2.8-2.522,13.048,13.048,0,0,1,4.682-1.738,21.02,21.02,0,0,1,6.044-.048,34.856,34.856,0,0,1,6.761,1.506,39.107,39.107,0,0,1,7,3.091,29.058,29.058,0,0,1,3.409,2.219c1.085.852,2.112,1.784,3.166,2.694a24.008,24.008,0,0,0,3.254,2.458,9.436,9.436,0,0,0,3.646,1.273c2.552.336,5-.536,7.336-1.144,4.64-1.214,8.908-2.734,12.694-2.237a10.5,10.5,0,0,1,7.249,4.589,6.769,6.769,0,0,1,.9,2.2A3.17,3.17,0,0,1,1445.888,1015.548Z" transform="translate(-1375.257 -997.877)"/></g><g transform="translate(10.14 11.615)"><path class="e" d="M1383.316,1012.791a12.384,12.384,0,0,1,2.5-1.73,71.9,71.9,0,0,1,13.24-6.225,12.428,12.428,0,0,1,2.926-.819,16,16,0,0,1-2.76,1.252c-1.723.717-4.092,1.727-6.667,2.936s-4.861,2.391-6.512,3.259A16.006,16.006,0,0,1,1383.316,1012.791Z" transform="translate(-1383.315 -1004.003)"/></g><g transform="translate(11.816 15.923)"><path class="e" d="M1384.648,1016.784c-.079-.162,4.186-2.387,9.525-4.969s9.734-4.542,9.812-4.379-4.185,2.387-9.526,4.969S1384.726,1016.948,1384.648,1016.784Z" transform="translate(-1384.647 -1007.427)"/></g><g transform="translate(9.156 12.985)"><path class="e" d="M1405.4,1019.5c-.1.154-5.294-2.947-11.607-6.925s-11.356-7.328-11.259-7.481,5.293,2.947,11.608,6.926S1405.5,1019.349,1405.4,1019.5Z" transform="translate(-1382.533 -1005.092)"/></g><g transform="translate(17.821 10.456)"><path class="e" d="M1406.546,1014.962a15.542,15.542,0,0,1-2.545-1.7c-1.529-1.1-3.638-2.625-6-4.262s-4.529-3.078-6.1-4.122a15.4,15.4,0,0,1-2.485-1.787,13.2,13.2,0,0,1,2.729,1.393c1.637.948,3.853,2.333,6.226,3.978s4.446,3.234,5.907,4.433A13.046,13.046,0,0,1,1406.546,1014.962Z" transform="translate(-1389.419 -1003.082)"/></g></g></g></g></g></svg>