<svg xmlns="http://www.w3.org/2000/svg" xmlns:xlink="http://www.w3.org/1999/xlink" width="600.445" height="435.58" viewBox="0 0 600.445 435.58"><defs><style>.a,.aj,.b,.h,.l,.m,.p{fill:none;}.b,.h{stroke:#fff;}.b,.m,.y{stroke-miterlimit:10;}.c{opacity:0.19;}.af,.d,.y{fill:#ebedef;}.e{fill:#8cc408;}.f{fill:#0f9b2c;}.g{fill:#da005a;}.ab,.af,.aj,.h,.l,.n,.o,.p{stroke-linecap:round;stroke-linejoin:round;stroke-width:0.75px;}.as,.i,.n{fill:#fff;}.j{clip-path:url(#a);}.ac,.k{opacity:0.2;}.ab,.af,.l,.n,.y{stroke:#2e353a;}.m,.o,.p{stroke:#263238;}.o,.r{fill:#935231;}.q{clip-path:url(#b);}.s{clip-path:url(#c);}.t{clip-path:url(#d);}.u{fill:#6c2f10;}.v{clip-path:url(#e);}.w{fill:#2e2e2e;}.x{fill:#263238;}.z{fill:#37d6b5;}.aa,.ab{fill:#e69f7c;}.ac,.ai,.as{isolation:isolate;}.ad{fill:#0b2747;}.ae{fill:#ea9671;}.ag{fill:#d3d3d3;}.ah{fill:#ffe53c;}.ai{opacity:0.1;}.aj{stroke:#7e7e7e;}.ak{fill:#dc7744;}.al{fill:#2e353a;}.am{fill:#2f9693;}.an{fill:#ffbe9d;}.ao{clip-path:url(#f);}.ap{fill:#890048;}.aq{fill:#f7e34f;}.ar{clip-path:url(#g);}.as{opacity:0.3;}</style><clipPath id="a"><path class="a" d="M-427.1,319.226s-2.52-42.76-7.46-83.92c-3-24.69-7.92-49.15-9-67.43-1.49-23.91,27.71-17.27,53.13-18.33s50.11-4.36,51.87,17.86,4.19,150.41,4.19,150.41S-382.577,330.716-427.1,319.226Z"/></clipPath><clipPath id="b"><path class="a" d="M-362.6,148.806s24.76,1.47,24.62,9.08c0,0,12.4,5.28,13.06,11.24s52.95,62,43.89,78.26c-7.92,14.2-39.86,40.62-39.86,40.62s-3.06-6.86-6.51-14.87c0,0,14-30.57,20.43-33.71l-33.64-42.71"/></clipPath><clipPath id="c"><path class="a" d="M-432.887,151.416s-9.38-.4-15.35,16.46c0,0-7.06,4.12-21.43,35.48,0,0-2.47-3.31-7.78-12.38-4.64-7.92-11.72-18.15-17.56-33.12,0,0-4.71,5.79-14.78,5.46,0,0,21.83,73.75,37.12,73.75,16.86,0,35.42-39.2,35.42-39.2"/></clipPath><clipPath id="d"><path class="a" d="M-385.857,122.546s2.57,25.48,8.25,28.55c0,0-.91,9.73-17.5,9.73s-16.6-13.72-16.6-13.72Z"/></clipPath><clipPath id="e"><path class="a" d="M-425.557,95.256s-15.11-1.45-11.79-13.64,15.93-13.52,15.93-13.52-2.55,8.75,12.42,7,31.14-3.18,31.8,11.93a31.861,31.861,0,0,1-4,28.49c-9.81,14-18.82,2.67-18.82,2.67l-7.75-16.7-14.4-3.05Z"/></clipPath><clipPath id="f"><path class="a" d="M-766.527,267.916l-5.37,15.72s11.47,12.2,21.45,13.13l4.07,4.78,4.44-5.34-1.11-6.84-1.79-2.89-1.54-.5,3.15-8.63-10.04-13.63h-9.75Z"/></clipPath><clipPath id="g"><rect class="a" width="126.36" height="18.14" rx="4.42" transform="translate(-657.327 199.296)"/></clipPath></defs><g transform="translate(880.058 53.864)"><line class="b" x2="528.51" transform="translate(-857.807 375.906)"/><g class="c"><path class="b" d="M-502.947,14.426h31.47"/><path class="b" d="M-508.677,14.426h2.81"/><path class="b" d="M-513.147-33.144a23.792,23.792,0,0,0-23.3,24.273,23.79,23.79,0,0,0,23.3,23.3"/><path class="b" d="M-484.157-53.364a23.77,23.77,0,0,0-23.61,20.86"/><path class="b" d="M-461.767,14.426A21.01,21.01,0,0,0-440.122-5.929a21.01,21.01,0,0,0-20.355-21.645h0c.06-.66.11-1.33.11-2a23.8,23.8,0,0,0-18-23.07"/><path class="b" d="M-420.387,44.246a15.97,15.97,0,0,0,1.39-2.4l3.11.05a18.5,18.5,0,0,0,1-3.78l-2.72-1.51c0-.45.07-.92.07-1.38a9.248,9.248,0,0,0-.07-1.39l2.72-1.51a18.515,18.515,0,0,0-1-3.78l-3.11.06a15.682,15.682,0,0,0-1.39-2.41l1.6-2.66a19.069,19.069,0,0,0-2.76-2.77l-2.67,1.6a15.538,15.538,0,0,0-2.4-1.39l.05-3.11a19.056,19.056,0,0,0-3.77-1l-1.51,2.72"/><path class="b" d="M-446.907,42.956c.25.45.52.87.81,1.29l-1.59,2.66a17.984,17.984,0,0,0,2.76,2.77l2.66-1.6a15.429,15.429,0,0,0,2.41,1.39l-.05,3.11a18.817,18.817,0,0,0,3.77,1l1.51-2.72c.46,0,.92.06,1.39.06a10.7,10.7,0,0,0,1.39-.06l1.51,2.72a18.988,18.988,0,0,0,3.77-1l-.05-3.11a15.378,15.378,0,0,0,2.4-1.39l2.67,1.6a18.535,18.535,0,0,0,2.76-2.77"/><path class="b" d="M-449.367,28.566h-1.22a18.45,18.45,0,0,0-1,3.78l2.72,1.51c0,.46-.06.92-.06,1.39a10.469,10.469,0,0,0,.06,1.38l-2.72,1.51a18.433,18.433,0,0,0,1,3.78l3.1-.05"/><path class="b" d="M-434.627,19.576l-1.51-2.72a18.884,18.884,0,0,0-3.77,1l.05,3.11a15.589,15.589,0,0,0-2.41,1.39l-2.66-1.6a18.534,18.534,0,0,0-2.76,2.77l1.59,2.66a16.4,16.4,0,0,0-1.39,2.41"/><path class="b" d="M-435.277,45.136a10.121,10.121,0,0,1-7.7-12.065,10.121,10.121,0,0,1,9.7-7.935"/><path class="b" d="M-423.4,37.6a10.13,10.13,0,0,1-9.84,7.75"/><path class="b" d="M-423.157,36.106a4.309,4.309,0,0,1-.09.71"/><path class="b" d="M-429.547,25.8a10.132,10.132,0,0,1,6.43,9.43"/><path class="b" d="M-406,13.536a8.38,8.38,0,0,0,.77-1.33h1.72a9.791,9.791,0,0,0,.56-2.09l-1.5-.83V7.746l1.5-.83a9.649,9.649,0,0,0-.56-2.09h-1.72A8.425,8.425,0,0,0-406,3.5l.89-1.48a11.175,11.175,0,0,0-1.53-1.53l-1.48.89a8.114,8.114,0,0,0-1.33-.77v-1.72a9.706,9.706,0,0,0-2.09-.56l-.83,1.5"/><path class="b" d="M-420.667,12.826c.14.24.29.48.45.71l-.88,1.48a9.885,9.885,0,0,0,1.52,1.52l1.48-.88a9.123,9.123,0,0,0,1.33.77v1.72a9.675,9.675,0,0,0,2.09.56l.83-1.51a6.593,6.593,0,0,0,.77,0,6.182,6.182,0,0,0,.77,0l.83,1.51a9.591,9.591,0,0,0,2.09-.56v-1.72a8.676,8.676,0,0,0,1.33-.77l1.48.88a10.419,10.419,0,0,0,1.53-1.52"/><path class="b" d="M-422.027,4.866h-.68a9.592,9.592,0,0,0-.56,2.09l1.51.83a6.174,6.174,0,0,0,0,.77,6.587,6.587,0,0,0,0,.77l-1.51.83a9.674,9.674,0,0,0,.56,2.09h1.72"/><path class="b" d="M-413.877-.114l-.83-1.5a9.791,9.791,0,0,0-2.09.56l.03,1.77a8.379,8.379,0,0,0-1.33.77l-1.48-.89a10.468,10.468,0,0,0-1.52,1.53l.88,1.48a9.124,9.124,0,0,0-.77,1.33"/><path class="b" d="M-683.987,13.516h23.07"/><path class="b" d="M-688.187,13.516h2.06"/><path class="b" d="M-691.467-21.344A17.43,17.43,0,0,0-708.9-3.914a17.429,17.429,0,0,0,17.43,17.43"/><path class="b" d="M-670.207-36.164a17.43,17.43,0,0,0-17.29,15.29"/><path class="b" d="M-653.767,13.516A15.4,15.4,0,0,0-638.11-1.622a15.4,15.4,0,0,0-14.657-15.642c0-.49.08-1,.08-1.47a17.461,17.461,0,0,0-13.17-16.91"/><path class="b" d="M-712.367,44.826a15.483,15.483,0,0,0,1.48-2.56l3.31.06a19.9,19.9,0,0,0,1.08-4l-2.9-1.61a14.427,14.427,0,0,0,.07-1.47,14.637,14.637,0,0,0-.07-1.48l2.9-1.61a19.922,19.922,0,0,0-1.08-4h-3.31a16.018,16.018,0,0,0-1.48-2.56l1.7-2.83a20.046,20.046,0,0,0-2.94-2.95l-2.83,1.71a16.017,16.017,0,0,0-2.56-1.48v-3.31a19.944,19.944,0,0,0-4-1.08l-1.61,2.9"/><path class="b" d="M-740.6,43.456c.27.47.56.93.87,1.37l-1.7,2.84a19.367,19.367,0,0,0,2.94,2.94l2.84-1.7a16.971,16.971,0,0,0,2.56,1.48l-.06,3.31a19.163,19.163,0,0,0,4,1.07l1.6-2.89c.49,0,1,.07,1.48.07a10.479,10.479,0,0,0,1.48-.07l1.61,2.89a19.227,19.227,0,0,0,4-1.07v-3.31a17.531,17.531,0,0,0,2.56-1.48l2.83,1.7a19.463,19.463,0,0,0,2.92-2.89"/><path class="b" d="M-743.207,28.146h-1.31a19.225,19.225,0,0,0-1.07,4l2.89,1.61c0,.49-.07,1-.07,1.48a10.267,10.267,0,0,0,.07,1.47l-2.89,1.61a19.148,19.148,0,0,0,1.07,4l3.31-.06"/><path class="b" d="M-727.527,18.576l-1.6-2.9a19.909,19.909,0,0,0-4,1.08l.06,3.31a15.486,15.486,0,0,0-2.56,1.48l-2.84-1.71a20,20,0,0,0-2.94,2.95l1.64,2.83a17.533,17.533,0,0,0-1.48,2.56"/><path class="b" d="M-728.217,45.776a10.78,10.78,0,0,1-8.336-12.764,10.78,10.78,0,0,1,10.506-8.566"/><path class="b" d="M-715.567,37.716a10.789,10.789,0,0,1-10.48,8.25"/><path class="b" d="M-715.307,36.166a4.823,4.823,0,0,1-.1.75"/><path class="b" d="M-722.117,25.186a10.782,10.782,0,0,1,6.85,10"/><path class="b" d="M-753.577,34.3a12.637,12.637,0,0,0,1.11-1.92h2.49a15.1,15.1,0,0,0,.81-3l-2.18-1.21c0-.36.05-.73.05-1.11a8.177,8.177,0,0,0-.05-1.11l2.18-1.23a15.2,15.2,0,0,0-.81-3h-2.49a12.267,12.267,0,0,0-1.11-1.92l1.28-2.08a14.876,14.876,0,0,0-2.21-2.2l-2.13,1.27a13.706,13.706,0,0,0-1.93-1.07v-2.48a14.558,14.558,0,0,0-3-.81l-1.2,2.14"/><path class="b" d="M-774.767,33.266a9.06,9.06,0,0,0,.65,1l-1.28,2.13a15.287,15.287,0,0,0,2.21,2.21l2.13-1.28a12.141,12.141,0,0,0,1.92,1.11v2.49a14.559,14.559,0,0,0,3,.81l1.21-2.18a9.791,9.791,0,0,0,1.11.06,10.307,10.307,0,0,0,1.11-.06l1.21,2.18a14.5,14.5,0,0,0,3-.81v-2.49a11.929,11.929,0,0,0,1.93-1.11l2.13,1.28a15.39,15.39,0,0,0,2.21-2.21"/><path class="b" d="M-776.767,21.716h-1a15.141,15.141,0,0,0-.81,3l2.18,1.21c0,.37-.05.74-.05,1.11a8.167,8.167,0,0,0,.05,1.11l-2.18,1.21a15.034,15.034,0,0,0,.81,3h2.49"/><path class="b" d="M-764.967,14.566l-1.21-2.17a14.686,14.686,0,0,0-3,.81v2.48a13.979,13.979,0,0,0-1.92,1.11l-2.13-1.27a14.827,14.827,0,0,0-2.21,2.2l1.28,2.14a11.432,11.432,0,0,0-1.11,1.92"/><path class="b" d="M-764.967,32.5a5.529,5.529,0,0,1-4.265-6.555,5.53,5.53,0,0,1,5.375-4.385"/><path class="b" d="M-758.487,28.376a5.53,5.53,0,0,1-5.37,4.23"/><path class="b" d="M-761.837,21.936a5.511,5.511,0,0,1,3.5,5.14"/></g><path class="d" d="M-579.827,338.4s-32.77-18.95-28.4-24.22,19.39,9.47,19.39,9.47-28.95-36.32-23.76-40,19.93,20.34,19.93,20.34-17.75-40.06-10.92-41.19,17.75,34.63,17.75,34.63-4.64-25.39,0-25.94,7.92,40.23,7.92,40.23-.23-19.19,3.84-19.06S-568.357,335.716-579.827,338.4Z"/><path class="e" d="M-579.827,338.4s-32.77-18.95-28.4-24.22,19.39,9.47,19.39,9.47-28.95-36.32-23.76-40,19.93,20.34,19.93,20.34-17.75-40.06-10.92-41.19,17.75,34.63,17.75,34.63-4.64-25.39,0-25.94,7.92,40.23,7.92,40.23-.23-19.19,3.84-19.06c1.563.05,2.769,6.411,3.021,14.673C-570.674,319.821-572.761,336.745-579.827,338.4Z"/><path class="d" d="M-574.7,336.8s26-15,22.5-19.18-15.36,7.51-15.36,7.51,22.93-28.77,18.82-31.69-15.79,16.11-15.79,16.11,14.06-31.72,8.65-32.62-14.06,27.43-14.06,27.43,3.68-20.11,0-20.54-6.27,31.9-6.27,31.9.18-15.19-3-15.09S-583.767,334.636-574.7,336.8Z"/><path class="f" d="M-574.7,336.8s26-15,22.5-19.18-15.36,7.51-15.36,7.51,22.93-28.77,18.82-31.69-15.79,16.11-15.79,16.11,14.06-31.72,8.65-32.62-14.06,27.43-14.06,27.43,3.68-20.11,0-20.54-6.27,31.9-6.27,31.9.18-15.19-3-15.09S-583.767,334.636-574.7,336.8Z"/><path class="g" d="M-602.677,331.716v2a3.908,3.908,0,0,0,2.78,3.73l3,31.49a8.07,8.07,0,0,0,8,7.32h21.94a8.08,8.08,0,0,0,8-7.32l3-31.49a3.9,3.9,0,0,0,2.79-3.73v-2Z"/><path class="h" d="M-599.4,342.716a3.271,3.271,0,0,0,2.78-.91l2.58-2.59a3.251,3.251,0,0,1,4.58,0l2.58,2.59a3.249,3.249,0,0,0,4.58,0l2.6-2.59a3.241,3.241,0,0,1,4.57,0l2.59,2.59a3.239,3.239,0,0,0,4.57,0l2.6-2.59a3.251,3.251,0,0,1,4.58,0l2.58,2.59a3.084,3.084,0,0,0,1.76.9"/><path d="M-426.507,312.976s1.67,11,1.27,14.65c-1.32,12.27-7.61,24.44-10.27,48.28h102.17s.93-43.48-3.08-62.93Z"/><path class="i" d="M-427.1,319.226s-2.52-42.76-7.46-83.92c-3-24.69-7.92-49.15-9-67.43-1.49-23.91,27.71-17.27,53.13-18.33s50.11-4.36,51.87,17.86,4.19,150.41,4.19,150.41S-382.577,330.716-427.1,319.226Z"/><g class="j"><g class="k"><path d="M-298.637,242.382l9.52-3-7.44-.65,4.15-6.72c-1,1.92-3.61,2.46-5.65,1.76s-3.61-2.31-5.09-3.87c-6.79-7.11-13.65-14.32-18.5-22.87s-7.56-18.76-5.38-28.32l-3.47,8.64-5.29-14.77a13.773,13.773,0,0,1-4.14,13c-1.41,1.26-3.15,2.3-3.89,4.07a4.373,4.373,0,0,0-.19,2.51c13.28,71-29.9,71.41-45,67.5-13.57-3.5-26-20.59-26.51-34.42a2.261,2.261,0,0,1,2.234-2.286,2.262,2.262,0,0,1,1.126.286c25.51,14.09,47.39,17.69,39.8,11.86-13.51-2.89-49.48-17.64-55.48-49.79a4.32,4.32,0,0,0-5.037-3.458c-.075.014-.149.03-.223.048a83.742,83.742,0,0,1-28.24,35.15l2.31,5.46c-2.76,2.32-7.82.19-8.08-3.41l-2.87,14.74-7-.22.07.06a4.723,4.723,0,0,1,1,1.56l.43.3c.31.23.58.45.85.67a16.109,16.109,0,0,0,13.07-2.39c5.28-3.59,8.62-9.32,11.91-14.79s7-11.09,12.54-14.17q10.08,47.359,20.17,94.7c1.08,5.09,2.24,10.35,5.3,14.57,6.35,8.74,18.62,10.33,29.42,10.23a189.735,189.735,0,0,0,47.46-6.48l-1.11-116.17,30.84,38.3q-6.78,9.341-13.54,18.7A37.429,37.429,0,0,1-291.3,244.4,7.7,7.7,0,0,0-298.637,242.382Z"/></g></g><path class="l" d="M-427.1,319.226s-2.52-42.76-7.46-83.92c-3-24.69-7.92-49.15-9-67.43-1.49-23.91,27.71-17.27,53.13-18.33s50.11-4.36,51.87,17.86,4.19,150.41,4.19,150.41S-382.577,330.716-427.1,319.226Z"/><path class="m" d="M-385.547,375.906a47.4,47.4,0,0,0-3.32-6.73c-6.24-8.31-5.46-15.39-7.75-23.13-.7-2.37-5.49-8.23-5.49-8.23"/><path class="n" d="M-323.317,269.756l-7.43,8.82,2.29,15.46,11.32-11.91Z"/><path class="o" d="M-329.387,279.216c-.31-1.5-.48-5.33-1.93-5.83-2.66-.92-7.78,3.92-9.4,6.22-.76,1.09-2.4,3.41-2.38,4.73,0,.68.6,2.29,1.26,2.4,1.17.18,2.49-2.52,3.39-3.28a46.23,46.23,0,0,1,5.35-3.05s-3.15,4.57-4.43,5.62c-1.92,1.57-9.88,6-4.82,8.64,0,0-1.95,2.87,1.1,3.62s7.92-3.46,7.92-3.46a18.621,18.621,0,0,1-3.1,3.35c-1.94,1.73-4.8,1.35-4.12,2.57,1,1.89,3.65,2.06,6.42,1.13a10.658,10.658,0,0,0,6.62-5.29C-325.007,292.436-328.5,283.5-329.387,279.216Z"/><path class="p" d="M-340.257,294.036a55.321,55.321,0,0,0,6.28-3.69,11.8,11.8,0,0,0,3.23-3.8"/><path class="i" d="M-362.6,148.806s24.76,1.47,24.62,9.08c0,0,12.4,5.28,13.06,11.24s52.95,62,43.89,78.26c-7.92,14.2-39.86,40.62-39.86,40.62s-3.06-6.86-6.51-14.87c0,0,14-30.57,20.43-33.71l-33.64-42.71"/><g class="q"><g class="k"><path d="M-434.387,181.716a83.573,83.573,0,0,1-28.25,35.15l2.39,5.46c-2.76,2.33-7.82.19-8.08-3.4q-1.44,7.38-2.87,14.79l-9.16-.29c4.48,4.55,12.36,3.87,17.64.28s8.61-9.33,11.91-14.79,6.94-11.13,12.54-14.2q10.08,47.34,20.17,94.69c1.08,5.1,2.24,10.36,5.3,14.58,6.34,8.74,18.62,10.33,29.42,10.23a190.127,190.127,0,0,0,47.46-6.5q-.6-58.1-1.19-116.19l30.79,38.31-15,20.79a37.322,37.322,0,0,1,28.77-16.39,7.671,7.671,0,0,0-7.29-2l9.52-3.05-7.44-.64,4.15-6.73c-1,1.92-3.61,2.47-5.65,1.77s-3.61-2.32-5.1-3.88c-6.78-7.11-13.64-14.31-18.49-22.86s-7.56-18.72-5.4-28.31q-1.721,4.32-3.46,8.63l-5.29-14.76a13.759,13.759,0,0,1-4.15,13c-1.35,1.22-3,2.23-3.79,3.87-1.06,2.21-.22,4.81.49,7.16,4.39,14.66,2.31,31.48-6.88,43.71s-25.74,19-40.56,15.16-26.34-18.87-24.76-34.09a171.446,171.446,0,0,0,49.3,10.16c-14.12-3-28.33-7.1-40.24-15.28s-21.33-21.05-22.18-35.46Z"/></g></g><path class="l" d="M-362.6,148.806s24.76,1.47,24.62,9.08c0,0,12.4,5.28,13.06,11.24s52.95,62,43.89,78.26c-7.92,14.2-39.86,40.62-39.86,40.62s-3.06-6.86-6.51-14.87c0,0,14-30.57,20.43-33.71l-33.64-42.71"/><path class="l" d="M-290,238.246c-5.51-3.88-13.33.2-13.33-2.35s9.41-2.78,8.63-5.41"/><path class="l" d="M-333.177,185.426a44.2,44.2,0,0,0,2.61-15"/><path class="l" d="M-337.2,167.156c.29,5.81.58,14.07.32,20.37a1.349,1.349,0,0,0,1.306,1.393,1.351,1.351,0,0,0,1.264-.773"/><path class="l" d="M-337.627,160.046s.09,1.24.22,3.27"/><path class="l" d="M-450.617,176.716s-1.48,10.29,0,17.64"/><path class="r" d="M-493.877,166.416l-5.67-16.32s-1.77-11.17-3.22-13.38a33.418,33.418,0,0,0-5.29-5.29,38.939,38.939,0,0,0-4.68-5.44c-1.93-1.62-13.25-7.5-14.13-7.06s-2.28,3.09,5.07,7.2a18.813,18.813,0,0,0-7.28,1c-3.23,1.33-5.44,1.69-4,3.09s2.57,2.06,7.79.66a40.767,40.767,0,0,0,6.61.22l1.62,1.91a3.181,3.181,0,0,0-4,1.25c-1.47,2.35-3.16,5.29-2.42,7,0,0-5.66-2.94-7.21-.51s3.24,4.63,5.15,6.1,6.54,5.44,6.54,5.44,3.28,7.43,10.23,10.16c0,0,2.67,3.09,1.91,6Z"/><path class="l" d="M-518.217,128.126l2.43,1.98,2.71,4.71,1.84,6.17"/><path class="l" d="M-509.687,140.986s-3.86,4.63-6.6,5.29a25.569,25.569,0,0,1-3.48-1.76c-.49-.43-1.23-1.26-2.72-2.45"/><path class="l" d="M-513.957,140.616l-.35-1.25a8.185,8.185,0,0,1-3.47,0l-.88,1.25A16.743,16.743,0,0,1-513.957,140.616Z"/><path class="l" d="M-517.847,135.4a6.328,6.328,0,0,1,.51,3.17"/><path class="l" d="M-520.127,139.366a7.39,7.39,0,0,1,2.54,6.33"/><path class="l" d="M-515.577,134.226l1.62,1.76v1.99"/><path class="i" d="M-432.887,151.416s-9.38-.4-15.35,16.46c0,0-7.06,4.12-21.43,35.48,0,0-2.47-3.31-7.78-12.38-4.64-7.92-11.72-18.15-17.56-33.12,0,0-4.71,5.79-14.78,5.46,0,0,21.83,73.75,37.12,73.75,16.86,0,35.42-39.2,35.42-39.2"/><g class="s"><g class="k"><path d="M-434.387,181.716a83.573,83.573,0,0,1-28.25,35.15l2.39,5.46c-2.76,2.33-7.82.19-8.08-3.4q-1.44,7.38-2.87,14.79l-9.16-.29c4.48,4.55,12.36,3.87,17.64.28s8.61-9.33,11.91-14.79,6.94-11.13,12.54-14.2q10.08,47.34,20.17,94.69c1.08,5.1,2.24,10.36,5.3,14.58,6.34,8.74,18.62,10.33,29.42,10.23a190.127,190.127,0,0,0,47.46-6.5q-.6-58.1-1.19-116.19l30.79,38.31-15,20.79a37.322,37.322,0,0,1,28.77-16.39,7.671,7.671,0,0,0-7.29-2l9.52-3.05-7.44-.64,4.15-6.73c-1,1.92-3.61,2.47-5.65,1.77s-3.61-2.32-5.1-3.88c-6.78-7.11-13.64-14.31-18.49-22.86s-7.56-18.72-5.4-28.31q-1.721,4.32-3.46,8.63l-5.29-14.76a13.759,13.759,0,0,1-4.15,13c-1.35,1.22-3,2.23-3.79,3.87-1.06,2.21-.22,4.81.49,7.16,4.39,14.66,2.31,31.48-6.88,43.71s-25.74,19-40.56,15.16-26.34-18.87-24.76-34.09a171.446,171.446,0,0,0,49.3,10.16c-14.12-3-28.33-7.1-40.24-15.28s-21.33-21.05-22.18-35.46Z"/></g></g><path class="l" d="M-432.887,151.416s-9.38-.4-15.35,16.46c0,0-7.06,4.12-21.43,35.48,0,0-2.47-3.31-7.78-12.38-4.64-7.92-11.72-18.15-17.56-33.12,0,0-4.71,5.79-14.78,5.46,0,0,21.83,73.75,37.12,73.75,16.86,0,35.42-39.2,35.42-39.2"/><path class="l" d="M-443.367,171.586c-.1-1.19-.18-2.43-.24-3.71"/><path class="l" d="M-441.767,193.926c2.73-.3.35-5.91-1.1-17.22"/><path class="l" d="M-448.767,172.976s2.28,13.32,4.9,18.72"/><path class="r" d="M-385.857,122.546s2.57,25.48,8.25,28.55c0,0-.91,9.73-17.5,9.73s-16.6-13.72-16.6-13.72Z"/><g class="t"><path class="u" d="M-421.717,95s-2.69,16-2.25,19.37-.38,6.82.3,12.25,4.82,20.58,14.7,22.89c5.2,1.21,16.32-3.79,20.94-14.11.32-.69,2.17-8.6,2.17-8.6s4.58,3.09,6.05-1.92,3.95-9.58.77-12.57-7.47,3.49-8.07,5.88-2.95-.32-2.95-.32-1.46-11-4.91-14,3-8.59-.28-12.44S-413.017,88.486-421.717,95Z"/></g><path class="l" d="M-385.857,122.546s2.57,25.48,8.25,28.55c0,0-.91,9.73-17.5,9.73s-16.6-13.72-16.6-13.72Z"/><g class="v"><path class="w" d="M-403.767,87.086s17.88,2.07,26.62,0,11.13,21.6,11.13,21.6l-2.12,14.44-23.85,4.11-11-9.81-4.55-13.71Z"/></g><path d="M-425.557,95.256s-15.11-1.45-11.79-13.64,15.93-13.52,15.93-13.52-2.55,8.75,12.42,7,31.14-3.18,31.8,11.93a31.861,31.861,0,0,1-4,28.49c-9.81,14-18.82,2.67-18.82,2.67l-7.75-16.7-14.4-3.05Z"/><path class="r" d="M-427.767,93.286s-3.45,16.15-3,19.43-.59,6.86.08,12.29,3,25.8,14.77,24.23c11.56-1.53,27.46-11,28.87-20.39.12-.76.81-3,.81-3a5.34,5.34,0,0,0,6.65-3.56c1.82-5.06,4.81-9.7,1.17-12.63-3.79-3.06-8.78,3.66-9.53,6.08s-3.42-.26-3.42-.26-1.46-11-5.41-13.89,3.66-8.69-.06-12.47S-417.467,86.576-427.767,93.286Z"/><path class="m" d="M-421.7,112.516c0,3-5.6,8.16-4.94,10.81.36,1.45,4.13,2.16,4.91,3.44a2.817,2.817,0,0,1,.31,1.22"/><path class="x" d="M-427.047,114.276c-.08,1.16-.61,2.06-1.19,2s-1-1-.89-2.17.62-2.06,1.19-2S-426.967,113.116-427.047,114.276Z"/><path class="x" d="M-414,112.376c-.09,1.21-.65,2.15-1.25,2.11s-1-1.06-.93-2.27.65-2.15,1.25-2.11S-413.917,111.166-414,112.376Z"/><path class="m" d="M-419.907,107.026s5-4,11.62.25"/><path class="m" d="M-405.7,130.5s-11,9.76-15.73,1.26"/><path class="m" d="M-433.257,109.856s3.31-4.54,8.93-1.19"/><path d="M-424.057,91.076s-16.3,1.06-8.13,11.24C-432.187,102.316-432.367,94.986-424.057,91.076Z"/><path class="b" d="M-424.057,114.206a4.739,4.739,0,0,1-4.42,5c-2.42,0-4.41-2.25-4.41-5s2-4,4.41-4S-424.057,111.416-424.057,114.206Z"/><path class="b" d="M-408.547,112.3a5.55,5.55,0,0,1-6.052,5,5.548,5.548,0,0,1-5-5c0-2.78,2.47-4,5.52-4S-408.547,109.516-408.547,112.3Z"/><path class="b" d="M-424.387,112.3c0-1.21,4.79-1.83,4.79-.62"/><line class="b" x2="23.04" y2="1.96" transform="translate(-408.897 110.336)"/><path class="l" d="M-422.087,245.266c9.63,17.07,34.05,52.92,70.13,55"/><path class="l" d="M-426.7,236.366s.71,1.57,2.08,4.23"/><path class="y" d="M-373.647,148.806c-1.6,0-3.22.1-4.86.17-.88,7.43-9.56,9.58-17.58,9.58-7.82,0-12.26-2.05-12.88-9.05h-4.85c.64,9.91,7.17,13.81,17.73,13.81C-385.3,163.266-374.307,159.2-373.647,148.806Z"/><path class="l" d="M-470.457,222.276s-.44-12.35,1.32-12.94,1.76,6.76,6.47,6.47"/><rect class="z" width="18.14" height="126.36" rx="4.42" transform="translate(-649.982 135.453) rotate(-88.04)"/><line class="l" x1="2.86" transform="translate(-658.687 123.696)"/><path class="aa" d="M-504.767,218.356l-3.35-14.49-6.58-24.69-6.94-7.46-9.19-7s-10.16-4.29-10.5-2.08a2.559,2.559,0,0,0,1.53,2.89s-2.89-1-3.57.77,4,3.06,6.63,5.36a39.4,39.4,0,0,1,4.26,4.27s-3.69,4.6-3.21,7.09l.31,1.14s-7.36-4-8.06-.77,4.34,3.9,7.22,7a44.628,44.628,0,0,0,5.57,5.11s2.85,7.2,9,9.75l.38,15.82S-511.767,223.056-504.767,218.356Z"/><path class="ab" d="M-539.037,166.446a57.684,57.684,0,0,0,6.91,4.09l5.85,6.13a32.516,32.516,0,0,1,3.66,5.8"/><path class="l" d="M-531.467,177a48.526,48.526,0,0,0,3.41,5c1.36,1.61,1.21,2.54.26,3.65"/><path class="l" d="M-533.667,185.226a13.428,13.428,0,0,1,2.2,2c.94,1.1,3.34,1.87,4.74.89s5.13-3.65,4.62-4.65"/><path class="l" d="M-530.827,180.436s0,1.5-1,2,1.43-.58,2.4.34"/><path class="e" d="M-440.767,261.1s-8.33-5.29-20.22-1a260.732,260.732,0,0,0-30.78,3.48s1.35-3.57-3.48-2.76c0,0-1.8-37.2-7.93-49.76,0,0-.73,3.59-22.12,4.48,0,0-1.52,66.53,6.3,76.28s73.39,2.19,73.39,2.19S-433.947,272.486-440.767,261.1Z"/><path class="ac" d="M-445.637,294.006s1.16-2.15,2.54-5.44h0c-1.36-14.12-39.32,1.54-56,3.25-11.09,1.14-19.07-5.09-23.18-9.4.85,4.39,1.91,7.73,3.25,9.4C-511.207,301.576-445.637,294.006-445.637,294.006Z"/><path class="m" d="M-510.1,274.386s13-13.86,15.26-10.81-3.53,3.32-6.9,16.64"/><path class="e" d="M-446.017,375.916s1.94-37.73,0-66.58-16.92-39.11,0-47.71,72.67-6.38,90.15,2.22,6.38,48.27,7.21,65.74,3.89,46.33,3.89,46.33Z"/><path class="ac" d="M-345.937,364.306c-1-10-2.23-24.35-2.72-34.72-.4-8.37,1.93-21.82,2.56-34.52-2.91-11.36-6.57-20.22-10.94-20.68-12.58-1.29-21.08,25.81-22.93,41.66s-.13,22.24-.13,22.24l-23.3-20.16s-11.59-8-17.94,1.94c-5.23,8.24,17.29,43.61,28.64,55.85h41.5Z"/><path class="x" d="M-411.627,340.226a1.94,1.94,0,0,1-1.94,1.94,1.939,1.939,0,0,1-1.94-1.94,1.94,1.94,0,0,1,1.94-1.94,1.941,1.941,0,0,1,1.94,1.94Z"/><path class="x" d="M-411.627,362.336a1.94,1.94,0,0,1-1.94,1.94,1.939,1.939,0,0,1-1.94-1.94,1.94,1.94,0,0,1,1.94-1.94,1.941,1.941,0,0,1,1.94,1.94Z"/><path class="ad" d="M-410.427,291.816c3.36,0,5.74,6.84,8.92,6.8s11.24-22.16,14.74-28.37,1.93-13.86-3.35-15.27-36.24,0-36.24,0a13.117,13.117,0,0,0-.9,12.2c3,6.66,4.07,28.48,8.32,29.22S-414.677,291.816-410.427,291.816Z"/><path class="x" d="M-517.767,226.266a1.94,1.94,0,0,1-2.489,1.156,1.94,1.94,0,0,1-1.155-2.489,1.94,1.94,0,0,1,2.484-1.157,1.94,1.94,0,0,1,1.161,2.486Z"/><path class="x" d="M-517.767,234.936a1.94,1.94,0,0,1-2.489,1.156,1.94,1.94,0,0,1-1.155-2.488,1.94,1.94,0,0,1,2.484-1.158A2,2,0,0,1-517.767,234.936Z"/><path class="aa" d="M-427.247,261.816s12.76,28.78,17.93,27.92,8.88-12.66,14.06-18.54,5.69-11.06,5.34-14.29l-1.46-14.69-11.65-1.3-16.64,12.21Z"/><path class="ae" d="M-419.667,253.126l-7.58,8.69s1.69,3.81,4.08,8.61a9.289,9.289,0,0,0,2.71-.33c11.54-3.19,28.41-16.31,27.42-26l-.53-1.92a6.429,6.429,0,0,0,1.64,0l-11.1-1.24Z"/><path class="n" d="M-433.047,205.046s-5.85,16.27-5.85,19.79-1.57,7-1.62,12.76-.42,27.18,12,27.18c12.21,0,32.36-8.32,34-18.12v-2a5.579,5.579,0,0,0,7.389-2.769h0c2.59-5,6.33-9.4,3-12.95s-9.61,2.59-10.72,5-3.52-.74-3.52-.74,0-11.65-3.69-15.17,5-8.5,1.66-12.94S-421.467,199.5-433.047,205.046Z"/><path d="M-386.937,233.036s7-9.87,2.22-21.52c0,0-3.88-19.6-27.74-21.63,0,0,6.1-4.63,2.22-6.48-5.88-2.8-16.22,6.66-16.22,6.66s4.85-7.33,2.49-7.45-19,18.55-9.08,25.21,24.51.92,24.51.92l7.18,24.29,1.11,3.08,10.42.74Z"/><path class="b" d="M-400.4,197.836c6.67,3.87,11,10.92,9.21,26.44"/><path class="b" d="M-420.017,196.426c4.34-.43,10.75-2.55,16.62-.07"/><path class="b" d="M-413.937,186.186s-13.29,6.47-10.25,9.43"/><path class="b" d="M-431.967,198.206c3.05,2.4,6.75-.19,13.22,0"/><path class="b" d="M-428.177,188.216s-3.27,3.63-4.28,6.66"/><path class="aa" d="M-433.047,205.046s-5.85,16.27-5.85,19.79-1.57,7-1.62,12.76-.42,27.18,12,27.18c12.21,0,32.36-8.32,34-18.12v-2a5.579,5.579,0,0,0,7.389-2.769h0c2.59-5,6.33-9.4,3-12.95s-9.61,2.59-10.72,5-3.52-.74-3.52-.74,0-11.65-3.69-15.17,5-8.5,1.66-12.94S-421.467,199.5-433.047,205.046Z"/><path class="m" d="M-427.247,226.126s-6.8,6.59-6.48,9.43c.18,1.56,4,2.82,4.63,4.25a7.917,7.917,0,0,1,0,2.41"/><path class="x" d="M-432.267,226.646c-.44,1.31-1.49,2.14-2.36,1.85s-1.23-1.58-.8-2.89,1.49-2.14,2.37-1.85S-431.837,225.336-432.267,226.646Z"/><path class="x" d="M-415.507,226.646c-.43,1.31-1.49,2.14-2.36,1.85s-1.22-1.58-.79-2.89,1.49-2.14,2.36-1.85S-415.067,225.336-415.507,226.646Z"/><path class="m" d="M-421.337,221.116s5.74-3.5,12,1.87"/><path class="i" d="M-433.047,243.716s8.94,3.14,17.72.92C-415.327,244.616-429.057,253.866-433.047,243.716Z"/><path class="m" d="M-436.677,222.056s4.06-4.25,9.43,0"/><path class="m" d="M-401.477,266.366c-1.72,5.1-4.31,12-7.06,16.21"/><path class="m" d="M-399.387,259.716s-.39,1.39-1.06,3.54"/><path class="aa" d="M-404.527,303.346l-5.79-7s-7-10.2-9.7-18.2-3.06-12.25-7.31-12.25-19.22-1-18.71,4.08a8.39,8.39,0,0,0,0,5.79,15.262,15.262,0,0,0,2.4,6.46c2,2.9,3.23,2.34,3.23,2.34s1.36,2.26,2.72,2.26c0,0,1.19,6.12,10.38,11.4l6.46,7,6.81,12.59,12.69-10.1Z"/><path class="m" d="M-425.627,272.846a31.1,31.1,0,0,1-4.72,1.66c-2.17.51-9.57,1.66-10.08,3.83s2.42,7.66,4,7.91,7,0,7.27-1.15a10.886,10.886,0,0,1,0,3.07c-.26,1.53-1.41,3.95.51,7.91"/><path class="m" d="M-446.057,275.786a5,5,0,0,1,3-2c1.91-.39,9.57-2.3,10.78-3.19"/><path class="m" d="M-446.037,270a11.328,11.328,0,0,1,2.93-1c1.53-.26,9.38-2.49,12-2.2"/><path class="m" d="M-430.217,283.286s-1.85-1.46-2.84-1-1.33,1.53-2.61,2.22"/><path class="m" d="M-433.057,282.246a12.407,12.407,0,0,0,4.37-2.21"/><path class="e" d="M-352.267,265.516c-9.51-5.21-22.47,13.87-22.74,36.89s-.56,27.18-.56,27.18l-28.57-30.79s-1.94,8.05-15.53,14.43a170.82,170.82,0,0,0,17.75,35.49c11.65,17.48,23,33,30.24,33s20.61-16.93,25.51-39.11C-335.617,294.916-332.517,276.336-352.267,265.516Z"/><path class="m" d="M-370.257,333.656a.609.609,0,0,1-.11-.855.61.61,0,0,1,.68-.2c4.22,1.43,11.77,5.29,16.59,15.3"/><path class="m" d="M-359.477,351.776a35.274,35.274,0,0,0-8.29-15.81"/><path class="m" d="M-350.407,334.446a23.689,23.689,0,0,1,2.16,2.31"/><path class="m" d="M-370.487,328.716s8.51-3.63,17.93,3.81"/><path class="m" d="M-372.987,304.636c-.27,1.43-.48,2.9-.64,4.43"/><path class="m" d="M-359.367,278.546a49.311,49.311,0,0,0-12.37,21"/><path class="x" d="M-409.687,320.066a1.94,1.94,0,0,1-1.94,1.94,1.939,1.939,0,0,1-1.94-1.94,1.94,1.94,0,0,1,1.94-1.94,1.941,1.941,0,0,1,1.94,1.94Z"/><path class="x" d="M-405.767,327.876a1.951,1.951,0,0,1-2,1.9,1.95,1.95,0,0,1-1.9-2,1.951,1.951,0,0,1,1.959-1.9,1.941,1.941,0,0,1,1.941,1.939Z"/><line class="m" x1="24.04" y1="25.91" transform="translate(-404.137 298.796)"/><path class="m" d="M-365.007,270.446c-5.48,6.76-9.84,18.71-10,32-.28,23-.56,27.18-.56,27.18"/><path class="m" d="M-358.767,265.336a14,14,0,0,0-3.84,2.55"/><path class="m" d="M-360.767,374.126c4.78-5.75,9.6-14.37,12.79-24.54"/><path class="m" d="M-419.667,313.226a170.82,170.82,0,0,0,17.75,35.49c6.74,10.11,13.39,19.57,19.19,25.75"/><path class="af" d="M-405.077,380.9h-44.46v-4.07h44.82a1.32,1.32,0,0,1,1.32,1.32h0v1.07a1.68,1.68,0,0,1-1.68,1.68Z"/><path class="ag" d="M-471.137,309.516h5.63a4,4,0,0,1,3.82,2.88l18.43,63.41a4,4,0,0,1-2.759,4.939,3.964,3.964,0,0,1-1.061.151h-4.89Z"/><path class="af" d="M-530.767,380.9h81.73a4,4,0,0,0,3.971-4.028,4.017,4.017,0,0,0-.151-1.062l-18.43-63.41a4,4,0,0,0-3.82-2.88h-81.71a4,4,0,0,0-3.975,4.026,4.024,4.024,0,0,0,.155,1.074l18.42,63.41A4,4,0,0,0-530.767,380.9Z"/><rect class="ah" width="126.36" height="18.14" rx="4.42" transform="translate(-663.457 164.986)"/><rect class="l" width="126.36" height="18.14" rx="4.42" transform="translate(-663.457 164.986)"/><rect class="i" width="126.36" height="18.14" rx="4.42" transform="translate(-670.136 98.738) rotate(-8.65)"/><path class="z" d="M-837.207,163.806s-10.27,5.07-12.56,15.26c0,0-2.91-2.91-4.07,9.61,0,0-25.92,48.06-26.22,68.74s48.64,54.17,48.64,54.17,5.25-7,4.08-13.4c0,0-18.93-35.82-28.54-40.19,0,0,10.77-26.21,18.06-31.16S-837.207,163.806-837.207,163.806Z"/><path class="ai" d="M-855.917,258s8.35-20.28,15.31-28.54c-3.56-9.14-10.18-24.33-13-19.16-4,7.25-14.37,44.43-8.46,49.88s-3.69,5.76.74,13c3.76,6.13,24.94,26.44,33.2,32.1a14.14,14.14,0,0,0,.79-7.09S-846.307,262.366-855.917,258Z"/><path class="m" d="M-850.687,190.606s1,15,4.45,23.56"/><path class="m" d="M-857.837,260.956s-5.46,5.86-13,5.07"/><line class="m" x2="0.56" y2="17.75" transform="translate(-836.387 287.426)"/><path class="af" d="M-749.027,318.576s12.26,38.36,14.56,57.33h-99.61s-.87-45,2.91-59.37Z"/><path class="l" d="M-790.917,365.716c2.24,2,6.6,10.15,6.6,10.15"/><path class="l" d="M-811.937,339.836a170.708,170.708,0,0,0,16.93,21.88"/><path d="M-784.857,87.906s7.58-6.79,5.83-11.07c-2.28-5.57-8.16,2.72-8.16,2.72s2.33-8.54-2.65-10.68c-5.33-2.28-9.77,7.77-9.77,7.77s-1.38-8.63-8.94-6.8c-6.4,1.56-1.16,8.74-6.4,11.07s-22.53,8.35-19.23,20c0,0-4.66-9.13-6.4-5.44s4.27,8.74,6.6,9.32c0,0-3.69,7.77-.78,9.91s2.33-5.63,2.33-5.63,1.9,21.4,22.53,32.62,20.06-26,20.06-26l5.18-16.7Z"/><path class="aj" d="M-811.127,86.356c-8.68,2.72-21.74,6-16.08,23.3"/><path class="aj" d="M-807.377,73.346s3.24,6.75-.15,10.76"/><path class="aj" d="M-817.277,120.336c.46,1.1,1,2.24,1.55,3.42"/><path class="aj" d="M-794.237,80.356a17.4,17.4,0,0,1-7.51,6.58c-9,4.32-23.17,9.29-17.2,28.81"/><path class="aj" d="M-791.847,72.566a13.7,13.7,0,0,1-.65,3.91"/><path class="aj" d="M-807.467,96.256c-4.6,3.54,2,8.23,4.75,14.17"/><path class="aj" d="M-781.767,78.786s-8.54,11.65-21,15.33"/><path class="z" d="M-833.2,319.156s-.59-21-3.5-53.59-19.22-97.85,3.5-103.68,68-9.49,83.29,5.24c16.9,16.31,4.08,107.18,3.5,122.91s2.33,33.78,2.33,33.78S-804.367,336.926-833.2,319.156Z"/><path class="ai" d="M-746.407,290.036c.23-6.31,2.43-24.7,3.9-45.52-1.55-9.84-3-19-4.12-25.66-4.14-25.08-43.73-26.45-73.74-23.14-14.56,1.58-20,15.76-21.75,29.94,2,14.67,4.45,29.12,5.42,40,2.91,32.62,3.5,53.59,3.5,53.59,28.83,17.77,89.12,4.66,89.12,4.66S-746.987,305.766-746.407,290.036Z"/><path class="ak" d="M-785.827,153.146v-6.6s11.28,1.75,12.83-1.17-1-14.95-1-14.95,5.43.2,5.43-2.33-6.4-13.2-6.4-13.2.77-8.54,0-11.26-8.74-18.06-8.74-18.06-11.65,6.4-11.26,9.9,3.69,6.8,1,9.71-6.41,10.77-5.25,14.51l-1.74,1.22s-1-7-4.86-8.16-7,6.61-4.27,12,5.83,4.47,5.83,4.47-1.56,9.32-5.63,12.43l-1.23,9.7Z"/><ellipse class="al" cx="1.26" cy="2.33" rx="1.26" ry="2.33" transform="translate(-779.607 110.426)"/><path class="l" d="M-786.987,128.716s.91,2.52,8.22,2.91"/><path class="l" d="M-778.347,106.166a5,5,0,0,0-5.34,3.49"/><path class="am" d="M-818.837,162.326s-7.76-10.54,0-11.7,39.61-3.89,44.66,0-7.76,2.72-8.54,9.32S-818.837,162.326-818.837,162.326Z"/><path class="m" d="M-770.907,114.716c0,3.75-1.09,6.78-2.44,6.78s-2.44-3-2.44-6.78,1.09-6.78,2.44-6.78S-770.907,110.936-770.907,114.716Z"/><path class="m" d="M-771.447,110.426l-26.84,2a9.591,9.591,0,0,0-5.23,2"/><path class="ak" d="M-690.467,136.206l6.34-14.12s3.7-15.31,6.63-18.64,7.69-9.35,9.2-7.68c1.1,1.2-.26,5.3-2.68,8.45-2.62,3.42-.49,6.63.47,8s6.67,4.18,11.13,4.76,13.35-5.06,16.41-3.08-3.18,4.16-3.18,4.16,4.81-.64,5.82,2.06c.59,1.6-4.35,1.57-6.76,1.81s-7.3,1-7.3,1,8.78,1.12,8.67,3.52-6.59.15-11.51.34c0,0,7.06,1.82,6.67,4.13s-4.12-.12-10-1.14l-13.66-1.73-4.31,15.94Z"/><path class="l" d="M-649.717,118.856a13.357,13.357,0,0,1-10.26,1.31s.58,1.89,0,2.69-.51,2.4-2,3.42a21.535,21.535,0,0,1-2.33,1.46"/><path class="z" d="M-770.907,158.3s21.5.09,29.7,6.79c0,0,0-3.49,6.45,0,0,0,19.51-2.33,28.54,0,0,0,11.07-27.38,17.77-34.66,0,0,9.61.59,12.23,4.95,1.25,2.08-1.7,13.5-4.44,25.13-3,12.84-6.07,25.94-8.67,27-4.95,2-57.08,6.7-57.08,6.7l-24.5-12.82Z"/><path class="ac" d="M-675.947,136.5a2.5,2.5,0,0,0-.88-.46c-7.42-2-11.08,39.72-16.82,44.64s-36.79,1.74-44.61.11c-5.83-1.21-4.6,8.17-3.6,13,12.79-1.19,48.48-4.61,52.53-6.28,2.6-1.07,5.64-14.17,8.67-27C-678.237,150.246-675.667,140.156-675.947,136.5Z"/><path class="m" d="M-703.6,166.256s4.37.87,9.61,7.86"/><path class="m" d="M-738.837,170.186a45.547,45.547,0,0,1,0,20.24"/><path class="m" d="M-757.177,162.326s14,7.38,15,28.1"/><path class="aj" d="M-756.3,296.716a16.515,16.515,0,0,0,2.32-4"/><path class="m" d="M-823.107,307.9s46.18,6.08,63.71-8.07"/><path class="ah" d="M-766.717,214.466s-23.11,6.67-22.19,23.86,5.36,16.21-4.44,21.88-.55,16.4-3.33,21.21-20.34,18.12-12.75,25,45.67-6.84,59,0,23.83-7.67,27.36-11.43-6.83-9.09-6.46-16.67,7-49.47-1.48-55.06S-759.367,211.406-766.717,214.466Z"/><path class="an" d="M-684.774,242.522l4.24-15.4s1.66-10.54,3-12.62a31.777,31.777,0,0,1,5-5,36.984,36.984,0,0,1,4.42-5.13c1.82-1.53,12.5-7.08,13.33-6.66s2.15,2.91-4.78,6.8a17.647,17.647,0,0,1,6.87,1c3.05,1.24,5.13,1.59,3.81,2.91s-2.43,1.94-7.35.62a38.262,38.262,0,0,1-6.24.21l-1.53,1.8a3,3,0,0,1,3.75,1.18c1.38,2.22,3,5,2.28,6.59,0,0,5.34-2.77,6.8-.49s-3.05,4.37-4.85,5.76-6.18,5.13-6.18,5.13-3.12,7-9.63,9.57a9.222,9.222,0,0,0-.7,5.62Z"/><path class="m" d="M-662.607,206.086l-2.29,1.87-2.56,4.44-1.74,5.82"/><path class="m" d="M-670.647,218.216s3.63,4.37,6.22,5a24.2,24.2,0,0,0,3.28-1.67c.46-.4,1.15-1.18,2.56-2.31"/><path class="m" d="M-666.627,217.876l.33-1.18a7.849,7.849,0,0,0,3.28,0l.83,1.18A15.362,15.362,0,0,0-666.627,217.876Z"/><path class="m" d="M-662.947,212.946a5.891,5.891,0,0,0-.49,3"/><path class="l" d="M-660.767,216.716a7,7,0,0,0-2.41,6"/><path class="m" d="M-665.1,211.836l-1.53,1.67v1.87"/><path class="g" d="M-737.527,290.286s34.88.89,39.89,4.58c0,0-3.13-5,2.5-3.4,0,0,.39-42.82,8-43.4l2.52-9.74a1.12,1.12,0,0,1,1.361-.81,1.152,1.152,0,0,1,.309.13c2.09,1.29,6.42,3.62,10.45,3.67a1.111,1.111,0,0,1,1.09,1.12v8.35s3.88,1,3.68,6.6-3.74,56.14-10.15,61.61-51.49,2.72-51.49,2.72S-740.437,311.056-737.527,290.286Z"/><path class="ac" d="M-669.2,276.086c-4.27,31.53-12.64,27.82-15.26,30.32s2.34,8.87-14.58,10.47-27.63-15.33-27.63-15.33l-8.65,10.4a29.217,29.217,0,0,0,6,9.79s45,2.72,51.45-2.74c4.16-3.55,7.11-26,8.72-42.92Z"/><path class="m" d="M-693.647,299.606s2.53,1.94,4.08,8"/><path class="m" d="M-691.607,294.946a23.576,23.576,0,0,1,8.26,6.6"/><path class="m" d="M-684.457,249.426s3.3,2.33,9.9,3.11"/><path class="g" d="M-800.767,375.906s-27-56.95-6.29-75.07,64.35-13.32,71.75-11.1,14.79,23.67,15.16,35.14,7.64,11.3-2.71,51Z"/><path class="ac" d="M-800.767,375.906h77.91q.829-3.18,1.51-6c-4.28-1.91-8.18-4.17-14-4.66-9.94-.83-22.52,7.77-40.27,0s-.56-36.89-1.48-41.93-14.89,10.26-14.89,10.26l-18.61,15.7A189.971,189.971,0,0,0-800.767,375.906Z"/><path class="an" d="M-774.107,339.106l16.45-5.39s6.84-10.89,10.36-13.66,5.73-3.7,9.24-2l5.92-.82s2.5-3.18,5.36-2.5,13.32,3.88,12.21,6.1-10-1.85-11.28-.74c0,0,2.91,5.22,2.91,8.41s.83,8.05-1,8.05-3.33-2-3.19-4.62c0,0-.55,5.73-2.36,5.45s-3.05-1.81-2.77-4.16c0,0-4.16,12.9-14.7,12.76l-19.11,7.73S-769.947,352.8-774.107,339.106Z"/><path class="l" d="M-743.187,333.2s2.5-5,1.81-7.35l3.6-1.39s1.53,2.08,2.64,1.53l-.56,2.84s-2.77,3.4-1.25,5.34,3.75-2.5,5-3.75,1.52-6.75.55-8.5-4.55-1.57-5.6-2.73"/><path class="l" d="M-731.767,318.026s3.15-.37,4.07,1.16a15.1,15.1,0,0,1,1.66,7,44.874,44.874,0,0,1-.83,4.62"/><line class="l" y1="3.08" x2="0.56" transform="translate(-731.767 328.826)"/><path class="l" d="M-728.887,318.306s1.79-.79,3,1.76"/><path class="l" d="M-735.417,327.376l-1.58.64.79,1.52.51-.71Z"/><path class="m" d="M-752.657,341.146s.74,1.85,4.06,3.7"/><path class="an" d="M-766.527,267.916l-5.37,15.72s11.47,12.2,21.45,13.13l4.07,4.78,4.44-5.34-1.11-6.84-1.79-2.89-1.54-.5,3.15-8.63-10.04-13.63h-9.75Z"/><g class="ao"><path class="ae" d="M-743.227,277.346l-10.04-13.63h-9.75l-1.14,1.38c.67,3.12,2.09,8.44,4.47,11.56,2.53,3.33,9.65,7.13,13.45,9Z"/></g><path class="l" d="M-766.527,267.916l-5.37,15.72s11.47,12.2,21.45,13.13l4.07,4.78,4.44-5.34-1.11-6.84-1.79-2.89-1.54-.5,3.15-8.63-10.04-13.63h-9.75Z"/><path class="an" d="M-763.767,260.206s1.85,11.41,6.84,15.11,22.93,10.51,26.26,7.29,6.66-13.58,7.4-18.94-1.11-14.2-.74-19.58.74-14.45-6.66-17.22-34.4,10.61-34.4,10.61l-1.65,10.24Z"/><path class="m" d="M-728.9,244.086s-1.11,4.51,0,6.17c.75,1.13,2.71,3.84,3.9,5.48a1.581,1.581,0,0,1-.36,2.206l-.02.014c-1.42,1-3.54,2.63-4,3.67a4.157,4.157,0,0,0,0,1.39"/><path class="m" d="M-729.287,265.816s-5,4-10-1.11"/><path class="m" d="M-743.227,245.816s2.19-4.85,9.92-2.36"/><path class="m" d="M-728.6,242.716a2.74,2.74,0,0,1,3.86,0"/><path class="x" d="M-735.357,247.636c.31,1.15.1,2.2-.47,2.36s-1.29-.66-1.59-1.81-.1-2.2.47-2.35S-735.667,246.486-735.357,247.636Z"/><path class="x" d="M-724.837,246.466c.22,1.05,0,2-.54,2.09s-1.12-.64-1.34-1.69,0-2,.53-2.1S-725.067,245.416-724.837,246.466Z"/><path class="ah" d="M-738.017,213.606s9.42-5.4,23.58,7.13c12.8,11.32-2.84,4.83-2.84,4.83s6.5,12.15-.43,14.65-3.15-4.85-18.68-8.36c0,0,6.93,5.62,2.18,8.9-6.1,4.21-10.13-3-14.94-1.32,0,0-2.59,14.24-7.77,16.65,0,0-5,19.08-11.67,17.86s1.5-3.81-2.2-15.46-11.65-22.65-5.54-35.27S-748.327,209.226-738.017,213.606Z"/><path class="g" d="M-797.047,297.716c-5.22.08-10,2-12.2,5.38-8.24,12.29-18.49,35.13-25.15,50.29s-3.37,24.33,0,25.48,15.16,4.81,38.09-6.28,20.72-13.32,20.72-13.32l13.15-6.07a.74.74,0,0,0,.369-.979.745.745,0,0,0-.249-.3c-2.09-1.5-6.31-5.74-6.6-15.6a.75.75,0,0,0-.777-.722.74.74,0,0,0-.223.042l-12.31,5s-1.85-2-12.58,2c0,0,10.73-7.77,15.54-13.69,2.26-2.78,3-8,2.19-13.34"/><path class="m" d="M-817.2,350.206c3.55-2.94,18.49-4.44,18.68-6.66s-12.58,3.15-12.39,0"/><path class="m" d="M-787.237,320.806s3.7,5.9,3.69,9.24,4.44-5.36,4.44-9.24"/><path class="m" d="M-781.507,343s-.37,4.44,3.7,11.83"/><path class="ap" d="M-783.767,289.536s3.8-11.24,8.24-9.59,26.07,11,29.12,21.6c0,0-4.44-5.85-8.32,0S-762.3,302.2-783.767,289.536Z"/><path class="ap" d="M-744.837,286.476a22.939,22.939,0,0,1-1.54,15.07s3.33-4.27,7.21-1.36,0-9.25-1.8-11.55a18.945,18.945,0,0,0-3.45-2.43.26.26,0,0,0-.367.026A.255.255,0,0,0-744.837,286.476Z"/><path class="l" d="M-746.377,285.976s-1.15,3.68,0,5.88"/><path class="n" d="M-760.687,376.836h44.82v4.07h-44.46a1.68,1.68,0,0,1-1.68-1.68v-1.07A1.32,1.32,0,0,1-760.687,376.836Z"/><path class="ag" d="M-694.267,309.516h-5.63a4,4,0,0,0-3.82,2.88l-18.43,63.41a4,4,0,0,0,2.758,4.939,3.977,3.977,0,0,0,1.062.151h4.89Z"/><path class="n" d="M-622.447,380.9h-93.93a4,4,0,0,1-3.982-4.018,4,4,0,0,1,.152-1.072l18.44-63.41a4,4,0,0,1,3.83-2.88h93.93a4,4,0,0,1,3.974,4.026,3.979,3.979,0,0,1-.154,1.074l-18.43,63.41A4,4,0,0,1-622.447,380.9Z"/><path class="aq" d="M-764.157,265.046s-7.55,11.79-3.11,22.41.55,16.13-4.63,12.15-7.58-8.35-30.88-4.66l15.54-15.17,10.54-14.13,9.87-4.64Z"/><path class="aq" d="M-718.217,231.856a6.712,6.712,0,0,1,.93,3.54"/><path class="b" d="M-748.6,219.716c14-.23,22.81,4,27.4,8.38"/><path class="b" d="M-787.9,280.046a22.027,22.027,0,0,0,.66-8c-1.11-12.48,8.87-8.24,11.09-24.09,2-14.35,4.4-25.55,21.63-27.83"/><path class="b" d="M-794.177,288.916a12.988,12.988,0,0,0,3.86-3.73"/><path class="b" d="M-774.377,288.376a25.17,25.17,0,0,0,1.56,3.48"/><path class="b" d="M-762.027,229.946c-6.81,6-.8,17.75-4,25-3,6.72-11,16.55-9.56,28.28"/><path class="b" d="M-736.387,236.646s-9.39-13.6-21.87-8.88"/><rect class="i" width="126.36" height="18.14" rx="4.42" transform="translate(-657.327 199.296)"/><g class="ar"><rect class="as" width="126.36" height="18.14" rx="4.42" transform="translate(-657.327 199.296)"/></g><rect class="l" width="126.36" height="18.14" rx="4.42" transform="translate(-657.327 199.296)"/></g></svg>