<svg width="579.216" height="505.448" xmlns="http://www.w3.org/2000/svg">
 <defs>
  <style>.a{opacity:0.1;}.b{fill:#fff;}.c{fill:#e8e8e8;}.d{fill:#e0e0e0;}.e{fill:#263238;}.f{fill:#fafafa;}.g{fill:#eb996e;}.h{fill:#d57949;}.i{fill:#0f0f0f;}.j{fill:#f7e34f;}.k{fill:#ffe53c;}.l{fill:#da005a;}.m{opacity:0.6;}.n{fill:#a80058;}.o{fill:#455a64;}.p{fill:#1d2b48;}.q{fill:#be6e44;}.r{fill:#d48359;}.s{fill:#ebebeb;}.t{fill:#0f9b2c;}.u{fill:#8cc408;}.v{fill:#37d6b5;}</style>
 </defs>
 <g>
  <title>Layer 1</title>
  <g stroke="null" id="svg_1">
   <g stroke="null" id="svg_2" class="a">
    <rect stroke="null" id="svg_3" x="93.62855" y="22.11079" height="161.19278" width="111.3743" class="b"/>
    <rect stroke="null" id="svg_4" x="88.04927" y="22.11079" height="161.19278" width="111.3743" class="b"/>
    <rect stroke="null" id="svg_5" x="101.8867" y="39.56935" height="126.27674" width="83.69949" class="c"/>
    <path stroke="null" id="svg_6" d="m185.58617,165.84609s-0.0107,-0.21365 -0.01605,-0.61745s-0.00963,-1.01164 -0.01712,-1.7904c-0.00749,-1.58743 -0.01819,-3.90983 -0.03317,-6.92659c-0.01712,-6.05169 -0.04279,-14.87123 -0.07489,-26.0121c-0.03317,-22.26679 -0.08131,-53.79858 -0.13694,-90.93019l0.27816,0.27775l-83.68987,0.02457l-0.00963,0l0.30277,-0.30232c-0.02354,47.63687 -0.04493,91.55833 -0.06205,126.27674l-0.24072,-0.24143l60.92245,0.12712l16.83191,0.06089l4.4174,0.02777c1.00031,0.00855 1.52774,0.02564 1.52774,0.02564s-0.49213,0.01709 -1.47639,0.02564l-4.37354,0.02777l-16.77734,0.06089l-61.07223,0.12712l-0.24179,0l0,-0.24143c-0.01712,-34.71841 -0.03851,-78.63988 -0.06098,-126.27674l0,-0.30232l0.31347,0l83.68987,0.02457l0.27816,0l0,0.27775c-0.05563,37.20639 -0.10698,68.79587 -0.13694,91.1118c-0.0321,11.10989 -0.05777,19.91234 -0.07489,25.95014c-0.01498,2.99112 -0.02568,5.29643 -0.03317,6.86997c-0.00749,0.76594 -0.01284,1.35028 -0.01712,1.75942s-0.01712,0.58541 -0.01712,0.58541z" class="b"/>
    <path stroke="null" id="svg_7" d="m181.70583,40.4122" class="b"/>
    <path stroke="null" id="svg_8" d="m199.73597,22.10545a19.27865,19.25002 0 0 1 -1.98457,2.8843c-1.29452,1.72737 -3.13037,4.07754 -5.2262,6.6232s-4.05472,4.79114 -5.50436,6.39032a19.22408,19.19554 0 0 1 -2.45102,2.49652a20.923,20.89194 0 0 1 2.12579,-2.77747l5.36207,-6.49608c2.03271,-2.457 3.86536,-4.68859 5.35672,-6.49929a21.03106,20.99983 0 0 1 2.32157,-2.62151z" class="b"/>
    <path stroke="null" id="svg_9" d="m186.00876,165.43908a103.65856,103.50467 0 0 0 14.59806,18.23091" class="b"/>
    <path stroke="null" id="svg_10" d="m200.6111,183.66999a16.68106,16.65629 0 0 1 -2.54517,-2.31171a81.72349,81.60216 0 0 1 -10.35505,-12.92593a16.58263,16.55801 0 0 1 -1.69785,-2.99112a23.17182,23.13742 0 0 1 2.05304,2.74756c1.22818,1.72097 2.95278,4.07541 4.96623,6.59223s3.9349,4.71209 5.34924,6.28564a23.08409,23.04982 0 0 1 2.22956,2.60335z" class="b"/>
    <path stroke="null" id="svg_11" d="m88.03322,183.17645l14.58844,-17.97239" class="b"/>
    <path stroke="null" id="svg_12" d="m102.62166,165.20406a111.00734,110.84254 0 0 1 -7.06099,9.17634a110.90036,110.73571 0 0 1 -7.52958,8.79604a110.88431,110.71969 0 0 1 7.06099,-9.17634a110.88538,110.72076 0 0 1 7.52958,-8.79604z" class="b"/>
    <path stroke="null" id="svg_13" d="m88.04927,22.10545a100.90371,100.7539 0 0 1 7.08025,8.45206a100.55494,100.40565 0 0 1 6.60631,8.82809a100.48647,100.33728 0 0 1 -7.08132,-8.45313a100.63411,100.4847 0 0 1 -6.60524,-8.82702z" class="b"/>
    <rect stroke="null" id="svg_14" x="131.48295" y="65.20863" height="79.45603" width="28.02572" class="d"/>
   </g>
   <g stroke="null" id="svg_15" class="a">
    <rect stroke="null" id="svg_16" x="59.85347" y="246.58723" height="110.48254" width="239.91644" class="b"/>
    <path stroke="null" id="svg_17" d="m294.06333,351.86307l-228.71835,0l0,-99.46238l228.71835,0l0,99.46238zm-227.22163,-1.49022l225.72385,0l0,-96.48193l-225.72813,0l0.00428,96.48193z" class="b"/>
    <rect stroke="null" id="svg_18" x="299.7699" y="246.58723" height="110.48254" width="58.61051" class="b"/>
    <path stroke="null" id="svg_19" d="m66.09066,283.1815l227.22377,0a0.3017,0.30125 0 0 0 0,-0.60143l-227.22377,0a0.3017,0.30125 0 0 0 0,0.60143z" class="b"/>
    <path stroke="null" id="svg_20" d="m180.44555,282.88132a248.83576,248.46633 0 0 0 0.07703,-30.0106a0.30598,0.30552 0 0 0 -0.61195,0a248.8625,248.49303 0 0 0 0.0781,30.0106a0.22895,0.22861 0 0 0 0.45682,0z" class="b"/>
    <path stroke="null" id="svg_21" d="m241.60444,267.87549a3.09507,3.09047 0 1 1 -3.09507,-3.09047a3.09614,3.09154 0 0 1 3.09507,3.09047z" class="b"/>
    <path stroke="null" id="svg_22" d="m122.35285,267.87549a3.09507,3.09047 0 1 1 -3.09507,-3.09047a3.09614,3.09154 0 0 1 3.09507,3.09047z" class="b"/>
    <circle stroke="null" id="svg_23" r="3.09046" cy="302.13134" cx="179.70201" class="b"/>
    <path stroke="null" id="svg_24" d="m88.53819,357.06976l-12.35246,69.36312l6.94759,0l22.77384,-69.36312l-17.36897,0z" class="b"/>
    <path stroke="null" id="svg_25" d="m282.79569,357.06976l10.32937,69.48383l-6.94866,0l-20.75504,-69.48383l17.37432,0z" class="b"/>
    <path stroke="null" id="svg_26" d="m329.17571,357.06976l11.70413,69.47849l-6.94866,0l-22.12551,-69.48383l17.37004,0.00534z" class="b"/>
    <path stroke="null" id="svg_27" d="m182.58525,333.39608a3.09507,3.09047 0 1 1 -3.09507,-3.09047a3.09507,3.09047 0 0 1 3.09507,3.09047z" class="b"/>
    <path stroke="null" id="svg_28" d="m66.09066,317.39463l227.22377,0a0.3017,0.30125 0 0 0 0,-0.60143l-227.22377,0a0.3017,0.30125 0 0 0 0,0.60143z" class="b"/>
   </g>
   <g stroke="null" id="svg_29" class="a">
    <path stroke="null" id="svg_30" d="m487.84796,328.89337c-0.10164,0.12712 -0.95002,-0.38244 -1.8947,-1.1377s-1.62831,-1.46992 -1.52667,-1.59705s0.95002,0.3835 1.8947,1.13876s1.62831,1.46992 1.52667,1.59598z" class="b"/>
    <path stroke="null" id="svg_31" d="m513.61843,290.43071c0.1562,-3.59362 0.25783,-7.27805 -0.87834,-10.6922s-3.77228,-6.5527 -7.29957,-7.28232c-4.02583,-0.83217 -8.15117,1.70921 -10.40747,5.13726s-3.03088,7.59959 -3.69739,11.65043a412.07732,411.46553 0 0 0 -5.05075,84.56337l16.47565,2.30744c7.23538,-29.5192 9.54304,-55.32406 10.85788,-85.68397z" class="b"/>
    <path stroke="null" id="svg_32" d="m503.15319,272.33013a0.93826,0.93686 0 0 1 -0.07382,0.26172c-0.07382,0.20083 -0.16262,0.44653 -0.27281,0.74778l-1.09659,2.84157c-0.23002,0.61959 -0.53492,1.29046 -0.78099,2.0564s-0.51353,1.60239 -0.80025,2.49118l-0.92328,2.8608q-0.40333,1.54791 -0.85588,3.26139a143.27714,143.06443 0 0 0 -3.18173,16.28026c-0.89118,6.18522 -1.47639,13.0381 -1.93642,20.2371c-0.84197,14.41295 -0.97356,27.49591 -1.3448,36.96176c-0.17652,4.73025 -0.33807,8.55782 -0.51995,11.19963q-0.13052,1.92287 -0.20648,3.0424c-0.02782,0.32048 -0.05028,0.57686 -0.06847,0.78944a0.87941,0.87811 0 0 1 -0.04386,0.26813a0.9864,0.98493 0 0 1 -0.01605,-0.27134c0,-0.21365 0.00535,-0.47431 0.00963,-0.79265q0.0353,-1.11847 0.09629,-3.04667c0.10698,-2.64394 0.21397,-6.47151 0.33272,-11.20176c0.26425,-9.45943 0.33058,-22.54026 1.17683,-36.97885c0.4611,-7.21182 1.06343,-14.07858 1.98671,-20.27876a136.36914,136.16668 0 0 1 3.31653,-16.30911q0.46966,-1.70921 0.89439,-3.26246q0.51353,-1.51372 0.96928,-2.85652t0.84839,-2.4837c0.26211,-0.76274 0.58414,-1.42933 0.83127,-2.04465l1.20251,-2.80525l0.32095,-0.72321a0.96286,0.96143 0 0 1 0.13587,-0.24463z" class="b"/>
    <path stroke="null" id="svg_33" d="m504.67986,272.33868a11.80362,11.7861 0 0 1 2.01238,3.40347a25.23235,25.19488 0 0 1 1.50314,10.64199c-0.43864,9.08875 -1.25279,21.61408 -2.33655,35.44376s-2.29696,26.33365 -3.26945,35.37112c-0.48571,4.5198 -0.90723,8.17325 -1.21642,10.69648q-0.23644,1.831 -0.37445,2.90353c-0.04386,0.30125 -0.08131,0.54802 -0.10698,0.74778a0.92114,0.91977 0 0 1 -0.05777,0.25425a0.84839,0.84713 0 0 1 0,-0.26172c0.01498,-0.20617 0.0321,-0.45508 0.05349,-0.75953q0.09843,-1.07467 0.26425,-2.91421c0.2482,-2.58412 0.59911,-6.23009 1.03026,-10.71357c0.86658,-9.04602 2.00703,-21.54892 3.09614,-35.37539s1.96424,-26.35181 2.50772,-35.41278a25.80257,25.76427 0 0 0 -1.29879,-10.54158a22.12551,22.09266 0 0 0 -1.80697,-3.48359z" class="b"/>
    <path stroke="null" id="svg_34" d="m516.10155,314.9152a17.64392,17.61772 0 0 1 -6.04571,-2.16536a17.68243,17.65618 0 0 1 6.04571,2.16536z" class="b"/>
    <path stroke="null" id="svg_35" d="m518.08933,298.14888a19.58997,19.56089 0 0 1 -6.18051,2.76145a19.58997,19.56089 0 0 1 6.18051,-2.76145z" class="b"/>
    <path stroke="null" id="svg_36" d="m517.05799,284.46982a10.29407,10.27879 0 0 1 -4.87208,-0.33543a10.25662,10.2414 0 0 1 4.87208,0.33543z" class="b"/>
    <path stroke="null" id="svg_37" d="m500.05705,275.69835c-0.13801,0.08653 -0.85588,-0.81081 -1.61119,-2.00512s-1.25065,-2.23052 -1.11264,-2.31705s0.85588,0.81081 1.61119,2.00405s1.24958,2.23159 1.11264,2.31812z" class="b"/>
    <path stroke="null" id="svg_38" d="m494.43928,283.97095a9.3847,9.37077 0 0 1 -4.66667,-0.09935a9.41466,9.40068 0 0 1 4.66667,0.09935z" class="b"/>
    <path stroke="null" id="svg_39" d="m490.40596,300.52682a5.71298,5.7045 0 0 1 -2.46065,-0.67514c-1.29986,-0.52238 -2.30338,-1.06826 -2.24668,-1.21995a5.73224,5.72373 0 0 1 2.46065,0.67514c1.30307,0.52345 2.30766,1.06933 2.24668,1.21995z" class="b"/>
    <path stroke="null" id="svg_40" d="m489.97481,314.44837c0.03317,0.15917 -0.90509,0.49033 -2.09583,0.73924s-2.18356,0.32048 -2.21672,0.16451s0.90402,-0.48926 2.09583,-0.73924s2.18356,-0.32261 2.21672,-0.16451z" class="b"/>
    <path stroke="null" id="svg_41" d="m488.0769,337.22258c0.02889,0.15917 -0.96286,0.4711 -2.22528,0.6965a4.79826,4.79114 0 0 1 -2.32906,0.11751c-0.02889,-0.15917 0.96286,-0.4711 2.22528,-0.6965a4.79826,4.79114 0 0 1 2.32906,-0.11751z" class="b"/>
    <path stroke="null" id="svg_42" d="m486.81662,349.79278c0.07596,0.14421 -0.75531,0.73176 -1.85618,1.31289s-2.05411,0.93579 -2.13007,0.79265s0.74889,-0.73069 1.85512,-1.31182s2.05732,-0.93686 2.13114,-0.79372z" class="b"/>
    <path stroke="null" id="svg_43" d="m497.09678,364.06152c-0.14122,0.08119 -0.86444,-0.91763 -1.61654,-2.22839a6.63305,6.6232 0 0 1 -1.10729,-2.52109c0.14122,-0.08012 0.86551,0.91657 1.61761,2.22839a6.63305,6.6232 0 0 1 1.10622,2.52109z" class="b"/>
    <path stroke="null" id="svg_44" d="m500.06347,340.35044c0.1134,0.11537 -0.69326,1.08962 -1.80162,2.17498s-2.09904,1.87052 -2.21351,1.75515s0.69326,-1.08962 1.80162,-2.17498s2.09904,-1.87266 2.21351,-1.75515z" class="b"/>
    <path stroke="null" id="svg_45" d="m499.40658,327.9095c-0.11875,0.10683 -0.86658,-0.50315 -1.6711,-1.36844s-1.35871,-1.65901 -1.23888,-1.76904s0.86765,0.50315 1.6711,1.36951s1.35871,1.65687 1.23888,1.76797z" class="b"/>
    <path stroke="null" id="svg_46" d="m501.44571,312.01274c0.12089,0.10683 -0.55097,1.05437 -1.49779,2.11302s-1.81874,1.82993 -1.93963,1.72203s0.55097,-1.05437 1.49779,-2.11408s1.81874,-1.82886 1.93963,-1.72097z" class="b"/>
    <path stroke="null" id="svg_47" d="m502.59473,300.47555c-0.11447,0.11644 -1.05273,-0.61959 -2.09476,-1.64298s-1.79734,-1.94744 -1.68287,-2.06388s1.05166,0.62066 2.09476,1.64405s1.79627,1.94744 1.68287,2.06281z" class="b"/>
    <path stroke="null" id="svg_48" d="m504.84997,284.8811a5.77717,5.7686 0 0 1 -1.05166,2.33415c-0.72108,1.20713 -1.41862,2.11729 -1.5577,2.02969s0.33165,-1.12808 1.05166,-2.33521s1.41755,-2.11195 1.5577,-2.02862z" class="b"/>
    <path stroke="null" id="svg_49" d="m509.09298,270.42863a5.57925,5.57097 0 0 1 -0.93077,2.33735c-0.65689,1.21354 -1.30521,2.13652 -1.44857,2.05747a5.59209,5.58379 0 0 1 0.93077,-2.33735c0.65689,-1.21354 1.30521,-2.13438 1.44857,-2.05747z" class="b"/>
    <path stroke="null" id="svg_50" d="m513.90622,276.99201c0.07061,0.14635 -0.58842,0.60677 -1.47104,1.02873s-1.65612,0.64096 -1.72673,0.49888s0.58949,-0.60677 1.47211,-1.02873s1.65612,-0.64416 1.72566,-0.49888z" class="b"/>
    <path stroke="null" id="svg_51" d="m514.02391,328.89444a10.05656,10.04163 0 0 1 -6.01682,-2.56382a16.13544,16.11148 0 0 1 3.02446,1.24239a16.3141,16.28988 0 0 1 2.99236,1.32144z" class="b"/>
    <path stroke="null" id="svg_52" d="m512.05432,339.88789c0.03103,0.15917 -0.96286,0.48499 -2.21565,0.72642a4.81431,4.80716 0 0 1 -2.32799,0.14956c-0.03103,-0.15917 0.96286,-0.48499 2.21672,-0.72642a4.81431,4.80716 0 0 1 2.32692,-0.14956z" class="b"/>
    <path stroke="null" id="svg_53" d="m509.63753,358.73731a9.33121,9.31735 0 0 1 -4.08147,-5.13939a636.30124,635.35657 0 0 0 4.08147,5.13939z" class="b"/>
    <path stroke="null" id="svg_54" d="m483.15561,367.3571c-0.10698,-0.12392 0.56381,-0.86849 1.49779,-1.66328s1.77274,-1.3396 1.87758,-1.21675s-0.56274,0.86849 -1.49779,1.66328s-1.77167,1.3396 -1.87758,1.21675z" class="b"/>
    <path stroke="null" id="svg_55" d="m475.54257,326.21845c-1.06985,-3.34365 -3.08437,-7.24066 -6.59989,-7.29087a5.84244,5.83376 0 0 0 -4.94269,3.30199a12.21445,12.19631 0 0 0 -1.33517,6.05275a157.90944,157.67501 0 0 0 7.55526,43.81571l12.86277,0a152.82446,152.59757 0 0 0 -7.54028,-45.87958z" class="b"/>
    <path stroke="null" id="svg_56" d="m452.27982,305.17268c-1.79734,-7.17977 -7.16156,-11.05862 -13.39021,-11.41862c-5.68624,0.99562 -7.89119,6.58475 -8.56627,12.30848s1.10515,11.42182 2.86291,16.91161q8.4657,26.43941 16.9314,52.87881l16.0017,-1.74447c-5.06466,-23.62027 -7.9725,-45.50569 -13.83954,-68.93581z" class="b"/>
    <path stroke="null" id="svg_57" d="m468.94269,318.92651a13.76465,13.74422 0 0 0 -1.0891,1.81604a11.99513,11.97732 0 0 0 -0.60232,5.67886c0.24927,2.4399 0.52957,5.38082 0.93826,8.60162s1.00245,6.76208 1.72459,10.45078c1.45499,7.37953 3.09293,13.99419 4.13282,18.82593c0.52743,2.41213 0.92542,4.37025 1.17683,5.728l0.26853,1.56714a0.2803,0.27988 0 1 1 -0.11554,0.0235c-0.10698,-0.41876 -0.22681,-0.92832 -0.37659,-1.54363c-0.34235,-1.4304 -0.80025,-3.35006 -1.35764,-5.68207c-1.1426,-4.79755 -2.84579,-11.40473 -4.30507,-18.8067c-0.72429,-3.69938 -1.29238,-7.25027 -1.68501,-10.49564c-0.20434,-1.62162 -0.34021,-3.16952 -0.4718,-4.61701s-0.27495,-2.78388 -0.34342,-4.02413a11.67631,11.65898 0 0 1 0.8088,-5.80171a5.09782,5.09025 0 0 1 1.29665,-1.72097z" class="b"/>
    <path stroke="null" id="svg_58" d="m439.1207,293.29898a21.50393,21.472 0 0 0 -1.93321,2.5948a18.26978,18.24266 0 0 0 -2.43604,8.36126a38.71349,38.65601 0 0 0 1.98029,12.8629c1.40471,4.75589 2.94636,9.97326 4.56611,15.4513c3.19028,10.95286 6.07887,20.86416 8.19075,28.11123c1.0078,3.55837 1.82837,6.45976 2.41678,8.53752l0.62907,2.32987a4.62281,4.61595 0 0 1 0.1808,0.82363a4.54685,4.5401 0 0 1 -0.29421,-0.79051q-0.27923,-0.86849 -0.73499,-2.29782l-2.59759,-8.48518c-2.1536,-7.23532 -5.09996,-17.12953 -8.35551,-28.06209c-1.60477,-5.48551 -3.13144,-10.70823 -4.52331,-15.47052a38.30053,38.24367 0 0 1 -1.8733,-13.03276a17.94883,17.92218 0 0 1 2.65643,-8.45527a9.86827,9.85362 0 0 1 2.12793,-2.47836z" class="b"/>
    <path stroke="null" id="svg_59" d="m462.63059,372.40141a4.47196,4.46532 0 0 1 -0.36161,-0.76594c-0.21397,-0.51276 -0.55097,-1.25841 -0.91151,-2.24334c-0.76387,-1.96453 -1.74064,-4.8563 -2.75165,-8.48518s-2.01666,-8.00446 -2.98273,-12.88641c-0.92756,-4.89263 -1.94498,-10.25528 -3.01376,-15.89462c-1.11371,-5.62438 -2.35366,-10.94752 -3.79047,-15.697a87.56592,87.43592 0 0 0 -4.66453,-12.31168a65.4233,65.32617 0 0 0 -4.31469,-7.76197c-0.5499,-0.8952 -1.04952,-1.5415 -1.34801,-2.00939a4.60034,4.59351 0 0 1 -0.4472,-0.71894a4.56076,4.55399 0 0 1 0.54348,0.6495c0.32844,0.44546 0.85588,1.06826 1.44215,1.95171a58.06489,57.97868 0 0 1 4.49336,7.70856a83.59037,83.46627 0 0 1 4.80896,12.33412a157.96508,157.73056 0 0 1 3.85145,15.74079c1.05273,5.63934 2.05411,11.00948 2.96776,15.90531c0.93505,4.87981 1.89042,9.25112 2.85221,12.88107s1.87009,6.53347 2.56763,8.51616c0.32737,0.99882 0.63228,1.75622 0.80666,2.2818a4.67416,4.66722 0 0 1 0.25248,0.80547z" class="b"/>
    <path stroke="null" id="svg_60" d="m433.4719,320.33555c0.03851,0.15703 -0.83234,0.50422 -1.94391,0.77342s-2.04448,0.36 -2.08299,0.2019s0.83127,-0.50315 1.94391,-0.77342s2.04448,-0.36 2.08299,-0.2019z" class="b"/>
    <path stroke="null" id="svg_61" d="m431.77619,309.42969a19.83497,19.80552 0 0 1 -5.41236,0.21365a9.32265,9.30881 0 0 1 5.41236,-0.21365z" class="b"/>
    <path stroke="null" id="svg_62" d="m433.57996,299.47031c-0.10698,0.12392 -0.97463,-0.44012 -1.94177,-1.25948s-1.66575,-1.58316 -1.56091,-1.70921s0.97463,0.44012 1.94177,1.25948s1.66575,1.5853 1.56091,1.70921z" class="b"/>
    <path stroke="null" id="svg_63" d="m438.4606,290.25017c0.16155,0.03632 0.11768,0.81294 0.09308,1.75194s-0.03103,1.71776 -0.19471,1.74447s-0.42794,-0.75526 -0.3937,-1.76156s0.34128,-1.77331 0.49534,-1.73485z" class="b"/>
    <path stroke="null" id="svg_64" d="m448.43692,294.59478c0.13266,0.09294 -0.25783,0.87918 -0.87407,1.75729s-1.22177,1.51372 -1.3555,1.42078s0.25783,-0.88025 0.87407,-1.75729s1.22177,-1.51372 1.3555,-1.42078z" class="b"/>
    <path stroke="null" id="svg_65" d="m454.9095,305.82325c0.06098,0.15062 -0.76708,0.63027 -1.85084,1.06826s-2.01131,0.67621 -2.07229,0.52558s0.76708,-0.6292 1.85084,-1.06826s2.01131,-0.67514 2.07229,-0.52558z" class="b"/>
    <path stroke="null" id="svg_66" d="m458.83691,317.3722a7.38943,7.37846 0 0 1 -5.30323,1.20179a53.07298,52.99419 0 0 1 5.30323,-1.20179z" class="b"/>
    <path stroke="null" id="svg_67" d="m440.8057,314.09585c-0.15513,-0.04914 -0.04172,-0.84713 0.25141,-1.78292s0.65796,-1.6558 0.81308,-1.60773s0.04279,0.84713 -0.25141,1.78292s-0.65796,1.6558 -0.81308,1.60773z" class="b"/>
    <path stroke="null" id="svg_68" d="m443.32199,328.60066a5.52041,5.51222 0 0 1 0.72322,-2.40145c0.54883,-1.26268 1.11478,-2.23266 1.26349,-2.16857a5.52576,5.51756 0 0 1 -0.72322,2.40251c-0.54883,1.26161 -1.11478,2.23159 -1.26349,2.1675z" class="b"/>
    <path stroke="null" id="svg_69" d="m437.10831,332.57138c-0.06312,0.15276 -1.07734,-0.12392 -2.30445,-0.50529s-2.21779,-0.73496 -2.18249,-0.89627a4.33181,4.32538 0 0 1 2.35366,0.33543c1.25921,0.39526 2.19533,0.9187 2.13328,1.06612z" class="b"/>
    <path stroke="null" id="svg_70" d="m440.69016,344.39914c0.09415,0.1314 -0.59163,0.78197 -1.53095,1.45176s-1.77916,1.10565 -1.8733,0.97318s0.59056,-0.78197 1.53095,-1.45176s1.77916,-1.10672 1.8733,-0.97318z" class="b"/>
    <path stroke="null" id="svg_71" d="m443.5627,356.18952c0.03851,0.15703 -0.8088,0.49888 -1.89363,0.76167s-1.9942,0.34932 -2.03271,0.19122s0.8088,-0.49888 1.89363,-0.76167s1.99099,-0.34932 2.03271,-0.19122z" class="b"/>
    <path stroke="null" id="svg_72" d="m459.15358,327.22795c0.08131,0.13567 -0.64191,0.7136 -1.69999,1.10885s-1.98136,0.44226 -2.00917,0.28629s0.79918,-0.45615 1.80162,-0.83645s1.82409,-0.70185 1.90754,-0.5587z" class="b"/>
    <path stroke="null" id="svg_73" d="m461.38101,345.57423c-0.06954,0.14742 -0.93291,-0.11324 -1.92572,-0.58113s-1.74813,-0.96143 -1.67966,-1.11419s0.93291,0.1143 1.92572,0.5822s1.7492,0.96357 1.67966,1.11313z" class="b"/>
    <path stroke="null" id="svg_74" d="m465.31269,358.69779a6.08636,6.07732 0 0 1 -2.54731,-0.68048c-1.34801,-0.52772 -2.39218,-1.07787 -2.33334,-1.22957a6.09813,6.08908 0 0 1 2.54838,0.68155c1.34694,0.52772 2.39218,1.07787 2.33227,1.2285z" class="b"/>
    <path stroke="null" id="svg_75" d="m444.19284,368.98192c-0.08024,-0.14742 0.96928,-0.85461 2.18142,-1.80749s2.15039,-1.80108 2.27556,-1.68892s-0.64833,1.1644 -1.91182,2.15147a5.27221,5.26438 0 0 1 -2.54517,1.34494z" class="b"/>
    <path stroke="null" id="svg_76" d="m454.58855,362.30744c-0.16797,0.01923 -0.3937,-0.86208 -0.7949,-1.88761s-0.8195,-1.83313 -0.68256,-1.93034s0.80559,0.60891 1.23139,1.71883s0.40226,2.08631 0.24606,2.09913z" class="b"/>
    <path stroke="null" id="svg_77" d="m451.83155,346.51964c-0.09415,0.1314 -0.76601,-0.18695 -1.49779,-0.7136s-1.25065,-1.05864 -1.1565,-1.19004s0.76601,0.18695 1.49779,0.71253s1.25172,1.05971 1.1565,1.19111z" class="b"/>
    <path stroke="null" id="svg_78" d="m476.06252,321.77876c0.09629,0.13033 -0.55739,0.77556 -1.46034,1.44108s-1.71176,1.09924 -1.81018,0.96784s0.55739,-0.77556 1.46034,-1.44108s1.7139,-1.10137 1.81018,-0.96784z" class="b"/>
    <path stroke="null" id="svg_79" d="m479.71391,331.74775c0.01498,0.15703 -1.00887,0.37175 -2.27556,0.23288s-2.22207,-0.5619 -2.17393,-0.71253s1.03133,0 2.23705,0.12819s2.20068,0.18374 2.21244,0.35146z" class="b"/>
    <path stroke="null" id="svg_80" d="m464.01711,333.98255c0.0353,0.1549 -0.91258,0.4946 -2.13969,0.57366s-2.2103,-0.12712 -2.1964,-0.28416s0.97998,-0.22113 2.15681,-0.30232s2.14504,-0.14635 2.17928,0.01282z" class="b"/>
    <path stroke="null" id="svg_81" d="m465.36619,324.55837c-0.01177,0.15597 -0.97035,0.1816 -2.0188,-0.30339s-1.65612,-1.22102 -1.54486,-1.33105s0.83448,0.36428 1.79092,0.79692s1.79306,0.67087 1.77274,0.83751z" class="b"/>
    <path stroke="null" id="svg_82" d="m481.06191,342.44957c-0.08666,0.13674 -1.06985,-0.32048 -2.19105,-1.03087s-1.96531,-1.38874 -1.87865,-1.52761s1.06985,0.32048 2.19212,1.03087s1.96424,1.3898 1.87758,1.52761z" class="b"/>
    <rect stroke="null" id="svg_83" x="435.61594" y="370.42301" height="14.82102" width="83.74657" class="b"/>
    <path stroke="null" id="svg_84" d="m441.8702,382.3031l10.18388,44.29001l49.91265,0l11.14139,-44.29001l-71.23791,0z" class="b"/>
    <path stroke="null" id="svg_85" d="m519.31644,385.26218c0,0.16238 -18.89029,0.29484 -42.18728,0.29484s-42.19049,-0.13246 -42.19049,-0.29484s18.88601,-0.29377 42.19049,-0.29377s42.18728,0.1314 42.18728,0.29377z" class="b"/>
    <path stroke="null" id="svg_86" d="m472.74278,334.30623c-0.13801,0.08653 -0.71038,-0.58006 -1.27847,-1.48702s-0.91686,-1.70921 -0.77885,-1.79895s0.71038,0.579 1.28382,1.48702s0.91151,1.71349 0.7735,1.79895z" class="b"/>
    <path stroke="null" id="svg_87" d="m472.77381,346.23121c-0.15513,-0.05128 0.04172,-1.05864 0.43757,-2.25082s0.84304,-2.11622 0.9971,-2.06494s-0.04172,1.05864 -0.43864,2.25082s-0.84197,2.11622 -0.99603,2.06494z" class="b"/>
    <path stroke="null" id="svg_88" d="m476.86062,358.75013c-0.14657,0.06944 -0.77243,-0.93152 -1.39722,-2.23587a6.10455,6.09549 0 0 1 -0.86658,-2.48904c0.14657,-0.06944 0.77243,0.93152 1.39722,2.23587a6.06389,6.05489 0 0 1 0.86658,2.48904z" class="b"/>
    <path stroke="null" id="svg_89" d="m468.02048,368.82168c-0.12303,-0.10683 0.37659,-0.88238 1.11585,-1.73272s1.43787,-1.45283 1.56091,-1.34707s-0.37659,0.88238 -1.11585,1.73272s-1.44215,1.4539 -1.56091,1.34707z" class="b"/>
    <path stroke="null" id="svg_90" d="m466.16001,350.53522c-0.02889,0.15917 -0.83448,0.15062 -1.80055,-0.01923s-1.72566,-0.43799 -1.69678,-0.59716s0.83341,-0.15169 1.79948,0.01816s1.72566,0.43799 1.69785,0.59822z" class="b"/>
   </g>
   <path stroke="null" id="svg_91" d="m509.95849,426.24059c0,0.15383 -95.54698,0.27882 -213.38209,0.27882c-117.87683,0 -213.40349,-0.12499 -213.40349,-0.27882s95.52666,-0.27775 213.40349,-0.27775c117.83404,0 213.38209,0.12392 213.38209,0.27775z" class="e"/>
   <circle stroke="null" id="svg_92" transform="matrix(0.7564962001597615,-0.7553730771894027,0.7564962001597615,0.7553730771894027,-72.11361294594849,71.29103777671413) " r="46.2" cy="161.57895" cx="161.40671" class="f"/>
   <path stroke="null" id="svg_93" d="m243.98699,146.25742c0.00963,0.05021 -0.52743,0.09614 -1.3908,0.47538a6.48755,6.47792 0 0 0 -2.88859,2.61403a6.16767,6.15851 0 0 0 -0.84304,2.54673a5.36314,5.35518 0 0 0 0.61516,2.97617a5.85848,5.84979 0 0 0 10.94668,-0.94755a5.36207,5.35411 0 0 0 0.09308,-3.03706a6.1559,6.14676 0 0 0 -1.26991,-2.36513a6.48327,6.47365 0 0 0 -3.29406,-2.07776c-0.91365,-0.22647 -1.45071,-0.17947 -1.45071,-0.22968a1.21107,1.20927 0 0 1 0.38514,-0.04166a2.3772,2.37367 0 0 1 0.46859,0.01175a3.74447,3.73891 0 0 1 0.63656,0.08653a6.57314,6.56338 0 0 1 4.8892,4.51553a5.70015,5.69168 0 0 1 -0.0567,3.26353a6.67157,6.66166 0 0 1 -1.96745,3.02317a5.89914,5.89038 0 0 1 -7.29636,0.63134a6.66301,6.65312 0 0 1 -2.46065,-2.63967a5.70122,5.69275 0 0 1 -0.61837,-3.20478a6.57314,6.56338 0 0 1 4.03867,-5.28788a3.64818,3.64276 0 0 1 0.61195,-0.19442a2.36329,2.35978 0 0 1 0.46003,-0.09187a1.25172,1.24986 0 0 1 0.39156,-0.02671z" class="e"/>
   <path stroke="null" id="svg_94" d="m254.60736,159.84568c0,0.02457 -0.26318,0.04807 -0.69326,0.23715a3.23308,3.22828 0 0 0 -1.44001,1.30328a3.06404,3.05949 0 0 0 -0.42152,1.27123a2.67462,2.67065 0 0 0 0.30705,1.48488a2.92282,2.91848 0 0 0 5.46157,-0.47217a2.67462,2.67065 0 0 0 0.04707,-1.51586a3.05655,3.05202 0 0 0 -0.63442,-1.17508a3.22987,3.22507 0 0 0 -1.64329,-1.03728c-0.45575,-0.11324 -0.72429,-0.08973 -0.72322,-0.1143a0.58949,0.58861 0 0 1 0.1915,-0.02137a1.19288,1.19111 0 0 1 0.2343,0.00641a1.89577,1.89295 0 0 1 0.32095,0.04273a3.27908,3.27421 0 0 1 2.44032,2.25296a2.84258,2.83836 0 0 1 -0.02889,1.62909a3.31653,3.3116 0 0 1 -0.98105,1.50838a2.94315,2.93878 0 0 1 -3.63748,0.31407a3.31653,3.3116 0 0 1 -1.22604,-1.31609a2.85114,2.84691 0 0 1 -0.30919,-1.60239a3.28443,3.27955 0 0 1 2.01559,-2.6386a1.89791,1.89509 0 0 1 0.30491,-0.09721a1.23888,1.23704 0 0 1 0.23002,-0.04594a0.59911,0.59822 0 0 1 0.18508,-0.01389z" class="e"/>
   <path stroke="null" id="svg_95" d="m246.89162,115.47127s-0.01498,-0.27134 -0.02247,-0.79906s-0.01284,-1.3193 -0.02247,-2.33949q0,-0.77235 -0.0107,-1.72203c-0.03317,-0.63241 -0.13159,-1.32144 -0.20327,-2.06815s-0.16369,-1.55218 -0.25462,-2.41213a8.52882,8.51616 0 0 0 -0.21397,-1.3193c-0.09308,-0.45081 -0.19043,-0.9155 -0.28886,-1.38874a46.9235,46.85383 0 0 0 -4.7758,-13.32012a48.9637,48.891 0 0 0 -11.75762,-14.52832l-2.03913,-1.68464c-0.71894,-0.52558 -1.48067,-1.01164 -2.2317,-1.52868l-1.13939,-0.77021a9.58797,9.57374 0 0 0 -1.17683,-0.73176l-2.48205,-1.34814c-0.41938,-0.22433 -0.83448,-0.46149 -1.26242,-0.67941l-1.3341,-0.56297l-2.70671,-1.14411c-0.92114,-0.3568 -1.89149,-0.6057 -2.84686,-0.9187l-1.44964,-0.44974c-0.24286,-0.07157 -0.4825,-0.1581 -0.73071,-0.21899l-0.74889,-0.15276a45.65145,45.58367 0 0 0 -6.15804,-1.03087c-1.05487,-0.08973 -2.11402,-0.24677 -3.18707,-0.28523l-3.2502,0c-0.54562,0.01068 -1.09445,-0.02137 -1.64222,0.0235l-1.64649,0.16772c-1.09873,0.12499 -2.21458,0.19549 -3.32188,0.36641a51.9368,51.85969 0 0 0 -6.63305,1.58209l-1.65398,0.51276c-0.27602,0.0876 -0.55632,0.16558 -0.82913,0.26279l-0.80453,0.33864l-3.24164,1.36417c-1.06236,0.50742 -2.08727,1.10885 -3.14214,1.66435c-0.51781,0.29484 -1.06985,0.54054 -1.56198,0.87704l-1.49779,1.00523a55.29612,55.21403 0 0 0 -5.79429,4.43221l-2.62754,2.61189l-0.66117,0.65591c-0.20648,0.23181 -0.40012,0.47644 -0.60018,0.71467l-1.19716,1.44108l-1.20251,1.44749l-1.06985,1.55859l-1.06985,1.56927l-0.53492,0.78731c-0.16155,0.27241 -0.30705,0.55549 -0.4611,0.83324l-1.83479,3.36502l-1.51276,3.5541a52.38293,52.30516 0 0 0 -3.31011,15.29533a52.41288,52.33507 0 0 0 1.74064,15.55705q0.57451,1.85236 1.14474,3.68977q0.74889,1.77224 1.48816,3.53273l0.37445,0.87704l0.45362,0.83751l0.90295,1.66862l0.90402,1.65901l1.04952,1.56179l1.04524,1.55538l0.52529,0.77235l0.59056,0.72001l2.35366,2.86293a55.15169,55.06981 0 0 0 5.31607,4.99625l1.3908,1.15051c0.45896,0.38671 0.98105,0.68582 1.46569,1.03194c0.99282,0.65805 1.9514,1.36096 2.95813,1.97307l3.08651,1.68464l0.76601,0.41769c0.26211,0.12499 0.53492,0.22968 0.79918,0.34612l1.59407,0.67728a51.95285,51.87572 0 0 0 6.43513,2.24334c1.08483,0.28202 2.18784,0.46576 3.26838,0.70078l1.62082,0.3333c0.54134,0.09828 1.09017,0.12285 1.63152,0.18801l3.23415,0.33009c1.06985,0.07051 2.13969,0.02137 3.19991,0.03739a45.66536,45.59756 0 0 0 6.23186,-0.4038l0.7628,-0.07691c0.25141,-0.03525 0.49962,-0.09614 0.74889,-0.14421l1.48709,-0.30018c0.98319,-0.21365 1.97387,-0.36534 2.92603,-0.62707l2.80835,-0.86529l1.38438,-0.4273l1.32554,-0.54802l2.60508,-1.09069a9.55588,9.54169 0 0 0 1.24851,-0.60891l1.21214,-0.65164c0.79918,-0.43799 1.60477,-0.84499 2.37506,-1.2958l2.19854,-1.46992a48.96477,48.89207 0 0 0 13.16661,-13.26671c0.38728,-0.57366 0.78206,-1.12808 1.14474,-1.68892l0.94788,-1.72524q0.46324,-0.84499 0.91151,-1.65901c0.1455,-0.27347 0.30705,-0.53413 0.43329,-0.80974s0.23751,-0.55336 0.35412,-0.82683l1.34159,-3.12893c0.39798,-1.00523 0.65582,-2.00619 0.96286,-2.93023q0.21932,-0.6965 0.42794,-1.35562a8.53524,8.52257 0 0 0 0.34556,-1.29152q0.26639,-1.26909 0.49748,-2.3726c0.14657,-0.7371 0.31454,-1.41117 0.41082,-2.03717l0.18508,-1.70921q0.17011,-1.52013 0.2589,-2.32453c0.06098,-0.52452 0.10698,-0.79158 0.10698,-0.79158s-0.0107,0.2692 -0.0567,0.79478s-0.12089,1.31503 -0.21397,2.33094q-0.07382,0.77128 -0.16369,1.71883c-0.08987,0.6292 -0.25034,1.30648 -0.39156,2.04678s-0.30705,1.53402 -0.47822,2.38435a8.3523,8.3399 0 0 1 -0.337,1.299l-0.42045,1.3631c-0.30384,0.92939 -0.55632,1.93569 -0.95002,2.94839l-1.32875,3.14923q-0.17332,0.41128 -0.35198,0.83217c-0.12517,0.27775 -0.28565,0.54054 -0.42794,0.81615l-0.9083,1.67183l-0.94468,1.73699c-0.36054,0.56618 -0.75531,1.12488 -1.14153,1.70387a49.09208,49.01919 0 0 1 -13.19657,13.39062l-2.20923,1.48595c-0.77243,0.45615 -1.58444,0.86743 -2.3879,1.31182l-1.21856,0.65912a9.7677,9.7532 0 0 1 -1.256,0.61639l-2.62113,1.10565c-0.44292,0.18267 -0.88262,0.37923 -1.33303,0.55443l-1.3908,0.4273l-2.82761,0.87704c-0.96286,0.26706 -1.95568,0.42089 -2.94636,0.64096l-1.49779,0.30659c-0.25141,0.04807 -0.50069,0.10683 -0.75531,0.14635l-0.76815,0.07905a45.83011,45.76207 0 0 1 -6.28,0.41876c-1.06985,-0.01389 -2.13969,0.03632 -3.22452,-0.03205l-3.26089,-0.32796c-0.54562,-0.0641 -1.0998,-0.08867 -1.64436,-0.18695l-1.6358,-0.3333c-1.09017,-0.23502 -2.20175,-0.41876 -3.2962,-0.70185a52.06839,51.99109 0 0 1 -6.4929,-2.25296l-1.61012,-0.68048c-0.26746,-0.11644 -0.54134,-0.22327 -0.80559,-0.34825l-0.7735,-0.42089l-3.1154,-1.6964c-1.01528,-0.61639 -1.9835,-1.3225 -2.98701,-1.98696c-0.48892,-0.34825 -1.01528,-0.65057 -1.47853,-1.03942l-1.40043,-1.15906a55.36994,55.28774 0 0 1 -5.36849,-5.03684l-2.37399,-2.8843l-0.59804,-0.72535l-0.52957,-0.77876l-1.05594,-1.5682l-1.06022,-1.57568l-0.91365,-1.67396l-0.91151,-1.68464l-0.45789,-0.84499l-0.37766,-0.88452l-1.50421,-3.56478q-0.57665,-1.8545 -1.1565,-3.72288a52.77663,52.69828 0 0 1 -1.75883,-15.70341a52.74347,52.66516 0 0 1 3.3422,-15.43848q0.76708,-1.80002 1.52881,-3.58508q0.93077,-1.70921 1.85512,-3.39493c0.15727,-0.27988 0.30384,-0.56618 0.46752,-0.84072l0.54027,-0.79478l1.07734,-1.58316l1.07841,-1.57141l1.21428,-1.46031l1.20893,-1.4539c0.2022,-0.24036 0.39798,-0.48606 0.6066,-0.72001l0.66651,-0.66232l2.65429,-2.63326a55.49511,55.41272 0 0 1 5.84992,-4.46639l1.51062,-1.01271c0.50069,-0.33864 1.0538,-0.58754 1.57588,-0.88452c1.0645,-0.5587 2.09904,-1.1644 3.1721,-1.67503l3.27159,-1.37164l0.81094,-0.34077c0.27602,-0.09828 0.55846,-0.17626 0.83662,-0.26493l1.67003,-0.5149a52.26845,52.19085 0 0 1 6.68761,-1.58636c1.11692,-0.17092 2.24668,-0.24143 3.35076,-0.36534l1.65933,-0.16665c0.55204,-0.04273 1.10622,-0.01068 1.65612,-0.0203l3.27587,0c1.08162,0.04059 2.14932,0.19976 3.20954,0.2927a46.08795,46.01952 0 0 1 6.20511,1.05117l0.75745,0.15597c0.24927,0.06196 0.49106,0.14849 0.73605,0.2222l1.45927,0.45508c0.96286,0.32048 1.93963,0.57152 2.86612,0.93259l2.7249,1.15799l1.34159,0.57152c0.42794,0.21899 0.84946,0.45935 1.27098,0.68582l2.49595,1.36523a9.59225,9.57801 0 0 1 1.18753,0.73924l1.14474,0.77876c0.75531,0.52238 1.52025,1.01378 2.24668,1.5447q1.03561,0.86208 2.04769,1.70174a49.10599,49.03308 0 0 1 11.75762,14.65972a46.77693,46.70748 0 0 1 4.72445,13.40558q0.14229,0.71894 0.2803,1.39942a8.55878,8.54607 0 0 1 0.20327,1.32571q0.12517,1.29473 0.2343,2.42067c0.06526,0.74778 0.1562,1.44108 0.18187,2.07563q0,0.95182 -0.0107,1.72631q-0.01605,1.53188 -0.02354,2.34269c-0.00214,0.52665 -0.01819,0.79158 -0.01819,0.79158z" class="e"/>
   <path stroke="null" id="svg_96" d="m211.67225,113.00359a4.60034,4.59351 0 1 0 4.47517,-4.71957a4.60034,4.59351 0 0 0 -4.47517,4.71957z" class="e"/>
   <path stroke="null" id="svg_97" d="m193.26125,113.50354a4.60034,4.59351 0 1 0 4.47517,-4.7185a4.60034,4.59351 0 0 0 -4.47517,4.7185z" class="e"/>
   <path stroke="null" id="svg_98" d="m174.83421,111.70673a4.60034,4.59351 0 1 0 6.23828,-1.85236a4.60034,4.59351 0 0 0 -6.23828,1.85236z" class="e"/>
   <path stroke="null" id="svg_99" d="m360.16383,194.82154c-1.29879,-3.63208 -3.19349,-7.21502 -3.07153,-11.0693c0.15299,-4.82105 3.42351,-8.99474 4.35749,-13.72819c1.04096,-5.29215 -0.919,-10.64199 -1.99313,-15.92774c-1.5577,-7.66903 -1.24958,-15.57094 -1.40899,-23.39487s-0.84518,-15.84121 -4.19701,-22.91415s-9.86078,-13.09044 -17.65248,-13.91621l-59.82692,40.11953c-1.25386,14.54007 -10.42352,28.54708 -7.16049,42.77308c0.65368,2.84905 1.79734,5.57952 2.2991,8.45954a39.06547,39.00747 0 0 1 0.1348,9.15925q-0.41831,6.51638 -0.83662,13.0413c-0.12624,1.9688 -0.21397,4.08716 0.8409,5.75364c1.1886,1.87373 3.49091,2.65783 5.62419,3.27635a208.36879,208.05944 0 0 0 70.69122,7.85598c3.63748,-0.2222 7.56275,-0.66018 10.25342,-3.11825c2.28412,-2.08631 3.23094,-5.2537 3.69418,-8.30999a37.40828,37.35274 0 0 0 -1.74813,-18.05998z"/>
   <path stroke="null" id="svg_100" d="m275.94011,127.35565c2.91854,-12.3918 5.90877,-25.28462 16.18893,-32.8073c9.16003,-6.70332 19.40168,-8.3228 30.72708,-7.47781c5.57604,0.41555 11.79827,3.19303 16.573,6.09976c6.54533,3.98567 9.12152,11.72307 12.11281,18.77144c5.99114,14.12238 4.56183,32.93549 0.02568,38.03002l-59.22567,28.81094c-10.13145,-5.69061 -16.94424,-8.41361 -19.30432,-19.77988c-1.60691,-7.74488 1.0891,-23.9525 2.9025,-31.64717z"/>
   <path stroke="null" id="svg_101" d="m293.01594,106.07059l36.99532,-9.60578c11.85926,-1.33426 19.84994,13.20475 20.68229,25.0934c0.92435,13.20688 1.52988,29.36857 0.02996,39.23822c-3.01804,19.84611 -18.21736,22.47296 -18.21736,22.47296c-0.00535,-0.0673 -0.04493,0.29591 -0.11875,6.18629l0.10698,13.25923c-4.88492,16.08584 -21.20437,14.14695 -41.59566,5.79103l-4.08254,-95.32074a6.98503,6.97466 0 0 1 6.19976,-7.1146z" class="g"/>
   <path stroke="null" id="svg_102" d="m343.12866,138.72086a2.54624,2.54246 0 0 1 -2.43818,2.58198a2.43497,2.43136 0 0 1 -2.64038,-2.27432a2.54731,2.54352 0 0 1 2.43497,-2.58305a2.43711,2.43349 0 0 1 2.64359,2.27539z" class="e"/>
   <path stroke="null" id="svg_103" d="m347.23473,132.37861c-0.31347,0.33437 -2.24668,-1.07787 -4.99191,-1.05223c-2.73774,-0.01389 -4.73942,1.40797 -5.03898,1.07467c-0.14657,-0.14742 0.17118,-0.74778 1.04203,-1.38874a6.99038,6.98 0 0 1 4.03011,-1.27016a6.71008,6.70012 0 0 1 3.97662,1.252c0.8516,0.63775 1.14046,1.23491 0.98212,1.38446z" class="e"/>
   <path stroke="null" id="svg_104" d="m318.96616,138.72086a2.54517,2.54139 0 0 1 -2.43711,2.58198a2.43497,2.43136 0 0 1 -2.64038,-2.27432a2.54731,2.54352 0 0 1 2.43497,-2.58305a2.43604,2.43243 0 0 1 2.64252,2.27539z" class="e"/>
   <path stroke="null" id="svg_105" d="m320.30989,132.04531c-0.31454,0.3333 -2.25524,-1.07894 -4.99298,-1.05223c-2.73774,-0.01389 -4.73942,1.4069 -5.03791,1.07467c-0.14657,-0.14849 0.1669,-0.74778 1.04203,-1.38874a6.98824,6.97787 0 0 1 4.03011,-1.27123a6.71543,6.70546 0 0 1 3.97662,1.252c0.83983,0.63775 1.13511,1.23598 0.98212,1.38553z" class="e"/>
   <path stroke="null" id="svg_106" d="m330.39106,150.91076c-0.01284,-0.1549 1.68822,-0.46042 4.44522,-0.83217c0.69968,-0.07691 1.36085,-0.22006 1.47532,-0.69757a3.55296,3.54769 0 0 0 -0.48143,-2.06708q-1.00245,-2.52964 -2.10546,-5.30604c-2.92389,-7.55473 -5.04754,-13.76879 -4.74156,-13.88737s2.92496,5.91495 5.84992,13.46968q1.05594,2.79457 2.0188,5.34129a4.04723,4.04122 0 0 1 0.38194,2.73902a1.75883,1.75622 0 0 1 -1.14367,1.0298a4.81431,4.80716 0 0 1 -1.18753,0.17306c-2.77625,0.17092 -4.49978,0.19335 -4.51155,0.03739z" class="e"/>
   <path stroke="null" id="svg_107" d="m332.50614,183.27366a50.51283,50.43784 0 0 1 -26.63919,-6.90095s6.66836,13.82754 26.53221,11.83738l0.10698,-4.93642z" class="h"/>
   <path stroke="null" id="svg_108" d="m321.37545,156.079a4.40028,4.39375 0 0 1 3.64604,-2.0158a5.72261,5.71412 0 0 1 5.23369,2.54459a3.56366,3.55837 0 0 1 0.24927,2.56382c-0.18936,0.43585 -0.04172,0.22113 -0.37873,0.52238a10.00842,9.99356 0 0 1 -4.07612,2.56382a4.29758,4.2912 0 0 1 -4.55006,-1.63764a4.38637,4.37986 0 0 1 -0.1241,-4.54117z" class="g"/>
   <path stroke="null" id="svg_109" d="m321.84726,152.96075c0.44506,-0.03205 0.48785,2.93771 3.05976,5.01334s5.73331,1.70921 5.7622,2.12477c0.04386,0.18588 -0.69861,0.58541 -2.03271,0.64096a7.39906,7.38808 0 0 1 -4.80682,-1.60239a6.44476,6.43519 0 0 1 -2.37506,-4.2068c-0.13373,-1.24452 0.18829,-1.98482 0.39263,-1.96987z" class="e"/>
   <path stroke="null" id="svg_110" d="m321.66538,122.88072c-0.22146,0.75953 -2.97418,0.58327 -6.15697,1.17508c-3.19563,0.52879 -5.72154,1.63337 -6.19014,0.99455c-0.21397,-0.30659 0.19578,-1.03407 1.19502,-1.81604a10.90067,10.88449 0 0 1 9.40717,-1.65473c1.21,0.39632 1.84335,0.9422 1.74492,1.30114z" class="e"/>
   <path stroke="null" id="svg_111" d="m347.25185,126.03849c-0.64191,0.51704 -2.60187,-0.48606 -5.09247,-0.96143c-2.47563,-0.55122 -4.68379,-0.40807 -5.05717,-1.13449c-0.15727,-0.34825 0.28458,-0.90161 1.31163,-1.31716a7.80988,7.79829 0 0 1 4.32753,-0.26493a7.71681,7.70535 0 0 1 3.85145,1.95278c0.76815,0.78624 0.94574,1.46779 0.65903,1.72524z" class="e"/>
   <path stroke="null" id="svg_112" d="m329.56727,94.31975c0.02889,0.14315 0.05135,0.28843 0.07917,0.4273l-0.06954,0.02671c-0.00321,-0.14849 -0.00642,-0.30232 -0.00963,-0.45401z" class="e"/>
   <path stroke="null" id="svg_113" d="m288.08395,187.3245c4.45805,-1.21034 7.50605,-5.52076 8.62404,-9.9957s0.67293,-9.16993 0.37124,-13.77306s-0.42794,-9.37077 1.2667,-13.66303c1.14474,-2.89819 3.08972,-5.48871 3.78405,-8.52577c1.19716,-5.23447 -1.51276,-10.86206 0.08559,-15.98436c1.11585,-3.57867 4.10928,-6.18522 6.52607,-9.0567a33.19843,33.14914 0 0 0 7.69006,-20.98274a43.04744,42.98353 0 0 0 -18.10502,4.58497a28.41407,28.37189 0 0 0 -12.84779,13.26457c-2.61471,5.9235 -2.7249,12.60545 -2.79337,19.07483l-0.5713,54.21841"/>
   <path stroke="null" id="svg_114" d="m315.27305,99.23374c1.78023,3.15243 5.18769,5.05821 8.63474,6.17347s7.07918,1.60239 10.50697,2.77747a27.98827,27.94672 0 0 1 18.37356,23.87665a27.11635,27.07609 0 0 0 -34.69407,-37.06858" class="i"/>
   <path stroke="null" id="svg_115" d="m280.88281,118.54786c1.22711,-8.22559 2.66927,-8.93919 0.43436,-13.74208s-10.43315,-9.42632 -15.72033,-9.00329s-10.07368,5.05073 -10.14643,10.34609c-0.0781,5.73548 4.80789,10.41446 10.03517,12.79347a12.20375,12.18563 0 0 0 -3.65139,2.21771a4.14566,4.1395 0 0 0 -1.28382,3.88526c0.5713,2.04892 3.19456,2.92062 5.24225,2.34162s3.63106,-2.16643 5.1128,-3.69297c-0.44827,1.98162 1.53309,3.93119 3.56687,3.94081a5.81462,5.80599 0 0 0 4.82287,-3.23789a17.109,17.0836 0 0 0 1.58658,-5.84872"/>
   <path stroke="null" id="svg_116" d="m275.03395,129.23151a3.44063,3.43552 0 0 1 -0.04065,-0.99882c0.00535,-0.64096 0.0674,-1.57141 0.19364,-2.71338a42.183,42.12038 0 0 1 5.76113,-16.89558c0.59911,-0.98173 1.11692,-1.75515 1.50634,-2.26791s0.60981,-0.78944 0.64191,-0.76701c0.07489,0.05128 -0.70503,1.23384 -1.80697,3.23041a50.29994,50.22526 0 0 0 -5.71191,16.75244c-0.34342,2.25189 -0.45041,3.6652 -0.54348,3.65985z" class="j"/>
   <path stroke="null" id="svg_117" d="m278.8501,115.33667a13.5785,13.55834 0 0 1 1.76525,0.12819a32.23664,32.18878 0 0 0 4.79612,0.03098a30.02526,29.98068 0 0 0 25.1275,-16.64668a32.21524,32.16741 0 0 0 1.83586,-4.42473a13.63306,13.61282 0 0 1 0.56809,-1.67396a1.46569,1.46351 0 0 1 -0.06205,0.45615c-0.06526,0.2927 -0.13587,0.73176 -0.29849,1.28191a26.88419,26.84428 0 0 1 -1.68929,4.53583a29.4208,29.37712 0 0 1 -25.46236,16.86674a26.92377,26.8838 0 0 1 -4.84106,-0.21365c-0.56809,-0.06303 -1.00245,-0.16878 -1.29772,-0.2222a1.41969,1.41758 0 0 1 -0.44185,-0.11858z" class="f"/>
   <path stroke="null" id="svg_118" d="m309.64137,116.21264a6.57849,6.56872 0 0 1 -1.08376,0.85461a14.28888,14.26767 0 0 1 -1.34908,0.89947c-0.54241,0.32582 -1.14474,0.72642 -1.86153,1.07787a34.62025,34.56886 0 0 1 -5.13527,2.22732a36.05385,36.00032 0 0 1 -13.53785,1.87586a34.53788,34.4866 0 0 1 -5.55144,-0.74778c-0.78527,-0.14208 -1.47425,-0.36428 -2.08513,-0.53413a14.12198,14.10102 0 0 1 -1.54379,-0.49995a6.65445,6.64457 0 0 1 -1.27633,-0.53413c0.03637,-0.10683 1.88186,0.58541 4.98335,1.17508a38.2021,38.14539 0 0 0 5.49687,0.62066a38.07907,38.02254 0 0 0 13.35169,-1.84916a38.35509,38.29815 0 0 0 5.12029,-2.09165c2.82119,-1.39942 4.4067,-2.56703 4.47196,-2.47409z" class="f"/>
   <path stroke="null" id="svg_119" d="m355.68652,129.40991c-0.05242,0 -0.05242,-0.79265 -0.17866,-2.21236a30.23495,30.19006 0 0 0 -1.12227,-5.90533a23.71102,23.67582 0 0 0 -4.04616,-7.86025a26.73762,26.69793 0 0 0 -8.52133,-6.65525c-3.45882,-1.76904 -6.95401,-3.06697 -10.08331,-4.35315a58.98175,58.89418 0 0 1 -8.13084,-3.88098a30.90468,30.85879 0 0 1 -2.88003,-1.93782c-0.79062,-0.64843 -1.44857,-1.23704 -1.97387,-1.72417l-1.10515,-1.23277a2.17607,2.17284 0 0 1 -0.35519,-0.45187a2.23063,2.22732 0 0 1 0.43864,0.3771l1.17041,1.15051c0.54455,0.45828 1.21535,1.01591 2.01238,1.6323a33.45947,33.4098 0 0 0 2.88859,1.84809a63.20978,63.11594 0 0 0 8.13084,3.74425c3.13679,1.25841 6.64482,2.54352 10.14857,4.33499a26.76651,26.72677 0 0 1 8.66576,6.83045a23.50347,23.46858 0 0 1 4.02049,8.06856a27.16663,27.1263 0 0 1 0.96286,6.00148c0.02675,0.7168 0.0321,1.27336 0.0107,1.65153a2.2531,2.24975 0 0 1 -0.05242,0.57472z" class="f"/>
   <path stroke="null" id="svg_120" d="m363.88476,340.62819l8.08056,13.62564l-64.4369,35.54631l2.30552,-49.17195l12.43911,-10.91226l41.61171,10.91226z" class="f"/>
   <path stroke="null" id="svg_121" d="m225.98146,270.47563s9.8779,-56.74698 11.96731,-59.6676s10.44599,-8.75972 10.44599,-8.75972l20.89198,50.43677l-2.91747,19.29062l-40.3878,-1.30007z" class="k"/>
   <path stroke="null" id="svg_122" d="m285.73884,188.40558c-1.6711,0.20831 -29.11589,7.50238 -37.34409,13.6438l17.17319,69.4849l5.43161,62.9995l57.87017,4.17262l38.19354,7.28659l-3.31011,-7.21716s1.46569,2.64287 0.63014,-2.77747s-13.57957,-21.27758 -12.95264,-25.24082s5.43161,-10.43048 6.8941,-18.35803a194.85769,194.56839 0 0 0 1.4903,-24.11167c0.25997,-26.84428 -0.79704,-65.90409 -0.79704,-65.90409l-25.78332,-9.67095c-8.70428,10.94752 -31.94992,8.66465 -43.28281,-6.11365l-4.21306,1.80643z" class="k"/>
   <path stroke="null" id="svg_123" d="m358.5826,202.25021s14.78743,7.10285 17.66211,17.76408s12.73118,50.63547 12.73118,50.63547s-22.58661,1.4069 -29.15655,-2.37153s-1.23674,-66.02801 -1.23674,-66.02801z" class="k"/>
   <path stroke="null" id="svg_124" d="m266.7758,273.2531a3.50268,3.49748 0 0 1 -0.07382,-0.71039c-0.02675,-0.52238 -0.06098,-1.19645 -0.10698,-2.02969c-0.13373,-1.76156 -0.3798,-4.30722 -0.82913,-7.43615a216.94896,216.62687 0 0 0 -5.13527,-24.14265a159.0606,158.82445 0 0 0 -8.08056,-23.31154c-0.71252,-1.40583 -1.28382,-2.72086 -1.91075,-3.80621s-1.1426,-2.0361 -1.63259,-2.76786l-1.17683,-1.65794a3.42993,3.42484 0 0 1 -0.38301,-0.60357a3.34006,3.3351 0 0 1 0.46966,0.53413l1.26991,1.60239c0.52102,0.71894 1.05273,1.66862 1.72459,2.73795s1.25493,2.38542 1.99527,3.79018a145.39223,145.17638 0 0 1 8.26136,23.33291a191.94663,191.66166 0 0 1 4.99191,24.23986c0.40119,3.14602 0.58735,5.70771 0.65582,7.47781c0,0.84072 0,1.518 0,2.04251a3.41495,3.40988 0 0 1 -0.03958,0.70826z" class="k"/>
   <path stroke="null" id="svg_125" d="m264.51201,264.20388a7.45363,7.44256 0 0 1 -1.44215,0.19442c-0.93184,0.09508 -2.28412,0.17733 -3.95843,0.23074a88.16504,88.03414 0 0 1 -25.89886,-3.12038c-1.61226,-0.44974 -2.90677,-0.85461 -3.78833,-1.1644a7.32524,7.31437 0 0 1 -1.35443,-0.53413a7.15621,7.14558 0 0 1 1.41755,0.32048c0.89974,0.24997 2.20602,0.59182 3.8247,0.99134a105.44949,105.29293 0 0 0 25.79402,3.10756c1.66682,0 3.01804,-0.02564 3.95095,-0.05448a7.23752,7.22677 0 0 1 1.45499,0.02884z" class="k"/>
   <path stroke="null" id="svg_126" d="m366.24057,242.17532c-0.85588,-5.24622 -3.58613,-10.09077 -4.08468,-15.38293c-0.38728,-4.11066 0.59804,-8.2085 1.04203,-12.31382a47.66276,47.592 0 0 0 -8.05274,-31.78177l-21.67724,5.56883c-2.79872,4.31897 -1.28382,10.10039 1.06985,14.67467s5.53753,8.97337 5.96975,14.10102c0.4611,5.44812 -2.30552,10.76698 -2.02094,16.23753c0.31347,6.02178 4.20771,11.16117 6.7058,16.65095s3.17531,12.96866 -1.60477,16.65736a10.53372,10.51808 0 0 0 9.4521,-6.05703q0.08666,2.74008 0.17332,5.47803a22.81021,22.77635 0 0 0 13.02753,-23.83285z" class="k"/>
   <path stroke="null" id="svg_127" d="m256.29772,228.05507c0.01284,0.15383 -5.06573,0.70078 -11.34038,1.22209s-11.37675,0.82149 -11.38959,0.66766s5.06466,-0.69971 11.34038,-1.22209s11.37355,-0.82042 11.38959,-0.66766z" class="k"/>
   <path stroke="null" id="svg_128" d="m338.91988,229.24084c0.00642,0.15383 -17.65248,1.01591 -39.43992,1.92287s-39.46024,1.52547 -39.46666,1.37164s17.65248,-1.01591 39.4442,-1.92287s39.45596,-1.52975 39.46238,-1.37164z" class="k"/>
   <path stroke="null" id="svg_129" d="m376.91015,225.69315c-0.04065,0.16238 -3.03409,-0.53413 -6.79246,-0.86849c-3.7573,-0.34825 -6.82776,-0.19549 -6.83846,-0.36321a29.29456,29.25106 0 0 1 13.63092,1.2317z" class="k"/>
   <path stroke="null" id="svg_130" d="m278.8287,437.97862c-2.17179,0.37389 -62.08002,13.20475 -62.08002,13.20475l-8.24317,-26.67976l58.72177,-23.21006l11.60142,36.68508z" class="g"/>
   <path stroke="null" id="svg_131" d="m221.45601,419.39092s-9.59011,23.3703 6.66622,29.62923l-5.02186,6.65953l-41.41378,25.99074a6.33777,6.32837 0 0 1 -8.29773,-1.16761a6.11632,6.10724 0 0 1 -0.72643,-6.54843c5.6274,-11.30859 26.53221,-52.80403 30.8116,-53.77829l11.12641,-3.29131c2.30659,-0.68262 5.36314,0.62173 6.85986,2.504l-0.00428,0.00214z" class="l"/>
   <g stroke="null" id="svg_132" class="m">
    <path stroke="null" id="svg_133" d="m172.76191,479.55312l34.55606,-60.58203l-2.41785,0.75633c-2.69601,0.58006 -3.37965,2.04465 -4.6763,3.80727c-3.84182,5.22165 -11.83251,18.86652 -27.62238,50.24662a6.11739,6.1083 0 0 0 0.15513,5.7686l0.00535,0.0032z" class="n"/>
   </g>
   <g stroke="null" id="svg_134" class="m">
    <path stroke="null" id="svg_135" d="m216.59997,423.42893a3.70702,3.70152 0 0 1 -4.3179,2.40999a3.56366,3.55837 0 0 1 -2.43176,-4.25167c0.51032,-1.74553 2.88859,-3.19196 4.58643,-2.52964s2.95278,3.13107 2.03271,4.70034" class="b"/>
   </g>
   <path stroke="null" id="svg_136" d="m193.61644,458.73275c-0.0567,0.37175 3.33578,0.72321 6.00612,3.61071c2.75593,2.80632 2.93887,6.20658 3.31653,6.16813c0.1562,0.00641 0.37338,-0.85461 0.14336,-2.24334a9.7677,9.7532 0 0 0 -7.20756,-7.56327c-1.38545,-0.30232 -2.25631,-0.12712 -2.25845,0.02777z" class="e"/>
   <path stroke="null" id="svg_137" d="m187.2455,465.18183c-0.16155,0.34718 2.26808,1.59705 4.0376,4.28051c1.82837,2.64394 2.07871,5.35945 2.46065,5.34129c0.34235,0.07478 0.69433,-3.04774 -1.37475,-6.07412c-2.03271,-3.04881 -5.06252,-3.89274 -5.1235,-3.54769z" class="e"/>
   <path stroke="null" id="svg_138" d="m201.04439,448.11533c-0.18722,0.35146 3.55831,2.25509 6.67585,6.18629c3.18066,3.88526 4.2398,7.94464 4.62388,7.83782c0.33272,0 -0.20113,-4.48669 -3.60004,-8.65931c-3.35504,-4.20787 -7.62587,-5.68955 -7.69969,-5.3648z" class="e"/>
   <path stroke="null" id="svg_139" d="m214.47525,442.86911c-0.29528,0.25959 2.00917,2.99112 3.4417,7.05051c1.48816,4.03161 1.46462,7.606 1.85725,7.61775c0.32844,0.07051 0.96286,-3.72609 -0.62158,-8.06215c-1.55021,-4.35422 -4.47196,-6.8689 -4.67737,-6.60611z" class="e"/>
   <path stroke="null" id="svg_140" d="m218.7632,452.21424a5.17378,5.1661 0 0 0 2.0402,-0.98066a15.72675,15.70341 0 0 0 4.40563,-4.34354a6.96257,6.95223 0 0 0 1.55235,-4.18757a2.46065,2.457 0 0 0 -1.77809,-2.19848a4.01193,4.00597 0 0 0 -2.82975,0.41983a8.66576,8.6529 0 0 0 -3.55724,10.43368a10.04693,10.03202 0 0 0 9.24348,6.27709a3.48342,3.47825 0 0 0 2.64252,-1.20286a2.41678,2.4132 0 0 0 -0.046,-2.82875a8.55236,8.53966 0 0 0 -3.64711,-2.52857a17.52624,17.50022 0 0 0 -6.01254,-1.44642a5.34068,5.33275 0 0 0 -2.25631,0.14849c-0.04065,0.25852 3.30369,-0.02991 7.87942,2.13652a8.00139,7.98951 0 0 1 3.12502,2.28287a1.28382,1.28191 0 0 1 0.03424,1.5415a2.39432,2.39076 0 0 1 -1.78344,0.68903a8.96639,8.95308 0 0 1 -7.95324,-5.53465a7.51996,7.50879 0 0 1 2.88859,-8.90073a2.91212,2.9078 0 0 1 1.96317,-0.37603a1.33303,1.33105 0 0 1 0.99817,1.19859a6.29177,6.28243 0 0 1 -1.24958,3.57012c-2.70671,4.2709 -5.83602,5.62331 -5.65949,5.83056z" class="e"/>
   <path stroke="null" id="svg_141" d="m236.8265,270.91148a310.54668,310.08563 0 0 0 2.46065,34.64898c2.25845,15.53142 5.48083,24.34776 9.10547,28.65284s7.52637,3.48573 7.52637,3.48573l36.1373,-55.35717l-11.49765,-5.94593l-14.3734,15.58162l0.18187,-20.20077l-29.54062,-0.86529z" class="g"/>
   <path stroke="null" id="svg_142" d="m313.27136,390.22745c-0.28244,2.18138 -5.66377,63.12555 -5.66377,63.12555l-27.96153,0l-4.90204,-62.87131l38.52734,-0.25425z" class="g"/>
   <path stroke="null" id="svg_143" d="m277.90114,439.86837s22.27529,15.78673 33.05828,2.12156l2.81905,6.6232l12.66699,47.17645a6.33991,6.3305 0 0 1 -3.56366,7.57396a6.11418,6.1051 0 0 1 -6.48113,-1.23811c-9.16324,-8.70204 -42.71044,-40.8844 -42.382,-45.24931l0.12945,-11.5842a5.89914,5.89038 0 0 1 3.75409,-5.42141l-0.00107,-0.00214z" class="l"/>
   <g stroke="null" id="svg_144" class="m">
    <path stroke="null" id="svg_145" d="m321.78735,503.67654l-47.78686,-50.83523l0.0107,2.52964c-0.23858,2.74329 0.96286,3.8265 2.26487,5.58379c3.86536,5.20563 14.56704,16.85178 39.94167,41.16856a6.12167,6.11258 0 0 0 5.56962,1.55325z" class="n"/>
   </g>
   <g stroke="null" id="svg_146" class="m">
    <path stroke="null" id="svg_147" d="m281.00049,445.30688a3.70809,3.70259 0 0 1 1.03454,4.83067a3.56473,3.55944 0 0 1 -4.7865,1.06826c-1.51918,-1.00096 -2.20282,-3.69724 -1.06985,-5.12123s3.86643,-1.89402 5.1021,-0.55763" class="b"/>
   </g>
   <path stroke="null" id="svg_148" d="m308.01092,477.64414c0.33914,0.16344 1.67538,-2.96976 5.22513,-4.66615c3.4984,-1.80322 6.80637,-0.97425 6.88019,-1.34387c0.05135,-0.14635 -0.70717,-0.60784 -2.1076,-0.79906a9.76984,9.75534 0 0 0 -9.3633,4.64799c-0.69219,1.23063 -0.78099,2.11302 -0.63442,2.16109z" class="e"/>
   <path stroke="null" id="svg_149" d="m312.30422,485.62296c0.28565,0.25745 2.1964,-1.69212 5.28611,-2.58946c3.07046,-0.96143 5.74294,-0.4038 5.83709,-0.77556c0.17225,-0.30552 -2.71206,-1.56073 -6.21795,-0.47965c-3.51659,1.04369 -5.21764,3.68549 -4.90525,3.84466z" class="e"/>
   <path stroke="null" id="svg_150" d="m300.03949,467.42624c0.28137,0.28202 3.20954,-2.73047 7.88905,-4.54544c4.65491,-1.88975 8.85192,-1.7028 8.86261,-2.10233c0.09629,-0.32048 -4.35107,-1.13022 -9.34725,0.88238c-5.01651,1.95598 -7.69327,5.59981 -7.40441,5.76539z" class="e"/>
   <path stroke="null" id="svg_151" d="m298.9782,453.06564c0.16155,0.35787 3.45989,-1.03514 7.75853,-1.20713c4.29651,-0.23181 7.71039,0.84499 7.8377,0.47431c0.16369,-0.29377 -3.28122,-2.02221 -7.89975,-1.78506c-4.61853,0.19763 -7.88691,2.24121 -7.69648,2.51789z" class="e"/>
   <path stroke="null" id="svg_152" d="m309.18562,451.72925a5.18127,5.17358 0 0 0 -0.337,-2.23587a15.7321,15.70875 0 0 0 -2.85756,-5.48444a6.97647,6.96612 0 0 0 -3.54975,-2.71658a2.46065,2.457 0 0 0 -2.62861,1.04903a4.01621,4.01024 0 0 0 -0.42794,2.82448a8.66576,8.6529 0 0 0 8.93643,6.46938a10.04907,10.03416 0 0 0 8.73316,-6.97146a3.48877,3.48359 0 0 0 -0.37231,-2.87682a2.41678,2.4132 0 0 0 -2.72062,-0.79051a8.57803,8.5653 0 0 0 -3.49519,2.73474a17.51875,17.49274 0 0 0 -3.15605,5.31031a5.31714,5.30925 0 0 0 -0.52316,2.19741c0.23537,0.11537 0.94468,-3.16098 4.36926,-6.88813a8.00674,7.99485 0 0 1 3.10256,-2.30851a1.28382,1.28191 0 0 1 1.48495,0.42196a2.39218,2.38863 0 0 1 0.13373,1.90471a8.9696,8.95628 0 0 1 -7.64085,5.95768a7.52103,7.50986 0 0 1 -7.66546,-5.38402a2.90036,2.89605 0 0 1 0.21397,-1.98376a1.33196,1.32998 0 0 1 1.44108,-0.59929a6.30033,6.29098 0 0 1 3.04799,2.24334c3.28978,3.84466 3.65995,7.23318 3.91136,7.12635z" class="e"/>
   <path stroke="null" id="svg_153" d="m383.78713,270.86021s-2.4093,52.07655 -6.3121,60.27757s-9.01881,12.49863 -12.92803,11.57779s-39.79297,-18.64966 -45.46851,-36.75665l11.72018,-12.11192s21.5724,13.11074 24.78301,13.00178l4.23659,-38.56414l23.96886,2.57557z" class="g"/>
   <path stroke="null" id="svg_154" d="m368.88844,319.86231c-0.09736,0.01282 -0.20006,-1.13663 -0.7949,-2.864a14.83985,14.81782 0 0 0 -9.85008,-9.48187c-1.75027,-0.53413 -2.90357,-0.59075 -2.89501,-0.68796a2.10225,2.09913 0 0 1 0.81308,-0.03312a11.77367,11.75619 0 0 1 2.18784,0.34184a14.0717,14.05081 0 0 1 10.11968,9.74145a11.81967,11.80212 0 0 1 0.42794,2.1707a2.12258,2.11943 0 0 1 -0.00856,0.81294z" class="g"/>
   <path stroke="null" id="svg_155" d="m266.3147,291.33232a29.84874,29.80442 0 0 1 -2.50665,2.5713c-1.56733,1.56393 -3.68348,3.76882 -5.8756,6.33371s-4.03439,5.00586 -5.33212,6.7984a29.70324,29.65914 0 0 1 -2.14504,2.8843a3.3069,3.30199 0 0 1 0.42794,-0.86849c0.30598,-0.54161 0.77885,-1.30648 1.3908,-2.2348a72.4201,72.31258 0 0 1 11.25907,-13.193c0.82164,-0.74778 1.49779,-1.33746 1.98992,-1.72524a3.26517,3.26033 0 0 1 0.79169,-0.56618z" class="g"/>
   <path stroke="null" id="svg_156" d="m242.63256,408.67094s116.59302,-51.22728 121.79354,-54.11265s23.11726,-10.09825 31.78623,-5.19387s17.62573,18.75435 13.00292,33.75698s-25.71806,38.66349 -32.94166,42.99101s-65.01568,2.30851 -65.01568,2.30851l-55.44055,16.50139l-13.1848,-36.25136z" class="f"/>
   <path stroke="null" id="svg_157" d="m393.86188,400.41009a5.45622,5.44812 0 0 1 -0.72429,0.54695c-0.49106,0.3333 -1.19395,0.86208 -2.15467,1.45711a82.10328,81.98139 0 0 1 -8.33625,4.69179a115.52852,115.357 0 0 1 -13.11098,5.44064c-5.04326,1.77224 -10.68777,3.41843 -16.65431,4.95993c-11.95126,3.02958 -22.84338,5.41928 -30.588,7.68185c-3.8782,1.10351 -6.98931,2.08951 -9.1258,2.81273l-2.46065,0.83431a5.62526,5.61691 0 0 1 -0.86979,0.25959a5.5172,5.50901 0 0 1 0.83127,-0.36534c0.55311,-0.21365 1.36299,-0.55336 2.42748,-0.93259c2.11723,-0.78731 5.21657,-1.83206 9.08728,-2.99112c7.73179,-2.36299 18.62604,-4.81785 30.55805,-7.84209c5.95691,-1.54043 11.59072,-3.16632 16.6265,-4.90544a122.28353,122.10199 0 0 0 13.1067,-5.31031a94.93182,94.79088 0 0 0 8.39723,-4.5198c0.9757,-0.56618 1.69571,-1.06826 2.20709,-1.36737a5.6841,5.67566 0 0 1 0.78313,-0.45081z" class="o"/>
   <path stroke="null" id="svg_158" d="m398.46971,381.39615a8.58231,8.56957 0 0 1 0.28779,2.58091a24.53908,24.50265 0 0 1 -2.98808,12.07773a8.60478,8.59201 0 0 1 -1.45927,2.14934a33.33323,33.28374 0 0 0 4.15957,-16.80798z" class="o"/>
   <path stroke="null" id="svg_159" d="m371.04311,351.57784a2.58154,2.57771 0 0 1 -0.55097,0.28736l-1.62189,0.72214l-5.96547,2.63753c-5.02828,2.25082 -11.89777,5.51863 -19.44233,9.22548s-14.398,7.03769 -19.41773,9.31842c-2.50879,1.14304 -4.54899,2.04572 -5.97189,2.6386l-1.64222,0.67621a2.66285,2.6589 0 0 1 -0.58735,0.20083a2.55159,2.5478 0 0 1 0.54241,-0.30339l1.59835,-0.77128l5.89379,-2.7967c4.97265,-2.37047 11.78972,-5.75257 19.33963,-9.46264s14.45471,-6.92339 19.52899,-9.08554c2.53554,-1.08215 4.60034,-1.93034 6.04143,-2.47836c0.67507,-0.25425 1.22498,-0.46042 1.66147,-0.626a2.62968,2.62578 0 0 1 0.59377,-0.18267z" class="o"/>
   <path stroke="null" id="svg_160" d="m361.53859,224.27664a11.63566,11.61838 0 0 1 0.37231,1.79254c0.21397,1.16013 0.45362,2.84905 0.68898,4.9439a106.79322,106.63467 0 0 1 -1.49779,32.79555c-0.42794,2.06494 -0.82057,3.72502 -1.13725,4.86058a11.3821,11.36521 0 0 1 -0.53492,1.75088a11.65385,11.63654 0 0 1 0.32095,-1.80108c0.25141,-1.14838 0.58521,-2.81807 0.96286,-4.88408a121.8909,121.70994 0 0 0 1.49779,-32.68872c-0.18508,-2.09272 -0.36589,-3.78484 -0.51139,-4.95138a11.46555,11.44853 0 0 1 -0.16155,-1.81818z" class="e"/>
   <path stroke="null" id="svg_161" d="m331.40099,262.48826l-13.71116,31.16218s-55.00512,16.87849 -60.42497,22.12791l-3.9242,0l30.8683,-36.13706s24.45029,-13.70683 31.30587,-15.59658s13.9722,-3.02531 13.9722,-3.02531l1.91396,1.46886z" class="b"/>
   <path stroke="null" id="svg_162" d="m288.29257,281.95835s18.73837,-10.89624 27.44479,-13.67371a152.15902,151.93311 0 0 1 16.75488,-4.24312l-13.58706,30.76585l-35.87519,7.90512l5.26258,-20.75413z" class="p"/>
   <path stroke="null" id="svg_163" d="m305.49464,282.54696s-1.46783,-2.83516 -0.56488,-4.18757s10.71131,-2.63433 16.88647,-3.38211s9.98702,0.94861 9.58797,6.56125a7.69434,7.68292 0 0 1 2.08299,5.83697c-0.33807,3.49427 -2.08299,4.05938 -2.08299,4.05938s1.86688,4.28265 0,6.53774s-2.59331,1.91539 -2.59331,1.91539a7.59592,7.58464 0 0 1 -2.5548,4.45143c-2.13969,1.63444 -6.7946,2.49225 -6.7946,2.49225l-11.55435,-23.67582l-2.41251,-0.60891z" class="g"/>
   <path stroke="null" id="svg_164" d="m327.51531,281.95301a14.12198,14.10102 0 0 1 -2.8597,0.47538c-1.77595,0.21365 -4.23659,0.44333 -6.95936,0.60784s-5.19518,0.23074 -6.98396,0.23395a14.22897,14.20784 0 0 1 -2.89608,-0.12712a15.7642,15.74079 0 0 1 2.88859,-0.26706l6.9615,-0.39526l6.95401,-0.4444a15.87118,15.84762 0 0 1 2.89501,-0.08332z" class="q"/>
   <path stroke="null" id="svg_165" d="m326.97182,290.58881a97.97447,97.82901 0 0 1 -14.75747,-0.7809a98.33286,98.18688 0 0 1 14.75747,0.7809z" class="q"/>
   <path stroke="null" id="svg_166" d="m326.51607,297.70021a17.85147,17.82497 0 0 1 -11.00445,-1.42185c0.05563,-0.1581 2.42427,0.65377 5.45622,1.03514c3.0373,0.40273 5.53432,0.22006 5.54823,0.38671z" class="q"/>
   <path stroke="null" id="svg_167" d="m331.38922,291.39321a2.61257,2.60869 0 0 1 0.43757,0.87597a11.14888,11.13233 0 0 1 0.57986,2.60335a29.15975,29.11646 0 0 1 0.10698,3.93653a12.08927,12.07133 0 0 1 -0.20541,2.35017a4.95446,4.94711 0 0 1 -1.21535,2.29035a10.94882,10.93256 0 0 1 -4.15743,2.56382a17.109,17.0836 0 0 1 -3.84396,0.96143a11.52867,11.51156 0 0 1 -2.6682,0.06089a2.56763,2.56382 0 0 1 -0.96286,-0.20297a23.69391,23.65873 0 0 0 3.56901,-0.24677a18.68702,18.65928 0 0 0 3.71665,-1.04903a10.91244,10.89624 0 0 0 3.92955,-2.457a4.47089,4.46425 0 0 0 1.09659,-2.03824a12.28613,12.26788 0 0 0 0.2236,-2.24334a35.2183,35.16601 0 0 0 0.01712,-3.88526a20.69191,20.66119 0 0 0 -0.62372,-3.51991z" class="g"/>
   <path stroke="null" id="svg_168" d="m290.45473,281.6806s3.51445,-4.01024 7.04173,-4.23244s11.55435,-1.53509 15.0934,5.15114s8.02385,26.99063 8.14582,34.35414s-6.66194,102.84021 -6.66194,102.84021l-39.27944,0l-3.5979,-22.86074l-25.00447,10.62277s-9.97953,-6.40314 -10.94133,-21.12909s0.8869,-32.97501 4.13068,-37.77684s51.07343,-66.96915 51.07343,-66.96915z" class="f"/>
   <path stroke="null" id="svg_169" d="m320.26602,324.20905s0.00535,0.15917 -0.00856,0.4711l-0.07382,1.38874c-0.0781,1.24132 -0.19043,3.04133 -0.33486,5.36266c-0.31347,4.69286 -0.76708,11.48806 -1.33517,19.98926c-0.62051,8.51295 -1.19823,18.75222 -1.884,30.28941s-1.46248,24.37767 -2.28519,38.10159l-0.01498,0.25425l-0.25569,0l-29.19399,0.00855l-9.38684,0l-0.04386,-0.22433c-1.63794,-8.38583 -3.22345,-16.50353 -4.72231,-24.18111l0.00856,0.03312a114.45974,114.28981 0 0 1 -5.54823,-35.98109a155.34181,155.11119 0 0 1 2.8383,-28.72228c1.50741,-7.96814 3.14535,-14.2228 4.33395,-18.48942c0.58521,-2.13652 1.10408,-3.76561 1.42932,-4.87447c0.16476,-0.53413 0.29314,-0.95182 0.38514,-1.25307c0.0888,-0.28095 0.1455,-0.41983 0.1455,-0.41983s-0.02568,0.14849 -0.10057,0.43371l-0.34021,1.26589c-0.29635,1.11633 -0.78634,2.7529 -1.34266,4.89583c-1.13404,4.27838 -2.71848,10.53944 -4.1724,18.50331a157.20656,156.97316 0 0 0 -2.71206,28.66032a114.59882,114.42868 0 0 0 5.59744,35.81231l0.00535,0.01709l0,0.01602c1.50527,7.67651 3.10256,15.79207 4.74156,24.17683l-0.27281,-0.22433l9.15789,0l29.19399,0.00748l-0.27067,0.25425c0.84946,-13.72392 1.64436,-26.56012 2.35366,-38.09945s1.33838,-21.77218 2.00596,-30.28193c0.63549,-8.49693 1.14367,-15.28999 1.49779,-19.97644c0.18401,-2.31812 0.3263,-4.11493 0.42794,-5.35518c0.05242,-0.59502 0.09201,-1.05223 0.12196,-1.3834c0.02782,-0.31834 0.05456,-0.47538 0.05456,-0.47538z" class="o"/>
   <path stroke="null" id="svg_170" d="m307.70174,248.56778l-10.34221,0.95502l5.99114,4.88728a4.54257,4.53583 0 0 0 4.35,-5.84231l0.00107,0z" class="g"/>
   <path stroke="null" id="svg_171" d="m283.75321,251.76935l-11.64636,-4.60633a1.99099,1.98803 0 0 1 -1.11157,-2.59801l0,0a1.99206,1.9891 0 0 1 2.6468,-1.06826l14.65049,6.42665l23.36867,10.24674l2.29589,3.06163l-3.87713,0.81294l-26.3268,-12.27536z" class="e"/>
   <path stroke="null" id="svg_172" d="m280.56078,276.39592a7.05136,7.04089 0 0 1 -1.06985,-4.61915a18.79828,18.77038 0 0 0 -0.08345,-5.50581s-1.28382,-4.20253 0,-5.85299a5.16629,5.15862 0 0 0 1.15009,-3.30199s0.13587,-4.30615 1.33838,-4.62983s12.47656,-5.42569 13.97969,-4.82533s13.678,11.25624 13.678,11.25624s1.20572,3.17166 -1.65184,3.0862l3.75623,3.51778l-6.6138,2.76252l-19.80822,10.53196s-3.58934,0.4711 -4.67523,-2.41961z" class="g"/>
   <path stroke="null" id="svg_173" d="m306.90149,267.25804a18.3115,18.28432 0 0 1 -2.75058,-0.36534a60.47953,60.38974 0 0 0 -13.28857,-0.56511a18.16601,18.13904 0 0 1 -2.77197,0.13033a11.1553,11.13874 0 0 1 2.7356,-0.52238a42.428,42.36501 0 0 1 13.39342,0.56938a11.10822,11.09173 0 0 1 2.68211,0.75312z" class="r"/>
   <path stroke="null" id="svg_174" d="m307.90501,262.00327a13.17624,13.15668 0 0 0 -2.35366,-1.82565a18.03762,18.01084 0 0 0 -6.94759,-1.74874c-2.81691,-0.25425 -5.41343,-0.12819 -7.29101,-0.22754a11.07292,11.05648 0 0 1 -3.02339,-0.35787c0.00963,-0.08226 1.16292,0 3.02874,-0.03525a70.60991,70.50508 0 0 1 7.33915,0.0673a16.44141,16.417 0 0 1 7.09309,1.96346a6.75608,6.74605 0 0 1 1.71176,1.46779c0.33486,0.41555 0.46859,0.67941 0.44292,0.6965z" class="r"/>
   <path stroke="null" id="svg_175" d="m309.55685,258.91707a11.08148,11.06503 0 0 1 -2.0402,-1.42719c-1.21428,-0.93579 -2.86719,-2.2583 -4.66988,-3.74532s-3.41602,-2.85652 -4.56611,-3.86923a11.10929,11.0928 0 0 1 -1.78664,-1.72844a11.02691,11.01054 0 0 1 2.03913,1.42613c1.21428,0.93579 2.86719,2.2583 4.67202,3.74638s3.41602,2.85652 4.56611,3.8703a11.04296,11.02657 0 0 1 1.78557,1.72737z" class="g"/>
   <path stroke="null" id="svg_176" d="m286.05873,278.34229c0.01391,0.06516 -0.50497,0.25425 -1.3908,0.22647a5.67019,5.66177 0 0 1 -5.16736,-3.91944c-0.26211,-0.84072 -0.21397,-1.38874 -0.15299,-1.39408c0.08666,-0.01282 0.18401,0.50529 0.52102,1.25414a6.18693,6.17774 0 0 0 4.83571,3.6684a8.28704,8.27473 0 0 1 1.35443,0.16451z" class="g"/>
   <path stroke="null" id="svg_177" d="m256.15329,314.8447s-7.65369,6.35507 -7.37232,26.87098s-1.35978,26.8133 -1.35978,26.8133l4.36605,0l34.76361,-39.6324a49.33172,49.25848 0 0 1 -2.5334,-19.11115c0.4365,-7.21288 6.43727,-28.10482 6.43727,-28.10482l-2.16216,0.27775l-32.13928,32.88635z" class="p"/>
   <path stroke="null" id="svg_178" d="m253.99006,315.12137s-7.65369,6.35507 -7.37232,26.87205s-1.35978,26.8133 -1.35978,26.8133l4.36605,0l34.76468,-39.6324a49.32851,49.25528 0 0 1 -2.5334,-19.11008c0.43543,-7.21288 6.43727,-28.10482 6.43727,-28.10482l-4.0804,-2.31705l-30.22211,35.47901z" class="s"/>
   <path stroke="null" id="svg_179" d="m284.30739,280.51727a0.8623,0.86102 0 0 1 -0.04707,0.24036c-0.05135,0.18481 -0.1134,0.41128 -0.18936,0.68689q-0.28779,0.96143 -0.77992,2.63005c-0.72322,2.27219 -1.64542,5.60195 -2.69815,9.7532a111.36253,111.1972 0 0 0 -2.61792,14.84025a58.0927,58.00646 0 0 0 -0.21397,8.9221q0.11554,1.15586 0.23216,2.33094c0.1455,0.77235 0.2343,1.565 0.42794,2.33949l0.28672,1.16547l0.37552,1.14517a9.16217,9.14857 0 0 0 1.0538,2.12797l0.15192,0.20404l-0.16904,0.17092l-2.26059,2.27646a305.68316,305.22933 0 0 0 -23.60725,27.05366c-2.81477,3.63208 -5.01865,6.63282 -6.53249,8.71165l-1.74171,2.39504l-0.46324,0.61639a0.95644,0.95502 0 0 1 -0.17332,0.19976a0.91258,0.91122 0 0 1 0.12624,-0.23181l0.41831,-0.64736c0.37445,-0.56404 0.92328,-1.40049 1.65612,-2.457c1.46034,-2.11836 3.61929,-5.15542 6.39769,-8.82595a281.46182,281.04395 0 0 1 23.52166,-27.20428l2.26594,-2.27966l-0.01712,0.37389a9.40182,9.38786 0 0 1 -1.14581,-2.29355l-0.38728,-1.18363l-0.29207,-1.19645c-0.19578,-0.79372 -0.28565,-1.60239 -0.42794,-2.38756q-0.11554,-1.19325 -0.22895,-2.36833a57.64337,57.55779 0 0 1 0.25034,-9.00542a106.78359,106.62505 0 0 1 2.74844,-14.88512c1.10408,-4.14912 2.08406,-7.4682 2.86933,-9.72116q0.55311,-1.64405 0.8762,-2.60121c0.09629,-0.2692 0.17545,-0.48926 0.23965,-0.6698a0.88048,0.87918 0 0 1 0.09522,-0.2254z" class="e"/>
   <path stroke="null" id="svg_180" d="m284.5235,329.62833a6.38271,6.37323 0 0 1 -2.38469,-1.10992c-1.23888,-0.74778 -2.17714,-1.45604 -2.09797,-1.58743a6.38378,6.3743 0 0 1 2.38469,1.11099c1.23781,0.74458 2.17714,1.45497 2.09797,1.58636z" class="e"/>
   <path stroke="null" id="svg_181" d="m269.26962,332.50729a7.81951,7.8079 0 0 1 -0.29421,-1.48915c-0.16262,-0.96143 -0.32095,-2.37047 -0.45575,-4.11386a66.17754,66.07929 0 0 1 3.67706,-26.90196c0.59484,-1.64405 1.12762,-2.95587 1.54272,-3.84573a7.96501,7.95319 0 0 1 0.68256,-1.35669a8.02385,8.01194 0 0 1 -0.4825,1.43894c-0.35198,0.90695 -0.82699,2.2348 -1.37047,3.88526a74.27521,74.16494 0 0 0 -3.65567,26.75241c0.08024,1.73592 0.1808,3.14175 0.27709,4.11066a8.05916,8.04719 0 0 1 0.07917,1.52013z" class="e"/>
   <path stroke="null" id="svg_182" d="m264.67141,333.5873a4.15529,4.14912 0 0 1 -0.44934,-1.11954a20.66196,20.63128 0 0 1 -0.71466,-3.20478a70.63238,70.52752 0 0 1 -0.33058,-10.80117a40.87779,40.8171 0 0 1 0.51781,-5.94486a30.68429,30.63873 0 0 1 1.20465,-4.72705a26.63064,26.5911 0 0 1 1.25172,-3.03492a4.46019,4.45357 0 0 1 0.60232,-1.04476c0.08773,0.04059 -0.67293,1.57675 -1.47853,4.20146a34.51434,34.4631 0 0 0 -1.06985,4.68752a44.95926,44.89251 0 0 0 -0.46752,5.87542a90.32399,90.18989 0 0 0 0.16369,10.73707c0.29314,2.72726 0.86444,4.34675 0.77029,4.37559z" class="e"/>
   <path stroke="null" id="svg_183" d="m259.85282,336.697a3.3529,3.34792 0 0 1 -0.01819,-0.91122c0.0353,-0.6933 0.0781,-1.52654 0.12731,-2.50934c0.12945,-2.13652 0.34342,-5.13512 0.61302,-8.58239l0.09522,0.22861a4.39386,4.38734 0 0 1 0.77564,-7.25241l0.09522,0.50315a3.58613,3.5808 0 0 1 -1.45071,-6.6232l0.34663,-0.19976l-0.08987,0.37603a2.66713,2.66317 0 0 1 -1.64863,1.88975a1.41969,1.41758 0 0 1 -0.89332,0.11537c0,-0.0438 0.32095,-0.04166 0.82057,-0.28309a2.54089,2.53711 0 0 0 1.3908,-1.78506l0.25676,0.17626a3.32295,3.31801 0 0 0 -1.4475,2.95053a3.20954,3.20478 0 0 0 2.7816,2.85332l0.8623,0.09935l-0.76708,0.40487a3.8782,3.87244 0 0 0 -0.67935,6.36469l0.10698,0.0908l-0.01177,0.13887c-0.30063,3.44407 -0.58414,6.43626 -0.80773,8.56637c-0.11233,0.97746 -0.20755,1.80643 -0.28672,2.49652a3.40853,3.40347 0 0 1 -0.17118,0.892z" class="e"/>
   <path stroke="null" id="svg_184" d="m257.67568,340.36754a3.05334,3.04881 0 0 1 -0.37766,-0.85461a20.19337,20.16339 0 0 1 -0.71038,-2.44631a35.99394,35.9405 0 0 1 -0.83769,-8.35058a71.2454,71.13963 0 0 1 0.62372,-8.35806a20.08638,20.05656 0 0 1 0.58307,-3.41843a22.92683,22.89279 0 0 1 -0.1915,3.46116c-0.17118,2.13011 -0.42794,5.07102 -0.45789,8.32067a43.81559,43.75054 0 0 0 0.66544,8.26726c0.39477,2.08631 0.79383,3.35113 0.70289,3.3789z" class="e"/>
   <path stroke="null" id="svg_185" d="m252.70089,349.35587a4.8785,4.87126 0 0 1 -0.11447,-1.17508c-0.03851,-0.75846 -0.07489,-1.85663 -0.10698,-3.21332c-0.05563,-2.71231 -0.15513,-6.45976 -0.07275,-10.60888a71.47435,71.36824 0 0 1 0.91258,-10.58751c0.23644,-1.34066 0.48143,-2.4164 0.67721,-3.15136a4.88706,4.87981 0 0 1 0.37017,-1.12594c0.0888,0.02243 -0.29207,1.65794 -0.65796,4.33713a92.61881,92.48131 0 0 0 -0.74889,10.54051c-0.08238,4.12989 -0.04493,7.88055 -0.09094,10.59392c-0.01712,1.35669 -0.04172,2.457 -0.07061,3.21439a4.86673,4.85951 0 0 1 -0.09736,1.17615z" class="e"/>
   <path stroke="null" id="svg_186" d="m271.19641,396.10287a5.14169,5.13405 0 0 1 -1.06022,0.62493c-0.69968,0.36855 -1.72031,0.88345 -2.98915,1.50518c-2.53768,1.24345 -6.06817,2.9078 -10.00521,4.66722s-7.54135,3.2678 -10.17853,4.28692c-1.32233,0.50315 -2.39432,0.90375 -3.14642,1.14838a5.34924,5.34129 0 0 1 -1.18432,0.33757a5.1802,5.17251 0 0 1 1.10622,-0.53947l3.07474,-1.30969c2.59545,-1.11099 6.16767,-2.67065 10.1015,-4.43221l10.06405,-4.51553l3.06404,-1.34387a5.26579,5.25797 0 0 1 1.1533,-0.42944z" class="o"/>
   <path stroke="null" id="svg_187" d="m149.79122,394.25158c-3.04158,-0.15169 -3.93597,-4.43968 -2.803,-7.26416s3.37216,-5.33382 3.40318,-8.37301c0.02675,-2.6386 -1.65077,-5.03684 -1.81125,-7.6701c-0.28993,-4.75162 4.3072,-8.62405 4.50299,-13.38101c0.15299,-3.70686 -2.4232,-7.23745 -1.79948,-10.89624c0.66972,-3.92478 4.77045,-6.50249 5.71084,-10.37173c1.00138,-4.12027 -1.86153,-8.47877 -0.76494,-12.57447c1.09338,-4.07968 5.9077,-7.07401 5.22192,-11.24236a39.24199,39.18373 0 0 0 -1.43146,-3.93012c-0.8623,-3.10863 0.83662,-6.35294 2.89608,-8.83771s4.5843,-4.69072 5.85634,-7.65621c1.95461,-4.55719 0.5959,-10.10252 2.9057,-14.49093c1.92572,-3.65345 6.20511,-6.11258 6.74004,-10.20401c2.17072,3.68229 0.04921,8.37088 0.54241,12.61507c0.32095,2.76786 1.75776,5.26438 2.64038,7.90512a20.62023,20.58962 0 0 1 -1.61868,16.47469c-1.86046,3.2646 -4.72872,6.34439 -4.58216,10.09718c0.17652,4.5433 4.72979,7.83888 5.53325,12.31382c1.15116,6.40421 -5.67982,12.16213 -4.73514,18.59945c0.24393,1.66007 1.00459,3.22294 1.14688,4.89583c0.48571,5.68955 -5.97831,9.71047 -6.9615,15.33592c-0.72322,4.1395 1.67324,8.41788 0.68256,12.49863c-0.76387,3.14816 -3.4877,5.96943 -2.81798,9.13895a22.03885,22.00613 0 0 0 1.74064,3.82543a7.30599,7.29514 0 0 1 -1.1426,7.54404a6.35061,6.34118 0 0 1 -7.34664,1.50731" class="t"/>
   <path stroke="null" id="svg_188" d="m166.01866,388.28963a8.35444,8.34203 0 0 1 -1.17683,-4.49523c0.3124,-1.73913 3.25661,-3.26674 3.98839,-6.2162c0.95002,-3.82543 -0.76387,-10.59285 -0.03317,-14.45141c0.99175,-5.24408 6.4255,-8.69456 6.20511,-13.90232c-0.06526,-1.53081 0.15085,-5.62225 0,-7.13597c-0.58093,-5.86581 4.57895,-9.80448 3.82684,-15.62649c-0.52529,-4.069 -4.75119,-8.83771 -4.7544,-13.01032c0,-3.4462 2.47135,-6.46724 4.1157,-9.59403a21.55956,21.52755 0 0 0 1.86046,-15.2761c-0.64833,-2.37688 -1.75883,-4.58176 -1.93856,-7.10926c-0.27602,-3.87671 1.63045,-8.33242 -0.05242,-11.58099c-0.57558,3.80193 -4.19808,6.34332 -5.90663,9.82798c-2.05197,4.19078 -1.10087,9.20946 -2.86398,13.5327c-1.14795,2.81166 -3.30904,5.00693 -5.09354,7.42867s-3.29513,5.51863 -2.67462,8.32494a35.4772,35.42453 0 0 1 1.06343,3.52525c0.4365,3.79339 -3.64818,6.86356 -4.68165,10.69113s1.19716,7.66903 0.23751,11.52758c-0.90081,3.6246 -4.45377,8.54607 -5.13527,12.20486c-0.63228,3.40881 2.46065,5.62545 2.21672,9.04922c-0.31133,4.39161 -4.72017,9.70727 -4.6303,14.06363c0.05028,2.41427 2.07336,3.18875 1.96745,5.61904c-0.12089,2.80204 -2.46921,8.36874 -3.49626,11.04152a7.57238,7.56114 0 0 0 0.72857,7.51841l13.07353,6.47579c5.83602,-2.77106 5.57818,-8.43711 3.15391,-12.4324z" class="u"/>
   <path stroke="null" id="svg_189" d="m174.80639,289.74061a1.17683,1.17508 0 0 1 0.0214,0.2895c0,0.22006 0.00535,0.49995 0.00963,0.8482c-0.00642,0.74778 -0.00749,1.84702 -0.1348,3.26246a16.29591,16.27172 0 0 1 -1.17683,5.04005c-0.76922,1.91646 -2.39539,3.63208 -3.93597,5.60302a10.40319,10.38775 0 0 0 -1.86367,3.40775a11.60035,11.58313 0 0 0 -0.47394,4.17903c0.14015,2.94733 1.05059,6.01643 1.48067,9.36329a14.28674,14.26553 0 0 1 -0.16797,5.19281a9.90572,9.89101 0 0 1 -1.02384,2.51895a22.99316,22.95902 0 0 0 -1.37903,2.29142c-0.74889,1.60239 -0.45469,3.48787 -0.07703,5.29856c0.18722,0.91763 0.39477,1.85129 0.50604,2.81807a11.25265,11.23595 0 0 1 -0.07489,2.93771a23.19964,23.16519 0 0 1 -1.80055,5.48337a44.44359,44.37761 0 0 0 -2.02094,5.13619a13.27787,13.25816 0 0 0 -0.45255,5.21417a23.55162,23.51665 0 0 1 0.18294,5.17785a15.71606,15.69272 0 0 1 -1.6497,4.65975a18.35644,18.32919 0 0 0 -1.64756,4.23671c-0.55311,2.8843 0.26639,5.64895 0.20755,8.20743a22.05918,22.02643 0 0 1 -1.50314,6.68623a23.52273,23.48781 0 0 0 -1.2774,4.95886a7.153,7.14238 0 0 0 0.32951,3.17914c0.26639,0.68689 0.46966,1.02767 0.44185,1.04262a5.67019,5.66177 0 0 1 -0.54027,-1.00416a6.98824,6.97787 0 0 1 -0.43436,-3.23576a22.92041,22.88638 0 0 1 1.20144,-5.0315a22.09127,22.05848 0 0 0 1.41113,-6.59757a39.36396,39.30552 0 0 0 -0.32095,-3.93867a14.7457,14.72381 0 0 1 0.05349,-4.35209c0.56488,-3.02531 2.7816,-5.61691 3.24485,-8.87509a23.26597,23.23143 0 0 0 -0.20327,-5.07102a13.78605,13.76558 0 0 1 0.45789,-5.39898c1.00245,-3.55623 3.17317,-6.79413 3.79796,-10.55867a10.75089,10.73493 0 0 0 0.07168,-2.79884c-0.10698,-0.92939 -0.30812,-1.84809 -0.49641,-2.77747c-0.37338,-1.81604 -0.70503,-3.83078 0.11982,-5.61263a22.73211,22.69836 0 0 1 1.4122,-2.34269a9.3954,9.38145 0 0 0 0.97356,-2.37901a13.88341,13.8628 0 0 0 0.17439,-5.01334c-0.40761,-3.29024 -1.30842,-6.38391 -1.43573,-9.40068a11.94698,11.92925 0 0 1 0.52316,-4.32218a10.73592,10.71998 0 0 1 1.95461,-3.50923c1.58658,-1.98803 3.19028,-3.64383 3.95843,-5.49512a16.46174,16.4373 0 0 0 1.24423,-4.94283c0.15834,-1.40156 0.1915,-2.50186 0.23216,-3.24537c0.01712,-0.34718 0.0321,-0.626 0.04279,-0.84606a1.26884,1.26695 0 0 1 0.03744,-0.28416z" class="e"/>
   <path stroke="null" id="svg_190" d="m131.1149,395.7418c-4.25478,0.62173 -6.6705,-5.07423 -5.8756,-9.29385s3.20954,-8.31105 2.41892,-12.53174c-0.68577,-3.66199 -3.66851,-6.52493 -4.61318,-10.12923c-1.70534,-6.50356 3.60218,-13.12783 2.56763,-19.77027c-0.80559,-5.17785 -5.34282,-9.36649 -5.4819,-14.60417c-0.14871,-5.62118 4.82608,-10.31297 5.0668,-15.93201c0.25676,-5.98225 -4.90418,-11.23595 -4.50834,-17.21072c0.39477,-5.95127 6.2447,-11.41755 4.15101,-17.00454c-0.69326,-1.84809 -2.17607,-3.29024 -3.06297,-5.05393c-2.04662,-4.07113 -0.58307,-9.02999 1.58979,-13.03276s5.06359,-7.75342 6.01254,-12.20913c1.4582,-6.84861 -1.94498,-14.15977 0.05135,-20.87164c1.66147,-5.58699 6.91442,-10.16448 6.53891,-15.98008c4.01728,4.50805 2.36329,11.58527 4.21199,17.33036c1.20572,3.74532 3.87927,6.81122 5.82639,10.23178a29.12552,29.08228 0 0 1 2.27663,23.26881c-1.6818,5.03043 -4.81431,10.08223 -3.57864,15.24192c1.49137,6.24611 8.70321,9.56626 11.0451,15.54637c3.34969,8.55782 -4.53401,18.40503 -1.45927,27.06434c0.79383,2.23373 2.27556,4.19078 2.93245,6.46831c2.23384,7.75022 -5.61991,15.08916 -5.4391,23.15131c0.13373,5.93418 4.62816,11.20604 4.37567,17.13594c-0.19471,4.57108 -3.19349,9.22442 -1.39722,13.43336c0.77885,1.82459 2.34724,3.18021 3.45989,4.82319a10.31761,10.30229 0 0 1 0.48785,10.76378a8.9696,8.95628 0 0 1 -9.76663,4.09784" class="t"/>
   <path stroke="null" id="svg_191" d="m151.96194,383.04341c-1.17041,-1.28191 -2.82761,-4.12455 -2.85863,-5.9064c-0.04386,-2.49438 3.61608,-5.41714 3.82042,-9.703c0.26639,-5.55495 -3.95843,-14.46743 -4.01086,-20.01383c-0.06419,-7.5355 6.51858,-13.80297 4.78008,-20.9571c-0.51032,-2.10233 -1.33303,-7.83034 -1.95568,-9.88567c-2.41358,-7.96921 3.65353,-14.83598 1.01528,-22.6973c-1.84335,-5.49406 -9.00704,-10.94538 -10.15606,-16.72466c-0.94895,-4.77405 1.6497,-9.63676 3.07046,-14.42149a30.44678,30.40158 0 0 0 -1.61333,-21.67177c-1.54914,-3.11504 -3.69311,-5.86688 -4.63565,-9.31949c-1.44536,-5.29429 -0.02568,-11.988 -3.24806,-16.03029c0.245,5.42462 -4.07719,9.93481 -5.48618,15.23658c-1.69357,6.36682 1.00031,13.05946 -0.25783,19.53098c-0.81843,4.21108 -3.20954,7.84316 -5.01865,11.68568s-3.0512,8.54607 -1.42718,12.26682c0.70289,1.612 1.8947,2.89712 2.44032,4.59351c1.64542,5.13619 -3.17103,10.50526 -3.55296,16.09118c-0.38408,5.60729 3.76158,10.29908 3.49091,15.90744c-0.25462,5.26652 -3.82684,13.05946 -3.76265,18.31209c0.05884,4.89476 4.95125,7.12101 5.55358,11.93031c0.77243,6.17026 -3.87713,14.74197 -2.55693,20.75093c0.73178,3.33083 3.74447,3.85107 4.26762,7.24814c0.60018,3.9141 -1.12655,12.27002 -1.81874,16.25249s-0.0353,6.82083 3.07153,10.2179l19.8906,5.39578c7.32631,-5.43744 5.41343,-13.2165 0.95858,-18.08883z" class="u"/>
   <path stroke="null" id="svg_192" d="m137.10497,244.10459a50.02284,49.94858 0 0 1 1.0217,6.1286a23.07981,23.04555 0 0 1 -0.26746,7.28873a18.36393,18.33666 0 0 1 -1.56305,4.30081c-0.71145,1.4539 -1.57695,2.92489 -2.36329,4.5198a14.74035,14.71847 0 0 0 -1.66147,5.25477a16.42643,16.40205 0 0 0 0.48464,5.9502c1.00352,4.05938 3.10256,8.06749 4.61318,12.57661a20.10029,20.07045 0 0 1 1.18218,7.20541a13.89304,13.87241 0 0 1 -0.72215,3.73891a32.37465,32.32658 0 0 0 -1.28382,3.56371c-0.60125,2.4634 0.33165,5.02082 1.35015,7.4276c0.51246,1.21995 1.0538,2.457 1.46997,3.75707a15.70643,15.68311 0 0 1 0.69861,4.05938a32.68276,32.63424 0 0 1 -0.98854,8.06215a62.67914,62.58608 0 0 0 -1.3908,7.68292a19.28186,19.25323 0 0 0 0.03317,3.76454a20.91016,20.87912 0 0 0 0.77564,3.62033a33.05828,33.0092 0 0 1 1.67324,7.10178a22.05169,22.01895 0 0 1 -1.00031,6.87745a25.9791,25.94053 0 0 0 -1.11692,6.34439a20.42659,20.39627 0 0 0 1.06129,5.90106a54.8179,54.73652 0 0 1 1.49137,5.42675a19.72691,19.69762 0 0 1 0.24713,5.12764c-0.10698,1.61414 -0.30063,3.12466 -0.48036,4.53155a33.05828,33.0092 0 0 0 -0.39049,7.23104a10.05656,10.04163 0 0 0 1.35229,4.32218c0.56381,0.87704 0.94468,1.28832 0.91579,1.31075a8.71711,8.70417 0 0 1 -1.00566,-1.2552a9.88432,9.86964 0 0 1 -1.46462,-4.35636a32.38962,32.34154 0 0 1 0.3017,-7.28766c0.16583,-1.4101 0.3477,-2.91635 0.43864,-4.51553a19.56216,19.53311 0 0 0 -0.27816,-5.03257a55.39241,55.31017 0 0 0 -1.5149,-5.37975a20.75504,20.72422 0 0 1 -1.10943,-6.02071a26.27117,26.23216 0 0 1 1.10622,-6.45656a21.7179,21.68565 0 0 0 0.96286,-6.73003a32.88817,32.83935 0 0 0 -1.67217,-6.99175a21.34987,21.31817 0 0 1 -0.79811,-3.70152a19.73654,19.70724 0 0 1 -0.04172,-3.86603a62.85138,62.75807 0 0 1 1.3908,-7.74915a32.24198,32.19412 0 0 0 0.97356,-7.93289a15.19183,15.16928 0 0 0 -0.67293,-3.92478c-0.40333,-1.26589 -0.93826,-2.48584 -1.45178,-3.71434a23.02953,22.99534 0 0 1 -1.30521,-3.77309a8.71605,8.7031 0 0 1 -0.06419,-3.97072a32.40888,32.36077 0 0 1 1.30949,-3.62033a13.42337,13.40344 0 0 0 0.70075,-3.59149a19.67342,19.64421 0 0 0 -1.1426,-7.03021c-1.47318,-4.45784 -3.57115,-8.49159 -4.57574,-12.62255a16.78804,16.76312 0 0 1 -0.46324,-6.10189a15.06452,15.04215 0 0 1 1.72994,-5.37121c0.80666,-1.60239 1.68073,-3.06911 2.39753,-4.50271a18.20024,18.17322 0 0 0 1.57482,-4.21535a23.27667,23.24211 0 0 0 0.35091,-7.20541c-0.17225,-1.98696 -0.43436,-3.51884 -0.58949,-4.55826c-0.0781,-0.49995 -0.13801,-0.892 -0.18294,-1.18363a2.36008,2.35658 0 0 1 -0.046,-0.41448z" class="e"/>
   <path stroke="null" id="svg_193" d="m128.45098,398.53957c-2.42641,1.19325 -4.97479,-1.74981 -5.31607,-4.429s0.3124,-5.5934 -0.97784,-7.96707c-1.12013,-2.05853 -3.45882,-3.1973 -4.72231,-5.17144c-2.27877,-3.56371 -0.38514,-8.55248 -2.28947,-12.32878c-1.48388,-2.94305 -5.01116,-4.57428 -6.10776,-7.68185c-1.17683,-3.3351 0.89225,-7.10392 -0.05135,-10.51274c-1.00459,-3.63208 -5.11066,-5.77928 -6.02966,-9.43059s1.52667,-8.03972 -0.80773,-10.9785a34.73687,34.6853 0 0 0 -2.81156,-2.43349c-2.01238,-2.04144 -2.0969,-5.29215 -1.57161,-8.10915s1.52988,-5.61691 1.2346,-8.46702c-0.45255,-4.37986 -3.90494,-8.09954 -4.00872,-12.49863c-0.08773,-3.6652 2.17072,-7.41799 0.82057,-10.8268c3.27587,1.92287 3.65674,6.47792 5.8756,9.55985c1.44643,2.00833 3.63748,3.32763 5.46692,4.99945a18.32113,18.29393 0 0 1 5.86704,13.4857c-0.03317,3.33617 -0.92756,6.96291 0.80773,9.81409c2.10225,3.45048 7.06099,4.0455 9.62007,7.17229c3.66209,4.47494 0.84946,11.89079 4.36605,16.48003c0.90723,1.18363 2.17286,2.06815 3.00734,3.30519c2.83723,4.2068 -0.44292,10.11534 1.22604,14.90542c1.22818,3.52525 4.93841,5.81346 5.93551,9.41136c0.76815,2.77747 -0.12624,6.13715 1.76418,8.30892a19.67235,19.64314 0 0 0 3.0052,2.21984a6.48862,6.47899 0 0 1 2.37506,6.34759a5.6413,5.63293 0 0 1 -5.05182,4.33713" class="t"/>
   <path stroke="null" id="svg_194" d="m138.4701,386.91585a7.4226,7.41158 0 0 1 -2.85435,-2.98365c-0.50925,-1.48381 1.11585,-3.93974 0.40868,-6.54415c-0.91686,-3.3789 -5.17271,-7.89443 -6.27465,-11.2039c-1.49779,-4.49844 1.22925,-9.51925 -1.19609,-13.46006c-0.71252,-1.16013 -2.31408,-4.429 -3.08437,-5.53892c-2.98701,-4.30401 -0.6847,-9.58442 -3.78512,-13.78054c-2.16751,-2.93237 -7.50926,-4.81251 -9.31623,-8.04933c-1.49137,-2.67065 -0.87834,-6.08908 -0.95323,-9.22228a19.14278,19.11436 0 0 0 -5.16094,-12.65887c-1.52988,-1.565 -3.34541,-2.79884 -4.57788,-4.68325c-1.89042,-2.88964 -2.33655,-7.16909 -5.04754,-8.96696c1.19716,3.19944 -0.51674,6.73003 -0.33379,10.17837c0.21397,4.13737 3.12609,7.6231 3.62678,11.7391c0.32095,2.67706 -0.40333,5.31245 -0.74247,7.96173s-0.17118,5.7045 1.52132,7.61775a31.31122,31.26473 0 0 1 2.35366,2.2786c1.97922,2.75611 0.13587,6.89988 0.98854,10.31618s4.24515,5.43851 5.16843,8.84732c0.86765,3.20478 0.23751,8.55462 1.29238,11.68568c0.98319,2.91848 4.34251,3.3116 5.63382,6.06878c1.65719,3.54341 0.53492,9.56946 2.48632,12.91204c1.08269,1.85343 2.98808,1.58209 3.95843,3.51457c1.11692,2.22732 1.70106,7.56114 2.05839,10.07795a6.72934,6.71935 0 0 0 3.81721,5.5229l12.94515,-0.60998c3.32722,-4.67577 0.67721,-8.96269 -2.93245,-11.01909z" class="u"/>
   <path stroke="null" id="svg_195" d="m102.68371,306.62872a0.98319,0.98173 0 0 1 0.14443,0.21365l0.37659,0.65377c0.32095,0.58006 0.79704,1.43467 1.31163,2.58839a14.50178,14.48025 0 0 1 1.26991,4.42366a23.19322,23.15878 0 0 1 -0.62907,6.05062a9.20069,9.18703 0 0 0 0.02889,3.44086a10.25235,10.23712 0 0 0 1.4368,3.43979c1.38224,2.22411 3.41495,4.21214 5.19946,6.6232a12.7162,12.69732 0 0 1 2.11937,4.1128a8.78345,8.77041 0 0 1 0.29528,2.40465a20.53251,20.50202 0 0 0 -0.07917,2.3694a7.56917,7.55793 0 0 0 2.22421,4.12989c0.54241,0.63027 1.10836,1.26695 1.61333,1.97094a10.00842,9.99356 0 0 1 1.21535,2.31919a20.586,20.55544 0 0 1 0.97463,5.04005a39.41103,39.35252 0 0 0 0.65154,4.85417a11.76083,11.74337 0 0 0 1.89791,4.23351a20.93477,20.90369 0 0 1 2.38255,3.94615a13.96472,13.94398 0 0 1 0.73499,4.33713a16.29912,16.27492 0 0 0 0.5499,3.99315c0.81308,2.46875 2.64252,4.26449 3.70488,6.27923a19.64667,19.61751 0 0 1 1.72245,5.84551a20.86202,20.83105 0 0 0 1.14688,4.39802a6.35061,6.34118 0 0 0 1.62403,2.3256c0.50069,0.41983 0.80453,0.59822 0.78848,0.62386a4.85069,4.84349 0 0 1 -0.85588,-0.54268a6.17516,6.16599 0 0 1 -1.74171,-2.32453a20.27788,20.24778 0 0 1 -1.24958,-4.42473a19.61672,19.58759 0 0 0 -1.75883,-5.72266c-1.0431,-1.94957 -2.90464,-3.72181 -3.79368,-6.32516c-0.87193,-2.60014 -0.27174,-5.56883 -1.32019,-8.28542a20.64163,20.61099 0 0 0 -2.35366,-3.84573a12.26045,12.24225 0 0 1 -1.9835,-4.39802c-0.76066,-3.19837 -0.47715,-6.64777 -1.61761,-9.82798a9.48527,9.47118 0 0 0 -1.15009,-2.19634c-0.4825,-0.67407 -1.03668,-1.299 -1.5823,-1.93569a8.02385,8.01194 0 0 1 -2.33976,-4.4258a20.22011,20.19009 0 0 1 0.08345,-2.43029a8.32555,8.31319 0 0 0 -0.27281,-2.2583a12.27008,12.25186 0 0 0 -2.02629,-3.95256c-1.73636,-2.37688 -3.77335,-4.39054 -5.17806,-6.68196a10.61823,10.60247 0 0 1 -1.46355,-3.59042a9.53341,9.51925 0 0 1 0,-3.57333a23.43714,23.40235 0 0 0 0.70396,-5.96943a14.6997,14.67788 0 0 0 -1.16506,-4.36918c-0.4825,-1.15692 -0.9297,-2.02969 -1.21856,-2.62044l-0.32951,-0.67728a0.89867,0.89734 0 0 1 -0.09201,-0.23929z" class="e"/>
   <path stroke="null" id="svg_196" d="m109.86239,388.31527l5.03363,10.22431l61.35146,0l6.92191,-10.22431l-73.307,0z" class="v"/>
   <path stroke="null" id="svg_197" d="m116.36706,395.01859l9.18357,31.65678l41.32499,0.03418l8.32448,-31.63649l-58.83304,-0.05448z" class="v"/>
   <path stroke="null" id="svg_198" d="m175.97573,398.46479c0,0.14421 -13.69404,0.26172 -30.57195,0.26172s-30.57409,-0.11751 -30.57409,-0.26172s13.68656,-0.26279 30.57409,-0.26279s30.57195,0.11751 30.57195,0.26279z" class="e"/>
  </g>
 </g>
</svg>