<svg width="579.216" height="505.448" xmlns="http://www.w3.org/2000/svg">
 <defs>
  <style>.a{opacity:0.4;}.b{fill:rgba(255,255,255,0.27);}.c{opacity:0.17;}.d{fill:#fff;}.e{fill:#263238;}.f{fill:#0f9b2c;}.g{fill:#ffe53c;}.h{fill:#dfdfdf;}.i{fill:#707070;}.j{fill:#ebebeb;}.k{fill:#10192b;}.l{fill:#e1751b;}.m{fill:#ffbe9d;}.n{fill:#eb996e;}.o{fill:#37d6b5;}.p,.q{opacity:0.3;}.r{fill:#fafafa;}.s{fill:#8cc408;}.t{fill:#f60;}.u{fill:#ff7600;}</style>
 </defs>
 <g>
  <title>Layer 1</title>
  <g id="svg_1" stroke="null">
   <g id="svg_2" stroke="null">
    <g class="a" id="svg_3" stroke="null">
     <path class="b" d="m461.31521,188.33741l116.3938,0l-18.96438,13.68227l0,26.91863a5.62027,5.62027 0 0 1 -5.62027,5.62027l-91.80914,0a5.6211,5.6211 0 0 1 -5.62027,-5.62027l0,-34.97649a5.6211,5.6211 0 0 1 5.62027,-5.62442l-0.00001,0.00001z" id="svg_4" stroke="null"/>
     <g id="svg_5" stroke="null">
      <path class="b" d="m466.17046,207.36064c0,0.11272 17.55455,0.20306 39.2035,0.20306s39.20765,-0.09034 39.20765,-0.20306s-17.55124,-0.20223 -39.20765,-0.20223s-39.2035,0.09034 -39.2035,0.20223z" id="svg_6" stroke="null"/>
     </g>
     <g id="svg_7" stroke="null">
      <path class="b" d="m466.17046,217.6961c0,0.11189 17.55455,0.20306 39.2035,0.20306s39.20765,-0.09117 39.20765,-0.20306s-17.55124,-0.20306 -39.20765,-0.20306s-39.2035,0.09034 -39.2035,0.20306z" id="svg_8" stroke="null"/>
     </g>
    </g>
    <g class="a" id="svg_9" stroke="null">
     <g id="svg_10" stroke="null">
      <rect class="b" width="5.44705" height="18.24496" y="89.01082" x="279.09682" id="svg_11" stroke="null"/>
     </g>
     <g id="svg_12" stroke="null">
      <rect class="b" width="5.44705" height="20.88892" y="86.36769" x="233.60086" id="svg_13" stroke="null"/>
     </g>
     <g id="svg_14" stroke="null">
      <rect class="b" width="5.44705" height="25.24275" y="82.01386" x="244.97485" id="svg_15" stroke="null"/>
     </g>
     <g id="svg_16" stroke="null">
      <rect class="b" width="5.44705" height="23.85778" y="83.398" x="256.34884" id="svg_17" stroke="null"/>
     </g>
     <g id="svg_18" stroke="null">
      <rect class="b" width="5.44705" height="31.92972" y="75.32689" x="267.72283" id="svg_19" stroke="null"/>
     </g>
     <g id="svg_20" stroke="null">
      <rect class="b" width="5.44705" height="31.7739" y="75.48271" x="290.46998" id="svg_21" stroke="null"/>
     </g>
     <g id="svg_22" stroke="null">
      <rect class="b" width="5.44705" height="21.33814" y="85.91847" x="301.84397" id="svg_23" stroke="null"/>
     </g>
     <g id="svg_24" stroke="null">
      <rect class="b" width="5.44705" height="30.37401" y="76.88177" x="313.21796" id="svg_25" stroke="null"/>
     </g>
     <g id="svg_26" stroke="null">
      <rect class="b" width="5.44705" height="37.21681" y="70.0398" x="324.59195" id="svg_27" stroke="null"/>
     </g>
     <g id="svg_28" stroke="null">
      <rect class="b" width="5.44705" height="30.52983" y="76.72678" x="335.96594" id="svg_29" stroke="null"/>
     </g>
    </g>
    <g class="a" id="svg_30" stroke="null">
     <path class="b" d="m484.93009,105.56414l45.04508,-6.87926a45.56724,45.56724 0 1 1 -40.04228,-38.40949l-5.0028,45.28875z" id="svg_31" stroke="null"/>
     <g id="svg_32" stroke="null">
      <path class="b" d="m499.54565,60.41629l-5.47026,34.91764l34.2753,-6.43667s-5.03927,-19.5686 -28.80504,-28.48097z" id="svg_33" stroke="null"/>
     </g>
    </g>
    <g class="c" id="svg_34" stroke="null">
     <g id="svg_35" stroke="null">
      <path class="d" d="m24.9893,190.26941a22.33522,22.33522 0 1 1 22.69079,22.07497a22.41645,22.41645 0 0 1 -22.69079,-22.07497zm33.00968,-0.53294a10.67943,10.67943 0 1 0 -10.50621,10.8999a10.71507,10.71507 0 0 0 10.50621,-10.89907l0,-0.00083z" id="svg_36" stroke="null"/>
     </g>
     <g id="svg_37" stroke="null">
      <path class="d" d="m24.9893,190.26858a22.41645,22.41645 0 0 1 21.97385,-22.79274l0.18731,11.70801a10.72833,10.72833 0 0 0 0.34313,21.45418l0.18731,11.70801a22.40733,22.40733 0 0 1 -22.69162,-22.07746l0.00002,0z" id="svg_38" stroke="null"/>
     </g>
     <g id="svg_39" stroke="null">
      <path class="d" d="m44.9574,165.67232a25.51958,25.51958 0 0 1 26.12959,25.42094l-13.63586,0.22047c-0.11023,-6.91987 -5.37577,-11.27702 -12.26664,-11.16512l-0.2271,-14.47629l0.00001,0z" id="svg_40" stroke="null"/>
     </g>
    </g>
    <g class="a" id="svg_41" stroke="null">
     <path class="b" d="m139.18091,61.0404l-125.29208,0l20.40986,14.72825l0,28.97661a6.05044,6.05044 0 0 0 6.05044,6.05044l98.83179,0a6.05044,6.05044 0 0 0 6.05044,-6.05044l0,-37.6536a6.05044,6.05044 0 0 0 -6.05044,-6.05126l-0.00001,0z" id="svg_42" stroke="null"/>
     <g id="svg_43" stroke="null">
      <path class="b" d="m133.95516,81.51822c0,0.12101 -18.89725,0.21881 -42.20137,0.21881s-42.20634,-0.09863 -42.20634,-0.21881s18.89228,-0.21798 42.20552,-0.21798s42.2022,0.09697 42.2022,0.21798l-0.00001,0z" id="svg_44" stroke="null"/>
     </g>
     <g id="svg_45" stroke="null">
      <path class="b" d="m133.95516,92.64357c0,0.12101 -18.89725,0.21881 -42.20137,0.21881s-42.20552,-0.0978 -42.20552,-0.21881s18.89228,-0.21881 42.20552,-0.21881s42.20137,0.0978 42.20137,0.21881z" id="svg_46" stroke="null"/>
     </g>
    </g>
   </g>
   <g id="svg_47" stroke="null">
    <path class="e" d="m573.72648,387.41745c0,0.11686 -128.10595,0.21218 -286.09607,0.21218c-158.04483,0 -286.12342,-0.09532 -286.12342,-0.21218s128.0786,-0.21301 286.12342,-0.21301c157.99012,0 286.09607,0.09532 286.09607,0.21301z" id="svg_48" stroke="null"/>
   </g>
   <g id="svg_49" stroke="null">
    <g id="svg_50" stroke="null">
     <path class="f" d="m55.24894,325.69886c-6.38197,-4.08612 -15.22389,-4.16403 -21.43346,0.17737c-5.89627,4.12093 -8.89,11.62098 -8.62892,18.81022s3.74464,15.97149 10.25673,19.74763l19.11606,-0.07542a25.68037,25.68037 0 0 0 10.51947,-19.29094c0.2876,-7.5705 -3.44958,-15.28274 -9.82989,-19.36885l0.00001,-0.00001z" id="svg_51" stroke="null"/>
     <g id="svg_52" stroke="null">
      <path class="e" d="m45.83679,365.12781a8.6198,8.6198 0 0 1 -0.12018,-1.64522c-0.03315,-1.17528 -0.07625,-2.68125 -0.12764,-4.48395c-0.09614,-3.78525 -0.24865,-9.01266 -0.4973,-14.78295s-0.56526,-10.99273 -0.80148,-14.77218c-0.10775,-1.80021 -0.19809,-3.30287 -0.26688,-4.47566a8.48801,8.48801 0 0 1 -0.02486,-1.64854a8.58001,8.58001 0 0 1 0.26025,1.62782c0.13013,1.05178 0.28843,2.57765 0.46166,4.46489c0.34562,3.77448 0.72522,8.99857 0.9805,14.77798s0.33153,11.01511 0.31993,14.80533c-0.0058,1.8947 -0.02901,3.42886 -0.06713,4.4881a8.49216,8.49216 0 0 1 -0.11686,1.64439l-0.00001,-0.00001z" id="svg_53" stroke="null"/>
     </g>
     <g id="svg_54" stroke="null">
      <path class="e" d="m27.11359,343.05782c-0.01409,0.16577 -1.05261,0.21964 -2.32071,0.11521s-2.28425,-0.32407 -2.27016,-0.49232s1.05178,-0.21964 2.32071,-0.11521s2.28342,0.32407 2.27016,0.49232z" id="svg_55" stroke="null"/>
     </g>
     <g id="svg_56" stroke="null">
      <path class="e" d="m27.46833,336.60872c-0.06796,0.15416 -0.96393,-0.09366 -2.00079,-0.55366s-1.82342,-0.95729 -1.7538,-1.11146s0.96393,0.09366 2.00162,0.55366s1.82176,0.95647 1.75297,1.11146z" id="svg_57" stroke="null"/>
     </g>
     <g id="svg_58" stroke="null">
      <path class="e" d="m30.78778,331.81976c-0.08288,0.14007 -1.09488,-0.33153 -2.14086,-1.20346s-1.70407,-1.76706 -1.58223,-1.87895s0.95481,0.57023 1.97095,1.40901s1.84414,1.52836 1.75214,1.6734z" id="svg_59" stroke="null"/>
     </g>
     <g id="svg_60" stroke="null">
      <path class="e" d="m34.12546,327.3068c-0.15416,0.06796 -0.63737,-0.68627 -1.07747,-1.685s-0.67384,-1.8632 -0.51967,-1.932s0.63654,0.68627 1.07747,1.685s0.67384,1.85989 0.51967,1.932z" id="svg_61" stroke="null"/>
     </g>
     <g id="svg_62" stroke="null">
      <path class="e" d="m39.36199,324.0984c-0.15002,0.07045 -0.66969,-0.73268 -1.01448,-1.8458s-0.37463,-2.07207 -0.21135,-2.0961s0.45917,0.84457 0.79402,1.91459s0.58764,1.9552 0.43182,2.02731l-0.00001,0z" id="svg_63" stroke="null"/>
     </g>
     <g id="svg_64" stroke="null">
      <path class="e" d="m48.10031,320.48639c0.15831,0.05553 0.06133,0.7418 -0.21715,1.53084s-0.63322,1.38414 -0.79236,1.32612s-0.06133,-0.7418 0.21715,-1.53084s0.63322,-1.38248 0.79236,-1.32612z" id="svg_65" stroke="null"/>
     </g>
     <g id="svg_66" stroke="null">
      <path class="e" d="m54.58008,323.26709c0.11521,0.1235 -0.30086,0.69456 -0.92829,1.27391s-1.22832,0.95066 -1.3427,0.82883s0.30086,-0.69373 0.92829,-1.27391s1.22832,-0.95315 1.3427,-0.82883z" id="svg_67" stroke="null"/>
     </g>
     <g id="svg_68" stroke="null">
      <path class="e" d="m60.28738,326.9504c0.09449,0.13924 -0.41441,0.64814 -1.13218,1.13549s-1.38083,0.76998 -1.47448,0.63074s0.41441,-0.64814 1.13218,-1.13549s1.38,-0.76998 1.47448,-0.63074z" id="svg_69" stroke="null"/>
     </g>
     <g id="svg_70" stroke="null">
      <path class="e" d="m64.33869,332.44551c0.06631,0.15416 -0.73268,0.644 -1.78446,1.09322s-1.95769,0.68627 -2.02399,0.53128s0.73268,-0.644 1.78446,-1.09322s1.95852,-0.68627 2.02399,-0.53128z" id="svg_71" stroke="null"/>
     </g>
     <g id="svg_72" stroke="null">
      <path class="e" d="m65.93335,338.43628c0.02072,0.16577 -0.79236,0.4053 -1.81596,0.53211s-1.86983,0.09366 -1.89055,-0.07294s0.79153,-0.40613 1.81513,-0.53294s1.87066,-0.09366 1.89138,0.07377z" id="svg_73" stroke="null"/>
     </g>
     <g id="svg_74" stroke="null">
      <path class="e" d="m66.76383,345.81202c-0.06713,0.15499 -0.93243,-0.07294 -1.93448,-0.50807s-1.75877,-0.91171 -1.69081,-1.06753s0.93243,0.07294 1.93448,0.50807s1.75877,0.91005 1.69081,1.06753z" id="svg_75" stroke="null"/>
     </g>
     <g id="svg_76" stroke="null">
      <path class="e" d="m66.03364,352.14175c-0.05304,0.15333 -1.14875,-0.10692 -2.29171,-0.85949s-1.82342,-1.64439 -1.70738,-1.75546s0.95564,0.5404 2.04057,1.24324s2.02151,1.20926 1.95852,1.37171z" id="svg_77" stroke="null"/>
     </g>
     <g id="svg_78" stroke="null">
      <path class="e" d="m62.73739,357.90377c-0.10029,0.13095 -0.97221,-0.38126 -1.8085,-1.28468s-1.28551,-1.8085 -1.14875,-1.89884s0.79153,0.62162 1.59549,1.4836s1.46868,1.56317 1.36176,1.69992z" id="svg_79" stroke="null"/>
     </g>
     <g id="svg_80" stroke="null">
      <path class="e" d="m31.44753,358.58009c0.07874,0.14919 -0.83712,0.77993 -2.04389,1.40901s-2.24861,1.01697 -2.32652,0.86778s0.83712,-0.77993 2.04472,-1.40901s2.24778,-1.01697 2.32569,-0.86778z" id="svg_81" stroke="null"/>
     </g>
     <g id="svg_82" stroke="null">
      <path class="e" d="m28.5889,353.36925c0.06962,0.15333 -0.66306,0.63654 -1.64025,1.07747s-1.82342,0.67549 -1.89138,0.52299s0.66306,-0.63654 1.63942,-1.07747s1.82259,-0.67632 1.89221,-0.52299z" id="svg_83" stroke="null"/>
     </g>
     <g id="svg_84" stroke="null">
      <path class="e" d="m26.48783,348.75351c0.02404,0.16577 -0.87939,0.43265 -2.01736,0.59427s-2.08036,0.15665 -2.10356,-0.00995s0.87856,-0.43265 2.01405,-0.59841s2.08284,-0.1525 2.10688,0.01409l-0.00001,0z" id="svg_85" stroke="null"/>
     </g>
     <g id="svg_86" stroke="null">
      <path class="e" d="m33.37869,346.20653c0.04973,0.15665 -0.82883,0.56858 -2.00659,0.69953s-2.12594,-0.06962 -2.11268,-0.23373s0.9316,-0.24368 2.04389,-0.37214s2.02648,-0.25942 2.07538,-0.09366z" id="svg_87" stroke="null"/>
     </g>
     <g id="svg_88" stroke="null">
      <path class="e" d="m39.10174,340.51165c0.04973,0.15748 -0.65146,0.51304 -1.59798,0.60339s-1.70324,-0.11604 -1.685,-0.28014s0.74594,-0.23787 1.62533,-0.32656s1.61124,-0.16079 1.65765,0.00332l0,-0.00001z" id="svg_89" stroke="null"/>
     </g>
     <g id="svg_90" stroke="null">
      <path class="e" d="m40.19745,335.94897c-0.0547,0.15913 -0.81474,0.04144 -1.69578,-0.26274s-1.55156,-0.6813 -1.49603,-0.84043s0.81474,-0.04144 1.69578,0.26274s1.55156,0.6813 1.49603,0.84043z" id="svg_91" stroke="null"/>
     </g>
     <g id="svg_92" stroke="null">
      <path class="e" d="m42.2977,331.33406c-0.11769,0.11686 -0.63985,-0.2271 -1.01117,-0.87441s-0.41027,-1.26893 -0.24865,-1.31286s0.44591,0.43513 0.77993,1.00785s0.60339,1.0609 0.47989,1.17942z" id="svg_93" stroke="null"/>
     </g>
     <g id="svg_94" stroke="null">
      <path class="e" d="m39.76646,350.22716c0.03978,0.16577 -0.61748,0.4658 -1.46868,0.67301a5.62773,5.62773 0 0 1 -1.23329,0.18234l-0.12101,-0.3564c0.22047,-0.03978 0.36303,-0.03067 0.39121,0.03398s-0.06133,0.17654 -0.23953,0.31081l-0.12101,-0.3564a5.62193,5.62193 0 0 1 1.17859,-0.40778c0.84955,-0.20721 1.57394,-0.24285 1.61373,-0.07957l-0.00001,0.00001z" id="svg_95" stroke="null"/>
     </g>
     <g id="svg_96" stroke="null">
      <path class="e" d="m40.94671,358.31735c0.06216,0.15748 -0.77661,0.63405 -1.87232,1.06421s-2.03394,0.65146 -2.0961,0.4973s0.77661,-0.63322 1.87315,-1.06338s2.03394,-0.65394 2.09527,-0.49812l0,-0.00001z" id="svg_97" stroke="null"/>
     </g>
     <g id="svg_98" stroke="null">
      <path class="e" d="m34.47854,354.72439c0.05387,0.15913 -0.50476,0.4973 -1.24904,0.74594s-1.39077,0.33153 -1.44547,0.16577s0.50476,-0.4973 1.24904,-0.74594s1.39077,-0.32573 1.44547,-0.16577z" id="svg_99" stroke="null"/>
     </g>
     <g id="svg_100" stroke="null">
      <path class="e" d="m34.97335,338.25558c-0.03813,0.16577 -1.012,0.06548 -2.13672,-0.33153s-1.94277,-0.93492 -1.87066,-1.08493s0.98133,0.12432 2.07207,0.50973s1.97592,0.74097 1.93531,0.90674l0,-0.00001z" id="svg_101" stroke="null"/>
     </g>
     <g id="svg_102" stroke="null">
      <path class="e" d="m50.62409,336.46534c0.092,0.14007 -0.45585,0.66306 -1.22418,1.17279s-1.46702,0.80396 -1.55985,0.66306s0.45503,-0.66306 1.22418,-1.17279s1.46537,-0.80396 1.55985,-0.66306z" id="svg_103" stroke="null"/>
     </g>
     <g id="svg_104" stroke="null">
      <path class="e" d="m51.47447,344.59114c0.03398,0.16577 -0.54122,0.42353 -1.28634,0.58018s-1.37668,0.14587 -1.40901,-0.01906s0.54205,-0.42436 1.28717,-0.58018s1.37419,-0.14587 1.40818,0.01906z" id="svg_105" stroke="null"/>
     </g>
     <g id="svg_106" stroke="null">
      <path class="e" d="m52.46408,353.72482c-0.07128,0.15333 -0.90011,-0.08288 -1.85243,-0.52133s-1.66594,-0.92248 -1.59632,-1.07747s0.90011,0.08288 1.85243,0.52216s1.6676,0.92414 1.59632,1.07665l0,-0.00001z" id="svg_107" stroke="null"/>
     </g>
     <g id="svg_108" stroke="null">
      <path class="e" d="m50.37047,362.61978c-0.13095,0.10692 -0.66886,-0.33153 -1.20346,-0.98382s-0.86198,-1.26479 -0.73103,-1.37171s0.66803,0.33153 1.20263,0.98382s0.86198,1.26479 0.73185,1.37171l0.00001,0z" id="svg_109" stroke="null"/>
     </g>
     <g id="svg_110" stroke="null">
      <path class="e" d="m49.94279,330.48369c0.10277,0.13013 -0.24865,0.58018 -0.86281,0.8827s-1.18108,0.32407 -1.22418,0.16577s0.40115,-0.43099 0.95066,-0.70948s1.03189,-0.47409 1.13632,-0.33899l0.00001,0z" id="svg_111" stroke="null"/>
     </g>
     <g id="svg_112" stroke="null">
      <path class="e" d="m57.61193,338.67913c0.05553,0.15499 -0.65394,0.54537 -1.6245,0.67881s-1.7596,-0.04559 -1.748,-0.20969s0.76003,-0.26605 1.66428,-0.39452s1.65268,-0.23787 1.70821,-0.07459l0.00001,-0.00001z" id="svg_113" stroke="null"/>
     </g>
     <g id="svg_114" stroke="null">
      <path class="e" d="m56.0844,331.32246c0.07459,0.1467 -0.62991,0.6498 -1.63196,0.9689s-1.86652,0.32076 -1.89138,0.15748s0.75423,-0.43265 1.70573,-0.73931s1.74136,-0.54122 1.81762,-0.38706l-0.00001,-0.00001z" id="svg_115" stroke="null"/>
     </g>
     <g id="svg_116" stroke="null">
      <path class="e" d="m59.28533,350.07053c0,0.16577 -1.20677,0.27103 -2.65971,0.00497s-2.54533,-0.78407 -2.48648,-0.93823s1.19517,0.08288 2.59837,0.33816s2.55362,0.4227 2.54781,0.5951l0.00001,0z" id="svg_117" stroke="null"/>
     </g>
     <g id="svg_118" stroke="null">
      <path class="e" d="m56.43582,360.7566c-0.10029,0.13095 -0.98796,-0.39121 -1.87315,-1.28219s-1.40901,-1.77866 -1.27391,-1.87978s0.84789,0.5893 1.70655,1.44879s1.54659,1.58223 1.4405,1.71318l0.00001,0z" id="svg_119" stroke="null"/>
     </g>
     <g id="svg_120" stroke="null">
      <path class="e" d="m43.90479,322.62641a27.67452,27.67452 0 0 0 -5.34925,4.22702a26.10804,26.10804 0 0 0 -6.66377,14.72908a33.07019,33.07019 0 0 0 0.39949,9.03007a68.79262,68.79262 0 0 0 1.68998,7.24312c0.58598,2.03891 1.12306,3.67253 1.48443,4.8072a11.22646,11.22646 0 0 1 0.51387,1.77783a10.24596,10.24596 0 0 1 -0.73766,-1.69827c-0.43016,-1.1098 -1.03189,-2.72601 -1.6734,-4.75995a61.21134,61.21134 0 0 1 -1.83171,-7.27047a32.40049,32.40049 0 0 1 -0.4542,-9.19252a25.6812,25.6812 0 0 1 6.96214,-14.95784a19.12932,19.12932 0 0 1 3.9908,-3.11888a11.91024,11.91024 0 0 1 1.22086,-0.63488a1.4405,1.4405 0 0 1 0.4484,-0.18151l0.00002,0z" id="svg_121" stroke="null"/>
     </g>
     <g id="svg_122" stroke="null">
      <path class="e" d="m52.22621,364.82611a67.08524,67.08524 0 0 0 2.74259,-6.55436a37.08917,37.08917 0 0 0 1.63942,-16.85171a31.70594,31.70594 0 0 0 -2.59837,-8.98697a21.1931,21.1931 0 0 0 -4.43091,-6.17144a16.1414,16.1414 0 0 0 -4.34139,-2.74425c-1.12886,-0.47077 -1.80518,-0.58018 -1.79524,-0.63239a1.49189,1.49189 0 0 1 0.4973,0.03813a9.21158,9.21158 0 0 1 1.38248,0.37214a15.0258,15.0258 0 0 1 4.54114,2.64064a20.88643,20.88643 0 0 1 4.65386,6.2535a31.21776,31.21776 0 0 1 2.69534,9.14445a35.83101,35.83101 0 0 1 -1.83585,17.07797c-0.34479,1.05344 -0.78821,1.95686 -1.11892,2.77077c-0.39286,0.78739 -0.71694,1.47117 -1.01531,2.01239a11.55384,11.55384 0 0 1 -1.01614,1.63113z" id="svg_123" stroke="null"/>
     </g>
     <g id="svg_124" stroke="null">
      <path class="g" d="m28.5889,363.38232l33.63876,0l0.20638,6.73256l-33.84514,0l0,-6.73256z" id="svg_125" stroke="null"/>
     </g>
     <g id="svg_126" stroke="null">
      <path class="g" d="m31.4467,366.74901l1.932,20.5549l24.59212,0l1.97509,-20.3278l-28.49921,-0.2271z" id="svg_127" stroke="null"/>
     </g>
     <g id="svg_128" stroke="null">
      <path class="e" d="m62.43404,370.19692c0,0.16577 -7.57465,0.30501 -16.91718,0.30501s-16.91884,-0.13676 -16.91884,-0.30501s7.57382,-0.30584 16.91884,-0.30584s16.91718,0.13676 16.91718,0.30584z" id="svg_129" stroke="null"/>
     </g>
     <g id="svg_130" stroke="null">
      <path class="e" d="m59.01596,376.45787a5.0948,5.0948 0 0 1 -0.72025,1.28385a18.63037,18.63037 0 0 1 -2.60915,3.08075l-0.15499,0.14753l-0.1525,-0.15996a48.39436,48.39436 0 0 0 -6.59166,-5.77112l0.37131,-0.01658l-2.92244,2.56522l-3.45538,3.00864l-0.19146,0.16577l-0.19229,-0.16079l-5.61613,-4.72431l0.32656,-0.03564c-1.16036,1.41646 -2.13423,2.605 -2.90587,3.54572a8.24434,8.24434 0 0 1 -1.14129,1.24904a8.27915,8.27915 0 0 1 0.93906,-1.40901l2.74507,-3.67087l0.1409,-0.18814l0.18731,0.15168l5.70067,4.62071l-0.38209,0.0058l3.44212,-3.02273l2.93156,-2.55527l0.18068,-0.15665l0.19229,0.14007a43.0244,43.0244 0 0 1 6.56099,5.95761l-0.30832,-0.01243a34.39631,34.39631 0 0 0 3.62529,-4.03887l0.00001,-0.00002z" id="svg_131" stroke="null"/>
     </g>
    </g>
   </g>
   <g id="svg_132" stroke="null">
    <g id="svg_133" stroke="null">
     <rect class="h" width="379.87284" height="251.20578" rx="14.567" y="130.45464" x="95.22326" id="svg_134" stroke="null"/>
    </g>
    <g id="svg_135" stroke="null">
     <path class="h" d="m82.78754,365.43696l411.56303,0a0,0 0 0 1 0,0l0,7.22903a14.75312,14.75312 0 0 1 -14.75312,14.75312l-382.0568,0a14.75312,14.75312 0 0 1 -14.75312,-14.75312l0,-7.22903a0,0 0 0 1 0,0l0.00001,0z" id="svg_136" stroke="null"/>
    </g>
    <g id="svg_137" stroke="null">
     <path class="i" d="m247.71245,363.08145l5.10723,8.1225l71.86425,0l4.74255,-8.1225l-81.71403,0z" id="svg_138" stroke="null"/>
    </g>
    <g id="svg_139" stroke="null">
     <path class="e" d="m471.83218,363.08142c0,0.13676 -84.31323,0.24865 -188.29534,0.24865c-104.01776,0 -188.30943,-0.11023 -188.30943,-0.24865s84.29168,-0.24865 188.30943,-0.24865c103.98212,0.00249 188.29534,0.11272 188.29534,0.24865z" id="svg_140" stroke="null"/>
    </g>
    <g id="svg_141" stroke="null">
     <g id="svg_142" stroke="null">
      <path class="j" d="m108.81519,144.89943l351.20373,0a2.71275,2.71275 0 0 1 2.71275,2.71275l0,206.11429a2.71275,2.71275 0 0 1 -2.71275,2.71275l-351.20456,0a2.71192,2.71192 0 0 1 -2.71192,-2.71192l0,-206.11512a2.71275,2.71275 0 0 1 2.71275,-2.71275z" id="svg_143" stroke="null"/>
     </g>
     <g id="svg_144" stroke="null">
      <path class="d" d="m462.35206,356.74837l-356.63171,0l0.38209,-196.04073l356.24962,0l0,196.04073z" id="svg_145" stroke="null"/>
     </g>
     <g id="svg_146" stroke="null">
      <path class="e" d="m135.3509,153.06504a2.84785,2.84785 0 1 1 -2.84868,-2.84785a2.84785,2.84785 0 0 1 2.84868,2.84785z" id="svg_147" stroke="null"/>
     </g>
     <g id="svg_148" stroke="null">
      <path class="e" d="m118.08893,153.06504a2.84868,2.84868 0 1 1 -2.84868,-2.84785a2.84785,2.84785 0 0 1 2.84868,2.84785z" id="svg_149" stroke="null"/>
     </g>
     <g id="svg_150" stroke="null">
      <path class="e" d="m126.37471,153.06504a2.84868,2.84868 0 1 1 -2.84868,-2.84785a2.84785,2.84785 0 0 1 2.84868,2.84785z" id="svg_151" stroke="null"/>
     </g>
    </g>
    <rect class="k" width="357.01132" height="18.9304" y="337.8188" x="105.72035" id="svg_152" stroke="null"/>
    <g id="svg_153" stroke="null">
     <g id="svg_154" stroke="null">
      <path class="d" d="m119.20785,349.47541l0,0.60587l-2.84288,0l0,-0.47658l1.53167,-1.45459c0.37463,-0.35805 0.44094,-0.58018 0.44094,-0.79816c0,-0.35308 -0.24285,-0.55697 -0.71694,-0.55697a1.08908,1.08908 0 0 0 -0.90342,0.40198l-0.4973,-0.3854a1.78281,1.78281 0 0 1 1.46537,-0.63985c0.83712,0 1.37751,0.42353 1.37751,1.10731a1.54328,1.54328 0 0 1 -0.63903,1.21755l-1.03023,0.98133l1.8143,-0.00249l0.00001,0z" id="svg_155" stroke="null"/>
      <path class="d" d="m119.59407,347.5633a0.45171,0.45171 0 1 1 0.90342,0a0.45171,0.45171 0 1 1 -0.90342,0zm0,2.09942a0.45171,0.45171 0 1 1 0.90342,0a0.45171,0.45171 0 1 1 -0.90342,0z" id="svg_156" stroke="null"/>
      <path class="d" d="m122.29274,346.22477l0,3.85736l-0.71528,0l0,-3.25646l-0.81557,0l0,-0.60007l1.53084,-0.00083l0.00001,0z" id="svg_157" stroke="null"/>
      <path class="d" d="m126.49572,349.20606l-0.68378,0l0,0.87524l-0.69456,0l0,-0.87524l-2.11599,0l0,-0.4973l1.89967,-2.48648l0.76584,0l-1.79027,2.37542l1.2623,0l0,-0.77744l0.67218,0l0,0.77744l0.68378,0l0.00083,0.60836z" id="svg_158" stroke="null"/>
     </g>
     <g id="svg_159" stroke="null">
      <rect class="d" width="292.6206" height="1.33441" y="347.6636" x="132.79646" id="svg_160" stroke="null"/>
     </g>
     <g id="svg_161" stroke="null">
      <rect class="l" width="91.44445" height="3.55732" y="346.22641" x="132.57765" id="svg_162" stroke="null"/>
     </g>
     <g id="svg_163" stroke="null">
      <path class="l" d="m226.97356,348.3308a4.45246,4.45246 0 1 1 -4.45163,-4.45163a4.45163,4.45163 0 0 1 4.45163,4.45163z" id="svg_164" stroke="null"/>
     </g>
     <g id="svg_165" stroke="null">
      <path class="d" d="m432.78613,348.28688a1.28551,1.28551 0 0 1 -1.40901,1.25153c-1.05095,0 -1.66926,-0.67715 -1.66926,-1.91791a1.82342,1.82342 0 0 1 1.89055,-2.04969a1.93448,1.93448 0 0 1 1.01366,0.24865l-0.26357,0.53957a1.30872,1.30872 0 0 0 -0.73268,-0.18731c-0.72771,0 -1.18522,0.45254 -1.18522,1.32612l0,0.0058a1.31701,1.31701 0 0 1 1.03023,-0.40198a1.20429,1.20429 0 0 1 1.32529,1.18522l0.00001,0zm-0.69456,0.03232c0,-0.40198 -0.30335,-0.65394 -0.77081,-0.65394a0.70119,0.70119 0 0 0 -0.78241,0.66306c0,0.36303 0.28677,0.64897 0.79899,0.64897a0.66886,0.66886 0 0 0 0.75506,-0.65726l-0.00083,-0.00083z" id="svg_166" stroke="null"/>
      <path class="d" d="m433.13509,346.96573a0.45171,0.45171 0 1 1 0.90259,0a0.45171,0.45171 0 1 1 -0.90259,0zm0,2.09942a0.45171,0.45171 0 1 1 0.90259,0a0.45171,0.45171 0 1 1 -0.90259,0z" id="svg_167" stroke="null"/>
      <path class="d" d="m434.49935,347.55586c0,-1.2681 0.69456,-1.98421 1.60792,-1.98421s1.61455,0.71611 1.61455,1.98421s-0.69456,1.98338 -1.61455,1.98338s-1.60792,-0.71776 -1.60792,-1.98338zm2.5014,0c0,-0.9316 -0.36303,-1.36093 -0.89265,-1.36093s-0.88602,0.42933 -0.88602,1.36093s0.36385,1.3601 0.88602,1.3601s0.89265,-0.42933 0.89265,-1.3601z" id="svg_168" stroke="null"/>
      <path class="d" d="m438.20252,347.55586c0,-1.2681 0.69456,-1.98421 1.60875,-1.98421s1.61373,0.71611 1.61373,1.98421s-0.69373,1.98338 -1.61373,1.98338s-1.60875,-0.71776 -1.60875,-1.98338zm2.50223,0c0,-0.9316 -0.36385,-1.36093 -0.89265,-1.36093s-0.88684,0.42933 -0.88684,1.36093s0.36385,1.3601 0.88684,1.3601s0.89265,-0.42933 0.89265,-1.3601z" id="svg_169" stroke="null"/>
     </g>
     <g id="svg_170" stroke="null">
      <path class="d" d="m447.65782,347.3155l-1.33027,0l0,-3.84576l3.8383,0l0,1.33441l-2.50389,0l-0.00414,2.51135z" id="svg_171" stroke="null"/>
     </g>
     <g id="svg_172" stroke="null">
      <path class="d" d="m450.16502,352.33571l-3.84576,0l0,-3.8383l1.33441,0l0,2.50389l2.51217,0l-0.00083,1.33441l0.00001,0z" id="svg_173" stroke="null"/>
     </g>
     <g id="svg_174" stroke="null">
      <path class="d" d="m456.29087,352.33486l-3.83747,0l0,-1.33441l2.50471,0l0,-2.513l1.33441,0l-0.00166,3.84741l0.00001,0z" id="svg_175" stroke="null"/>
     </g>
     <g id="svg_176" stroke="null">
      <path class="d" d="m456.29497,347.30721l-1.33441,0l0,-2.50389l-2.51217,0l0,-1.33441l3.84576,0l0.00083,3.8383l-0.00001,0z" id="svg_177" stroke="null"/>
     </g>
    </g>
    <g id="svg_178" stroke="null">
     <path class="j" d="m154.62527,172.36509l-21.0207,0l-10.51035,18.20435l10.51035,18.20435l21.0207,0l10.51035,-18.20435l-10.51035,-18.20435z" id="svg_179" stroke="null"/>
     <g id="svg_180" stroke="null">
      <path class="e" d="m135.32107,194.13257a18.76464,18.76464 0 0 1 -2.56936,-3.31531a6.3082,6.3082 0 0 1 -0.86695,-4.03224c0.13344,-0.80893 0.47658,-1.57891 0.53128,-2.39697c0.07542,-1.12472 -0.39784,-2.29999 0,-3.35509c0.62328,-1.64854 2.84205,-1.9063 4.18723,-3.04179c1.04681,-0.88602 1.55737,-2.32652 2.70943,-3.07246a5.09148,5.09148 0 0 1 3.48687,-0.46912a13.17835,13.17835 0 0 0 3.57059,0.30832a23.52873,23.52873 0 0 0 2.47405,-0.66306a3.37913,3.37913 0 0 1 2.49477,0.16577a1.62284,1.62284 0 0 1 0.66969,2.1823c1.37751,-0.63488 3.12633,0.43845 3.50262,1.9063a4.12507,4.12507 0 0 1 -1.5441,4.02478a9.04416,9.04416 0 0 1 -4.16651,1.69992c-4.21873,0.79484 -8.79468,0.34645 -12.4324,-1.93697" id="svg_181" stroke="null"/>
      <g id="svg_182" stroke="null">
       <g id="svg_183" stroke="null">
        <path class="m" d="m154.80927,198.62564c-0.14173,-2.60583 -0.8711,-7.94679 -1.5872,-12.77388a10.07107,10.07107 0 0 0 -10.63385,-8.57255l-0.51967,0.03481c-5.58795,0.70285 -8.11256,5.84157 -7.25555,11.40797l1.64025,20.05181l13.63752,0s-0.32241,-3.51837 -0.32407,-3.55235c0,0.00083 5.33682,-1.19848 5.04258,-6.5958l-0.00001,-0.00001z" id="svg_184" stroke="null"/>
        <g id="svg_185" stroke="null">
         <path class="n" d="m149.77,205.14353a12.56916,12.56916 0 0 1 -7.16272,-1.52753s1.92122,3.76868 7.26881,2.92327l-0.10609,-1.39574z" id="svg_186" stroke="null"/>
        </g>
        <g id="svg_187" stroke="null">
         <g id="svg_188" stroke="null">
          <g id="svg_189" stroke="null">
           <g id="svg_190" stroke="null">
            <path class="e" d="m151.48567,190.47744a0.77164,0.77164 0 0 1 -0.69041,0.82883a0.73766,0.73766 0 0 1 -0.84043,-0.64151a0.77247,0.77247 0 0 1 0.69041,-0.82883a0.73848,0.73848 0 0 1 0.84043,0.64151z" id="svg_191" stroke="null"/>
           </g>
           <path class="e" d="m152.23908,188.567c-0.08868,0.10692 -0.70119,-0.28595 -1.53001,-0.22793s-1.40901,0.51221 -1.50349,0.41441c-0.04724,-0.04227 0.0373,-0.23041 0.28926,-0.44011a2.11351,2.11351 0 0 1 1.19683,-0.45834a2.02814,2.02814 0 0 1 1.22501,0.30749c0.26771,0.17737 0.36634,0.35308 0.32241,0.40447l-0.00001,0.00001z" id="svg_192" stroke="null"/>
          </g>
          <g id="svg_193" stroke="null">
           <g id="svg_194" stroke="null">
            <path class="e" d="m143.6599,191.03773a0.77081,0.77081 0 0 1 -0.69124,0.82883a0.73766,0.73766 0 0 1 -0.8396,-0.64151a0.77164,0.77164 0 0 1 0.68958,-0.82883a0.73848,0.73848 0 0 1 0.84126,0.64151z" id="svg_195" stroke="null"/>
           </g>
           <path class="e" d="m144.10414,189.26321c-0.08786,0.10692 -0.70202,-0.28512 -1.52919,-0.22793s-1.40901,0.51304 -1.50432,0.41441c-0.04724,-0.04227 0.03647,-0.22959 0.29009,-0.44011a2.11434,2.11434 0 0 1 1.196,-0.45834a2.03228,2.03228 0 0 1 1.22583,0.30749c0.26688,0.18068 0.36551,0.36137 0.32158,0.40447l0.00001,0.00001z" id="svg_196" stroke="null"/>
          </g>
          <g id="svg_197" stroke="null">
           <path class="e" d="m147.52306,195.20756a5.53905,5.53905 0 0 1 1.32612,-0.33153c0.20969,-0.03564 0.40778,-0.09117 0.43348,-0.2387a1.08245,1.08245 0 0 0 -0.184,-0.61748q-0.34894,-0.74594 -0.73351,-1.56897a27.74829,27.74829 0 0 1 -1.68666,-4.12093a27.86101,27.86101 0 0 1 2.01405,3.97837q0.37131,0.82883 0.70782,1.58057a1.22169,1.22169 0 0 1 0.16577,0.8222a0.52713,0.52713 0 0 1 -0.32656,0.33153a1.42392,1.42392 0 0 1 -0.3564,0.07459a5.42964,5.42964 0 0 1 -1.3601,0.09034l-0.00001,0.00001z" id="svg_198" stroke="null"/>
          </g>
         </g>
         <g id="svg_199" stroke="null">
          <path class="e" d="m144.10166,186.00178c-0.06713,0.23041 -0.90176,0.17903 -1.86569,0.36137c-0.96807,0.16577 -1.73308,0.4973 -1.87563,0.30667c-0.06382,-0.092 0.05885,-0.3133 0.36137,-0.55283a3.30287,3.30287 0 0 1 2.85034,-0.5089c0.36551,0.11935 0.5578,0.28429 0.52962,0.39369l-0.00001,0z" id="svg_200" stroke="null"/>
         </g>
         <g id="svg_201" stroke="null">
          <path class="e" d="m151.77411,186.18578c-0.13344,0.19809 -0.71694,0.04061 -1.40403,0.07791c-0.68876,0.01326 -1.25982,0.21135 -1.40901,0.02404c-0.06465,-0.09117 0.01409,-0.28677 0.25611,-0.48155a2.03891,2.03891 0 0 1 2.26435,-0.08288c0.25362,0.1782 0.35059,0.36717 0.29258,0.46249l0,-0.00001z" id="svg_202" stroke="null"/>
         </g>
        </g>
       </g>
       <g id="svg_203" stroke="null">
        <path class="m" d="m135.52082,192.68461c-0.09366,-0.03315 -3.77779,-0.84789 -3.41394,2.83044s4.35051,2.47985 4.34637,2.37376s-0.93243,-5.2042 -0.93243,-5.2042z" id="svg_204" stroke="null"/>
        <g id="svg_205" stroke="null">
         <path class="n" d="m134.8246,196.6837c-0.01823,-0.00995 -0.0605,0.05139 -0.16577,0.11189a0.64151,0.64151 0 0 1 -0.47823,0.05719a1.59383,1.59383 0 0 1 -0.87524,-1.35016a2.11931,2.11931 0 0 1 0.08868,-0.93492a0.74097,0.74097 0 0 1 0.43265,-0.53874a0.33153,0.33153 0 0 1 0.39535,0.13841c0.05968,0.0978 0.0431,0.17405 0.06382,0.1782s0.07294,-0.06962 0.02818,-0.21798a0.4053,0.4053 0 0 0 -0.16577,-0.21632a0.48818,0.48818 0 0 0 -0.36385,-0.05885a0.90425,0.90425 0 0 0 -0.6125,0.63737a2.18479,2.18479 0 0 0 -0.12101,1.04681a1.6734,1.6734 0 0 0 1.09239,1.49189a0.69041,0.69041 0 0 0 0.58018,-0.15499c0.10277,-0.10692 0.11438,-0.1898 0.10112,-0.1898z" id="svg_206" stroke="null"/>
        </g>
       </g>
       <g id="svg_207" stroke="null">
        <path class="e" d="m152.94938,180.81415c-0.25362,1.46454 -3.22248,2.80558 -5.68492,2.73513c-2.27016,-0.06631 -3.39073,-1.19268 -5.0401,-1.98918c-1.04432,-0.50641 -1.04432,-0.50641 -2.46079,-0.276c-1.14544,0.18649 -1.74054,1.5383 -2.38288,2.50389c1.22501,2.67048 0.7302,5.77609 0.21052,8.66787a1.46537,1.46537 0 0 1 -0.37214,0.87856a1.17362,1.17362 0 0 1 -1.49189,-0.22627a4.55855,4.55855 0 0 1 -1.16036,-2.33729a15.19654,15.19654 0 0 1 -0.36468,-5.98164a10.34376,10.34376 0 0 1 2.48648,-5.39981a9.79922,9.79922 0 0 1 6.68697,-3.05174a12.03871,12.03871 0 0 1 7.13288,2.02482a7.05414,7.05414 0 0 1 2.43841,2.45581" id="svg_208" stroke="null"/>
       </g>
      </g>
      <path class="n" d="m148.06262,197.06993l-1.87563,-0.87441a0.62328,0.62328 0 0 0 -0.34065,-0.08288a0.53957,0.53957 0 0 0 -0.32407,0.21964a1.74054,1.74054 0 0 0 -0.20804,1.91625a1.46537,1.46537 0 0 0 1.7596,0.64731a1.99913,1.99913 0 0 0 1.04018,-1.76457l-0.05139,-0.06133l0,-0.00001z" id="svg_209" stroke="null"/>
      <g id="svg_210" stroke="null">
       <path class="e" d="m147.13599,199.02596c0.02901,0.03647 -0.39121,0.30169 -1.09902,0.09863a1.72396,1.72396 0 0 1 -0.97304,-0.78987a1.78861,1.78861 0 0 1 -0.1235,-1.53747a1.85906,1.85906 0 0 1 0.4542,-0.6813a1.74634,1.74634 0 0 1 0.31827,-0.23953a0.54288,0.54288 0 0 1 0.4973,-0.02901c0.4285,0.2387 0.71694,0.44176 1.00537,0.62659c0.54868,0.36468 0.87441,0.61499 0.84457,0.66306s-0.40861,-0.10775 -0.99459,-0.40613l-1.00039,-0.52299c-0.07791,-0.02155 -0.07045,-0.02155 -0.14422,0.01823a1.39657,1.39657 0 0 0 -0.23207,0.18649a1.53499,1.53499 0 0 0 -0.34562,0.53376a1.45791,1.45791 0 0 0 0.06962,1.19765a1.51675,1.51675 0 0 0 0.73351,0.69621a3.98583,3.98583 0 0 0 0.98962,0.18566l-0.00001,0.00002z" id="svg_211" stroke="null"/>
      </g>
      <g id="svg_212" stroke="null">
       <path class="e" d="m146.54421,190.56944c-0.04144,0 -0.03647,-0.34231 -0.19975,-0.91834a3.83664,3.83664 0 0 0 -1.40901,-2.01571a3.65844,3.65844 0 1 0 0,5.86726a3.83664,3.83664 0 0 0 1.40901,-2.01571c0.16577,-0.57603 0.15831,-0.92 0.19975,-0.91751c0.01492,0 0.02486,0.08288 0.02984,0.24865a2.84702,2.84702 0 0 1 -0.07045,0.70948a3.82255,3.82255 0 0 1 -1.3858,2.21545a3.97837,3.97837 0 0 1 -3.79105,0.61913a4.02395,4.02395 0 0 1 0,-7.58459a3.97837,3.97837 0 0 1 3.79105,0.61913a3.82338,3.82338 0 0 1 1.3858,2.21463a2.85531,2.85531 0 0 1 0.07045,0.7103c-0.00497,0.16245 -0.01492,0.24782 -0.02984,0.24782l0,0.00001z" id="svg_213" stroke="null"/>
      </g>
      <g id="svg_214" stroke="null">
       <path class="e" d="m155.71849,190.20807c-0.04061,0 -0.03647,-0.33153 -0.19726,-0.89348a3.72972,3.72972 0 0 0 -1.37254,-1.96183a3.56395,3.56395 0 1 0 0,5.71145a3.72972,3.72972 0 0 0 1.37254,-1.96183c0.15996,-0.56029 0.15582,-0.89513 0.19726,-0.89348c0.01492,0 0.02569,0.08288 0.03067,0.24119a2.7716,2.7716 0 0 1 -0.06796,0.69373a3.7206,3.7206 0 0 1 -1.35016,2.16075a3.87974,3.87974 0 0 1 -3.69822,0.60504a3.92532,3.92532 0 0 1 0,-7.39977a3.88057,3.88057 0 0 1 3.69822,0.60421a3.72226,3.72226 0 0 1 1.35016,2.16158a2.76579,2.76579 0 0 1 0.06796,0.6929c-0.0058,0.15831 -0.01658,0.23953 -0.03067,0.23953l0,0.00001z" id="svg_215" stroke="null"/>
      </g>
      <g id="svg_216" stroke="null">
       <path class="e" d="m148.2317,189.36184c-0.08288,0.07791 -0.44757,-0.15665 -0.93823,-0.14173c-0.49149,0 -0.84457,0.24865 -0.9316,0.17571c-0.11272,-0.05968 0.23041,-0.59012 0.92497,-0.6009s1.05427,0.50393 0.94486,0.56692z" id="svg_217" stroke="null"/>
      </g>
      <g id="svg_218" stroke="null">
       <path class="e" d="m139.09306,190.02655c0.07045,0.09449 -0.644,0.74594 -1.59383,1.45459a5.58049,5.58049 0 0 1 -1.84745,1.11394c-0.07045,-0.09366 0.64317,-0.74594 1.59383,-1.45459a5.6153,5.6153 0 0 1 1.84745,-1.11394z" id="svg_219" stroke="null"/>
      </g>
     </g>
     <g id="svg_220" stroke="null">
      <path class="e" d="m214.90749,190.38379c0,0.11686 -9.44862,0.21218 -21.10359,0.21218s-21.10524,-0.09532 -21.10524,-0.21218s9.44862,-0.21301 21.10524,-0.21301s21.10359,0.09532 21.10359,0.21301z" id="svg_221" stroke="null"/>
     </g>
     <g id="svg_222" stroke="null">
      <path class="e" d="m195.38862,194.8006c0,0.11769 -5.01772,0.21301 -11.20574,0.21301s-11.20657,-0.09532 -11.20657,-0.21301s5.01606,-0.21218 11.20657,-0.21218s11.20574,0.09532 11.20574,0.21218z" id="svg_223" stroke="null"/>
     </g>
    </g>
   </g>
   <g id="svg_224" stroke="null">
    <path class="o" d="m341.36076,223.02133a32.18086,32.18086 0 0 1 15.15758,19.57937c3.93941,14.11409 16.00547,50.8709 16.00547,50.8709s6.89501,8.1109 7.63349,14.11823s-0.73848,20.53501 -2.9556,23.24362a6.24024,6.24024 0 0 1 -5.3766,2.25938l-29.02054,-2.7517l-11.42786,-76.51728l9.98405,-30.80252l0.00001,0z" id="svg_225" stroke="null"/>
    <path class="o" d="m245.39256,221.68442s-20.74968,6.50795 -25.92156,12.17132l16.99095,79.04355l-0.27103,24.9394l98.37676,0c0,-1.23164 0.8827,-82.80642 0.8827,-82.80642l5.90953,-32.01095l-34.96654,-6.15653l-6.89501,-5.41721l-38.90513,1.96929l-5.90953,5.90953l-9.29115,2.35801l0.00001,0.00001z" id="svg_226" stroke="null"/>
    <g class="p" id="svg_227" stroke="null">
     <path d="m253.2747,290.25907c-0.30335,-0.67052 -0.736,-1.39492 -1.45708,-1.5441c-1.18522,-0.24865 -1.97758,1.15621 -2.38039,2.29668a103.88183,103.88183 0 0 1 -12.9239,25.23363l-0.24865,12.13568c5.73548,-4.82626 11.39057,-9.99565 15.04569,-16.53924s5.05087,-14.75229 1.96432,-21.58265l0.00001,0z" id="svg_228" stroke="null"/>
    </g>
    <path class="o" d="m219.47101,233.85575s-6.83699,9.3185 -9.67904,15.40457s-26.36415,57.18904 -27.78393,62.46287s-5.06993,21.90258 5.67829,25.75579l22.10564,0l22.18769,-44.86522l1.13466,-52.07353l-13.64332,-6.68449l0.00001,0.00001z" id="svg_229" stroke="null"/>
    <g id="svg_230" stroke="null">
     <path class="e" d="m211.21009,305.07019c-0.02901,0.03315 -0.4973,-0.43431 -1.51012,-1.01366a16.97934,16.97934 0 0 0 -4.64143,-1.68003a22.33357,22.33357 0 0 0 -3.38161,-0.47575a13.47341,13.47341 0 0 0 -3.87642,0.24865a14.45474,14.45474 0 0 0 -7.44204,4.67127a20.15872,20.15872 0 0 0 -4.21376,7.83407a39.11068,39.11068 0 0 0 -1.32612,7.23151c-0.20638,2.09113 -0.28429,3.79354 -0.3564,4.96882c-0.03481,0.54868 -0.06299,0.99459 -0.08288,1.35347a1.99416,1.99416 0 0 1 -0.05802,0.4716a2.00825,2.00825 0 0 1 -0.02818,-0.47409c0,-0.35722 0,-0.80645 0.00497,-1.35762c0.02238,-1.17776 0.05304,-2.88432 0.22295,-4.98954a37.36765,37.36765 0 0 1 1.25319,-7.3144a20.23166,20.23166 0 0 1 4.27094,-8.00564a14.6893,14.6893 0 0 1 7.67494,-4.77156a13.63171,13.63171 0 0 1 3.98583,-0.22213a21.88103,21.88103 0 0 1 3.42554,0.53459a15.96072,15.96072 0 0 1 4.65635,1.83171a7.9816,7.9816 0 0 1 1.09654,0.81308a2.01156,2.01156 0 0 1 0.32573,0.34562l0,0.00003z" id="svg_231" stroke="null"/>
    </g>
    <g id="svg_232" stroke="null">
     <path class="e" d="m200.72791,296.13711a2.5876,2.5876 0 0 1 0.74594,-0.11935a12.62883,12.62883 0 0 1 2.05052,-0.02735a16.95116,16.95116 0 0 1 3.01527,0.44508a17.95902,17.95902 0 0 1 6.70687,3.19927a16.87989,16.87989 0 0 1 2.24363,2.06212a12.61391,12.61391 0 0 1 1.26893,1.61041a2.54864,2.54864 0 0 1 0.37463,0.65229c-0.06548,0.04641 -0.66306,-0.83877 -1.86154,-2.05715a19.41361,19.41361 0 0 0 -2.26021,-1.95603a19.25199,19.25199 0 0 0 -6.56845,-3.13297a19.41692,19.41692 0 0 0 -2.94316,-0.52548c-1.70158,-0.16162 -2.76745,-0.06796 -2.77243,-0.15085l0,0.00001z" id="svg_233" stroke="null"/>
    </g>
    <g id="svg_234" stroke="null">
     <path class="e" d="m220.71341,293.6788a4.77321,4.77321 0 0 1 -1.02277,-0.07791c-0.65146,-0.08288 -1.59881,-0.17986 -2.76828,-0.26605a47.18345,47.18345 0 0 0 -18.08086,2.16324c-1.11643,0.36054 -2.01405,0.67632 -2.62738,0.91171a4.76741,4.76741 0 0 1 -0.97553,0.31661a4.70939,4.70939 0 0 1 0.91171,-0.47077c0.59593,-0.28263 1.48277,-0.644 2.59423,-1.04349a41.79607,41.79607 0 0 1 18.20352,-2.17899c1.17445,0.12598 2.12097,0.26688 2.76745,0.40198a4.73923,4.73923 0 0 1 0.99791,0.24368l0,-0.00001z" id="svg_235" stroke="null"/>
    </g>
    <g id="svg_236" stroke="null">
     <path class="e" d="m283.67608,250.01869a1.40403,1.40403 0 0 1 -0.22544,-0.26522c-0.15748,-0.21135 -0.3564,-0.47906 -0.60256,-0.80811l-2.22208,-3.07826l-7.6998,-10.86426l0.34313,-0.04807c-1.19102,3.49765 -2.50554,7.35667 -3.88886,11.41875l-0.08703,0.25611l-0.22295,-0.14256l-0.45917,-0.29506a23.60996,23.60996 0 0 1 -4.813,-4.06125a28.60861,28.60861 0 0 1 -3.43632,-4.75249a39.6519,39.6519 0 0 1 -3.78194,-9.14279a61.76666,61.76666 0 0 1 -1.43221,-6.51209c-0.1293,-0.74594 -0.23207,-1.33441 -0.30998,-1.78198c-0.03647,-0.20306 -0.07874,-0.35308 -0.1036,-0.45503a0.48486,0.48486 0 0 1 -0.05139,-0.15085a7.43955,7.43955 0 0 1 0.62742,2.35718c0.31661,1.53913 0.76086,3.77033 1.55737,6.45905a40.59676,40.59676 0 0 0 3.83167,9.02924a28.64177,28.64177 0 0 0 3.40648,4.66961a23.42347,23.42347 0 0 0 4.7326,3.985l0.45005,0.28926l-0.31081,0.11355l3.92367,-11.40714l0.12515,-0.36385l0.21798,0.31495l7.57299,10.95212l2.13174,3.14125c0.22627,0.34396 0.40861,0.62245 0.55283,0.84292a1.45874,1.45874 0 0 1 0.17405,0.30004l0.00001,-0.00002z" id="svg_237" stroke="null"/>
    </g>
    <g class="p" id="svg_238" stroke="null">
     <path d="m309.28764,287.74853a44.68454,44.68454 0 0 0 5.68409,26.50671c4.57844,7.96171 11.28448,15.0573 19.64319,18.86575c0.2702,-8.11173 -0.11935,-17.66727 0.15002,-25.77651l-25.47731,-19.59595l0.00001,0z" id="svg_239" stroke="null"/>
    </g>
    <g id="svg_240" stroke="null">
     <path class="m" d="m308.36349,277.06828s-3.5739,0.99459 -0.89348,8.31313s3.5739,6.87926 5.36002,13.72786s3.87145,13.09546 6.99861,16.9694s14.73985,11.76271 14.73985,11.76271l10.4225,-9.8274s-1.71816,-7.32268 -1.3054,-12.2973s1.45376,-17.18324 1.3054,-19.26774s-2.38288,-7.14614 -2.38288,-7.14614l0,-3.46367l-5.36002,-16.48868s-2.97715,-1.33938 -4.01981,3.42471l-1.78695,-5.05584s-2.82879,-0.45254 -3.57307,5.35422s0.5951,13.84721 0.5951,13.84721l-1.49189,10.12495l-2.23286,6.84942l-1.93614,0.29755s-2.91333,-0.79567 -4.50882,-6.27919s-5.91036,-12.03622 -9.93017,-10.8452l0.00001,0z" id="svg_241" stroke="null"/>
     <g id="svg_242" stroke="null">
      <path class="n" d="m341.50082,302.96912a1.64191,1.64191 0 0 1 -0.0489,-0.37546c-0.01989,-0.28346 -0.04393,-0.64483 -0.07542,-1.09074c-0.05304,-0.99874 -0.12764,-2.38039 -0.21964,-4.10021c-0.16079,-3.55567 -0.38375,-8.50293 -0.64483,-14.2782l0.04641,0.12018a2.08864,2.08864 0 0 0 -2.10936,-0.54951a3.07992,3.07992 0 0 0 -1.932,1.41646c-0.91171,1.46454 -0.96061,3.37332 -1.24324,5.21664c-0.56526,4.17314 -1.10317,8.14654 -1.59466,11.76934c-0.24865,1.80933 -0.50973,3.52997 -0.86281,5.12298a33.36691,33.36691 0 0 1 -1.29131,4.34305a36.16585,36.16585 0 0 0 -1.1214,3.53577a10.82282,10.82282 0 0 0 -0.3365,2.75668a8.64964,8.64964 0 0 0 0.41441,2.33563a3.40814,3.40814 0 0 1 -0.24865,-0.57106a6.4806,6.4806 0 0 1 -0.33153,-1.75794a10.56671,10.56671 0 0 1 0.2702,-2.81801a34.39134,34.39134 0 0 1 1.06919,-3.58136a34.06478,34.06478 0 0 0 1.23081,-4.31902c0.33153,-1.58057 0.58018,-3.29293 0.81888,-5.10143c0.47989,-3.6228 1.00702,-7.59785 1.55985,-11.76934c0.13178,-0.9316 0.23207,-1.84994 0.39452,-2.76662a7.26467,7.26467 0 0 1 0.91917,-2.61826a3.50262,3.50262 0 0 1 2.19142,-1.59135a2.49145,2.49145 0 0 1 2.50886,0.6929l0.04393,0.05304l0,0.06713c0.19809,5.77858 0.368,10.7275 0.49067,14.28483c0.04393,1.72147 0.08288,3.10478 0.10526,4.10435c0.00497,0.44757 0.00912,0.80976 0.0116,1.09405a1.63528,1.63528 0 0 1 -0.01492,0.37546l-0.00001,0.00002z" id="svg_243" stroke="null"/>
     </g>
     <g id="svg_244" stroke="null">
      <path class="n" d="m335.80348,284.20448a4.24111,4.24111 0 0 1 -0.43928,-0.9316a23.55443,23.55443 0 0 1 -0.87275,-2.66965a26.79431,26.79431 0 0 1 -0.74594,-4.10186a11.93511,11.93511 0 0 1 -0.04393,-2.48648a5.31029,5.31029 0 0 1 0.89845,-2.55279a3.63855,3.63855 0 0 1 1.9063,-1.43055l0.15996,-0.04724l0.08288,0.14422c1.50929,2.66302 2.81801,5.01274 3.74298,6.70355l1.06753,1.99913a3.40896,3.40896 0 0 1 0.34231,0.74594a3.42471,3.42471 0 0 1 -0.4716,-0.67632l-1.17693,-1.93614c-0.98713,-1.65765 -2.34392,-3.97837 -3.86813,-6.63061l0.24119,0.09614a3.25232,3.25232 0 0 0 -1.67755,1.27391a4.95556,4.95556 0 0 0 -0.82883,2.35304a11.95583,11.95583 0 0 0 0.02072,2.4036a30.07895,30.07895 0 0 0 0.6498,4.06788c0.26191,1.14544 0.54122,2.05632 0.73683,2.6854a5.54402,5.54402 0 0 1 0.276,0.99045l-0.00001,-0.00002z" id="svg_245" stroke="null"/>
     </g>
     <g id="svg_246" stroke="null">
      <path class="n" d="m333.312,285.54386a4.07949,4.07949 0 0 1 -0.09697,-0.94901c-0.02818,-0.70285 -0.06299,-1.56814 -0.10443,-2.59174c-0.07045,-2.1881 -0.13841,-5.21249 -0.18649,-8.55183a73.46057,73.46057 0 0 1 0.13261,-8.57007a13.18746,13.18746 0 0 1 0.5578,-2.5503a3.2059,3.2059 0 0 1 0.38209,-0.8769a24.12715,24.12715 0 0 0 -0.64151,3.46035c-0.20721,2.16241 -0.0315,5.18928 -0.00663,8.53111c0.0489,3.34017 0.06879,6.36456 0.06216,8.55432c-0.01243,1.02443 -0.02238,1.89055 -0.02984,2.5934a4.10932,4.10932 0 0 1 -0.06879,0.95066l0,0.00001z" id="svg_247" stroke="null"/>
     </g>
     <g id="svg_248" stroke="null">
      <path class="n" d="m324.4991,312.99875c-0.0605,-0.05056 0.59261,-0.81888 1.39823,-2.21048a18.39001,18.39001 0 0 0 1.21257,-2.54118a18.18943,18.18943 0 0 0 1.21755,-6.74582a18.30878,18.30878 0 0 0 -0.24865,-2.80558c-0.26854,-1.58555 -0.61167,-2.53289 -0.53708,-2.55942a2.27264,2.27264 0 0 1 0.29672,0.64566a11.81161,11.81161 0 0 1 0.53625,1.8574a15.98558,15.98558 0 0 1 0.34396,2.85448a16.93873,16.93873 0 0 1 -1.24324,6.8975a15.96403,15.96403 0 0 1 -1.31949,2.55362a11.83813,11.83813 0 0 1 -1.1529,1.55405c-0.30418,0.34065 -0.48155,0.51885 -0.50393,0.49978l0.00001,-0.00001z" id="svg_249" stroke="null"/>
     </g>
     <path class="m" d="m342.79048,307.8766l9.04582,3.13877s8.63555,-4.46655 14.58735,0s11.12866,16.23837 9.49089,21.0033c0,0 -4.11015,5.07491 -7.23732,5.82002s-15.28191,-2.20053 -20.33941,-3.26475c-5.07076,-1.06753 -13.77759,-6.73339 -13.77759,-6.73339l8.23025,-19.96395l0.00001,0z" id="svg_250" stroke="null"/>
     <g id="svg_251" stroke="null">
      <path class="n" d="m343.90359,321.2033a2.97797,2.97797 0 0 1 -0.09614,-0.80148c-0.03564,-0.6125 -0.08288,-1.33938 -0.1293,-2.18479c-0.09532,-1.84497 -0.21964,-4.39693 -0.25777,-7.22074a71.85928,71.85928 0 0 1 0.20886,-7.23234c0.08288,-0.92414 0.18068,-1.6676 0.27351,-2.17816a2.94814,2.94814 0 0 1 0.18731,-0.78573c0.06713,0.01077 -0.07459,1.14378 -0.16079,2.98378s-0.12515,4.39278 -0.08288,7.20582c0.05139,2.76082 0.09697,5.25725 0.13427,7.21659c0.00995,0.92497 0.00746,1.6734 -0.00663,2.19142a2.98378,2.98378 0 0 1 -0.07045,0.80562l0.00001,0.00001z" id="svg_252" stroke="null"/>
     </g>
    </g>
    <g id="svg_253" stroke="null">
     <path class="e" d="m373.73059,310.66147a28.37571,28.37571 0 0 0 -3.00781,-2.71109a16.54421,16.54421 0 0 0 -18.33365,-1.01034a28.60778,28.60778 0 0 0 -3.28796,2.36464a4.52705,4.52705 0 0 1 0.74594,-0.80811a14.75312,14.75312 0 0 1 2.38785,-1.81596a16.25992,16.25992 0 0 1 18.66932,1.0294a14.69095,14.69095 0 0 1 2.17401,2.06378a4.4939,4.4939 0 0 1 0.65229,0.88767l0.00001,0.00001z" id="svg_254" stroke="null"/>
    </g>
    <g id="svg_255" stroke="null">
     <path class="e" d="m372.56857,303.11913a17.74104,17.74104 0 0 0 -3.76287,-2.07207a16.64367,16.64367 0 0 0 -10.18297,-0.30584a23.63731,23.63731 0 0 0 -5.26637,2.19142a24.99824,24.99824 0 0 0 -3.8126,2.69452c-1.01531,0.86612 -1.79109,1.62201 -2.32071,2.14832a6.56348,6.56348 0 0 1 -0.85121,0.79733a5.72554,5.72554 0 0 1 0.73103,-0.91171a28.28205,28.28205 0 0 1 2.24612,-2.26104a23.34556,23.34556 0 0 1 3.8126,-2.80806a22.97673,22.97673 0 0 1 5.34759,-2.26187a16.33618,16.33618 0 0 1 10.40675,0.43513a11.98235,11.98235 0 0 1 2.78403,1.57477a7.73544,7.73544 0 0 1 0.66306,0.56194c0.14339,0.13095 0.21467,0.20638 0.20555,0.21715l0,0.00001z" id="svg_256" stroke="null"/>
    </g>
    <g id="svg_257" stroke="null">
     <path class="e" d="m372.64647,296.58303c-0.02321,0.08288 -1.60461,-0.39867 -4.22702,-0.75506a34.09213,34.09213 0 0 0 -4.63646,-0.29423a33.72247,33.72247 0 0 0 -11.15435,1.96266a34.16258,34.16258 0 0 0 -4.25768,1.85906c-2.34724,1.23081 -3.66839,2.2254 -3.71812,2.15495a5.97833,5.97833 0 0 1 0.90508,-0.72357a12.82858,12.82858 0 0 1 1.12306,-0.76749c0.45088,-0.27931 0.95232,-0.62162 1.54742,-0.92746a30.68482,30.68482 0 0 1 4.2668,-1.96266a31.9405,31.9405 0 0 1 11.28779,-1.98918a30.73124,30.73124 0 0 1 4.67956,0.38872c0.66306,0.08288 1.25153,0.23456 1.7712,0.34313a12.41334,12.41334 0 0 1 1.31783,0.33816a6.07116,6.07116 0 0 1 1.09488,0.37297l0.00001,0z" id="svg_258" stroke="null"/>
    </g>
    <g id="svg_259" stroke="null">
     <path class="e" d="m303.34745,216.59625a7.55144,7.55144 0 0 1 0.62659,2.4036a23.46574,23.46574 0 0 1 -0.34313,7.01685a41.8773,41.8773 0 0 1 -1.16865,4.89008a37.18034,37.18034 0 0 1 -2.37542,5.43296c-1.94774,3.75624 -4.39941,7.85313 -7.23897,12.22105l-0.33153,0.51056l0,-0.61085c-0.00497,-2.8868 -0.00912,-5.91617 -0.01409,-9.06322l0.31744,0.15168l-7.62521,6.15818l0.06631,-0.09697a80.33569,80.33569 0 0 0 -3.39322,18.33696c-0.74594,9.94095 -0.14422,19.44842 0.3249,28.07485c0.40198,8.6372 0.66306,16.41574 0.93326,22.9469s0.4973,11.81575 0.69207,15.46508c0.10692,1.80767 0.19063,3.21916 0.24865,4.20049c0.03067,0.4658 0.05553,0.82883 0.07294,1.09239c0.01409,0.24865 0.01077,0.3738 0.01077,0.3738s-0.02569,-0.12515 -0.05387,-0.36966c-0.02735,-0.26357 -0.06548,-0.62494 -0.11438,-1.08908c-0.09034,-0.95895 -0.20721,-2.37376 -0.33153,-4.19801c-0.24865,-3.64684 -0.52962,-8.93144 -0.82883,-15.46176s-0.63903,-14.30969 -1.02526,-22.9411c-0.48984,-8.6198 -1.10565,-18.15131 -0.35722,-28.12706a80.15252,80.15252 0 0 1 3.42637,-18.42979l0.01823,-0.05885l0.04807,-0.03895l7.64178,-6.14161l0.31827,-0.25528l0,0.40778c-0.00497,3.14954 -0.00995,6.17725 -0.01409,9.06322l-0.33153,-0.10029c5.61116,-8.70268 10.17551,-16.26407 10.87752,-22.37832a24.16942,24.16942 0 0 0 0.44011,-6.96214a11.7826,11.7826 0 0 0 -0.33153,-1.81099c-0.13178,-0.40198 -0.18483,-0.6125 -0.18483,-0.6125l0.00001,0z" id="svg_260" stroke="null"/>
    </g>
    <path class="d" d="m288.69627,321.96417l-0.29175,-0.01077a2.30828,2.30828 0 1 0 0.29175,0.01077z" id="svg_261" stroke="null"/>
    <g id="svg_262" stroke="null">
     <path class="d" d="m288.69628,290.48201l-0.29175,-0.00995a2.30165,2.30165 0 1 0 0.29175,0.00995z" id="svg_263" stroke="null"/>
     <path class="d" d="m288.39127,262.31601a2.30414,2.30414 0 0 0 0.30584,-4.59667l-0.29175,-0.01077a2.30497,2.30497 0 0 0 -0.01409,4.60662l0,0.00083l0,-0.00001z" id="svg_264" stroke="null"/>
    </g>
    <g id="svg_265" stroke="null">
     <path class="e" d="m253.12553,179.70684c-2.86443,-3.17026 -5.75372,-6.37534 -7.8407,-10.1034s-3.33271,-8.07857 -2.64147,-12.29399c0.40447,-2.46493 1.4521,-4.81465 1.61787,-7.30777c0.22959,-3.42969 -1.2134,-7.01436 0,-10.23021c1.9005,-5.02518 8.66538,-5.80179 12.76393,-9.27374c3.19347,-2.70363 4.75001,-7.0931 8.2634,-9.36574c3.06666,-1.98918 7.0127,-1.9436 10.63302,-1.43138s7.26218,1.42558 10.88581,0.93823c2.58262,-0.34728 5.01523,-1.3916 7.54232,-2.01819s5.35256,-0.79153 7.60614,0.51802s3.51837,4.50799 2.04057,6.65465c4.19967,-1.93614 9.53151,1.33607 10.68192,5.81505s-1.15124,9.31767 -4.70939,12.26664s-8.15897,4.3273 -12.70343,5.18431c-12.86339,2.42432 -26.81669,1.05593 -37.90308,-5.90539" id="svg_266" stroke="null"/>
     <g id="svg_267" stroke="null">
      <g id="svg_268" stroke="null">
       <path class="m" d="m298.34797,222.95418c-0.62825,-4.86936 -1.14212,-8.93227 -1.17362,-9.43702c0,0 16.27318,-3.65678 15.37639,-20.11065c-0.43265,-7.95176 -2.65888,-24.25644 -4.84366,-38.98469a30.69394,30.69394 0 0 0 -32.4179,-26.10307l-1.58637,0.10609c-17.03736,2.14335 -24.73633,17.81066 -22.12221,34.7842l9.19335,56.9089s3.92367,12.58905 12.31222,14.76886l10.59158,15.12775l1.74965,-6.51209l7.89375,-6.8718a31.04951,31.04951 0 0 0 3.89549,-5.79267a12.68105,12.68105 0 0 0 1.13135,-7.8838l-0.00002,-0.00001z" id="svg_269" stroke="null"/>
       <g id="svg_270" stroke="null">
        <path class="n" d="m297.18512,213.27847s-10.33464,1.53996 -21.84124,-4.65801c0,0 5.85732,11.49334 22.16366,8.91569l-0.32241,-4.25768l-0.00001,0z" id="svg_271" stroke="null"/>
       </g>
       <g id="svg_272" stroke="null">
        <g id="svg_273" stroke="null">
         <g id="svg_274" stroke="null">
          <g id="svg_275" stroke="null">
           <path class="e" d="m302.41751,168.55994a2.35387,2.35387 0 0 1 -2.10605,2.52046a2.25109,2.25109 0 0 1 -2.5619,-1.9552a2.3547,2.3547 0 0 1 2.10273,-2.52129a2.25275,2.25275 0 0 1 2.56522,1.95603z" id="svg_276" stroke="null"/>
          </g>
          <path class="e" d="m304.71251,162.72667c-0.2702,0.3249 -2.13672,-0.87275 -4.66381,-0.69621c-2.52544,0.13924 -4.29249,1.56234 -4.58673,1.27142c-0.14422,-0.12847 0.11521,-0.70119 0.8827,-1.34187a6.44993,6.44993 0 0 1 3.64684,-1.39657a6.20045,6.20045 0 0 1 3.73801,0.93492c0.81722,0.5462 1.11726,1.08162 0.98299,1.22832l0,-0.00001z" id="svg_277" stroke="null"/>
         </g>
         <g id="svg_278" stroke="null">
          <g id="svg_279" stroke="null">
           <path class="e" d="m278.55061,170.26651a2.35221,2.35221 0 0 1 -2.10605,2.51963a2.24944,2.24944 0 0 1 -2.5619,-1.95437a2.3547,2.3547 0 0 1 2.10356,-2.52129a2.25275,2.25275 0 0 1 2.56439,1.95603z" id="svg_280" stroke="null"/>
          </g>
          <path class="e" d="m279.9099,164.85841c-0.2702,0.32573 -2.14003,-0.8711 -4.66381,-0.69539c-2.52461,0.13924 -4.29249,1.56234 -4.58756,1.27142c-0.14339,-0.12847 0.11272,-0.70036 0.88436,-1.34187a6.45076,6.45076 0 0 1 3.64684,-1.3974a6.20957,6.20957 0 0 1 3.73801,0.93575c0.81639,0.5462 1.11643,1.08162 0.98216,1.22749z" id="svg_281" stroke="null"/>
         </g>
         <g id="svg_282" stroke="null">
          <path class="e" d="m290.33238,182.98319c-0.02155,-0.14256 1.53084,-0.51967 4.05379,-1.01531c0.64068,-0.10941 1.24324,-0.27849 1.32198,-0.72605a3.28464,3.28464 0 0 0 -0.55863,-1.88309q-1.06587,-2.28176 -2.23783,-4.78565c-3.11722,-6.81627 -5.4197,-12.43986 -5.14453,-12.56253s3.02605,5.30449 6.14326,12.11993q1.12969,2.52295 2.15495,4.81963a3.7463,3.7463 0 0 1 0.50393,2.50969a1.62036,1.62036 0 0 1 -0.99459,1.01448a4.38201,4.38201 0 0 1 -1.08576,0.22544c-2.54864,0.30915 -4.13916,0.42685 -4.15657,0.28346z" id="svg_283" stroke="null"/>
         </g>
        </g>
        <g id="svg_284" stroke="null">
         <path class="e" d="m279.89993,154.9158c-0.20306,0.70367 -2.74756,0.5462 -5.68741,1.10151c-2.95228,0.4973 -5.28294,1.52421 -5.7189,0.93409c-0.19477,-0.28346 0.17903,-0.95729 1.10151,-1.68666a10.06776,10.06776 0 0 1 8.68942,-1.55239c1.11726,0.36717 1.70158,0.87027 1.61538,1.20346l0,-0.00001z" id="svg_285" stroke="null"/>
        </g>
        <g id="svg_286" stroke="null">
         <path class="e" d="m303.29524,155.47774c-0.40613,0.60339 -2.18644,0.12432 -4.28089,0.23704c-2.09859,0.03813 -3.83913,0.644 -4.28752,0.07128c-0.19809,-0.27931 0.04227,-0.87358 0.77993,-1.46785a6.20874,6.20874 0 0 1 6.90496,-0.24865c0.77827,0.5404 1.0609,1.11477 0.88353,1.40818l-0.00001,0z" id="svg_287" stroke="null"/>
        </g>
       </g>
      </g>
      <g id="svg_288" stroke="null">
       <path class="m" d="m253.73554,175.29333c-0.28843,-0.10277 -11.52069,-2.58594 -10.41006,8.62974s13.2662,7.56056 13.25377,7.23732s-2.8437,-15.86706 -2.8437,-15.86706l-0.00001,0z" id="svg_289" stroke="null"/>
       <g id="svg_290" stroke="null">
        <path class="n" d="m251.6096,187.47708c-0.05304,-0.03067 -0.18234,0.15582 -0.4973,0.34065a1.96018,1.96018 0 0 1 -1.45708,0.17405c-1.22749,-0.31744 -2.41189,-2.09942 -2.66716,-4.11595a6.48308,6.48308 0 0 1 0.26937,-2.85116a2.26767,2.26767 0 0 1 1.32198,-1.64522a0.99459,0.99459 0 0 1 1.20594,0.42187c0.18151,0.29921 0.13261,0.52962 0.19395,0.54288c0.03481,0.02486 0.22295,-0.21135 0.08288,-0.66306a1.25484,1.25484 0 0 0 -0.51139,-0.66306a1.48443,1.48443 0 0 0 -1.10897,-0.18068a2.75999,2.75999 0 0 0 -1.869,1.94111a6.6646,6.6646 0 0 0 -0.36717,3.19347c0.29589,2.25275 1.66263,4.25354 3.33023,4.55855a2.10356,2.10356 0 0 0 1.75711,-0.47409c0.32324,-0.30584 0.35805,-0.56277 0.31661,-0.57935l0,-0.00001z" id="svg_291" stroke="null"/>
       </g>
      </g>
      <g id="svg_292" stroke="null">
       <path class="e" d="m306.87908,139.09847c-0.77081,4.46489 -9.82574,8.55515 -17.33325,8.33634c-6.9207,-0.20058 -10.34044,-3.63606 -15.36976,-6.07613c-3.18269,-1.54493 -3.18269,-1.54493 -7.50171,-0.84209c-3.49268,0.56775 -5.30449,4.68784 -7.2655,7.63349c3.73552,8.14239 2.2254,17.61174 0.64234,26.42963a4.48147,4.48147 0 0 1 -1.13466,2.68125c-1.26147,1.11063 -3.30536,0.44508 -4.54529,-0.68958c-1.98504,-1.81762 -2.88929,-4.51379 -3.53909,-7.12791a46.35296,46.35296 0 0 1 -1.11146,-18.23916a31.55592,31.55592 0 0 1 7.58874,-16.46713a29.88915,29.88915 0 0 1 20.38914,-9.30441a36.70957,36.70957 0 0 1 21.74758,6.17476c2.97383,1.94774 5.75454,4.35714 7.43458,7.48928" id="svg_293" stroke="null"/>
      </g>
     </g>
     <path class="n" d="m291.98507,188.66562l-5.7189,-2.66634a1.92454,1.92454 0 0 0 -1.04018,-0.26191a1.65765,1.65765 0 0 0 -0.98879,0.67135a5.31775,5.31775 0 0 0 -0.63405,5.8424a4.46655,4.46655 0 0 0 5.36582,1.97261c2.02565,-0.83877 3.01113,-3.19264 3.16943,-5.37991l-0.15333,-0.1782z" id="svg_294" stroke="null"/>
     <g id="svg_295" stroke="null">
      <path class="e" d="m289.14965,194.62738c0.01658,0.0489 -0.26357,0.21384 -0.83546,0.33153a4.95721,4.95721 0 0 1 -2.45996,-0.18068a5.1321,5.1321 0 0 1 -2.83873,-2.35967a5.26968,5.26968 0 0 1 -0.34894,-4.50882a5.51004,5.51004 0 0 1 1.32612,-1.99996a5.09148,5.09148 0 0 1 0.92746,-0.70119a1.50929,1.50929 0 0 1 0.66306,-0.20969a1.49189,1.49189 0 0 1 0.66306,0.12847a8.31147,8.31147 0 0 1 0.89099,0.50558l0.7791,0.47906l1.3916,0.8711c1.69578,1.07747 2.71441,1.79275 2.65225,1.89387s-1.18522,-0.43099 -2.95808,-1.37502l-1.44465,-0.78075l-0.80065,-0.44094a8.96956,8.96956 0 0 0 -0.80811,-0.42519a0.60421,0.60421 0 0 0 -0.62576,0.05968a4.50716,4.50716 0 0 0 -0.75175,0.5951a4.85029,4.85029 0 0 0 -1.11146,1.7049a4.61242,4.61242 0 0 0 0.24202,3.82835a4.7152,4.7152 0 0 0 2.36133,2.17235a5.59458,5.59458 0 0 0 2.21463,0.41441c0.54537,-0.01077 0.85369,-0.06382 0.87193,-0.00249z" id="svg_296" stroke="null"/>
     </g>
     <g id="svg_297" stroke="null">
      <path class="e" d="m287.34529,168.84258a20.26481,20.26481 0 0 0 -0.44591,-2.83956a11.67651,11.67651 0 0 0 -4.27094,-6.3513a11.52566,11.52566 0 0 0 -10.91896,-1.62533a11.54639,11.54639 0 0 0 -5.34179,4.01649a11.46019,11.46019 0 0 0 0,13.59939a11.54639,11.54639 0 0 0 5.34262,4.01815a11.61435,11.61435 0 0 0 15.18991,-7.97829a20.26481,20.26481 0 0 0 0.44591,-2.83956a0.63239,0.63239 0 0 1 0.01243,0.19063c0,0.15085 0,0.33153 -0.00663,0.55863a5.40064,5.40064 0 0 1 -0.07211,0.90757a8.19295,8.19295 0 0 1 -0.21964,1.22335a11.05489,11.05489 0 0 1 -1.26728,3.16197a11.8315,11.8315 0 0 1 -7.96585,5.63602a11.89201,11.89201 0 0 1 -6.25101,-0.4973a11.89698,11.89698 0 0 1 -5.54485,-4.13999a11.83979,11.83979 0 0 1 0,-14.09005a11.89615,11.89615 0 0 1 5.54402,-4.13833a11.90029,11.90029 0 0 1 6.25101,-0.4973a11.8315,11.8315 0 0 1 7.96502,5.63602a11.03583,11.03583 0 0 1 1.2681,3.16197a8.31147,8.31147 0 0 1 0.21964,1.22418a5.39152,5.39152 0 0 1 0.07211,0.90674c0,0.22378 0.00497,0.40778 0.00663,0.55946a0.62411,0.62411 0 0 1 -0.01243,0.19643l0,0.00001z" id="svg_298" stroke="null"/>
     </g>
     <g id="svg_299" stroke="null">
      <path class="e" d="m315.31901,167.74438a20.01036,20.01036 0 0 0 -0.43679,-2.76662a11.37399,11.37399 0 0 0 -4.16154,-6.18636a11.22397,11.22397 0 0 0 -10.63633,-1.58223a11.24303,11.24303 0 0 0 -5.20255,3.91206a11.16512,11.16512 0 0 0 0,13.24548a11.25464,11.25464 0 0 0 5.20337,3.91372a11.3168,11.3168 0 0 0 14.79787,-7.76942a20.01202,20.01202 0 0 0 0.43679,-2.76579a4.67707,4.67707 0 0 1 0.00663,0.72937a5.33599,5.33599 0 0 1 -0.06962,0.88353a7.94016,7.94016 0 0 1 -0.21384,1.19351a11.4892,11.4892 0 0 1 -8.99774,8.57753a11.5986,11.5986 0 0 1 -6.09353,-0.47989a11.60357,11.60357 0 0 1 -5.40561,-4.03556a11.54473,11.54473 0 0 1 0,-13.73946a11.60357,11.60357 0 0 1 5.40478,-4.03473a11.60357,11.60357 0 0 1 6.09271,-0.47989a11.48837,11.48837 0 0 1 8.99857,8.57753a8.0247,8.0247 0 0 1 0.21384,1.19351a5.33599,5.33599 0 0 1 0.06962,0.88353a4.69116,4.69116 0 0 1 -0.00663,0.7302l0,-0.00002z" id="svg_300" stroke="null"/>
     </g>
     <g id="svg_301" stroke="null">
      <path class="e" d="m292.49147,165.1601c-0.04559,0.04807 -0.31578,-0.17986 -0.81308,-0.41441a4.69199,4.69199 0 0 0 -2.05715,-0.45088a4.63231,4.63231 0 0 0 -2.03974,0.52216c-0.48652,0.25362 -0.74594,0.4973 -0.79484,0.4484c-0.03895,-0.0315 0.15002,-0.35888 0.6382,-0.70533a4.03556,4.03556 0 0 1 4.40024,-0.07708c0.50061,0.32656 0.7045,0.644 0.66638,0.67715l-0.00001,-0.00001z" id="svg_302" stroke="null"/>
     </g>
     <g id="svg_303" stroke="null">
      <path class="e" d="m264.62633,167.17912a50.54931,50.54931 0 0 1 -5.11801,4.08694a50.6065,50.6065 0 0 1 -5.37411,3.74713a100.82263,100.82263 0 0 1 10.49212,-7.83324l0,-0.00083z" id="svg_304" stroke="null"/>
     </g>
    </g>
    <g class="p" id="svg_305" stroke="null">
     <path d="m254.96137,220.34255c-1.13632,11.08556 3.07826,22.7861 11.96992,29.50623c0.69787,0.52713 1.57477,1.04929 2.39614,0.75257a2.63152,2.63152 0 0 0 1.24324,-1.27971a21.64564,21.64564 0 0 0 2.65225,-14.24339c-1.40901,3.70734 -2.61661,7.34672 -4.03804,11.2248c-7.75202,-4.70691 -12.58076,-14.70836 -14.2235,-25.96051l-0.00001,0.00001z" id="svg_306" stroke="null"/>
    </g>
    <path class="q" d="m285.06104,245.548l6.52287,-2.38205l1.07747,11.03417s7.04005,-12.83107 9.95421,-18.6859s1.41481,-16.18533 1.41481,-16.18533s1.04266,8.9994 -6.01231,20.47865l-5.32521,8.65461l0,-9.06488l-7.63184,6.15072l0,0.00001z" id="svg_307" stroke="null"/>
    <g class="p" id="svg_308" stroke="null">
     <path d="m209.1629,301.62643a17.44017,17.44017 0 0 0 -9.4536,-1.18605a18.23419,18.23419 0 0 0 -9.40884,3.55981c-2.64479,2.13423 -4.43837,5.49761 -4.10849,8.88005l0.32656,0.04641c2.27679,-6.1615 6.80467,-10.64462 12.64375,-11.18916s11.53644,2.05715 15.54465,6.33721c-0.38955,-3.1885 -2.63401,-5.06993 -5.54402,-6.44827l-0.00001,0z" id="svg_309" stroke="null"/>
    </g>
    <g class="p" id="svg_310" stroke="null">
     <path d="m374.15163,307.92965a14.95618,14.95618 0 0 0 -8.42668,-4.34139a18.93786,18.93786 0 0 0 -15.72119,4.55109l1.24324,-1.01034a19.83382,19.83382 0 0 1 10.46974,-2.84536a15.15593,15.15593 0 0 1 9.9799,3.98666c2.43841,2.32071 3.9046,5.46114 5.30449,8.52614a10.68606,10.68606 0 0 0 -2.84951,-8.86679l0.00001,-0.00001z" id="svg_311" stroke="null"/>
    </g>
    <g id="svg_312" stroke="null">
     <path class="e" d="m332.09363,256.68164a4.02561,4.02561 0 0 1 0.2934,-0.89182c0.24865,-0.64566 0.56194,-1.43884 0.92746,-2.37376c0.7907,-2.00162 1.87481,-4.76907 3.01942,-7.84402s2.13174,-5.8797 2.84205,-7.91115l0.84955,-2.4036a3.98417,3.98417 0 0 1 0.36137,-0.86612a3.93941,3.93941 0 0 1 -0.20306,0.91171c-0.15582,0.58018 -0.40281,1.41895 -0.72108,2.44835c-0.6382,2.05798 -1.58306,4.88262 -2.72933,7.96502s-2.27762,5.8366 -3.1396,7.81086c-0.43016,0.98713 -0.7907,1.78032 -1.05261,2.32071a3.97008,3.97008 0 0 1 -0.44757,0.8338l0,0.00002z" id="svg_313" stroke="null"/>
    </g>
    <g id="svg_314" stroke="null">
     <path class="e" d="m229.11524,257.48311c-0.11521,0.02404 -1.00288,-3.86399 -1.98255,-8.68113s-1.68086,-8.74329 -1.56565,-8.7665s1.00205,3.86316 1.98255,8.68196s1.68086,8.74246 1.56565,8.76567z" id="svg_315" stroke="null"/>
    </g>
    <g id="svg_316" stroke="null">
     <path class="m" d="m227.57444,306.07307c0.25777,0.13013 -2.99206,-25.4541 -2.99206,-25.4541s2.05135,-19.41527 3.20424,-20.31371l0.02984,-6.85025s3.17524,-1.92371 4.0281,1.18191c0,0 2.81801,-2.44504 3.30702,3.37498s0.5951,11.76934 0.5951,11.76934l6.26676,15.6698l1.03272,0.52216s1.34519,-12.27575 2.12926,-14.08342s1.31949,-6.19962 4.29001,-5.54071s3.21916,3.11722 2.68374,7.12294s-1.19848,8.13991 -0.95149,10.72585s1.4231,8.28081 1.06173,12.80372s-2.8379,9.29612 -5.43876,12.64624s-7.56636,10.27745 -10.26668,12.36692c-0.94155,0.72854 -8.97951,-15.94165 -8.97951,-15.94165l-0.00002,-0.00002z" id="svg_317" stroke="null"/>
     <g id="svg_318" stroke="null">
      <path class="n" d="m230.73724,285.25379a5.43876,5.43876 0 0 1 0.01741,-1.09571c0.05387,-0.78573 0.12267,-1.78198 0.20472,-2.97217c0.19146,-2.50803 0.48403,-5.96755 0.8338,-9.79093c0.18068,-1.9063 0.35308,-3.72143 0.51056,-5.38737a9.59698,9.59698 0 0 0 0.02818,-2.30911a3.27055,3.27055 0 0 0 -0.78075,-1.76623a3.51837,3.51837 0 0 0 -2.55859,-1.12223a6.73587,6.73587 0 0 0 -1.0667,0.13676c-0.00497,-0.01409 0.08288,-0.05885 0.25445,-0.13427a2.76331,2.76331 0 0 1 0.80645,-0.16577a3.59545,3.59545 0 0 1 2.78486,1.08411a3.55484,3.55484 0 0 1 0.91171,1.91459a9.68401,9.68401 0 0 1 0.01409,2.4036c-0.14753,1.66594 -0.30915,3.48107 -0.4774,5.38737c-0.35059,3.82089 -0.69124,7.27876 -0.95895,9.78016l-0.33899,2.95974a5.35754,5.35754 0 0 1 -0.18483,1.07747l-0.00002,-0.00001z" id="svg_319" stroke="null"/>
     </g>
     <g id="svg_320" stroke="null">
      <path class="n" d="m234.10561,274.79068a8.8212,8.8212 0 0 0 -1.10897,2.01902a34.13109,34.13109 0 0 0 -1.04184,5.52247c-0.33816,2.18727 -0.66306,4.1632 -0.92663,5.59127a12.86671,12.86671 0 0 1 -0.50641,2.29585a12.89074,12.89074 0 0 1 0.20886,-2.34226c0.184,-1.43884 0.4658,-3.42305 0.80313,-5.61033a26.39896,26.39896 0 0 1 1.18191,-5.5664a5.28791,5.28791 0 0 1 0.90508,-1.49189c0.27517,-0.30998 0.47077,-0.43348 0.48486,-0.41773l0.00001,0z" id="svg_321" stroke="null"/>
     </g>
     <g id="svg_322" stroke="null">
      <path class="n" d="m231.80312,254.30126a3.20424,3.20424 0 0 1 0.21798,0.80479c0.11438,0.52299 0.25611,1.28385 0.41441,2.22872c0.31247,1.88724 0.65394,4.5113 0.8711,7.4238s0.26108,5.55977 0.22959,7.47353c-0.01492,0.95647 -0.0431,1.72976 -0.08288,2.26435a3.16943,3.16943 0 0 1 -0.09697,0.82883a26.98494,26.98494 0 0 1 -0.1235,-3.09069c-0.04476,-1.9063 -0.14007,-4.54114 -0.35308,-7.44286s-0.5089,-5.51999 -0.74594,-7.41386a26.9435,26.9435 0 0 1 -0.3307,-3.0766l-0.00001,-0.00001z" id="svg_323" stroke="null"/>
     </g>
     <g id="svg_324" stroke="null">
      <path class="n" d="m249.88066,278.2875a2.27927,2.27927 0 0 1 -2.11102,0.17986c-1.19931,-0.35805 -1.75711,-1.28054 -1.65185,-1.32612a5.52247,5.52247 0 0 0 3.76204,1.1471l0.00083,-0.00083l0,-0.00001z" id="svg_325" stroke="null"/>
     </g>
     <path class="m" d="m227.92587,302.89205l-16.55581,6.958l-9.86304,0s-9.75695,3.04428 -11.25795,12.19038s-1.7165,13.85301 2.56936,14.98436s16.40414,1.25733 22.40816,-0.736s21.73184,-14.68349 21.73184,-14.68349l1.51592,-9.18091l-10.54848,-9.53234z" id="svg_326" stroke="null"/>
     <g id="svg_327" stroke="null">
      <path class="n" d="m231.80394,312.99958c-0.02155,0.01989 -0.18731,-0.13427 -0.47077,-0.43182a10.13904,10.13904 0 0 1 -1.07747,-1.36839a18.70662,18.70662 0 0 1 -2.31243,-5.2357a31.04536,31.04536 0 0 1 -1.01946,-5.62608a10.5261,10.5261 0 0 1 -0.06465,-2.36547a17.14014,17.14014 0 0 1 0.36303,2.33149a42.18065,42.18065 0 0 0 1.13052,5.54402a21.88103,21.88103 0 0 0 2.15495,5.1926c0.74843,1.23578 1.35513,1.9063 1.29629,1.95935l-0.00001,0z" id="svg_328" stroke="null"/>
     </g>
    </g>
    <g id="svg_329" stroke="null">
     <path class="n" d="m239.01143,315.90296a17.08129,17.08129 0 0 0 0.9432,-3.54904a11.43781,11.43781 0 0 0 -2.22374,-8.30899c-1.0062,-1.40901 -2.13672,-2.6365 -3.08987,-3.82338a17.69711,17.69711 0 0 1 -2.23783,-3.3841a8.87591,8.87591 0 0 1 -0.82883,-2.6108a3.0161,3.0161 0 0 1 -0.02818,-1.00371a11.33089,11.33089 0 0 0 1.1272,3.48107a18.94035,18.94035 0 0 0 2.27264,3.27055c0.95978,1.16036 2.10439,2.38619 3.13297,3.82669a11.91936,11.91936 0 0 1 2.06461,4.52954a11.54473,11.54473 0 0 1 0.11023,4.06622a10.44902,10.44902 0 0 1 -0.75921,2.62904a5.7189,5.7189 0 0 1 -0.33153,0.66306c-0.08786,0.14587 -0.13841,0.21964 -0.15168,0.21384l0.00002,0.00001z" id="svg_330" stroke="null"/>
    </g>
   </g>
   <g id="svg_331" stroke="null">
    <g id="svg_332" stroke="null">
     <path class="r" d="m335.94356,174.29709l7.17515,-12.64458a33.87829,33.87829 0 1 1 8.11421,9.02675l0.0116,0.01492l-15.30097,3.60291l0.00001,0z" id="svg_333" stroke="null"/>
    </g>
    <g id="svg_334" stroke="null">
     <path class="e" d="m335.94438,174.29461l15.32335,-3.50179l0.15748,-0.03564l-0.09863,-0.12847l-0.0116,-0.01575l-0.14587,0.14587a34.68308,34.68308 0 0 0 6.958,4.19469a33.94709,33.94709 0 0 0 9.27706,2.65225a30.51906,30.51906 0 0 0 5.35671,0.27103c0.92166,-0.05222 1.85989,-0.07542 2.80558,-0.15416l2.85862,-0.43182a34.13854,34.13854 0 0 0 21.14254,-13.57204a33.75563,33.75563 0 0 0 5.7189,-13.0706a34.50737,34.50737 0 0 0 -0.39949,-15.05066a33.38597,33.38597 0 0 0 -7.25223,-13.91434l-1.38248,-1.52007c-0.4542,-0.51139 -0.99459,-0.93243 -1.49189,-1.40155c-0.5147,-0.44342 -0.9805,-0.94569 -1.53333,-1.33773l-1.62367,-1.2134a14.22764,14.22764 0 0 0 -1.68169,-1.11229l-1.7165,-1.04266l-1.7969,-0.87275a15.7303,15.7303 0 0 0 -1.8143,-0.80645a34.51069,34.51069 0 0 0 -15.16753,-2.33066a33.37851,33.37851 0 0 0 -13.91932,4.1143a34.31343,34.31343 0 0 0 -16.05272,19.76006a36.54463,36.54463 0 0 0 -1.47034,11.00433a33.65037,33.65037 0 0 0 1.65765,9.50084a34.33,34.33 0 0 0 3.39405,7.28041l0,-0.10195c-4.52788,8.10758 -6.74085,12.07103 -7.0873,12.69348c0.35557,-0.61748 2.62324,-4.54943 7.26135,-12.59817l0.02901,-0.05056l-0.0315,-0.05139a34.3184,34.3184 0 0 1 -3.32857,-7.25223a33.50118,33.50118 0 0 1 -1.60378,-9.43205a36.38549,36.38549 0 0 1 1.49189,-10.90073a34.025,34.025 0 0 1 15.93254,-19.51804a33.02211,33.02211 0 0 1 13.7635,-4.04799a34.14766,34.14766 0 0 1 14.9827,2.31326a15.49906,15.49906 0 0 1 1.79192,0.79733l1.77452,0.86281l1.69495,1.03023a13.97568,13.97568 0 0 1 1.65765,1.09985l1.60461,1.19931c0.54703,0.38706 1.00537,0.88353 1.51427,1.32198c0.48569,0.46414 1.02111,0.87939 1.46951,1.38497l1.36508,1.50101a32.99311,32.99311 0 0 1 7.16604,13.74278a34.11202,34.11202 0 0 1 0.40613,14.87081a33.39094,33.39094 0 0 1 -5.63602,12.9297a33.83188,33.83188 0 0 1 -20.89306,13.47258l-2.83044,0.43596c-0.93657,0.08288 -1.86652,0.10609 -2.77906,0.16079a30.18421,30.18421 0 0 1 -5.31029,-0.24865a33.78215,33.78215 0 0 1 -9.21324,-2.58843a34.64496,34.64496 0 0 1 -6.93314,-4.12839l-0.62991,-0.48155l0.48321,0.62742l0.0116,0.01575l0.05885,-0.16577l-15.27445,3.69491l-0.00002,0.00002z" id="svg_335" stroke="null"/>
    </g>
    <g id="svg_336" stroke="null">
     <g id="svg_337" stroke="null">
      <path class="e" d="m381.06156,142.52816a3.30453,3.30453 0 1 0 3.30453,-3.30453a3.30453,3.30453 0 0 0 -3.30453,3.30453z" id="svg_338" stroke="null"/>
     </g>
     <g id="svg_339" stroke="null">
      <path class="e" d="m367.83598,142.52816a3.30536,3.30536 0 1 0 3.30536,-3.30453a3.30536,3.30536 0 0 0 -3.30536,3.30453z" id="svg_340" stroke="null"/>
     </g>
     <path class="e" d="m354.64271,140.87714a3.30536,3.30536 0 1 0 4.51462,-1.21009a3.3037,3.3037 0 0 0 -4.51462,1.21009z" id="svg_341" stroke="null"/>
    </g>
   </g>
   <g id="svg_342" stroke="null">
    <g id="svg_343" stroke="null">
     <path class="s" d="m492.2934,345.72746s-21.65559,-24.92033 -29.82284,-49.84398s-4.28918,-22.06005 -4.28918,-22.06005s11.03086,24.20754 19.40449,35.90063s23.29003,28.85146 23.29003,28.85146l-8.5825,7.15195l0,-0.00001z" id="svg_344" stroke="null"/>
    </g>
    <g id="svg_345" stroke="null">
     <path class="s" d="m496.60913,277.70896a1.26147,1.26147 0 0 0 -2.34807,0.8023c1.32032,8.75324 4.17314,29.29571 4.06125,42.6191c-0.14504,17.30673 0.0058,23.99785 0.0058,23.99785l9.011,0s-1.59964,-35.77879 -3.63606,-46.68698c-1.42724,-7.64924 -4.45826,-16.1414 -7.09393,-20.73227l0.00001,0z" id="svg_346" stroke="null"/>
    </g>
    <g id="svg_347" stroke="null">
     <path class="s" d="m501.52159,342.21904a95.44686,95.44686 0 0 0 7.418,-26.90703c0.74594,-6.37119 -0.58018,-14.98104 -2.55113,-26.47024a71.28905,71.28905 0 0 1 -1.13964,-12.73658a2.14998,2.14998 0 0 1 4.03639,-1.00868c1.08825,1.94194 4.23613,8.5709 5.03512,12.72746c2.18147,11.34498 4.65469,17.01747 2.76331,27.77979s-8.86845,27.34382 -8.86845,27.34382l-6.6936,-0.72854z" id="svg_348" stroke="null"/>
    </g>
    <g id="svg_349" stroke="null">
     <path class="s" d="m509.63908,342.9459s23.77324,-51.08888 25.42094,-58.6685s7.25058,-25.04466 7.90949,-24.0567s1.64771,10.21529 -2.6365,20.76045s-22.57558,63.52128 -22.57558,63.52128l-8.11753,0" id="svg_350" stroke="null"/>
    </g>
    <g id="svg_351" stroke="null">
     <path class="e" d="m498.91822,340.65919a4.85444,4.85444 0 0 1 -0.66306,-0.45751c-0.4227,-0.3191 -1.06256,-0.76915 -1.84165,-1.40901a84.28505,84.28505 0 0 1 -6.38943,-5.64017a107.21205,107.21205 0 0 1 -17.24706,-22.1363a145.05297,145.05297 0 0 1 -11.76934,-25.50217c-1.196,-3.39322 -2.07207,-6.17144 -2.63401,-8.10012c-0.29009,-0.96227 -0.48984,-1.71816 -0.63074,-2.22872a4.87599,4.87599 0 0 1 -0.18483,-0.78656a4.81714,4.81714 0 0 1 0.28263,0.75755q0.26854,0.82137 0.72108,2.19888c0.62328,1.9063 1.54659,4.66629 2.7832,8.03962a154.18995,154.18995 0 0 0 11.87211,25.3621a111.89161,111.89161 0 0 0 17.05974,22.14376c2.5445,2.52875 4.72431,4.45577 6.26179,5.74294c0.75838,0.65809 1.37834,1.13218 1.77866,1.4778a4.89008,4.89008 0 0 1 0.6009,0.53791l0.00001,0z" id="svg_352" stroke="null"/>
    </g>
    <g id="svg_353" stroke="null">
     <path class="e" d="m501.5199,316.14995a8.58333,8.58333 0 0 1 -0.21301,-1.49852c-0.11355,-1.05758 -0.26025,-2.43592 -0.43845,-4.09523c-0.37629,-3.45621 -0.96393,-8.22196 -1.80353,-13.45932s-1.77949,-9.94592 -2.50637,-13.34411c-0.35142,-1.63196 -0.644,-2.98378 -0.86778,-4.02644a8.61151,8.61151 0 0 1 -0.26688,-1.49189a8.70268,8.70268 0 0 1 0.45917,1.44216c0.26605,0.93657 0.6183,2.30082 1.02609,3.99412c0.81639,3.38493 1.81099,8.09764 2.65722,13.34411s1.37419,10.03378 1.65765,13.5049c0.14339,1.73556 0.23704,3.14125 0.27766,4.11512a8.77064,8.77064 0 0 1 0.01823,1.5151z" id="svg_354" stroke="null"/>
    </g>
    <g id="svg_355" stroke="null">
     <path class="e" d="m507.08879,274.69535a3.62777,3.62777 0 0 1 0.28014,0.6498c0.18151,0.48072 0.41441,1.11063 0.71279,1.89718c0.31413,0.82302 0.67632,1.83834 1.02029,3.04179s0.81142,2.55196 1.15538,4.09109q0.2818,1.15041 0.5893,2.4036c0.19892,0.83629 0.34065,1.72147 0.52299,2.62904c0.38789,1.8143 0.62825,3.78111 0.91668,5.84489a87.27546,87.27546 0 0 1 -0.96807,27.00732c-0.43513,2.03808 -0.81557,3.98251 -1.33192,5.76532c-0.24865,0.89265 -0.45171,1.7654 -0.7103,2.58511s-0.51719,1.60295 -0.75838,2.35387c-0.4542,1.50929 -1.00702,2.8263 -1.44547,3.99743s-0.86281,2.16241 -1.23495,2.96057q-0.52713,1.14461 -0.84706,1.84165a3.75293,3.75293 0 0 1 -0.32573,0.62742a3.66093,3.66093 0 0 1 0.2329,-0.66969l0.75838,-1.87646c0.34396,-0.80893 0.74594,-1.8027 1.15207,-2.98378s0.93906,-2.49643 1.36922,-4.00738q0.34811,-1.12638 0.72522,-2.35304c0.24865,-0.81971 0.44176,-1.68998 0.67881,-2.58097c0.4973,-1.77783 0.86032,-3.71563 1.27971,-5.74626a90.18298,90.18298 0 0 0 0.9631,-26.86559c-0.27434,-2.05466 -0.4973,-4.01401 -0.86612,-5.82251c-0.1724,-0.90591 -0.30335,-1.78778 -0.49149,-2.62324s-0.37712,-1.63362 -0.55449,-2.4036c-0.31993,-1.53747 -0.75257,-2.89178 -1.07747,-4.0944s-0.65063,-2.22872 -0.93492,-3.0592c-0.25777,-0.79899 -0.46414,-1.43967 -0.62162,-1.92702a3.69905,3.69905 0 0 1 -0.18897,-0.68295l-0.00002,0.00001z" id="svg_356" stroke="null"/>
    </g>
    <g id="svg_357" stroke="null">
     <path class="e" d="m542.69687,261.24762a0.78324,0.78324 0 0 1 -0.01906,0.22876c-0.02818,0.17986 -0.06299,0.39784 -0.10526,0.66306c-0.10443,0.58018 -0.23622,1.44382 -0.46912,2.54284c-0.45917,2.19805 -1.22335,5.36085 -2.41271,9.19998s-2.80806,8.338 -4.73426,13.28195s-4.14413,10.33464 -6.25681,16.07095c-2.14335,5.72719 -3.79437,11.3168 -5.3451,16.38922c-1.53747,5.07573 -2.99621,9.6318 -4.40604,13.39384a85.30285,85.30285 0 0 1 -3.75376,8.73666c-0.48569,1.012 -0.92497,1.76706 -1.2076,2.2859l-0.33153,0.58018a0.80479,0.80479 0 0 1 -0.12847,0.19063a0.77081,0.77081 0 0 1 0.08288,-0.21467l0.28843,-0.60753c0.24865,-0.53376 0.66306,-1.30126 1.11892,-2.32071c0.95729,-2.02482 2.24612,-5.00197 3.59462,-8.77479c1.36259,-3.76702 2.78237,-8.32391 4.29415,-13.40627c1.52587,-5.07656 3.16778,-10.68606 5.31692,-16.429c2.11517,-5.7504 4.3588,-11.13446 6.29908,-16.06598s3.60208,-9.40884 4.82874,-13.22144s2.04554,-6.95137 2.56273,-9.13118c0.26108,-1.08991 0.42353,-1.94526 0.56112,-2.5188l0.15416,-0.65394a0.78573,0.78573 0 0 1 0.06796,-0.21964l0.00001,-0.00002z" id="svg_358" stroke="null"/>
    </g>
    <g id="svg_359" stroke="null">
     <path class="s" d="m469.39046,249.96397a2.04637,2.04637 0 0 0 -3.36918,2.08699a58.38338,58.38338 0 0 0 2.98378,7.68157c3.26806,6.94474 12.86836,31.8659 17.36226,45.55149s10.83194,39.21925 10.83194,39.21925l9.59616,-1.55654s-8.77893,-41.95272 -17.35812,-57.06804c-6.89584,-12.14646 -13.78753,-29.69852 -20.04683,-35.91472l-0.00001,0z" id="svg_360" stroke="null"/>
     <g id="svg_361" stroke="null">
      <path class="e" d="m488.99631,313.8425a5.91285,5.91285 0 0 1 0.4973,1.15041c0.28429,0.75257 0.67052,1.85077 1.10648,3.22165c0.88353,2.73513 1.96515,6.56182 3.05506,10.80956s1.98918,8.11504 2.62324,10.91813l0.72108,3.32525a5.89627,5.89627 0 0 1 0.19892,1.23578a6.03303,6.03303 0 0 1 -0.39038,-1.18937c-0.23373,-0.87524 -0.52879,-1.97592 -0.87856,-3.28713c-0.73351,-2.8868 -1.69909,-6.68117 -2.76579,-10.87669c-1.08908,-4.24276 -2.11351,-8.07277 -2.90752,-10.83028c-0.37877,-1.30126 -0.69704,-2.39531 -0.94984,-3.26309a5.92197,5.92197 0 0 1 -0.30998,-1.21423l-0.00001,0.00001z" id="svg_362" stroke="null"/>
     </g>
     <g id="svg_363" stroke="null">
      <path class="e" d="m502.01636,343.72668a1.02857,1.02857 0 0 1 -0.05387,-0.25528l-0.10858,-0.75589c-0.10112,-0.66306 -0.19063,-1.64854 -0.39369,-2.9067c-0.35225,-2.52046 -0.98133,-6.15404 -2.01156,-10.58495a151.5634,151.5634 0 0 0 -4.49141,-15.33329c-1.96763,-5.68492 -4.43671,-11.82819 -7.23483,-18.18612c-5.64597,-12.70011 -11.2853,-23.9647 -14.99099,-32.29441c-1.87398,-4.15574 -3.3236,-7.5473 -4.2784,-9.91111c-0.48735,-1.17693 -0.83546,-2.10439 -1.07747,-2.72933l-0.26605,-0.71528a0.13178,0.13178 0 1 1 0.04724,-0.01989c0.08288,0.184 0.18649,0.41441 0.3133,0.69621c0.2818,0.65063 0.67135,1.55073 1.16616,2.6912c1.01034,2.33895 2.50969,5.70564 4.42262,9.839c3.78691,8.28827 9.47515,19.5197 15.13023,32.24136c2.80143,6.36705 5.26305,12.5302 7.21079,18.23916a144.29874,144.29874 0 0 1 4.39941,15.40292a107.44247,107.44247 0 0 1 1.8574,10.63965c0.17322,1.26396 0.23124,2.25441 0.29921,2.92161c0.02404,0.30998 0.0431,0.56029 0.05885,0.76086a0.95978,0.95978 0 0 1 0.00166,0.26025l-0.00002,0.00003z" id="svg_364" stroke="null"/>
     </g>
     <g id="svg_365" stroke="null">
      <path class="e" d="m506.79293,342.94591a10.07024,10.07024 0 0 1 -0.32324,-1.61207c-0.19146,-1.1272 -0.44259,-2.61412 -0.74594,-4.41184c-0.66306,-3.71812 -1.67009,-8.83861 -3.12302,-14.4133c-1.43719,-5.57966 -3.05671,-10.54268 -4.30161,-14.10663l-1.50101,-4.21458a10.31558,10.31558 0 0 1 -0.51056,-1.56317a10.10091,10.10091 0 0 1 0.69539,1.49189c0.41441,0.9747 0.99459,2.39282 1.65765,4.16485a139.56613,139.56613 0 0 1 4.45577,14.10166a146.7935,146.7935 0 0 1 2.98378,14.48126c0.27268,1.87315 0.48155,3.3899 0.5893,4.44251a10.22192,10.22192 0 0 1 0.1235,1.63942l-0.00001,0z" id="svg_366" stroke="null"/>
     </g>
    </g>
    <g id="svg_367" stroke="null">
     <g id="svg_368" stroke="null">
      <rect class="t" width="37.458" height="45.63769" y="341.56757" x="489.03115" id="svg_369" stroke="null"/>
     </g>
     <rect class="u" width="33.23264" height="45.63769" y="341.56757" x="481.30731" id="svg_370" stroke="null"/>
    </g>
   </g>
  </g>
 </g>
</svg>